<?xml version="1.0" encoding="UTF-8"?>
<!DOCTYPE svg PUBLIC "-//W3C//DTD SVG 1.1//EN" "http://www.w3.org/Graphics/SVG/1.1/DTD/svg11.dtd">
<svg xmlns="http://www.w3.org/2000/svg" version="1.1" width="512px" height="512px" style="shape-rendering:geometricPrecision; text-rendering:geometricPrecision; image-rendering:optimizeQuality; fill-rule:evenodd; clip-rule:evenodd" xmlns:xlink="http://www.w3.org/1999/xlink">
<g><path style="opacity:0.981" fill="#9672bd" d="M 199.5,-0.5 C 210.5,-0.5 221.5,-0.5 232.5,-0.5C 246.054,3.21906 254.887,11.8857 259,25.5C 259.5,44.1637 259.667,62.8304 259.5,81.5C 251.833,81.5 244.167,81.5 236.5,81.5C 236.961,68.7335 236.461,56.0668 235,43.5C 233.457,41.6217 231.624,40.1217 229.5,39C 220.5,38.6667 211.5,38.3333 202.5,38C 199.768,37.6019 197.935,36.1019 197,33.5C 196.333,23.5 196.333,13.5 197,3.5C 197.662,2.01608 198.496,0.682751 199.5,-0.5 Z"/></g>
<g><path style="opacity:1" fill="#6055af" d="M 232.5,-0.5 C 239.167,-0.5 245.833,-0.5 252.5,-0.5C 265.474,3.64221 273.974,12.3089 278,25.5C 278.5,44.1637 278.667,62.8304 278.5,81.5C 272.167,81.5 265.833,81.5 259.5,81.5C 259.667,62.8304 259.5,44.1637 259,25.5C 254.887,11.8857 246.054,3.21906 232.5,-0.5 Z"/></g>
<g><path style="opacity:0.996" fill="#fbecec" d="M 236.5,81.5 C 244.167,81.5 251.833,81.5 259.5,81.5C 265.833,81.5 272.167,81.5 278.5,81.5C 303.5,81.5 328.5,81.5 353.5,81.5C 358.146,83.5829 361.646,86.9163 364,91.5C 365.406,102.436 365.906,113.436 365.5,124.5C 283.332,124.833 201.332,124.499 119.5,123.5C 119.334,113.494 119.5,103.494 120,93.5C 121.743,88.0896 125.243,84.2563 130.5,82C 165.832,81.5 201.165,81.3333 236.5,81.5 Z"/></g>
<g><path style="opacity:1" fill="#ead7e9" d="M 353.5,81.5 C 362.506,81.3336 371.506,81.5002 380.5,82C 385.641,83.8074 389.141,87.3074 391,92.5C 391.5,102.828 391.666,113.161 391.5,123.5C 383.016,124.493 374.349,124.826 365.5,124.5C 365.906,113.436 365.406,102.436 364,91.5C 361.646,86.9163 358.146,83.5829 353.5,81.5 Z"/></g>
<g><path style="opacity:1" fill="#f3dfe5" d="M 119.5,123.5 C 201.332,124.499 283.332,124.833 365.5,124.5C 374.349,124.826 383.016,124.493 391.5,123.5C 393.167,123.5 394.833,123.5 396.5,123.5C 400.139,125.575 403.305,128.241 406,131.5C 406.667,149.167 406.667,166.833 406,184.5C 404.312,188.685 401.479,191.685 397.5,193.5C 393.167,193.5 388.833,193.5 384.5,193.5C 290.167,193.5 195.833,193.5 101.5,193.5C 92.8891,195.608 86.3891,192.941 82,185.5C 81.3333,167.5 81.3333,149.5 82,131.5C 83.9904,127.51 87.1571,125.01 91.5,124C 100.827,123.5 110.161,123.334 119.5,123.5 Z"/></g>
<g><path style="opacity:1" fill="#d7c0d1" d="M 396.5,123.5 C 404.507,123.334 412.507,123.5 420.5,124C 425.428,125.927 428.594,129.427 430,134.5C 430.943,151.886 430.61,169.22 429,186.5C 424.878,192.803 419.045,195.136 411.5,193.5C 406.833,193.5 402.167,193.5 397.5,193.5C 401.479,191.685 404.312,188.685 406,184.5C 406.667,166.833 406.667,149.167 406,131.5C 403.305,128.241 400.139,125.575 396.5,123.5 Z"/></g>
<g><path style="opacity:0.999" fill="#ea552d" d="M 101.5,193.5 C 195.833,193.5 290.167,193.5 384.5,193.5C 382.239,213.852 379.905,234.186 377.5,254.5C 376.833,254.5 376.167,254.5 375.5,254.5C 351.256,253.524 327.923,257.691 305.5,267C 284.072,276.254 262.406,284.921 240.5,293C 210.212,302.859 180.545,301.192 151.5,288C 135.753,280.808 121.42,271.641 108.5,260.5C 106.093,238.174 103.76,215.841 101.5,193.5 Z"/></g>
<g><path style="opacity:1" fill="#da2f3c" d="M 384.5,193.5 C 388.833,193.5 393.167,193.5 397.5,193.5C 402.167,193.5 406.833,193.5 411.5,193.5C 409.052,216.865 406.385,240.198 403.5,263.5C 395.256,259.308 386.59,256.308 377.5,254.5C 379.905,234.186 382.239,213.852 384.5,193.5 Z"/></g>
<g><path style="opacity:0.999" fill="#fbecec" d="M 375.5,254.5 C 376.178,261.431 376.011,268.431 375,275.5C 371.437,303.136 368.27,330.802 365.5,358.5C 365.167,358.5 364.833,358.5 364.5,358.5C 347.852,358.294 331.519,360.461 315.5,365C 292.112,372.684 269.112,381.351 246.5,391C 201.728,405.342 160.061,399.176 121.5,372.5C 117.493,335.112 113.16,297.779 108.5,260.5C 121.42,271.641 135.753,280.808 151.5,288C 180.545,301.192 210.212,302.859 240.5,293C 262.406,284.921 284.072,276.254 305.5,267C 327.923,257.691 351.256,253.524 375.5,254.5 Z"/></g>
<g><path style="opacity:1" fill="#ead6e7" d="M 375.5,254.5 C 376.167,254.5 376.833,254.5 377.5,254.5C 386.59,256.308 395.256,259.308 403.5,263.5C 399.924,297.357 395.924,331.024 391.5,364.5C 382.919,361.587 374.252,359.587 365.5,358.5C 368.27,330.802 371.437,303.136 375,275.5C 376.011,268.431 376.178,261.431 375.5,254.5 Z"/></g>
<g><path style="opacity:0.998" fill="#ea552d" d="M 364.5,358.5 C 360.987,399.594 356.487,440.594 351,481.5C 346.147,497.522 335.647,507.522 319.5,511.5C 267.833,511.5 216.167,511.5 164.5,511.5C 149.717,507.554 139.883,498.221 135,483.5C 130.253,446.521 125.753,409.521 121.5,372.5C 160.061,399.176 201.728,405.342 246.5,391C 269.112,381.351 292.112,372.684 315.5,365C 331.519,360.461 347.852,358.294 364.5,358.5 Z"/></g>
<g><path style="opacity:1" fill="#da2f3b" d="M 364.5,358.5 C 364.833,358.5 365.167,358.5 365.5,358.5C 374.252,359.587 382.919,361.587 391.5,364.5C 387.622,403.901 383.122,443.234 378,482.5C 373.544,497.79 363.711,507.457 348.5,511.5C 338.833,511.5 329.167,511.5 319.5,511.5C 335.647,507.522 346.147,497.522 351,481.5C 356.487,440.594 360.987,399.594 364.5,358.5 Z"/></g>
</svg>
