<?xml version="1.0" encoding="UTF-8"?>
<!DOCTYPE svg PUBLIC "-//W3C//DTD SVG 1.1//EN" "http://www.w3.org/Graphics/SVG/1.1/DTD/svg11.dtd">
<svg xmlns="http://www.w3.org/2000/svg" version="1.1" width="512px" height="512px" style="shape-rendering:geometricPrecision; text-rendering:geometricPrecision; image-rendering:optimizeQuality; fill-rule:evenodd; clip-rule:evenodd" xmlns:xlink="http://www.w3.org/1999/xlink">
<g><path style="opacity:0.948" fill="#d8ecfe" d="M 178.5,-0.5 C 181.167,-0.5 183.833,-0.5 186.5,-0.5C 194.591,8.05123 198.591,18.3846 198.5,30.5C 197.759,43.9845 193.592,56.3178 186,67.5C 181.761,79.2125 183.094,90.2125 190,100.5C 191.846,111.16 187.68,114.66 177.5,111C 167.608,97.6155 164.775,82.7821 169,66.5C 171.531,59.1051 174.864,52.1051 179,45.5C 182.986,36.6063 183.319,27.6063 180,18.5C 177.495,14.989 175.661,11.1557 174.5,7C 174.927,3.97656 176.261,1.47656 178.5,-0.5 Z"/></g>
<g><path style="opacity:0.951" fill="#d8ecfe" d="M 237.5,-0.5 C 240.5,-0.5 243.5,-0.5 246.5,-0.5C 257.077,12.8215 260.243,27.8215 256,44.5C 252.864,52.7695 249.198,60.7695 245,68.5C 241.759,76.5091 241.759,84.5091 245,92.5C 247.043,96.3846 248.876,100.385 250.5,104.5C 248.316,112.568 243.482,114.568 236,110.5C 226.319,96.3154 223.985,80.982 229,64.5C 233.557,55.3887 237.557,46.0554 241,36.5C 242.43,27.3108 240.43,18.9775 235,11.5C 233.773,6.93804 234.607,2.93804 237.5,-0.5 Z"/></g>
<g><path style="opacity:0.948" fill="#d8ecfe" d="M 297.5,-0.5 C 300.167,-0.5 302.833,-0.5 305.5,-0.5C 316.834,13.6567 319.834,29.4901 314.5,47C 310.192,55.6366 306.359,64.4699 303,73.5C 300.966,83.7398 302.966,93.0732 309,101.5C 309.949,110.217 306.116,113.717 297.5,112C 289.783,103.193 285.783,92.8601 285.5,81C 285.943,75.2292 286.943,69.5625 288.5,64C 293.01,55.4787 296.843,46.6453 300,37.5C 300.667,32.8333 300.667,28.1667 300,23.5C 297.942,17.8947 295.775,12.3947 293.5,7C 293.43,3.63354 294.763,1.13354 297.5,-0.5 Z"/></g>
<g><path style="opacity:0.976" fill="#b47e5e" d="M 343.5,137.5 C 357.794,143.084 360.961,152.417 353,165.5C 350.905,167.125 348.739,168.458 346.5,169.5C 270.332,169.167 194.332,169.501 118.5,170.5C 108.617,169.45 103.284,163.95 102.5,154C 103.281,145.222 107.947,139.888 116.5,138C 192.166,137.5 267.833,137.333 343.5,137.5 Z"/></g>
<g><path style="opacity:1" fill="#9f6e50" d="M 343.5,137.5 C 351.507,137.334 359.507,137.5 367.5,138C 376.42,139.588 381.087,144.921 381.5,154C 380.855,163.477 375.855,168.977 366.5,170.5C 366.167,170.5 365.833,170.5 365.5,170.5C 359.355,169.51 353.022,169.177 346.5,169.5C 348.739,168.458 350.905,167.125 353,165.5C 360.961,152.417 357.794,143.084 343.5,137.5 Z"/></g>
<g><path style="opacity:0.999" fill="#fdefad" d="M 346.5,169.5 C 353.022,169.177 359.355,169.51 365.5,170.5C 357.833,170.5 350.167,170.5 342.5,170.5C 342.667,249.501 342.5,328.501 342,407.5C 340.944,414.615 339.444,421.615 337.5,428.5C 337.167,428.5 336.833,428.5 336.5,428.5C 265.5,428.5 194.5,428.5 123.5,428.5C 121.233,423.771 119.733,418.771 119,413.5C 118.5,332.501 118.333,251.501 118.5,170.5C 194.332,169.501 270.332,169.167 346.5,169.5 Z"/></g>
<g><path style="opacity:1" fill="#fee97d" d="M 365.5,170.5 C 365.17,189.008 365.503,207.341 366.5,225.5C 366.5,261.5 366.5,297.5 366.5,333.5C 365.181,344.598 365.181,355.598 366.5,366.5C 366.667,380.171 366.5,393.837 366,407.5C 365.547,414.986 363.713,421.986 360.5,428.5C 352.833,428.5 345.167,428.5 337.5,428.5C 339.444,421.615 340.944,414.615 342,407.5C 342.5,328.501 342.667,249.501 342.5,170.5C 350.167,170.5 357.833,170.5 365.5,170.5 Z"/></g>
<g><path style="opacity:0.986" fill="#feefad" d="M 365.5,170.5 C 365.833,170.5 366.167,170.5 366.5,170.5C 366.5,178.167 366.5,185.833 366.5,193.5C 387.5,193.5 408.5,193.5 429.5,193.5C 444.165,196.324 453.665,204.991 458,219.5C 458.167,239.167 458.333,258.833 458.5,278.5C 458.633,300.201 458.133,321.868 457,343.5C 451.552,356.293 442.052,363.96 428.5,366.5C 407.833,366.5 387.167,366.5 366.5,366.5C 365.181,355.598 365.181,344.598 366.5,333.5C 390.59,333.98 414.59,333.48 438.5,332C 440.487,330.681 441.654,328.848 442,326.5C 442.667,295.167 442.667,263.833 442,232.5C 440.437,229.272 437.937,227.105 434.5,226C 411.836,225.5 389.169,225.333 366.5,225.5C 365.503,207.341 365.17,189.008 365.5,170.5 Z"/></g>
<g><path style="opacity:1" fill="#fee97e" d="M 429.5,193.5 C 445.191,190.564 458.358,194.897 469,206.5C 472.127,211.419 474.127,216.752 475,222.5C 475.667,260.833 475.667,299.167 475,337.5C 472.364,352.802 463.53,362.302 448.5,366C 441.842,366.5 435.175,366.666 428.5,366.5C 442.052,363.96 451.552,356.293 457,343.5C 458.133,321.868 458.633,300.201 458.5,278.5C 458.333,258.833 458.167,239.167 458,219.5C 453.665,204.991 444.165,196.324 429.5,193.5 Z"/></g>
<g><path style="opacity:1" fill="#a06f51" d="M 223.5,234.5 C 223.53,235.497 223.03,236.164 222,236.5C 215.888,238.148 210.054,240.482 204.5,243.5C 201.078,231.13 193.744,221.964 182.5,216C 181.748,215.329 181.414,214.496 181.5,213.5C 201.002,209.917 215.002,216.917 223.5,234.5 Z"/></g>
<g><path style="opacity:1" fill="#b57f5f" d="M 285.5,213.5 C 291.507,217.299 297.007,221.966 302,227.5C 309.384,239.635 310.384,252.302 305,265.5C 292.942,250.061 277.442,240.061 258.5,235.5C 262.202,230.013 266.535,224.846 271.5,220C 275.798,217.018 280.464,214.851 285.5,213.5 Z"/></g>
<g><path style="opacity:1" fill="#b57f5f" d="M 181.5,213.5 C 181.414,214.496 181.748,215.329 182.5,216C 193.744,221.964 201.078,231.13 204.5,243.5C 210.054,240.482 215.888,238.148 222,236.5C 223.03,236.164 223.53,235.497 223.5,234.5C 227.104,235.521 230.771,235.521 234.5,234.5C 253.889,239.694 269.722,250.361 282,266.5C 284.254,270.007 286.254,273.673 288,277.5C 288.74,278.749 288.573,279.749 287.5,280.5C 274.532,275.406 265.032,279.073 259,291.5C 258.333,294.833 258.333,298.167 259,301.5C 262.866,306.416 267.199,306.749 272,302.5C 273.044,300.285 273.71,297.952 274,295.5C 276.459,292.9 278.959,292.9 281.5,295.5C 282.045,302.382 285.711,305.715 292.5,305.5C 293.301,316.98 290.634,327.813 284.5,338C 287.816,344.096 289.816,350.596 290.5,357.5C 273.119,371.407 253.452,376.74 231.5,373.5C 253.241,369.709 270.408,358.709 283,340.5C 283.667,339.167 283.667,337.833 283,336.5C 275.245,325.813 265.079,319.813 252.5,318.5C 246.718,316.644 240.718,315.977 234.5,316.5C 211.561,321.095 197.894,334.762 193.5,357.5C 169.653,336.787 162.319,311.287 171.5,281C 154.441,267.933 149.941,251.433 158,231.5C 163.683,222.645 171.517,216.645 181.5,213.5 Z"/></g>
<g><path style="opacity:1" fill="#9f6e50" d="M 290.5,357.5 C 289.816,350.596 287.816,344.096 284.5,338C 290.634,327.813 293.301,316.98 292.5,305.5C 298.658,299.851 299.158,293.518 294,286.5C 291.937,284.266 289.771,282.266 287.5,280.5C 288.573,279.749 288.74,278.749 288,277.5C 286.254,273.673 284.254,270.007 282,266.5C 269.722,250.361 253.889,239.694 234.5,234.5C 242.534,234.302 250.534,234.635 258.5,235.5C 277.442,240.061 292.942,250.061 305,265.5C 310.384,252.302 309.384,239.635 302,227.5C 297.007,221.966 291.507,217.299 285.5,213.5C 312.089,210.585 327.089,222.419 330.5,249C 330.649,255.572 329.149,261.739 326,267.5C 322.674,272.988 318.508,277.655 313.5,281.5C 320.519,304.051 317.352,325.051 304,344.5C 300.291,349.71 295.791,354.043 290.5,357.5 Z"/></g>
<g><path style="opacity:1" fill="#577982" d="M 200.5,278.5 C 215.081,276.606 223.748,282.773 226.5,297C 225.208,304.814 220.874,307.148 213.5,304C 211.646,301.457 210.479,298.624 210,295.5C 207.034,292.735 204.367,293.068 202,296.5C 200.486,305.863 195.819,307.863 188,302.5C 185.522,291.125 189.688,283.125 200.5,278.5 Z"/></g>
<g><path style="opacity:1" fill="#577982" d="M 287.5,280.5 C 289.771,282.266 291.937,284.266 294,286.5C 299.158,293.518 298.658,299.851 292.5,305.5C 285.711,305.715 282.045,302.382 281.5,295.5C 278.959,292.9 276.459,292.9 274,295.5C 273.71,297.952 273.044,300.285 272,302.5C 267.199,306.749 262.866,306.416 259,301.5C 258.333,298.167 258.333,294.833 259,291.5C 265.032,279.073 274.532,275.406 287.5,280.5 Z"/></g>
<g><path style="opacity:1" fill="#577982" d="M 234.5,316.5 C 240.718,315.977 246.718,316.644 252.5,318.5C 260.069,327.25 258.735,334.417 248.5,340C 232.295,343.457 225.795,337.291 229,321.5C 230.73,319.598 232.563,317.931 234.5,316.5 Z"/></g>
<g><path style="opacity:1" fill="#e1a875" d="M 234.5,316.5 C 232.563,317.931 230.73,319.598 229,321.5C 225.795,337.291 232.295,343.457 248.5,340C 258.735,334.417 260.069,327.25 252.5,318.5C 265.079,319.813 275.245,325.813 283,336.5C 283.667,337.833 283.667,339.167 283,340.5C 270.408,358.709 253.241,369.709 231.5,373.5C 217.178,371.845 204.511,366.511 193.5,357.5C 197.894,334.762 211.561,321.095 234.5,316.5 Z"/></g>
<g><path style="opacity:0.998" fill="#b68060" d="M 123.5,428.5 C 194.5,428.5 265.5,428.5 336.5,428.5C 327.124,449.368 311.124,461.868 288.5,466C 295.158,466.5 301.825,466.666 308.5,466.5C 261.986,467.806 215.32,467.806 168.5,466.5C 147.437,461.11 132.437,448.443 123.5,428.5 Z"/></g>
<g><path style="opacity:1" fill="#a06e50" d="M 336.5,428.5 C 336.833,428.5 337.167,428.5 337.5,428.5C 345.167,428.5 352.833,428.5 360.5,428.5C 351.669,448.003 337.002,460.669 316.5,466.5C 313.833,466.5 311.167,466.5 308.5,466.5C 301.825,466.666 295.158,466.5 288.5,466C 311.124,461.868 327.124,449.368 336.5,428.5 Z"/></g>
<g><path style="opacity:0.989" fill="#fef0ad" d="M 168.5,466.5 C 215.32,467.806 261.986,467.806 308.5,466.5C 311.167,466.5 313.833,466.5 316.5,466.5C 356.5,466.5 396.5,466.5 436.5,466.5C 441.732,468.743 444.732,472.743 445.5,478.5C 441.31,495.948 430.644,506.948 413.5,511.5C 297.5,511.5 181.5,511.5 65.5,511.5C 48.2101,506.049 38.3768,494.382 36,476.5C 36.73,471.845 39.23,468.679 43.5,467C 85.1653,466.5 126.832,466.333 168.5,466.5 Z"/></g>
<g><path style="opacity:1" fill="#fee97e" d="M 436.5,466.5 C 444.84,466.334 453.173,466.5 461.5,467C 468.996,471.148 471.163,477.315 468,485.5C 462.373,498.636 452.873,507.303 439.5,511.5C 430.833,511.5 422.167,511.5 413.5,511.5C 430.644,506.948 441.31,495.948 445.5,478.5C 444.732,472.743 441.732,468.743 436.5,466.5 Z"/></g>
</svg>
