<?xml version="1.0" encoding="UTF-8"?>
<!DOCTYPE svg PUBLIC "-//W3C//DTD SVG 1.1//EN" "http://www.w3.org/Graphics/SVG/1.1/DTD/svg11.dtd">
<svg xmlns="http://www.w3.org/2000/svg" version="1.1" width="512px" height="512px" style="shape-rendering:geometricPrecision; text-rendering:geometricPrecision; image-rendering:optimizeQuality; fill-rule:evenodd; clip-rule:evenodd" xmlns:xlink="http://www.w3.org/1999/xlink">
<g><path style="opacity:0.996" fill="#d92e3b" d="M 223.5,-0.5 C 239.833,-0.5 256.167,-0.5 272.5,-0.5C 272.666,6.50793 272.5,13.5079 272,20.5C 271.167,24 269,26.1667 265.5,27C 250.17,27.4999 234.837,27.6666 219.5,27.5C 219.334,19.8261 219.5,12.1594 220,4.5C 220.997,2.67694 222.164,1.01027 223.5,-0.5 Z"/></g>
<g><path style="opacity:1" fill="#c62430" d="M 272.5,-0.5 C 277.833,-0.5 283.167,-0.5 288.5,-0.5C 289.836,1.01027 291.003,2.67694 292,4.5C 292.5,17.1623 292.667,29.8289 292.5,42.5C 285.833,42.5 279.167,42.5 272.5,42.5C 254.833,42.5 237.167,42.5 219.5,42.5C 219.5,37.5 219.5,32.5 219.5,27.5C 234.837,27.6666 250.17,27.4999 265.5,27C 269,26.1667 271.167,24 272,20.5C 272.5,13.5079 272.666,6.50793 272.5,-0.5 Z"/></g>
<g><path style="opacity:0.996" fill="#a77454" d="M 219.5,42.5 C 237.167,42.5 254.833,42.5 272.5,42.5C 268.529,79.5548 274.363,114.888 290,148.5C 298.705,164.577 306.872,180.91 314.5,197.5C 280.663,197.168 246.996,197.502 213.5,198.5C 201.167,198.5 188.833,198.5 176.5,198.5C 185.638,180.224 194.804,161.891 204,143.5C 210.89,128.496 215.557,112.83 218,96.5C 219.266,78.5232 219.766,60.5232 219.5,42.5 Z"/></g>
<g><path style="opacity:1" fill="#915431" d="M 272.5,42.5 C 279.167,42.5 285.833,42.5 292.5,42.5C 292.315,60.1863 292.815,77.8529 294,95.5C 296.375,112.958 301.375,129.624 309,145.5C 317.527,162.553 326.027,179.553 334.5,196.5C 328.021,197.491 321.354,197.824 314.5,197.5C 306.872,180.91 298.705,164.577 290,148.5C 274.363,114.888 268.529,79.5548 272.5,42.5 Z"/></g>
<g><path style="opacity:1" fill="#b1624b" d="M 334.5,196.5 C 335.338,196.842 335.672,197.508 335.5,198.5C 328.833,198.5 322.167,198.5 315.5,198.5C 282.329,198.168 249.329,198.502 216.5,199.5C 215.609,198.89 214.609,198.557 213.5,198.5C 246.996,197.502 280.663,197.168 314.5,197.5C 321.354,197.824 328.021,197.491 334.5,196.5 Z"/></g>
<g><path style="opacity:1" fill="#ddf4fd" d="M 176.5,198.5 C 188.833,198.5 201.167,198.5 213.5,198.5C 214.609,198.557 215.609,198.89 216.5,199.5C 229.952,204.224 242.952,210.057 255.5,217C 269.769,225.606 283.769,234.606 297.5,244C 306.922,249.044 316.588,253.544 326.5,257.5C 325.567,275.961 323.567,294.294 320.5,312.5C 313.167,312.5 305.833,312.5 298.5,312.5C 297.833,312.167 297.167,311.833 296.5,311.5C 282.614,307.06 269.28,301.226 256.5,294C 243.167,285.333 229.833,276.667 216.5,268C 200.756,258.363 183.756,252.196 165.5,249.5C 165.536,231.691 169.203,214.691 176.5,198.5 Z"/></g>
<g><path style="opacity:1" fill="#da303c" d="M 216.5,199.5 C 249.329,198.502 282.329,198.168 315.5,198.5C 323.262,217.409 327.262,237.076 327.5,257.5C 327.167,257.5 326.833,257.5 326.5,257.5C 316.588,253.544 306.922,249.044 297.5,244C 283.769,234.606 269.769,225.606 255.5,217C 242.952,210.057 229.952,204.224 216.5,199.5 Z"/></g>
<g><path style="opacity:1" fill="#c62530" d="M 315.5,198.5 C 322.167,198.5 328.833,198.5 335.5,198.5C 344.452,218.591 348.119,239.591 346.5,261.5C 339.996,260.957 333.663,259.624 327.5,257.5C 327.262,237.076 323.262,217.409 315.5,198.5 Z"/></g>
<g><path style="opacity:1" fill="#d9303c" d="M 165.5,249.5 C 183.756,252.196 200.756,258.363 216.5,268C 229.833,276.667 243.167,285.333 256.5,294C 269.28,301.226 282.614,307.06 296.5,311.5C 255.337,312.499 214.003,312.832 172.5,312.5C 167.308,291.948 164.974,270.948 165.5,249.5 Z"/></g>
<g><path style="opacity:1" fill="#c1e6f1" d="M 326.5,257.5 C 326.833,257.5 327.167,257.5 327.5,257.5C 333.663,259.624 339.996,260.957 346.5,261.5C 345.99,278.874 343.656,295.874 339.5,312.5C 333.167,312.5 326.833,312.5 320.5,312.5C 323.567,294.294 325.567,275.961 326.5,257.5 Z"/></g>
<g><path style="opacity:0.999" fill="#b4634e" d="M 296.5,311.5 C 297.167,311.833 297.833,312.167 298.5,312.5C 256.67,313.499 214.67,313.832 172.5,313.5C 172.5,313.167 172.5,312.833 172.5,312.5C 214.003,312.832 255.337,312.499 296.5,311.5 Z"/></g>
<g><path style="opacity:0.997" fill="#a77554" d="M 298.5,312.5 C 305.833,312.5 313.167,312.5 320.5,312.5C 326.833,312.5 333.167,312.5 339.5,312.5C 339.5,312.833 339.5,313.167 339.5,313.5C 332.833,313.5 326.167,313.5 319.5,313.5C 315.686,333.72 312.519,354.053 310,374.5C 304.09,409.706 309.424,443.039 326,474.5C 328.896,493.746 321.063,505.746 302.5,510.5C 263.499,510.667 224.499,510.5 185.5,510C 169.248,503.671 162.748,491.838 166,474.5C 182.803,441.962 187.803,407.628 181,371.5C 178.49,352.108 175.657,332.775 172.5,313.5C 214.67,313.832 256.67,313.499 298.5,312.5 Z"/></g>
<g><path style="opacity:1" fill="#915431" d="M 339.5,313.5 C 336.56,332.808 333.727,352.141 331,371.5C 324.242,407.625 329.242,441.958 346,474.5C 349.233,490.201 343.733,501.701 329.5,509C 320.582,510.414 311.582,510.914 302.5,510.5C 321.063,505.746 328.896,493.746 326,474.5C 309.424,443.039 304.09,409.706 310,374.5C 312.519,354.053 315.686,333.72 319.5,313.5C 326.167,313.5 332.833,313.5 339.5,313.5 Z"/></g>
</svg>
