<svg xmlns="http://www.w3.org/2000/svg" width="64" height="64" enable-background="new 0 0 64 64" viewBox="0 0 64 64" id="coffee-dripper"><path fill="#E6E9ED" d="M6,63.49c-1.66,0-3-1.34-3-3h9.01h27.98H49c0,1.649-1.34,3-3,3v0.01L6,63.49z"></path><path fill="#CCD1D9" d="M48,39.49c0,0.83-0.67,1.5-1.5,1.5s-1.49-0.66-1.5-1.49v-0.01c0.01-4.42,3.58-7.99,8-7.99s8,3.58,8,8
		c0,8.84-7.16,15.99-16,15.99h-0.01v-3H45c7.19,0,13-5.811,13-12.99l-0.02-0.01c0-2.76-2.23-4.99-4.98-4.99
		c-2.76,0-4.99,2.23-4.99,4.99H48z"></path><polygon fill="#E6E9ED" points="26 31.48 26 42.5 7.01 42.5 7.01 31.48 24 31.48"></polygon><polygon fill="#E6E9ED" points="28 31.48 44.99 31.48 44.99 39.5 44.99 42.5 26 42.5 26 31.48"></polygon><polygon fill="#844747" points="36 15.5 28 31.48 26 31.48 24 31.48 16 15.5"></polygon><polygon fill="#E6E9ED" points="43 1.5 36 15.5 16 15.5 9 1.5"></polygon><path fill="#E6E9ED" d="M24.001 32.48c-.367 0-.72-.202-.896-.553L8.104 1.947C7.856 1.453 8.057.853 8.551.605c.494-.246 1.095-.047 1.342.447l15.002 29.98c.247.494.047 1.095-.447 1.342C24.304 32.446 24.151 32.48 24.001 32.48zM27.999 32.48c-.15 0-.303-.034-.446-.105-.494-.247-.694-.848-.447-1.342l15.002-29.98c.248-.494.847-.693 1.342-.447.494.247.694.848.447 1.342l-15.002 29.98C28.719 32.278 28.366 32.48 27.999 32.48z"></path><path fill="#F5F7FA" d="M44,2.5H8c-0.553,0-1-0.447-1-1s0.447-1,1-1h36c0.553,0,1,0.447,1,1S44.553,2.5,44,2.5z"></path><path fill="#844747" d="M26,43.5c-0.553,0-1-0.447-1-1V31.48c0-0.553,0.447-1,1-1s1,0.447,1,1V42.5C27,43.053,26.553,43.5,26,43.5
			z"></path><path fill="#F5F7FA" d="M45.991,32.48H6.007c-0.553,0-1-0.447-1-1s0.447-1,1-1h39.984c0.553,0,1,0.447,1,1
			S46.544,32.48,45.991,32.48z"></path><path fill="#965353" d="M44.99,52.49v3c0,2.77-2.24,5-5,5H12.01c-2.77,0-5-2.23-5-5V42.5H26h18.99V52.49z"></path></svg>