<?xml version="1.0" encoding="UTF-8"?>
<!DOCTYPE svg PUBLIC "-//W3C//DTD SVG 1.1//EN" "http://www.w3.org/Graphics/SVG/1.1/DTD/svg11.dtd">
<svg xmlns="http://www.w3.org/2000/svg" version="1.1" width="512px" height="512px" style="shape-rendering:geometricPrecision; text-rendering:geometricPrecision; image-rendering:optimizeQuality; fill-rule:evenodd; clip-rule:evenodd" xmlns:xlink="http://www.w3.org/1999/xlink">
<g><path style="opacity:0.989" fill="#655d65" d="M 217.5,-0.5 C 242.833,-0.5 268.167,-0.5 293.5,-0.5C 293.783,0.28913 294.283,0.955796 295,1.5C 295.667,14.8333 295.667,28.1667 295,41.5C 294.487,42.5266 293.987,43.5266 293.5,44.5C 268.167,44.5 242.833,44.5 217.5,44.5C 217.217,43.7109 216.717,43.0442 216,42.5C 215.333,28.8333 215.333,15.1667 216,1.5C 216.717,0.955796 217.217,0.28913 217.5,-0.5 Z"/></g>
<g><path style="opacity:0.988" fill="#544f57" d="M 217.5,44.5 C 242.833,44.5 268.167,44.5 293.5,44.5C 293.783,45.2891 294.283,45.9558 295,46.5C 295.667,54.8333 295.667,63.1667 295,71.5C 293.211,73.229 291.044,73.8957 288.5,73.5C 274.833,73.5 261.167,73.5 247.5,73.5C 239.167,73.5 230.833,73.5 222.5,73.5C 219.956,73.8957 217.789,73.229 216,71.5C 215.333,63.1667 215.333,54.8333 216,46.5C 216.717,45.9558 217.217,45.2891 217.5,44.5 Z"/></g>
<g><path style="opacity:0.996" fill="#d9f0f3" d="M 222.5,73.5 C 230.833,73.5 239.167,73.5 247.5,73.5C 246.813,81.9587 249.813,88.792 256.5,94C 289.531,108.859 310.865,133.693 320.5,168.5C 265.5,168.5 210.5,168.5 155.5,168.5C 168.868,142.633 188.868,123.799 215.5,112C 218.85,108.468 221.016,104.301 222,99.5C 222.5,90.8397 222.666,82.1731 222.5,73.5 Z"/></g>
<g><path style="opacity:1" fill="#b9e4ef" d="M 247.5,73.5 C 261.167,73.5 274.833,73.5 288.5,73.5C 288.334,82.1731 288.5,90.8397 289,99.5C 289.984,104.301 292.15,108.468 295.5,112C 322.132,123.799 342.132,142.633 355.5,168.5C 344.167,168.5 332.833,168.5 321.5,168.5C 321.167,168.5 320.833,168.5 320.5,168.5C 310.865,133.693 289.531,108.859 256.5,94C 249.813,88.792 246.813,81.9587 247.5,73.5 Z"/></g>
<g><path style="opacity:1" fill="#b9e4ef" d="M 241.5,103.5 C 250.506,103.334 259.506,103.5 268.5,104C 273.143,106.072 274.643,109.572 273,114.5C 272.5,116.333 271.333,117.5 269.5,118C 260.167,118.667 250.833,118.667 241.5,118C 237.788,115.487 236.622,111.987 238,107.5C 239.376,106.295 240.542,104.962 241.5,103.5 Z"/></g>
<g><path style="opacity:0.999" fill="#ebbe6b" d="M 155.5,168.5 C 210.5,168.5 265.5,168.5 320.5,168.5C 320.833,168.5 321.167,168.5 321.5,168.5C 324.214,187.376 325.214,206.376 324.5,225.5C 264.5,225.5 204.5,225.5 144.5,225.5C 143.684,205.582 147.351,186.582 155.5,168.5 Z"/></g>
<g><path style="opacity:1" fill="#eab14d" d="M 321.5,168.5 C 332.833,168.5 344.167,168.5 355.5,168.5C 363.649,186.582 367.316,205.582 366.5,225.5C 352.5,225.5 338.5,225.5 324.5,225.5C 325.214,206.376 324.214,187.376 321.5,168.5 Z"/></g>
<g><path style="opacity:1" fill="#eab14e" d="M 296.5,186.5 C 305.545,186.925 308.212,191.259 304.5,199.5C 297.411,204.29 293.077,202.457 291.5,194C 291.782,190.556 293.448,188.056 296.5,186.5 Z"/></g>
<g><path style="opacity:1" fill="#eab14e" d="M 222.5,192.5 C 228.629,191.555 232.296,194.055 233.5,200C 232.008,206.418 228.008,208.751 221.5,207C 216.003,201.683 216.336,196.85 222.5,192.5 Z"/></g>
<g><path style="opacity:0.998" fill="#665e66" d="M 144.5,225.5 C 204.5,225.5 264.5,225.5 324.5,225.5C 324.5,225.833 324.5,226.167 324.5,226.5C 324.5,279.167 324.5,331.833 324.5,384.5C 324.5,384.833 324.5,385.167 324.5,385.5C 264.5,385.5 204.5,385.5 144.5,385.5C 144.5,376.833 144.5,368.167 144.5,359.5C 161.17,359.667 177.837,359.5 194.5,359C 195.333,358.167 196.167,357.333 197,356.5C 197.667,322.5 197.667,288.5 197,254.5C 196.167,253.667 195.333,252.833 194.5,252C 177.837,251.5 161.17,251.333 144.5,251.5C 144.5,242.833 144.5,234.167 144.5,225.5 Z"/></g>
<g><path style="opacity:1" fill="#544f57" d="M 324.5,226.5 C 338.167,226.5 351.833,226.5 365.5,226.5C 365.5,279.167 365.5,331.833 365.5,384.5C 351.833,384.5 338.167,384.5 324.5,384.5C 324.5,331.833 324.5,279.167 324.5,226.5 Z"/></g>
<g><path style="opacity:0.502" fill="#5f575d" d="M 324.5,226.5 C 324.5,226.167 324.5,225.833 324.5,225.5C 338.5,225.5 352.5,225.5 366.5,225.5C 366.5,278.833 366.5,332.167 366.5,385.5C 352.5,385.5 338.5,385.5 324.5,385.5C 324.5,385.167 324.5,384.833 324.5,384.5C 338.167,384.5 351.833,384.5 365.5,384.5C 365.5,331.833 365.5,279.167 365.5,226.5C 351.833,226.5 338.167,226.5 324.5,226.5 Z"/></g>
<g><path style="opacity:0.986" fill="#f0f0f3" d="M 144.5,251.5 C 161.17,251.333 177.837,251.5 194.5,252C 195.333,252.833 196.167,253.667 197,254.5C 197.667,288.5 197.667,322.5 197,356.5C 196.167,357.333 195.333,358.167 194.5,359C 177.837,359.5 161.17,359.667 144.5,359.5C 144.5,323.5 144.5,287.5 144.5,251.5 Z"/></g>
<g><path style="opacity:1" fill="#eabd6a" d="M 276.5,251.5 C 289.196,251.026 294.696,257.026 293,269.5C 289.086,276.996 284.92,284.329 280.5,291.5C 285.577,292.105 290.577,292.938 295.5,294C 301.112,298.176 302.945,303.676 301,310.5C 293,324.5 285,338.5 277,352.5C 271.887,359.871 265.387,361.371 257.5,357C 252.789,352.86 251.289,347.694 253,341.5C 256.914,334.004 261.08,326.671 265.5,319.5C 261.204,318.672 256.871,318.172 252.5,318C 244.186,312.595 242.352,305.428 247,296.5C 254.333,283.833 261.667,271.167 269,258.5C 271.015,255.588 273.515,253.255 276.5,251.5 Z"/></g>
<g><path style="opacity:1" fill="#ebbd6a" d="M 144.5,385.5 C 204.5,385.5 264.5,385.5 324.5,385.5C 324.5,395.833 324.5,406.167 324.5,416.5C 324.5,420.167 324.5,423.833 324.5,427.5C 324.5,437.833 324.5,448.167 324.5,458.5C 318.873,460.588 317.039,464.588 319,470.5C 320.353,471.685 321.52,473.019 322.5,474.5C 314.801,488.678 303.134,493.511 287.5,489C 281.658,485.246 275.991,481.246 270.5,477C 259.963,472.02 249.63,472.353 239.5,478C 235.033,482.4 230.033,486.066 224.5,489C 215.343,491.777 206.676,490.777 198.5,486C 193.625,480.396 187.625,476.563 180.5,474.5C 178.608,467.503 174.275,465.67 167.5,469C 166.139,470.584 165.472,472.418 165.5,474.5C 157.22,476.783 150.22,481.116 144.5,487.5C 144.5,453.5 144.5,419.5 144.5,385.5 Z"/></g>
<g><path style="opacity:1" fill="#eab14d" d="M 324.5,385.5 C 338.5,385.5 352.5,385.5 366.5,385.5C 366.667,419.835 366.5,454.168 366,488.5C 363.945,500.047 357.445,507.713 346.5,511.5C 341.5,511.5 336.5,511.5 331.5,511.5C 323.761,506.956 316.094,502.123 308.5,497C 298.379,493.302 288.712,494.302 279.5,500C 274.699,505.333 269.032,509.167 262.5,511.5C 257.833,511.5 253.167,511.5 248.5,511.5C 241.968,509.167 236.301,505.333 231.5,500C 215.93,491.383 201.93,493.383 189.5,506C 186.233,508.13 182.9,509.963 179.5,511.5C 174.5,511.5 169.5,511.5 164.5,511.5C 153.174,507.498 146.508,499.498 144.5,487.5C 150.22,481.116 157.22,476.783 165.5,474.5C 166.518,482 170.518,484.167 177.5,481C 179.451,479.266 180.451,477.099 180.5,474.5C 187.625,476.563 193.625,480.396 198.5,486C 206.676,490.777 215.343,491.777 224.5,489C 230.033,486.066 235.033,482.4 239.5,478C 249.63,472.353 259.963,472.02 270.5,477C 275.991,481.246 281.658,485.246 287.5,489C 303.134,493.511 314.801,488.678 322.5,474.5C 321.52,473.019 320.353,471.685 319,470.5C 317.039,464.588 318.873,460.588 324.5,458.5C 324.5,448.167 324.5,437.833 324.5,427.5C 331.526,432.163 336.193,430.33 338.5,422C 336.105,414.432 331.438,412.599 324.5,416.5C 324.5,406.167 324.5,395.833 324.5,385.5 Z"/></g>
<g><path style="opacity:1" fill="#eab14e" d="M 228.5,406.5 C 235.969,407.082 238.802,411.082 237,418.5C 232.959,423.313 228.625,423.646 224,419.5C 221.095,413.509 222.595,409.176 228.5,406.5 Z"/></g>
<g><path style="opacity:1" fill="#e7a52f" d="M 324.5,427.5 C 324.5,423.833 324.5,420.167 324.5,416.5C 331.438,412.599 336.105,414.432 338.5,422C 336.193,430.33 331.526,432.163 324.5,427.5 Z"/></g>
<g><path style="opacity:1" fill="#eab14e" d="M 266.5,433.5 C 274.164,432.666 277.664,436 277,443.5C 274.565,448.224 270.731,449.724 265.5,448C 262.606,445.091 261.773,441.591 263,437.5C 264.102,436.051 265.269,434.718 266.5,433.5 Z"/></g>
<g><path style="opacity:1" fill="#eab14e" d="M 217.5,452.5 C 224.88,452.05 228.38,455.384 228,462.5C 225.565,467.224 221.731,468.724 216.5,467C 210.99,461.73 211.323,456.897 217.5,452.5 Z"/></g>
<g><path style="opacity:1" fill="#e7a52f" d="M 324.5,458.5 C 329.781,458.282 332.781,460.782 333.5,466C 332.459,471.542 329.125,474.376 323.5,474.5C 324.194,469.195 324.528,463.862 324.5,458.5 Z"/></g>
<g><path style="opacity:1" fill="#eab14d" d="M 180.5,474.5 C 175.455,473.28 170.455,473.28 165.5,474.5C 165.472,472.418 166.139,470.584 167.5,469C 174.275,465.67 178.608,467.503 180.5,474.5 Z"/></g>
<g><path style="opacity:1" fill="#e7a52f" d="M 180.5,474.5 C 180.451,477.099 179.451,479.266 177.5,481C 170.518,484.167 166.518,482 165.5,474.5C 170.455,473.28 175.455,473.28 180.5,474.5 Z"/></g>
</svg>
