<svg xmlns="http://www.w3.org/2000/svg" viewBox="0 0 24 24" id="coke-can"><path fill="#F47920" d="m18.21 2.117-.646-1.13A.494.494 0 0 0 18 .5a.5.5 0 0 0-.5-.5h-11a.5.5 0 0 0-.5.5c0 .254.191.454.436.487l-.645 1.13A6 6 0 0 0 5 5.093V21c0 .99.721 1.807 1.666 1.966l.387.758A.5.5 0 0 0 7.5 24h9a.5.5 0 0 0 .447-.276l.381-.757A1.996 1.996 0 0 0 19 21V5.093a6 6 0 0 0-.79-2.976z"></path><g fill="#FFF"><path d="M17 23H7c-.112 0-.219-.015-.326-.033l.379.757A.5.5 0 0 0 7.5 24h9a.5.5 0 0 0 .447-.276l.379-.757A1.993 1.993 0 0 1 17 23z" opacity=".3"></path><path d="M14.915 1h-3.34c-1.162 1.61-.644 3.134.108 4.856C12.3 7.271 13 8.876 13 11c0 5.472-2.028 9.098-3.798 11.176L8.5 23H14l.146-.24C15.289 20.88 16 16.834 16 13.74c0-2.773-.861-4.994-1.553-6.779-.966-2.49-1.404-4.156.468-5.961z" opacity=".8"></path><path d="M17.5 1h-11a.5.5 0 1 1 0-1h11a.5.5 0 1 1 0 1z" opacity=".3"></path></g></svg>