<?xml version="1.0" encoding="UTF-8"?>
<!DOCTYPE svg PUBLIC "-//W3C//DTD SVG 1.1//EN" "http://www.w3.org/Graphics/SVG/1.1/DTD/svg11.dtd">
<svg xmlns="http://www.w3.org/2000/svg" version="1.1" width="512px" height="512px" style="shape-rendering:geometricPrecision; text-rendering:geometricPrecision; image-rendering:optimizeQuality; fill-rule:evenodd; clip-rule:evenodd" xmlns:xlink="http://www.w3.org/1999/xlink">
<g><path style="opacity:1" fill="#0293fa" d="M 144.5,-0.5 C 157.833,-0.5 171.167,-0.5 184.5,-0.5C 181.242,0.920984 178.742,3.25432 177,6.5C 176.333,20.1667 176.333,33.8333 177,47.5C 178.5,50.3333 180.667,52.5 183.5,54C 171.505,54.4999 159.505,54.6665 147.5,54.5C 147.167,54.5 146.833,54.5 146.5,54.5C 140.866,53.5979 137.699,50.2646 137,44.5C 136.333,33.1667 136.333,21.8333 137,10.5C 137.764,5.58239 140.264,1.91572 144.5,-0.5 Z"/></g>
<g><path style="opacity:0.995" fill="#25a8fd" d="M 184.5,-0.5 C 192.167,-0.5 199.833,-0.5 207.5,-0.5C 210.139,1.30904 212.306,3.64238 214,6.5C 214.667,20.1667 214.667,33.8333 214,47.5C 212.478,51.5295 209.645,53.8628 205.5,54.5C 198.891,55.4226 192.224,55.7559 185.5,55.5C 172.656,55.8287 159.989,55.4954 147.5,54.5C 159.505,54.6665 171.505,54.4999 183.5,54C 180.667,52.5 178.5,50.3333 177,47.5C 176.333,33.8333 176.333,20.1667 177,6.5C 178.742,3.25432 181.242,0.920984 184.5,-0.5 Z"/></g>
<g><path style="opacity:1" fill="#ff4756" d="M 303.5,-0.5 C 316.833,-0.5 330.167,-0.5 343.5,-0.5C 340.19,1.31244 337.69,3.97911 336,7.5C 335.333,20.5 335.333,33.5 336,46.5C 337.105,49.9371 339.272,52.4371 342.5,54C 330.505,54.4999 318.505,54.6665 306.5,54.5C 306.167,54.5 305.833,54.5 305.5,54.5C 301.67,53.5147 298.837,51.1813 297,47.5C 296.333,33.8333 296.333,20.1667 297,6.5C 298.694,3.64238 300.861,1.30904 303.5,-0.5 Z"/></g>
<g><path style="opacity:0.981" fill="#fe6670" d="M 343.5,-0.5 C 351.167,-0.5 358.833,-0.5 366.5,-0.5C 370.736,1.91572 373.236,5.58239 374,10.5C 374.667,21.8333 374.667,33.1667 374,44.5C 373.301,50.2646 370.134,53.5979 364.5,54.5C 357.891,55.4226 351.224,55.7559 344.5,55.5C 331.656,55.8287 318.989,55.4954 306.5,54.5C 318.505,54.6665 330.505,54.4999 342.5,54C 339.272,52.4371 337.105,49.9371 336,46.5C 335.333,33.5 335.333,20.5 336,7.5C 337.69,3.97911 340.19,1.31244 343.5,-0.5 Z"/></g>
<g><path style="opacity:1" fill="#b1dafb" d="M 146.5,54.5 C 146.833,54.5 147.167,54.5 147.5,54.5C 159.989,55.4954 172.656,55.8287 185.5,55.5C 184.192,77.7445 179.192,99.0778 170.5,119.5C 157.5,119.5 144.5,119.5 131.5,119.5C 140.121,98.6821 145.121,77.0154 146.5,54.5 Z"/></g>
<g><path style="opacity:0.992" fill="#deeaf9" d="M 205.5,54.5 C 206.88,77.0199 211.88,98.6866 220.5,119.5C 203.833,119.5 187.167,119.5 170.5,119.5C 179.192,99.0778 184.192,77.7445 185.5,55.5C 192.224,55.7559 198.891,55.4226 205.5,54.5 Z"/></g>
<g><path style="opacity:1" fill="#b1dafb" d="M 305.5,54.5 C 305.833,54.5 306.167,54.5 306.5,54.5C 318.989,55.4954 331.656,55.8287 344.5,55.5C 343.56,77.8221 338.56,99.1554 329.5,119.5C 316.5,119.5 303.5,119.5 290.5,119.5C 299.12,98.6866 304.12,77.0199 305.5,54.5 Z"/></g>
<g><path style="opacity:0.991" fill="#deeaf9" d="M 364.5,54.5 C 365.879,77.0154 370.879,98.6821 379.5,119.5C 362.833,119.5 346.167,119.5 329.5,119.5C 338.56,99.1554 343.56,77.8221 344.5,55.5C 351.224,55.7559 357.891,55.4226 364.5,54.5 Z"/></g>
<g><path style="opacity:1" fill="#665e68" d="M 131.5,119.5 C 144.5,119.5 157.5,119.5 170.5,119.5C 162.889,136.054 154.723,152.388 146,168.5C 141.274,179.406 138.107,190.74 136.5,202.5C 123.5,202.5 110.5,202.5 97.5,202.5C 99.0676,189.629 102.568,177.296 108,165.5C 116.66,150.512 124.493,135.178 131.5,119.5 Z"/></g>
<g><path style="opacity:0.996" fill="#7b6c79" d="M 170.5,119.5 C 187.167,119.5 203.833,119.5 220.5,119.5C 228.475,136.783 236.975,153.783 246,170.5C 250.244,181.143 253.077,192.143 254.5,203.5C 215.167,203.5 175.833,203.5 136.5,203.5C 136.5,203.167 136.5,202.833 136.5,202.5C 138.107,190.74 141.274,179.406 146,168.5C 154.723,152.388 162.889,136.054 170.5,119.5 Z"/></g>
<g><path style="opacity:1" fill="#665e68" d="M 290.5,119.5 C 303.5,119.5 316.5,119.5 329.5,119.5C 322.401,136.364 314.234,152.698 305,168.5C 300.304,179.419 297.138,190.752 295.5,202.5C 282.5,202.5 269.5,202.5 256.5,202.5C 258.082,191.505 260.915,180.839 265,170.5C 274.041,153.752 282.541,136.752 290.5,119.5 Z"/></g>
<g><path style="opacity:0.996" fill="#7a6b78" d="M 329.5,119.5 C 346.167,119.5 362.833,119.5 379.5,119.5C 386.507,135.178 394.34,150.512 403,165.5C 408.432,177.296 411.932,189.629 413.5,202.5C 374.167,202.5 334.833,202.5 295.5,202.5C 297.138,190.752 300.304,179.419 305,168.5C 314.234,152.698 322.401,136.364 329.5,119.5 Z"/></g>
<g><path style="opacity:0.999" fill="#8ac9fe" d="M 136.5,203.5 C 175.833,203.5 215.167,203.5 254.5,203.5C 254.328,204.492 254.662,205.158 255.5,205.5C 255.5,213.5 255.5,221.5 255.5,229.5C 215.5,229.5 175.5,229.5 135.5,229.5C 135.174,220.651 135.507,211.984 136.5,203.5 Z"/></g>
<g><path style="opacity:1" fill="#fe4756" d="M 256.5,203.5 C 269.517,203.168 282.517,203.501 295.5,204.5C 294.53,212.778 294.197,221.111 294.5,229.5C 281.5,229.5 268.5,229.5 255.5,229.5C 255.5,221.5 255.5,213.5 255.5,205.5C 256.338,205.158 256.672,204.492 256.5,203.5 Z"/></g>
<g><path style="opacity:0.999" fill="#fc656f" d="M 256.5,203.5 C 256.5,203.167 256.5,202.833 256.5,202.5C 269.5,202.5 282.5,202.5 295.5,202.5C 334.833,202.5 374.167,202.5 413.5,202.5C 414.876,211.424 415.542,220.424 415.5,229.5C 375.167,229.5 334.833,229.5 294.5,229.5C 294.197,221.111 294.53,212.778 295.5,204.5C 282.517,203.501 269.517,203.168 256.5,203.5 Z"/></g>
<g><path style="opacity:1" fill="#fc2d39" d="M 255.5,229.5 C 268.5,229.5 281.5,229.5 294.5,229.5C 294.5,251.5 294.5,273.5 294.5,295.5C 281.5,295.5 268.5,295.5 255.5,295.5C 255.5,273.5 255.5,251.5 255.5,229.5 Z"/></g>
<g><path style="opacity:1" fill="#23a8fd" d="M 97.5,202.5 C 110.5,202.5 123.5,202.5 136.5,202.5C 136.5,202.833 136.5,203.167 136.5,203.5C 135.507,211.984 135.174,220.651 135.5,229.5C 175.5,229.5 215.5,229.5 255.5,229.5C 255.5,251.5 255.5,273.5 255.5,295.5C 215.5,295.5 175.5,295.5 135.5,295.5C 135.5,304.5 135.5,313.5 135.5,322.5C 122.5,322.5 109.5,322.5 96.5,322.5C 95.4177,286.842 95.251,251.176 96,215.5C 96.2917,211.118 96.7917,206.785 97.5,202.5 Z"/></g>
<g><path style="opacity:1" fill="#0193fa" d="M 96.5,229.5 C 109.167,229.5 121.833,229.5 134.5,229.5C 134.5,251.5 134.5,273.5 134.5,295.5C 121.833,295.5 109.167,295.5 96.5,295.5C 96.5,273.5 96.5,251.5 96.5,229.5 Z"/></g>
<g><path style="opacity:1" fill="#ff4756" d="M 294.5,229.5 C 334.833,229.5 375.167,229.5 415.5,229.5C 415.5,251.5 415.5,273.5 415.5,295.5C 375.167,295.5 334.833,295.5 294.5,295.5C 294.5,273.5 294.5,251.5 294.5,229.5 Z"/></g>
<g><path style="opacity:1" fill="#fe4756" d="M 255.5,295.5 C 268.5,295.5 281.5,295.5 294.5,295.5C 294.289,304.2 294.623,312.867 295.5,321.5C 295.5,321.833 295.5,322.167 295.5,322.5C 282.5,322.5 269.5,322.5 256.5,322.5C 256.167,322.5 255.833,322.5 255.5,322.5C 255.5,313.5 255.5,304.5 255.5,295.5 Z"/></g>
<g><path style="opacity:0.999" fill="#8ac9fd" d="M 255.5,295.5 C 255.5,304.5 255.5,313.5 255.5,322.5C 255.167,322.5 254.833,322.5 254.5,322.5C 215.167,322.5 175.833,322.5 136.5,322.5C 136.167,322.5 135.833,322.5 135.5,322.5C 135.5,313.5 135.5,304.5 135.5,295.5C 175.5,295.5 215.5,295.5 255.5,295.5 Z"/></g>
<g><path style="opacity:0.999" fill="#ff646e" d="M 294.5,295.5 C 334.833,295.5 375.167,295.5 415.5,295.5C 415.388,303.844 415.055,312.178 414.5,320.5C 374.906,321.494 335.239,321.827 295.5,321.5C 294.623,312.867 294.289,304.2 294.5,295.5 Z"/></g>
<g><path style="opacity:1" fill="#db6771" d="M 414.5,320.5 C 414.5,321.167 414.5,321.833 414.5,322.5C 374.833,322.5 335.167,322.5 295.5,322.5C 295.5,322.167 295.5,321.833 295.5,321.5C 335.239,321.827 374.906,321.494 414.5,320.5 Z"/></g>
<g><path style="opacity:1" fill="#665e68" d="M 96.5,322.5 C 109.5,322.5 122.5,322.5 135.5,322.5C 135.833,322.5 136.167,322.5 136.5,322.5C 138.42,335.267 140.92,347.934 144,360.5C 144.667,372.167 144.667,383.833 144,395.5C 141.762,408.264 139.095,420.931 136,433.5C 133.26,457.137 137.927,479.137 150,499.5C 150.49,500.793 150.657,502.127 150.5,503.5C 148.011,503.298 145.677,503.798 143.5,505C 141.224,507.789 138.557,509.956 135.5,511.5C 132.833,511.5 130.167,511.5 127.5,511.5C 120.856,509.747 115.356,506.08 111,500.5C 98.5269,479.801 93.8603,457.468 97,433.5C 99.8255,420.531 102.492,407.531 105,394.5C 105.843,382.128 105.51,369.795 104,357.5C 101.556,345.779 99.0565,334.113 96.5,322.5 Z"/></g>
<g><path style="opacity:0.996" fill="#7a6b78" d="M 136.5,322.5 C 175.833,322.5 215.167,322.5 254.5,322.5C 252.975,333.938 250.808,345.271 248,356.5C 244.732,371.506 244.732,386.506 248,401.5C 250.11,412.949 252.944,423.949 256.5,434.5C 255.167,443.5 255.167,452.5 256.5,461.5C 253.205,474.181 248.371,486.514 242,498.5C 237.959,505.391 232.126,509.724 224.5,511.5C 221.833,511.5 219.167,511.5 216.5,511.5C 213.443,509.956 210.776,507.789 208.5,505C 205.5,503 202.5,503 199.5,505C 197.294,507.037 195.294,509.203 193.5,511.5C 181.833,511.5 170.167,511.5 158.5,511.5C 156.167,508.5 153.5,505.833 150.5,503.5C 150.657,502.127 150.49,500.793 150,499.5C 137.927,479.137 133.26,457.137 136,433.5C 139.095,420.931 141.762,408.264 144,395.5C 144.667,383.833 144.667,372.167 144,360.5C 140.92,347.934 138.42,335.267 136.5,322.5 Z"/></g>
<g><path style="opacity:1" fill="#665e68" d="M 256.5,322.5 C 269.5,322.5 282.5,322.5 295.5,322.5C 297.353,334.95 299.853,347.283 303,359.5C 304.443,370.131 304.776,380.798 304,391.5C 301.006,406.487 298.006,421.487 295,436.5C 293.238,451.591 294.904,466.257 300,480.5C 302.698,488.229 306.198,495.562 310.5,502.5C 310.376,503.107 310.043,503.44 309.5,503.5C 307.011,503.298 304.677,503.798 302.5,505C 300.224,507.789 297.557,509.956 294.5,511.5C 291.833,511.5 289.167,511.5 286.5,511.5C 278.874,509.724 273.041,505.391 269,498.5C 262.129,487.053 257.962,474.72 256.5,461.5C 255.167,452.5 255.167,443.5 256.5,434.5C 258.835,421.489 261.335,408.489 264,395.5C 265.748,382.468 265.415,369.468 263,356.5C 260.192,345.271 258.025,333.938 256.5,322.5 Z"/></g>
<g><path style="opacity:0.996" fill="#7a6b78" d="M 295.5,322.5 C 335.167,322.5 374.833,322.5 414.5,322.5C 411.944,334.113 409.444,345.779 407,357.5C 405.49,369.795 405.157,382.128 406,394.5C 410.208,412.496 413.375,430.663 415.5,449C 414.563,467.475 409.396,484.641 400,500.5C 395.644,506.08 390.144,509.747 383.5,511.5C 380.833,511.5 378.167,511.5 375.5,511.5C 372.443,509.956 369.776,507.789 367.5,505C 364.5,503 361.5,503 358.5,505C 356.294,507.037 354.294,509.203 352.5,511.5C 340.833,511.5 329.167,511.5 317.5,511.5C 315.14,508.473 312.473,505.806 309.5,503.5C 310.043,503.44 310.376,503.107 310.5,502.5C 306.198,495.562 302.698,488.229 300,480.5C 294.904,466.257 293.238,451.591 295,436.5C 298.006,421.487 301.006,406.487 304,391.5C 304.776,380.798 304.443,370.131 303,359.5C 299.853,347.283 297.353,334.95 295.5,322.5 Z"/></g>
</svg>
