<?xml version="1.0" encoding="UTF-8"?>
<!DOCTYPE svg PUBLIC "-//W3C//DTD SVG 1.1//EN" "http://www.w3.org/Graphics/SVG/1.1/DTD/svg11.dtd">
<svg xmlns="http://www.w3.org/2000/svg" version="1.1" width="512px" height="512px" style="shape-rendering:geometricPrecision; text-rendering:geometricPrecision; image-rendering:optimizeQuality; fill-rule:evenodd; clip-rule:evenodd" xmlns:xlink="http://www.w3.org/1999/xlink">
<g><path style="opacity:0.998" fill="#f8f6f7" d="M 122.5,-0.5 C 199.833,-0.5 277.167,-0.5 354.5,-0.5C 369.528,3.73376 376.028,13.7338 374,29.5C 371.317,38.682 365.483,44.682 356.5,47.5C 277.148,47.8189 197.815,47.4856 118.5,46.5C 104.779,37.6339 101.279,25.6339 108,10.5C 111.857,5.46777 116.69,1.8011 122.5,-0.5 Z"/></g>
<g><path style="opacity:0.998" fill="#efedef" d="M 354.5,-0.5 C 365.833,-0.5 377.167,-0.5 388.5,-0.5C 405.977,7.75585 410.477,20.7558 402,38.5C 399.228,41.7834 396.061,44.4501 392.5,46.5C 389.833,46.8333 387.167,47.1667 384.5,47.5C 375.167,47.5 365.833,47.5 356.5,47.5C 365.483,44.682 371.317,38.682 374,29.5C 376.028,13.7338 369.528,3.73376 354.5,-0.5 Z"/></g>
<g><path style="opacity:1" fill="#f58a97" d="M 118.5,46.5 C 197.815,47.4856 277.148,47.8189 356.5,47.5C 365.833,47.5 375.167,47.5 384.5,47.5C 377.011,48.329 369.344,48.829 361.5,49C 367.128,60.4238 372.628,71.9238 378,83.5C 380.63,90.3119 382.63,97.3119 384,104.5C 384.667,201.833 384.667,299.167 384,396.5C 383.371,404.058 381.704,411.391 379,418.5C 372.207,433.081 365.707,447.748 359.5,462.5C 368.017,462.174 376.35,462.507 384.5,463.5C 375.167,463.5 365.833,463.5 356.5,463.5C 277.833,463.5 199.167,463.5 120.5,463.5C 114.49,448.981 107.99,434.648 101,420.5C 97.0746,410.54 95.0746,400.206 95,389.5C 94.3333,298.167 94.3333,206.833 95,115.5C 95.1573,105.889 96.8239,96.5558 100,87.5C 106.179,73.8117 112.345,60.1451 118.5,46.5 Z"/></g>
<g><path style="opacity:1" fill="#f07281" d="M 392.5,46.5 C 398.655,60.1451 404.821,73.8117 411,87.5C 414.176,96.5558 415.843,105.889 416,115.5C 416.667,206.833 416.667,298.167 416,389.5C 415.829,400.193 413.829,410.526 410,420.5C 403.398,434.816 396.898,449.149 390.5,463.5C 388.5,463.5 386.5,463.5 384.5,463.5C 376.35,462.507 368.017,462.174 359.5,462.5C 365.707,447.748 372.207,433.081 379,418.5C 381.704,411.391 383.371,404.058 384,396.5C 384.667,299.167 384.667,201.833 384,104.5C 382.63,97.3119 380.63,90.3119 378,83.5C 372.628,71.9238 367.128,60.4238 361.5,49C 369.344,48.829 377.011,48.329 384.5,47.5C 387.167,47.1667 389.833,46.8333 392.5,46.5 Z"/></g>
<g><path style="opacity:1" fill="#efcf6f" d="M 281.5,220.5 C 281.5,220.833 281.5,221.167 281.5,221.5C 271.161,221.666 260.828,221.5 250.5,221C 249.692,220.692 249.025,220.192 248.5,219.5C 247.848,203.706 247.181,188.039 246.5,172.5C 254.11,160.383 261.944,148.383 270,136.5C 272.667,133.833 275.333,133.833 278,136.5C 278.333,163.833 278.667,191.167 279,218.5C 279.417,219.756 280.25,220.423 281.5,220.5 Z"/></g>
<g><path style="opacity:1" fill="#f5de7f" d="M 246.5,172.5 C 247.181,188.039 247.848,203.706 248.5,219.5C 249.025,220.192 249.692,220.692 250.5,221C 260.828,221.5 271.161,221.666 281.5,221.5C 289.84,221.334 298.173,221.5 306.5,222C 308.325,223.466 308.825,225.299 308,227.5C 283.476,264.565 258.976,301.565 234.5,338.5C 234.825,322.256 234.491,306.089 233.5,290C 213.589,288.69 193.589,288.023 173.5,288C 172.426,287.261 171.759,286.261 171.5,285C 196.348,247.334 221.348,209.834 246.5,172.5 Z"/></g>
<g><path style="opacity:1" fill="#efcf6f" d="M 281.5,221.5 C 281.5,221.167 281.5,220.833 281.5,220.5C 299.836,220.333 318.17,220.5 336.5,221C 339.087,222.525 339.92,224.692 339,227.5C 306.667,276.833 274.333,326.167 242,375.5C 239.408,376.982 237.075,376.648 235,374.5C 234.5,362.505 234.333,350.505 234.5,338.5C 258.976,301.565 283.476,264.565 308,227.5C 308.825,225.299 308.325,223.466 306.5,222C 298.173,221.5 289.84,221.334 281.5,221.5 Z"/></g>
<g><path style="opacity:0.998" fill="#f8f6f7" d="M 120.5,463.5 C 199.167,463.5 277.833,463.5 356.5,463.5C 370.783,468.38 376.616,478.38 374,493.5C 371.095,503.578 364.595,509.578 354.5,511.5C 277.167,511.5 199.833,511.5 122.5,511.5C 105.023,503.244 100.523,490.244 109,472.5C 112.161,468.491 115.994,465.491 120.5,463.5 Z"/></g>
<g><path style="opacity:1" fill="#efedef" d="M 356.5,463.5 C 365.833,463.5 375.167,463.5 384.5,463.5C 386.5,463.5 388.5,463.5 390.5,463.5C 405.86,471.908 410.027,484.241 403,500.5C 399.143,505.532 394.31,509.199 388.5,511.5C 377.167,511.5 365.833,511.5 354.5,511.5C 364.595,509.578 371.095,503.578 374,493.5C 376.616,478.38 370.783,468.38 356.5,463.5 Z"/></g>
</svg>
