<?xml version="1.0" encoding="UTF-8"?>
<!DOCTYPE svg PUBLIC "-//W3C//DTD SVG 1.1//EN" "http://www.w3.org/Graphics/SVG/1.1/DTD/svg11.dtd">
<svg xmlns="http://www.w3.org/2000/svg" version="1.1" width="512px" height="512px" style="shape-rendering:geometricPrecision; text-rendering:geometricPrecision; image-rendering:optimizeQuality; fill-rule:evenodd; clip-rule:evenodd" xmlns:xlink="http://www.w3.org/1999/xlink">
<g><path style="opacity:0.963" fill="#b3e59f" d="M 239.5,-0.5 C 249.833,-0.5 260.167,-0.5 270.5,-0.5C 272.576,0.426808 273.743,2.09347 274,4.5C 274.5,13.4938 274.666,22.4938 274.5,31.5C 274.167,31.5 273.833,31.5 273.5,31.5C 261.5,31.5 249.5,31.5 237.5,31.5C 237.167,31.5 236.833,31.5 236.5,31.5C 236.334,22.1607 236.5,12.8274 237,3.5C 237.662,2.01608 238.496,0.682751 239.5,-0.5 Z"/></g>
<g><path style="opacity:0.994" fill="#d8ecfe" d="M 236.5,31.5 C 236.5,79.8333 236.5,128.167 236.5,176.5C 201.663,176.168 166.996,176.502 132.5,177.5C 130.5,177.5 128.5,177.5 126.5,177.5C 113.191,178.013 108.025,171.68 111,158.5C 111.876,148.421 114.876,139.088 120,130.5C 126.056,125.044 133.056,121.711 141,120.5C 145.329,73.8403 170.162,44.6736 215.5,33C 222.453,31.8367 229.453,31.3367 236.5,31.5 Z"/></g>
<g><path style="opacity:1" fill="#95d6a3" d="M 237.5,31.5 C 249.5,31.5 261.5,31.5 273.5,31.5C 273.5,80.1667 273.5,128.833 273.5,177.5C 261.5,177.5 249.5,177.5 237.5,177.5C 237.5,128.833 237.5,80.1667 237.5,31.5 Z"/></g>
<g><path style="opacity:1" fill="#b4dafe" d="M 274.5,31.5 C 318.405,32.256 348.572,52.9227 365,93.5C 367.594,102.321 369.26,111.321 370,120.5C 377.944,121.711 384.944,125.044 391,130.5C 396.124,139.088 399.124,148.421 400,158.5C 402.975,171.68 397.809,178.013 384.5,177.5C 378.833,177.5 373.167,177.5 367.5,177.5C 372.438,174.635 375.105,170.301 375.5,164.5C 374.242,155.709 372.408,147.042 370,138.5C 368.224,135.059 366.057,131.892 363.5,129C 357.291,125.379 350.791,122.546 344,120.5C 340.532,75.8897 317.365,47.2231 274.5,34.5C 274.5,33.5 274.5,32.5 274.5,31.5 Z"/></g>
<g><path style="opacity:1" fill="#d7ebfd" d="M 274.5,34.5 C 317.365,47.2231 340.532,75.8897 344,120.5C 350.791,122.546 357.291,125.379 363.5,129C 366.057,131.892 368.224,135.059 370,138.5C 372.408,147.042 374.242,155.709 375.5,164.5C 375.105,170.301 372.438,174.635 367.5,177.5C 367.167,177.5 366.833,177.5 366.5,177.5C 336.005,176.502 305.338,176.169 274.5,176.5C 274.5,129.167 274.5,81.8333 274.5,34.5 Z"/></g>
<g><path style="opacity:0.997" fill="#d3eae4" d="M 236.5,31.5 C 236.833,31.5 237.167,31.5 237.5,31.5C 237.5,80.1667 237.5,128.833 237.5,177.5C 202.5,177.5 167.5,177.5 132.5,177.5C 166.996,176.502 201.663,176.168 236.5,176.5C 236.5,128.167 236.5,79.8333 236.5,31.5 Z"/></g>
<g><path style="opacity:1" fill="#d3e9e3" d="M 273.5,31.5 C 273.833,31.5 274.167,31.5 274.5,31.5C 274.5,32.5 274.5,33.5 274.5,34.5C 274.5,81.8333 274.5,129.167 274.5,176.5C 305.338,176.169 336.005,176.502 366.5,177.5C 363.833,177.5 361.167,177.5 358.5,177.5C 330.167,177.5 301.833,177.5 273.5,177.5C 273.5,128.833 273.5,80.1667 273.5,31.5 Z"/></g>
<g><path style="opacity:0.998" fill="#fbedac" d="M 126.5,177.5 C 128.5,177.5 130.5,177.5 132.5,177.5C 167.5,177.5 202.5,177.5 237.5,177.5C 237.5,225.167 237.5,272.833 237.5,320.5C 236.503,301.674 236.17,282.674 236.5,263.5C 236.5,246.167 236.5,228.833 236.5,211.5C 200.5,211.5 164.5,211.5 128.5,211.5C 128.029,200.152 127.362,188.818 126.5,177.5 Z"/></g>
<g><path style="opacity:1" fill="#78c2a3" d="M 237.5,177.5 C 249.5,177.5 261.5,177.5 273.5,177.5C 273.5,219.833 273.5,262.167 273.5,304.5C 273.249,306.17 272.582,307.67 271.5,309C 262.833,314.667 254.167,320.333 245.5,326C 240.893,326.87 238.226,325.037 237.5,320.5C 237.5,272.833 237.5,225.167 237.5,177.5 Z"/></g>
<g><path style="opacity:1" fill="#faedac" d="M 273.5,177.5 C 301.833,177.5 330.167,177.5 358.5,177.5C 358.42,188.843 358.087,200.176 357.5,211.5C 357.167,211.5 356.833,211.5 356.5,211.5C 329.167,211.5 301.833,211.5 274.5,211.5C 274.5,228.833 274.5,246.167 274.5,263.5C 274.829,277.344 274.496,291.01 273.5,304.5C 273.5,262.167 273.5,219.833 273.5,177.5 Z"/></g>
<g><path style="opacity:1" fill="#fde97d" d="M 358.5,177.5 C 361.167,177.5 363.833,177.5 366.5,177.5C 366.833,177.5 367.167,177.5 367.5,177.5C 373.167,177.5 378.833,177.5 384.5,177.5C 383.638,188.818 382.971,200.152 382.5,211.5C 374.167,211.5 365.833,211.5 357.5,211.5C 358.087,200.176 358.42,188.843 358.5,177.5 Z"/></g>
<g><path style="opacity:0.997" fill="#b57e5e" d="M 128.5,211.5 C 164.5,211.5 200.5,211.5 236.5,211.5C 236.5,228.833 236.5,246.167 236.5,263.5C 201.5,263.5 166.5,263.5 131.5,263.5C 130.648,246.156 129.648,228.823 128.5,211.5 Z"/></g>
<g><path style="opacity:1" fill="#9f6e50" d="M 356.5,211.5 C 356.833,211.5 357.167,211.5 357.5,211.5C 365.833,211.5 374.167,211.5 382.5,211.5C 381.352,228.823 380.352,246.156 379.5,263.5C 371.167,263.5 362.833,263.5 354.5,263.5C 354.945,246.157 355.612,228.824 356.5,211.5 Z"/></g>
<g><path style="opacity:0.999" fill="#e1a874" d="M 131.5,263.5 C 166.5,263.5 201.5,263.5 236.5,263.5C 236.17,282.674 236.503,301.674 237.5,320.5C 238.226,325.037 240.893,326.87 245.5,326C 254.167,320.333 262.833,314.667 271.5,309C 272.582,307.67 273.249,306.17 273.5,304.5C 274.496,291.01 274.829,277.344 274.5,263.5C 300.833,263.5 327.167,263.5 353.5,263.5C 351.885,305.208 349.552,346.875 346.5,388.5C 342.543,381.361 336.543,378.861 328.5,381C 320.372,385.749 318.539,392.249 323,400.5C 329.653,406.796 336.653,407.13 344,401.5C 344.862,399.913 345.529,398.246 346,396.5C 344.936,421.821 343.602,447.154 342,472.5C 339.889,478.781 335.722,482.781 329.5,484.5C 326.5,484.5 323.5,484.5 320.5,484.5C 268.331,484.168 216.331,484.501 164.5,485.5C 154.445,486.065 147.612,481.732 144,472.5C 139.657,402.84 135.491,333.173 131.5,263.5 Z"/></g>
<g><path style="opacity:1" fill="#b57f5f" d="M 356.5,211.5 C 355.612,228.824 354.945,246.157 354.5,263.5C 362.833,263.5 371.167,263.5 379.5,263.5C 375.509,333.173 371.343,402.84 367,472.5C 363.388,481.732 356.555,486.065 346.5,485.5C 341.025,484.511 335.358,484.178 329.5,484.5C 335.722,482.781 339.889,478.781 342,472.5C 343.602,447.154 344.936,421.821 346,396.5C 345.529,398.246 344.862,399.913 344,401.5C 336.653,407.13 329.653,406.796 323,400.5C 318.539,392.249 320.372,385.749 328.5,381C 336.543,378.861 342.543,381.361 346.5,388.5C 349.552,346.875 351.885,305.208 353.5,263.5C 327.167,263.5 300.833,263.5 274.5,263.5C 274.5,246.167 274.5,228.833 274.5,211.5C 301.833,211.5 329.167,211.5 356.5,211.5 Z"/></g>
<g><path style="opacity:1" fill="#b57f5f" d="M 171.5,380.5 C 183.649,378.502 189.815,383.502 190,395.5C 187.009,404.58 180.843,407.747 171.5,405C 165.333,401.155 163.166,395.655 165,388.5C 166.652,385.354 168.819,382.688 171.5,380.5 Z"/></g>
<g><path style="opacity:1" fill="#b57f5f" d="M 224.5,380.5 C 239.406,379.887 244.573,386.554 240,400.5C 235.509,405.259 230.009,406.759 223.5,405C 213.855,396.355 214.188,388.188 224.5,380.5 Z"/></g>
<g><path style="opacity:1" fill="#b57f5f" d="M 276.5,380.5 C 284.438,378.721 290.271,381.387 294,388.5C 295.315,401.517 289.482,407.017 276.5,405C 265.88,396.836 265.88,388.669 276.5,380.5 Z"/></g>
<g><path style="opacity:1" fill="#b57f5f" d="M 198.5,432.5 C 210.686,431.193 216.52,436.527 216,448.5C 211.786,458.127 204.952,460.627 195.5,456C 188.023,446.977 189.023,439.144 198.5,432.5 Z"/></g>
<g><path style="opacity:1" fill="#b57f5f" d="M 250.5,432.5 C 264.532,431.688 270.032,438.021 267,451.5C 261.303,459.171 254.47,460.338 246.5,455C 240.267,446.125 241.601,438.625 250.5,432.5 Z"/></g>
<g><path style="opacity:1" fill="#b57f5f" d="M 303.5,432.5 C 317.025,432.181 322.192,438.515 319,451.5C 315.373,457.158 310.207,459.325 303.5,458C 294.858,453.217 292.691,446.384 297,437.5C 298.965,435.45 301.132,433.783 303.5,432.5 Z"/></g>
<g><path style="opacity:0.995" fill="#d8ebfd" d="M 320.5,484.5 C 320.666,492.174 320.5,499.841 320,507.5C 319.093,509.609 317.593,510.942 315.5,511.5C 266.5,511.5 217.5,511.5 168.5,511.5C 166.864,510.251 165.697,508.584 165,506.5C 164.5,499.508 164.334,492.508 164.5,485.5C 216.331,484.501 268.331,484.168 320.5,484.5 Z"/></g>
<g><path style="opacity:1" fill="#b4dafd" d="M 320.5,484.5 C 323.5,484.5 326.5,484.5 329.5,484.5C 335.358,484.178 341.025,484.511 346.5,485.5C 346.666,492.508 346.5,499.508 346,506.5C 345.303,508.584 344.136,510.251 342.5,511.5C 333.5,511.5 324.5,511.5 315.5,511.5C 317.593,510.942 319.093,509.609 320,507.5C 320.5,499.841 320.666,492.174 320.5,484.5 Z"/></g>
</svg>
