<?xml version="1.0" encoding="UTF-8"?>
<!DOCTYPE svg PUBLIC "-//W3C//DTD SVG 1.1//EN" "http://www.w3.org/Graphics/SVG/1.1/DTD/svg11.dtd">
<svg xmlns="http://www.w3.org/2000/svg" version="1.1" width="512px" height="512px" style="shape-rendering:geometricPrecision; text-rendering:geometricPrecision; image-rendering:optimizeQuality; fill-rule:evenodd; clip-rule:evenodd" xmlns:xlink="http://www.w3.org/1999/xlink">
<g><path style="opacity:1" fill="#9f6e50" d="M 311.5,111.5 C 308.5,111.5 305.5,111.5 302.5,111.5C 298.5,111.5 294.5,111.5 290.5,111.5C 290.195,105.545 288.695,99.878 286,94.5C 282.439,89.679 278.272,85.679 273.5,82.5C 296.587,78.5933 309.254,88.26 311.5,111.5 Z"/></g>
<g><path style="opacity:0.992" fill="#b47e5e" d="M 273.5,82.5 C 278.272,85.679 282.439,89.679 286,94.5C 288.695,99.878 290.195,105.545 290.5,111.5C 278.5,111.5 266.5,111.5 254.5,111.5C 254.591,97.6314 260.924,87.9647 273.5,82.5 Z"/></g>
<g><path style="opacity:0.996" fill="#e1a874" d="M 254.5,111.5 C 266.5,111.5 278.5,111.5 290.5,111.5C 294.5,111.5 298.5,111.5 302.5,111.5C 319.172,116.176 328.172,127.176 329.5,144.5C 301.167,144.5 272.833,144.5 244.5,144.5C 239.167,144.5 233.833,144.5 228.5,144.5C 222.833,144.5 217.167,144.5 211.5,144.5C 212.249,127.836 220.583,117.002 236.5,112C 242.491,111.501 248.491,111.334 254.5,111.5 Z"/></g>
<g><path style="opacity:0.999" fill="#b57f5f" d="M 302.5,111.5 C 305.5,111.5 308.5,111.5 311.5,111.5C 336.881,108.5 351.548,119.5 355.5,144.5C 347.14,144.169 338.807,144.502 330.5,145.5C 344.167,155 357.833,164.5 371.5,174C 386.244,186.661 395.411,202.495 399,221.5C 399.667,256.5 399.667,291.5 399,326.5C 396.447,341.386 389.28,353.553 377.5,363C 371.082,366.959 364.582,370.793 358,374.5C 357.581,375.672 356.915,376.672 356,377.5C 356.515,388.312 352.015,396.145 342.5,401C 350.159,401.5 357.826,401.666 365.5,401.5C 309.646,402.819 253.646,402.819 197.5,401.5C 187.92,395.684 183.086,387.017 183,375.5C 176.45,371.806 169.95,367.973 163.5,364C 148.49,352.147 140.824,336.647 140.5,317.5C 132.055,318.074 124.055,316.741 116.5,313.5C 116.169,286.661 116.502,259.995 117.5,233.5C 124.577,237.518 132.244,239.518 140.5,239.5C 139.443,213.157 148.776,191.324 168.5,174C 182.862,164.157 197.196,154.323 211.5,144.5C 217.167,144.5 222.833,144.5 228.5,144.5C 228.5,169.833 228.5,195.167 228.5,220.5C 226.097,220.393 224.264,221.393 223,223.5C 220.667,226.833 218.333,230.167 216,233.5C 215.333,245.833 215.333,258.167 216,270.5C 216.833,271.333 217.667,272.167 218.5,273C 230.167,273.667 241.833,273.667 253.5,273C 254.931,272.535 256.097,271.701 257,270.5C 257.667,258.167 257.667,245.833 257,233.5C 254.667,230.167 252.333,226.833 250,223.5C 248.736,221.393 246.903,220.393 244.5,220.5C 244.5,195.167 244.5,169.833 244.5,144.5C 272.833,144.5 301.167,144.5 329.5,144.5C 328.172,127.176 319.172,116.176 302.5,111.5 Z"/></g>
<g><path style="opacity:1" fill="#cfd1d4" d="M 228.5,144.5 C 233.833,144.5 239.167,144.5 244.5,144.5C 244.5,169.833 244.5,195.167 244.5,220.5C 239.167,220.5 233.833,220.5 228.5,220.5C 228.5,195.167 228.5,169.833 228.5,144.5 Z"/></g>
<g><path style="opacity:1" fill="#d7ecfd" d="M 229.5,145.5 C 234.167,145.5 238.833,145.5 243.5,145.5C 243.5,170.167 243.5,194.833 243.5,219.5C 238.833,219.5 234.167,219.5 229.5,219.5C 229.5,194.833 229.5,170.167 229.5,145.5 Z"/></g>
<g><path style="opacity:1" fill="#9f6e50" d="M 355.5,144.5 C 362.167,149.167 368.833,153.833 375.5,158.5C 381.922,163.557 388.589,168.39 395.5,173C 402.435,179.429 408.768,186.262 414.5,193.5C 419.882,202.812 423.382,212.812 425,223.5C 425.5,243.164 425.667,262.831 425.5,282.5C 425.5,293.833 425.5,305.167 425.5,316.5C 457.714,312.636 477.88,294.969 486,263.5C 488.244,242.8 490.744,222.133 493.5,201.5C 490.92,175.921 476.92,161.588 451.5,158.5C 459.174,158.334 466.841,158.5 474.5,159C 493.597,162.271 505.931,173.104 511.5,191.5C 511.5,198.5 511.5,205.5 511.5,212.5C 509.004,231.414 506.171,250.414 503,269.5C 494.273,296.12 476.107,311.954 448.5,317C 440.841,317.5 433.174,317.666 425.5,317.5C 425.151,336.697 417.484,352.197 402.5,364C 396.545,367.894 390.378,371.394 384,374.5C 382.273,380.903 380.273,387.236 378,393.5C 375.228,396.783 372.061,399.45 368.5,401.5C 367.5,401.5 366.5,401.5 365.5,401.5C 357.826,401.666 350.159,401.5 342.5,401C 352.015,396.145 356.515,388.312 356,377.5C 356.915,376.672 357.581,375.672 358,374.5C 364.582,370.793 371.082,366.959 377.5,363C 389.28,353.553 396.447,341.386 399,326.5C 399.667,291.5 399.667,256.5 399,221.5C 395.411,202.495 386.244,186.661 371.5,174C 357.833,164.5 344.167,155 330.5,145.5C 338.807,144.502 347.14,144.169 355.5,144.5 Z M 414.5,193.5 C 431.17,193.333 447.837,193.5 464.5,194C 471.147,196.147 475.147,200.647 476.5,207.5C 474.254,223.802 472.087,240.135 470,256.5C 462.525,277.333 447.692,285.999 425.5,282.5C 425.667,262.831 425.5,243.164 425,223.5C 423.382,212.812 419.882,202.812 414.5,193.5 Z"/></g>
<g><path style="opacity:0.982" fill="#b47e5e" d="M 375.5,158.5 C 400.833,158.5 426.167,158.5 451.5,158.5C 476.92,161.588 490.92,175.921 493.5,201.5C 490.744,222.133 488.244,242.8 486,263.5C 477.88,294.969 457.714,312.636 425.5,316.5C 425.5,305.167 425.5,293.833 425.5,282.5C 447.692,285.999 462.525,277.333 470,256.5C 472.087,240.135 474.254,223.802 476.5,207.5C 475.147,200.647 471.147,196.147 464.5,194C 447.837,193.5 431.17,193.333 414.5,193.5C 408.768,186.262 402.435,179.429 395.5,173C 388.589,168.39 381.922,163.557 375.5,158.5 Z"/></g>
<g><path style="opacity:0.991" fill="#e1a874" d="M 117.5,233.5 C 116.502,259.995 116.169,286.661 116.5,313.5C 111.629,312.398 106.962,310.731 102.5,308.5C 102.666,298.161 102.5,287.828 102,277.5C 100.833,276.333 99.6667,275.167 98.5,274C 90.1733,273.5 81.84,273.334 73.5,273.5C 72.0413,273.567 70.7079,273.234 69.5,272.5C 67.3741,266.955 65.5408,261.288 64,255.5C 64.5342,238.499 60.8675,222.499 53,207.5C 49.3777,203.245 46.5443,198.578 44.5,193.5C 44.577,191.701 45.077,190.034 46,188.5C 51.1667,183.333 56.3333,178.167 61.5,173C 63.1012,172.727 64.6012,172.227 66,171.5C 67.3988,172.227 68.8988,172.727 70.5,173C 78.3333,180.833 86.1667,188.667 94,196.5C 98.5632,204.079 102.23,212.079 105,220.5C 108.697,225.362 112.864,229.696 117.5,233.5 Z"/></g>
<g><path style="opacity:1" fill="#b3e49e" d="M 228.5,220.5 C 233.833,220.5 239.167,220.5 244.5,220.5C 246.903,220.393 248.736,221.393 250,223.5C 252.333,226.833 254.667,230.167 257,233.5C 257.667,245.833 257.667,258.167 257,270.5C 256.097,271.701 254.931,272.535 253.5,273C 241.833,273.667 230.167,273.667 218.5,273C 217.667,272.167 216.833,271.333 216,270.5C 215.333,258.167 215.333,245.833 216,233.5C 218.333,230.167 220.667,226.833 223,223.5C 224.264,221.393 226.097,220.393 228.5,220.5 Z"/></g>
<g><path style="opacity:0.993" fill="#b57e5e" d="M 69.5,272.5 C 70.7079,273.234 72.0413,273.567 73.5,273.5C 74.1217,274.627 74.955,275.627 76,276.5C 76.6667,308.5 76.6667,340.5 76,372.5C 73.0184,382.797 68.1851,392.13 61.5,400.5C 69.8068,401.498 78.1401,401.831 86.5,401.5C 65.5978,402.826 44.5978,402.826 23.5,401.5C 20.225,395.718 16.725,390.052 13,384.5C 11.0728,381.052 9.73944,377.385 9,373.5C 8.33333,341.167 8.33333,308.833 9,276.5C 10.214,274.951 11.714,273.785 13.5,273C 32.1637,272.5 50.8304,272.333 69.5,272.5 Z"/></g>
<g><path style="opacity:1" fill="#9f6e50" d="M 73.5,273.5 C 81.84,273.334 90.1733,273.5 98.5,274C 99.6667,275.167 100.833,276.333 102,277.5C 102.5,287.828 102.666,298.161 102.5,308.5C 102.667,329.836 102.5,351.169 102,372.5C 101.578,376.009 100.578,379.343 99,382.5C 95.1554,388.861 91.3221,395.194 87.5,401.5C 87.1667,401.5 86.8333,401.5 86.5,401.5C 78.1401,401.831 69.8068,401.498 61.5,400.5C 68.1851,392.13 73.0184,382.797 76,372.5C 76.6667,340.5 76.6667,308.5 76,276.5C 74.955,275.627 74.1217,274.627 73.5,273.5 Z"/></g>
<g><path style="opacity:0.982" fill="#e1a974" d="M 23.5,401.5 C 44.5978,402.826 65.5978,402.826 86.5,401.5C 86.8333,401.5 87.1667,401.5 87.5,401.5C 124.167,401.5 160.833,401.5 197.5,401.5C 253.646,402.819 309.646,402.819 365.5,401.5C 366.5,401.5 367.5,401.5 368.5,401.5C 405.5,401.5 442.5,401.5 479.5,401.5C 482.885,402.558 484.885,404.891 485.5,408.5C 482.094,419.24 475.094,426.24 464.5,429.5C 315.833,429.667 167.166,429.5 18.5,429C 9.82384,426.155 3.4905,420.655 -0.5,412.5C -0.5,409.833 -0.5,407.167 -0.5,404.5C 0.682751,403.496 2.01608,402.662 3.5,402C 10.1583,401.5 16.825,401.334 23.5,401.5 Z"/></g>
<g><path style="opacity:1" fill="#b6805f" d="M 479.5,401.5 C 489.247,401.08 498.914,401.58 508.5,403C 511.188,407.553 511.021,412.053 508,416.5C 504.229,422.936 498.729,427.103 491.5,429C 482.506,429.5 473.506,429.666 464.5,429.5C 475.094,426.24 482.094,419.24 485.5,408.5C 484.885,404.891 482.885,402.558 479.5,401.5 Z"/></g>
</svg>
