<?xml version="1.0" encoding="UTF-8"?>
<!DOCTYPE svg PUBLIC "-//W3C//DTD SVG 1.1//EN" "http://www.w3.org/Graphics/SVG/1.1/DTD/svg11.dtd">
<svg xmlns="http://www.w3.org/2000/svg" version="1.1" width="512px" height="512px" style="shape-rendering:geometricPrecision; text-rendering:geometricPrecision; image-rendering:optimizeQuality; fill-rule:evenodd; clip-rule:evenodd" xmlns:xlink="http://www.w3.org/1999/xlink">
<g><path style="opacity:0.98" fill="#cac3cb" d="M 302.5,-0.5 C 303.833,-0.5 305.167,-0.5 306.5,-0.5C 312.296,1.11844 316.463,4.78511 319,10.5C 319.5,17.4921 319.666,24.4921 319.5,31.5C 310.167,31.5 300.833,31.5 291.5,31.5C 291.104,23.747 291.604,16.0804 293,8.5C 295.406,4.59151 298.572,1.59151 302.5,-0.5 Z"/></g>
<g><path style="opacity:1" fill="#b5adb6" d="M 306.5,-0.5 C 314.167,-0.5 321.833,-0.5 329.5,-0.5C 333.428,1.59151 336.594,4.59151 339,8.5C 340.396,16.0804 340.896,23.747 340.5,31.5C 333.5,31.5 326.5,31.5 319.5,31.5C 319.666,24.4921 319.5,17.4921 319,10.5C 316.463,4.78511 312.296,1.11844 306.5,-0.5 Z"/></g>
<g><path style="opacity:0.995" fill="#f2eff2" d="M 291.5,31.5 C 300.833,31.5 310.167,31.5 319.5,31.5C 326.5,31.5 333.5,31.5 340.5,31.5C 343.167,31.5 345.833,31.5 348.5,31.5C 365.199,39.2578 369.032,51.2578 360,67.5C 356.889,70.9439 353.056,73.1106 348.5,74C 282.999,74.1671 217.665,74.6671 152.5,75.5C 139.813,77.0783 130.98,72.0783 126,60.5C 122.754,46.8244 127.587,37.3244 140.5,32C 190.832,31.5 241.166,31.3333 291.5,31.5 Z"/></g>
<g><path style="opacity:1" fill="#e0dce1" d="M 348.5,31.5 C 356.917,31.0943 365.251,31.5943 373.5,33C 385.503,40.1584 389.003,50.3251 384,63.5C 378.071,72.7631 369.571,76.7631 358.5,75.5C 351.5,75.5 344.5,75.5 337.5,75.5C 275.833,75.5 214.167,75.5 152.5,75.5C 217.665,74.6671 282.999,74.1671 348.5,74C 353.056,73.1106 356.889,70.9439 360,67.5C 369.032,51.2578 365.199,39.2578 348.5,31.5 Z"/></g>
<g><path style="opacity:0.998" fill="#cbc4cc" d="M 152.5,75.5 C 214.167,75.5 275.833,75.5 337.5,75.5C 344.365,91.4309 351.032,107.431 357.5,123.5C 352.968,123.182 348.634,123.515 344.5,124.5C 344.167,124.5 343.833,124.5 343.5,124.5C 317.339,123.502 291.005,123.169 264.5,123.5C 220.167,123.5 175.833,123.5 131.5,123.5C 138.5,107.5 145.5,91.5 152.5,75.5 Z"/></g>
<g><path style="opacity:1" fill="#b5adb6" d="M 337.5,75.5 C 344.5,75.5 351.5,75.5 358.5,75.5C 365.5,91.5 372.5,107.5 379.5,123.5C 372.167,123.5 364.833,123.5 357.5,123.5C 351.032,107.431 344.365,91.4309 337.5,75.5 Z"/></g>
<g><path style="opacity:0.702" fill="#dd7579" d="M 131.5,123.5 C 175.833,123.5 220.167,123.5 264.5,123.5C 264.5,123.833 264.5,124.167 264.5,124.5C 264.167,124.5 263.833,124.5 263.5,124.5C 219.833,124.5 176.167,124.5 132.5,124.5C 132.5,236.167 132.5,347.833 132.5,459.5C 144.167,459.5 155.833,459.5 167.5,459.5C 155.678,460.495 143.678,460.828 131.5,460.5C 131.5,348.167 131.5,235.833 131.5,123.5 Z"/></g>
<g><path style="opacity:1" fill="#e94444" d="M 263.5,124.5 C 241.302,164.926 230.302,208.259 230.5,254.5C 232.083,284.485 232.583,314.485 232,344.5C 231.213,375.331 222.546,403.665 206,429.5C 196.715,442.285 184.881,451.952 170.5,458.5C 169.508,458.328 168.842,458.662 168.5,459.5C 168.167,459.5 167.833,459.5 167.5,459.5C 155.833,459.5 144.167,459.5 132.5,459.5C 132.5,347.833 132.5,236.167 132.5,124.5C 176.167,124.5 219.833,124.5 263.5,124.5 Z"/></g>
<g><path style="opacity:1" fill="#f2eff2" d="M 263.5,124.5 C 263.833,124.5 264.167,124.5 264.5,124.5C 284.178,124.167 303.845,124.5 323.5,125.5C 301.191,165.932 290.025,209.265 290,255.5C 289.667,286.167 289.333,316.833 289,347.5C 289.326,370.227 285.659,392.227 278,413.5C 269.304,434.77 254.471,449.937 233.5,459C 212.329,459.829 191.329,459.663 170.5,458.5C 184.881,451.952 196.715,442.285 206,429.5C 222.546,403.665 231.213,375.331 232,344.5C 232.583,314.485 232.083,284.485 230.5,254.5C 230.302,208.259 241.302,164.926 263.5,124.5 Z"/></g>
<g><path style="opacity:1" fill="#e2dde1" d="M 264.5,124.5 C 264.5,124.167 264.5,123.833 264.5,123.5C 291.005,123.169 317.339,123.502 343.5,124.5C 326.877,155.87 316.377,189.204 312,224.5C 310,265.471 309,306.471 309,347.5C 308.678,366.692 306.678,385.692 303,404.5C 298.961,423.766 289.461,439.599 274.5,452C 270.845,454.827 266.845,456.993 262.5,458.5C 261.609,459.11 260.609,459.443 259.5,459.5C 229.069,460.828 198.736,460.828 168.5,459.5C 168.842,458.662 169.508,458.328 170.5,458.5C 191.329,459.663 212.329,459.829 233.5,459C 254.471,449.937 269.304,434.77 278,413.5C 285.659,392.227 289.326,370.227 289,347.5C 289.333,316.833 289.667,286.167 290,255.5C 290.025,209.265 301.191,165.932 323.5,125.5C 303.845,124.5 284.178,124.167 264.5,124.5 Z"/></g>
<g><path style="opacity:1" fill="#e84444" d="M 343.5,124.5 C 343.833,124.5 344.167,124.5 344.5,124.5C 349.167,124.5 353.833,124.5 358.5,124.5C 358.5,236.167 358.5,347.833 358.5,459.5C 326.329,459.832 294.329,459.498 262.5,458.5C 266.845,456.993 270.845,454.827 274.5,452C 289.461,439.599 298.961,423.766 303,404.5C 306.678,385.692 308.678,366.692 309,347.5C 309,306.471 310,265.471 312,224.5C 316.377,189.204 326.877,155.87 343.5,124.5 Z"/></g>
<g><path style="opacity:1" fill="#d73130" d="M 358.5,124.5 C 365.167,124.5 371.833,124.5 378.5,124.5C 378.5,236.167 378.5,347.833 378.5,459.5C 371.833,459.5 365.167,459.5 358.5,459.5C 358.5,347.833 358.5,236.167 358.5,124.5 Z"/></g>
<g><path style="opacity:0.91" fill="#d55557" d="M 344.5,124.5 C 348.634,123.515 352.968,123.182 357.5,123.5C 364.833,123.5 372.167,123.5 379.5,123.5C 379.5,235.833 379.5,348.167 379.5,460.5C 372.5,460.5 365.5,460.5 358.5,460.5C 358.5,460.167 358.5,459.833 358.5,459.5C 365.167,459.5 371.833,459.5 378.5,459.5C 378.5,347.833 378.5,236.167 378.5,124.5C 371.833,124.5 365.167,124.5 358.5,124.5C 353.833,124.5 349.167,124.5 344.5,124.5 Z"/></g>
<g><path style="opacity:1" fill="#db7f83" d="M 262.5,458.5 C 294.329,459.498 326.329,459.832 358.5,459.5C 358.5,459.833 358.5,460.167 358.5,460.5C 358.167,460.5 357.833,460.5 357.5,460.5C 324.662,460.832 291.996,460.498 259.5,459.5C 260.609,459.443 261.609,459.11 262.5,458.5 Z"/></g>
<g><path style="opacity:0.998" fill="#cbc4cc" d="M 167.5,459.5 C 167.833,459.5 168.167,459.5 168.5,459.5C 198.736,460.828 229.069,460.828 259.5,459.5C 291.996,460.498 324.662,460.832 357.5,460.5C 350.955,476.594 344.121,492.594 337,508.5C 335.591,509.781 334.091,510.781 332.5,511.5C 273.5,511.5 214.5,511.5 155.5,511.5C 153.107,509.264 151.273,506.597 150,503.5C 143.818,489.141 137.652,474.807 131.5,460.5C 143.678,460.828 155.678,460.495 167.5,459.5 Z"/></g>
<g><path style="opacity:1" fill="#b5adb6" d="M 357.5,460.5 C 357.833,460.5 358.167,460.5 358.5,460.5C 365.5,460.5 372.5,460.5 379.5,460.5C 373.348,474.807 367.182,489.141 361,503.5C 359.727,506.597 357.893,509.264 355.5,511.5C 347.833,511.5 340.167,511.5 332.5,511.5C 334.091,510.781 335.591,509.781 337,508.5C 344.121,492.594 350.955,476.594 357.5,460.5 Z"/></g>
</svg>
