<?xml version="1.0" encoding="UTF-8"?>
<!DOCTYPE svg PUBLIC "-//W3C//DTD SVG 1.1//EN" "http://www.w3.org/Graphics/SVG/1.1/DTD/svg11.dtd">
<svg xmlns="http://www.w3.org/2000/svg" version="1.1" width="512px" height="512px" style="shape-rendering:geometricPrecision; text-rendering:geometricPrecision; image-rendering:optimizeQuality; fill-rule:evenodd; clip-rule:evenodd" xmlns:xlink="http://www.w3.org/1999/xlink">
<g><path style="opacity:0.994" fill="#e4f9f5" d="M 127.5,-0.5 C 193.5,-0.5 259.5,-0.5 325.5,-0.5C 325.5,8.16667 325.5,16.8333 325.5,25.5C 320.167,25.5 314.833,25.5 309.5,25.5C 252.998,25.1677 196.664,25.501 140.5,26.5C 135.464,26.9384 130.631,26.2717 126,24.5C 124.449,17.5817 124.116,10.5817 125,3.5C 125.662,2.01608 126.496,0.682751 127.5,-0.5 Z"/></g>
<g><path style="opacity:1" fill="#b6d1c6" d="M 325.5,-0.5 C 344.833,-0.5 364.167,-0.5 383.5,-0.5C 384.504,0.682751 385.338,2.01608 386,3.5C 386.884,10.5817 386.551,17.5817 385,24.5C 380.369,26.2717 375.536,26.9384 370.5,26.5C 355.676,25.5039 340.676,25.1706 325.5,25.5C 325.5,16.8333 325.5,8.16667 325.5,-0.5 Z"/></g>
<g><path style="opacity:0.996" fill="#cddbe7" d="M 309.5,25.5 C 310.874,30.9581 313.207,35.9581 316.5,40.5C 321.905,45.6168 327.405,50.6168 333,55.5C 334.252,58.0135 334.752,60.6802 334.5,63.5C 261.5,63.5 188.5,63.5 115.5,63.5C 115.367,59.4009 116.533,55.7343 119,52.5C 129.334,46.3435 136.5,37.6769 140.5,26.5C 196.664,25.501 252.998,25.1677 309.5,25.5 Z"/></g>
<g><path style="opacity:1" fill="#b8cbd9" d="M 309.5,25.5 C 314.833,25.5 320.167,25.5 325.5,25.5C 340.676,25.1706 355.676,25.5039 370.5,26.5C 374.5,37.6769 381.666,46.3435 392,52.5C 394.467,55.7343 395.633,59.4009 395.5,63.5C 375.167,63.5 354.833,63.5 334.5,63.5C 334.752,60.6802 334.252,58.0135 333,55.5C 327.405,50.6168 321.905,45.6168 316.5,40.5C 313.207,35.9581 310.874,30.9581 309.5,25.5 Z"/></g>
<g><path style="opacity:1" fill="#4f9ae4" d="M 115.5,63.5 C 188.5,63.5 261.5,63.5 334.5,63.5C 334.832,104.003 334.499,144.337 333.5,184.5C 308.687,152.165 276.02,139.332 235.5,146C 202.471,154.196 179.471,174.029 166.5,205.5C 160.661,221.257 158.994,237.591 161.5,254.5C 167.798,289.251 187.131,313.751 219.5,328C 254.618,340.404 286.951,335.404 316.5,313C 322.769,307.237 328.436,301.071 333.5,294.5C 334.499,352.664 334.832,410.998 334.5,469.5C 261.5,469.5 188.5,469.5 115.5,469.5C 115.5,334.167 115.5,198.833 115.5,63.5 Z"/></g>
<g><path style="opacity:1" fill="#3c8cce" d="M 334.5,63.5 C 354.833,63.5 375.167,63.5 395.5,63.5C 395.5,198.833 395.5,334.167 395.5,469.5C 375.167,469.5 354.833,469.5 334.5,469.5C 334.832,410.998 334.499,352.664 333.5,294.5C 337.341,288.822 340.674,282.822 343.5,276.5C 349.989,259.596 351.989,242.262 349.5,224.5C 347.488,209.814 342.155,196.48 333.5,184.5C 334.499,144.337 334.832,104.003 334.5,63.5 Z"/></g>
<g><path style="opacity:1" fill="#fb502a" d="M 333.5,184.5 C 342.155,196.48 347.488,209.814 349.5,224.5C 349.5,225.833 349.5,227.167 349.5,228.5C 343.203,228.902 337.203,227.735 331.5,225C 322.761,219.268 313.761,213.935 304.5,209C 283.797,202.141 265.464,206.141 249.5,221C 235.242,229.029 220.242,230.696 204.5,226C 196.631,222.123 189.298,217.456 182.5,212C 177.181,209.497 171.848,207.331 166.5,205.5C 179.471,174.029 202.471,154.196 235.5,146C 276.02,139.332 308.687,152.165 333.5,184.5 Z"/></g>
<g><path style="opacity:1" fill="#efeeed" d="M 166.5,205.5 C 171.848,207.331 177.181,209.497 182.5,212C 189.298,217.456 196.631,222.123 204.5,226C 220.242,230.696 235.242,229.029 249.5,221C 265.464,206.141 283.797,202.141 304.5,209C 313.761,213.935 322.761,219.268 331.5,225C 337.203,227.735 343.203,228.902 349.5,228.5C 349.5,227.167 349.5,225.833 349.5,224.5C 351.989,242.262 349.989,259.596 343.5,276.5C 331.868,274.018 321.535,268.851 312.5,261C 300.913,254.815 288.58,252.815 275.5,255C 270.874,255.906 266.54,257.573 262.5,260C 253.853,267.158 244.186,272.491 233.5,276C 225.833,276.667 218.167,276.667 210.5,276C 208.5,275.333 206.5,274.667 204.5,274C 195.335,268.919 186.335,263.585 177.5,258C 172.362,255.882 167.029,254.715 161.5,254.5C 158.994,237.591 160.661,221.257 166.5,205.5 Z"/></g>
<g><path style="opacity:1" fill="#fdd131" d="M 161.5,254.5 C 167.029,254.715 172.362,255.882 177.5,258C 186.335,263.585 195.335,268.919 204.5,274C 206.5,274.667 208.5,275.333 210.5,276C 218.167,276.667 225.833,276.667 233.5,276C 244.186,272.491 253.853,267.158 262.5,260C 266.54,257.573 270.874,255.906 275.5,255C 288.58,252.815 300.913,254.815 312.5,261C 321.535,268.851 331.868,274.018 343.5,276.5C 340.674,282.822 337.341,288.822 333.5,294.5C 328.436,301.071 322.769,307.237 316.5,313C 286.951,335.404 254.618,340.404 219.5,328C 187.131,313.751 167.798,289.251 161.5,254.5 Z"/></g>
<g><path style="opacity:1" fill="#fefefe" d="M 188.5,389.5 C 233.168,389.333 277.835,389.5 322.5,390C 327.854,394.944 327.521,399.611 321.5,404C 277.5,404.667 233.5,404.667 189.5,404C 183.426,399.493 183.093,394.659 188.5,389.5 Z"/></g>
<g><path style="opacity:1" fill="#fefefe" d="M 188.5,421.5 C 233.168,421.333 277.835,421.5 322.5,422C 327.854,426.944 327.521,431.611 321.5,436C 277.5,436.667 233.5,436.667 189.5,436C 183.426,431.493 183.093,426.659 188.5,421.5 Z"/></g>
<g><path style="opacity:0.995" fill="#ccdae6" d="M 115.5,470.5 C 188.5,470.5 261.5,470.5 334.5,470.5C 334.509,472.308 334.009,473.975 333,475.5C 325.333,482.167 317.667,488.833 310,495.5C 310.552,503.737 307.052,509.071 299.5,511.5C 248.833,511.5 198.167,511.5 147.5,511.5C 142.64,507.44 140.14,502.107 140,495.5C 132.85,489.261 125.517,483.261 118,477.5C 116.589,475.35 115.755,473.016 115.5,470.5 Z"/></g>
<g><path style="opacity:1" fill="#b5c9da" d="M 115.5,470.5 C 115.5,470.167 115.5,469.833 115.5,469.5C 188.5,469.5 261.5,469.5 334.5,469.5C 354.833,469.5 375.167,469.5 395.5,469.5C 395.54,472.425 394.707,475.091 393,477.5C 385.483,483.261 378.15,489.261 371,495.5C 370.86,502.107 368.36,507.44 363.5,511.5C 342.167,511.5 320.833,511.5 299.5,511.5C 307.052,509.071 310.552,503.737 310,495.5C 317.667,488.833 325.333,482.167 333,475.5C 334.009,473.975 334.509,472.308 334.5,470.5C 261.5,470.5 188.5,470.5 115.5,470.5 Z"/></g>
</svg>
