<?xml version="1.0" encoding="UTF-8"?>
<!DOCTYPE svg PUBLIC "-//W3C//DTD SVG 1.1//EN" "http://www.w3.org/Graphics/SVG/1.1/DTD/svg11.dtd">
<svg xmlns="http://www.w3.org/2000/svg" version="1.1" width="512px" height="512px" style="shape-rendering:geometricPrecision; text-rendering:geometricPrecision; image-rendering:optimizeQuality; fill-rule:evenodd; clip-rule:evenodd" xmlns:xlink="http://www.w3.org/1999/xlink">
<g><path style="opacity:0.977" fill="#eee1dc" d="M 298.5,-0.5 C 318.833,-0.5 339.167,-0.5 359.5,-0.5C 361.807,0.977392 363.64,2.97739 365,5.5C 365.726,10.5523 365.559,15.5523 364.5,20.5C 346.83,20.3334 329.164,20.5001 311.5,21C 301.524,22.0416 295.024,27.2083 292,36.5C 288.955,57.0662 287.122,77.7329 286.5,98.5C 279.833,98.5 273.167,98.5 266.5,98.5C 266.167,98.5 265.833,98.5 265.5,98.5C 267.992,75.9192 270.159,53.2525 272,30.5C 274.605,14.7361 283.438,4.40272 298.5,-0.5 Z"/></g>
<g><path style="opacity:1" fill="#e1d3ce" d="M 364.5,20.5 C 365.058,26.8385 362.725,31.6718 357.5,35C 343.555,36.2623 329.555,36.9289 315.5,37C 309.513,39.462 306.346,43.962 306,50.5C 304.502,66.481 303.335,82.481 302.5,98.5C 290.402,99.8199 278.402,99.8199 266.5,98.5C 273.167,98.5 279.833,98.5 286.5,98.5C 287.122,77.7329 288.955,57.0662 292,36.5C 295.024,27.2083 301.524,22.0416 311.5,21C 329.164,20.5001 346.83,20.3334 364.5,20.5 Z"/></g>
<g><path style="opacity:0.991" fill="#838383" d="M 265.5,98.5 C 265.833,98.5 266.167,98.5 266.5,98.5C 278.402,99.8199 290.402,99.8199 302.5,98.5C 323.167,98.5 343.833,98.5 364.5,98.5C 364.5,116.5 364.5,134.5 364.5,152.5C 284.167,152.5 203.833,152.5 123.5,152.5C 123.333,135.163 123.5,117.83 124,100.5C 124.5,100 125,99.5 125.5,99C 172.165,98.5 218.832,98.3333 265.5,98.5 Z"/></g>
<g><path style="opacity:1" fill="#706f6f" d="M 364.5,98.5 C 371.175,98.3337 377.842,98.5004 384.5,99C 385,99.5 385.5,100 386,100.5C 387.458,117.764 387.958,135.097 387.5,152.5C 387.167,152.5 386.833,152.5 386.5,152.5C 379.167,152.5 371.833,152.5 364.5,152.5C 364.5,134.5 364.5,116.5 364.5,98.5 Z"/></g>
<g><path style="opacity:1" fill="#eee1dc" d="M 123.5,152.5 C 203.833,152.5 284.167,152.5 364.5,152.5C 371.833,152.5 379.167,152.5 386.5,152.5C 386.5,170.167 386.5,187.833 386.5,205.5C 382.167,205.5 377.833,205.5 373.5,205.5C 287.5,205.5 201.5,205.5 115.5,205.5C 111.486,205.666 107.486,205.499 103.5,205C 103,204.5 102.5,204 102,203.5C 101.333,187.167 101.333,170.833 102,154.5C 102.5,154 103,153.5 103.5,153C 110.158,152.5 116.825,152.334 123.5,152.5 Z"/></g>
<g><path style="opacity:1" fill="#e1d3ce" d="M 386.5,152.5 C 386.833,152.5 387.167,152.5 387.5,152.5C 393.842,152.334 400.175,152.5 406.5,153C 407.701,153.903 408.535,155.069 409,156.5C 409.667,171.5 409.667,186.5 409,201.5C 408.535,202.931 407.701,204.097 406.5,205C 402.514,205.499 398.514,205.666 394.5,205.5C 391.833,205.5 389.167,205.5 386.5,205.5C 386.5,187.833 386.5,170.167 386.5,152.5 Z"/></g>
<g><path style="opacity:0.998" fill="#00e193" d="M 115.5,205.5 C 201.5,205.5 287.5,205.5 373.5,205.5C 365.408,291.128 357.741,376.794 350.5,462.5C 286.664,462.168 222.998,462.501 159.5,463.5C 149.471,465.224 142.304,461.557 138,452.5C 130.049,370.204 122.549,287.871 115.5,205.5 Z"/></g>
<g><path style="opacity:1" fill="#04cc7a" d="M 373.5,205.5 C 377.833,205.5 382.167,205.5 386.5,205.5C 389.167,205.5 391.833,205.5 394.5,205.5C 387.571,287.884 380.071,370.217 372,452.5C 367.696,461.557 360.529,465.224 350.5,463.5C 343.833,463.5 337.167,463.5 330.5,463.5C 273.5,463.5 216.5,463.5 159.5,463.5C 222.998,462.501 286.664,462.168 350.5,462.5C 357.741,376.794 365.408,291.128 373.5,205.5 Z"/></g>
<g><path style="opacity:0.997" fill="#009a5d" d="M 159.5,463.5 C 216.5,463.5 273.5,463.5 330.5,463.5C 328.459,479.458 326.792,495.458 325.5,511.5C 272.5,511.5 219.5,511.5 166.5,511.5C 164.93,509.149 164.097,506.482 164,503.5C 162.335,490.177 160.835,476.844 159.5,463.5 Z"/></g>
<g><path style="opacity:0.999" fill="#007e4b" d="M 330.5,463.5 C 337.167,463.5 343.833,463.5 350.5,463.5C 349.248,477.186 347.748,490.853 346,504.5C 345.847,507.151 345.013,509.484 343.5,511.5C 337.5,511.5 331.5,511.5 325.5,511.5C 326.792,495.458 328.459,479.458 330.5,463.5 Z"/></g>
</svg>
