<?xml version="1.0" encoding="UTF-8"?>
<!DOCTYPE svg PUBLIC "-//W3C//DTD SVG 1.1//EN" "http://www.w3.org/Graphics/SVG/1.1/DTD/svg11.dtd">
<svg xmlns="http://www.w3.org/2000/svg" version="1.1" width="512px" height="512px" style="shape-rendering:geometricPrecision; text-rendering:geometricPrecision; image-rendering:optimizeQuality; fill-rule:evenodd; clip-rule:evenodd" xmlns:xlink="http://www.w3.org/1999/xlink">
<g><path style="opacity:0.63" fill="#01acab" d="M 344.5,-0.5 C 347.167,-0.5 349.833,-0.5 352.5,-0.5C 379.764,18.2476 406.93,37.2476 434,56.5C 435.093,68.2177 430.26,71.3844 419.5,66C 397.087,50.3766 374.587,34.8766 352,19.5C 337.294,48.2456 323.127,77.2456 309.5,106.5C 308.833,106.833 308.167,107.167 307.5,107.5C 301.833,107.5 296.167,107.5 290.5,107.5C 290.5,107.167 290.5,106.833 290.5,106.5C 307.409,72.3136 324.243,37.9803 341,3.5C 342.376,2.29493 343.542,0.961599 344.5,-0.5 Z"/></g>
<g><path style="opacity:0.98" fill="#d2f5f2" d="M 290.5,106.5 C 290.5,106.833 290.5,107.167 290.5,107.5C 278.833,132.167 267.167,156.833 255.5,181.5C 255.167,181.5 254.833,181.5 254.5,181.5C 238.833,181.5 223.167,181.5 207.5,181.5C 207.167,181.5 206.833,181.5 206.5,181.5C 203.94,178.542 200.94,176.042 197.5,174C 185.748,167.457 173.748,161.457 161.5,156C 147.035,152.6 135.202,156.766 126,168.5C 123.488,172.861 120.988,177.194 118.5,181.5C 104.5,181.5 90.5,181.5 76.5,181.5C 76.5,288.167 76.5,394.833 76.5,501.5C 75.334,373.667 75.1673,245.667 76,117.5C 76.8333,111.333 80.3333,107.833 86.5,107C 154.499,106.5 222.499,106.333 290.5,106.5 Z"/></g>
<g><path style="opacity:0.984" fill="#d3f7f4" d="M 309.5,106.5 C 315.232,106.283 320.899,106.783 326.5,108C 329.187,109.875 331.021,112.375 332,115.5C 332.5,137.497 332.667,159.497 332.5,181.5C 312.5,181.5 292.5,181.5 272.5,181.5C 284.167,156.833 295.833,132.167 307.5,107.5C 308.167,107.167 308.833,106.833 309.5,106.5 Z"/></g>
<g><path style="opacity:1" fill="#4ac5c3" d="M 290.5,107.5 C 296.167,107.5 301.833,107.5 307.5,107.5C 295.833,132.167 284.167,156.833 272.5,181.5C 272.167,181.5 271.833,181.5 271.5,181.5C 266.167,181.5 260.833,181.5 255.5,181.5C 267.167,156.833 278.833,132.167 290.5,107.5 Z"/></g>
<g><path style="opacity:1" fill="#f5fdfc" d="M 206.5,181.5 C 177.167,181.5 147.833,181.5 118.5,181.5C 120.988,177.194 123.488,172.861 126,168.5C 135.202,156.766 147.035,152.6 161.5,156C 173.748,161.457 185.748,167.457 197.5,174C 200.94,176.042 203.94,178.542 206.5,181.5 Z"/></g>
<g><path style="opacity:1" fill="#5c463c" d="M 207.5,181.5 C 223.167,181.5 238.833,181.5 254.5,181.5C 254.672,182.492 254.338,183.158 253.5,183.5C 238.5,182.167 223.5,182.167 208.5,183.5C 207.662,183.158 207.328,182.492 207.5,181.5 Z"/></g>
<g><path style="opacity:1" fill="#421e12" d="M 118.5,181.5 C 113.207,190.42 108.707,199.754 105,209.5C 103.145,222.95 107.312,234.116 117.5,243C 130.372,250.269 143.372,257.269 156.5,264C 171.315,267.333 183.482,263.166 193,251.5C 200.191,239.118 206.858,226.451 213,213.5C 216.087,202.719 214.587,192.719 208.5,183.5C 223.5,182.167 238.5,182.167 253.5,183.5C 234.5,222.833 215.5,262.167 196.5,301.5C 192.497,306.507 189.83,312.174 188.5,318.5C 159.441,376.952 130.608,435.619 102,494.5C 101.5,502.656 105.333,505.822 113.5,504C 114.333,503.167 115.167,502.333 116,501.5C 141.608,448.619 167.441,395.952 193.5,343.5C 203.968,354.8 214.968,365.634 226.5,376C 239.584,382.505 252.25,381.838 264.5,374C 274,364.5 283.5,355 293,345.5C 302.13,332.942 302.796,319.942 295,306.5C 285.53,296.029 275.697,285.863 265.5,276C 253.488,267.474 240.821,266.307 227.5,272.5C 242.167,242.5 256.833,212.5 271.5,182.5C 291.5,182.5 311.5,182.5 331.5,182.5C 331.5,214.5 331.5,246.5 331.5,278.5C 322.352,325.44 306.518,370.107 284,412.5C 262.123,451.546 233.29,484.546 197.5,511.5C 159.167,511.5 120.833,511.5 82.5,511.5C 78.4694,509.447 76.4694,506.113 76.5,501.5C 76.5,394.833 76.5,288.167 76.5,181.5C 90.5,181.5 104.5,181.5 118.5,181.5 Z"/></g>
<g><path style="opacity:1" fill="#d6cecc" d="M 118.5,181.5 C 147.833,181.5 177.167,181.5 206.5,181.5C 206.833,181.5 207.167,181.5 207.5,181.5C 207.328,182.492 207.662,183.158 208.5,183.5C 214.587,192.719 216.087,202.719 213,213.5C 206.858,226.451 200.191,239.118 193,251.5C 183.482,263.166 171.315,267.333 156.5,264C 143.372,257.269 130.372,250.269 117.5,243C 107.312,234.116 103.145,222.95 105,209.5C 108.707,199.754 113.207,190.42 118.5,181.5 Z"/></g>
<g><path style="opacity:1" fill="#197b76" d="M 254.5,181.5 C 254.833,181.5 255.167,181.5 255.5,181.5C 260.833,181.5 266.167,181.5 271.5,181.5C 271.5,181.833 271.5,182.167 271.5,182.5C 256.833,212.5 242.167,242.5 227.5,272.5C 227.5,273.167 227.167,273.5 226.5,273.5C 216.199,282.466 206.199,291.8 196.5,301.5C 215.5,262.167 234.5,222.833 253.5,183.5C 254.338,183.158 254.672,182.492 254.5,181.5 Z"/></g>
<g><path style="opacity:1" fill="#d6cecc" d="M 193.5,343.5 C 193.5,343.167 193.5,342.833 193.5,342.5C 204.77,319.626 215.77,296.626 226.5,273.5C 227.167,273.5 227.5,273.167 227.5,272.5C 240.821,266.307 253.488,267.474 265.5,276C 275.697,285.863 285.53,296.029 295,306.5C 302.796,319.942 302.13,332.942 293,345.5C 283.5,355 274,364.5 264.5,374C 252.25,381.838 239.584,382.505 226.5,376C 214.968,365.634 203.968,354.8 193.5,343.5 Z"/></g>
<g><path style="opacity:0.824" fill="#66584f" d="M 271.5,182.5 C 271.5,182.167 271.5,181.833 271.5,181.5C 271.833,181.5 272.167,181.5 272.5,181.5C 292.5,181.5 312.5,181.5 332.5,181.5C 332.833,289.001 332.499,396.335 331.5,503.5C 331.5,428.5 331.5,353.5 331.5,278.5C 331.5,246.5 331.5,214.5 331.5,182.5C 311.5,182.5 291.5,182.5 271.5,182.5 Z"/></g>
<g><path style="opacity:1" fill="#cbe0e0" d="M 226.5,273.5 C 215.77,296.626 204.77,319.626 193.5,342.5C 189.102,335.205 187.435,327.205 188.5,318.5C 189.83,312.174 192.497,306.507 196.5,301.5C 206.199,291.8 216.199,282.466 226.5,273.5 Z"/></g>
<g><path style="opacity:1" fill="#3b1b10" d="M 331.5,278.5 C 331.5,353.5 331.5,428.5 331.5,503.5C 330.849,506.803 329.182,509.47 326.5,511.5C 283.5,511.5 240.5,511.5 197.5,511.5C 233.29,484.546 262.123,451.546 284,412.5C 306.518,370.107 322.352,325.44 331.5,278.5 Z"/></g>
<g><path style="opacity:1" fill="#197a76" d="M 188.5,318.5 C 187.435,327.205 189.102,335.205 193.5,342.5C 193.5,342.833 193.5,343.167 193.5,343.5C 167.441,395.952 141.608,448.619 116,501.5C 115.167,502.333 114.333,503.167 113.5,504C 105.333,505.822 101.5,502.656 102,494.5C 130.608,435.619 159.441,376.952 188.5,318.5 Z"/></g>
</svg>
