<?xml version="1.0" encoding="UTF-8"?>
<!DOCTYPE svg PUBLIC "-//W3C//DTD SVG 1.1//EN" "http://www.w3.org/Graphics/SVG/1.1/DTD/svg11.dtd">
<svg xmlns="http://www.w3.org/2000/svg" version="1.1" width="512px" height="512px" style="shape-rendering:geometricPrecision; text-rendering:geometricPrecision; image-rendering:optimizeQuality; fill-rule:evenodd; clip-rule:evenodd" xmlns:xlink="http://www.w3.org/1999/xlink">
<g><path style="opacity:0.998" fill="#60a1f9" d="M 209.5,-0.5 C 231.167,-0.5 252.833,-0.5 274.5,-0.5C 276.761,0.589662 278.594,2.25633 280,4.5C 280.667,12.1667 280.667,19.8333 280,27.5C 278.975,29.687 277.475,31.3536 275.5,32.5C 254.66,32.1695 233.993,32.5028 213.5,33.5C 209.937,33.3748 207.437,31.7081 206,28.5C 205.333,20.1667 205.333,11.8333 206,3.5C 207.376,2.29493 208.542,0.961599 209.5,-0.5 Z"/></g>
<g><path style="opacity:1" fill="#5490f9" d="M 274.5,-0.5 C 283.5,-0.5 292.5,-0.5 301.5,-0.5C 302.458,0.961599 303.624,2.29493 305,3.5C 305.667,11.8333 305.667,20.1667 305,28.5C 303.292,31.2761 300.792,32.9428 297.5,33.5C 290.352,32.5084 283.019,32.175 275.5,32.5C 277.475,31.3536 278.975,29.687 280,27.5C 280.667,19.8333 280.667,12.1667 280,4.5C 278.594,2.25633 276.761,0.589662 274.5,-0.5 Z"/></g>
<g><path style="opacity:0.991" fill="#e5f6fd" d="M 213.5,33.5 C 233.5,33.5 253.5,33.5 273.5,33.5C 273.666,41.84 273.5,50.1733 273,58.5C 271.75,61.1707 269.917,63.3374 267.5,65C 252.994,65.1688 238.661,65.6688 224.5,66.5C 223.833,66.5 223.167,66.5 222.5,66.5C 218.638,65.4763 215.805,63.1429 214,59.5C 213.5,50.8397 213.334,42.1731 213.5,33.5 Z"/></g>
<g><path style="opacity:0.985" fill="#d2eefd" d="M 213.5,33.5 C 233.993,32.5028 254.66,32.1695 275.5,32.5C 283.019,32.175 290.352,32.5084 297.5,33.5C 297.666,42.1731 297.5,50.8397 297,59.5C 294.926,63.0769 292.093,65.7435 288.5,67.5C 267.242,66.5118 245.909,66.1785 224.5,66.5C 238.661,65.6688 252.994,65.1688 267.5,65C 269.917,63.3374 271.75,61.1707 273,58.5C 273.5,50.1733 273.666,41.84 273.5,33.5C 253.5,33.5 233.5,33.5 213.5,33.5 Z"/></g>
<g><path style="opacity:0.995" fill="#91dafa" d="M 222.5,66.5 C 223.167,66.5 223.833,66.5 224.5,66.5C 245.909,66.1785 267.242,66.5118 288.5,67.5C 296.86,80.8508 305.193,94.1841 313.5,107.5C 274.833,107.5 236.167,107.5 197.5,107.5C 206.084,94 214.418,80.3334 222.5,66.5 Z"/></g>
<g><path style="opacity:0.998" fill="#c17e4e" d="M 197.5,107.5 C 236.167,107.5 274.833,107.5 313.5,107.5C 304.325,108.167 294.991,108.833 285.5,109.5C 299.526,131.184 313.526,152.851 327.5,174.5C 269.5,174.5 211.5,174.5 153.5,174.5C 167.931,151.959 182.598,129.626 197.5,107.5 Z"/></g>
<g><path style="opacity:1" fill="#b36d3c" d="M 313.5,107.5 C 328.402,129.626 343.069,151.959 357.5,174.5C 347.833,174.5 338.167,174.5 328.5,174.5C 328.167,174.5 327.833,174.5 327.5,174.5C 313.526,152.851 299.526,131.184 285.5,109.5C 294.991,108.833 304.325,108.167 313.5,107.5 Z"/></g>
<g><path style="opacity:0.998" fill="#61a1f8" d="M 153.5,174.5 C 211.5,174.5 269.5,174.5 327.5,174.5C 327.833,174.5 328.167,174.5 328.5,174.5C 331.322,180.145 334.156,185.811 337,191.5C 338.036,194.753 338.703,198.086 339,201.5C 339.667,226.167 339.667,250.833 339,275.5C 338.074,280.279 336.741,284.946 335,289.5C 328.552,300.061 322.886,311.061 318,322.5C 315.151,329.912 313.651,337.578 313.5,345.5C 265.167,345.5 216.833,345.5 168.5,345.5C 167.285,336.641 165.118,327.974 162,319.5C 157.402,309.915 152.402,300.582 147,291.5C 144.554,285.382 142.887,279.048 142,272.5C 141.333,249.167 141.333,225.833 142,202.5C 143.368,192.105 147.201,182.772 153.5,174.5 Z"/></g>
<g><path style="opacity:1" fill="#5490f8" d="M 328.5,174.5 C 338.167,174.5 347.833,174.5 357.5,174.5C 363.799,182.772 367.632,192.105 369,202.5C 369.667,225.833 369.667,249.167 369,272.5C 368.113,279.048 366.446,285.382 364,291.5C 358.564,300.602 353.564,309.935 349,319.5C 345.882,327.974 343.715,336.641 342.5,345.5C 332.833,345.5 323.167,345.5 313.5,345.5C 313.651,337.578 315.151,329.912 318,322.5C 322.886,311.061 328.552,300.061 335,289.5C 336.741,284.946 338.074,280.279 339,275.5C 339.667,250.833 339.667,226.167 339,201.5C 338.703,198.086 338.036,194.753 337,191.5C 334.156,185.811 331.322,180.145 328.5,174.5 Z"/></g>
<g><path style="opacity:0.997" fill="#c17e4e" d="M 168.5,345.5 C 216.833,345.5 265.167,345.5 313.5,345.5C 323.167,345.5 332.833,345.5 342.5,345.5C 342.5,345.833 342.5,346.167 342.5,346.5C 332.833,346.5 323.167,346.5 313.5,346.5C 312.764,362.655 315.931,377.988 323,392.5C 330.731,402.296 336.064,413.296 339,425.5C 339.667,449.167 339.667,472.833 339,496.5C 335.894,503.775 330.728,508.775 323.5,511.5C 267.833,511.5 212.167,511.5 156.5,511.5C 149.021,508.181 144.188,502.514 142,494.5C 141.333,473.167 141.333,451.833 142,430.5C 143.697,417.062 148.697,405.062 157,394.5C 165.352,379.243 169.185,362.91 168.5,345.5 Z"/></g>
<g><path style="opacity:1" fill="#b36d3c" d="M 342.5,346.5 C 342.045,369.636 348.879,390.302 363,408.5C 366.222,415.499 368.222,422.833 369,430.5C 369.667,451.833 369.667,473.167 369,494.5C 366.812,502.514 361.979,508.181 354.5,511.5C 344.167,511.5 333.833,511.5 323.5,511.5C 330.728,508.775 335.894,503.775 339,496.5C 339.667,472.833 339.667,449.167 339,425.5C 336.064,413.296 330.731,402.296 323,392.5C 315.931,377.988 312.764,362.655 313.5,346.5C 323.167,346.5 332.833,346.5 342.5,346.5 Z"/></g>
</svg>
