<svg xmlns="http://www.w3.org/2000/svg" viewBox="0 0 64 64" id="coffee-glass"><g data-name="take away-cool drink-Coffee break-coffee time"><path fill="#d69c7a" d="M49.539,22a17.986,17.986,0,0,0-35.078,0Z"></path><polygon fill="#7e543b" points="46 61 18 61 14 27 50 27 46 61"></polygon><rect width="40" height="5" x="12" y="22" fill="#e0e0e2"></rect><path fill="#f5e0ad" d="M48.82,37,47.53,48.01,47.45,48H39.99a9.98,9.98,0,0,1-15.98,0H16.55l-.08.01L15.18,37h8.17a9.982,9.982,0,0,1,17.3,0Z"></path><path fill="#7e543b" d="M36.4,39.63c.98,1.9-.06,4.48-2.4,5.83-2.39,1.38-5.23.95-6.33-.96-.02-.04-.05-.08-.07-.13a5.175,5.175,0,0,0,2.65-.72c2.03-1.17,1.47-2.13,3.49-3.3A5.23,5.23,0,0,1,36.4,39.63Z"></path><path fill="#cc8355" d="M36.33,39.5c.02.04.05.08.07.13a5.23,5.23,0,0,0-2.66.72c-2.02,1.17-1.46,2.13-3.49,3.3a5.175,5.175,0,0,1-2.65.72c-.98-1.9.06-4.48,2.4-5.83C32.39,37.16,35.23,37.59,36.33,39.5Z"></path><path fill="#e9e9ea" d="M49,3V7H43V22H39V5a2.006,2.006,0,0,1,2-2Z"></path></g></svg>