<?xml version="1.0" encoding="UTF-8"?>
<!DOCTYPE svg PUBLIC "-//W3C//DTD SVG 1.1//EN" "http://www.w3.org/Graphics/SVG/1.1/DTD/svg11.dtd">
<svg xmlns="http://www.w3.org/2000/svg" version="1.1" width="512px" height="512px" style="shape-rendering:geometricPrecision; text-rendering:geometricPrecision; image-rendering:optimizeQuality; fill-rule:evenodd; clip-rule:evenodd" xmlns:xlink="http://www.w3.org/1999/xlink">
<g><path style="opacity:0.954" fill="#ffeac6" d="M 259.5,-0.5 C 262.167,-0.5 264.833,-0.5 267.5,-0.5C 269.901,0.745833 271.401,2.74583 272,5.5C 272.613,12.4362 270.946,18.7696 267,24.5C 263.297,27.8675 259.964,31.5342 257,35.5C 256.163,39.2946 256.496,42.9613 258,46.5C 271.913,57.0833 275.58,70.4166 269,86.5C 265,91.1667 261,95.8333 257,100.5C 256.621,111.921 251.287,115.588 241,111.5C 237.998,104.775 238.332,98.1083 242,91.5C 245.667,87.1667 249.333,82.8333 253,78.5C 255,74.5 255,70.5 253,66.5C 233.747,48.8463 233.747,31.1796 253,13.5C 254.308,10.2698 255.308,6.93644 256,3.5C 256.69,1.64977 257.856,0.316435 259.5,-0.5 Z"/></g>
<g><path style="opacity:0.962" fill="#fff4d6" d="M 216.5,7.5 C 225.658,5.83462 229.825,9.50129 229,18.5C 220.658,35.397 221.992,51.397 233,66.5C 234.483,69.7024 234.817,73.0357 234,76.5C 230.027,82.95 226.194,89.45 222.5,96C 215.166,98.9996 210.499,96.6662 208.5,89C 209.961,83.1119 212.295,77.6119 215.5,72.5C 204.458,52.647 203.624,32.3136 213,11.5C 214.376,10.2949 215.542,8.9616 216.5,7.5 Z"/></g>
<g><path style="opacity:0.966" fill="#fff4d6" d="M 289.5,15.5 C 300.189,14.5459 304.022,19.2126 301,29.5C 299.167,33.1667 297.333,36.8333 295.5,40.5C 305.293,57.6151 307.126,75.6151 301,94.5C 299.667,97.1667 298.333,99.8333 297,102.5C 293.205,105.803 289.038,106.303 284.5,104C 281.735,101.005 280.902,97.5052 282,93.5C 290.508,76.1028 288.842,59.7695 277,44.5C 276.333,41.5 276.333,38.5 277,35.5C 281.441,28.9406 285.607,22.2739 289.5,15.5 Z"/></g>
<g><path style="opacity:0.995" fill="#ffdf9b" d="M 393.5,169.5 C 363.835,170.167 334.002,170.5 304,170.5C 271.805,170.641 239.638,170.141 207.5,169C 198.044,165.876 192.544,159.376 191,149.5C 190.501,145.514 190.334,141.514 190.5,137.5C 182.167,137.5 173.833,137.5 165.5,137.5C 165.334,130.159 165.5,122.826 166,115.5C 169.016,109.628 173.516,108.128 179.5,111C 196.833,119.667 214.167,128.333 231.5,137C 278.5,137.333 325.5,137.667 372.5,138C 375.726,139.198 378.559,141.031 381,143.5C 385.451,152.067 389.617,160.733 393.5,169.5 Z"/></g>
<g><path style="opacity:0.995" fill="#fed08d" d="M 165.5,137.5 C 173.833,137.5 182.167,137.5 190.5,137.5C 190.334,141.514 190.501,145.514 191,149.5C 192.544,159.376 198.044,165.876 207.5,169C 239.638,170.141 271.805,170.641 304,170.5C 334.002,170.5 363.835,170.167 393.5,169.5C 397.478,173.559 398.311,178.225 396,183.5C 395.097,184.701 393.931,185.535 392.5,186C 387.511,186.499 382.511,186.666 377.5,186.5C 296.167,186.5 214.833,186.5 133.5,186.5C 128.489,186.666 123.489,186.499 118.5,186C 115.187,184.434 113.521,181.767 113.5,178C 118.584,166.33 124.084,154.83 130,143.5C 132.441,141.031 135.274,139.198 138.5,138C 147.494,137.5 156.494,137.334 165.5,137.5 Z"/></g>
<g><path style="opacity:0.997" fill="#d38b63" d="M 133.5,186.5 C 214.833,186.5 296.167,186.5 377.5,186.5C 377.821,192.026 377.488,197.36 376.5,202.5C 336.832,202.333 297.165,202.5 257.5,203C 239.961,207.206 229.127,218.039 225,235.5C 224.174,247.341 224.341,259.007 225.5,270.5C 224.833,271.167 224.167,271.833 223.5,272.5C 206.52,288.903 198.187,309.07 198.5,333C 198.512,358.178 207.845,379.011 226.5,395.5C 227.167,396.167 227.833,396.833 228.5,397.5C 228.85,424.5 229.183,451.5 229.5,478.5C 207.993,478.169 186.66,478.503 165.5,479.5C 157.18,479.266 151.68,475.266 149,467.5C 143.39,373.855 138.223,280.188 133.5,186.5 Z"/></g>
<g><path style="opacity:0.996" fill="#e19a6c" d="M 376.5,202.5 C 372.184,290.858 367.35,379.192 362,467.5C 359.283,475.279 353.783,479.279 345.5,479.5C 285.5,479.5 225.5,479.5 165.5,479.5C 186.66,478.503 207.993,478.169 229.5,478.5C 229.183,451.5 228.85,424.5 228.5,397.5C 233.38,400.107 238.38,402.44 243.5,404.5C 249.106,405.407 254.773,405.74 260.5,405.5C 284.84,399.665 300.673,384.665 308,360.5C 315.76,335.503 313.427,311.503 301,288.5C 293.535,274.864 282.368,265.864 267.5,261.5C 261.91,259.45 256.244,259.117 250.5,260.5C 241.14,261.35 232.806,264.683 225.5,270.5C 224.341,259.007 224.174,247.341 225,235.5C 229.127,218.039 239.961,207.206 257.5,203C 297.165,202.5 336.832,202.333 376.5,202.5 Z"/></g>
<g><path style="opacity:1" fill="#845252" d="M 267.5,261.5 C 264.27,269.626 260.77,277.626 257,285.5C 255.034,295.494 255.034,305.494 257,315.5C 260.386,323.941 264.053,332.274 268,340.5C 274.691,363.254 272.191,384.921 260.5,405.5C 254.773,405.74 249.106,405.407 243.5,404.5C 246.654,396.855 249.821,389.188 253,381.5C 256.211,369.809 256.211,358.142 253,346.5C 247.26,336.026 242.927,325.026 240,313.5C 237.164,294.528 240.664,276.861 250.5,260.5C 256.244,259.117 261.91,259.45 267.5,261.5 Z"/></g>
<g><path style="opacity:1" fill="#a36959" d="M 250.5,260.5 C 240.664,276.861 237.164,294.528 240,313.5C 242.927,325.026 247.26,336.026 253,346.5C 256.211,358.142 256.211,369.809 253,381.5C 249.821,389.188 246.654,396.855 243.5,404.5C 238.38,402.44 233.38,400.107 228.5,397.5C 227.833,396.833 227.167,396.167 226.5,395.5C 227.661,380.005 227.828,364.339 227,348.5C 226.517,329.333 226.017,310.166 225.5,291C 225.496,284.462 224.83,278.295 223.5,272.5C 224.167,271.833 224.833,271.167 225.5,270.5C 232.806,264.683 241.14,261.35 250.5,260.5 Z"/></g>
<g><path style="opacity:1" fill="#a46a5a" d="M 267.5,261.5 C 282.368,265.864 293.535,274.864 301,288.5C 313.427,311.503 315.76,335.503 308,360.5C 300.673,384.665 284.84,399.665 260.5,405.5C 272.191,384.921 274.691,363.254 268,340.5C 264.053,332.274 260.386,323.941 257,315.5C 255.034,305.494 255.034,295.494 257,285.5C 260.77,277.626 264.27,269.626 267.5,261.5 Z"/></g>
<g><path style="opacity:1" fill="#845252" d="M 223.5,272.5 C 224.83,278.295 225.496,284.462 225.5,291C 226.017,310.166 226.517,329.333 227,348.5C 227.828,364.339 227.661,380.005 226.5,395.5C 207.845,379.011 198.512,358.178 198.5,333C 198.187,309.07 206.52,288.903 223.5,272.5 Z"/></g>
<g><path style="opacity:0.993" fill="#ffd18d" d="M 165.5,479.5 C 225.5,479.5 285.5,479.5 345.5,479.5C 345.5,484.833 345.5,490.167 345.5,495.5C 311.165,495.333 276.832,495.5 242.5,496C 235.264,498.639 231.598,503.806 231.5,511.5C 213.167,511.5 194.833,511.5 176.5,511.5C 172.572,509.408 169.406,506.408 167,502.5C 165.604,494.92 165.104,487.253 165.5,479.5 Z"/></g>
<g><path style="opacity:0.997" fill="#ffe09b" d="M 345.5,495.5 C 344.965,503.027 341.299,508.361 334.5,511.5C 300.167,511.5 265.833,511.5 231.5,511.5C 231.598,503.806 235.264,498.639 242.5,496C 276.832,495.5 311.165,495.333 345.5,495.5 Z"/></g>
</svg>
