<?xml version="1.0" encoding="UTF-8"?>
<!DOCTYPE svg PUBLIC "-//W3C//DTD SVG 1.1//EN" "http://www.w3.org/Graphics/SVG/1.1/DTD/svg11.dtd">
<svg xmlns="http://www.w3.org/2000/svg" version="1.1" width="512px" height="512px" style="shape-rendering:geometricPrecision; text-rendering:geometricPrecision; image-rendering:optimizeQuality; fill-rule:evenodd; clip-rule:evenodd" xmlns:xlink="http://www.w3.org/1999/xlink">
<g><path style="opacity:0.999" fill="#efe2dd" d="M 115.5,-0.5 C 138.5,-0.5 161.5,-0.5 184.5,-0.5C 177.875,12.4148 171.542,25.4148 165.5,38.5C 164.833,38.5 164.167,38.5 163.5,38.5C 148.5,38.5 133.5,38.5 118.5,38.5C 113.67,37.8387 110.503,35.172 109,30.5C 108.09,21.7562 108.424,13.0895 110,4.5C 111.73,2.59809 113.563,0.93142 115.5,-0.5 Z"/></g>
<g><path style="opacity:0.999" fill="#f3eae6" d="M 184.5,-0.5 C 254.5,-0.5 324.5,-0.5 394.5,-0.5C 397.557,1.39512 399.723,4.06178 401,7.5C 401.667,15.1667 401.667,22.8333 401,30.5C 399.613,34.7211 396.779,37.3878 392.5,38.5C 316.833,38.5 241.167,38.5 165.5,38.5C 171.542,25.4148 177.875,12.4148 184.5,-0.5 Z"/></g>
<g><path style="opacity:1" fill="#f3e9e5" d="M 118.5,38.5 C 133.5,38.5 148.5,38.5 163.5,38.5C 157.952,51.2647 152.119,63.9313 146,76.5C 144.763,80.0601 144.263,83.7267 144.5,87.5C 233.5,87.5 322.5,87.5 411.5,87.5C 411.5,87.8333 411.5,88.1667 411.5,88.5C 322.167,88.5 232.833,88.5 143.5,88.5C 128.833,88.5 114.167,88.5 99.5,88.5C 99.3746,83.6671 100.208,79.0004 102,74.5C 107.786,62.5978 113.286,50.5978 118.5,38.5 Z"/></g>
<g><path style="opacity:0.999" fill="#f9f2f0" d="M 163.5,38.5 C 164.167,38.5 164.833,38.5 165.5,38.5C 241.167,38.5 316.833,38.5 392.5,38.5C 397.714,50.5978 403.214,62.5978 409,74.5C 410.631,78.6879 411.464,83.0212 411.5,87.5C 322.5,87.5 233.5,87.5 144.5,87.5C 144.263,83.7267 144.763,80.0601 146,76.5C 152.119,63.9313 157.952,51.2647 163.5,38.5 Z"/></g>
<g><path style="opacity:1" fill="#f79595" d="M 99.5,88.5 C 114.167,88.5 128.833,88.5 143.5,88.5C 143.5,127.5 143.5,166.5 143.5,205.5C 133.22,229.302 130.386,253.969 135,279.5C 137.136,289.072 139.969,298.406 143.5,307.5C 143.5,345.833 143.5,384.167 143.5,422.5C 128.833,422.5 114.167,422.5 99.5,422.5C 99.5,311.167 99.5,199.833 99.5,88.5 Z"/></g>
<g><path style="opacity:0.998" fill="#f9b1b1" d="M 143.5,88.5 C 232.833,88.5 322.167,88.5 411.5,88.5C 411.5,199.833 411.5,311.167 411.5,422.5C 322.167,422.5 232.833,422.5 143.5,422.5C 143.5,384.167 143.5,345.833 143.5,307.5C 169.552,357.028 210.552,380.361 266.5,377.5C 321.067,370.102 356.567,340.102 373,287.5C 384.228,235.512 369.394,192.679 328.5,159C 315.009,148.922 300.009,142.089 283.5,138.5C 230.122,127.77 186.956,144.103 154,187.5C 150.637,193.669 147.137,199.669 143.5,205.5C 143.5,166.5 143.5,127.5 143.5,88.5 Z"/></g>
<g><path style="opacity:1" fill="#f9f2f0" d="M 283.5,138.5 C 230.671,146.168 195.504,175.168 178,225.5C 165.106,279.824 180.273,324.324 223.5,359C 236.443,368.473 250.776,374.64 266.5,377.5C 210.552,380.361 169.552,357.028 143.5,307.5C 139.969,298.406 137.136,289.072 135,279.5C 130.386,253.969 133.22,229.302 143.5,205.5C 147.137,199.669 150.637,193.669 154,187.5C 186.956,144.103 230.122,127.77 283.5,138.5 Z"/></g>
<g><path style="opacity:1" fill="#f8f5f5" d="M 283.5,138.5 C 300.009,142.089 315.009,148.922 328.5,159C 369.394,192.679 384.228,235.512 373,287.5C 356.567,340.102 321.067,370.102 266.5,377.5C 250.776,374.64 236.443,368.473 223.5,359C 180.273,324.324 165.106,279.824 178,225.5C 195.504,175.168 230.671,146.168 283.5,138.5 Z"/></g>
<g><path style="opacity:1" fill="#fde97d" d="M 240.5,195.5 C 263.502,195.333 286.502,195.5 309.5,196C 310.554,197.388 310.72,198.888 310,200.5C 302.566,212.372 295.399,224.372 288.5,236.5C 288.608,237.442 288.941,238.275 289.5,239C 296.5,239.333 303.5,239.667 310.5,240C 311.357,240.689 312.023,241.522 312.5,242.5C 284.068,270.936 254.735,298.269 224.5,324.5C 221.754,323.904 220.92,322.237 222,319.5C 230.667,300.167 239.333,280.833 248,261.5C 248.667,260.167 248.667,258.833 248,257.5C 234.242,256.676 220.408,256.176 206.5,256C 205.941,255.275 205.608,254.442 205.5,253.5C 216.66,233.845 228.326,214.511 240.5,195.5 Z"/></g>
<g><path style="opacity:1" fill="#f3e9e5" d="M 99.5,422.5 C 114.167,422.5 128.833,422.5 143.5,422.5C 232.833,422.5 322.167,422.5 411.5,422.5C 411.5,422.833 411.5,423.167 411.5,423.5C 322.5,423.5 233.5,423.5 144.5,423.5C 144.392,427.247 144.892,430.914 146,434.5C 152.119,447.069 157.952,459.735 163.5,472.5C 148.5,472.5 133.5,472.5 118.5,472.5C 113.286,460.402 107.786,448.402 102,436.5C 100.208,432 99.3746,427.333 99.5,422.5 Z"/></g>
<g><path style="opacity:0.999" fill="#f9f2f0" d="M 411.5,423.5 C 411.464,427.979 410.631,432.312 409,436.5C 403.214,448.402 397.714,460.402 392.5,472.5C 316.833,472.5 241.167,472.5 165.5,472.5C 164.833,472.5 164.167,472.5 163.5,472.5C 157.952,459.735 152.119,447.069 146,434.5C 144.892,430.914 144.392,427.247 144.5,423.5C 233.5,423.5 322.5,423.5 411.5,423.5 Z"/></g>
<g><path style="opacity:0.999" fill="#efe2dd" d="M 118.5,472.5 C 133.5,472.5 148.5,472.5 163.5,472.5C 164.167,472.5 164.833,472.5 165.5,472.5C 171.548,485.596 177.881,498.596 184.5,511.5C 161.5,511.5 138.5,511.5 115.5,511.5C 112.443,509.605 110.277,506.938 109,503.5C 108.333,495.833 108.333,488.167 109,480.5C 110.503,475.828 113.67,473.161 118.5,472.5 Z"/></g>
<g><path style="opacity:0.999" fill="#f3eae6" d="M 165.5,472.5 C 241.167,472.5 316.833,472.5 392.5,472.5C 396.779,473.612 399.613,476.279 401,480.5C 401.91,489.244 401.576,497.911 400,506.5C 398.27,508.402 396.437,510.069 394.5,511.5C 324.5,511.5 254.5,511.5 184.5,511.5C 177.881,498.596 171.548,485.596 165.5,472.5 Z"/></g>
</svg>
