<?xml version="1.0" encoding="UTF-8"?>
<!DOCTYPE svg PUBLIC "-//W3C//DTD SVG 1.1//EN" "http://www.w3.org/Graphics/SVG/1.1/DTD/svg11.dtd">
<svg xmlns="http://www.w3.org/2000/svg" version="1.1" width="512px" height="512px" style="shape-rendering:geometricPrecision; text-rendering:geometricPrecision; image-rendering:optimizeQuality; fill-rule:evenodd; clip-rule:evenodd" xmlns:xlink="http://www.w3.org/1999/xlink">
<g><path style="opacity:1" fill="#dc636e" d="M 208.5,-0.5 C 220.833,-0.5 233.167,-0.5 245.5,-0.5C 230.85,3.98451 221.35,13.6512 217,28.5C 216.5,38.1609 216.334,47.8276 216.5,57.5C 215.149,63.0201 211.816,66.8535 206.5,69C 203.937,70.0793 201.271,70.5793 198.5,70.5C 188.573,70.1216 182.406,65.1216 180,55.5C 178.647,43.5941 179.647,31.9274 183,20.5C 188.394,9.5949 196.894,2.5949 208.5,-0.5 Z"/></g>
<g><path style="opacity:0.994" fill="#e17f85" d="M 245.5,-0.5 C 264.5,-0.5 283.5,-0.5 302.5,-0.5C 318.471,4.30883 327.971,14.9755 331,31.5C 331.667,39.5 331.667,47.5 331,55.5C 328.594,65.1216 322.427,70.1216 312.5,70.5C 301.87,69.5977 295.37,63.931 293,53.5C 291.082,64.0841 284.749,69.7507 274,70.5C 264.73,69.4021 258.563,64.4021 255.5,55.5C 249.404,69.7196 239.404,73.553 225.5,67C 221.286,63.4527 218.786,58.9527 218,53.5C 217.79,55.0581 217.29,56.3915 216.5,57.5C 216.334,47.8276 216.5,38.1609 217,28.5C 221.35,13.6512 230.85,3.98451 245.5,-0.5 Z"/></g>
<g><path style="opacity:1" fill="#365e7d" d="M 312.5,70.5 C 312.46,73.8806 312.793,77.2139 313.5,80.5C 302.599,79.7676 295.766,74.101 293,63.5C 290.252,75.459 282.752,80.959 270.5,80C 263.456,77.7897 258.456,73.2897 255.5,66.5C 248.753,80.0133 238.753,83.3467 225.5,76.5C 223.763,90.6309 221.263,104.631 218,118.5C 211.535,140.691 205.535,163.025 200,185.5C 197.68,197.106 195.847,208.773 194.5,220.5C 177.167,220.5 159.833,220.5 142.5,220.5C 144.274,208.011 147.774,196.011 153,184.5C 163.395,162.71 174.061,141.044 185,119.5C 192.776,104.061 197.276,87.728 198.5,70.5C 201.271,70.5793 203.937,70.0793 206.5,69C 211.816,66.8535 215.149,63.0201 216.5,57.5C 217.29,56.3915 217.79,55.0581 218,53.5C 218.786,58.9527 221.286,63.4527 225.5,67C 239.404,73.553 249.404,69.7196 255.5,55.5C 258.563,64.4021 264.73,69.4021 274,70.5C 284.749,69.7507 291.082,64.0841 293,53.5C 295.37,63.931 301.87,69.5977 312.5,70.5 Z"/></g>
<g><path style="opacity:0.998" fill="#406f92" d="M 313.5,80.5 C 315.209,91.5884 318.375,102.255 323,112.5C 336.546,139.591 349.546,166.924 362,194.5C 365.25,203.25 367.416,212.25 368.5,221.5C 310.5,221.5 252.5,221.5 194.5,221.5C 177.167,221.5 159.833,221.5 142.5,221.5C 142.5,221.167 142.5,220.833 142.5,220.5C 159.833,220.5 177.167,220.5 194.5,220.5C 195.847,208.773 197.68,197.106 200,185.5C 205.535,163.025 211.535,140.691 218,118.5C 221.263,104.631 223.763,90.6309 225.5,76.5C 238.753,83.3467 248.753,80.0133 255.5,66.5C 258.456,73.2897 263.456,77.7897 270.5,80C 282.752,80.959 290.252,75.459 293,63.5C 295.766,74.101 302.599,79.7676 313.5,80.5 Z"/></g>
<g><path style="opacity:1" fill="#365e7d" d="M 281.5,144.5 C 298.673,143.832 305.506,151.832 302,168.5C 295.231,178.144 286.731,179.978 276.5,174C 270.67,168.175 269.17,161.342 272,153.5C 274.406,149.592 277.572,146.592 281.5,144.5 Z"/></g>
<g><path style="opacity:1" fill="#365e7d" d="M 218.5,162.5 C 233.749,162.898 238.915,170.231 234,184.5C 228.442,190.924 221.942,192.091 214.5,188C 205.577,177.882 206.91,169.382 218.5,162.5 Z"/></g>
<g><path style="opacity:1" fill="#dd636e" d="M 142.5,221.5 C 159.833,221.5 177.167,221.5 194.5,221.5C 194.906,237.519 195.739,253.519 197,269.5C 199.798,297.515 202.631,325.515 205.5,353.5C 191.5,353.5 177.5,353.5 163.5,353.5C 154.423,316.277 147.589,278.611 143,240.5C 142.5,234.175 142.334,227.842 142.5,221.5 Z"/></g>
<g><path style="opacity:0.998" fill="#e27f86" d="M 194.5,221.5 C 252.5,221.5 310.5,221.5 368.5,221.5C 368.52,238.298 367.02,254.965 364,271.5C 359.325,299.042 353.825,326.376 347.5,353.5C 300.167,353.5 252.833,353.5 205.5,353.5C 202.631,325.515 199.798,297.515 197,269.5C 195.739,253.519 194.906,237.519 194.5,221.5 Z"/></g>
<g><path style="opacity:1" fill="#365e7d" d="M 163.5,354.5 C 177.833,354.5 192.167,354.5 206.5,354.5C 207.254,366.2 208.421,377.867 210,389.5C 211.468,406.429 210.135,423.096 206,439.5C 200.231,452.462 196.731,465.962 195.5,480C 194.925,489.198 197.091,497.698 202,505.5C 204.114,508.121 206.614,510.121 209.5,511.5C 195.5,511.5 181.5,511.5 167.5,511.5C 147.286,503.403 140.119,488.736 146,467.5C 153.171,456.496 159.838,445.162 166,433.5C 171.076,420.966 173.076,407.966 172,394.5C 169.739,381.029 166.906,367.696 163.5,354.5 Z"/></g>
<g><path style="opacity:0.998" fill="#406f92" d="M 163.5,354.5 C 163.5,354.167 163.5,353.833 163.5,353.5C 177.5,353.5 191.5,353.5 205.5,353.5C 252.833,353.5 300.167,353.5 347.5,353.5C 344.221,367.062 341.387,380.729 339,394.5C 337.924,407.966 339.924,420.966 345,433.5C 351.162,445.162 357.829,456.496 365,467.5C 370.887,488.724 363.72,503.391 343.5,511.5C 298.833,511.5 254.167,511.5 209.5,511.5C 206.614,510.121 204.114,508.121 202,505.5C 197.091,497.698 194.925,489.198 195.5,480C 196.731,465.962 200.231,452.462 206,439.5C 210.135,423.096 211.468,406.429 210,389.5C 208.421,377.867 207.254,366.2 206.5,354.5C 192.167,354.5 177.833,354.5 163.5,354.5 Z"/></g>
<g><path style="opacity:1" fill="#365e7d" d="M 267.5,391.5 C 280.244,389.594 287.577,394.928 289.5,407.5C 287.286,421.448 279.286,426.614 265.5,423C 256.286,416.772 254.119,408.606 259,398.5C 261.441,395.546 264.275,393.213 267.5,391.5 Z"/></g>
</svg>
