<?xml version="1.0" encoding="UTF-8"?>
<!DOCTYPE svg PUBLIC "-//W3C//DTD SVG 1.1//EN" "http://www.w3.org/Graphics/SVG/1.1/DTD/svg11.dtd">
<svg xmlns="http://www.w3.org/2000/svg" version="1.1" width="512px" height="512px" style="shape-rendering:geometricPrecision; text-rendering:geometricPrecision; image-rendering:optimizeQuality; fill-rule:evenodd; clip-rule:evenodd" xmlns:xlink="http://www.w3.org/1999/xlink">
<g><path style="opacity:0.998" fill="#3f6f92" d="M 115.5,-0.5 C 201.833,-0.5 288.167,-0.5 374.5,-0.5C 374.5,10.5 374.5,21.5 374.5,32.5C 293.665,32.1674 212.998,32.5007 132.5,33.5C 132.167,33.5 131.833,33.5 131.5,33.5C 125.738,33.8507 120.072,33.3507 114.5,32C 112.622,30.4571 111.122,28.6238 110,26.5C 109.333,19.5 109.333,12.5 110,5.5C 111.36,2.97739 113.193,0.977392 115.5,-0.5 Z"/></g>
<g><path style="opacity:0.998" fill="#365e7d" d="M 374.5,-0.5 C 381.5,-0.5 388.5,-0.5 395.5,-0.5C 397.807,0.977392 399.64,2.97739 401,5.5C 401.667,12.5 401.667,19.5 401,26.5C 399.413,29.7559 396.913,31.9226 393.5,33C 388.845,33.4992 384.179,33.6658 379.5,33.5C 377.958,32.6993 376.292,32.366 374.5,32.5C 374.5,21.5 374.5,10.5 374.5,-0.5 Z"/></g>
<g><path style="opacity:0.999" fill="#9c65d4" d="M 131.5,33.5 C 131.833,33.5 132.167,33.5 132.5,33.5C 206.17,33.1667 279.836,33.5 353.5,34.5C 361.429,45.3597 368.596,56.693 375,68.5C 375.5,85.4967 375.667,102.497 375.5,119.5C 286.833,119.5 198.167,119.5 109.5,119.5C 109.333,102.163 109.5,84.8301 110,67.5C 116.415,55.6649 123.582,44.3315 131.5,33.5 Z"/></g>
<g><path style="opacity:1" fill="#8760b9" d="M 132.5,33.5 C 212.998,32.5007 293.665,32.1674 374.5,32.5C 376.292,32.366 377.958,32.6993 379.5,33.5C 387.418,44.3315 394.585,55.6649 401,67.5C 401.5,85.1635 401.667,102.83 401.5,120.5C 392.833,120.5 384.167,120.5 375.5,120.5C 286.833,120.5 198.167,120.5 109.5,120.5C 109.5,120.167 109.5,119.833 109.5,119.5C 198.167,119.5 286.833,119.5 375.5,119.5C 375.667,102.497 375.5,85.4967 375,68.5C 368.596,56.693 361.429,45.3597 353.5,34.5C 279.836,33.5 206.17,33.1667 132.5,33.5 Z"/></g>
<g><path style="opacity:0.999" fill="#b3e49f" d="M 109.5,120.5 C 198.167,120.5 286.833,120.5 375.5,120.5C 375.5,179.5 375.5,238.5 375.5,297.5C 374.354,295.525 372.687,294.025 370.5,293C 358.167,292.333 345.833,292.333 333.5,293C 328.188,297.761 328.188,302.428 333.5,307C 346.167,307.667 358.833,307.667 371.5,307C 373.07,305.603 374.404,304.103 375.5,302.5C 375.5,311.833 375.5,321.167 375.5,330.5C 374.146,328.304 372.146,326.804 369.5,326C 354.167,325.333 338.833,325.333 323.5,326C 316.833,331 316.833,336 323.5,341C 338.833,341.667 354.167,341.667 369.5,341C 372.254,340.401 374.254,338.901 375.5,336.5C 375.5,354.5 375.5,372.5 375.5,390.5C 359.833,390.5 344.167,390.5 328.5,390.5C 329.885,383.892 327.885,378.725 322.5,375C 277.833,374.333 233.167,374.333 188.5,375C 183.115,378.725 181.115,383.892 182.5,390.5C 158.167,390.5 133.833,390.5 109.5,390.5C 109.5,300.5 109.5,210.5 109.5,120.5 Z"/></g>
<g><path style="opacity:1" fill="#95d6a3" d="M 375.5,120.5 C 384.167,120.5 392.833,120.5 401.5,120.5C 401.5,210.5 401.5,300.5 401.5,390.5C 392.833,390.5 384.167,390.5 375.5,390.5C 375.5,372.5 375.5,354.5 375.5,336.5C 375.5,334.5 375.5,332.5 375.5,330.5C 375.5,321.167 375.5,311.833 375.5,302.5C 375.5,300.833 375.5,299.167 375.5,297.5C 375.5,238.5 375.5,179.5 375.5,120.5 Z"/></g>
<g><path style="opacity:1" fill="#fed064" d="M 251.5,162.5 C 252.833,162.5 254.167,162.5 255.5,162.5C 255.333,175.837 255.5,189.171 256,202.5C 268.091,203.323 280.258,203.823 292.5,204C 293.944,205.126 294.61,206.626 294.5,208.5C 283.289,237.259 271.789,265.926 260,294.5C 258.951,296.107 257.451,296.773 255.5,296.5C 255.667,283.163 255.5,269.829 255,256.5C 242.909,255.677 230.742,255.177 218.5,255C 217.056,253.874 216.39,252.374 216.5,250.5C 227.775,221.007 239.442,191.673 251.5,162.5 Z"/></g>
<g><path style="opacity:1" fill="#fed064" d="M 140.5,292.5 C 152.505,292.333 164.505,292.5 176.5,293C 181.143,295.072 182.643,298.572 181,303.5C 180.5,305.333 179.333,306.5 177.5,307C 164.833,307.667 152.167,307.667 139.5,307C 134.068,301.761 134.401,296.928 140.5,292.5 Z"/></g>
<g><path style="opacity:1" fill="#fed064" d="M 375.5,297.5 C 375.5,299.167 375.5,300.833 375.5,302.5C 374.404,304.103 373.07,305.603 371.5,307C 358.833,307.667 346.167,307.667 333.5,307C 328.188,302.428 328.188,297.761 333.5,293C 345.833,292.333 358.167,292.333 370.5,293C 372.687,294.025 374.354,295.525 375.5,297.5 Z"/></g>
<g><path style="opacity:1" fill="#fcd066" d="M 140.5,325.5 C 155.837,325.333 171.17,325.5 186.5,326C 194.393,330.91 194.393,335.91 186.5,341C 171.167,341.667 155.833,341.667 140.5,341C 135.465,337.987 134.298,333.82 137,328.5C 138.518,327.837 139.685,326.837 140.5,325.5 Z"/></g>
<g><path style="opacity:1" fill="#fcd066" d="M 375.5,330.5 C 375.5,332.5 375.5,334.5 375.5,336.5C 374.254,338.901 372.254,340.401 369.5,341C 354.167,341.667 338.833,341.667 323.5,341C 316.833,336 316.833,331 323.5,326C 338.833,325.333 354.167,325.333 369.5,326C 372.146,326.804 374.146,328.304 375.5,330.5 Z"/></g>
<g><path style="opacity:1" fill="#f2f8fd" d="M 375.5,390.5 C 384.167,390.5 392.833,390.5 401.5,390.5C 401.5,390.833 401.5,391.167 401.5,391.5C 392.833,391.5 384.167,391.5 375.5,391.5C 359.833,391.5 344.167,391.5 328.5,391.5C 329.875,398.939 327.208,404.106 320.5,407C 276.833,407.667 233.167,407.667 189.5,407C 183.404,403.238 181.07,397.738 182.5,390.5C 181.115,383.892 183.115,378.725 188.5,375C 233.167,374.333 277.833,374.333 322.5,375C 327.885,378.725 329.885,383.892 328.5,390.5C 344.167,390.5 359.833,390.5 375.5,390.5 Z"/></g>
<g><path style="opacity:0.999" fill="#9d66d4" d="M 109.5,390.5 C 133.833,390.5 158.167,390.5 182.5,390.5C 181.07,397.738 183.404,403.238 189.5,407C 233.167,407.667 276.833,407.667 320.5,407C 327.208,404.106 329.875,398.939 328.5,391.5C 344.167,391.5 359.833,391.5 375.5,391.5C 375.667,408.503 375.5,425.503 375,442.5C 368.596,454.307 361.429,465.64 353.5,476.5C 279.836,477.5 206.17,477.833 132.5,477.5C 132.167,477.5 131.833,477.5 131.5,477.5C 123.582,466.668 116.415,455.335 110,443.5C 109.5,425.836 109.333,408.17 109.5,390.5 Z"/></g>
<g><path style="opacity:1" fill="#845ab9" d="M 375.5,391.5 C 384.167,391.5 392.833,391.5 401.5,391.5C 401.667,408.837 401.5,426.17 401,443.5C 394.585,455.335 387.418,466.668 379.5,477.5C 377.958,478.301 376.292,478.634 374.5,478.5C 293.665,478.833 212.998,478.499 132.5,477.5C 206.17,477.833 279.836,477.5 353.5,476.5C 361.429,465.64 368.596,454.307 375,442.5C 375.5,425.503 375.667,408.503 375.5,391.5 Z"/></g>
<g><path style="opacity:0.997" fill="#3f6f92" d="M 131.5,477.5 C 131.833,477.5 132.167,477.5 132.5,477.5C 212.998,478.499 293.665,478.833 374.5,478.5C 374.5,489.5 374.5,500.5 374.5,511.5C 288.167,511.5 201.833,511.5 115.5,511.5C 113.193,510.023 111.36,508.023 110,505.5C 109.333,498.5 109.333,491.5 110,484.5C 111.587,481.244 114.087,479.077 117.5,478C 122.155,477.501 126.821,477.334 131.5,477.5 Z"/></g>
<g><path style="opacity:0.998" fill="#365e7d" d="M 379.5,477.5 C 385.262,477.149 390.928,477.649 396.5,479C 398.378,480.543 399.878,482.376 401,484.5C 401.667,491.5 401.667,498.5 401,505.5C 399.64,508.023 397.807,510.023 395.5,511.5C 388.5,511.5 381.5,511.5 374.5,511.5C 374.5,500.5 374.5,489.5 374.5,478.5C 376.292,478.634 377.958,478.301 379.5,477.5 Z"/></g>
</svg>
