<?xml version="1.0" encoding="UTF-8"?>
<!DOCTYPE svg PUBLIC "-//W3C//DTD SVG 1.1//EN" "http://www.w3.org/Graphics/SVG/1.1/DTD/svg11.dtd">
<svg xmlns="http://www.w3.org/2000/svg" version="1.1" width="512px" height="512px" style="shape-rendering:geometricPrecision; text-rendering:geometricPrecision; image-rendering:optimizeQuality; fill-rule:evenodd; clip-rule:evenodd" xmlns:xlink="http://www.w3.org/1999/xlink">
<g><path style="opacity:0.994" fill="#faf7f7" d="M 363.5,122.5 C 361.833,122.5 360.167,122.5 358.5,122.5C 287.833,122.5 217.167,122.5 146.5,122.5C 152.614,107.937 163.614,100.603 179.5,100.5C 176.998,82.6698 183.665,69.5031 199.5,61C 205.673,59.068 212.006,58.068 218.5,58C 228.946,32.7797 247.279,24.2797 273.5,32.5C 284.967,37.6264 291.967,46.293 294.5,58.5C 323.25,57.5817 337.583,71.5817 337.5,100.5C 349.817,103.64 358.483,110.973 363.5,122.5 Z"/></g>
<g><path style="opacity:0.999" fill="#ffe5c2" d="M 146.5,122.5 C 217.167,122.5 287.833,122.5 358.5,122.5C 362.107,124.438 364.107,127.438 364.5,131.5C 359.202,159.591 353.536,187.591 347.5,215.5C 275.833,215.5 204.167,215.5 132.5,215.5C 126.443,187.718 120.443,159.885 114.5,132C 115.022,127.942 117.022,124.942 120.5,123C 129.16,122.5 137.827,122.334 146.5,122.5 Z"/></g>
<g><path style="opacity:1" fill="#fed2a4" d="M 358.5,122.5 C 360.167,122.5 361.833,122.5 363.5,122.5C 372.506,122.334 381.506,122.5 390.5,123C 393.978,124.942 395.978,127.942 396.5,132C 390.557,159.885 384.557,187.718 378.5,215.5C 368.167,215.5 357.833,215.5 347.5,215.5C 353.536,187.591 359.202,159.591 364.5,131.5C 364.107,127.438 362.107,124.438 358.5,122.5 Z"/></g>
<g><path style="opacity:0.999" fill="#f5a86c" d="M 132.5,215.5 C 204.167,215.5 275.833,215.5 347.5,215.5C 341.74,240.722 336.407,266.055 331.5,291.5C 341.833,291.5 352.167,291.5 362.5,291.5C 362.5,291.833 362.5,292.167 362.5,292.5C 351.833,292.5 341.167,292.5 330.5,292.5C 269.833,292.5 209.167,292.5 148.5,292.5C 143.167,266.833 137.833,241.167 132.5,215.5 Z"/></g>
<g><path style="opacity:1" fill="#ea9b58" d="M 347.5,215.5 C 357.833,215.5 368.167,215.5 378.5,215.5C 373.294,240.865 367.96,266.199 362.5,291.5C 352.167,291.5 341.833,291.5 331.5,291.5C 336.407,266.055 341.74,240.722 347.5,215.5 Z"/></g>
<g><path style="opacity:0.999" fill="#ad6b6b" d="M 148.5,292.5 C 209.167,292.5 269.833,292.5 330.5,292.5C 324.09,324.883 317.423,357.216 310.5,389.5C 263.5,389.5 216.5,389.5 169.5,389.5C 162.376,357.216 155.376,324.883 148.5,292.5 Z"/></g>
<g><path style="opacity:1" fill="#9b5e5e" d="M 330.5,292.5 C 341.167,292.5 351.833,292.5 362.5,292.5C 355.624,324.883 348.624,357.216 341.5,389.5C 331.167,389.5 320.833,389.5 310.5,389.5C 317.423,357.216 324.09,324.883 330.5,292.5 Z"/></g>
<g><path style="opacity:0.998" fill="#fff3dd" d="M 169.5,389.5 C 216.5,389.5 263.5,389.5 310.5,389.5C 320.833,389.5 331.167,389.5 341.5,389.5C 347.842,389.334 354.175,389.5 360.5,390C 363.667,391.833 366.167,394.333 368,397.5C 368.667,406.5 368.667,415.5 368,424.5C 365.972,427.692 363.472,430.359 360.5,432.5C 290.5,432.5 220.5,432.5 150.5,432.5C 147.528,430.359 145.028,427.692 143,424.5C 142.333,415.5 142.333,406.5 143,397.5C 144.833,394.333 147.333,391.833 150.5,390C 156.825,389.5 163.158,389.334 169.5,389.5 Z"/></g>
<g><path style="opacity:0.995" fill="#c4e2fe" d="M 150.5,432.5 C 220.5,432.5 290.5,432.5 360.5,432.5C 397.5,432.5 434.5,432.5 471.5,432.5C 455.882,448.441 436.882,457.608 414.5,460C 287.833,460.667 161.167,460.667 34.5,460C 25.9084,459.249 17.5751,457.415 9.5,454.5C 5.80621,451.473 2.47288,448.14 -0.5,444.5C -0.5,441.833 -0.5,439.167 -0.5,436.5C 0.316435,434.856 1.64977,433.69 3.5,433C 52.4989,432.5 101.499,432.333 150.5,432.5 Z"/></g>
<g><path style="opacity:1" fill="#b3dafe" d="M 471.5,432.5 C 483.505,432.333 495.505,432.5 507.5,433C 509.35,433.69 510.684,434.856 511.5,436.5C 511.5,439.167 511.5,441.833 511.5,444.5C 495.415,464.884 474.415,477.051 448.5,481C 319.833,481.667 191.167,481.667 62.5,481C 41.7694,477.968 24.1028,469.135 9.5,454.5C 17.5751,457.415 25.9084,459.249 34.5,460C 161.167,460.667 287.833,460.667 414.5,460C 436.882,457.608 455.882,448.441 471.5,432.5 Z"/></g>
</svg>
