<?xml version="1.0" encoding="UTF-8"?>
<!DOCTYPE svg PUBLIC "-//W3C//DTD SVG 1.1//EN" "http://www.w3.org/Graphics/SVG/1.1/DTD/svg11.dtd">
<svg xmlns="http://www.w3.org/2000/svg" version="1.1" width="512px" height="512px" style="shape-rendering:geometricPrecision; text-rendering:geometricPrecision; image-rendering:optimizeQuality; fill-rule:evenodd; clip-rule:evenodd" xmlns:xlink="http://www.w3.org/1999/xlink">
<g><path style="opacity:0.998" fill="#dce9fb" d="M 145.5,-0.5 C 209.5,-0.5 273.5,-0.5 337.5,-0.5C 349.424,3.69019 352.924,11.6902 348,23.5C 345.559,26.4536 342.725,28.7869 339.5,30.5C 338.167,30.5 336.833,30.5 335.5,30.5C 273.833,30.5 212.167,30.5 150.5,30.5C 138.295,28.7901 133.462,21.7901 136,9.5C 138.022,4.98004 141.189,1.6467 145.5,-0.5 Z"/></g>
<g><path style="opacity:0.999" fill="#cbe2fe" d="M 337.5,-0.5 C 346.833,-0.5 356.167,-0.5 365.5,-0.5C 374.043,3.92667 377.209,10.9267 375,20.5C 372.454,27.1869 367.621,30.5202 360.5,30.5C 353.5,30.5 346.5,30.5 339.5,30.5C 342.725,28.7869 345.559,26.4536 348,23.5C 352.924,11.6902 349.424,3.69019 337.5,-0.5 Z"/></g>
<g><path style="opacity:0.998" fill="#bed8fb" d="M 150.5,30.5 C 212.167,30.5 273.833,30.5 335.5,30.5C 346.141,46.8157 356.807,63.149 367.5,79.5C 284.167,79.5 200.833,79.5 117.5,79.5C 128.252,62.994 139.252,46.6607 150.5,30.5 Z"/></g>
<g><path style="opacity:1" fill="#9ec6fb" d="M 335.5,30.5 C 336.833,30.5 338.167,30.5 339.5,30.5C 346.5,30.5 353.5,30.5 360.5,30.5C 371.748,46.6607 382.748,62.994 393.5,79.5C 384.833,79.5 376.167,79.5 367.5,79.5C 356.807,63.149 346.141,46.8157 335.5,30.5 Z"/></g>
<g><path style="opacity:0.996" fill="#dc636d" d="M 117.5,79.5 C 200.833,79.5 284.167,79.5 367.5,79.5C 367.5,196.833 367.5,314.167 367.5,431.5C 284.167,431.5 200.833,431.5 117.5,431.5C 117.5,314.167 117.5,196.833 117.5,79.5 Z"/></g>
<g><path style="opacity:1" fill="#da4a54" d="M 367.5,79.5 C 376.167,79.5 384.833,79.5 393.5,79.5C 393.5,196.833 393.5,314.167 393.5,431.5C 384.833,431.5 376.167,431.5 367.5,431.5C 367.5,314.167 367.5,196.833 367.5,79.5 Z"/></g>
<g><path style="opacity:1" fill="#e49724" d="M 243.5,113.5 C 294.441,109.894 330.941,131.227 353,177.5C 368.721,223.444 359.221,263.277 324.5,297C 300.844,316.494 273.844,324.66 243.5,321.5C 279.6,316.132 306.267,297.465 323.5,265.5C 325.587,264.415 326.92,262.749 327.5,260.5C 344.642,213.041 334.975,171.875 298.5,137C 282.494,123.662 264.161,115.829 243.5,113.5 Z"/></g>
<g><path style="opacity:1" fill="#e7a52f" d="M 243.5,113.5 C 264.161,115.829 282.494,123.662 298.5,137C 334.975,171.875 344.642,213.041 327.5,260.5C 327.659,252.349 323.659,249.349 315.5,251.5C 317.342,242.177 313.675,238.344 304.5,240C 303.667,240.833 302.833,241.667 302,242.5C 301.502,245.482 301.335,248.482 301.5,251.5C 294.731,249.687 290.398,252.021 288.5,258.5C 290.125,264.65 294.125,267.317 300.5,266.5C 299.683,272.875 302.35,276.875 308.5,278.5C 314.883,276.979 317.216,272.979 315.5,266.5C 318.279,266.721 320.946,266.388 323.5,265.5C 306.267,297.465 279.6,316.132 243.5,321.5C 196.108,313.724 165.941,286.724 153,240.5C 144.647,191.053 161.48,152.887 203.5,126C 215.871,118.642 229.204,114.475 243.5,113.5 Z"/></g>
<g><path style="opacity:1" fill="#faf0e0" d="M 268.5,149.5 C 269.5,149.5 270.5,149.5 271.5,149.5C 268.402,163.486 265.235,177.486 262,191.5C 260.738,195.909 261.572,199.743 264.5,203C 276.162,203.5 287.829,203.667 299.5,203.5C 299.628,205.655 299.128,207.655 298,209.5C 279.756,233.655 261.756,257.989 244,282.5C 242.89,284.037 241.39,284.703 239.5,284.5C 242.216,270.09 245.382,255.757 249,241.5C 249.667,238.833 249.667,236.167 249,233.5C 247.933,232.809 246.766,232.309 245.5,232C 234.5,231.667 223.5,231.333 212.5,231C 211.941,230.275 211.608,229.442 211.5,228.5C 230.261,201.971 249.261,175.638 268.5,149.5 Z"/></g>
<g><path style="opacity:1" fill="#faefde" d="M 202.5,152.5 C 211.619,151.374 215.285,155.374 213.5,164.5C 224.192,163.094 227.525,167.261 223.5,177C 220.312,178.316 216.978,178.816 213.5,178.5C 214.481,190.39 209.981,193.39 200,187.5C 198.748,184.986 198.248,182.32 198.5,179.5C 191.841,180.333 187.841,177.5 186.5,171C 188.353,165.233 192.353,162.733 198.5,163.5C 197.658,158.949 198.992,155.283 202.5,152.5 Z"/></g>
<g><path style="opacity:1" fill="#faefdd" d="M 327.5,260.5 C 326.92,262.749 325.587,264.415 323.5,265.5C 320.946,266.388 318.279,266.721 315.5,266.5C 317.216,272.979 314.883,276.979 308.5,278.5C 302.35,276.875 299.683,272.875 300.5,266.5C 294.125,267.317 290.125,264.65 288.5,258.5C 290.398,252.021 294.731,249.687 301.5,251.5C 301.335,248.482 301.502,245.482 302,242.5C 302.833,241.667 303.667,240.833 304.5,240C 313.675,238.344 317.342,242.177 315.5,251.5C 323.659,249.349 327.659,252.349 327.5,260.5 Z"/></g>
<g><path style="opacity:1" fill="#d82e3d" d="M 210.5,351.5 C 240.502,351.333 270.502,351.5 300.5,352C 304.212,354.513 305.378,358.013 304,362.5C 302.786,364.049 301.286,365.215 299.5,366C 269.833,366.667 240.167,366.667 210.5,366C 205.235,361.076 205.235,356.242 210.5,351.5 Z"/></g>
<g><path style="opacity:1" fill="#d82e3d" d="M 183.5,381.5 C 231.168,381.333 278.834,381.5 326.5,382C 331.626,384.553 332.793,388.386 330,393.5C 329.097,394.701 327.931,395.535 326.5,396C 279.167,396.667 231.833,396.667 184.5,396C 178.292,391.58 177.958,386.747 183.5,381.5 Z"/></g>
<g><path style="opacity:0.998" fill="#bed8fb" d="M 117.5,431.5 C 200.833,431.5 284.167,431.5 367.5,431.5C 356.807,447.851 346.141,464.184 335.5,480.5C 273.833,480.5 212.167,480.5 150.5,480.5C 139.252,464.339 128.252,448.006 117.5,431.5 Z"/></g>
<g><path style="opacity:1" fill="#9ec6fb" d="M 367.5,431.5 C 376.167,431.5 384.833,431.5 393.5,431.5C 382.748,448.006 371.748,464.339 360.5,480.5C 353.5,480.5 346.5,480.5 339.5,480.5C 338.167,480.5 336.833,480.5 335.5,480.5C 346.141,464.184 356.807,447.851 367.5,431.5 Z"/></g>
<g><path style="opacity:0.998" fill="#dce9fb" d="M 150.5,480.5 C 212.167,480.5 273.833,480.5 335.5,480.5C 336.833,480.5 338.167,480.5 339.5,480.5C 352.467,488.37 353.8,497.87 343.5,509C 341.389,509.845 339.389,510.678 337.5,511.5C 273.5,511.5 209.5,511.5 145.5,511.5C 136.957,507.073 133.791,500.073 136,490.5C 138.546,483.813 143.379,480.48 150.5,480.5 Z"/></g>
<g><path style="opacity:1" fill="#cbe2fe" d="M 339.5,480.5 C 346.5,480.5 353.5,480.5 360.5,480.5C 372.705,482.21 377.538,489.21 375,501.5C 372.978,506.02 369.811,509.353 365.5,511.5C 356.167,511.5 346.833,511.5 337.5,511.5C 339.389,510.678 341.389,509.845 343.5,509C 353.8,497.87 352.467,488.37 339.5,480.5 Z"/></g>
</svg>
