<?xml version="1.0" encoding="UTF-8"?>
<!DOCTYPE svg PUBLIC "-//W3C//DTD SVG 1.1//EN" "http://www.w3.org/Graphics/SVG/1.1/DTD/svg11.dtd">
<svg xmlns="http://www.w3.org/2000/svg" version="1.1" width="512px" height="512px" style="shape-rendering:geometricPrecision; text-rendering:geometricPrecision; image-rendering:optimizeQuality; fill-rule:evenodd; clip-rule:evenodd" xmlns:xlink="http://www.w3.org/1999/xlink">
<g><path style="opacity:0.988" fill="#4d66d2" d="M 120.5,-0.5 C 137.5,-0.5 154.5,-0.5 171.5,-0.5C 157.444,5.94932 152.111,16.9493 155.5,32.5C 147.833,32.5 140.167,32.5 132.5,32.5C 123.083,32.8055 113.75,32.4721 104.5,31.5C 101.975,16.5474 107.309,5.88078 120.5,-0.5 Z"/></g>
<g><path style="opacity:0.998" fill="#6b7ed9" d="M 171.5,-0.5 C 244.5,-0.5 317.5,-0.5 390.5,-0.5C 403.691,5.88078 409.025,16.5474 406.5,31.5C 322.904,32.497 239.237,32.8304 155.5,32.5C 152.111,16.9493 157.444,5.94932 171.5,-0.5 Z"/></g>
<g><path style="opacity:0.986" fill="#6b7ed9" d="M 104.5,31.5 C 113.75,32.4721 123.083,32.8055 132.5,32.5C 129.142,34.6997 126.642,37.6997 125,41.5C 124.333,53.5 124.333,65.5 125,77.5C 126.642,81.3003 129.142,84.3003 132.5,86.5C 119.989,86.1714 107.655,86.5048 95.5,87.5C 90.7325,87.8092 86.0658,87.3092 81.5,86C 78.2716,84.4371 76.1049,81.9371 75,78.5C 74.3333,65.8333 74.3333,53.1667 75,40.5C 76.5981,35.9014 79.7647,33.0681 84.5,32C 91.1583,31.5004 97.825,31.3337 104.5,31.5 Z"/></g>
<g><path style="opacity:1" fill="#8795df" d="M 406.5,31.5 C 413.175,31.3337 419.842,31.5004 426.5,32C 431.235,33.0681 434.402,35.9014 436,40.5C 436.667,53.1667 436.667,65.8333 436,78.5C 434.895,81.9371 432.728,84.4371 429.5,86C 424.934,87.3092 420.267,87.8092 415.5,87.5C 325.668,86.5006 235.668,86.1673 145.5,86.5C 141.167,86.5 136.833,86.5 132.5,86.5C 129.142,84.3003 126.642,81.3003 125,77.5C 124.333,65.5 124.333,53.5 125,41.5C 126.642,37.6997 129.142,34.6997 132.5,32.5C 140.167,32.5 147.833,32.5 155.5,32.5C 239.237,32.8304 322.904,32.497 406.5,31.5 Z"/></g>
<g><path style="opacity:0.992" fill="#4d66d2" d="M 132.5,86.5 C 136.833,86.5 141.167,86.5 145.5,86.5C 147.301,98.4445 148.635,110.444 149.5,122.5C 132.833,122.5 116.167,122.5 99.5,122.5C 97.9203,110.863 96.587,99.196 95.5,87.5C 107.655,86.5048 119.989,86.1714 132.5,86.5 Z"/></g>
<g><path style="opacity:0.999" fill="#6b7ed9" d="M 145.5,86.5 C 235.668,86.1673 325.668,86.5006 415.5,87.5C 414.413,99.196 413.08,110.863 411.5,122.5C 324.5,122.5 237.5,122.5 150.5,122.5C 150.167,122.5 149.833,122.5 149.5,122.5C 148.635,110.444 147.301,98.4445 145.5,86.5 Z"/></g>
<g><path style="opacity:0.994" fill="#9be8fd" d="M 99.5,122.5 C 116.167,122.5 132.833,122.5 149.5,122.5C 149.833,122.5 150.167,122.5 150.5,122.5C 153.874,151.202 157.541,179.868 161.5,208.5C 144.833,208.5 128.167,208.5 111.5,208.5C 111.167,208.5 110.833,208.5 110.5,208.5C 107.207,179.781 103.54,151.114 99.5,122.5 Z"/></g>
<g><path style="opacity:0.999" fill="#c8f0fe" d="M 150.5,122.5 C 237.5,122.5 324.5,122.5 411.5,122.5C 407.506,151.12 403.839,179.787 400.5,208.5C 354.833,208.5 309.167,208.5 263.5,208.5C 257.5,208.5 251.5,208.5 245.5,208.5C 217.5,208.5 189.5,208.5 161.5,208.5C 157.541,179.868 153.874,151.202 150.5,122.5 Z"/></g>
<g><path style="opacity:0.992" fill="#cb6c35" d="M 110.5,208.5 C 110.833,208.5 111.167,208.5 111.5,208.5C 124.327,209.331 137.327,209.831 150.5,210C 147.613,211.709 146.279,214.209 146.5,217.5C 153.766,273.529 161.266,329.529 169,385.5C 170.397,387.07 171.897,388.404 173.5,389.5C 160.5,389.5 147.5,389.5 134.5,389.5C 130.486,389.666 126.486,389.499 122.5,389C 120.185,387.891 118.685,386.057 118,383.5C 110.628,328.692 103.462,273.859 96.5,219C 96.7632,210.008 101.43,206.508 110.5,208.5 Z"/></g>
<g><path style="opacity:0.996" fill="#dd8858" d="M 263.5,208.5 C 309.167,208.5 354.833,208.5 400.5,208.5C 409.57,206.508 414.237,210.008 414.5,219C 407.538,273.859 400.372,328.692 393,383.5C 392.315,386.057 390.815,387.891 388.5,389C 384.514,389.499 380.514,389.666 376.5,389.5C 339.167,389.5 301.833,389.5 264.5,389.5C 269.362,388.408 274.362,387.408 279.5,386.5C 321.357,372.139 343.357,342.806 345.5,298.5C 342.658,254.48 320.325,225.48 278.5,211.5C 273.331,210.768 268.331,209.768 263.5,208.5 Z"/></g>
<g><path style="opacity:1" fill="#dc8959" d="M 111.5,208.5 C 128.167,208.5 144.833,208.5 161.5,208.5C 189.5,208.5 217.5,208.5 245.5,208.5C 196.682,217.964 170.016,247.464 165.5,297C 167.941,347.723 193.941,378.556 243.5,389.5C 224.167,389.5 204.833,389.5 185.5,389.5C 181.5,389.5 177.5,389.5 173.5,389.5C 171.897,388.404 170.397,387.07 169,385.5C 161.266,329.529 153.766,273.529 146.5,217.5C 146.279,214.209 147.613,211.709 150.5,210C 137.327,209.831 124.327,209.331 111.5,208.5 Z"/></g>
<g><path style="opacity:1" fill="#fed402" d="M 245.5,208.5 C 251.5,208.5 257.5,208.5 263.5,208.5C 268.331,209.768 273.331,210.768 278.5,211.5C 269.837,216.006 261.171,220.839 252.5,226C 229.85,243.127 217.516,265.96 215.5,294.5C 213.802,303.789 214.802,312.789 218.5,321.5C 224.74,345.478 238.407,363.978 259.5,377C 266.141,380.477 272.808,383.644 279.5,386.5C 274.362,387.408 269.362,388.408 264.5,389.5C 257.5,389.5 250.5,389.5 243.5,389.5C 193.941,378.556 167.941,347.723 165.5,297C 170.016,247.464 196.682,217.964 245.5,208.5 Z"/></g>
<g><path style="opacity:1" fill="#fee458" d="M 278.5,211.5 C 320.325,225.48 342.658,254.48 345.5,298.5C 343.357,342.806 321.357,372.139 279.5,386.5C 272.808,383.644 266.141,380.477 259.5,377C 238.407,363.978 224.74,345.478 218.5,321.5C 219.167,322.167 219.833,322.833 220.5,323.5C 223.145,328.145 226.812,331.812 231.5,334.5C 252.414,343.615 270.581,339.615 286,322.5C 293.713,312.077 297.046,300.41 296,287.5C 294.824,282.78 292.99,278.446 290.5,274.5C 287.833,269.833 284.167,266.167 279.5,263.5C 258.473,254.113 240.306,258.113 225,275.5C 220.72,281.393 217.553,287.727 215.5,294.5C 217.516,265.96 229.85,243.127 252.5,226C 261.171,220.839 269.837,216.006 278.5,211.5 Z"/></g>
<g><path style="opacity:1" fill="#e39b73" d="M 279.5,263.5 C 259.833,283.5 240.167,303.5 220.5,323.5C 219.833,322.833 219.167,322.167 218.5,321.5C 214.802,312.789 213.802,303.789 215.5,294.5C 217.553,287.727 220.72,281.393 225,275.5C 240.306,258.113 258.473,254.113 279.5,263.5 Z"/></g>
<g><path style="opacity:1" fill="#dd8858" d="M 279.5,263.5 C 284.167,266.167 287.833,269.833 290.5,274.5C 270.833,294.5 251.167,314.5 231.5,334.5C 226.812,331.812 223.145,328.145 220.5,323.5C 240.167,303.5 259.833,283.5 279.5,263.5 Z"/></g>
<g><path style="opacity:1" fill="#e39b73" d="M 290.5,274.5 C 292.99,278.446 294.824,282.78 296,287.5C 297.046,300.41 293.713,312.077 286,322.5C 270.581,339.615 252.414,343.615 231.5,334.5C 251.167,314.5 270.833,294.5 290.5,274.5 Z"/></g>
<g><path style="opacity:0.994" fill="#9be8fd" d="M 134.5,389.5 C 147.5,389.5 160.5,389.5 173.5,389.5C 177.5,389.5 181.5,389.5 185.5,389.5C 190.249,426.488 195.082,463.488 200,500.5C 201.599,505.594 204.766,509.261 209.5,511.5C 192.5,511.5 175.5,511.5 158.5,511.5C 152.924,509.047 149.758,504.714 149,498.5C 144.397,462.113 139.563,425.779 134.5,389.5 Z"/></g>
<g><path style="opacity:0.998" fill="#c8effe" d="M 185.5,389.5 C 204.833,389.5 224.167,389.5 243.5,389.5C 250.5,389.5 257.5,389.5 264.5,389.5C 301.833,389.5 339.167,389.5 376.5,389.5C 371.437,425.779 366.603,462.113 362,498.5C 361.242,504.714 358.076,509.047 352.5,511.5C 304.833,511.5 257.167,511.5 209.5,511.5C 204.766,509.261 201.599,505.594 200,500.5C 195.082,463.488 190.249,426.488 185.5,389.5 Z"/></g>
</svg>
