<?xml version="1.0" encoding="UTF-8"?>
<!DOCTYPE svg PUBLIC "-//W3C//DTD SVG 1.1//EN" "http://www.w3.org/Graphics/SVG/1.1/DTD/svg11.dtd">
<svg xmlns="http://www.w3.org/2000/svg" version="1.1" width="512px" height="512px" style="shape-rendering:geometricPrecision; text-rendering:geometricPrecision; image-rendering:optimizeQuality; fill-rule:evenodd; clip-rule:evenodd" xmlns:xlink="http://www.w3.org/1999/xlink">
<g><path style="opacity:0.996" fill="#ffbd86" d="M 107.5,-0.5 C 206.167,-0.5 304.833,-0.5 403.5,-0.5C 406.2,1.04602 408.033,3.37935 409,6.5C 409.5,18.8288 409.667,31.1622 409.5,43.5C 409.167,43.5 408.833,43.5 408.5,43.5C 306.332,43.1672 204.332,43.5005 102.5,44.5C 102.167,44.5 101.833,44.5 101.5,44.5C 101.333,31.8289 101.5,19.1623 102,6.5C 102.967,3.37935 104.8,1.04602 107.5,-0.5 Z"/></g>
<g><path style="opacity:1" fill="#fedab2" d="M 408.5,43.5 C 408.167,44.5 407.5,45.1667 406.5,45.5C 305.5,44.1667 204.5,44.1667 103.5,45.5C 102.833,45.5 102.5,45.1667 102.5,44.5C 204.332,43.5005 306.332,43.1672 408.5,43.5 Z"/></g>
<g><path style="opacity:1" fill="#fee4c1" d="M 406.5,45.5 C 400.996,57.5093 396.329,69.8427 392.5,82.5C 361.056,166.837 350.556,253.837 361,343.5C 365.889,374.727 373.722,405.061 384.5,434.5C 387.832,445.492 392.498,455.826 398.5,465.5C 351.001,466.167 303.335,466.5 255.5,466.5C 207.495,466.5 159.829,465.833 112.5,464.5C 151.112,377.031 162.278,286.031 146,191.5C 136.931,141.303 122.764,92.6365 103.5,45.5C 204.5,44.1667 305.5,44.1667 406.5,45.5 Z"/></g>
<g><path style="opacity:0.996" fill="#d88a55" d="M 101.5,44.5 C 101.833,44.5 102.167,44.5 102.5,44.5C 102.5,45.1667 102.833,45.5 103.5,45.5C 122.764,92.6365 136.931,141.303 146,191.5C 162.278,286.031 151.112,377.031 112.5,464.5C 111.599,465.29 110.932,466.29 110.5,467.5C 62.9896,366.425 49.1563,260.759 69,150.5C 75.9472,113.835 86.7806,78.5018 101.5,44.5 Z"/></g>
<g><path style="opacity:1" fill="#c57a44" d="M 408.5,43.5 C 408.833,43.5 409.167,43.5 409.5,43.5C 455.514,154.549 463.014,268.216 432,384.5C 424.129,413.296 413.629,440.962 400.5,467.5C 400.5,466.833 400.167,466.5 399.5,466.5C 399.5,465.833 399.167,465.5 398.5,465.5C 392.498,455.826 387.832,445.492 384.5,434.5C 391.826,412.353 398.659,390.02 405,367.5C 427.879,271.247 423.712,176.247 392.5,82.5C 396.329,69.8427 400.996,57.5093 406.5,45.5C 407.5,45.1667 408.167,44.5 408.5,43.5 Z"/></g>
<g><path style="opacity:1" fill="#d88a55" d="M 392.5,82.5 C 423.712,176.247 427.879,271.247 405,367.5C 398.659,390.02 391.826,412.353 384.5,434.5C 373.722,405.061 365.889,374.727 361,343.5C 350.556,253.837 361.056,166.837 392.5,82.5 Z"/></g>
<g><path style="opacity:1" fill="#faf6f6" d="M 193.5,91.5 C 235.168,91.3333 276.835,91.5 318.5,92C 331.751,96.6742 335.585,105.508 330,118.5C 327.635,121.869 324.468,124.036 320.5,125C 277.5,125.667 234.5,125.667 191.5,125C 180.106,118.705 177.606,109.872 184,98.5C 186.79,95.535 189.957,93.2016 193.5,91.5 Z"/></g>
<g><path style="opacity:1" fill="#ae6c6c" d="M 255.5,227.5 C 262.187,234.878 266.187,243.545 267.5,253.5C 268.3,260.957 266.967,267.957 263.5,274.5C 261.528,278.105 258.861,281.105 255.5,283.5C 232.335,294.583 213.169,289.583 198,268.5C 188.756,253.904 188.423,239.237 197,224.5C 209.897,211.436 224.73,208.936 241.5,217C 246.733,219.779 251.4,223.279 255.5,227.5 Z"/></g>
<g><path style="opacity:1" fill="#9b5e5e" d="M 255.5,283.5 C 258.861,281.105 261.528,278.105 263.5,274.5C 265.089,275.621 266.756,275.454 268.5,274C 280.333,262.167 292.167,250.333 304,238.5C 306.875,230.412 304.042,226.579 295.5,227C 285.995,235.672 276.662,244.505 267.5,253.5C 266.187,243.545 262.187,234.878 255.5,227.5C 269.256,212.31 285.589,208.81 304.5,217C 317.856,226.228 322.356,238.728 318,254.5C 309.678,279.149 292.511,290.649 266.5,289C 262.213,288.19 258.546,286.357 255.5,283.5 Z"/></g>
<g><path style="opacity:1" fill="#865151" d="M 209.5,226.5 C 211.989,226.298 214.323,226.798 216.5,228C 228.333,239.833 240.167,251.667 252,263.5C 254.796,269.907 252.796,273.907 246,275.5C 243.968,275.142 242.134,274.308 240.5,273C 229.333,261.833 218.167,250.667 207,239.5C 204.463,234.395 205.296,230.061 209.5,226.5 Z"/></g>
<g><path style="opacity:1" fill="#855151" d="M 263.5,274.5 C 266.967,267.957 268.3,260.957 267.5,253.5C 276.662,244.505 285.995,235.672 295.5,227C 304.042,226.579 306.875,230.412 304,238.5C 292.167,250.333 280.333,262.167 268.5,274C 266.756,275.454 265.089,275.621 263.5,274.5 Z"/></g>
<g><path style="opacity:1" fill="#faf6f6" d="M 203.5,363.5 C 238.168,363.333 272.835,363.5 307.5,364C 311.957,369.135 311.29,373.468 305.5,377C 271.833,377.667 238.167,377.667 204.5,377C 199.588,372.797 199.255,368.297 203.5,363.5 Z"/></g>
<g><path style="opacity:1" fill="#faf6f4" d="M 182.5,395.5 C 231.168,395.333 279.834,395.5 328.5,396C 335.152,400.617 335.152,405.283 328.5,410C 279.833,410.667 231.167,410.667 182.5,410C 175.914,405.122 175.914,400.288 182.5,395.5 Z"/></g>
<g><path style="opacity:1" fill="#fedbb3" d="M 112.5,464.5 C 159.829,465.833 207.495,466.5 255.5,466.5C 303.335,466.5 351.001,466.167 398.5,465.5C 399.167,465.5 399.5,465.833 399.5,466.5C 390.682,467.493 381.682,467.827 372.5,467.5C 285.167,467.5 197.833,467.5 110.5,467.5C 110.932,466.29 111.599,465.29 112.5,464.5 Z"/></g>
<g><path style="opacity:0.999" fill="#febc85" d="M 110.5,467.5 C 197.833,467.5 285.167,467.5 372.5,467.5C 372.666,473.176 372.499,478.843 372,484.5C 370.833,487 369,488.833 366.5,490C 281.167,490.5 195.834,490.667 110.5,490.5C 110.5,482.833 110.5,475.167 110.5,467.5 Z"/></g>
<g><path style="opacity:1" fill="#f6a96c" d="M 399.5,466.5 C 400.167,466.5 400.5,466.833 400.5,467.5C 400.667,480.171 400.5,492.838 400,505.5C 398.64,508.023 396.807,510.023 394.5,511.5C 301.833,511.5 209.167,511.5 116.5,511.5C 114.193,510.023 112.36,508.023 111,505.5C 110.501,500.511 110.334,495.511 110.5,490.5C 195.834,490.667 281.167,490.5 366.5,490C 369,488.833 370.833,487 372,484.5C 372.499,478.843 372.666,473.176 372.5,467.5C 381.682,467.827 390.682,467.493 399.5,466.5 Z"/></g>
</svg>
