<?xml version="1.0" encoding="UTF-8"?>
<!DOCTYPE svg PUBLIC "-//W3C//DTD SVG 1.1//EN" "http://www.w3.org/Graphics/SVG/1.1/DTD/svg11.dtd">
<svg xmlns="http://www.w3.org/2000/svg" version="1.1" width="512px" height="512px" style="shape-rendering:geometricPrecision; text-rendering:geometricPrecision; image-rendering:optimizeQuality; fill-rule:evenodd; clip-rule:evenodd" xmlns:xlink="http://www.w3.org/1999/xlink">
<g><path style="opacity:0.988" fill="#e5646e" d="M 413.5,-0.5 C 416.167,-0.5 418.833,-0.5 421.5,-0.5C 424.598,1.89164 427.931,4.05831 431.5,6C 435.577,9.13852 436.41,12.9719 434,17.5C 426.273,30.388 418.773,43.388 411.5,56.5C 405.08,65.6656 399.413,75.3323 394.5,85.5C 388.833,94.8333 383.167,104.167 377.5,113.5C 367.5,113.5 357.5,113.5 347.5,113.5C 358.753,93.9949 369.753,74.3282 380.5,54.5C 391.172,35.8601 402.172,17.5267 413.5,-0.5 Z"/></g>
<g><path style="opacity:0.991" fill="#d7ebfd" d="M 380.5,54.5 C 369.753,74.3282 358.753,93.9949 347.5,113.5C 347.167,113.5 346.833,113.5 346.5,113.5C 270.833,113.333 195.166,113.5 119.5,114C 117,115.167 115.167,117 114,119.5C 115.636,146.835 117.636,174.168 120,201.5C 120.942,204.993 122.275,208.326 124,211.5C 131.667,221.5 139.333,231.5 147,241.5C 149.435,244.934 151.435,248.6 153,252.5C 156.632,327.552 160.966,402.552 166,477.5C 167.167,479.333 168.667,480.833 170.5,482C 211.165,482.5 251.832,482.667 292.5,482.5C 301.173,482.666 309.84,482.5 318.5,482C 321,480.833 322.833,479 324,476.5C 328.367,401.502 332.7,326.502 337,251.5C 345.598,237.971 354.931,224.971 365,212.5C 366.861,210.112 368.194,207.446 369,204.5C 372.045,174.84 374.878,145.173 377.5,115.5C 377.5,114.833 377.5,114.167 377.5,113.5C 383.167,104.167 388.833,94.8333 394.5,85.5C 390.215,130.23 385.382,174.897 380,219.5C 379.194,222.446 377.861,225.112 376,227.5C 365.895,239.604 356.561,252.271 348,265.5C 344.111,342.173 340.111,418.84 336,495.5C 334.46,499.419 332.293,502.919 329.5,506C 326.233,508.129 322.899,509.962 319.5,511.5C 263.833,511.5 208.167,511.5 152.5,511.5C 144.852,508.684 139.685,503.35 137,495.5C 132.701,419.853 128.701,344.186 125,268.5C 124.489,266.122 123.822,263.788 123,261.5C 114,249.833 105,238.167 96,226.5C 95,224.5 94,222.5 93,220.5C 86.736,166.858 81.0693,113.191 76,59.5C 76.8333,57.3333 78.3333,55.8333 80.5,55C 180.499,54.5 280.499,54.3333 380.5,54.5 Z"/></g>
<g><path style="opacity:1" fill="#b4dafd" d="M 411.5,56.5 C 413.031,58.6755 413.697,61.1755 413.5,64C 408.099,115.51 402.599,167.01 397,218.5C 395.861,222.112 394.194,225.446 392,228.5C 382.227,240.273 373.227,252.606 365,265.5C 360.767,341.152 356.767,416.818 353,492.5C 351.119,501.635 345.953,507.969 337.5,511.5C 331.5,511.5 325.5,511.5 319.5,511.5C 322.899,509.962 326.233,508.129 329.5,506C 332.293,502.919 334.46,499.419 336,495.5C 340.111,418.84 344.111,342.173 348,265.5C 356.561,252.271 365.895,239.604 376,227.5C 377.861,225.112 379.194,222.446 380,219.5C 385.382,174.897 390.215,130.23 394.5,85.5C 399.413,75.3323 405.08,65.6656 411.5,56.5 Z"/></g>
<g><path style="opacity:1" fill="#b57f5f" d="M 346.5,113.5 C 338.833,127.5 331.167,141.5 323.5,155.5C 319.865,151.363 315.531,148.196 310.5,146C 304.164,144.444 298.831,145.944 294.5,150.5C 286.23,159.272 277.73,167.938 269,176.5C 266.878,182.287 267.211,187.953 270,193.5C 276.703,200.035 283.203,206.702 289.5,213.5C 278.664,231.166 268.331,249.166 258.5,267.5C 250.702,260.202 243.035,252.702 235.5,245C 230.356,242.487 225.022,241.82 219.5,243C 226.333,236.167 233.167,229.333 240,222.5C 243.333,216.167 243.333,209.833 240,203.5C 230.804,193.97 221.304,184.803 211.5,176C 207.259,174.543 202.926,174.209 198.5,175C 195.894,175.792 193.894,177.292 192.5,179.5C 182.802,188.031 173.969,197.364 166,207.5C 164.932,212.768 165.599,217.768 168,222.5C 175.702,230.369 183.535,238.036 191.5,245.5C 196.35,251.893 202.683,253.893 210.5,251.5C 204.203,258.298 197.703,264.965 191,271.5C 185.894,279.326 186.561,286.66 193,293.5C 200.035,300.703 207.202,307.703 214.5,314.5C 217.907,318.369 222.241,320.369 227.5,320.5C 223.426,326.976 219.592,333.643 216,340.5C 215.172,344.697 216.672,347.864 220.5,350C 224.327,351.746 227.993,353.746 231.5,356C 235.025,356.658 237.859,355.491 240,352.5C 265.443,308.608 290.61,264.608 315.5,220.5C 325.134,211.699 334.301,202.365 343,192.5C 345.362,186.172 344.862,180.172 341.5,174.5C 343.987,172.191 345.987,169.524 347.5,166.5C 346.39,179.879 344.89,193.212 343,206.5C 334.155,219.522 324.822,232.189 315,244.5C 313.107,247.618 311.774,250.951 311,254.5C 307.366,328.186 303.366,401.853 299,475.5C 297.955,479.04 295.788,481.374 292.5,482.5C 251.832,482.667 211.165,482.5 170.5,482C 168.667,480.833 167.167,479.333 166,477.5C 160.966,402.552 156.632,327.552 153,252.5C 151.435,248.6 149.435,244.934 147,241.5C 139.333,231.5 131.667,221.5 124,211.5C 122.275,208.326 120.942,204.993 120,201.5C 117.636,174.168 115.636,146.835 114,119.5C 115.167,117 117,115.167 119.5,114C 195.166,113.5 270.833,113.333 346.5,113.5 Z"/></g>
<g><path style="opacity:1" fill="#da4755" d="M 346.5,113.5 C 346.833,113.5 347.167,113.5 347.5,113.5C 357.5,113.5 367.5,113.5 377.5,113.5C 377.5,114.167 377.5,114.833 377.5,115.5C 366.759,131.971 356.759,148.971 347.5,166.5C 345.987,169.524 343.987,172.191 341.5,174.5C 335.5,168.167 329.5,161.833 323.5,155.5C 331.167,141.5 338.833,127.5 346.5,113.5 Z"/></g>
<g><path style="opacity:1" fill="#9f6e50" d="M 377.5,115.5 C 374.878,145.173 372.045,174.84 369,204.5C 368.194,207.446 366.861,210.112 365,212.5C 354.931,224.971 345.598,237.971 337,251.5C 332.7,326.502 328.367,401.502 324,476.5C 322.833,479 321,480.833 318.5,482C 309.84,482.5 301.173,482.666 292.5,482.5C 295.788,481.374 297.955,479.04 299,475.5C 303.366,401.853 307.366,328.186 311,254.5C 311.774,250.951 313.107,247.618 315,244.5C 324.822,232.189 334.155,219.522 343,206.5C 344.89,193.212 346.39,179.879 347.5,166.5C 356.759,148.971 366.759,131.971 377.5,115.5 Z"/></g>
<g><path style="opacity:1" fill="#b4d8fb" d="M 323.5,155.5 C 329.5,161.833 335.5,168.167 341.5,174.5C 344.862,180.172 345.362,186.172 343,192.5C 334.301,202.365 325.134,211.699 315.5,220.5C 306.832,225.508 299.498,224.174 293.5,216.5C 301.132,209.369 308.632,202.036 316,194.5C 320.121,188.335 320.454,182.002 317,175.5C 309.667,168.167 302.333,160.833 295,153.5C 294.517,152.552 294.351,151.552 294.5,150.5C 298.831,145.944 304.164,144.444 310.5,146C 315.531,148.196 319.865,151.363 323.5,155.5 Z"/></g>
<g><path style="opacity:1" fill="#d7ebfd" d="M 294.5,150.5 C 294.351,151.552 294.517,152.552 295,153.5C 302.333,160.833 309.667,168.167 317,175.5C 320.454,182.002 320.121,188.335 316,194.5C 308.632,202.036 301.132,209.369 293.5,216.5C 292.167,215.5 290.833,214.5 289.5,213.5C 283.203,206.702 276.703,200.035 270,193.5C 267.211,187.953 266.878,182.287 269,176.5C 277.73,167.938 286.23,159.272 294.5,150.5 Z"/></g>
<g><path style="opacity:1" fill="#d7ebfd" d="M 192.5,179.5 C 199.073,187.578 206.24,195.245 214,202.5C 218.25,208.93 218.583,215.596 215,222.5C 207.298,230.369 199.465,238.036 191.5,245.5C 183.535,238.036 175.702,230.369 168,222.5C 165.599,217.768 164.932,212.768 166,207.5C 173.969,197.364 182.802,188.031 192.5,179.5 Z"/></g>
<g><path style="opacity:1" fill="#da4755" d="M 289.5,213.5 C 290.833,214.5 292.167,215.5 293.5,216.5C 299.498,224.174 306.832,225.508 315.5,220.5C 290.61,264.608 265.443,308.608 240,352.5C 237.859,355.491 235.025,356.658 231.5,356C 227.993,353.746 224.327,351.746 220.5,350C 216.672,347.864 215.172,344.697 216,340.5C 219.592,333.643 223.426,326.976 227.5,320.5C 230.691,319.908 233.691,318.741 236.5,317C 245.333,308.167 254.167,299.333 263,290.5C 267.406,281.613 265.906,273.947 258.5,267.5C 268.331,249.166 278.664,231.166 289.5,213.5 Z"/></g>
<g><path style="opacity:1" fill="#b3d9fd" d="M 258.5,267.5 C 265.906,273.947 267.406,281.613 263,290.5C 254.167,299.333 245.333,308.167 236.5,317C 233.691,318.741 230.691,319.908 227.5,320.5C 222.241,320.369 217.907,318.369 214.5,314.5C 221.798,306.702 229.298,299.035 237,291.5C 241.06,285.356 241.393,279.023 238,272.5C 230,264.5 222,256.5 214,248.5C 212.482,249.163 211.315,250.163 210.5,251.5C 202.683,253.893 196.35,251.893 191.5,245.5C 199.465,238.036 207.298,230.369 215,222.5C 218.583,215.596 218.25,208.93 214,202.5C 206.24,195.245 199.073,187.578 192.5,179.5C 193.894,177.292 195.894,175.792 198.5,175C 202.926,174.209 207.259,174.543 211.5,176C 221.304,184.803 230.804,193.97 240,203.5C 243.333,209.833 243.333,216.167 240,222.5C 233.167,229.333 226.333,236.167 219.5,243C 225.022,241.82 230.356,242.487 235.5,245C 243.035,252.702 250.702,260.202 258.5,267.5 Z"/></g>
<g><path style="opacity:1" fill="#d7eafc" d="M 214.5,314.5 C 207.202,307.703 200.035,300.703 193,293.5C 186.561,286.66 185.894,279.326 191,271.5C 197.703,264.965 204.203,258.298 210.5,251.5C 211.315,250.163 212.482,249.163 214,248.5C 222,256.5 230,264.5 238,272.5C 241.393,279.023 241.06,285.356 237,291.5C 229.298,299.035 221.798,306.702 214.5,314.5 Z"/></g>
<g><path style="opacity:1" fill="#9f6e50" d="M 287.5,328.5 C 294.88,328.05 298.38,331.384 298,338.5C 295.565,343.224 291.731,344.724 286.5,343C 281.003,337.683 281.336,332.85 287.5,328.5 Z"/></g>
<g><path style="opacity:1" fill="#9f6e50" d="M 200.5,402.5 C 208.656,401.821 212.156,405.488 211,413.5C 206.255,418.743 201.588,418.743 197,413.5C 195.663,408.872 196.83,405.205 200.5,402.5 Z"/></g>
<g><path style="opacity:1" fill="#9f6e50" d="M 216.5,429.5 C 221.558,428.717 225.058,430.717 227,435.5C 226.807,443.367 222.974,446.2 215.5,444C 210.147,438.871 210.48,434.038 216.5,429.5 Z"/></g>
</svg>
