<?xml version="1.0" encoding="UTF-8"?>
<!DOCTYPE svg PUBLIC "-//W3C//DTD SVG 1.1//EN" "http://www.w3.org/Graphics/SVG/1.1/DTD/svg11.dtd">
<svg xmlns="http://www.w3.org/2000/svg" version="1.1" width="512px" height="512px" style="shape-rendering:geometricPrecision; text-rendering:geometricPrecision; image-rendering:optimizeQuality; fill-rule:evenodd; clip-rule:evenodd" xmlns:xlink="http://www.w3.org/1999/xlink">
<g><path style="opacity:0.985" fill="#ffd101" d="M 278.5,-0.5 C 310.5,-0.5 342.5,-0.5 374.5,-0.5C 374.5,10.8333 374.5,22.1667 374.5,33.5C 345.165,33.3334 315.831,33.5 286.5,34C 278.886,35.9471 274.386,40.7804 273,48.5C 272.5,75.1646 272.333,101.831 272.5,128.5C 261.167,128.5 249.833,128.5 238.5,128.5C 238.031,97.7835 238.531,67.1169 240,36.5C 246.074,17.0607 258.908,4.72737 278.5,-0.5 Z"/></g>
<g><path style="opacity:0.993" fill="#ffd2c6" d="M 238.5,128.5 C 238.5,152.5 238.5,176.5 238.5,200.5C 238.5,200.833 238.5,201.167 238.5,201.5C 234.222,203.977 229.888,206.477 225.5,209C 216.3,213.211 206.967,213.545 197.5,210C 191.5,206.333 185.5,202.667 179.5,199C 175.037,197.025 170.371,196.192 165.5,196.5C 169.999,290.144 173.999,383.81 177.5,477.5C 197.833,477.5 218.167,477.5 238.5,477.5C 249.833,477.5 261.167,477.5 272.5,477.5C 292.833,477.5 313.167,477.5 333.5,477.5C 337.001,383.808 341.001,290.141 345.5,196.5C 341.418,196.344 337.418,196.844 333.5,198C 327.236,201.27 321.236,204.936 315.5,209C 306.291,213.055 296.958,213.388 287.5,210C 282.594,206.911 277.594,204.077 272.5,201.5C 272.5,201.167 272.5,200.833 272.5,200.5C 272.5,176.5 272.5,152.5 272.5,128.5C 309.167,128.5 345.833,128.5 382.5,128.5C 377.045,256.181 371.378,383.848 365.5,511.5C 292.167,511.5 218.833,511.5 145.5,511.5C 139.622,383.848 133.955,256.181 128.5,128.5C 165.167,128.5 201.833,128.5 238.5,128.5 Z"/></g>
<g><path style="opacity:1" fill="#ffaa0f" d="M 238.5,128.5 C 249.833,128.5 261.167,128.5 272.5,128.5C 272.5,152.5 272.5,176.5 272.5,200.5C 261.125,195.256 249.792,195.256 238.5,200.5C 238.5,176.5 238.5,152.5 238.5,128.5 Z"/></g>
<g><path style="opacity:1" fill="#fe841a" d="M 238.5,201.5 C 238.5,293.5 238.5,385.5 238.5,477.5C 218.167,477.5 197.833,477.5 177.5,477.5C 173.999,383.81 169.999,290.144 165.5,196.5C 170.371,196.192 175.037,197.025 179.5,199C 185.5,202.667 191.5,206.333 197.5,210C 206.967,213.545 216.3,213.211 225.5,209C 229.888,206.477 234.222,203.977 238.5,201.5 Z"/></g>
<g><path style="opacity:1" fill="#fe5d26" d="M 272.5,200.5 C 272.5,200.833 272.5,201.167 272.5,201.5C 272.5,293.5 272.5,385.5 272.5,477.5C 261.167,477.5 249.833,477.5 238.5,477.5C 238.5,385.5 238.5,293.5 238.5,201.5C 238.5,201.167 238.5,200.833 238.5,200.5C 249.792,195.256 261.125,195.256 272.5,200.5 Z"/></g>
<g><path style="opacity:1" fill="#fe841a" d="M 272.5,477.5 C 272.5,385.5 272.5,293.5 272.5,201.5C 277.594,204.077 282.594,206.911 287.5,210C 296.958,213.388 306.291,213.055 315.5,209C 321.236,204.936 327.236,201.27 333.5,198C 337.418,196.844 341.418,196.344 345.5,196.5C 341.001,290.141 337.001,383.808 333.5,477.5C 313.167,477.5 292.833,477.5 272.5,477.5 Z"/></g>
<g><path style="opacity:1" fill="#fe5e25" d="M 303.5,325.5 C 310.985,325.483 314.485,329.15 314,336.5C 311.89,341.945 308.056,343.778 302.5,342C 297.931,339.459 296.431,335.625 298,330.5C 299.73,328.598 301.563,326.931 303.5,325.5 Z"/></g>
<g><path style="opacity:1" fill="#fe5e25" d="M 203.5,404.5 C 212.874,404.357 216.374,408.69 214,417.5C 208.091,423.348 203.091,422.681 199,415.5C 198.333,413.5 198.333,411.5 199,409.5C 200.707,407.963 202.207,406.296 203.5,404.5 Z"/></g>
</svg>
