<?xml version="1.0" encoding="UTF-8"?>
<!DOCTYPE svg PUBLIC "-//W3C//DTD SVG 1.1//EN" "http://www.w3.org/Graphics/SVG/1.1/DTD/svg11.dtd">
<svg xmlns="http://www.w3.org/2000/svg" version="1.1" width="512px" height="512px" style="shape-rendering:geometricPrecision; text-rendering:geometricPrecision; image-rendering:optimizeQuality; fill-rule:evenodd; clip-rule:evenodd" xmlns:xlink="http://www.w3.org/1999/xlink">
<g><path style="opacity:0.962" fill="#678c97" d="M 197.5,-0.5 C 201.833,-0.5 206.167,-0.5 210.5,-0.5C 216.064,1.89468 220.231,5.89468 223,11.5C 224.381,20.4321 224.881,29.4321 224.5,38.5C 210.833,38.5 197.167,38.5 183.5,38.5C 183.334,31.1591 183.5,23.8258 184,16.5C 185.382,8.29184 189.882,2.62518 197.5,-0.5 Z"/></g>
<g><path style="opacity:0.999" fill="#b5c3ce" d="M 183.5,38.5 C 197.167,38.5 210.833,38.5 224.5,38.5C 258.833,38.5 293.167,38.5 327.5,38.5C 331.42,39.9175 334.253,42.5841 336,46.5C 336.667,53.8333 336.667,61.1667 336,68.5C 335.496,72.0202 333.663,74.5202 330.5,76C 278.332,76.1672 226.332,76.6672 174.5,77.5C 173.833,77.5 173.167,77.5 172.5,77.5C 167.489,77.6659 162.489,77.4993 157.5,77C 155.376,75.8783 153.543,74.3783 152,72.5C 143.259,43.4064 153.759,32.0731 183.5,38.5 Z"/></g>
<g><path style="opacity:1" fill="#a5adba" d="M 327.5,38.5 C 357.241,32.0731 367.741,43.4064 359,72.5C 357.457,74.3783 355.624,75.8783 353.5,77C 348.511,77.4993 343.511,77.6659 338.5,77.5C 327.5,77.5 316.5,77.5 305.5,77.5C 261.833,77.5 218.167,77.5 174.5,77.5C 226.332,76.6672 278.332,76.1672 330.5,76C 333.663,74.5202 335.496,72.0202 336,68.5C 336.667,61.1667 336.667,53.8333 336,46.5C 334.253,42.5841 331.42,39.9175 327.5,38.5 Z"/></g>
<g><path style="opacity:0.999" fill="#f48a97" d="M 172.5,77.5 C 173.167,77.5 173.833,77.5 174.5,77.5C 218.167,77.5 261.833,77.5 305.5,77.5C 321.877,96.3783 337.711,115.712 353,135.5C 353.667,241.167 353.667,346.833 353,452.5C 351.5,456.667 348.667,459.5 344.5,461C 353.343,461.17 362.01,461.67 370.5,462.5C 359.833,462.5 349.167,462.5 338.5,462.5C 272.5,462.5 206.5,462.5 140.5,462.5C 133.974,462.822 129.14,460.155 126,454.5C 125.333,347.833 125.333,241.167 126,134.5C 141.713,115.626 157.213,96.626 172.5,77.5 Z"/></g>
<g><path style="opacity:1" fill="#f07281" d="M 305.5,77.5 C 316.5,77.5 327.5,77.5 338.5,77.5C 353.787,96.626 369.287,115.626 385,134.5C 385.667,240.833 385.667,347.167 385,453.5C 382.345,459.915 377.511,462.915 370.5,462.5C 362.01,461.67 353.343,461.17 344.5,461C 348.667,459.5 351.5,456.667 353,452.5C 353.667,346.833 353.667,241.167 353,135.5C 337.711,115.712 321.877,96.3783 305.5,77.5 Z"/></g>
<g><path style="opacity:1" fill="#fedd78" d="M 165.5,128.5 C 225.501,128.333 285.501,128.5 345.5,129C 350.224,131.435 351.724,135.269 350,140.5C 348.786,142.049 347.286,143.215 345.5,144C 285.5,144.667 225.5,144.667 165.5,144C 160.776,141.565 159.276,137.731 161,132.5C 162.397,130.93 163.897,129.596 165.5,128.5 Z"/></g>
<g><path style="opacity:1" fill="#fee078" d="M 280.5,241.5 C 276.044,250.245 271.711,259.079 267.5,268C 268.429,270.597 270.096,272.597 272.5,274C 279.421,278.71 286.254,283.544 293,288.5C 293.667,289.833 293.667,291.167 293,292.5C 275.002,317.326 256.835,341.992 238.5,366.5C 234.364,371.481 230.364,376.648 226.5,382C 222.771,382.783 220.437,381.283 219.5,377.5C 221.787,372.596 223.787,367.596 225.5,362.5C 234.631,344.302 243.298,325.802 251.5,307C 251.561,305.289 250.894,303.956 249.5,303C 239.167,300 228.833,297 218.5,294C 215.928,290.181 216.095,286.348 219,282.5C 227.179,267.473 235.346,252.473 243.5,237.5C 248.027,228.947 252.694,220.447 257.5,212C 268.5,211.333 279.5,211.333 290.5,212C 292.325,213.466 292.825,215.299 292,217.5C 288.426,225.648 284.592,233.648 280.5,241.5 Z"/></g>
<g><path style="opacity:1" fill="#f9f6f6" d="M 243.5,237.5 C 235.346,252.473 227.179,267.473 219,282.5C 216.095,286.348 215.928,290.181 218.5,294C 228.833,297 239.167,300 249.5,303C 250.894,303.956 251.561,305.289 251.5,307C 243.298,325.802 234.631,344.302 225.5,362.5C 198.818,346.471 186.985,322.804 190,291.5C 196.612,262.388 214.445,244.388 243.5,237.5 Z"/></g>
<g><path style="opacity:1" fill="#f9f6f7" d="M 280.5,241.5 C 305.762,253.274 319.429,273.108 321.5,301C 319.891,337.607 301.225,359.941 265.5,368C 257.833,368.667 250.167,368.667 242.5,368C 241.099,367.59 239.766,367.09 238.5,366.5C 256.835,341.992 275.002,317.326 293,292.5C 293.667,291.167 293.667,289.833 293,288.5C 286.254,283.544 279.421,278.71 272.5,274C 270.096,272.597 268.429,270.597 267.5,268C 271.711,259.079 276.044,250.245 280.5,241.5 Z"/></g>
<g><path style="opacity:0.998" fill="#b5c3ce" d="M 140.5,462.5 C 206.5,462.5 272.5,462.5 338.5,462.5C 330.163,474.345 321.997,486.345 314,498.5C 307.794,505.235 300.294,509.568 291.5,511.5C 256.167,511.5 220.833,511.5 185.5,511.5C 178.703,509.764 172.703,506.431 167.5,501.5C 157.75,488.994 148.75,475.994 140.5,462.5 Z"/></g>
<g><path style="opacity:1" fill="#9facba" d="M 338.5,462.5 C 349.167,462.5 359.833,462.5 370.5,462.5C 362.25,475.994 353.25,488.994 343.5,501.5C 338.297,506.431 332.297,509.764 325.5,511.5C 314.167,511.5 302.833,511.5 291.5,511.5C 300.294,509.568 307.794,505.235 314,498.5C 321.997,486.345 330.163,474.345 338.5,462.5 Z"/></g>
</svg>
