<?xml version="1.0" encoding="UTF-8"?>
<!DOCTYPE svg PUBLIC "-//W3C//DTD SVG 1.1//EN" "http://www.w3.org/Graphics/SVG/1.1/DTD/svg11.dtd">
<svg xmlns="http://www.w3.org/2000/svg" version="1.1" width="512px" height="512px" style="shape-rendering:geometricPrecision; text-rendering:geometricPrecision; image-rendering:optimizeQuality; fill-rule:evenodd; clip-rule:evenodd" xmlns:xlink="http://www.w3.org/1999/xlink">
<g><path style="opacity:0.998" fill="#f1f1ee" d="M 131.5,-0.5 C 214.167,-0.5 296.833,-0.5 379.5,-0.5C 381.144,0.316435 382.31,1.64977 383,3.5C 383.5,10.1583 383.666,16.825 383.5,23.5C 308.833,23.5 234.167,23.5 159.5,23.5C 148.833,23.5 138.167,23.5 127.5,23.5C 127.334,16.825 127.5,10.1583 128,3.5C 128.69,1.64977 129.856,0.316435 131.5,-0.5 Z"/></g>
<g><path style="opacity:1" fill="#d8d6d0" d="M 127.5,23.5 C 138.167,23.5 148.833,23.5 159.5,23.5C 154.167,34.1667 148.833,44.8333 143.5,55.5C 132.833,55.5 122.167,55.5 111.5,55.5C 116.325,44.5157 121.659,33.849 127.5,23.5 Z"/></g>
<g><path style="opacity:1" fill="#e5e4e0" d="M 159.5,23.5 C 234.167,23.5 308.833,23.5 383.5,23.5C 389.341,33.849 394.675,44.5157 399.5,55.5C 314.167,55.5 228.833,55.5 143.5,55.5C 148.833,44.8333 154.167,34.1667 159.5,23.5 Z"/></g>
<g><path style="opacity:1" fill="#5fd4ca" d="M 111.5,55.5 C 122.167,55.5 132.833,55.5 143.5,55.5C 143.5,122.833 143.5,190.167 143.5,257.5C 132.933,259.295 122.266,260.628 111.5,261.5C 111.5,192.833 111.5,124.167 111.5,55.5 Z"/></g>
<g><path style="opacity:1" fill="#7fdcd5" d="M 143.5,55.5 C 228.833,55.5 314.167,55.5 399.5,55.5C 399.5,93.8333 399.5,132.167 399.5,170.5C 366.397,173.589 334.731,182.089 304.5,196C 275.196,210.819 245.529,224.819 215.5,238C 192.131,247.008 168.131,253.508 143.5,257.5C 143.5,190.167 143.5,122.833 143.5,55.5 Z"/></g>
<g><path style="opacity:1" fill="#ddf5f3" d="M 179.5,95.5 C 195.147,95.64 201.313,103.307 198,118.5C 192.846,126.585 185.679,129.085 176.5,126C 168.415,120.846 165.915,113.679 169,104.5C 171.489,100.168 174.989,97.1675 179.5,95.5 Z"/></g>
<g><path style="opacity:1" fill="#ddf5f3" d="M 251.5,127.5 C 267.147,127.64 273.313,135.307 270,150.5C 264.846,158.585 257.679,161.085 248.5,158C 240.415,152.846 237.915,145.679 241,136.5C 243.489,132.168 246.989,129.168 251.5,127.5 Z"/></g>
<g><path style="opacity:1" fill="#def5f3" d="M 177.5,159.5 C 197.54,159.041 207.373,168.708 207,188.5C 202.203,202.651 192.369,208.817 177.5,207C 164.099,201.702 158.265,191.869 160,177.5C 163.353,168.982 169.186,162.982 177.5,159.5 Z"/></g>
<g><path style="opacity:1" fill="#def5f3" d="M 399.5,170.5 C 399.5,210.5 399.5,250.5 399.5,290.5C 362.302,294.133 326.969,304.3 293.5,321C 267.985,334.425 241.985,346.758 215.5,358C 192.182,367.168 168.182,373.668 143.5,377.5C 143.5,337.5 143.5,297.5 143.5,257.5C 168.131,253.508 192.131,247.008 215.5,238C 245.529,224.819 275.196,210.819 304.5,196C 334.731,182.089 366.397,173.589 399.5,170.5 Z"/></g>
<g><path style="opacity:1" fill="#beede9" d="M 143.5,257.5 C 143.5,297.5 143.5,337.5 143.5,377.5C 132.807,378.67 122.141,380.003 111.5,381.5C 111.5,341.5 111.5,301.5 111.5,261.5C 122.266,260.628 132.933,259.295 143.5,257.5 Z"/></g>
<g><path style="opacity:1" fill="#7fdcd5" d="M 399.5,290.5 C 399.5,348.167 399.5,405.833 399.5,463.5C 314.167,463.5 228.833,463.5 143.5,463.5C 143.5,434.833 143.5,406.167 143.5,377.5C 168.182,373.668 192.182,367.168 215.5,358C 241.985,346.758 267.985,334.425 293.5,321C 326.969,304.3 362.302,294.133 399.5,290.5 Z"/></g>
<g><path style="opacity:1" fill="#5fd4ca" d="M 143.5,377.5 C 143.5,406.167 143.5,434.833 143.5,463.5C 132.833,463.5 122.167,463.5 111.5,463.5C 111.5,436.167 111.5,408.833 111.5,381.5C 122.141,380.003 132.807,378.67 143.5,377.5 Z"/></g>
<g><path style="opacity:1" fill="#d8d6d0" d="M 111.5,463.5 C 122.167,463.5 132.833,463.5 143.5,463.5C 144.958,479.458 153.291,489.958 168.5,495C 244.166,495.5 319.833,495.667 395.5,495.5C 390.907,503.427 384.24,508.76 375.5,511.5C 295.5,511.5 215.5,511.5 135.5,511.5C 126.796,508.637 119.963,503.304 115,495.5C 113.803,492.911 112.803,490.244 112,487.5C 111.5,479.507 111.334,471.507 111.5,463.5 Z"/></g>
<g><path style="opacity:0.999" fill="#e4e3df" d="M 143.5,463.5 C 228.833,463.5 314.167,463.5 399.5,463.5C 399.666,471.507 399.5,479.507 399,487.5C 398.295,490.476 397.129,493.142 395.5,495.5C 319.833,495.667 244.166,495.5 168.5,495C 153.291,489.958 144.958,479.458 143.5,463.5 Z"/></g>
</svg>
