<?xml version="1.0" encoding="UTF-8"?>
<!DOCTYPE svg PUBLIC "-//W3C//DTD SVG 1.1//EN" "http://www.w3.org/Graphics/SVG/1.1/DTD/svg11.dtd">
<svg xmlns="http://www.w3.org/2000/svg" version="1.1" width="512px" height="512px" style="shape-rendering:geometricPrecision; text-rendering:geometricPrecision; image-rendering:optimizeQuality; fill-rule:evenodd; clip-rule:evenodd" xmlns:xlink="http://www.w3.org/1999/xlink">
<g><path style="opacity:0.949" fill="#d8ecfe" d="M 128.5,-0.5 C 131.167,-0.5 133.833,-0.5 136.5,-0.5C 148.36,13.9714 151.526,30.3048 146,48.5C 143.469,55.8949 140.136,62.8949 136,69.5C 132.467,77.624 131.8,85.9573 134,94.5C 136.34,99.6689 138.506,104.836 140.5,110C 140.512,114.99 138.012,117.824 133,118.5C 130.485,117.885 128.152,116.885 126,115.5C 116.965,102.02 114.298,87.3535 118,71.5C 121.193,62.1159 125.193,53.1159 130,44.5C 132.657,37.2571 132.99,29.9238 131,22.5C 128.66,17.3311 126.494,12.1644 124.5,7C 124.777,3.90164 126.11,1.40164 128.5,-0.5 Z"/></g>
<g><path style="opacity:0.95" fill="#d8ecfe" d="M 190.5,-0.5 C 193.5,-0.5 196.5,-0.5 199.5,-0.5C 211.114,14.9528 213.947,31.9528 208,50.5C 204.701,57.147 201.368,63.8137 198,70.5C 195.655,77.6671 194.989,85.0004 196,92.5C 198.104,98.5378 200.604,104.371 203.5,110C 202.667,114.833 199.833,117.667 195,118.5C 192.113,118.097 189.779,116.764 188,114.5C 178.694,99.4088 176.694,83.4088 182,66.5C 186.479,57.6955 190.479,48.6955 194,39.5C 194.667,34.5 194.667,29.5 194,24.5C 191.901,18.4723 189.401,12.639 186.5,7C 186.994,3.99195 188.327,1.49195 190.5,-0.5 Z"/></g>
<g><path style="opacity:0.952" fill="#d8ecfe" d="M 253.5,-0.5 C 256.167,-0.5 258.833,-0.5 261.5,-0.5C 273.789,14.4624 276.789,31.2957 270.5,50C 266.272,58.2915 262.439,66.7915 259,75.5C 257,81.8333 257,88.1667 259,94.5C 261.34,99.6689 263.506,104.836 265.5,110C 265.512,114.99 263.012,117.824 258,118.5C 251.806,116.843 247.806,112.843 246,106.5C 240.042,91.8517 240.042,77.185 246,62.5C 251.318,54.5317 254.984,45.865 257,36.5C 257.624,31.7767 257.29,27.11 256,22.5C 253.66,17.3311 251.494,12.1644 249.5,7C 249.667,5.83333 249.833,4.66667 250,3.5C 251.376,2.29493 252.542,0.961599 253.5,-0.5 Z"/></g>
<g><path style="opacity:0.997" fill="#d7ebfd" d="M 232.5,152.5 C 232.5,178.5 232.5,204.5 232.5,230.5C 230.833,231.5 229.5,232.833 228.5,234.5C 217.916,242.243 207.75,250.576 198,259.5C 197.333,260.833 196.667,262.167 196,263.5C 194.87,273.597 194.37,283.764 194.5,294C 194.5,303.34 194.834,312.506 195.5,321.5C 196.504,328.004 200.171,332.171 206.5,334C 220.829,334.5 235.163,334.667 249.5,334.5C 258.582,334.914 267.582,334.414 276.5,333C 280.919,330.758 283.586,327.258 284.5,322.5C 285.491,316.021 285.824,309.354 285.5,302.5C 285.667,290.162 285.5,277.829 285,265.5C 283.383,261.103 280.883,257.269 277.5,254C 267.246,246.054 257.246,237.887 247.5,229.5C 247.5,203.833 247.5,178.167 247.5,152.5C 266.167,152.5 284.833,152.5 303.5,152.5C 308.973,153.838 312.806,157.171 315,162.5C 315.667,262.167 315.667,361.833 315,461.5C 311.648,474.85 303.148,482.683 289.5,485C 288.667,485.833 287.833,486.667 287,487.5C 286.667,493.833 286.333,500.167 286,506.5C 284.975,508.687 283.475,510.354 281.5,511.5C 217.167,511.5 152.833,511.5 88.5,511.5C 87.4955,510.317 86.6622,508.984 86,507.5C 85.9221,500.726 85.2554,494.059 84,487.5C 77.4733,485.098 71.3066,481.931 65.5,478C 60.6635,473.498 57.4968,467.998 56,461.5C 55.0069,361.11 55.3402,260.777 57,160.5C 58.9904,156.51 62.1571,154.01 66.5,153C 121.832,152.5 177.166,152.333 232.5,152.5 Z"/></g>
<g><path style="opacity:0.997" fill="#fed15b" d="M 232.5,152.5 C 237.5,152.5 242.5,152.5 247.5,152.5C 247.5,178.167 247.5,203.833 247.5,229.5C 242.18,225.232 237.18,225.565 232.5,230.5C 232.5,204.5 232.5,178.5 232.5,152.5 Z"/></g>
<g><path style="opacity:1" fill="#b3dafe" d="M 303.5,152.5 C 333.815,145.486 346.149,157.152 340.5,187.5C 340.5,200.833 340.5,214.167 340.5,227.5C 340.5,270.5 340.5,313.5 340.5,356.5C 340.5,369.833 340.5,383.167 340.5,396.5C 340.667,418.503 340.5,440.503 340,462.5C 338.135,469.067 334.635,474.567 329.5,479C 323.822,482.222 317.989,485.055 312,487.5C 311.667,493.167 311.333,498.833 311,504.5C 310.867,507.404 309.7,509.738 307.5,511.5C 298.833,511.5 290.167,511.5 281.5,511.5C 283.475,510.354 284.975,508.687 286,506.5C 286.333,500.167 286.667,493.833 287,487.5C 287.833,486.667 288.667,485.833 289.5,485C 303.148,482.683 311.648,474.85 315,461.5C 315.667,361.833 315.667,262.167 315,162.5C 312.806,157.171 308.973,153.838 303.5,152.5 Z"/></g>
<g><path style="opacity:0.984" fill="#d7ebfe" d="M 340.5,187.5 C 361.833,187.5 383.167,187.5 404.5,187.5C 420.756,191.256 430.923,201.256 435,217.5C 435.667,266.5 435.667,315.5 435,364.5C 431.442,383.227 420.275,393.893 401.5,396.5C 381.167,396.5 360.833,396.5 340.5,396.5C 340.5,383.167 340.5,369.833 340.5,356.5C 362.503,356.667 384.503,356.5 406.5,356C 411.573,354.594 415.073,351.428 417,346.5C 417.667,310.167 417.667,273.833 417,237.5C 415.073,232.572 411.573,229.406 406.5,228C 384.503,227.5 362.503,227.333 340.5,227.5C 340.5,214.167 340.5,200.833 340.5,187.5 Z"/></g>
<g><path style="opacity:1" fill="#b4dafd" d="M 404.5,187.5 C 411.508,187.334 418.508,187.5 425.5,188C 439.93,190.43 449.43,198.597 454,212.5C 455.649,264.121 455.982,315.788 455,367.5C 451.381,383.452 441.548,392.952 425.5,396C 417.507,396.5 409.507,396.666 401.5,396.5C 420.275,393.893 431.442,383.227 435,364.5C 435.667,315.5 435.667,266.5 435,217.5C 430.923,201.256 420.756,191.256 404.5,187.5 Z"/></g>
<g><path style="opacity:1" fill="#96d6a4" d="M 247.5,229.5 C 257.246,237.887 267.246,246.054 277.5,254C 280.883,257.269 283.383,261.103 285,265.5C 285.5,277.829 285.667,290.162 285.5,302.5C 277.167,302.5 268.833,302.5 260.5,302.5C 260.667,289.496 260.5,276.496 260,263.5C 257.925,259.421 255.092,255.921 251.5,253C 243.398,247.294 235.731,241.128 228.5,234.5C 229.5,232.833 230.833,231.5 232.5,230.5C 237.18,225.565 242.18,225.232 247.5,229.5 Z"/></g>
<g><path style="opacity:1" fill="#b3e49f" d="M 228.5,234.5 C 235.731,241.128 243.398,247.294 251.5,253C 255.092,255.921 257.925,259.421 260,263.5C 260.5,276.496 260.667,289.496 260.5,302.5C 238.833,302.5 217.167,302.5 195.5,302.5C 195.5,308.833 195.5,315.167 195.5,321.5C 194.834,312.506 194.5,303.34 194.5,294C 194.37,283.764 194.87,273.597 196,263.5C 196.667,262.167 197.333,260.833 198,259.5C 207.75,250.576 217.916,242.243 228.5,234.5 Z"/></g>
<g><path style="opacity:1" fill="#fed05b" d="M 260.5,302.5 C 268.833,302.5 277.167,302.5 285.5,302.5C 285.824,309.354 285.491,316.021 284.5,322.5C 284.5,316.167 284.5,309.833 284.5,303.5C 276.833,303.5 269.167,303.5 261.5,303.5C 262.032,311.337 261.199,319.003 259,326.5C 256.675,330.235 253.509,332.901 249.5,334.5C 235.163,334.667 220.829,334.5 206.5,334C 200.171,332.171 196.504,328.004 195.5,321.5C 195.5,315.167 195.5,308.833 195.5,302.5C 217.167,302.5 238.833,302.5 260.5,302.5 Z"/></g>
<g><path style="opacity:1" fill="#fec344" d="M 284.5,322.5 C 283.586,327.258 280.919,330.758 276.5,333C 267.582,334.414 258.582,334.914 249.5,334.5C 253.509,332.901 256.675,330.235 259,326.5C 261.199,319.003 262.032,311.337 261.5,303.5C 269.167,303.5 276.833,303.5 284.5,303.5C 284.5,309.833 284.5,316.167 284.5,322.5 Z"/></g>
</svg>
