<svg xmlns="http://www.w3.org/2000/svg" width="163.839" height="163.839" fill-rule="evenodd" clip-rule="evenodd" image-rendering="optimizeQuality" shape-rendering="geometricPrecision" text-rendering="geometricPrecision" viewBox="0 0 4335 4335" id="coffee"><path fill="#fcce99" d="M3229 2180c-29 0-52-23-52-51 0-28 23-51 52-51l281 0 0 0c118 0 237 49 325 128 85 76 142 181 142 296l0 278c0 194-123 369-296 501-193 148-451 242-664 245-29 0-52-23-52-51 0-28 22-52 51-52 192-2 426-89 603-223 149-114 255-262 255-420l0-278c0-84-43-162-107-220-70-62-165-102-257-102l0 0-281 0zM2769 3969l0 196c0 93-77 170-171 170l-1486 0c-94 0-170-77-170-170l0-195 518-289 1309 288z"></path><path fill="#fee6cc" d="M3352 1891l-273 1726c-30,194 -164,357 -364,357l-1719 0c-200,0 -334,-163 -365,-357l-273 -1723 2344 -49 650 46z"></path><ellipse cx="1855" cy="1888" fill="#fcce99" rx="1497" ry="174"></ellipse><ellipse cx="1855" cy="1888" fill="#a35623" rx="1412" ry="119"></ellipse><ellipse fill="#a35623" rx="693" ry="556" transform="rotate(-30 6553.78 -1935.647) scale(.8202)"></ellipse><path fill="#84451d" d="M2310 2691c10,13 20,27 28,42 10,17 18,34 25,52 -57,69 -255,284 -517,284 -260,-1 -451,262 -451,263 -4,5 -8,9 -13,12 -10,-13 -20,-27 -29,-42 -9,-17 -17,-34 -24,-52 57,-69 255,-284 517,-284 260,1 450,-262 451,-263 3,-5 8,-9 13,-12z"></path><path fill="#b47633" d="M1221 28c13-26 44-35 69-22 25 13 35 44 22 69-1 1-287 542-25 659 383 170-105 637-106 639-21 19-53 19-73-1-20-21-19-53 1-73 1-1 379-364 137-472-363-161-26-798-25-799zM1822 28c13-26 44-35 69-22 25 13 35 44 22 69-1 1-287 542-25 659 383 170-105 637-106 639-20 19-53 19-73-1-19-21-19-53 1-73 2-1 379-364 137-472-363-161-26-798-25-799zM2424 28c13-26 44-35 69-22 25 13 34 44 21 69 0 1-286 542-24 659 382 170-105 637-107 639-20 19-52 19-72-1-20-21-20-53 1-73 1-1 379-364 136-472-363-161-25-798-24-799z"></path><path fill="#feedda" d="M611 2293c-5,-28 14,-54 42,-59 28,-4 55,15 59,43l214 1295c5,28 -14,55 -42,59 -28,5 -54,-14 -59,-42l-214 -1296z"></path><path fill="#a35623" d="M3462 2560c-28,0 -51,-23 -51,-52 0,-28 23,-51 51,-51l89 0c52,0 100,21 135,56 34,34 56,82 56,134l0 104c0,84 -46,159 -111,215 -69,58 -162,94 -248,96 -28,0 -51,-23 -51,-51 -1,-28 22,-52 50,-52 63,-1 131,-28 183,-72 44,-37 74,-85 74,-136l0 -104c0,-24 -10,-46 -26,-62 -16,-15 -38,-25 -62,-25l-89 0z"></path></svg>