<?xml version="1.0" encoding="UTF-8"?>
<!DOCTYPE svg PUBLIC "-//W3C//DTD SVG 1.1//EN" "http://www.w3.org/Graphics/SVG/1.1/DTD/svg11.dtd">
<svg xmlns="http://www.w3.org/2000/svg" version="1.1" width="512px" height="512px" style="shape-rendering:geometricPrecision; text-rendering:geometricPrecision; image-rendering:optimizeQuality; fill-rule:evenodd; clip-rule:evenodd" xmlns:xlink="http://www.w3.org/1999/xlink">
<g><path style="opacity:0.955" fill="#737373" d="M 343.5,-0.5 C 345.833,-0.5 348.167,-0.5 350.5,-0.5C 351.504,0.682751 352.338,2.01608 353,3.5C 353.5,13.828 353.666,24.1613 353.5,34.5C 324.167,35.8333 294.833,35.8333 265.5,34.5C 291.74,23.2049 317.74,11.5382 343.5,-0.5 Z"/></g>
<g><path style="opacity:0.986" fill="#e2e2e2" d="M 265.5,34.5 C 294.833,35.8333 324.167,35.8333 353.5,34.5C 353.833,34.5 354.167,34.5 354.5,34.5C 354.5,45.1667 354.5,55.8333 354.5,66.5C 279.5,66.5 204.5,66.5 129.5,66.5C 127.404,54.0352 131.404,44.2018 141.5,37C 143.5,36.3333 145.5,35.6667 147.5,35C 186.832,34.5 226.165,34.3333 265.5,34.5 Z"/></g>
<g><path style="opacity:0.975" fill="#cdcdcd" d="M 354.5,34.5 C 377.482,32.8156 388.149,43.4822 386.5,66.5C 375.833,66.5 365.167,66.5 354.5,66.5C 354.5,55.8333 354.5,45.1667 354.5,34.5 Z"/></g>
<g><path style="opacity:1" fill="#77b3c3" d="M 129.5,66.5 C 204.5,66.5 279.5,66.5 354.5,66.5C 365.167,66.5 375.833,66.5 386.5,66.5C 386.5,85.5 386.5,104.5 386.5,123.5C 386.167,123.5 385.833,123.5 385.5,123.5C 385.5,104.833 385.5,86.1667 385.5,67.5C 375.167,67.5 364.833,67.5 354.5,67.5C 279.833,67.5 205.167,67.5 130.5,67.5C 130.5,86.1667 130.5,104.833 130.5,123.5C 130.167,123.5 129.833,123.5 129.5,123.5C 129.5,104.5 129.5,85.5 129.5,66.5 Z"/></g>
<g><path style="opacity:1" fill="#3a9cb3" d="M 354.5,67.5 C 354.5,86.1667 354.5,104.833 354.5,123.5C 279.833,123.5 205.167,123.5 130.5,123.5C 130.5,104.833 130.5,86.1667 130.5,67.5C 205.167,67.5 279.833,67.5 354.5,67.5 Z"/></g>
<g><path style="opacity:1" fill="#348da2" d="M 354.5,67.5 C 364.833,67.5 375.167,67.5 385.5,67.5C 385.5,86.1667 385.5,104.833 385.5,123.5C 375.167,123.5 364.833,123.5 354.5,123.5C 354.5,104.833 354.5,86.1667 354.5,67.5 Z"/></g>
<g><path style="opacity:0.943" fill="#f23366" d="M 74.5,204.5 C 76.9267,204.523 79.26,205.023 81.5,206C 88.2821,210.448 94.7821,215.281 101,220.5C 104.07,230.101 100.57,234.267 90.5,233C 82.7748,228.608 75.6081,223.441 69,217.5C 67.0991,211.343 68.9324,207.01 74.5,204.5 Z"/></g>
<g><path style="opacity:0.943" fill="#f23366" d="M 432.5,204.5 C 440.992,204.79 444.158,209.124 442,217.5C 435.392,223.441 428.225,228.608 420.5,233C 410.43,234.267 406.93,230.101 410,220.5C 416.986,214.274 424.486,208.941 432.5,204.5 Z"/></g>
<g><path style="opacity:0.933" fill="#f13465" d="M 37.5,252.5 C 58.1694,252.333 78.836,252.5 99.5,253C 104.305,256.089 105.472,260.256 103,265.5C 101.681,267.487 99.8477,268.654 97.5,269C 78.1667,269.667 58.8333,269.667 39.5,269C 35.1809,267.877 33.1809,265.044 33.5,260.5C 33.6667,259.167 33.8333,257.833 34,256.5C 35.3756,255.295 36.5423,253.962 37.5,252.5 Z"/></g>
<g><path style="opacity:0.933" fill="#f13465" d="M 411.5,252.5 C 432.169,252.333 452.836,252.5 473.5,253C 478.453,257.643 478.787,262.643 474.5,268C 473.5,268.333 472.5,268.667 471.5,269C 452.167,269.667 432.833,269.667 413.5,269C 406.852,266.53 405.019,262.03 408,255.5C 409.145,254.364 410.312,253.364 411.5,252.5 Z"/></g>
<g><path style="opacity:0.937" fill="#f23365" d="M 91.5,287.5 C 100.86,288.02 104.027,292.687 101,301.5C 94.922,306.122 88.7553,310.622 82.5,315C 70.6667,318.5 66.5,314.333 70,302.5C 77.0698,297.247 84.2365,292.247 91.5,287.5 Z"/></g>
<g><path style="opacity:0.937" fill="#f23365" d="M 414.5,287.5 C 417.794,287.259 420.794,288.092 423.5,290C 428.558,294.057 433.892,297.724 439.5,301C 443.779,306.402 443.446,311.402 438.5,316C 435.833,316.667 433.167,316.667 430.5,316C 423.579,311.29 416.746,306.456 410,301.5C 407.214,295.414 408.714,290.747 414.5,287.5 Z"/></g>
<g><path style="opacity:1" fill="#83c2d5" d="M 129.5,123.5 C 129.833,123.5 130.167,123.5 130.5,123.5C 130.5,223.167 130.5,322.833 130.5,422.5C 205.167,422.5 279.833,422.5 354.5,422.5C 364.833,422.5 375.167,422.5 385.5,422.5C 385.5,322.833 385.5,223.167 385.5,123.5C 385.833,123.5 386.167,123.5 386.5,123.5C 386.5,242.167 386.5,360.833 386.5,479.5C 386.167,479.5 385.833,479.5 385.5,479.5C 385.5,460.833 385.5,442.167 385.5,423.5C 375.167,423.5 364.833,423.5 354.5,423.5C 279.833,423.5 205.167,423.5 130.5,423.5C 130.5,442.167 130.5,460.833 130.5,479.5C 130.167,479.5 129.833,479.5 129.5,479.5C 129.5,360.833 129.5,242.167 129.5,123.5 Z"/></g>
<g><path style="opacity:1" fill="#65cdee" d="M 130.5,123.5 C 205.167,123.5 279.833,123.5 354.5,123.5C 354.5,223.167 354.5,322.833 354.5,422.5C 279.833,422.5 205.167,422.5 130.5,422.5C 130.5,322.833 130.5,223.167 130.5,123.5 Z"/></g>
<g><path style="opacity:1" fill="#3a9cb4" d="M 228.5,377.5 C 248.503,377.333 268.503,377.5 288.5,378C 293.224,380.435 294.724,384.269 293,389.5C 291.833,390.667 290.667,391.833 289.5,393C 268.5,393.667 247.5,393.667 226.5,393C 222.723,390.045 221.557,386.212 223,381.5C 224.5,379.531 226.333,378.198 228.5,377.5 Z"/></g>
<g><path style="opacity:1" fill="#fefefe" d="M 245.5,179.5 C 291.006,176.817 322.839,196.15 341,237.5C 352.294,276.169 343.127,309.003 313.5,336C 276.47,361.939 239.47,361.939 202.5,336C 171.328,307.144 162.828,272.644 177,232.5C 191.049,203.401 213.882,185.735 245.5,179.5 Z"/></g>
<g><path style="opacity:1" fill="#ffd46c" d="M 257.5,256.5 C 275.845,256.167 294.179,256.5 312.5,257.5C 312.376,258.107 312.043,258.44 311.5,258.5C 293.5,257.833 275.5,257.167 257.5,256.5 Z"/></g>
<g><path style="opacity:1" fill="#ffc435" d="M 257.5,256.5 C 275.5,257.167 293.5,257.833 311.5,258.5C 290.213,284.786 268.213,310.453 245.5,335.5C 242.856,334.259 242.023,332.259 243,329.5C 247.975,316.237 253.142,303.071 258.5,290C 240.158,289.833 221.824,289.333 203.5,288.5C 225.378,259.244 247.378,230.077 269.5,201C 272.237,199.92 273.904,200.754 274.5,203.5C 268.675,221.138 263.009,238.805 257.5,256.5 Z"/></g>
<g><path style="opacity:1" fill="#5bb8d7" d="M 354.5,123.5 C 364.833,123.5 375.167,123.5 385.5,123.5C 385.5,223.167 385.5,322.833 385.5,422.5C 375.167,422.5 364.833,422.5 354.5,422.5C 354.5,322.833 354.5,223.167 354.5,123.5 Z"/></g>
<g><path style="opacity:1" fill="#399bb3" d="M 354.5,423.5 C 354.667,436.837 354.5,450.171 354,463.5C 351.214,471.789 345.714,477.122 337.5,479.5C 268.5,479.5 199.5,479.5 130.5,479.5C 130.5,460.833 130.5,442.167 130.5,423.5C 205.167,423.5 279.833,423.5 354.5,423.5 Z"/></g>
<g><path style="opacity:1" fill="#348da2" d="M 354.5,423.5 C 364.833,423.5 375.167,423.5 385.5,423.5C 385.5,442.167 385.5,460.833 385.5,479.5C 369.5,479.5 353.5,479.5 337.5,479.5C 345.714,477.122 351.214,471.789 354,463.5C 354.5,450.171 354.667,436.837 354.5,423.5 Z"/></g>
<g><path style="opacity:1" fill="#cbcccc" d="M 129.5,479.5 C 129.833,479.5 130.167,479.5 130.5,479.5C 199.5,479.5 268.5,479.5 337.5,479.5C 353.5,479.5 369.5,479.5 385.5,479.5C 385.833,479.5 386.167,479.5 386.5,479.5C 388.191,490.603 385.191,500.103 377.5,508C 375.075,509.213 372.741,510.379 370.5,511.5C 295.5,511.5 220.5,511.5 145.5,511.5C 132.311,505.124 126.978,494.457 129.5,479.5 Z"/></g>
</svg>
