<?xml version="1.0" encoding="UTF-8"?>
<!DOCTYPE svg PUBLIC "-//W3C//DTD SVG 1.1//EN" "http://www.w3.org/Graphics/SVG/1.1/DTD/svg11.dtd">
<svg xmlns="http://www.w3.org/2000/svg" version="1.1" width="512px" height="512px" style="shape-rendering:geometricPrecision; text-rendering:geometricPrecision; image-rendering:optimizeQuality; fill-rule:evenodd; clip-rule:evenodd" xmlns:xlink="http://www.w3.org/1999/xlink">
<g><path style="opacity:0.985" fill="#edf4f5" d="M 301.5,6.5 C 311.236,9.63963 315.736,16.3063 315,26.5C 313.988,30.8826 312.821,35.2159 311.5,39.5C 319.558,40.7993 327.558,40.7993 335.5,39.5C 340.5,39.5 345.5,39.5 350.5,39.5C 364.129,44.1084 367.963,53.1084 362,66.5C 358.288,70.6043 353.788,72.9376 348.5,73.5C 278.5,73.5 208.5,73.5 138.5,73.5C 130.576,73.0769 125.409,69.0769 123,61.5C 121.21,52.2527 124.376,45.4194 132.5,41C 185.445,39.846 238.445,39.0127 291.5,38.5C 288.851,31.7187 288.018,24.7187 289,17.5C 291.478,11.8521 295.645,8.18543 301.5,6.5 Z"/></g>
<g><path style="opacity:1" fill="#deecf1" d="M 301.5,6.5 C 309.84,6.3336 318.173,6.50027 326.5,7C 336.758,11.0573 340.591,18.5573 338,29.5C 337.162,32.8516 336.329,36.1849 335.5,39.5C 327.558,40.7993 319.558,40.7993 311.5,39.5C 312.821,35.2159 313.988,30.8826 315,26.5C 315.736,16.3063 311.236,9.63963 301.5,6.5 Z"/></g>
<g><path style="opacity:1" fill="#deecf1" d="M 350.5,39.5 C 358.84,39.3336 367.173,39.5003 375.5,40C 386.963,44.4311 390.796,52.5978 387,64.5C 383.985,70.4243 379.152,73.4243 372.5,73.5C 364.5,73.5 356.5,73.5 348.5,73.5C 353.788,72.9376 358.288,70.6043 362,66.5C 367.963,53.1084 364.129,44.1084 350.5,39.5 Z"/></g>
<g><path style="opacity:0.998" fill="#deecf1" d="M 138.5,73.5 C 208.5,73.5 278.5,73.5 348.5,73.5C 357.833,87.5 367.167,101.5 376.5,115.5C 287.998,115.833 199.665,115.499 111.5,114.5C 120.251,100.662 129.251,86.9954 138.5,73.5 Z"/></g>
<g><path style="opacity:1" fill="#c5e1eb" d="M 348.5,73.5 C 356.5,73.5 364.5,73.5 372.5,73.5C 381.749,86.9954 390.749,100.662 399.5,114.5C 392.018,115.492 384.352,115.825 376.5,115.5C 367.167,101.5 357.833,87.5 348.5,73.5 Z"/></g>
<g><path style="opacity:0.999" fill="#edf4f6" d="M 111.5,114.5 C 199.665,115.499 287.998,115.833 376.5,115.5C 384.352,115.825 392.018,115.492 399.5,114.5C 402.749,119.252 404.416,124.585 404.5,130.5C 396.833,130.5 389.167,130.5 381.5,130.5C 289.833,130.5 198.167,130.5 106.5,130.5C 106.584,124.585 108.251,119.252 111.5,114.5 Z"/></g>
<g><path style="opacity:1" fill="#dcebf0" d="M 106.5,130.5 C 198.167,130.5 289.833,130.5 381.5,130.5C 381.5,138.833 381.5,147.167 381.5,155.5C 381.5,155.833 381.5,156.167 381.5,156.5C 289.5,156.5 197.5,156.5 105.5,156.5C 105.174,147.651 105.507,138.984 106.5,130.5 Z"/></g>
<g><path style="opacity:1" fill="#c5e1eb" d="M 381.5,130.5 C 389.167,130.5 396.833,130.5 404.5,130.5C 405.493,138.984 405.826,147.651 405.5,156.5C 397.586,155.533 389.586,155.199 381.5,155.5C 381.5,147.167 381.5,138.833 381.5,130.5 Z"/></g>
<g><path style="opacity:0.959" fill="#ffe176" d="M 35.5,131.5 C 37.5273,131.338 39.5273,131.505 41.5,132C 51.6696,138.252 62.0029,144.252 72.5,150C 76.5681,157.49 74.5681,162.323 66.5,164.5C 53.957,158.647 42.1237,151.647 31,143.5C 29.3087,138.131 30.8087,134.131 35.5,131.5 Z"/></g>
<g><path style="opacity:0.963" fill="#ffe176" d="M 469.5,131.5 C 478.207,131.037 481.707,135.037 480,143.5C 468.876,151.647 457.043,158.647 444.5,164.5C 436.718,162.599 434.552,157.932 438,150.5C 448.813,144.518 459.313,138.185 469.5,131.5 Z"/></g>
<g><path style="opacity:1" fill="#86e8d0" d="M 105.5,156.5 C 197.5,156.5 289.5,156.5 381.5,156.5C 381.5,239.167 381.5,321.833 381.5,404.5C 289.5,404.5 197.5,404.5 105.5,404.5C 105.5,321.833 105.5,239.167 105.5,156.5 Z"/></g>
<g><path style="opacity:1" fill="#73c7bc" d="M 381.5,155.5 C 389.586,155.199 397.586,155.533 405.5,156.5C 405.5,239.167 405.5,321.833 405.5,404.5C 397.5,404.5 389.5,404.5 381.5,404.5C 381.5,321.833 381.5,239.167 381.5,156.5C 381.5,156.167 381.5,155.833 381.5,155.5 Z"/></g>
<g><path style="opacity:1" fill="#ddecf0" d="M 241.5,190.5 C 287.053,186.027 319.886,204.36 340,245.5C 354.223,287.112 345.056,322.612 312.5,352C 292.187,367.243 269.521,373.409 244.5,370.5C 287.64,362.194 313.806,336.528 323,293.5C 326.632,254.268 312.132,223.768 279.5,202C 267.762,195.066 255.095,191.233 241.5,190.5 Z"/></g>
<g><path style="opacity:1" fill="#edf4f5" d="M 241.5,190.5 C 255.095,191.233 267.762,195.066 279.5,202C 312.132,223.768 326.632,254.268 323,293.5C 313.806,336.528 287.64,362.194 244.5,370.5C 206.196,364.582 180.696,343.249 168,306.5C 157.97,262.414 171.47,227.581 208.5,202C 218.734,195.879 229.734,192.046 241.5,190.5 Z"/></g>
<g><path style="opacity:1" fill="#fee178" d="M 272.5,214.5 C 265.492,214.334 258.492,214.5 251.5,215C 254.148,216.633 255.481,218.967 255.5,222C 252.407,233.278 248.907,244.445 245,255.5C 244.333,257.833 244.333,260.167 245,262.5C 251.419,263.313 257.919,263.813 264.5,264C 268.031,265.529 270.031,268.196 270.5,272C 266.727,281.714 262.06,290.881 256.5,299.5C 255.691,298.531 254.691,297.698 253.5,297C 243.167,296.667 232.833,296.333 222.5,296C 217.931,293.459 216.431,289.625 218,284.5C 221.998,264.524 225.998,244.524 230,224.5C 230.441,219.427 232.941,215.927 237.5,214C 249.341,213.174 261.007,213.341 272.5,214.5 Z"/></g>
<g><path style="opacity:1" fill="#fec346" d="M 272.5,214.5 C 276.895,215.266 278.895,217.933 278.5,222.5C 275.511,233.97 272.011,245.303 268,256.5C 267.104,259.025 267.604,261.192 269.5,263C 275.5,263.333 281.5,263.667 287.5,264C 291.031,265.529 293.031,268.196 293.5,272C 281.628,297.077 268.962,321.743 255.5,346C 251.558,347.418 249.225,346.084 248.5,342C 251.233,327.837 253.899,313.671 256.5,299.5C 262.06,290.881 266.727,281.714 270.5,272C 270.031,268.196 268.031,265.529 264.5,264C 257.919,263.813 251.419,263.313 245,262.5C 244.333,260.167 244.333,257.833 245,255.5C 248.907,244.445 252.407,233.278 255.5,222C 255.481,218.967 254.148,216.633 251.5,215C 258.492,214.5 265.492,214.334 272.5,214.5 Z"/></g>
<g><path style="opacity:0.956" fill="#ffe176" d="M -0.5,259.5 C -0.5,256.833 -0.5,254.167 -0.5,251.5C 0.639972,250.199 1.97331,249.032 3.5,248C 16.8333,247.333 30.1667,247.333 43.5,248C 50.1667,253 50.1667,258 43.5,263C 30.5,263.667 17.5,263.667 4.5,263C 2.67694,262.003 1.01027,260.836 -0.5,259.5 Z"/></g>
<g><path style="opacity:0.956" fill="#ffe176" d="M 511.5,251.5 C 511.5,254.167 511.5,256.833 511.5,259.5C 509.99,260.836 508.323,262.003 506.5,263C 493.5,263.667 480.5,263.667 467.5,263C 460.833,258 460.833,253 467.5,248C 480.833,247.333 494.167,247.333 507.5,248C 508.705,249.376 510.038,250.542 511.5,251.5 Z"/></g>
<g><path style="opacity:0.956" fill="#ffe176" d="M 65.5,346.5 C 74.3542,348.043 76.6876,352.877 72.5,361C 61.4453,368.068 49.9453,374.235 38,379.5C 31.0994,378.25 28.7661,374.25 31,367.5C 42.0133,359.582 53.5133,352.582 65.5,346.5 Z"/></g>
<g><path style="opacity:0.963" fill="#ffe176" d="M 442.5,346.5 C 446.062,346.965 449.395,348.132 452.5,350C 460.5,354.667 468.5,359.333 476.5,364C 480.277,366.955 481.443,370.788 480,375.5C 476.522,379.662 472.356,380.496 467.5,378C 457.998,372.081 448.331,366.414 438.5,361C 434.943,354.61 436.276,349.776 442.5,346.5 Z"/></g>
<g><path style="opacity:0.999" fill="#ddecf0" d="M 105.5,404.5 C 197.5,404.5 289.5,404.5 381.5,404.5C 381.912,416.229 381.412,427.896 380,439.5C 376.273,447.955 372.273,456.288 368,464.5C 366.062,467.106 363.562,468.939 360.5,470C 367.346,470.172 374.013,470.672 380.5,471.5C 377.428,471.183 374.428,471.516 371.5,472.5C 367.823,483.054 361.823,491.887 353.5,499C 349.469,501.455 345.136,503.121 340.5,504C 332.507,504.5 324.507,504.666 316.5,504.5C 323.883,502.554 330.383,498.888 336,493.5C 340.42,486.329 344.586,478.996 348.5,471.5C 278.668,470.168 209.001,470.168 139.5,471.5C 130.387,472.859 123.221,469.859 118,462.5C 113.786,454.739 110.119,446.739 107,438.5C 105.674,427.21 105.174,415.877 105.5,404.5 Z"/></g>
<g><path style="opacity:1" fill="#c5e1eb" d="M 381.5,404.5 C 389.5,404.5 397.5,404.5 405.5,404.5C 405.666,413.506 405.5,422.506 405,431.5C 402.561,443.717 397.894,455.05 391,465.5C 388.01,468.411 384.51,470.411 380.5,471.5C 374.013,470.672 367.346,470.172 360.5,470C 363.562,468.939 366.062,467.106 368,464.5C 372.273,456.288 376.273,447.955 380,439.5C 381.412,427.896 381.912,416.229 381.5,404.5 Z"/></g>
<g><path style="opacity:0.987" fill="#edf4f5" d="M 316.5,504.5 C 267.832,504.667 219.166,504.5 170.5,504C 160.15,501.969 152.317,496.469 147,487.5C 144.215,482.265 141.715,476.932 139.5,471.5C 209.001,470.168 278.668,470.168 348.5,471.5C 344.586,478.996 340.42,486.329 336,493.5C 330.383,498.888 323.883,502.554 316.5,504.5 Z"/></g>
</svg>
