<?xml version="1.0" encoding="UTF-8"?>
<!DOCTYPE svg PUBLIC "-//W3C//DTD SVG 1.1//EN" "http://www.w3.org/Graphics/SVG/1.1/DTD/svg11.dtd">
<svg xmlns="http://www.w3.org/2000/svg" version="1.1" width="512px" height="512px" style="shape-rendering:geometricPrecision; text-rendering:geometricPrecision; image-rendering:optimizeQuality; fill-rule:evenodd; clip-rule:evenodd" xmlns:xlink="http://www.w3.org/1999/xlink">
<g><path style="opacity:0.983" fill="#c7c6cb" d="M 141.5,-0.5 C 166.5,-0.5 191.5,-0.5 216.5,-0.5C 216.5,34.5 216.5,69.5 216.5,104.5C 211.637,104.819 206.97,104.486 202.5,103.5C 202.5,87.1667 202.5,70.8333 202.5,54.5C 182.831,54.6666 163.164,54.5 143.5,54C 139.594,53.0271 137.427,50.5271 137,46.5C 136.07,32.1113 136.403,17.778 138,3.5C 139.376,2.29493 140.542,0.961599 141.5,-0.5 Z"/></g>
<g><path style="opacity:1" fill="#8b8a90" d="M 216.5,-0.5 C 229.167,-0.5 241.833,-0.5 254.5,-0.5C 256.475,0.646381 257.975,2.31305 259,4.5C 259.5,37.4983 259.667,70.4983 259.5,103.5C 245.343,104.496 231.01,104.829 216.5,104.5C 216.5,69.5 216.5,34.5 216.5,-0.5 Z"/></g>
<g><path style="opacity:0.988" fill="#ffcf39" d="M 202.5,103.5 C 206.97,104.486 211.637,104.819 216.5,104.5C 231.01,104.829 245.343,104.496 259.5,103.5C 299.5,103.5 339.5,103.5 379.5,103.5C 379.5,123.5 379.5,143.5 379.5,163.5C 289.332,163.167 199.332,163.501 109.5,164.5C 104.489,164.666 99.4889,164.499 94.5,164C 92.3333,163.167 90.8333,161.667 90,159.5C 89.3333,142.5 89.3333,125.5 90,108.5C 91.1667,107.333 92.3333,106.167 93.5,105C 129.772,103.519 166.105,103.019 202.5,103.5 Z"/></g>
<g><path style="opacity:1" fill="#feac45" d="M 379.5,103.5 C 391.171,103.333 402.838,103.5 414.5,104C 417.196,104.69 419.363,106.19 421,108.5C 421.667,125.5 421.667,142.5 421,159.5C 420.167,161.667 418.667,163.167 416.5,164C 411.511,164.499 406.511,164.666 401.5,164.5C 387.167,164.5 372.833,164.5 358.5,164.5C 275.5,164.5 192.5,164.5 109.5,164.5C 199.332,163.501 289.332,163.167 379.5,163.5C 379.5,143.5 379.5,123.5 379.5,103.5 Z"/></g>
<g><path style="opacity:0.997" fill="#e83233" d="M 109.5,164.5 C 192.5,164.5 275.5,164.5 358.5,164.5C 344.417,280.164 330.417,395.831 316.5,511.5C 262.833,511.5 209.167,511.5 155.5,511.5C 153.404,509.567 151.904,507.233 151,504.5C 137.129,391.163 123.296,277.829 109.5,164.5 Z"/></g>
<g><path style="opacity:1" fill="#b32425" d="M 358.5,164.5 C 372.833,164.5 387.167,164.5 401.5,164.5C 387.704,277.829 373.871,391.163 360,504.5C 359.096,507.233 357.596,509.567 355.5,511.5C 342.5,511.5 329.5,511.5 316.5,511.5C 330.417,395.831 344.417,280.164 358.5,164.5 Z"/></g>
<g><path style="opacity:1" fill="#fecf38" d="M 251.5,235.5 C 256.126,234.7 259.96,236.034 263,239.5C 269.516,252.531 276.016,265.531 282.5,278.5C 296.81,280.711 311.143,282.878 325.5,285C 327.848,285.346 329.681,286.513 331,288.5C 331.667,291.5 331.667,294.5 331,297.5C 320.1,308.4 309.267,319.233 298.5,330C 302.139,345.664 304.306,361.497 305,377.5C 302.293,381.035 298.793,382.202 294.5,381C 281.5,374.167 268.5,367.333 255.5,360.5C 242.5,367.333 229.5,374.167 216.5,381C 206.288,381.421 202.788,376.588 206,366.5C 207.703,354.243 209.87,342.076 212.5,330C 201.733,319.233 190.9,308.4 180,297.5C 179.333,294.5 179.333,291.5 180,288.5C 181.214,286.951 182.714,285.785 184.5,285C 199.599,283.01 214.599,280.51 229.5,277.5C 235.394,264.711 241.561,252.044 248,239.5C 249.376,238.295 250.542,236.962 251.5,235.5 Z"/></g>
</svg>
