<?xml version="1.0" encoding="UTF-8"?>
<!DOCTYPE svg PUBLIC "-//W3C//DTD SVG 1.1//EN" "http://www.w3.org/Graphics/SVG/1.1/DTD/svg11.dtd">
<svg xmlns="http://www.w3.org/2000/svg" version="1.1" width="512px" height="512px" style="shape-rendering:geometricPrecision; text-rendering:geometricPrecision; image-rendering:optimizeQuality; fill-rule:evenodd; clip-rule:evenodd" xmlns:xlink="http://www.w3.org/1999/xlink">
<g><path style="opacity:0.949" fill="#d8ecfe" d="M 246.5,23.5 C 250.514,23.56 253.681,25.2267 256,28.5C 264.752,43.1807 266.586,58.6807 261.5,75C 256.658,84.1866 252.491,93.6866 249,103.5C 248.333,108.5 248.333,113.5 249,118.5C 250.808,124.801 253.308,130.801 256.5,136.5C 254.592,144.285 249.926,146.452 242.5,143C 231.511,127.73 228.844,111.064 234.5,93C 239.342,83.8134 243.509,74.3134 247,64.5C 247.667,59.8333 247.667,55.1667 247,50.5C 245.172,44.0176 242.672,37.8509 239.5,32C 240.256,27.7541 242.589,24.9207 246.5,23.5 Z"/></g>
<g><path style="opacity:0.954" fill="#d8ecfe" d="M 309.5,23.5 C 314.147,23.5714 317.647,25.5714 320,29.5C 327.439,42.6952 329.439,56.6952 326,71.5C 323.412,80.0083 319.745,88.0083 315,95.5C 309.598,108.879 310.931,121.546 319,133.5C 320,142.164 316.166,145.664 307.5,144C 298.854,134.567 294.854,123.401 295.5,110.5C 295.469,105.765 295.969,101.099 297,96.5C 299.588,87.9917 303.255,79.9917 308,72.5C 312.033,63.2832 312.366,53.9499 309,44.5C 306.633,40.4989 304.8,36.3323 303.5,32C 303.451,27.5715 305.451,24.7382 309.5,23.5 Z"/></g>
<g><path style="opacity:0.952" fill="#d8ecfe" d="M 182.5,23.5 C 187.147,23.5714 190.647,25.5714 193,29.5C 200.503,42.681 202.503,56.681 199,71.5C 196.412,80.0083 192.745,88.0083 188,95.5C 182.528,108.586 183.862,120.92 192,132.5C 193.5,141.667 189.667,145.5 180.5,144C 171.962,134.724 167.962,123.724 168.5,111C 168.511,106.111 169.011,101.277 170,96.5C 172.588,87.9917 176.255,79.9917 181,72.5C 184.533,64.376 185.2,56.0427 183,47.5C 180.66,42.3311 178.494,37.1644 176.5,32C 176.435,27.6078 178.435,24.7745 182.5,23.5 Z"/></g>
<g><path style="opacity:0.998" fill="#e5636d" d="M 378.5,191.5 C 381.139,193.309 383.306,195.642 385,198.5C 385.667,242.5 385.667,286.5 385,330.5C 374.375,392.125 338.208,427.959 276.5,438C 286.494,438.5 296.494,438.666 306.5,438.5C 355.833,438.5 405.167,438.5 454.5,438.5C 461.453,439.615 466.619,443.282 470,449.5C 471.426,455.816 469.593,460.983 464.5,465C 438.761,478.765 411.428,486.265 382.5,487.5C 278.486,487.969 174.486,487.469 70.5,486C 47.1098,483.32 25.1098,476.32 4.5,465C 2.44965,463.035 0.782988,460.868 -0.5,458.5C -0.5,455.167 -0.5,451.833 -0.5,448.5C 2.52507,443.655 6.8584,440.488 12.5,439C 71.1667,438.667 129.833,438.333 188.5,438C 142.51,429.775 110.343,404.275 92,361.5C 88.5663,352.098 86.2329,342.432 85,332.5C 84.3333,287.167 84.3333,241.833 85,196.5C 85.4652,195.069 86.2986,193.903 87.5,193C 184.418,191.505 281.418,191.005 378.5,191.5 Z"/></g>
<g><path style="opacity:1" fill="#db4655" d="M 378.5,191.5 C 388.605,191.051 398.605,191.551 408.5,193C 409.701,193.903 410.535,195.069 411,196.5C 411.499,202.157 411.666,207.824 411.5,213.5C 411.5,223.833 411.5,234.167 411.5,244.5C 411.5,270.167 411.5,295.833 411.5,321.5C 410.577,332.293 408.911,342.959 406.5,353.5C 389.657,401.35 356.324,429.684 306.5,438.5C 296.494,438.666 286.494,438.5 276.5,438C 338.208,427.959 374.375,392.125 385,330.5C 385.667,286.5 385.667,242.5 385,198.5C 383.306,195.642 381.139,193.309 378.5,191.5 Z"/></g>
<g><path style="opacity:0.983" fill="#e4636d" d="M 411.5,213.5 C 427.167,213.5 442.833,213.5 458.5,213.5C 479.052,217.551 491.552,229.884 496,250.5C 496.667,271.5 496.667,292.5 496,313.5C 492.024,335.976 478.857,349.309 456.5,353.5C 439.833,353.5 423.167,353.5 406.5,353.5C 408.911,342.959 410.577,332.293 411.5,321.5C 430.836,321.667 450.17,321.5 469.5,321C 474.757,318.744 478.257,314.91 480,309.5C 480.667,292.167 480.667,274.833 480,257.5C 478.5,250.667 474.333,246.5 467.5,245C 448.836,244.5 430.17,244.333 411.5,244.5C 411.5,234.167 411.5,223.833 411.5,213.5 Z"/></g>
<g><path style="opacity:1" fill="#db4655" d="M 458.5,213.5 C 485.593,211.309 503.26,222.976 511.5,248.5C 511.5,271.833 511.5,295.167 511.5,318.5C 502.601,344.474 484.268,356.141 456.5,353.5C 478.857,349.309 492.024,335.976 496,313.5C 496.667,292.5 496.667,271.5 496,250.5C 491.552,229.884 479.052,217.551 458.5,213.5 Z"/></g>
<g><path style="opacity:1" fill="#db4756" d="M 454.5,438.5 C 464.172,438.334 473.839,438.5 483.5,439C 497.18,443.567 500.18,451.9 492.5,464C 471.849,476.328 449.515,483.661 425.5,486C 411.19,487.177 396.857,487.677 382.5,487.5C 411.428,486.265 438.761,478.765 464.5,465C 469.593,460.983 471.426,455.816 470,449.5C 466.619,443.282 461.453,439.615 454.5,438.5 Z"/></g>
</svg>
