<?xml version="1.0" encoding="UTF-8"?>
<!DOCTYPE svg PUBLIC "-//W3C//DTD SVG 1.1//EN" "http://www.w3.org/Graphics/SVG/1.1/DTD/svg11.dtd">
<svg xmlns="http://www.w3.org/2000/svg" version="1.1" width="512px" height="512px" style="shape-rendering:geometricPrecision; text-rendering:geometricPrecision; image-rendering:optimizeQuality; fill-rule:evenodd; clip-rule:evenodd" xmlns:xlink="http://www.w3.org/1999/xlink">
<g><path style="opacity:0.994" fill="#547882" d="M 159.5,-0.5 C 180.833,-0.5 202.167,-0.5 223.5,-0.5C 225.144,0.316435 226.31,1.64977 227,3.5C 227.667,9.5 227.667,15.5 227,21.5C 226.31,23.3502 225.144,24.6836 223.5,25.5C 219.833,25.5 216.167,25.5 212.5,25.5C 206.833,25.5 201.167,25.5 195.5,25.5C 183.495,25.6665 171.495,25.4999 159.5,25C 158.667,24.1667 157.833,23.3333 157,22.5C 156.333,15.8333 156.333,9.16667 157,2.5C 158.045,1.62656 158.878,0.626561 159.5,-0.5 Z"/></g>
<g><path style="opacity:1" fill="#3e595a" d="M 223.5,-0.5 C 231.833,-0.5 240.167,-0.5 248.5,-0.5C 249.504,0.682751 250.338,2.01608 251,3.5C 251.92,10.276 251.586,16.9427 250,23.5C 249.5,24 249,24.5 248.5,25C 240.173,25.4997 231.84,25.6664 223.5,25.5C 225.144,24.6836 226.31,23.3502 227,21.5C 227.667,15.5 227.667,9.5 227,3.5C 226.31,1.64977 225.144,0.316435 223.5,-0.5 Z"/></g>
<g><path style="opacity:0.909" fill="#e2a974" d="M 195.5,25.5 C 201.167,25.5 206.833,25.5 212.5,25.5C 212.5,43.5 212.5,61.5 212.5,79.5C 206.833,79.5 201.167,79.5 195.5,79.5C 195.5,61.5 195.5,43.5 195.5,25.5 Z"/></g>
<g><path style="opacity:0.994" fill="#557983" d="M 195.5,79.5 C 201.167,79.5 206.833,79.5 212.5,79.5C 237.833,79.5 263.167,79.5 288.5,79.5C 289.731,80.7177 290.898,82.051 292,83.5C 292.667,89.8333 292.667,96.1667 292,102.5C 290.955,103.373 290.122,104.373 289.5,105.5C 284.833,105.5 280.167,105.5 275.5,105.5C 268.825,105.334 262.158,105.5 255.5,106C 254.069,106.465 252.903,107.299 252,108.5C 250.533,123.07 250.033,137.736 250.5,152.5C 237.5,152.5 224.5,152.5 211.5,152.5C 206.5,152.5 201.5,152.5 196.5,152.5C 176.408,152.976 156.408,152.476 136.5,151C 134.622,149.457 133.122,147.624 132,145.5C 131.5,132.171 131.333,118.837 131.5,105.5C 122.447,105.222 113.447,105.556 104.5,106.5C 101.15,106.665 97.8168,106.498 94.5,106C 93.0692,105.535 91.9025,104.701 91,103.5C 89.4725,97.5851 89.1392,91.5851 90,85.5C 90.3459,83.1523 91.5125,81.3189 93.5,80C 127.498,79.5 161.498,79.3333 195.5,79.5 Z"/></g>
<g><path style="opacity:1" fill="#3e5a5a" d="M 288.5,79.5 C 296.84,79.3336 305.173,79.5003 313.5,80C 314.931,80.4652 316.097,81.2986 317,82.5C 317.928,89.9402 317.594,97.2735 316,104.5C 315.25,105.126 314.416,105.626 313.5,106C 309.514,106.499 305.514,106.666 301.5,106.5C 297.702,105.517 293.702,105.183 289.5,105.5C 290.122,104.373 290.955,103.373 292,102.5C 292.667,96.1667 292.667,89.8333 292,83.5C 290.898,82.051 289.731,80.7177 288.5,79.5 Z"/></g>
<g><path style="opacity:0.998" fill="#d7ebfd" d="M 196.5,152.5 C 196.5,185.5 196.5,218.5 196.5,251.5C 166.5,251.5 136.5,251.5 106.5,251.5C 106.667,230.831 106.5,210.164 106,189.5C 93.6667,177.167 81.3333,164.833 69,152.5C 67,149.167 67,145.833 69,142.5C 81.0353,130.632 92.8687,118.632 104.5,106.5C 113.447,105.556 122.447,105.222 131.5,105.5C 131.333,118.837 131.5,132.171 132,145.5C 133.122,147.624 134.622,149.457 136.5,151C 156.408,152.476 176.408,152.976 196.5,152.5 Z"/></g>
<g><path style="opacity:1" fill="#3e595a" d="M 275.5,105.5 C 275.5,118.5 275.5,131.5 275.5,144.5C 275.443,145.609 275.11,146.609 274.5,147.5C 273.327,149.504 271.66,151.004 269.5,152C 263.175,152.5 256.842,152.666 250.5,152.5C 250.033,137.736 250.533,123.07 252,108.5C 252.903,107.299 254.069,106.465 255.5,106C 262.158,105.5 268.825,105.334 275.5,105.5 Z"/></g>
<g><path style="opacity:1" fill="#83a3b6" d="M 275.5,105.5 C 280.167,105.5 284.833,105.5 289.5,105.5C 293.702,105.183 297.702,105.517 301.5,106.5C 293.167,106.5 284.833,106.5 276.5,106.5C 276.829,119.344 276.495,132.011 275.5,144.5C 275.5,131.5 275.5,118.5 275.5,105.5 Z"/></g>
<g><path style="opacity:1" fill="#d7ebfd" d="M 274.5,147.5 C 275.498,181.996 275.832,216.663 275.5,251.5C 254.167,251.5 232.833,251.5 211.5,251.5C 211.5,218.5 211.5,185.5 211.5,152.5C 224.5,152.5 237.5,152.5 250.5,152.5C 256.842,152.666 263.175,152.5 269.5,152C 271.66,151.004 273.327,149.504 274.5,147.5 Z"/></g>
<g><path style="opacity:1" fill="#e1a974" d="M 196.5,152.5 C 201.5,152.5 206.5,152.5 211.5,152.5C 211.5,185.5 211.5,218.5 211.5,251.5C 206.5,251.5 201.5,251.5 196.5,251.5C 196.5,218.5 196.5,185.5 196.5,152.5 Z"/></g>
<g><path style="opacity:0.983" fill="#d7ebfe" d="M 301.5,407.5 C 358.279,403.875 394.779,374.875 411,320.5C 419.994,272.468 405.494,233.301 367.5,203C 347.734,189.134 325.734,181.967 301.5,181.5C 301.5,172.167 301.5,162.833 301.5,153.5C 358.974,161.648 398.474,192.648 420,246.5C 436.199,299.34 426.865,347.007 392,389.5C 367.517,415.826 337.35,431.159 301.5,435.5C 301.5,426.167 301.5,416.833 301.5,407.5 Z"/></g>
<g><path style="opacity:1" fill="#b4dafe" d="M 301.5,106.5 C 301.167,121.515 301.501,136.515 302.5,151.5C 365.086,155.021 408.919,185.355 434,242.5C 454.194,303.218 441.694,356.051 396.5,401C 369.321,424.455 337.654,436.622 301.5,437.5C 293.016,436.507 284.349,436.174 275.5,436.5C 275.5,424.167 275.5,411.833 275.5,399.5C 284.167,399.5 292.833,399.5 301.5,399.5C 301.5,402.167 301.5,404.833 301.5,407.5C 301.5,416.833 301.5,426.167 301.5,435.5C 337.35,431.159 367.517,415.826 392,389.5C 426.865,347.007 436.199,299.34 420,246.5C 398.474,192.648 358.974,161.648 301.5,153.5C 301.5,162.833 301.5,172.167 301.5,181.5C 301.5,204.833 301.5,228.167 301.5,251.5C 292.833,251.5 284.167,251.5 275.5,251.5C 275.832,216.663 275.498,181.996 274.5,147.5C 275.11,146.609 275.443,145.609 275.5,144.5C 276.495,132.011 276.829,119.344 276.5,106.5C 284.833,106.5 293.167,106.5 301.5,106.5 Z"/></g>
<g><path style="opacity:1" fill="#b57f5f" d="M 106.5,251.5 C 136.5,251.5 166.5,251.5 196.5,251.5C 201.5,251.5 206.5,251.5 211.5,251.5C 232.833,251.5 254.167,251.5 275.5,251.5C 275.5,284.833 275.5,318.167 275.5,351.5C 219.167,351.5 162.833,351.5 106.5,351.5C 106.5,318.167 106.5,284.833 106.5,251.5 Z"/></g>
<g><path style="opacity:1" fill="#9f6f51" d="M 275.5,251.5 C 284.167,251.5 292.833,251.5 301.5,251.5C 301.5,285.167 301.5,318.833 301.5,352.5C 292.833,352.5 284.167,352.5 275.5,352.5C 219.167,352.5 162.833,352.5 106.5,352.5C 106.5,352.167 106.5,351.833 106.5,351.5C 162.833,351.5 219.167,351.5 275.5,351.5C 275.5,318.167 275.5,284.833 275.5,251.5 Z"/></g>
<g><path style="opacity:1" fill="#557983" d="M 106.5,352.5 C 162.833,352.5 219.167,352.5 275.5,352.5C 275.5,368.167 275.5,383.833 275.5,399.5C 219.167,399.5 162.833,399.5 106.5,399.5C 106.5,383.833 106.5,368.167 106.5,352.5 Z"/></g>
<g><path style="opacity:1" fill="#3e5a5a" d="M 275.5,352.5 C 284.167,352.5 292.833,352.5 301.5,352.5C 301.5,368.167 301.5,383.833 301.5,399.5C 292.833,399.5 284.167,399.5 275.5,399.5C 275.5,383.833 275.5,368.167 275.5,352.5 Z"/></g>
<g><path style="opacity:1" fill="#d7ecfd" d="M 106.5,399.5 C 162.833,399.5 219.167,399.5 275.5,399.5C 275.5,411.833 275.5,424.167 275.5,436.5C 219.167,436.5 162.833,436.5 106.5,436.5C 106.5,424.167 106.5,411.833 106.5,399.5 Z"/></g>
<g><path style="opacity:1" fill="#b57f5f" d="M 106.5,436.5 C 162.833,436.5 219.167,436.5 275.5,436.5C 275.5,448.833 275.5,461.167 275.5,473.5C 219.167,473.5 162.833,473.5 106.5,473.5C 106.5,461.167 106.5,448.833 106.5,436.5 Z"/></g>
<g><path style="opacity:1" fill="#a07052" d="M 275.5,436.5 C 284.349,436.174 293.016,436.507 301.5,437.5C 301.5,449.833 301.5,462.167 301.5,474.5C 293.167,474.5 284.833,474.5 276.5,474.5C 219.664,474.832 162.998,474.499 106.5,473.5C 162.833,473.5 219.167,473.5 275.5,473.5C 275.5,461.167 275.5,448.833 275.5,436.5 Z"/></g>
<g><path style="opacity:0.998" fill="#547882" d="M 106.5,473.5 C 162.998,474.499 219.664,474.832 276.5,474.5C 284.096,483.599 292.263,492.266 301,500.5C 303.65,505.438 302.483,509.105 297.5,511.5C 225.833,511.5 154.167,511.5 82.5,511.5C 79.3417,508.206 78.8417,504.539 81,500.5C 89.3666,491.302 97.8666,482.302 106.5,473.5 Z"/></g>
<g><path style="opacity:1" fill="#3e595a" d="M 276.5,474.5 C 284.833,474.5 293.167,474.5 301.5,474.5C 310.214,482.898 318.714,491.565 327,500.5C 329.151,504.86 328.317,508.526 324.5,511.5C 315.5,511.5 306.5,511.5 297.5,511.5C 302.483,509.105 303.65,505.438 301,500.5C 292.263,492.266 284.096,483.599 276.5,474.5 Z"/></g>
</svg>
