<?xml version="1.0" encoding="UTF-8"?>
<!DOCTYPE svg PUBLIC "-//W3C//DTD SVG 1.1//EN" "http://www.w3.org/Graphics/SVG/1.1/DTD/svg11.dtd">
<svg xmlns="http://www.w3.org/2000/svg" version="1.1" width="512px" height="512px" style="shape-rendering:geometricPrecision; text-rendering:geometricPrecision; image-rendering:optimizeQuality; fill-rule:evenodd; clip-rule:evenodd" xmlns:xlink="http://www.w3.org/1999/xlink">
<g><path style="opacity:0.997" fill="#dfdfdf" d="M 159.5,90.5 C 159.5,114.167 159.5,137.833 159.5,161.5C 110.5,161.5 61.5,161.5 12.5,161.5C 9.94162,140.408 8.27496,119.241 7.5,98C 7.40764,95.1861 8.40764,92.8527 10.5,91C 60.1655,90.5 109.832,90.3333 159.5,90.5 Z"/></g>
<g><path style="opacity:0.999" fill="#dfdfdf" d="M 175.5,90.5 C 250.5,90.5 325.5,90.5 400.5,90.5C 400.754,114.267 399.42,137.934 396.5,161.5C 322.833,161.5 249.167,161.5 175.5,161.5C 175.5,137.833 175.5,114.167 175.5,90.5 Z"/></g>
<g><path style="opacity:1" fill="#cfcccb" d="M 400.5,90.5 C 408.174,90.3336 415.841,90.5003 423.5,91C 424,91.5 424.5,92 425,92.5C 425.74,103.527 425.574,114.527 424.5,125.5C 423.872,137.921 422.539,150.255 420.5,162.5C 412.167,162.5 403.833,162.5 395.5,162.5C 322.167,162.5 248.833,162.5 175.5,162.5C 175.5,162.167 175.5,161.833 175.5,161.5C 249.167,161.5 322.833,161.5 396.5,161.5C 399.42,137.934 400.754,114.267 400.5,90.5 Z"/></g>
<g><path style="opacity:1" fill="#9b523a" d="M 159.5,90.5 C 164.833,90.5 170.167,90.5 175.5,90.5C 175.5,114.167 175.5,137.833 175.5,161.5C 175.5,161.833 175.5,162.167 175.5,162.5C 175.5,179.5 175.5,196.5 175.5,213.5C 173.704,212.207 172.037,210.707 170.5,209C 168.5,208.333 166.5,208.333 164.5,209C 163.295,210.376 161.962,211.542 160.5,212.5C 159.503,196.008 159.17,179.342 159.5,162.5C 159.5,162.167 159.5,161.833 159.5,161.5C 159.5,137.833 159.5,114.167 159.5,90.5 Z"/></g>
<g><path style="opacity:0.977" fill="#c6c6c6" d="M 452.5,121.5 C 485.836,121.511 505.503,137.845 511.5,170.5C 511.5,179.5 511.5,188.5 511.5,197.5C 505.757,225.991 494.257,251.991 477,275.5C 463.22,293.614 447.72,310.114 430.5,325C 412.423,340.859 391.423,347.359 367.5,344.5C 378.137,332.553 387.803,319.886 396.5,306.5C 430.364,282.791 455.198,251.791 471,213.5C 474.432,203.772 476.599,193.772 477.5,183.5C 477.901,164.239 468.567,154.905 449.5,155.5C 450.831,144.199 451.831,132.866 452.5,121.5 Z"/></g>
<g><path style="opacity:1" fill="#bababa" d="M 452.5,121.5 C 451.831,132.866 450.831,144.199 449.5,155.5C 439.832,157.333 430.165,159.666 420.5,162.5C 422.539,150.255 423.872,137.921 424.5,125.5C 433.646,122.955 442.979,121.622 452.5,121.5 Z"/></g>
<g><path style="opacity:1" fill="#e6d4c4" d="M 12.5,161.5 C 61.5,161.5 110.5,161.5 159.5,161.5C 159.5,161.833 159.5,162.167 159.5,162.5C 110.664,162.168 61.9971,162.501 13.5,163.5C 12.6618,163.158 12.3284,162.492 12.5,161.5 Z"/></g>
<g><path style="opacity:1" fill="#feaa5c" d="M 159.5,162.5 C 159.17,179.342 159.503,196.008 160.5,212.5C 157.861,214.473 155.527,216.806 153.5,219.5C 145.505,227.328 137.338,234.995 129,242.5C 128.333,263.167 128.333,283.833 129,304.5C 131.072,311.573 135.572,316.406 142.5,319C 156.496,319.5 170.496,319.667 184.5,319.5C 195.553,320.058 202.72,315.058 206,304.5C 206.667,283.833 206.667,263.167 206,242.5C 195.635,232.967 185.468,223.3 175.5,213.5C 175.5,196.5 175.5,179.5 175.5,162.5C 248.833,162.5 322.167,162.5 395.5,162.5C 387.756,227.289 363.59,284.956 323,335.5C 309.704,350.466 294.871,363.633 278.5,375C 286.159,375.5 293.826,375.666 301.5,375.5C 245.335,376.665 189.001,376.832 132.5,376C 131.473,375.487 130.473,374.987 129.5,374.5C 106.209,358.376 86.3753,338.709 70,315.5C 39.1515,269.439 20.3181,218.772 13.5,163.5C 61.9971,162.501 110.664,162.168 159.5,162.5 Z"/></g>
<g><path style="opacity:1" fill="#fe993a" d="M 395.5,162.5 C 403.833,162.5 412.167,162.5 420.5,162.5C 414.058,215.168 396.724,263.834 368.5,308.5C 361.174,318.161 353.84,327.828 346.5,337.5C 333.522,351.803 319.189,364.47 303.5,375.5C 302.833,375.5 302.167,375.5 301.5,375.5C 293.826,375.666 286.159,375.5 278.5,375C 294.871,363.633 309.704,350.466 323,335.5C 363.59,284.956 387.756,227.289 395.5,162.5 Z"/></g>
<g><path style="opacity:1" fill="#fed91f" d="M 175.5,213.5 C 185.468,223.3 195.635,232.967 206,242.5C 206.667,263.167 206.667,283.833 206,304.5C 202.72,315.058 195.553,320.058 184.5,319.5C 185.594,317.641 186.427,315.641 187,313.5C 187.667,293.167 187.667,272.833 187,252.5C 175.938,241.271 164.772,230.271 153.5,219.5C 155.527,216.806 157.861,214.473 160.5,212.5C 161.962,211.542 163.295,210.376 164.5,209C 166.5,208.333 168.5,208.333 170.5,209C 172.037,210.707 173.704,212.207 175.5,213.5 Z"/></g>
<g><path style="opacity:1" fill="#ffe459" d="M 153.5,219.5 C 164.772,230.271 175.938,241.271 187,252.5C 187.667,272.833 187.667,293.167 187,313.5C 186.427,315.641 185.594,317.641 184.5,319.5C 170.496,319.667 156.496,319.5 142.5,319C 135.572,316.406 131.072,311.573 129,304.5C 128.333,283.833 128.333,263.167 129,242.5C 137.338,234.995 145.505,227.328 153.5,219.5 Z"/></g>
<g><path style="opacity:0.999" fill="#babab9" d="M 396.5,306.5 C 387.803,319.886 378.137,332.553 367.5,344.5C 360.016,343.547 353.016,341.214 346.5,337.5C 353.84,327.828 361.174,318.161 368.5,308.5C 371.526,310.019 374.859,310.685 378.5,310.5C 384.802,310.424 390.802,309.091 396.5,306.5 Z"/></g>
<g><path style="opacity:0.998" fill="#e0e0e0" d="M 129.5,374.5 C 130.473,374.987 131.473,375.487 132.5,376C 189.001,376.832 245.335,376.665 301.5,375.5C 302.167,375.5 302.833,375.5 303.5,375.5C 350.833,375.5 398.167,375.5 445.5,375.5C 433.318,401.698 412.985,416.698 384.5,420.5C 274.499,420.667 164.499,420.5 54.5,420C 29.1015,415.323 10.7682,401.49 -0.5,378.5C -0.5,377.5 -0.5,376.5 -0.5,375.5C 43.0032,375.832 86.3365,375.499 129.5,374.5 Z"/></g>
<g><path style="opacity:1" fill="#cccccc" d="M 445.5,375.5 C 457.833,375.5 470.167,375.5 482.5,375.5C 472.469,400.345 454.135,415.178 427.5,420C 413.171,420.5 398.837,420.667 384.5,420.5C 412.985,416.698 433.318,401.698 445.5,375.5 Z"/></g>
</svg>
