<?xml version="1.0" encoding="UTF-8"?>
<!DOCTYPE svg PUBLIC "-//W3C//DTD SVG 1.1//EN" "http://www.w3.org/Graphics/SVG/1.1/DTD/svg11.dtd">
<svg xmlns="http://www.w3.org/2000/svg" version="1.1" width="512px" height="512px" style="shape-rendering:geometricPrecision; text-rendering:geometricPrecision; image-rendering:optimizeQuality; fill-rule:evenodd; clip-rule:evenodd" xmlns:xlink="http://www.w3.org/1999/xlink">
<g><path style="opacity:1" fill="#fde97e" d="M 227.5,-0.5 C 229.833,-0.5 232.167,-0.5 234.5,-0.5C 236.495,15.9756 245.162,27.4756 260.5,34C 274.816,38.6556 288.482,44.6556 301.5,52C 310.582,59.3299 315.582,68.8299 316.5,80.5C 323.734,81.2445 330.401,83.5779 336.5,87.5C 340.104,90.6015 343.604,93.9349 347,97.5C 349.857,101.898 352.691,106.232 355.5,110.5C 357.091,118.076 358.091,125.742 358.5,133.5C 357.833,133.5 357.167,133.5 356.5,133.5C 351.833,133.5 347.167,133.5 342.5,133.5C 339.167,133.5 335.833,133.5 332.5,133.5C 333.743,110.471 324.076,93.971 303.5,84C 299.312,82.3693 294.979,81.5359 290.5,81.5C 290.429,69.1927 285.429,59.3593 275.5,52C 270.659,49.0788 265.659,46.4121 260.5,44C 248.71,40.4384 237.377,35.7717 226.5,30C 220.904,26.241 216.571,21.4077 213.5,15.5C 217.107,9.22737 221.773,3.89404 227.5,-0.5 Z"/></g>
<g><path style="opacity:0.979" fill="#b57e5e" d="M 355.5,110.5 C 352.691,106.232 349.857,101.898 347,97.5C 343.604,93.9349 340.104,90.6015 336.5,87.5C 351.015,62.9806 365.682,38.4806 380.5,14C 382.5,13.3333 384.5,13.3333 386.5,14C 391.917,16.7903 397.084,19.957 402,23.5C 402.841,27.1202 402.174,30.4536 400,33.5C 384.939,59.0546 370.106,84.7212 355.5,110.5 Z"/></g>
<g><path style="opacity:0.997" fill="#feefad" d="M 213.5,15.5 C 216.571,21.4077 220.904,26.241 226.5,30C 237.377,35.7717 248.71,40.4384 260.5,44C 265.659,46.4121 270.659,49.0788 275.5,52C 285.429,59.3593 290.429,69.1927 290.5,81.5C 294.979,81.5359 299.312,82.3693 303.5,84C 324.076,93.971 333.743,110.471 332.5,133.5C 327.5,133.5 322.5,133.5 317.5,133.5C 258.5,133.5 199.5,133.5 140.5,133.5C 135.5,133.5 130.5,133.5 125.5,133.5C 124.208,108.32 135.208,91.1532 158.5,82C 161.432,81.0467 164.432,80.5467 167.5,80.5C 171.875,56.4595 186.208,42.4595 210.5,38.5C 210.833,38 211.167,37.5 211.5,37C 208.724,29.4237 209.39,22.2571 213.5,15.5 Z"/></g>
<g><path style="opacity:0.994" fill="#d7ebfc" d="M 125.5,133.5 C 130.5,133.5 135.5,133.5 140.5,133.5C 141.659,166.014 143.325,198.347 145.5,230.5C 148.741,307.174 152.241,383.841 156,460.5C 156.9,465.737 159.734,469.571 164.5,472C 206.832,472.5 249.165,472.667 291.5,472.5C 300.506,472.666 309.506,472.5 318.5,472C 322.603,469.955 325.436,466.788 327,462.5C 331.022,389.856 334.522,317.19 337.5,244.5C 340.014,207.695 341.681,170.695 342.5,133.5C 347.167,133.5 351.833,133.5 356.5,133.5C 357.122,134.627 357.955,135.627 359,136.5C 353.649,253.87 347.316,371.203 340,488.5C 335.996,501.345 327.496,509.012 314.5,511.5C 259.833,511.5 205.167,511.5 150.5,511.5C 137.857,507.353 130.357,498.686 128,485.5C 121.5,371.833 115,258.167 108.5,144.5C 108.296,141.094 108.962,137.928 110.5,135C 115.372,133.612 120.372,133.112 125.5,133.5 Z"/></g>
<g><path style="opacity:1" fill="#e1a975" d="M 140.5,133.5 C 199.5,133.5 258.5,133.5 317.5,133.5C 315.668,165.811 314.334,198.144 313.5,230.5C 257.5,230.5 201.5,230.5 145.5,230.5C 143.325,198.347 141.659,166.014 140.5,133.5 Z"/></g>
<g><path style="opacity:1" fill="#b4dafe" d="M 356.5,133.5 C 357.167,133.5 357.833,133.5 358.5,133.5C 363.297,133.121 367.964,133.621 372.5,135C 373.126,135.75 373.626,136.584 374,137.5C 368.369,253.854 362.036,370.187 355,486.5C 352.163,499.165 344.663,507.498 332.5,511.5C 326.5,511.5 320.5,511.5 314.5,511.5C 327.496,509.012 335.996,501.345 340,488.5C 347.316,371.203 353.649,253.87 359,136.5C 357.955,135.627 357.122,134.627 356.5,133.5 Z"/></g>
<g><path style="opacity:1" fill="#b57f5f" d="M 317.5,133.5 C 322.5,133.5 327.5,133.5 332.5,133.5C 335.833,133.5 339.167,133.5 342.5,133.5C 341.681,170.695 340.014,207.695 337.5,244.5C 337.5,240.167 337.5,235.833 337.5,231.5C 329.167,231.5 320.833,231.5 312.5,231.5C 309.083,307.834 305.583,384.167 302,460.5C 300.72,466.604 297.22,470.604 291.5,472.5C 249.165,472.667 206.832,472.5 164.5,472C 159.734,469.571 156.9,465.737 156,460.5C 152.241,383.841 148.741,307.174 145.5,230.5C 201.5,230.5 257.5,230.5 313.5,230.5C 314.334,198.144 315.668,165.811 317.5,133.5 Z"/></g>
<g><path style="opacity:1" fill="#9f6e50" d="M 337.5,244.5 C 334.522,317.19 331.022,389.856 327,462.5C 325.436,466.788 322.603,469.955 318.5,472C 309.506,472.5 300.506,472.666 291.5,472.5C 297.22,470.604 300.72,466.604 302,460.5C 305.583,384.167 309.083,307.834 312.5,231.5C 320.833,231.5 329.167,231.5 337.5,231.5C 337.5,235.833 337.5,240.167 337.5,244.5 Z"/></g>
<g><path style="opacity:1" fill="#9f6e50" d="M 286.5,275.5 C 293.465,275.961 296.632,279.628 296,286.5C 291,293.167 286,293.167 281,286.5C 280.176,281.482 282.009,277.815 286.5,275.5 Z"/></g>
<g><path style="opacity:1" fill="#9f6e50" d="M 262.5,303.5 C 272.855,303.038 275.855,307.538 271.5,317C 262.457,320.292 258.29,317.126 259,307.5C 260.376,306.295 261.542,304.962 262.5,303.5 Z"/></g>
</svg>
