<?xml version="1.0" encoding="UTF-8"?>
<!DOCTYPE svg PUBLIC "-//W3C//DTD SVG 1.1//EN" "http://www.w3.org/Graphics/SVG/1.1/DTD/svg11.dtd">
<svg xmlns="http://www.w3.org/2000/svg" version="1.1" width="512px" height="512px" style="shape-rendering:geometricPrecision; text-rendering:geometricPrecision; image-rendering:optimizeQuality; fill-rule:evenodd; clip-rule:evenodd" xmlns:xlink="http://www.w3.org/1999/xlink">
<g><path style="opacity:0.993" fill="#bed8fa" d="M 237.5,-0.5 C 249.5,-0.5 261.5,-0.5 273.5,-0.5C 276.063,1.61218 277.896,4.27885 279,7.5C 279.5,14.8258 279.666,22.1591 279.5,29.5C 263.5,30.8333 247.5,30.8333 231.5,29.5C 231.334,22.1591 231.5,14.8258 232,7.5C 233.104,4.27885 234.937,1.61218 237.5,-0.5 Z"/></g>
<g><path style="opacity:0.997" fill="#ddeafb" d="M 231.5,29.5 C 247.5,30.8333 263.5,30.8333 279.5,29.5C 298.167,29.5 316.833,29.5 335.5,29.5C 348.488,33.482 352.322,41.8154 347,54.5C 344.512,58.3251 341.012,60.4918 336.5,61C 344.827,61.4997 353.16,61.6664 361.5,61.5C 365.48,68.7831 369.98,75.7831 375,82.5C 376.741,85.3093 377.908,88.3093 378.5,91.5C 368.145,91.8319 357.812,91.4986 347.5,90.5C 341.875,80.7468 335.875,71.2468 329.5,62C 269.501,61.5 209.501,61.3333 149.5,61.5C 134.388,61.5618 128.221,54.2284 131,39.5C 132.5,35.3333 135.333,32.5 139.5,31C 170.125,29.5387 200.792,29.0387 231.5,29.5 Z"/></g>
<g><path style="opacity:1" fill="#bfd8fb" d="M 335.5,29.5 C 347.553,29.1091 359.553,29.6091 371.5,31C 380.853,36.5615 383.353,44.3948 379,54.5C 374.568,60.2985 368.734,62.6318 361.5,61.5C 353.16,61.6664 344.827,61.4997 336.5,61C 341.012,60.4918 344.512,58.3251 347,54.5C 352.322,41.8154 348.488,33.482 335.5,29.5 Z"/></g>
<g><path style="opacity:0.997" fill="#ecf3fd" d="M 149.5,61.5 C 209.501,61.3333 269.501,61.5 329.5,62C 335.875,71.2468 341.875,80.7468 347.5,90.5C 357.812,91.4986 368.145,91.8319 378.5,91.5C 379.167,91.5 379.5,91.8333 379.5,92.5C 369.167,92.5 358.833,92.5 348.5,92.5C 276.167,92.5 203.833,92.5 131.5,92.5C 132.711,89.0743 134.211,85.741 136,82.5C 141.02,75.7831 145.52,68.7831 149.5,61.5 Z"/></g>
<g><path style="opacity:1" fill="#fddf7c" d="M 131.5,92.5 C 203.833,92.5 276.167,92.5 348.5,92.5C 349.424,102.461 349.758,112.461 349.5,122.5C 359.833,122.5 370.167,122.5 380.5,122.5C 370.347,123.494 360.014,123.828 349.5,123.5C 276.167,123.5 202.833,123.5 129.5,123.5C 129.069,113.063 129.736,102.73 131.5,92.5 Z"/></g>
<g><path style="opacity:1" fill="#fed167" d="M 348.5,92.5 C 358.833,92.5 369.167,92.5 379.5,92.5C 380.265,95.0961 380.599,97.7628 380.5,100.5C 380.5,107.833 380.5,115.167 380.5,122.5C 370.167,122.5 359.833,122.5 349.5,122.5C 349.758,112.461 349.424,102.461 348.5,92.5 Z"/></g>
<g><path style="opacity:0.996" fill="#aedb81" d="M 129.5,123.5 C 202.833,123.5 276.167,123.5 349.5,123.5C 349.5,221.5 349.5,319.5 349.5,417.5C 276.167,417.5 202.833,417.5 129.5,417.5C 129.5,319.5 129.5,221.5 129.5,123.5 Z"/></g>
<g><path style="opacity:1" fill="#97cc82" d="M 380.5,100.5 C 381.833,213.833 381.833,327.167 380.5,440.5C 380.5,433.167 380.5,425.833 380.5,418.5C 370.347,417.506 360.014,417.172 349.5,417.5C 349.5,319.5 349.5,221.5 349.5,123.5C 360.014,123.828 370.347,123.494 380.5,122.5C 380.5,115.167 380.5,107.833 380.5,100.5 Z"/></g>
<g><path style="opacity:1" fill="#fedf7d" d="M 260.5,176.5 C 263.365,176.055 265.865,176.722 268,178.5C 268.333,199.833 268.667,221.167 269,242.5C 269.786,245.583 271.619,247.749 274.5,249C 289.167,249.333 303.833,249.667 318.5,250C 320.357,251.182 321.357,252.849 321.5,255C 296.506,292.636 270.506,329.636 243.5,366C 240.166,367.212 237.666,366.379 236,363.5C 235.978,341.745 235.312,320.078 234,298.5C 232.786,296.951 231.286,295.785 229.5,295C 217.167,294.667 204.833,294.333 192.5,294C 190.643,292.818 189.643,291.151 189.5,289C 212.936,251.388 236.603,213.888 260.5,176.5 Z"/></g>
<g><path style="opacity:1" fill="#fedf7c" d="M 129.5,417.5 C 202.833,417.5 276.167,417.5 349.5,417.5C 360.014,417.172 370.347,417.506 380.5,418.5C 370.167,418.5 359.833,418.5 349.5,418.5C 349.699,428.527 349.366,438.527 348.5,448.5C 276.167,448.5 203.833,448.5 131.5,448.5C 129.699,438.302 129.032,427.968 129.5,417.5 Z"/></g>
<g><path style="opacity:1" fill="#fed167" d="M 380.5,418.5 C 380.5,425.833 380.5,433.167 380.5,440.5C 380.721,443.279 380.388,445.946 379.5,448.5C 369.167,448.5 358.833,448.5 348.5,448.5C 349.366,438.527 349.699,428.527 349.5,418.5C 359.833,418.5 370.167,418.5 380.5,418.5 Z"/></g>
<g><path style="opacity:0.998" fill="#ecf3fe" d="M 131.5,448.5 C 203.833,448.5 276.167,448.5 348.5,448.5C 358.833,448.5 369.167,448.5 379.5,448.5C 379.5,448.833 379.5,449.167 379.5,449.5C 368.833,449.5 358.167,449.5 347.5,449.5C 346.908,452.691 345.741,455.691 344,458.5C 339.043,465.58 334.21,472.747 329.5,480C 269.501,480.5 209.501,480.667 149.5,480.5C 145.52,473.217 141.02,466.217 136,459.5C 133.934,456.039 132.434,452.373 131.5,448.5 Z"/></g>
<g><path style="opacity:0.996" fill="#ddeafb" d="M 379.5,449.5 C 378.289,452.926 376.789,456.259 375,459.5C 369.98,466.217 365.48,473.217 361.5,480.5C 353.826,480.334 346.159,480.5 338.5,481C 350.152,486.7 352.652,495.2 346,506.5C 343.521,508.314 341.021,509.981 338.5,511.5C 272.167,511.5 205.833,511.5 139.5,511.5C 127.713,503.08 126.713,493.58 136.5,483C 140.546,480.826 144.879,479.993 149.5,480.5C 209.501,480.667 269.501,480.5 329.5,480C 334.21,472.747 339.043,465.58 344,458.5C 345.741,455.691 346.908,452.691 347.5,449.5C 358.167,449.5 368.833,449.5 379.5,449.5 Z"/></g>
<g><path style="opacity:1" fill="#bed8fb" d="M 361.5,480.5 C 376.612,480.438 382.779,487.772 380,502.5C 377.638,506.027 374.804,509.027 371.5,511.5C 360.5,511.5 349.5,511.5 338.5,511.5C 341.021,509.981 343.521,508.314 346,506.5C 352.652,495.2 350.152,486.7 338.5,481C 346.159,480.5 353.826,480.334 361.5,480.5 Z"/></g>
</svg>
