<?xml version="1.0" encoding="UTF-8"?>
<!DOCTYPE svg PUBLIC "-//W3C//DTD SVG 1.1//EN" "http://www.w3.org/Graphics/SVG/1.1/DTD/svg11.dtd">
<svg xmlns="http://www.w3.org/2000/svg" version="1.1" width="128px" height="128px" style="shape-rendering:geometricPrecision; text-rendering:geometricPrecision; image-rendering:optimizeQuality; fill-rule:evenodd; clip-rule:evenodd" xmlns:xlink="http://www.w3.org/1999/xlink">
<g><path style="opacity:0.992" fill="#6a7886" d="M 28.5,-0.5 C 50.5,-0.5 72.5,-0.5 94.5,-0.5C 94.5,1.5 94.5,3.5 94.5,5.5C 71.1667,5.5 47.8333,5.5 24.5,5.5C 25.4151,3.24595 26.7484,1.24595 28.5,-0.5 Z"/></g>
<g><path style="opacity:0.992" fill="#46525e" d="M 94.5,-0.5 C 95.8333,-0.5 97.1667,-0.5 98.5,-0.5C 99.4577,0.961599 100.624,2.29493 102,3.5C 102.249,8.39666 103.416,12.8967 105.5,17C 106.068,20.2634 104.734,21.7634 101.5,21.5C 76.1667,20.1667 50.8333,20.1667 25.5,21.5C 22.2657,21.7634 20.9324,20.2634 21.5,17C 23.5248,13.5701 24.5248,9.73675 24.5,5.5C 47.8333,5.5 71.1667,5.5 94.5,5.5C 94.5,3.5 94.5,1.5 94.5,-0.5 Z"/></g>
<g><path style="opacity:0.993" fill="#e8e2d4" d="M 25.5,21.5 C 44.5,21.5 63.5,21.5 82.5,21.5C 81.7403,27.8039 81.407,34.1373 81.5,40.5C 63.5,40.5 45.5,40.5 27.5,40.5C 27.1667,40.5 26.8333,40.5 26.5,40.5C 26.1005,34.171 25.7671,27.8376 25.5,21.5 Z"/></g>
<g><path style="opacity:1" fill="#b8ada0" d="M 25.5,21.5 C 50.8333,20.1667 76.1667,20.1667 101.5,21.5C 101.233,27.8376 100.9,34.171 100.5,40.5C 94.021,41.4907 87.3543,41.824 80.5,41.5C 62.6588,41.8301 44.9921,41.4967 27.5,40.5C 45.5,40.5 63.5,40.5 81.5,40.5C 81.407,34.1373 81.7403,27.8039 82.5,21.5C 63.5,21.5 44.5,21.5 25.5,21.5 Z"/></g>
<g><path style="opacity:0.996" fill="#b56551" d="M 26.5,40.5 C 26.8333,40.5 27.1667,40.5 27.5,40.5C 44.9921,41.4967 62.6588,41.8301 80.5,41.5C 79.2683,57.1789 77.935,72.8456 76.5,88.5C 60.8333,88.5 45.1667,88.5 29.5,88.5C 27.1563,72.417 26.1563,56.417 26.5,40.5 Z"/></g>
<g><path style="opacity:0.985" fill="#81493b" d="M 100.5,40.5 C 101.162,42.3035 101.495,44.3035 101.5,46.5C 100.21,62.853 98.7103,79.1863 97,95.5C 96.6174,96.056 96.1174,96.3893 95.5,96.5C 88.8333,96.5 82.1667,96.5 75.5,96.5C 60.8333,96.5 46.1667,96.5 31.5,96.5C 30.8826,96.3893 30.3826,96.056 30,95.5C 29.5034,93.1902 29.3367,90.8568 29.5,88.5C 45.1667,88.5 60.8333,88.5 76.5,88.5C 77.935,72.8456 79.2683,57.1789 80.5,41.5C 87.3543,41.824 94.021,41.4907 100.5,40.5 Z"/></g>
<g><path style="opacity:0.993" fill="#e8e2d5" d="M 31.5,96.5 C 46.1667,96.5 60.8333,96.5 75.5,96.5C 74.7783,104.16 74.1116,111.827 73.5,119.5C 60.3226,119.171 47.3226,119.505 34.5,120.5C 33.3871,112.638 32.3871,104.638 31.5,96.5 Z"/></g>
<g><path style="opacity:1" fill="#b7b1a3" d="M 75.5,96.5 C 82.1667,96.5 88.8333,96.5 95.5,96.5C 94.5246,106.907 93.1913,117.24 91.5,127.5C 72.8333,127.5 54.1667,127.5 35.5,127.5C 34.6314,125.283 34.298,122.95 34.5,120.5C 47.3226,119.505 60.3226,119.171 73.5,119.5C 74.1116,111.827 74.7783,104.16 75.5,96.5 Z"/></g>
</svg>
