<?xml version="1.0" encoding="UTF-8"?>
<!DOCTYPE svg PUBLIC "-//W3C//DTD SVG 1.1//EN" "http://www.w3.org/Graphics/SVG/1.1/DTD/svg11.dtd">
<svg xmlns="http://www.w3.org/2000/svg" version="1.1" width="512px" height="512px" style="shape-rendering:geometricPrecision; text-rendering:geometricPrecision; image-rendering:optimizeQuality; fill-rule:evenodd; clip-rule:evenodd" xmlns:xlink="http://www.w3.org/1999/xlink">
<g><path style="opacity:0.974" fill="#cbc4cc" d="M 220.5,78.5 C 187.5,78.5 154.5,78.5 121.5,78.5C 121.334,71.4921 121.5,64.4921 122,57.5C 123.598,52.9014 126.765,50.0681 131.5,49C 158.167,48.3333 184.833,48.3333 211.5,49C 215.275,50.4421 218.108,52.9421 220,56.5C 220.5,63.8258 220.666,71.1591 220.5,78.5 Z"/></g>
<g><path style="opacity:0.996" fill="#918291" d="M 121.5,78.5 C 154.5,78.5 187.5,78.5 220.5,78.5C 251.835,78.3334 283.168,78.5 314.5,79C 319.838,81.0073 323.004,84.8406 324,90.5C 324.5,97.1583 324.666,103.825 324.5,110.5C 222.5,110.5 120.5,110.5 18.5,110.5C 18.0943,102.083 18.5943,93.7492 20,85.5C 22.2866,82.5379 25.1199,80.3712 28.5,79C 59.4982,78.5 90.4982,78.3334 121.5,78.5 Z"/></g>
<g><path style="opacity:0.975" fill="#918291" d="M 18.5,110.5 C 120.5,110.5 222.5,110.5 324.5,110.5C 369.501,110.333 414.501,110.5 459.5,111C 486.914,114.843 504.247,130.01 511.5,156.5C 511.5,163.833 511.5,171.167 511.5,178.5C 502.496,215.327 493.663,252.327 485,289.5C 481.485,296.903 475.652,299.737 467.5,298C 454.767,294.592 447.767,286.258 446.5,273C 454.205,238.808 462.039,204.641 470,170.5C 471.006,162.019 467.506,156.186 459.5,153C 425.835,152.5 392.168,152.333 358.5,152.5C 352.903,146.714 347.736,140.381 343,133.5C 337.188,126.054 331.022,118.887 324.5,112C 314.839,111.5 305.172,111.334 295.5,111.5C 202.998,111.833 110.665,111.499 18.5,110.5 Z"/></g>
<g><path style="opacity:0.999" fill="#fef2dd" d="M 18.5,110.5 C 110.665,111.499 202.998,111.833 295.5,111.5C 314.623,136.057 330.456,162.724 343,191.5C 351.355,213.825 353.855,236.825 350.5,260.5C 368.008,260.17 385.341,260.503 402.5,261.5C 385.167,261.5 367.833,261.5 350.5,261.5C 233.5,261.5 116.5,261.5 -0.5,261.5C -0.5,257.167 -0.5,252.833 -0.5,248.5C 1.52439,238.081 4.35772,227.748 8,217.5C 13.9732,203.555 20.4732,189.888 27.5,176.5C 19.9446,158.388 12.1113,140.388 4,122.5C 2.7728,118.409 3.60614,114.909 6.5,112C 10.3951,110.734 14.3951,110.234 18.5,110.5 Z"/></g>
<g><path style="opacity:0.997" fill="#fee5c2" d="M 295.5,111.5 C 305.172,111.334 314.839,111.5 324.5,112C 331.022,118.887 337.188,126.054 343,133.5C 347.736,140.381 352.903,146.714 358.5,152.5C 370.238,169.625 380.738,187.625 390,206.5C 398.113,223.951 402.613,242.284 403.5,261.5C 403.167,261.5 402.833,261.5 402.5,261.5C 385.341,260.503 368.008,260.17 350.5,260.5C 353.855,236.825 351.355,213.825 343,191.5C 330.456,162.724 314.623,136.057 295.5,111.5 Z"/></g>
<g><path style="opacity:0.999" fill="#b87f7f" d="M -0.5,261.5 C 116.5,261.5 233.5,261.5 350.5,261.5C 346.727,291.32 336.893,318.987 321,344.5C 302.172,371.626 276.338,387.792 243.5,393C 178.332,393.167 113.332,393.667 48.5,394.5C 20.7364,362.293 4.40304,324.96 -0.5,282.5C -0.5,275.5 -0.5,268.5 -0.5,261.5 Z"/></g>
<g><path style="opacity:1" fill="#ae6c6c" d="M 350.5,261.5 C 367.833,261.5 385.167,261.5 402.5,261.5C 402.833,261.5 403.167,261.5 403.5,261.5C 402.06,325.7 377.06,378.367 328.5,419.5C 243.5,419.5 158.5,419.5 73.5,419.5C 64.1938,412.194 55.8605,403.86 48.5,394.5C 113.332,393.667 178.332,393.167 243.5,393C 276.338,387.792 302.172,371.626 321,344.5C 336.893,318.987 346.727,291.32 350.5,261.5 Z"/></g>
<g><path style="opacity:0.984" fill="#cbc3cc" d="M 73.5,419.5 C 158.5,419.5 243.5,419.5 328.5,419.5C 345.503,419.333 362.503,419.5 379.5,420C 381.333,421.167 382.833,422.667 384,424.5C 384.667,435.167 384.667,445.833 384,456.5C 382.749,459.381 380.583,461.214 377.5,462C 260.833,462.667 144.167,462.667 27.5,462C 24.087,460.923 21.587,458.756 20,455.5C 19.3333,445.833 19.3333,436.167 20,426.5C 20.3459,424.152 21.5125,422.319 23.5,421C 40.0718,419.529 56.7384,419.029 73.5,419.5 Z"/></g>
</svg>
