<svg xmlns="http://www.w3.org/2000/svg" fill-rule="evenodd" stroke-linejoin="round" stroke-miterlimit="2" clip-rule="evenodd" viewBox="0 0 32 32" id="soda"><path fill="#cfd8dc" d="M19,3c0,-0.552 -0.448,-1 -1,-1l-4,0c-0.552,0 -1,0.448 -1,1c0,4.49 -0.989,6.291 -1.798,7.615c-0.677,1.111 -1.202,1.973 -1.202,3.385c0,2.142 0.271,3.213 0.538,4.15c0.229,0.798 0.462,1.481 0.462,2.85c0,0.825 -0.242,1.743 -0.472,2.686c-0.269,1.104 -0.528,2.238 -0.528,3.314c0,1.414 1.344,3 3,3l6,0c1.656,0 3,-1.586 3,-3c0,-1.076 -0.259,-2.21 -0.528,-3.314c-0.23,-0.943 -0.472,-1.861 -0.472,-2.686c0,-1.369 0.233,-2.052 0.462,-2.85c0.267,-0.937 0.538,-2.008 0.538,-4.15c0,-1.412 -0.525,-2.274 -1.202,-3.385c-0.809,-1.324 -1.798,-3.125 -1.798,-7.615Z"></path><path fill="#a1887f" d="M12.349,8.176c0.192,-0.112 0.425,-0.176 0.673,-0.176l5.956,0c0.248,0 0.481,0.064 0.673,0.176c0.34,1.077 0.764,1.811 1.147,2.439c0.677,1.111 1.202,1.973 1.202,3.385c0,2.142 -0.271,3.213 -0.538,4.15c-0.229,0.798 -0.462,1.481 -0.462,2.85c0,0.825 0.242,1.743 0.472,2.686c0.269,1.104 0.528,2.238 0.528,3.314c0,1.414 -1.344,3 -3,3l-6,0c-1.656,0 -3,-1.586 -3,-3c0,-1.076 0.259,-2.21 0.528,-3.314c0.23,-0.943 0.472,-1.861 0.472,-2.686c0,-1.369 -0.233,-2.052 -0.462,-2.85c-0.267,-0.937 -0.538,-2.008 -0.538,-4.15c0,-1.412 0.525,-2.274 1.202,-3.385c0.383,-0.628 0.807,-1.362 1.147,-2.439Z"></path><path fill="none" d="M13,3l6,0"></path><path fill="#b0bec5" d="M13,4l6,0c0.552,0 1,-0.448 1,-1c0,-0.552 -0.448,-1 -1,-1l-6,0c-0.552,0 -1,0.448 -1,1c0,0.552 0.448,1 1,1Z"></path><path fill="#e57373" d="M21.175,11.245c0.486,0.84 0.825,1.619 0.825,2.755c0,1.146 -0.077,1.985 -0.19,2.661l-1.81,1.339c-5,3 -2.597,5 -8.323,7l-1.551,0.572c0.101,-0.628 0.25,-1.261 0.402,-1.886c0.23,-0.943 0.472,-1.861 0.472,-2.686c0,-0.638 -0.051,-1.127 -0.128,-1.549l1.128,-0.451c4.793,-2 3,-4.495 8,-7l1.175,-0.755Z"></path></svg>