<?xml version="1.0" encoding="UTF-8"?>
<!DOCTYPE svg PUBLIC "-//W3C//DTD SVG 1.1//EN" "http://www.w3.org/Graphics/SVG/1.1/DTD/svg11.dtd">
<svg xmlns="http://www.w3.org/2000/svg" version="1.1" width="512px" height="512px" style="shape-rendering:geometricPrecision; text-rendering:geometricPrecision; image-rendering:optimizeQuality; fill-rule:evenodd; clip-rule:evenodd" xmlns:xlink="http://www.w3.org/1999/xlink">
<g><path style="opacity:0.96" fill="#eceaec" d="M 278.5,-0.5 C 289.833,-0.5 301.167,-0.5 312.5,-0.5C 378.754,10.5791 420.92,48.5791 439,113.5C 440.373,120.446 441.373,127.446 442,134.5C 442.5,208.833 442.667,283.166 442.5,357.5C 442.828,369.012 442.495,380.346 441.5,391.5C 442.132,385.294 439.299,381.961 433,381.5C 427.838,382.837 425.671,386.171 426.5,391.5C 425.505,380.346 425.172,369.012 425.5,357.5C 425.966,281.148 425.466,204.815 424,128.5C 414.723,75.2246 384.556,39.7246 333.5,22C 281.279,8.42746 236.446,20.9275 199,59.5C 176.061,86.4731 164.895,117.806 165.5,153.5C 185.836,153.333 206.169,153.5 226.5,154C 227.737,154.232 228.737,154.732 229.5,155.5C 207.383,185.456 185.05,215.29 162.5,245C 159.97,246.422 157.303,246.755 154.5,246C 130.869,216.217 107.869,186.051 85.5,155.5C 86.6085,154.71 87.9419,154.21 89.5,154C 109.164,153.5 128.831,153.333 148.5,153.5C 148.52,92.5982 174.52,46.7649 226.5,16C 243.071,7.69822 260.404,2.19822 278.5,-0.5 Z"/></g>
<g><path style="opacity:1" fill="#dbd9dc" d="M 85.5,155.5 C 107.869,186.051 130.869,216.217 154.5,246C 157.303,246.755 159.97,246.422 162.5,245C 185.05,215.29 207.383,185.456 229.5,155.5C 234.979,157.308 239.312,160.642 242.5,165.5C 229.332,182.841 216.332,200.341 203.5,218C 233.498,218.5 263.498,218.667 293.5,218.5C 296.003,223.773 297.003,229.439 296.5,235.5C 260.827,235.167 225.16,235.5 189.5,236.5C 184.358,243.477 179.024,250.31 173.5,257C 159.086,266.033 146.586,263.867 136,250.5C 132.622,245.578 129.122,240.745 125.5,236C 99.1667,235.333 72.8333,235.333 46.5,236C 41.2425,238.256 37.7425,242.09 36,247.5C 35.1698,274.336 35.3365,301.003 36.5,327.5C 35.506,369.094 35.1726,410.761 35.5,452.5C 35.0572,465.574 35.5572,478.574 37,491.5C 38.214,493.049 39.714,494.215 41.5,495C 53.4954,495.5 65.4954,495.667 77.5,495.5C 143.208,495.826 208.875,495.493 274.5,494.5C 281.313,495.491 288.313,495.825 295.5,495.5C 295.5,496.5 295.5,497.5 295.5,498.5C 294.401,504.594 291.068,508.927 285.5,511.5C 200.5,511.5 115.5,511.5 30.5,511.5C 25.1844,509.682 21.6844,506.016 20,500.5C 19.3333,407.833 19.3333,315.167 20,222.5C 20.4101,221.099 20.9101,219.766 21.5,218.5C 51.5074,218.833 81.5074,218.5 111.5,217.5C 99.5259,201.026 87.3593,184.692 75,168.5C 74.2086,167.255 73.7086,165.922 73.5,164.5C 76.4182,160.043 80.4182,157.043 85.5,155.5 Z"/></g>
<g><path style="opacity:0.98" fill="#eceaec" d="M 73.5,164.5 C 73.7086,165.922 74.2086,167.255 75,168.5C 87.3593,184.692 99.5259,201.026 111.5,217.5C 81.5074,218.5 51.5074,218.833 21.5,218.5C 22.3201,216.86 23.1534,215.193 24,213.5C 40.3681,196.965 56.8681,180.632 73.5,164.5 Z"/></g>
<g><path style="opacity:0.986" fill="#eceaec" d="M 242.5,165.5 C 259.132,181.632 275.632,197.965 292,214.5C 292.791,215.745 293.291,217.078 293.5,218.5C 263.498,218.667 233.498,218.5 203.5,218C 216.332,200.341 229.332,182.841 242.5,165.5 Z"/></g>
<g><path style="opacity:1" fill="#c9c6ca" d="M 141.5,178.5 C 151.839,178.334 162.172,178.5 172.5,179C 177.568,181.983 178.735,186.149 176,191.5C 174.745,192.211 173.579,193.044 172.5,194C 162.167,194.667 151.833,194.667 141.5,194C 136.208,188.835 136.208,183.668 141.5,178.5 Z"/></g>
<g><path style="opacity:0.992" fill="#eceaec" d="M 296.5,235.5 C 296.833,323.335 296.499,411.002 295.5,498.5C 295.5,497.5 295.5,496.5 295.5,495.5C 288.313,495.825 281.313,495.491 274.5,494.5C 276.129,493.375 277.629,492.041 279,490.5C 279.667,436.167 279.667,381.833 279,327.5C 277.833,326.333 276.667,325.167 275.5,324C 243.322,314.38 210.988,314.046 178.5,323C 166.198,324.451 153.865,324.785 141.5,324C 130.783,322.257 120.116,320.257 109.5,318C 92.7697,315.738 76.103,316.071 59.5,319C 53.6165,320.843 47.6165,322.177 41.5,323C 39.3395,323.996 37.6728,325.496 36.5,327.5C 35.3365,301.003 35.1698,274.336 36,247.5C 37.7425,242.09 41.2425,238.256 46.5,236C 72.8333,235.333 99.1667,235.333 125.5,236C 129.122,240.745 132.622,245.578 136,250.5C 146.586,263.867 159.086,266.033 173.5,257C 179.024,250.31 184.358,243.477 189.5,236.5C 225.16,235.5 260.827,235.167 296.5,235.5 Z"/></g>
<g><path style="opacity:1" fill="#9a6c5e" d="M 274.5,494.5 C 208.875,495.493 143.208,495.826 77.5,495.5C 54.7306,489.731 40.7306,475.397 35.5,452.5C 35.1726,410.761 35.506,369.094 36.5,327.5C 37.6728,325.496 39.3395,323.996 41.5,323C 47.6165,322.177 53.6165,320.843 59.5,319C 76.103,316.071 92.7697,315.738 109.5,318C 120.116,320.257 130.783,322.257 141.5,324C 153.865,324.785 166.198,324.451 178.5,323C 210.988,314.046 243.322,314.38 275.5,324C 276.667,325.167 277.833,326.333 279,327.5C 279.667,381.833 279.667,436.167 279,490.5C 277.629,492.041 276.129,493.375 274.5,494.5 Z"/></g>
<g><path style="opacity:1" fill="#785353" d="M 194.5,349.5 C 201.242,347.757 205.242,350.257 206.5,357C 204.104,364.761 199.27,366.595 192,362.5C 189.458,357.438 190.292,353.105 194.5,349.5 Z"/></g>
<g><path style="opacity:1" fill="#785353" d="M 72.5,357.5 C 75.6492,357.211 78.6492,357.711 81.5,359C 85,362.5 88.5,366 92,369.5C 93.6635,378.167 90.1635,382 81.5,381C 75.2358,377.085 70.9025,371.752 68.5,365C 68.6667,363.833 68.8333,362.667 69,361.5C 70.3756,360.295 71.5423,358.962 72.5,357.5 Z"/></g>
<g><path style="opacity:0.989" fill="#fee0a0" d="M 425.5,357.5 C 425.172,369.012 425.505,380.346 426.5,391.5C 427.126,395.74 429.626,397.74 434,397.5C 438.374,397.74 440.874,395.74 441.5,391.5C 442.495,380.346 442.828,369.012 442.5,357.5C 458.336,368.491 473.169,380.824 487,394.5C 488.927,397.948 490.261,401.615 491,405.5C 491.5,435.498 491.667,465.498 491.5,495.5C 467.164,495.667 442.831,495.5 418.5,495C 405.693,491.526 397.526,483.36 394,470.5C 393.5,441.502 393.333,412.502 393.5,383.5C 403.272,373.727 413.939,365.061 425.5,357.5 Z"/></g>
<g><path style="opacity:1" fill="#b57e5e" d="M 137.5,373.5 C 142.509,372.771 146.342,374.437 149,378.5C 149.667,383.167 149.667,387.833 149,392.5C 146.459,397.069 142.625,398.569 137.5,397C 135.951,395.786 134.785,394.286 134,392.5C 133.333,387.5 133.333,382.5 134,377.5C 135.376,376.295 136.542,374.962 137.5,373.5 Z"/></g>
<g><path style="opacity:1" fill="#b57e5e" d="M 235.5,373.5 C 244.152,372.986 247.652,376.986 246,385.5C 242.167,389.333 238.333,393.167 234.5,397C 225.833,398.663 222,395.163 223,386.5C 226.697,381.638 230.864,377.304 235.5,373.5 Z"/></g>
<g><path style="opacity:1" fill="#dbd9db" d="M 441.5,391.5 C 440.874,395.74 438.374,397.74 434,397.5C 429.626,397.74 427.126,395.74 426.5,391.5C 425.671,386.171 427.838,382.837 433,381.5C 439.299,381.961 442.132,385.294 441.5,391.5 Z"/></g>
<g><path style="opacity:1" fill="#f7d291" d="M 393.5,383.5 C 393.333,412.502 393.5,441.502 394,470.5C 397.526,483.36 405.693,491.526 418.5,495C 442.831,495.5 467.164,495.667 491.5,495.5C 491.665,498.85 491.498,502.183 491,505.5C 490.401,508.254 488.901,510.254 486.5,511.5C 451.5,511.5 416.5,511.5 381.5,511.5C 379.099,510.254 377.599,508.254 377,505.5C 376.333,471.833 376.333,438.167 377,404.5C 379.691,395.308 385.191,388.308 393.5,383.5 Z"/></g>
<g><path style="opacity:1" fill="#b57e5e" d="M 56.5,406.5 C 64.167,405.024 68.0003,408.024 68,415.5C 66.1706,421.158 62.3373,422.992 56.5,421C 52.7885,418.487 51.6218,414.987 53,410.5C 53.6897,408.65 54.8564,407.316 56.5,406.5 Z"/></g>
<g><path style="opacity:1" fill="#785353" d="M 170.5,414.5 C 177.067,413.097 180.733,415.597 181.5,422C 181.419,427.249 178.752,430.082 173.5,430.5C 166.956,428.969 164.789,424.969 167,418.5C 167.69,416.65 168.856,415.316 170.5,414.5 Z"/></g>
<g><path style="opacity:1" fill="#b57e5e" d="M 105.5,422.5 C 111.29,422.096 116.956,422.596 122.5,424C 124.429,427.256 124.929,430.756 124,434.5C 122.786,436.049 121.286,437.215 119.5,438C 114.833,438.667 110.167,438.667 105.5,438C 98.9971,432.614 98.9971,427.448 105.5,422.5 Z"/></g>
<g><path style="opacity:1" fill="#795353" d="M 251.5,422.5 C 260.88,421.653 264.38,425.653 262,434.5C 256.919,439.986 252.252,439.653 248,433.5C 246.662,428.96 247.829,425.293 251.5,422.5 Z"/></g>
<g><path style="opacity:1" fill="#b57e5e" d="M 203.5,446.5 C 208.194,445.7 211.694,447.367 214,451.5C 214.839,456.921 214.506,462.254 213,467.5C 207.967,471.779 203.3,471.446 199,466.5C 198.333,461.5 198.333,456.5 199,451.5C 200.025,449.313 201.525,447.646 203.5,446.5 Z"/></g>
<g><path style="opacity:1" fill="#7a5554" d="M 35.5,452.5 C 40.7306,475.397 54.7306,489.731 77.5,495.5C 65.4954,495.667 53.4954,495.5 41.5,495C 39.714,494.215 38.214,493.049 37,491.5C 35.5572,478.574 35.0572,465.574 35.5,452.5 Z"/></g>
<g><path style="opacity:1" fill="#795353" d="M 81.5,462.5 C 89.8652,462.36 93.3652,466.36 92,474.5C 87.6248,479.381 82.9581,479.715 78,475.5C 76.7496,472.923 76.4163,470.257 77,467.5C 78.7073,465.963 80.2073,464.296 81.5,462.5 Z"/></g>
<g><path style="opacity:1" fill="#b57e5e" d="M 146.5,462.5 C 154.865,462.36 158.365,466.36 157,474.5C 152.625,479.381 147.958,479.715 143,475.5C 141.75,472.923 141.416,470.257 142,467.5C 143.707,465.963 145.207,464.296 146.5,462.5 Z"/></g>
</svg>
