<?xml version="1.0" encoding="UTF-8"?>
<!DOCTYPE svg PUBLIC "-//W3C//DTD SVG 1.1//EN" "http://www.w3.org/Graphics/SVG/1.1/DTD/svg11.dtd">
<svg xmlns="http://www.w3.org/2000/svg" version="1.1" width="512px" height="512px" style="shape-rendering:geometricPrecision; text-rendering:geometricPrecision; image-rendering:optimizeQuality; fill-rule:evenodd; clip-rule:evenodd" xmlns:xlink="http://www.w3.org/1999/xlink">
<g><path style="opacity:0.985" fill="#efecef" d="M 240.5,-0.5 C 245.5,-0.5 250.5,-0.5 255.5,-0.5C 256.172,0.267389 257.005,0.934056 258,1.5C 258.5,14.4957 258.667,27.4957 258.5,40.5C 251.833,40.5 245.167,40.5 238.5,40.5C 238.333,27.4957 238.5,14.4957 239,1.5C 239.717,0.955796 240.217,0.28913 240.5,-0.5 Z"/></g>
<g><path style="opacity:0.978" fill="#e5e1e5" d="M 255.5,-0.5 C 260.5,-0.5 265.5,-0.5 270.5,-0.5C 270.783,0.28913 271.283,0.955796 272,1.5C 272.5,14.4957 272.667,27.4957 272.5,40.5C 267.833,40.5 263.167,40.5 258.5,40.5C 258.667,27.4957 258.5,14.4957 258,1.5C 257.005,0.934056 256.172,0.267389 255.5,-0.5 Z"/></g>
<g><path style="opacity:0.997" fill="#7a6d79" d="M 238.5,40.5 C 245.167,40.5 251.833,40.5 258.5,40.5C 263.167,40.5 267.833,40.5 272.5,40.5C 278.5,40.5 284.5,40.5 290.5,40.5C 295.729,42.5595 299.563,46.2262 302,51.5C 302.5,61.4944 302.666,71.4944 302.5,81.5C 260.833,81.5 219.167,81.5 177.5,81.5C 177.334,71.1613 177.5,60.828 178,50.5C 179.833,46 183,42.8333 187.5,41C 204.497,40.5001 221.497,40.3334 238.5,40.5 Z"/></g>
<g><path style="opacity:0.994" fill="#685e68" d="M 290.5,40.5 C 301.505,40.3335 312.505,40.5002 323.5,41C 328,42.8333 331.167,46 333,50.5C 333.5,60.828 333.666,71.1613 333.5,81.5C 323.167,81.5 312.833,81.5 302.5,81.5C 302.666,71.4944 302.5,61.4944 302,51.5C 299.563,46.2262 295.729,42.5595 290.5,40.5 Z"/></g>
<g><path style="opacity:0.999" fill="#9ec7fb" d="M 177.5,81.5 C 219.167,81.5 260.833,81.5 302.5,81.5C 312.833,81.5 323.167,81.5 333.5,81.5C 328.015,82.3272 322.348,82.8272 316.5,83C 321,84.8333 324.167,88 326,92.5C 326.667,128.5 326.667,164.5 326,200.5C 324.65,205.185 321.817,208.685 317.5,211C 326.01,211.171 334.343,211.671 342.5,212.5C 332.167,212.5 321.833,212.5 311.5,212.5C 263.833,212.5 216.167,212.5 168.5,212.5C 161.379,212.52 156.546,209.187 154,202.5C 153.333,165.5 153.333,128.5 154,91.5C 159.283,82.6178 167.116,79.2845 177.5,81.5 Z"/></g>
<g><path style="opacity:0.992" fill="#80b6fc" d="M 333.5,81.5 C 343.884,79.2845 351.717,82.6178 357,91.5C 357.667,128.5 357.667,165.5 357,202.5C 354.454,209.187 349.621,212.52 342.5,212.5C 334.343,211.671 326.01,211.171 317.5,211C 321.817,208.685 324.65,205.185 326,200.5C 326.667,164.5 326.667,128.5 326,92.5C 324.167,88 321,84.8333 316.5,83C 322.348,82.8272 328.015,82.3272 333.5,81.5 Z"/></g>
<g><path style="opacity:1" fill="#fee077" d="M 198.5,139.5 C 236.168,139.333 273.835,139.5 311.5,140C 316.689,142.913 317.856,147.08 315,152.5C 314.25,153.126 313.416,153.626 312.5,154C 274.5,154.667 236.5,154.667 198.5,154C 194.788,151.487 193.622,147.987 195,143.5C 196.376,142.295 197.542,140.962 198.5,139.5 Z"/></g>
<g><path style="opacity:0.996" fill="#eeecee" d="M 168.5,212.5 C 216.167,212.5 263.833,212.5 311.5,212.5C 311.5,224.5 311.5,236.5 311.5,248.5C 263.833,248.5 216.167,248.5 168.5,248.5C 168.5,236.5 168.5,224.5 168.5,212.5 Z"/></g>
<g><path style="opacity:1" fill="#e3e0e6" d="M 311.5,212.5 C 321.833,212.5 332.167,212.5 342.5,212.5C 342.5,224.5 342.5,236.5 342.5,248.5C 333.682,249.493 324.682,249.827 315.5,249.5C 266.33,249.832 217.33,249.499 168.5,248.5C 216.167,248.5 263.833,248.5 311.5,248.5C 311.5,236.5 311.5,224.5 311.5,212.5 Z"/></g>
<g><path style="opacity:0.999" fill="#9ec8fb" d="M 168.5,248.5 C 217.33,249.499 266.33,249.832 315.5,249.5C 320.789,251.292 324.289,254.959 326,260.5C 326.5,288.165 326.667,315.831 326.5,343.5C 323.5,343.5 320.5,343.5 317.5,343.5C 315.436,343.313 313.436,342.813 311.5,342C 304.895,337.195 297.562,334.361 289.5,333.5C 285.307,333.398 281.307,334.231 277.5,336C 273.192,338.988 268.525,341.155 263.5,342.5C 263.826,333.651 263.493,324.984 262.5,316.5C 261.327,313.246 258.994,312.08 255.5,313C 249.778,321.612 244.445,330.445 239.5,339.5C 230.168,333.054 220.168,331.887 209.5,336C 195.656,345.542 181.656,345.875 167.5,337C 163.03,334.925 158.364,333.758 153.5,333.5C 153.333,308.831 153.5,284.164 154,259.5C 156.699,252.962 161.532,249.295 168.5,248.5 Z"/></g>
<g><path style="opacity:0.994" fill="#80b6fb" d="M 342.5,248.5 C 349.468,249.295 354.301,252.962 357,259.5C 357.5,284.164 357.667,308.831 357.5,333.5C 354.09,333.457 350.757,333.957 347.5,335C 343.167,337.333 338.833,339.667 334.5,342C 331.937,343.079 329.271,343.579 326.5,343.5C 326.667,315.831 326.5,288.165 326,260.5C 324.289,254.959 320.789,251.292 315.5,249.5C 324.682,249.827 333.682,249.493 342.5,248.5 Z"/></g>
<g><path style="opacity:1" fill="#fee077" d="M 262.5,316.5 C 262.032,331.93 262.532,347.263 264,362.5C 264.75,363.126 265.584,363.626 266.5,364C 276.5,364.333 286.5,364.667 296.5,365C 298.444,367.153 298.944,369.653 298,372.5C 286.893,390.39 276.059,408.39 265.5,426.5C 260.399,433.849 255.399,441.349 250.5,449C 247.006,449.92 244.673,448.754 243.5,445.5C 243.97,429.071 243.47,412.738 242,396.5C 241.25,395.874 240.416,395.374 239.5,395C 231.167,394.667 222.833,394.333 214.5,394C 212.876,392.883 211.876,391.383 211.5,389.5C 220.422,372.584 229.756,355.917 239.5,339.5C 244.445,330.445 249.778,321.612 255.5,313C 258.994,312.08 261.327,313.246 262.5,316.5 Z"/></g>
<g><path style="opacity:1" fill="#eeecee" d="M 153.5,333.5 C 158.364,333.758 163.03,334.925 167.5,337C 181.656,345.875 195.656,345.542 209.5,336C 220.168,331.887 230.168,333.054 239.5,339.5C 229.756,355.917 220.422,372.584 211.5,389.5C 211.876,391.383 212.876,392.883 214.5,394C 222.833,394.333 231.167,394.667 239.5,395C 240.416,395.374 241.25,395.874 242,396.5C 243.47,412.738 243.97,429.071 243.5,445.5C 242.672,439.013 242.172,432.346 242,425.5C 227.437,414.759 212.937,414.926 198.5,426C 190.818,429.27 183.151,429.27 175.5,426C 169.103,420.812 161.769,418.312 153.5,418.5C 153.5,390.167 153.5,361.833 153.5,333.5 Z"/></g>
<g><path style="opacity:1" fill="#eeecee" d="M 262.5,316.5 C 263.493,324.984 263.826,333.651 263.5,342.5C 268.525,341.155 273.192,338.988 277.5,336C 281.307,334.231 285.307,333.398 289.5,333.5C 297.562,334.361 304.895,337.195 311.5,342C 313.436,342.813 315.436,343.313 317.5,343.5C 320.287,344.477 323.287,344.81 326.5,344.5C 326.5,372.167 326.5,399.833 326.5,427.5C 323.5,427.5 320.5,427.5 317.5,427.5C 311.562,425.758 305.895,423.258 300.5,420C 292.818,416.73 285.151,416.73 277.5,420C 273.633,422.433 269.633,424.6 265.5,426.5C 276.059,408.39 286.893,390.39 298,372.5C 298.944,369.653 298.444,367.153 296.5,365C 286.5,364.667 276.5,364.333 266.5,364C 265.584,363.626 264.75,363.126 264,362.5C 262.532,347.263 262.032,331.93 262.5,316.5 Z"/></g>
<g><path style="opacity:0.996" fill="#e4e0e5" d="M 357.5,333.5 C 357.5,361.833 357.5,390.167 357.5,418.5C 354.482,418.335 351.482,418.502 348.5,419C 341.525,422.987 334.192,426.154 326.5,428.5C 323.287,428.81 320.287,428.477 317.5,427.5C 320.5,427.5 323.5,427.5 326.5,427.5C 326.5,399.833 326.5,372.167 326.5,344.5C 323.287,344.81 320.287,344.477 317.5,343.5C 320.5,343.5 323.5,343.5 326.5,343.5C 329.271,343.579 331.937,343.079 334.5,342C 338.833,339.667 343.167,337.333 347.5,335C 350.757,333.957 354.09,333.457 357.5,333.5 Z"/></g>
<g><path style="opacity:0.999" fill="#9ec8fb" d="M 243.5,445.5 C 244.673,448.754 247.006,449.92 250.5,449C 255.399,441.349 260.399,433.849 265.5,426.5C 269.633,424.6 273.633,422.433 277.5,420C 285.151,416.73 292.818,416.73 300.5,420C 305.895,423.258 311.562,425.758 317.5,427.5C 320.287,428.477 323.287,428.81 326.5,428.5C 326.667,452.169 326.5,475.836 326,499.5C 323.981,505.35 320.148,509.35 314.5,511.5C 264.167,511.5 213.833,511.5 163.5,511.5C 159.189,509.353 156.022,506.02 154,501.5C 153.5,473.835 153.333,446.169 153.5,418.5C 161.769,418.312 169.103,420.812 175.5,426C 183.151,429.27 190.818,429.27 198.5,426C 212.937,414.926 227.437,414.759 242,425.5C 242.172,432.346 242.672,439.013 243.5,445.5 Z"/></g>
<g><path style="opacity:0.995" fill="#80b6fb" d="M 357.5,418.5 C 357.667,446.169 357.5,473.835 357,501.5C 354.978,506.02 351.811,509.353 347.5,511.5C 336.5,511.5 325.5,511.5 314.5,511.5C 320.148,509.35 323.981,505.35 326,499.5C 326.5,475.836 326.667,452.169 326.5,428.5C 334.192,426.154 341.525,422.987 348.5,419C 351.482,418.502 354.482,418.335 357.5,418.5 Z"/></g>
</svg>
