<?xml version="1.0" encoding="UTF-8"?>
<!DOCTYPE svg PUBLIC "-//W3C//DTD SVG 1.1//EN" "http://www.w3.org/Graphics/SVG/1.1/DTD/svg11.dtd">
<svg xmlns="http://www.w3.org/2000/svg" version="1.1" width="512px" height="512px" style="shape-rendering:geometricPrecision; text-rendering:geometricPrecision; image-rendering:optimizeQuality; fill-rule:evenodd; clip-rule:evenodd" xmlns:xlink="http://www.w3.org/1999/xlink">
<g><path style="opacity:0.995" fill="#fed064" d="M 150.5,-0.5 C 152.5,-0.5 154.5,-0.5 156.5,-0.5C 156.177,7.01933 159.51,12.186 166.5,15C 234.499,15.5 302.499,15.6667 370.5,15.5C 370.692,23.1309 367.358,28.4642 360.5,31.5C 290.5,31.5 220.5,31.5 150.5,31.5C 140.284,25.2739 137.784,16.6073 143,5.5C 145.114,2.87922 147.614,0.879222 150.5,-0.5 Z"/></g>
<g><path style="opacity:0.998" fill="#ffe07c" d="M 156.5,-0.5 C 224.5,-0.5 292.5,-0.5 360.5,-0.5C 367.367,2.55833 370.701,7.89166 370.5,15.5C 302.499,15.6667 234.499,15.5 166.5,15C 159.51,12.186 156.177,7.01933 156.5,-0.5 Z"/></g>
<g><path style="opacity:0.996" fill="#6a61b2" d="M 150.5,31.5 C 220.5,31.5 290.5,31.5 360.5,31.5C 372.358,34.0293 380.025,41.0293 383.5,52.5C 306.499,52.3333 229.499,52.5 152.5,53C 149.619,54.2506 147.786,56.4173 147,59.5C 146.5,68.1603 146.334,76.8269 146.5,85.5C 139.5,85.5 132.5,85.5 125.5,85.5C 125.334,75.8276 125.5,66.1609 126,56.5C 128.945,43.0552 137.111,34.7219 150.5,31.5 Z"/></g>
<g><path style="opacity:0.998" fill="#8079bc" d="M 383.5,52.5 C 384.29,53.6085 384.79,54.9419 385,56.5C 385.5,66.4944 385.666,76.4944 385.5,86.5C 305.833,86.5 226.167,86.5 146.5,86.5C 139.5,86.5 132.5,86.5 125.5,86.5C 125.5,86.1667 125.5,85.8333 125.5,85.5C 132.5,85.5 139.5,85.5 146.5,85.5C 146.334,76.8269 146.5,68.1603 147,59.5C 147.786,56.4173 149.619,54.2506 152.5,53C 229.499,52.5 306.499,52.3333 383.5,52.5 Z"/></g>
<g><path style="opacity:0.976" fill="#fecf64" d="M 125.5,86.5 C 132.5,86.5 139.5,86.5 146.5,86.5C 146.5,99.5 146.5,112.5 146.5,125.5C 139.5,125.5 132.5,125.5 125.5,125.5C 125.5,112.5 125.5,99.5 125.5,86.5 Z"/></g>
<g><path style="opacity:0.998" fill="#fedf7c" d="M 146.5,86.5 C 226.167,86.5 305.833,86.5 385.5,86.5C 385.5,99.5 385.5,112.5 385.5,125.5C 305.833,125.5 226.167,125.5 146.5,125.5C 146.5,112.5 146.5,99.5 146.5,86.5 Z"/></g>
<g><path style="opacity:1" fill="#a093aa" d="M 125.5,126.5 C 125.5,126.167 125.5,125.833 125.5,125.5C 132.5,125.5 139.5,125.5 146.5,125.5C 226.167,125.5 305.833,125.5 385.5,125.5C 385.5,126.167 385.5,126.833 385.5,127.5C 305.904,126.503 226.237,126.17 146.5,126.5C 139.5,126.5 132.5,126.5 125.5,126.5 Z"/></g>
<g><path style="opacity:1" fill="#6a61b2" d="M 125.5,126.5 C 132.5,126.5 139.5,126.5 146.5,126.5C 146.5,212.5 146.5,298.5 146.5,384.5C 139.5,384.5 132.5,384.5 125.5,384.5C 125.5,298.5 125.5,212.5 125.5,126.5 Z"/></g>
<g><path style="opacity:0.996" fill="#7f78bc" d="M 146.5,126.5 C 226.237,126.17 305.904,126.503 385.5,127.5C 385.5,213.5 385.5,299.5 385.5,385.5C 305.833,385.5 226.167,385.5 146.5,385.5C 139.5,385.5 132.5,385.5 125.5,385.5C 125.5,385.167 125.5,384.833 125.5,384.5C 132.5,384.5 139.5,384.5 146.5,384.5C 146.5,298.5 146.5,212.5 146.5,126.5 Z"/></g>
<g><path style="opacity:1" fill="#fecf64" d="M 331.5,318.5 C 331.44,317.957 331.107,317.624 330.5,317.5C 295.986,337.805 260.986,338.638 225.5,320C 186.38,293.681 171.214,257.181 180,210.5C 182.875,199.684 187.375,189.684 193.5,180.5C 193.376,179.893 193.043,179.56 192.5,179.5C 227.935,152.437 265.601,149.271 305.5,170C 346.86,197.733 361.694,235.9 350,284.5C 346.135,297.241 339.968,308.574 331.5,318.5 Z"/></g>
<g><path style="opacity:1" fill="#fdc151" d="M 192.5,179.5 C 193.043,179.56 193.376,179.893 193.5,180.5C 187.375,189.684 182.875,199.684 180,210.5C 171.214,257.181 186.38,293.681 225.5,320C 260.986,338.638 295.986,337.805 330.5,317.5C 331.107,317.624 331.44,317.957 331.5,318.5C 313.59,339.791 290.59,351.624 262.5,354C 228.871,355.768 201.037,343.935 179,318.5C 151.319,280.504 149.319,241.171 173,200.5C 178.631,192.702 185.131,185.702 192.5,179.5 Z"/></g>
<g><path style="opacity:1" fill="#dc4b55" d="M 255.5,221.5 C 247.881,237.409 240.214,253.409 232.5,269.5C 227.544,270.494 222.544,270.827 217.5,270.5C 228.892,244.049 240.559,217.716 252.5,191.5C 253.5,191.5 254.5,191.5 255.5,191.5C 255.5,201.5 255.5,211.5 255.5,221.5 Z"/></g>
<g><path style="opacity:1" fill="#df656d" d="M 255.5,221.5 C 255.334,226.844 255.501,232.177 256,237.5C 256.833,238.333 257.667,239.167 258.5,240C 270.162,240.5 281.829,240.667 293.5,240.5C 286.349,257.464 278.683,274.131 270.5,290.5C 270.666,284.824 270.499,279.157 270,273.5C 269.5,273 269,272.5 268.5,272C 263.316,271.184 258.316,271.35 253.5,272.5C 241.402,271.852 229.402,271.186 217.5,270.5C 222.544,270.827 227.544,270.494 232.5,269.5C 240.214,253.409 247.881,237.409 255.5,221.5 Z"/></g>
<g><path style="opacity:1" fill="#dc4a55" d="M 270.5,290.5 C 266.646,300.542 261.979,310.209 256.5,319.5C 255.667,304.511 255.167,289.511 255,274.5C 254.283,273.956 253.783,273.289 253.5,272.5C 258.316,271.35 263.316,271.184 268.5,272C 269,272.5 269.5,273 270,273.5C 270.499,279.157 270.666,284.824 270.5,290.5 Z"/></g>
<g><path style="opacity:0.976" fill="#fecf64" d="M 125.5,385.5 C 132.5,385.5 139.5,385.5 146.5,385.5C 146.5,398.5 146.5,411.5 146.5,424.5C 139.5,424.5 132.5,424.5 125.5,424.5C 125.5,411.5 125.5,398.5 125.5,385.5 Z"/></g>
<g><path style="opacity:0.998" fill="#fedf7c" d="M 146.5,385.5 C 226.167,385.5 305.833,385.5 385.5,385.5C 385.5,398.5 385.5,411.5 385.5,424.5C 305.833,424.5 226.167,424.5 146.5,424.5C 146.5,411.5 146.5,398.5 146.5,385.5 Z"/></g>
<g><path style="opacity:0.995" fill="#6a61b2" d="M 125.5,425.5 C 132.5,425.5 139.5,425.5 146.5,425.5C 146.334,434.173 146.5,442.84 147,451.5C 147.786,454.583 149.619,456.749 152.5,458C 229.499,458.5 306.499,458.667 383.5,458.5C 380.025,469.971 372.358,476.971 360.5,479.5C 290.665,479.167 220.998,479.501 151.5,480.5C 151.167,480.5 150.833,480.5 150.5,480.5C 137.174,479.012 129.007,471.678 126,458.5C 125.5,447.505 125.333,436.505 125.5,425.5 Z"/></g>
<g><path style="opacity:0.998" fill="#8079bc" d="M 125.5,425.5 C 125.5,425.167 125.5,424.833 125.5,424.5C 132.5,424.5 139.5,424.5 146.5,424.5C 226.167,424.5 305.833,424.5 385.5,424.5C 385.666,434.506 385.5,444.506 385,454.5C 384.79,456.058 384.29,457.391 383.5,458.5C 306.499,458.667 229.499,458.5 152.5,458C 149.619,456.749 147.786,454.583 147,451.5C 146.5,442.84 146.334,434.173 146.5,425.5C 139.5,425.5 132.5,425.5 125.5,425.5 Z"/></g>
<g><path style="opacity:0.998" fill="#fedf7c" d="M 151.5,480.5 C 220.998,479.501 290.665,479.167 360.5,479.5C 367.669,482.828 371.002,488.495 370.5,496.5C 303.499,496.667 236.499,496.5 169.5,496C 161.31,493.983 156.977,488.816 156.5,480.5C 154.833,480.5 153.167,480.5 151.5,480.5 Z"/></g>
<g><path style="opacity:0.995" fill="#ffd063" d="M 150.5,480.5 C 150.833,480.5 151.167,480.5 151.5,480.5C 153.167,480.5 154.833,480.5 156.5,480.5C 156.977,488.816 161.31,493.983 169.5,496C 236.499,496.5 303.499,496.667 370.5,496.5C 370.312,503.674 366.978,508.674 360.5,511.5C 290.5,511.5 220.5,511.5 150.5,511.5C 139.871,504.702 137.705,495.702 144,484.5C 145.638,482.266 147.805,480.933 150.5,480.5 Z"/></g>
</svg>
