<?xml version="1.0" encoding="UTF-8"?>
<!DOCTYPE svg PUBLIC "-//W3C//DTD SVG 1.1//EN" "http://www.w3.org/Graphics/SVG/1.1/DTD/svg11.dtd">
<svg xmlns="http://www.w3.org/2000/svg" version="1.1" width="512px" height="512px" style="shape-rendering:geometricPrecision; text-rendering:geometricPrecision; image-rendering:optimizeQuality; fill-rule:evenodd; clip-rule:evenodd" xmlns:xlink="http://www.w3.org/1999/xlink">
<g><path style="opacity:0.952" fill="#b2caec" d="M 191.5,16.5 C 197.975,15.23 201.975,17.73 203.5,24C 202.424,37.3193 196.924,48.486 187,57.5C 181.548,65.6501 181.215,73.9834 186,82.5C 208.348,105.045 208.681,127.712 187,150.5C 183.938,155.745 182.272,161.412 182,167.5C 177,172.833 172,172.833 167,167.5C 165.691,158.038 167.691,149.372 173,141.5C 190.53,126.067 190.863,110.4 174,94.5C 165.216,80.7401 164.216,66.4067 171,51.5C 174.76,46.3175 178.76,41.3175 183,36.5C 185.581,31.1105 187.247,25.4438 188,19.5C 189.145,18.3636 190.312,17.3636 191.5,16.5 Z"/></g>
<g><path style="opacity:0.952" fill="#b1caec" d="M 248.5,16.5 C 259.651,16.1852 263.484,21.5185 260,32.5C 259.261,36.3852 257.927,40.0519 256,43.5C 250.947,49.5521 246.281,55.8854 242,62.5C 239.447,70.2994 240.447,77.6328 245,84.5C 261.012,99.2165 264.679,116.55 256,136.5C 250.947,142.552 246.281,148.885 242,155.5C 241.081,159.87 240.081,164.203 239,168.5C 235.281,171.902 231.114,172.402 226.5,170C 223.195,160.356 224.361,151.189 230,142.5C 233.333,138.5 236.667,134.5 240,130.5C 245.561,122.358 245.894,114.025 241,105.5C 235.947,99.4479 231.281,93.1146 227,86.5C 222.9,73.7137 223.9,61.3804 230,49.5C 234.38,44.7886 238.38,39.7886 242,34.5C 243.737,30.3388 244.737,26.0055 245,21.5C 245.997,19.6769 247.164,18.0103 248.5,16.5 Z"/></g>
<g><path style="opacity:0.952" fill="#b2caec" d="M 306.5,16.5 C 316.599,15.7779 320.432,20.4446 318,30.5C 317.327,35.5195 315.66,40.1861 313,44.5C 308.667,50.1667 304.333,55.8333 300,61.5C 297.58,69.1264 298.247,76.4598 302,83.5C 310.449,91.0661 315.782,100.399 318,111.5C 319.285,120.741 317.618,129.408 313,137.5C 308.667,143.167 304.333,148.833 300,154.5C 299.125,159.633 297.792,164.633 296,169.5C 287.892,173.695 283.059,171.362 281.5,162.5C 282.018,155.78 283.851,149.447 287,143.5C 291.24,138.683 295.24,133.683 299,128.5C 303.723,120.316 303.39,112.316 298,104.5C 275.84,81.2388 276.173,58.2388 299,35.5C 300.964,30.6825 302.298,25.6825 303,20.5C 303.69,18.6498 304.856,17.3164 306.5,16.5 Z"/></g>
<g><path style="opacity:0.996" fill="#444544" d="M 166.5,199.5 C 165.503,216.659 165.17,233.992 165.5,251.5C 165.667,263.838 165.5,276.171 165,288.5C 159.264,294.282 154.598,293.616 151,286.5C 150.5,275.172 150.333,263.838 150.5,252.5C 150.5,234.833 150.5,217.167 150.5,199.5C 151.775,191.598 156.109,189.431 163.5,193C 165.451,194.734 166.451,196.901 166.5,199.5 Z"/></g>
<g><path style="opacity:0.997" fill="#eaeaea" d="M 150.5,199.5 C 150.5,217.167 150.5,234.833 150.5,252.5C 139.506,262.661 129.006,273.328 119,284.5C 118.333,309.167 118.333,333.833 119,358.5C 120.167,361 122,362.833 124.5,364C 146.833,364.667 169.167,364.667 191.5,364C 194.756,362.413 196.923,359.913 198,356.5C 198.667,332.833 198.667,309.167 198,285.5C 188.029,273.362 177.196,262.029 165.5,251.5C 165.17,233.992 165.503,216.659 166.5,199.5C 240.5,199.5 314.5,199.5 388.5,199.5C 392.479,201.315 395.312,204.315 397,208.5C 397.667,229.5 397.667,250.5 397,271.5C 390.628,338.129 359.461,389.296 303.5,425C 278.622,439.681 251.955,448.847 223.5,452.5C 221.167,452.5 218.833,452.5 216.5,452.5C 145.613,440.475 94.4465,402.141 63,337.5C 54.3774,317.343 49.0441,296.343 47,274.5C 46.0308,251.103 46.3642,227.77 48,204.5C 49.5429,202.622 51.3762,201.122 53.5,200C 85.8316,199.5 118.165,199.333 150.5,199.5 Z"/></g>
<g><path style="opacity:0.989" fill="#e2e2e2" d="M 388.5,199.5 C 403.597,199.033 418.597,199.533 433.5,201C 435.617,202.731 437.117,204.898 438,207.5C 438.5,220.829 438.667,234.163 438.5,247.5C 448.839,247.334 459.172,247.5 469.5,248C 491.489,252.827 505.489,265.993 511.5,287.5C 511.5,295.833 511.5,304.167 511.5,312.5C 501.68,360.487 472.68,389.32 424.5,399C 408.833,399.333 393.167,399.667 377.5,400C 346.637,428.764 310.304,446.264 268.5,452.5C 253.48,453.689 238.48,453.689 223.5,452.5C 251.955,448.847 278.622,439.681 303.5,425C 359.461,389.296 390.628,338.129 397,271.5C 397.667,250.5 397.667,229.5 397,208.5C 395.312,204.315 392.479,201.315 388.5,199.5 Z M 449.5,360.5 C 434.969,368.715 419.303,372.382 402.5,371.5C 422.567,342.674 434.234,310.674 437.5,275.5C 446.173,275.334 454.84,275.5 463.5,276C 473.78,277.613 480.28,283.447 483,293.5C 484.29,312.627 478.957,329.627 467,344.5C 461.57,350.437 455.737,355.77 449.5,360.5 Z"/></g>
<g><path style="opacity:1" fill="#57bd92" d="M 165.5,251.5 C 177.196,262.029 188.029,273.362 198,285.5C 198.667,309.167 198.667,332.833 198,356.5C 196.923,359.913 194.756,362.413 191.5,364C 169.167,364.667 146.833,364.667 124.5,364C 122,362.833 120.167,361 119,358.5C 118.333,333.833 118.333,309.167 119,284.5C 129.006,273.328 139.506,262.661 150.5,252.5C 150.333,263.838 150.5,275.172 151,286.5C 154.598,293.616 159.264,294.282 165,288.5C 165.5,276.171 165.667,263.838 165.5,251.5 Z"/></g>
<g><path style="opacity:0.974" fill="#eaeaea" d="M 449.5,360.5 C 431.484,383.51 407.818,396.01 378.5,398C 386.868,389.377 394.868,380.544 402.5,371.5C 419.303,372.382 434.969,368.715 449.5,360.5 Z"/></g>
<g><path style="opacity:0.977" fill="#bebebe" d="M 216.5,452.5 C 218.833,452.5 221.167,452.5 223.5,452.5C 238.48,453.689 253.48,453.689 268.5,452.5C 324.833,452.5 381.167,452.5 437.5,452.5C 439.868,453.783 442.035,455.45 444,457.5C 445.059,476.939 436.225,489.272 417.5,494.5C 286.5,494.667 155.5,494.5 24.5,494C 11.6427,490.308 3.30941,482.142 -0.5,469.5C -0.5,465.5 -0.5,461.5 -0.5,457.5C 0.854084,455.304 2.85408,453.804 5.5,453C 75.8325,452.5 146.166,452.333 216.5,452.5 Z"/></g>
<g><path style="opacity:0.997" fill="#acacac" d="M 437.5,452.5 C 451.504,452.333 465.504,452.5 479.5,453C 484.294,454.58 486.294,457.913 485.5,463C 484.292,479.084 475.959,489.417 460.5,494C 446.171,494.5 431.837,494.667 417.5,494.5C 436.225,489.272 445.059,476.939 444,457.5C 442.035,455.45 439.868,453.783 437.5,452.5 Z"/></g>
</svg>
