<?xml version="1.0" encoding="UTF-8"?>
<!DOCTYPE svg PUBLIC "-//W3C//DTD SVG 1.1//EN" "http://www.w3.org/Graphics/SVG/1.1/DTD/svg11.dtd">
<svg xmlns="http://www.w3.org/2000/svg" version="1.1" width="512px" height="512px" style="shape-rendering:geometricPrecision; text-rendering:geometricPrecision; image-rendering:optimizeQuality; fill-rule:evenodd; clip-rule:evenodd" xmlns:xlink="http://www.w3.org/1999/xlink">
<g><path style="opacity:0.987" fill="#e5484b" d="M 232.5,-0.5 C 239.833,-0.5 247.167,-0.5 254.5,-0.5C 262.082,3.15084 265.415,9.31751 264.5,18C 264.695,20.3523 264.028,22.3523 262.5,24C 269.679,24.1715 276.679,24.6715 283.5,25.5C 275.167,25.5 266.833,25.5 258.5,25.5C 248.167,25.5 237.833,25.5 227.5,25.5C 224.968,24.3009 223.635,22.3009 223.5,19.5C 222.679,10.911 225.679,4.24438 232.5,-0.5 Z"/></g>
<g><path style="opacity:1" fill="#d63337" d="M 254.5,-0.5 C 262.5,-0.5 270.5,-0.5 278.5,-0.5C 285.321,4.24438 288.321,10.911 287.5,19.5C 287.365,22.3009 286.032,24.3009 283.5,25.5C 276.679,24.6715 269.679,24.1715 262.5,24C 264.028,22.3523 264.695,20.3523 264.5,18C 265.415,9.31751 262.082,3.15084 254.5,-0.5 Z"/></g>
<g><path style="opacity:0.996" fill="#e0f3ff" d="M 227.5,25.5 C 237.833,25.5 248.167,25.5 258.5,25.5C 260.161,36.1174 260.995,46.784 261,57.5C 260.5,58 260,58.5 259.5,59C 248.839,59.4998 238.172,59.6665 227.5,59.5C 226.504,59.5858 225.671,59.2524 225,58.5C 224.598,57.1279 224.098,55.7946 223.5,54.5C 225.242,44.9001 226.575,35.2334 227.5,25.5 Z"/></g>
<g><path style="opacity:1" fill="#c4e1fe" d="M 258.5,25.5 C 266.833,25.5 275.167,25.5 283.5,25.5C 284.461,35.2284 285.795,44.8951 287.5,54.5C 287.063,57.225 285.73,59.225 283.5,60.5C 264.833,60.5 246.167,60.5 227.5,60.5C 227.5,60.1667 227.5,59.8333 227.5,59.5C 238.172,59.6665 248.839,59.4998 259.5,59C 260,58.5 260.5,58 261,57.5C 260.995,46.784 260.161,36.1174 258.5,25.5 Z"/></g>
<g><path style="opacity:1" fill="#8ecafb" d="M 227.5,60.5 C 246.167,60.5 264.833,60.5 283.5,60.5C 284.139,72.532 285.139,84.532 286.5,96.5C 278.167,96.5 269.833,96.5 261.5,96.5C 261.167,96.5 260.833,96.5 260.5,96.5C 260.5,96.1667 260.5,95.8333 260.5,95.5C 261.184,87.0266 257.85,80.8599 250.5,77C 242.507,76.5003 234.507,76.3336 226.5,76.5C 227.098,71.187 227.431,65.8537 227.5,60.5 Z"/></g>
<g><path style="opacity:0.991" fill="#c4e1fe" d="M 226.5,76.5 C 234.507,76.3336 242.507,76.5003 250.5,77C 257.85,80.8599 261.184,87.0266 260.5,95.5C 248.833,95.5 237.167,95.5 225.5,95.5C 225.737,94.209 225.404,93.209 224.5,92.5C 225.384,87.2092 226.051,81.8759 226.5,76.5 Z"/></g>
<g><path style="opacity:1" fill="#b3b6c6" d="M 224.5,92.5 C 225.404,93.209 225.737,94.209 225.5,95.5C 237.167,95.5 248.833,95.5 260.5,95.5C 260.5,95.8333 260.5,96.1667 260.5,96.5C 248.5,96.5 236.5,96.5 224.5,96.5C 224.5,95.1667 224.5,93.8333 224.5,92.5 Z"/></g>
<g><path style="opacity:0.996" fill="#863e2f" d="M 224.5,96.5 C 236.5,96.5 248.5,96.5 260.5,96.5C 260.833,96.5 261.167,96.5 261.5,96.5C 261.911,103.723 263.411,110.723 266,117.5C 278.265,143.366 287.098,170.366 292.5,198.5C 258.833,198.5 225.167,198.5 191.5,198.5C 197.564,170.141 206.731,142.808 219,116.5C 221.166,109.792 222.999,103.126 224.5,96.5 Z"/></g>
<g><path style="opacity:1" fill="#6c3328" d="M 261.5,96.5 C 269.833,96.5 278.167,96.5 286.5,96.5C 288.001,103.126 289.834,109.792 292,116.5C 304.269,142.808 313.436,170.141 319.5,198.5C 310.5,198.5 301.5,198.5 292.5,198.5C 287.098,170.366 278.265,143.366 266,117.5C 263.411,110.723 261.911,103.723 261.5,96.5 Z"/></g>
<g><path style="opacity:0.994" fill="#bb403c" d="M 191.5,198.5 C 225.167,198.5 258.833,198.5 292.5,198.5C 301.5,198.5 310.5,198.5 319.5,198.5C 319.5,199.167 319.5,199.833 319.5,200.5C 310.918,199.53 302.251,199.197 293.5,199.5C 259.278,198.851 225.278,199.518 191.5,201.5C 191.5,200.5 191.5,199.5 191.5,198.5 Z"/></g>
<g><path style="opacity:0.996" fill="#e54648" d="M 293.5,199.5 C 295.156,207.768 296.489,216.101 297.5,224.5C 270.831,224.333 244.165,224.5 217.5,225C 212.776,227.435 211.276,231.269 213,236.5C 214.214,238.049 215.714,239.215 217.5,240C 245.209,240.816 272.876,240.649 300.5,239.5C 301.087,250.824 301.42,262.157 301.5,273.5C 262.167,273.5 222.833,273.5 183.5,273.5C 183.464,249.157 186.131,225.157 191.5,201.5C 225.278,199.518 259.278,198.851 293.5,199.5 Z"/></g>
<g><path style="opacity:1" fill="#d63337" d="M 293.5,199.5 C 302.251,199.197 310.918,199.53 319.5,200.5C 324.799,224.528 327.466,248.861 327.5,273.5C 318.833,273.5 310.167,273.5 301.5,273.5C 301.42,262.157 301.087,250.824 300.5,239.5C 306.349,233.219 305.349,228.219 297.5,224.5C 296.489,216.101 295.156,207.768 293.5,199.5 Z"/></g>
<g><path style="opacity:1" fill="#f9f1f1" d="M 297.5,224.5 C 305.349,228.219 306.349,233.219 300.5,239.5C 272.876,240.649 245.209,240.816 217.5,240C 215.714,239.215 214.214,238.049 213,236.5C 211.276,231.269 212.776,227.435 217.5,225C 244.165,224.5 270.831,224.333 297.5,224.5 Z"/></g>
<g><path style="opacity:1" fill="#6d3328" d="M 183.5,273.5 C 222.833,273.5 262.167,273.5 301.5,273.5C 310.167,273.5 318.833,273.5 327.5,273.5C 327.593,285.856 327.093,298.19 326,310.5C 323.28,333.203 320.28,355.87 317,378.5C 315.522,392.136 315.188,405.802 316,419.5C 319.637,435.381 322.637,451.381 325,467.5C 326.491,478.88 325.158,489.88 321,500.5C 317.873,505.46 313.706,509.127 308.5,511.5C 299.167,511.5 289.833,511.5 280.5,511.5C 291.491,506.893 297.658,498.56 299,486.5C 299.623,478.135 299.29,469.802 298,461.5C 295.973,448.364 293.306,435.364 290,422.5C 287.852,403.417 288.519,384.417 292,365.5C 295.107,347.92 297.607,330.253 299.5,312.5C 298.751,301.585 293.084,294.751 282.5,292C 249.502,291.5 216.502,291.333 183.5,291.5C 183.5,285.5 183.5,279.5 183.5,273.5 Z"/></g>
<g><path style="opacity:0.997" fill="#863e2f" d="M 183.5,291.5 C 216.502,291.333 249.502,291.5 282.5,292C 293.084,294.751 298.751,301.585 299.5,312.5C 297.607,330.253 295.107,347.92 292,365.5C 288.519,384.417 287.852,403.417 290,422.5C 293.306,435.364 295.973,448.364 298,461.5C 299.29,469.802 299.623,478.135 299,486.5C 297.658,498.56 291.491,506.893 280.5,511.5C 254.5,511.5 228.5,511.5 202.5,511.5C 192.49,506.292 186.99,497.959 186,486.5C 185.333,480.167 185.333,473.833 186,467.5C 188.363,451.381 191.363,435.381 195,419.5C 195.667,408.833 195.667,398.167 195,387.5C 190.275,355.594 186.442,323.594 183.5,291.5 Z"/></g>
</svg>
