<?xml version="1.0" encoding="UTF-8"?>
<!DOCTYPE svg PUBLIC "-//W3C//DTD SVG 1.1//EN" "http://www.w3.org/Graphics/SVG/1.1/DTD/svg11.dtd">
<svg xmlns="http://www.w3.org/2000/svg" version="1.1" width="512px" height="512px" style="shape-rendering:geometricPrecision; text-rendering:geometricPrecision; image-rendering:optimizeQuality; fill-rule:evenodd; clip-rule:evenodd" xmlns:xlink="http://www.w3.org/1999/xlink">
<g><path style="opacity:0.967" fill="#d92f3b" d="M 300.5,-0.5 C 303.167,-0.5 305.833,-0.5 308.5,-0.5C 312.801,3.47098 313.468,7.97098 310.5,13C 296.918,20.7071 283.418,28.5404 270,36.5C 265.648,54.2437 261.148,71.9104 256.5,89.5C 251.167,90.8333 245.833,90.8333 240.5,89.5C 245.196,68.3835 250.362,47.3835 256,26.5C 270.647,17.0975 285.481,8.09752 300.5,-0.5 Z"/></g>
<g><path style="opacity:0.985" fill="#485959" d="M 240.5,89.5 C 245.833,90.8333 251.167,90.8333 256.5,89.5C 278.833,89.5 301.167,89.5 323.5,89.5C 326.386,90.8792 328.886,92.8792 331,95.5C 334.303,105.05 337.137,114.716 339.5,124.5C 266.167,124.5 192.833,124.5 119.5,124.5C 122.326,115.202 125.16,105.868 128,96.5C 129.563,93.2716 132.063,91.1049 135.5,90C 170.498,89.5 205.498,89.3333 240.5,89.5 Z"/></g>
<g><path style="opacity:0.997" fill="#3f4a4a" d="M 323.5,89.5 C 341.902,89.0394 360.235,89.5394 378.5,91C 381.106,92.9384 382.939,95.4384 384,98.5C 386.346,106.885 388.846,115.218 391.5,123.5C 400.816,124.332 410.149,124.832 419.5,125C 427.977,129.382 431.31,136.382 429.5,146C 431.126,155.157 428.126,162.157 420.5,167C 413.508,167.5 406.508,167.666 399.5,167.5C 381.833,167.5 364.167,167.5 346.5,167.5C 268.167,167.5 189.833,167.5 111.5,167.5C 104.825,167.666 98.1583,167.5 91.5,167C 88.4605,165.969 85.9605,164.135 84,161.5C 82.3886,152.268 82.0553,142.935 83,133.5C 84.5981,128.901 87.7647,126.068 92.5,125C 101.494,124.5 110.494,124.334 119.5,124.5C 192.833,124.5 266.167,124.5 339.5,124.5C 337.137,114.716 334.303,105.05 331,95.5C 328.886,92.8792 326.386,90.8792 323.5,89.5 Z"/></g>
<g><path style="opacity:0.998" fill="#fb4e50" d="M 111.5,167.5 C 189.833,167.5 268.167,167.5 346.5,167.5C 341.928,211.585 336.928,255.585 331.5,299.5C 317.066,256.637 287.066,237.137 241.5,241C 227.452,244.024 215.118,250.191 204.5,259.5C 191.567,270.69 183.234,284.69 179.5,301.5C 174.304,337.262 186.638,365.096 216.5,385C 246.166,400.283 274.833,398.617 302.5,380C 305.432,377.715 308.098,375.215 310.5,372.5C 316.473,366.549 321.473,359.882 325.5,352.5C 320.15,399.846 314.65,447.179 309,494.5C 307.618,502.708 303.118,508.375 295.5,511.5C 251.167,511.5 206.833,511.5 162.5,511.5C 156.546,509.043 152.379,504.71 150,498.5C 136.919,388.188 124.086,277.855 111.5,167.5 Z"/></g>
<g><path style="opacity:1" fill="#da2f3c" d="M 346.5,167.5 C 364.167,167.5 381.833,167.5 399.5,167.5C 387.257,276.521 374.757,385.521 362,494.5C 360.603,502.721 356.103,508.387 348.5,511.5C 330.833,511.5 313.167,511.5 295.5,511.5C 303.118,508.375 307.618,502.708 309,494.5C 314.65,447.179 320.15,399.846 325.5,352.5C 326.787,349.594 327.787,346.594 328.5,343.5C 333.834,329.154 334.834,314.487 331.5,299.5C 336.928,255.585 341.928,211.585 346.5,167.5 Z"/></g>
<g><path style="opacity:1" fill="#fbaf38" d="M 331.5,299.5 C 334.834,314.487 333.834,329.154 328.5,343.5C 317.928,341.048 308.595,336.214 300.5,329C 283.44,311.272 265.774,294.272 247.5,278C 234.679,268.444 220.346,262.278 204.5,259.5C 215.118,250.191 227.452,244.024 241.5,241C 287.066,237.137 317.066,256.637 331.5,299.5 Z"/></g>
<g><path style="opacity:1" fill="#efeeed" d="M 204.5,259.5 C 220.346,262.278 234.679,268.444 247.5,278C 265.774,294.272 283.44,311.272 300.5,329C 308.595,336.214 317.928,341.048 328.5,343.5C 327.787,346.594 326.787,349.594 325.5,352.5C 321.473,359.882 316.473,366.549 310.5,372.5C 300.685,369.593 291.685,365.093 283.5,359C 272.5,349.333 261.5,339.667 250.5,330C 235.725,316.278 218.392,307.278 198.5,303C 192.213,301.893 185.88,301.393 179.5,301.5C 183.234,284.69 191.567,270.69 204.5,259.5 Z"/></g>
<g><path style="opacity:1" fill="#fbaf38" d="M 179.5,301.5 C 185.88,301.393 192.213,301.893 198.5,303C 218.392,307.278 235.725,316.278 250.5,330C 261.5,339.667 272.5,349.333 283.5,359C 291.685,365.093 300.685,369.593 310.5,372.5C 308.098,375.215 305.432,377.715 302.5,380C 274.833,398.617 246.166,400.283 216.5,385C 186.638,365.096 174.304,337.262 179.5,301.5 Z"/></g>
</svg>
