<?xml version="1.0" encoding="UTF-8"?>
<!DOCTYPE svg PUBLIC "-//W3C//DTD SVG 1.1//EN" "http://www.w3.org/Graphics/SVG/1.1/DTD/svg11.dtd">
<svg xmlns="http://www.w3.org/2000/svg" version="1.1" width="512px" height="512px" style="shape-rendering:geometricPrecision; text-rendering:geometricPrecision; image-rendering:optimizeQuality; fill-rule:evenodd; clip-rule:evenodd" xmlns:xlink="http://www.w3.org/1999/xlink">
<g><path style="opacity:0.977" fill="#e1e7ec" d="M 241.5,-0.5 C 246.167,-0.5 250.833,-0.5 255.5,-0.5C 255.5,35.1667 255.5,70.8333 255.5,106.5C 250.167,106.5 244.833,106.5 239.5,106.5C 239.333,71.4984 239.5,36.4984 240,1.5C 240.717,0.955796 241.217,0.28913 241.5,-0.5 Z"/></g>
<g><path style="opacity:1" fill="#cfdce7" d="M 255.5,-0.5 C 260.167,-0.5 264.833,-0.5 269.5,-0.5C 269.987,0.473444 270.487,1.47344 271,2.5C 271.5,37.1651 271.667,71.8317 271.5,106.5C 260.833,107.833 250.167,107.833 239.5,106.5C 244.833,106.5 250.167,106.5 255.5,106.5C 255.5,70.8333 255.5,35.1667 255.5,-0.5 Z"/></g>
<g><path style="opacity:0.975" fill="#6b7781" d="M 239.5,106.5 C 250.167,107.833 260.833,107.833 271.5,106.5C 300.833,106.5 330.167,106.5 359.5,106.5C 359.5,116.833 359.5,127.167 359.5,137.5C 272.833,137.5 186.167,137.5 99.5,137.5C 99.3335,128.161 99.5002,118.827 100,109.5C 100.903,108.299 102.069,107.465 103.5,107C 148.832,106.5 194.165,106.333 239.5,106.5 Z"/></g>
<g><path style="opacity:0.998" fill="#4e5860" d="M 406.5,106.5 C 408.229,107.117 409.729,108.117 411,109.5C 411.5,118.827 411.666,128.161 411.5,137.5C 394.5,137.5 377.5,137.5 360.5,137.5C 360.5,127.5 360.5,117.5 360.5,107.5C 376.009,107.83 391.342,107.496 406.5,106.5 Z"/></g>
<g><path style="opacity:0.996" fill="#5e6972" d="M 359.5,106.5 C 375.167,106.5 390.833,106.5 406.5,106.5C 391.342,107.496 376.009,107.83 360.5,107.5C 360.5,117.5 360.5,127.5 360.5,137.5C 360.5,152.167 360.5,166.833 360.5,181.5C 277.665,181.167 194.998,181.501 112.5,182.5C 103.494,182.666 94.4938,182.5 85.5,182C 84.0692,181.535 82.9025,180.701 82,179.5C 81.3333,166.167 81.3333,152.833 82,139.5C 82.5,139 83,138.5 83.5,138C 88.8229,137.501 94.1563,137.334 99.5,137.5C 186.167,137.5 272.833,137.5 359.5,137.5C 359.5,127.167 359.5,116.833 359.5,106.5 Z"/></g>
<g><path style="opacity:1" fill="#424b51" d="M 360.5,137.5 C 377.5,137.5 394.5,137.5 411.5,137.5C 416.844,137.334 422.177,137.501 427.5,138C 428,138.5 428.5,139 429,139.5C 429.667,152.833 429.667,166.167 429,179.5C 428.097,180.701 426.931,181.535 425.5,182C 416.506,182.5 407.506,182.666 398.5,182.5C 386.011,181.505 373.344,181.171 360.5,181.5C 360.5,166.833 360.5,152.167 360.5,137.5 Z"/></g>
<g><path style="opacity:0.997" fill="#dd4733" d="M 112.5,182.5 C 194.833,182.5 277.167,182.5 359.5,182.5C 358.167,201.833 356.833,221.167 355.5,240.5C 280.123,288.528 204.456,336.194 128.5,383.5C 123.167,316.499 117.833,249.499 112.5,182.5 Z"/></g>
<g><path style="opacity:0.991" fill="#d13f2c" d="M 112.5,182.5 C 194.998,181.501 277.665,181.167 360.5,181.5C 373.344,181.171 386.011,181.505 398.5,182.5C 397.703,193.861 396.703,205.194 395.5,216.5C 382.167,224.5 368.833,232.5 355.5,240.5C 356.833,221.167 358.167,201.833 359.5,182.5C 277.167,182.5 194.833,182.5 112.5,182.5 Z"/></g>
<g><path style="opacity:0.996" fill="#fefefd" d="M 395.5,216.5 C 393.935,239.174 392.269,261.841 390.5,284.5C 376.922,292.075 363.589,300.075 350.5,308.5C 278.334,353.084 206,397.418 133.5,441.5C 131.617,422.235 129.95,402.901 128.5,383.5C 204.456,336.194 280.123,288.528 355.5,240.5C 368.833,232.5 382.167,224.5 395.5,216.5 Z"/></g>
<g><path style="opacity:0.989" fill="#d13d2a" d="M 390.5,284.5 C 384.614,359.188 378.447,433.855 372,508.5C 370.955,509.373 370.122,510.373 369.5,511.5C 356.5,511.5 343.5,511.5 330.5,511.5C 331.836,509.99 333.003,508.323 334,506.5C 338.874,440.409 344.374,374.409 350.5,308.5C 363.589,300.075 376.922,292.075 390.5,284.5 Z"/></g>
<g><path style="opacity:0.999" fill="#dd4733" d="M 350.5,308.5 C 344.374,374.409 338.874,440.409 334,506.5C 333.003,508.323 331.836,509.99 330.5,511.5C 267.5,511.5 204.5,511.5 141.5,511.5C 139.08,509.08 137.913,506.08 138,502.5C 136.223,482.182 134.723,461.849 133.5,441.5C 206,397.418 278.334,353.084 350.5,308.5 Z"/></g>
</svg>
