<?xml version="1.0" encoding="UTF-8"?>
<!DOCTYPE svg PUBLIC "-//W3C//DTD SVG 1.1//EN" "http://www.w3.org/Graphics/SVG/1.1/DTD/svg11.dtd">
<svg xmlns="http://www.w3.org/2000/svg" version="1.1" width="512px" height="512px" style="shape-rendering:geometricPrecision; text-rendering:geometricPrecision; image-rendering:optimizeQuality; fill-rule:evenodd; clip-rule:evenodd" xmlns:xlink="http://www.w3.org/1999/xlink">
<g><path style="opacity:0.977" fill="#6c7782" d="M 181.5,-0.5 C 190.167,-0.5 198.833,-0.5 207.5,-0.5C 216.448,2.28339 222.281,8.28339 225,17.5C 225.5,34.4967 225.667,51.4967 225.5,68.5C 204.833,68.5 184.167,68.5 163.5,68.5C 163.055,50.7775 163.555,33.1108 165,15.5C 167.752,7.24681 173.252,1.91348 181.5,-0.5 Z"/></g>
<g><path style="opacity:1" fill="#dee4ea" d="M 190.5,20.5 C 201.486,19.6526 205.986,24.6526 204,35.5C 197.628,43.3789 191.294,43.3789 185,35.5C 184.333,32.5 184.333,29.5 185,26.5C 186.36,23.9774 188.193,21.9774 190.5,20.5 Z"/></g>
<g><path style="opacity:0.991" fill="#e1e7ec" d="M 163.5,68.5 C 184.167,68.5 204.833,68.5 225.5,68.5C 253.167,68.5 280.833,68.5 308.5,68.5C 308.5,78.5 308.5,88.5 308.5,98.5C 255.095,98.1713 201.762,98.5046 148.5,99.5C 143.821,99.6658 139.155,99.4992 134.5,99C 133.234,98.6905 132.067,98.1905 131,97.5C 129.185,88.734 129.018,79.9006 130.5,71C 130.905,70.0546 131.572,69.3879 132.5,69C 142.828,68.5002 153.161,68.3335 163.5,68.5 Z"/></g>
<g><path style="opacity:1" fill="#cfdde8" d="M 308.5,68.5 C 332.212,68.1768 355.878,68.5102 379.5,69.5C 380.251,70.376 380.751,71.376 381,72.5C 381.167,76.3333 381.333,80.1667 381.5,84C 381.607,88.6122 381.107,93.1122 380,97.5C 378.933,98.1905 377.766,98.6905 376.5,99C 371.845,99.4992 367.179,99.6658 362.5,99.5C 344.577,98.514 326.577,98.1807 308.5,98.5C 308.5,88.5 308.5,78.5 308.5,68.5 Z"/></g>
<g><path style="opacity:0.996" fill="#dc4733" d="M 308.5,98.5 C 317.833,112.5 327.167,126.5 336.5,140.5C 264.5,140.5 192.5,140.5 120.5,140.5C 129.576,126.689 138.91,113.022 148.5,99.5C 201.762,98.5046 255.095,98.1713 308.5,98.5 Z"/></g>
<g><path style="opacity:1" fill="#d13d2a" d="M 308.5,98.5 C 326.577,98.1807 344.577,98.514 362.5,99.5C 372.09,113.022 381.424,126.689 390.5,140.5C 372.5,140.5 354.5,140.5 336.5,140.5C 327.167,126.5 317.833,112.5 308.5,98.5 Z"/></g>
<g><path style="opacity:0.999" fill="#e2e5ea" d="M 120.5,140.5 C 192.5,140.5 264.5,140.5 336.5,140.5C 354.5,140.5 372.5,140.5 390.5,140.5C 396.24,141.973 398.407,145.64 397,151.5C 396.623,152.942 395.79,153.942 394.5,154.5C 393.234,155.09 391.901,155.59 390.5,156C 373.837,156.5 357.17,156.667 340.5,156.5C 302.927,156.17 265.427,156.504 228,157.5C 215.435,200.544 213.102,244.21 221,288.5C 226.824,313.285 231.49,338.285 235,363.5C 236.729,381.824 236.896,400.158 235.5,418.5C 234.596,419.209 234.263,420.209 234.5,421.5C 247.833,421.5 261.167,421.5 274.5,421.5C 276.903,421.393 278.736,422.393 280,424.5C 281.227,428.591 280.394,432.091 277.5,435C 224.168,435.5 170.834,435.667 117.5,435.5C 114.894,433.961 113.561,431.628 113.5,428.5C 113.467,425.898 114.467,423.898 116.5,422.5C 117.473,422.013 118.473,421.513 119.5,421C 136.163,420.5 152.83,420.333 169.5,420.5C 167.676,379.89 163.176,339.557 156,299.5C 151.068,262.099 151.401,224.766 157,187.5C 158.644,177.089 161.144,166.923 164.5,157C 149.833,156.667 135.167,156.333 120.5,156C 119.099,155.59 117.766,155.09 116.5,154.5C 112.522,150.45 112.522,146.284 116.5,142C 117.745,141.209 119.078,140.709 120.5,140.5 Z"/></g>
<g><path style="opacity:0.984" fill="#dd4733" d="M 116.5,154.5 C 117.766,155.09 119.099,155.59 120.5,156C 135.167,156.333 149.833,156.667 164.5,157C 161.144,166.923 158.644,177.089 157,187.5C 151.401,224.766 151.068,262.099 156,299.5C 163.176,339.557 167.676,379.89 169.5,420.5C 152.83,420.333 136.163,420.5 119.5,421C 118.473,421.513 117.473,422.013 116.5,422.5C 116.5,333.167 116.5,243.833 116.5,154.5 Z"/></g>
<g><path style="opacity:1" fill="#d13d2a" d="M 394.5,154.5 C 394.5,243.833 394.5,333.167 394.5,422.5C 393.234,421.91 391.901,421.41 390.5,421C 373.837,420.5 357.17,420.333 340.5,420.5C 340.5,332.5 340.5,244.5 340.5,156.5C 357.17,156.667 373.837,156.5 390.5,156C 391.901,155.59 393.234,155.09 394.5,154.5 Z"/></g>
<g><path style="opacity:0.999" fill="#dd4733" d="M 340.5,156.5 C 340.5,244.5 340.5,332.5 340.5,420.5C 334.824,420.334 329.157,420.501 323.5,421C 316.426,424.775 315.759,429.442 321.5,435C 344.498,435.5 367.498,435.667 390.5,435.5C 373.672,436.332 356.672,436.832 339.5,437C 328.557,451.437 318.224,466.271 308.5,481.5C 255.095,481.829 201.762,481.495 148.5,480.5C 137.776,465.775 127.443,450.775 117.5,435.5C 170.834,435.667 224.168,435.5 277.5,435C 280.394,432.091 281.227,428.591 280,424.5C 278.736,422.393 276.903,421.393 274.5,421.5C 261.301,421.16 248.301,420.16 235.5,418.5C 236.896,400.158 236.729,381.824 235,363.5C 231.49,338.285 226.824,313.285 221,288.5C 213.102,244.21 215.435,200.544 228,157.5C 265.427,156.504 302.927,156.17 340.5,156.5 Z"/></g>
<g><path style="opacity:1" fill="#e0a39d" d="M 235.5,418.5 C 248.301,420.16 261.301,421.16 274.5,421.5C 261.167,421.5 247.833,421.5 234.5,421.5C 234.263,420.209 234.596,419.209 235.5,418.5 Z"/></g>
<g><path style="opacity:0.999" fill="#e2e3e7" d="M 340.5,420.5 C 357.17,420.333 373.837,420.5 390.5,421C 391.901,421.41 393.234,421.91 394.5,422.5C 397.803,425.665 398.303,429.332 396,433.5C 395.292,434.381 394.458,435.047 393.5,435.5C 392.5,435.5 391.5,435.5 390.5,435.5C 367.498,435.667 344.498,435.5 321.5,435C 315.759,429.442 316.426,424.775 323.5,421C 329.157,420.501 334.824,420.334 340.5,420.5 Z"/></g>
<g><path style="opacity:1" fill="#d13d2a" d="M 390.5,435.5 C 391.5,435.5 392.5,435.5 393.5,435.5C 383.557,450.775 373.224,465.775 362.5,480.5C 344.674,481.497 326.674,481.83 308.5,481.5C 318.224,466.271 328.557,451.437 339.5,437C 356.672,436.832 373.672,436.332 390.5,435.5 Z"/></g>
<g><path style="opacity:0.993" fill="#e1e7ec" d="M 148.5,480.5 C 201.762,481.495 255.095,481.829 308.5,481.5C 308.5,491.5 308.5,501.5 308.5,511.5C 249.833,511.5 191.167,511.5 132.5,511.5C 131.531,510.691 130.698,509.691 130,508.5C 129.06,499.73 129.393,491.064 131,482.5C 132.067,481.809 133.234,481.309 134.5,481C 139.155,480.501 143.821,480.334 148.5,480.5 Z"/></g>
<g><path style="opacity:1" fill="#cfdde8" d="M 362.5,480.5 C 367.179,480.334 371.845,480.501 376.5,481C 377.766,481.309 378.933,481.809 380,482.5C 381.604,490.73 381.937,499.063 381,507.5C 380.52,509.133 379.687,510.466 378.5,511.5C 355.167,511.5 331.833,511.5 308.5,511.5C 308.5,501.5 308.5,491.5 308.5,481.5C 326.674,481.83 344.674,481.497 362.5,480.5 Z"/></g>
</svg>
