<?xml version="1.0" encoding="UTF-8"?>
<!DOCTYPE svg PUBLIC "-//W3C//DTD SVG 1.1//EN" "http://www.w3.org/Graphics/SVG/1.1/DTD/svg11.dtd">
<svg xmlns="http://www.w3.org/2000/svg" version="1.1" width="512px" height="512px" style="shape-rendering:geometricPrecision; text-rendering:geometricPrecision; image-rendering:optimizeQuality; fill-rule:evenodd; clip-rule:evenodd" xmlns:xlink="http://www.w3.org/1999/xlink">
<g><path style="opacity:0.997" fill="#976a53" d="M 210.5,57.5 C 225.567,78.8124 236.733,102.146 244,127.5C 245.385,136.899 242.219,144.399 234.5,150C 208.643,170.268 186.81,194.101 169,221.5C 168.329,222.252 167.496,222.586 166.5,222.5C 150.444,182.391 138.61,141.057 131,98.5C 129.517,94.3345 126.684,92.8345 122.5,94C 119.036,98.4223 116.203,103.256 114,108.5C 99.721,148.107 98.721,188.107 111,228.5C 117.941,247.989 125.274,267.322 133,286.5C 133.822,289.117 134.322,291.784 134.5,294.5C 123.751,326.499 121.751,359.166 128.5,392.5C 128.25,402.239 123.584,408.739 114.5,412C 88.7933,413.652 65.6266,406.819 45,391.5C 44.6012,391.728 44.4346,392.062 44.5,392.5C 25.6149,366.731 12.7816,338.064 6,306.5C 3.26785,293.111 1.10118,279.777 -0.5,266.5C -0.5,250.5 -0.5,234.5 -0.5,218.5C 3.22994,170.714 19.0633,127.38 47,88.5C 63.2429,67.2428 83.7429,51.7428 108.5,42C 145.263,30.0084 179.263,35.175 210.5,57.5 Z"/></g>
<g><path style="opacity:1" fill="#845c47" d="M 210.5,57.5 C 231.051,72.5529 247.551,91.2196 260,113.5C 267.223,126.274 273.056,139.607 277.5,153.5C 248.543,172.938 223.376,196.605 202,224.5C 194.312,235.224 187.145,246.224 180.5,257.5C 176.995,246.16 172.662,235.16 167.5,224.5C 167.167,223.833 166.833,223.167 166.5,222.5C 167.496,222.586 168.329,222.252 169,221.5C 186.81,194.101 208.643,170.268 234.5,150C 242.219,144.399 245.385,136.899 244,127.5C 236.733,102.146 225.567,78.8124 210.5,57.5 Z"/></g>
<g><path style="opacity:1" fill="#664545" d="M 166.5,222.5 C 166.833,223.167 167.167,223.833 167.5,224.5C 154.119,244.264 143.619,265.597 136,288.5C 135.505,290.473 135.338,292.473 135.5,294.5C 135.167,294.5 134.833,294.5 134.5,294.5C 134.322,291.784 133.822,289.117 133,286.5C 125.274,267.322 117.941,247.989 111,228.5C 98.721,188.107 99.721,148.107 114,108.5C 116.203,103.256 119.036,98.4223 122.5,94C 126.684,92.8345 129.517,94.3345 131,98.5C 138.61,141.057 150.444,182.391 166.5,222.5 Z"/></g>
<g><path style="opacity:0.999" fill="#976a53" d="M 509.5,211.5 C 501.229,255.374 482.729,294.374 454,328.5C 422.066,366.547 382.9,394.38 336.5,412C 302.087,424.758 267.087,426.758 231.5,418C 189.373,403.038 164.373,373.538 156.5,329.5C 157.665,317.671 160.332,306.171 164.5,295C 168.963,282.107 174.296,269.607 180.5,257.5C 187.145,246.224 194.312,235.224 202,224.5C 223.376,196.605 248.543,172.938 277.5,153.5C 312.388,130.649 350.721,118.649 392.5,117.5C 434.76,116.382 468.26,132.715 493,166.5C 501.572,180.382 507.072,195.382 509.5,211.5 Z"/></g>
<g><path style="opacity:1" fill="#523838" d="M 416.5,174.5 C 422.17,174.339 425.003,177.006 425,182.5C 409.205,206.976 394.205,231.976 380,257.5C 369.567,278.365 360.233,299.698 352,321.5C 332.666,362.5 302.833,393.334 262.5,414C 256.405,416.927 250.072,418.593 243.5,419C 238.932,416.413 237.432,412.579 239,407.5C 253.833,385.171 268.167,362.504 282,339.5C 295.246,312.756 307.913,285.756 320,258.5C 342.283,218.972 374.45,190.972 416.5,174.5 Z"/></g>
<g><path style="opacity:1" fill="#845c47" d="M 509.5,211.5 C 510.167,213.833 510.833,216.167 511.5,218.5C 511.5,230.5 511.5,242.5 511.5,254.5C 503.766,304.221 483.266,347.888 450,385.5C 416.657,423.767 375.823,450.933 327.5,467C 298.903,476.011 269.903,477.677 240.5,472C 218.872,467.338 200.372,457.171 185,441.5C 142.948,456.408 104.781,449.575 70.5,421C 60.8888,412.229 52.2221,402.729 44.5,392.5C 44.4346,392.062 44.6012,391.728 45,391.5C 65.6266,406.819 88.7933,413.652 114.5,412C 123.584,408.739 128.25,402.239 128.5,392.5C 121.751,359.166 123.751,326.499 134.5,294.5C 134.833,294.5 135.167,294.5 135.5,294.5C 142.584,317.504 148.418,340.837 153,364.5C 153.333,357.5 153.667,350.5 154,343.5C 154.222,338.588 155.055,333.921 156.5,329.5C 164.373,373.538 189.373,403.038 231.5,418C 267.087,426.758 302.087,424.758 336.5,412C 382.9,394.38 422.066,366.547 454,328.5C 482.729,294.374 501.229,255.374 509.5,211.5 Z"/></g>
<g><path style="opacity:1" fill="#523838" d="M 167.5,224.5 C 172.662,235.16 176.995,246.16 180.5,257.5C 174.296,269.607 168.963,282.107 164.5,295C 160.332,306.171 157.665,317.671 156.5,329.5C 155.055,333.921 154.222,338.588 154,343.5C 153.667,350.5 153.333,357.5 153,364.5C 148.418,340.837 142.584,317.504 135.5,294.5C 135.338,292.473 135.505,290.473 136,288.5C 143.619,265.597 154.119,244.264 167.5,224.5 Z"/></g>
</svg>
