<?xml version="1.0" encoding="UTF-8"?>
<!DOCTYPE svg PUBLIC "-//W3C//DTD SVG 1.1//EN" "http://www.w3.org/Graphics/SVG/1.1/DTD/svg11.dtd">
<svg xmlns="http://www.w3.org/2000/svg" version="1.1" width="512px" height="512px" style="shape-rendering:geometricPrecision; text-rendering:geometricPrecision; image-rendering:optimizeQuality; fill-rule:evenodd; clip-rule:evenodd" xmlns:xlink="http://www.w3.org/1999/xlink">
<g><path style="opacity:1" fill="#95d6a3" d="M 156.5,-0.5 C 158.5,-0.5 160.5,-0.5 162.5,-0.5C 168.921,5.41937 174.421,12.086 179,19.5C 190.081,39.0678 187.247,56.0678 170.5,70.5C 169.833,70.5 169.167,70.5 168.5,70.5C 166.167,70.5 163.833,70.5 161.5,70.5C 162.618,65.1375 162.618,59.8042 161.5,54.5C 163.284,53.4262 164.451,51.7596 165,49.5C 165.758,43.1093 165.424,36.7759 164,30.5C 160.25,21.9916 155.75,13.9916 150.5,6.5C 152.5,4.16667 154.5,1.83333 156.5,-0.5 Z"/></g>
<g><path style="opacity:0.969" fill="#b3e59f" d="M 369.5,70.5 C 368.833,70.8333 368.167,71.1667 367.5,71.5C 357.085,71.8083 346.751,71.475 336.5,70.5C 349.029,48.6123 361.695,26.779 374.5,5C 376.199,4.04189 378.033,3.54189 380,3.5C 385.236,4.72753 390.069,6.89419 394.5,10C 398.613,13.5094 399.446,17.6761 397,22.5C 387.557,38.3918 378.39,54.3918 369.5,70.5 Z"/></g>
<g><path style="opacity:0.985" fill="#b2e49f" d="M 150.5,6.5 C 155.75,13.9916 160.25,21.9916 164,30.5C 165.424,36.7759 165.758,43.1093 165,49.5C 164.451,51.7596 163.284,53.4262 161.5,54.5C 160.105,47.8861 156.772,42.3861 151.5,38C 146.385,34.8068 141.052,32.3068 135.5,30.5C 138.488,21.1787 143.488,13.1787 150.5,6.5 Z"/></g>
<g><path style="opacity:1" fill="#79c2a4" d="M 135.5,30.5 C 141.052,32.3068 146.385,34.8068 151.5,38C 156.772,42.3861 160.105,47.8861 161.5,54.5C 162.618,59.8042 162.618,65.1375 161.5,70.5C 163.833,70.5 166.167,70.5 168.5,70.5C 164.907,71.1526 161.241,71.9859 157.5,73C 156.391,74.8761 155.391,76.7095 154.5,78.5C 150.19,79.0802 145.857,79.4135 141.5,79.5C 146.27,55.6054 136.603,41.9387 112.5,38.5C 112.02,35.3148 112.686,32.4815 114.5,30C 121.528,29.3255 128.528,29.4921 135.5,30.5 Z"/></g>
<g><path style="opacity:0.982" fill="#94d5a4" d="M 112.5,38.5 C 136.603,41.9387 146.27,55.6054 141.5,79.5C 126.981,77.8174 118.147,69.8174 115,55.5C 113.515,49.9236 112.682,44.2569 112.5,38.5 Z"/></g>
<g><path style="opacity:0.991" fill="#d7ebfd" d="M 168.5,70.5 C 169.167,70.5 169.833,70.5 170.5,70.5C 225.833,70.5 281.167,70.5 336.5,70.5C 325.179,90.4727 313.845,110.473 302.5,130.5C 302.167,130.5 301.833,130.5 301.5,130.5C 285.167,130.5 268.833,130.5 252.5,130.5C 254.545,113.413 247.545,101.913 231.5,96C 225.751,95.2153 220.084,95.3819 214.5,96.5C 197.215,105.016 191.882,118.349 198.5,136.5C 214.008,209.742 223.675,283.742 227.5,358.5C 227.353,363.214 227.686,367.881 228.5,372.5C 229.149,396.19 230.316,419.857 232,443.5C 232.313,447.965 234.479,451.132 238.5,453C 250.495,453.5 262.495,453.667 274.5,453.5C 280.176,453.666 285.843,453.499 291.5,453C 294.728,451.437 296.895,448.937 298,445.5C 300.226,406.832 302.392,368.166 304.5,329.5C 305.244,325.881 305.577,322.215 305.5,318.5C 310.25,255.92 319.584,193.92 333.5,132.5C 333.5,131.833 333.5,131.167 333.5,130.5C 341.5,117.167 349.5,103.833 357.5,90.5C 327.882,218.776 312.049,348.776 310,480.5C 314.333,488.5 318.667,496.5 323,504.5C 323.667,505.833 323.667,507.167 323,508.5C 321.955,509.373 321.122,510.373 320.5,511.5C 278.5,511.5 236.5,511.5 194.5,511.5C 192.568,508.823 192.068,505.823 193,502.5C 198.583,494.001 203.083,485.001 206.5,475.5C 202.691,341.361 185.358,209.028 154.5,78.5C 155.391,76.7095 156.391,74.8761 157.5,73C 161.241,71.9859 164.907,71.1526 168.5,70.5 Z"/></g>
<g><path style="opacity:1" fill="#95d6a4" d="M 336.5,70.5 C 346.751,71.475 357.085,71.8083 367.5,71.5C 364.167,77.8333 360.833,84.1667 357.5,90.5C 349.5,103.833 341.5,117.167 333.5,130.5C 323.167,130.5 312.833,130.5 302.5,130.5C 313.845,110.473 325.179,90.4727 336.5,70.5 Z"/></g>
<g><path style="opacity:1" fill="#b4dafe" d="M 369.5,70.5 C 372.925,71.9842 374.925,74.6508 375.5,78.5C 343.312,211.669 326.812,346.669 326,483.5C 329.919,489.67 333.586,496.003 337,502.5C 337.932,505.823 337.432,508.823 335.5,511.5C 330.5,511.5 325.5,511.5 320.5,511.5C 321.122,510.373 321.955,509.373 323,508.5C 323.667,507.167 323.667,505.833 323,504.5C 318.667,496.5 314.333,488.5 310,480.5C 312.049,348.776 327.882,218.776 357.5,90.5C 360.833,84.1667 364.167,77.8333 367.5,71.5C 368.167,71.1667 368.833,70.8333 369.5,70.5 Z"/></g>
<g><path style="opacity:1" fill="#fde87e" d="M 252.5,130.5 C 247.498,143.82 237.831,151.153 223.5,152.5C 219.776,152.408 216.442,151.408 213.5,149.5C 228.163,141.821 233.329,129.821 229,113.5C 228,111.5 227,109.5 226,107.5C 222.251,103.58 218.417,99.9137 214.5,96.5C 220.084,95.3819 225.751,95.2153 231.5,96C 247.545,101.913 254.545,113.413 252.5,130.5 Z"/></g>
<g><path style="opacity:1" fill="#fdefae" d="M 214.5,96.5 C 218.417,99.9137 222.251,103.58 226,107.5C 227,109.5 228,111.5 229,113.5C 233.329,129.821 228.163,141.821 213.5,149.5C 206.941,146.94 201.941,142.606 198.5,136.5C 191.882,118.349 197.215,105.016 214.5,96.5 Z"/></g>
<g><path style="opacity:1" fill="#b57f5f" d="M 252.5,130.5 C 268.833,130.5 285.167,130.5 301.5,130.5C 278.508,171.149 255.508,211.816 232.5,252.5C 233.15,255.655 234.817,258.155 237.5,260C 241.796,262.639 246.296,264.805 251,266.5C 252.627,266.375 254.127,265.875 255.5,265C 269.067,242.02 282.733,219.187 296.5,196.5C 290.476,228.653 286.809,260.986 285.5,293.5C 278.933,291.9 272.599,292.233 266.5,294.5C 251.35,301.472 245.85,313.138 250,329.5C 250.986,332.806 252.486,335.806 254.5,338.5C 251.098,338.342 247.764,338.676 244.5,339.5C 236.326,343.67 230.659,350.003 227.5,358.5C 223.675,283.742 214.008,209.742 198.5,136.5C 201.941,142.606 206.941,146.94 213.5,149.5C 216.442,151.408 219.776,152.408 223.5,152.5C 237.831,151.153 247.498,143.82 252.5,130.5 Z"/></g>
<g><path style="opacity:1" fill="#79c1a3" d="M 301.5,130.5 C 301.833,130.5 302.167,130.5 302.5,130.5C 312.833,130.5 323.167,130.5 333.5,130.5C 333.5,131.167 333.5,131.833 333.5,132.5C 320.665,153.498 308.332,174.832 296.5,196.5C 282.733,219.187 269.067,242.02 255.5,265C 254.127,265.875 252.627,266.375 251,266.5C 246.296,264.805 241.796,262.639 237.5,260C 234.817,258.155 233.15,255.655 232.5,252.5C 255.508,211.816 278.508,171.149 301.5,130.5 Z"/></g>
<g><path style="opacity:1" fill="#9f6f51" d="M 333.5,132.5 C 319.584,193.92 310.25,255.92 305.5,318.5C 304.014,306.014 297.347,297.681 285.5,293.5C 286.809,260.986 290.476,228.653 296.5,196.5C 308.332,174.832 320.665,153.498 333.5,132.5 Z"/></g>
<g><path style="opacity:1" fill="#fde87d" d="M 285.5,293.5 C 297.347,297.681 304.014,306.014 305.5,318.5C 305.577,322.215 305.244,325.881 304.5,329.5C 299.199,342.178 289.533,349.011 275.5,350C 281.355,358.731 282.022,367.898 277.5,377.5C 268.819,389.617 257.485,393.283 243.5,388.5C 258.53,379.396 262.363,366.729 255,350.5C 251.921,346.258 248.421,342.591 244.5,339.5C 247.764,338.676 251.098,338.342 254.5,338.5C 260.87,338.519 266.537,340.519 271.5,344.5C 285.885,332.404 288.052,318.404 278,302.5C 274.888,298.702 271.055,296.036 266.5,294.5C 272.599,292.233 278.933,291.9 285.5,293.5 Z"/></g>
<g><path style="opacity:1" fill="#fdefad" d="M 266.5,294.5 C 271.055,296.036 274.888,298.702 278,302.5C 288.052,318.404 285.885,332.404 271.5,344.5C 266.537,340.519 260.87,338.519 254.5,338.5C 252.486,335.806 250.986,332.806 250,329.5C 245.85,313.138 251.35,301.472 266.5,294.5 Z"/></g>
<g><path style="opacity:1" fill="#9f6e50" d="M 304.5,329.5 C 302.392,368.166 300.226,406.832 298,445.5C 296.895,448.937 294.728,451.437 291.5,453C 285.843,453.499 280.176,453.666 274.5,453.5C 275.127,428.151 276.127,402.817 277.5,377.5C 282.022,367.898 281.355,358.731 275.5,350C 289.533,349.011 299.199,342.178 304.5,329.5 Z"/></g>
<g><path style="opacity:1" fill="#fdefad" d="M 244.5,339.5 C 248.421,342.591 251.921,346.258 255,350.5C 262.363,366.729 258.53,379.396 243.5,388.5C 236.386,385.055 231.386,379.722 228.5,372.5C 227.686,367.881 227.353,363.214 227.5,358.5C 230.659,350.003 236.326,343.67 244.5,339.5 Z"/></g>
<g><path style="opacity:1" fill="#b57f5f" d="M 228.5,372.5 C 231.386,379.722 236.386,385.055 243.5,388.5C 257.485,393.283 268.819,389.617 277.5,377.5C 276.127,402.817 275.127,428.151 274.5,453.5C 262.495,453.667 250.495,453.5 238.5,453C 234.479,451.132 232.313,447.965 232,443.5C 230.316,419.857 229.149,396.19 228.5,372.5 Z"/></g>
<g><path style="opacity:1" fill="#9f6e50" d="M 249.5,416.5 C 257.661,415.171 261.495,418.505 261,426.5C 257.702,431.774 253.369,432.774 248,429.5C 244.513,424.754 245.013,420.42 249.5,416.5 Z"/></g>
</svg>
