<?xml version="1.0" encoding="UTF-8"?>
<!DOCTYPE svg PUBLIC "-//W3C//DTD SVG 1.1//EN" "http://www.w3.org/Graphics/SVG/1.1/DTD/svg11.dtd">
<svg xmlns="http://www.w3.org/2000/svg" version="1.1" width="512px" height="512px" style="shape-rendering:geometricPrecision; text-rendering:geometricPrecision; image-rendering:optimizeQuality; fill-rule:evenodd; clip-rule:evenodd" xmlns:xlink="http://www.w3.org/1999/xlink">
<g><path style="opacity:0.993" fill="#faf6f6" d="M 202.5,-0.5 C 208.167,-0.5 213.833,-0.5 219.5,-0.5C 233.088,3.75485 242.088,12.7548 246.5,26.5C 268.887,25.0394 281.553,35.5394 284.5,58C 283.923,60.137 283.59,62.3037 283.5,64.5C 303.852,70.1932 312.519,83.5265 309.5,104.5C 303.167,104.5 296.833,104.5 290.5,104.5C 229.833,104.5 169.167,104.5 108.5,104.5C 105.32,88.0238 110.987,75.5238 125.5,67C 129.963,65.0255 134.629,64.1922 139.5,64.5C 138.491,38.8423 150.824,25.8423 176.5,25.5C 180.173,11.8274 188.839,3.16073 202.5,-0.5 Z"/></g>
<g><path style="opacity:1" fill="#f3eae6" d="M 207.5,30.5 C 218.202,30.2653 226.369,34.5986 232,43.5C 232.659,51.1153 229.159,53.9486 221.5,52C 215.099,43.7927 208.433,43.4594 201.5,51C 192.511,51.8771 189.678,48.0438 193,39.5C 197.053,35.066 201.886,32.066 207.5,30.5 Z"/></g>
<g><path style="opacity:1" fill="#f3eae6" d="M 171.5,62.5 C 182.758,60.4164 191.925,63.7497 199,72.5C 201.525,80.9028 198.358,84.4028 189.5,83C 186.202,77.6819 181.536,75.6819 175.5,77C 173.044,79.946 170.377,82.6127 167.5,85C 158.239,84.9839 155.739,80.8173 160,72.5C 162.984,68.1062 166.817,64.7729 171.5,62.5 Z"/></g>
<g><path style="opacity:1" fill="#f3eae6" d="M 237.5,63.5 C 246.929,62.6335 254.429,65.9669 260,73.5C 261.809,79.5228 259.643,83.1895 253.5,84.5C 249.803,82.4497 246.137,80.4497 242.5,78.5C 238.861,79.6189 235.861,81.7856 233.5,85C 223.919,84.682 221.419,80.182 226,71.5C 229.482,68.1608 233.315,65.4942 237.5,63.5 Z"/></g>
<g><path style="opacity:0.998" fill="#fee5c2" d="M 108.5,104.5 C 169.167,104.5 229.833,104.5 290.5,104.5C 288.769,124.48 286.769,144.48 284.5,164.5C 222.664,164.168 160.998,164.501 99.5,165.5C 97.0199,147.373 95.5199,129.04 95,110.5C 97.9105,105.137 102.41,103.137 108.5,104.5 Z"/></g>
<g><path style="opacity:1" fill="#fed2a5" d="M 290.5,104.5 C 296.833,104.5 303.167,104.5 309.5,104.5C 315.204,103.436 319.371,105.436 322,110.5C 321.408,128.853 320.241,147.187 318.5,165.5C 307.167,165.5 295.833,165.5 284.5,165.5C 222.833,165.5 161.167,165.5 99.5,165.5C 160.998,164.501 222.664,164.168 284.5,164.5C 286.769,144.48 288.769,124.48 290.5,104.5 Z"/></g>
<g><path style="opacity:0.979" fill="#d8ebfd" d="M 301.5,345.5 C 302.184,332.623 303.517,319.957 305.5,307.5C 317.103,311.089 328.77,314.589 340.5,318C 357.112,320.444 369.279,314.278 377,299.5C 377.92,296.899 378.587,294.232 379,291.5C 379.667,270.167 379.667,248.833 379,227.5C 374.142,207.979 361.642,199.145 341.5,201C 332.511,203.608 323.511,206.108 314.5,208.5C 315.006,195.12 316.006,181.787 317.5,168.5C 349.604,156.95 377.438,163.283 401,187.5C 409.007,197.85 414.007,209.517 416,222.5C 416.667,247.167 416.667,271.833 416,296.5C 410.034,328.466 391.2,347.966 359.5,355C 351.5,355.667 343.5,355.667 335.5,355C 324.12,351.928 312.787,348.761 301.5,345.5 Z"/></g>
<g><path style="opacity:0.998" fill="#febc85" d="M 99.5,165.5 C 161.167,165.5 222.833,165.5 284.5,165.5C 283.299,181.511 281.966,197.511 280.5,213.5C 291.5,213.5 302.5,213.5 313.5,213.5C 313.5,213.833 313.5,214.167 313.5,214.5C 302.167,214.5 290.833,214.5 279.5,214.5C 220.833,214.5 162.167,214.5 103.5,214.5C 101.926,198.187 100.593,181.854 99.5,165.5 Z"/></g>
<g><path style="opacity:1" fill="#f6a96c" d="M 284.5,165.5 C 295.833,165.5 307.167,165.5 318.5,165.5C 317.89,166.391 317.557,167.391 317.5,168.5C 316.006,181.787 315.006,195.12 314.5,208.5C 313.962,210.117 313.629,211.784 313.5,213.5C 302.5,213.5 291.5,213.5 280.5,213.5C 281.966,197.511 283.299,181.511 284.5,165.5 Z"/></g>
<g><path style="opacity:0.998" fill="#ad6b6b" d="M 103.5,214.5 C 162.167,214.5 220.833,214.5 279.5,214.5C 276.14,258.866 272.307,303.2 268,347.5C 265.384,363.562 256.217,373.729 240.5,378C 200.501,378.5 160.501,378.667 120.5,378.5C 119.113,376.123 118.279,373.457 118,370.5C 113.232,318.486 108.399,266.486 103.5,214.5 Z"/></g>
<g><path style="opacity:1" fill="#9b5e5e" d="M 279.5,214.5 C 290.833,214.5 302.167,214.5 313.5,214.5C 310.593,245.48 307.926,276.48 305.5,307.5C 303.517,319.957 302.184,332.623 301.5,345.5C 300.697,354.161 299.864,362.828 299,371.5C 296.179,384.985 288.346,394.152 275.5,399C 266.234,400.386 256.9,400.886 247.5,400.5C 221.5,400.5 195.5,400.5 169.5,400.5C 152.126,404.122 137.293,399.789 125,387.5C 122.962,384.757 121.462,381.757 120.5,378.5C 160.501,378.667 200.501,378.5 240.5,378C 256.217,373.729 265.384,363.562 268,347.5C 272.307,303.2 276.14,258.866 279.5,214.5 Z"/></g>
<g><path style="opacity:0.985" fill="#d8ebfe" d="M 169.5,400.5 C 195.5,400.5 221.5,400.5 247.5,400.5C 244.094,425.174 240.927,449.841 238,474.5C 238.833,475.333 239.667,476.167 240.5,477C 255.833,477.333 271.167,477.667 286.5,478C 293.132,478.636 297.298,482.136 299,488.5C 301.726,498.514 298.893,506.18 290.5,511.5C 235.833,511.5 181.167,511.5 126.5,511.5C 118.698,506.284 115.865,498.951 118,489.5C 119.511,482.821 123.678,478.988 130.5,478C 145.833,477.667 161.167,477.333 176.5,477C 177.667,476.5 178.5,475.667 179,474.5C 176.26,449.814 173.093,425.147 169.5,400.5 Z"/></g>
</svg>
