<?xml version="1.0" encoding="UTF-8"?>
<!DOCTYPE svg PUBLIC "-//W3C//DTD SVG 1.1//EN" "http://www.w3.org/Graphics/SVG/1.1/DTD/svg11.dtd">
<svg xmlns="http://www.w3.org/2000/svg" version="1.1" width="512px" height="512px" style="shape-rendering:geometricPrecision; text-rendering:geometricPrecision; image-rendering:optimizeQuality; fill-rule:evenodd; clip-rule:evenodd" xmlns:xlink="http://www.w3.org/1999/xlink">
<g><path style="opacity:0.997" fill="#b57e5e" d="M 124.5,-0.5 C 131.5,-0.5 138.5,-0.5 145.5,-0.5C 217.978,4.73849 290.645,9.40516 363.5,13.5C 367.593,16.0079 371.093,19.3412 374,23.5C 378.667,36.1667 383.333,48.8333 388,61.5C 389.214,63.0488 390.714,64.2155 392.5,65C 399.363,64.8464 404.53,67.6797 408,73.5C 408.667,88.8333 408.667,104.167 408,119.5C 406.312,123.685 403.479,126.685 399.5,128.5C 299.999,128.167 200.665,128.501 101.5,129.5C 94.6086,130.099 87.942,129.265 81.5,127C 79.6217,125.457 78.1217,123.624 77,121.5C 75.3815,106.235 75.0481,90.9012 76,75.5C 78.4547,68.1775 83.6213,64.6775 91.5,65C 93.6238,63.8783 95.4571,62.3783 97,60.5C 103.667,42.5 110.333,24.5 117,6.5C 118.742,3.25432 121.242,0.920984 124.5,-0.5 Z"/></g>
<g><path style="opacity:1" fill="#9f6e50" d="M 363.5,13.5 C 372.769,14.4142 382.103,15.2475 391.5,16C 397.157,17.7829 400.657,21.6162 402,27.5C 405.803,38.5765 409.803,49.5765 414,60.5C 415.543,62.3783 417.376,63.8783 419.5,65C 425.837,64.7507 430.67,67.2507 434,72.5C 435.12,80.5938 435.62,88.7604 435.5,97C 435.62,105.24 435.12,113.406 434,121.5C 432.01,125.49 428.843,127.99 424.5,129C 419.511,129.499 414.511,129.666 409.5,129.5C 406.375,128.521 403.042,128.187 399.5,128.5C 403.479,126.685 406.312,123.685 408,119.5C 408.667,104.167 408.667,88.8333 408,73.5C 404.53,67.6797 399.363,64.8464 392.5,65C 390.714,64.2155 389.214,63.0488 388,61.5C 383.333,48.8333 378.667,36.1667 374,23.5C 371.093,19.3412 367.593,16.0079 363.5,13.5 Z"/></g>
<g><path style="opacity:0.999" fill="#d7ebfc" d="M 399.5,128.5 C 403.042,128.187 406.375,128.521 409.5,129.5C 400.5,129.5 391.5,129.5 382.5,129.5C 381.167,151.5 379.833,173.5 378.5,195.5C 287.665,195.833 196.998,195.499 106.5,194.5C 104.692,172.855 103.025,151.188 101.5,129.5C 200.665,128.501 299.999,128.167 399.5,128.5 Z"/></g>
<g><path style="opacity:1" fill="#b3dafd" d="M 409.5,129.5 C 407.975,151.188 406.308,172.855 404.5,194.5C 397.687,195.491 390.687,195.825 383.5,195.5C 381.833,195.5 380.167,195.5 378.5,195.5C 379.833,173.5 381.167,151.5 382.5,129.5C 391.5,129.5 400.5,129.5 409.5,129.5 Z"/></g>
<g><path style="opacity:0.999" fill="#e1a874" d="M 106.5,194.5 C 196.998,195.499 287.665,195.833 378.5,195.5C 380.167,195.5 381.833,195.5 383.5,195.5C 387.915,197.762 389.581,201.429 388.5,206.5C 384.444,265.174 380.277,323.84 376,382.5C 374.975,384.687 373.475,386.354 371.5,387.5C 369.167,387.5 366.833,387.5 364.5,387.5C 282.998,387.167 201.665,387.501 120.5,388.5C 110.81,388.298 106.643,383.298 108,373.5C 104.072,318.506 100.239,263.506 96.5,208.5C 94.4928,199.812 97.8261,195.145 106.5,194.5 Z"/></g>
<g><path style="opacity:1" fill="#b67f5f" d="M 404.5,194.5 C 413.174,195.145 416.507,199.812 414.5,208.5C 410.761,263.506 406.928,318.506 403,373.5C 404.357,383.298 400.19,388.298 390.5,388.5C 384.355,387.51 378.022,387.177 371.5,387.5C 373.475,386.354 374.975,384.687 376,382.5C 380.277,323.84 384.444,265.174 388.5,206.5C 389.581,201.429 387.915,197.762 383.5,195.5C 390.687,195.825 397.687,195.491 404.5,194.5 Z"/></g>
<g><path style="opacity:1" fill="#fcedac" d="M 262.5,241.5 C 260.642,243.883 259.308,246.55 258.5,249.5C 256.871,251.858 255.705,254.524 255,257.5C 253.378,266.681 254.711,275.347 259,283.5C 263.015,288.217 266.515,293.217 269.5,298.5C 274.198,313.244 273.198,327.577 266.5,341.5C 260.664,343.398 254.664,343.898 248.5,343C 247.944,342.617 247.611,342.117 247.5,341.5C 260.252,323.67 259.419,306.67 245,290.5C 236.544,274.221 236.377,257.888 244.5,241.5C 250.63,238.924 256.63,238.924 262.5,241.5 Z"/></g>
<g><path style="opacity:1" fill="#9f6e50" d="M 266.5,341.5 C 273.198,327.577 274.198,313.244 269.5,298.5C 269.666,289.494 269.5,280.494 269,271.5C 267.5,264.165 264.167,257.832 259,252.5C 258.517,251.552 258.351,250.552 258.5,249.5C 259.308,246.55 260.642,243.883 262.5,241.5C 279.236,244.046 290.07,253.713 295,270.5C 295.667,283.833 295.667,297.167 295,310.5C 291.552,326.446 282.052,336.78 266.5,341.5 Z"/></g>
<g><path style="opacity:1" fill="#b57f5f" d="M 244.5,241.5 C 236.377,257.888 236.544,274.221 245,290.5C 259.419,306.67 260.252,323.67 247.5,341.5C 230.47,338.308 219.97,327.975 216,310.5C 215.333,297.5 215.333,284.5 216,271.5C 219.875,256.126 229.375,246.126 244.5,241.5 Z"/></g>
<g><path style="opacity:1" fill="#b5805f" d="M 258.5,249.5 C 258.351,250.552 258.517,251.552 259,252.5C 264.167,257.832 267.5,264.165 269,271.5C 269.5,280.494 269.666,289.494 269.5,298.5C 266.515,293.217 263.015,288.217 259,283.5C 254.711,275.347 253.378,266.681 255,257.5C 255.705,254.524 256.871,251.858 258.5,249.5 Z"/></g>
<g><path style="opacity:0.998" fill="#d8ebfd" d="M 364.5,387.5 C 362.125,419.171 359.625,450.838 357,482.5C 352.57,497.764 342.737,507.43 327.5,511.5C 270.5,511.5 213.5,511.5 156.5,511.5C 142.286,507.121 132.786,497.788 128,483.5C 124.743,451.906 122.243,420.24 120.5,388.5C 201.665,387.501 282.998,387.167 364.5,387.5 Z"/></g>
<g><path style="opacity:1" fill="#b3dafd" d="M 364.5,387.5 C 366.833,387.5 369.167,387.5 371.5,387.5C 378.022,387.177 384.355,387.51 390.5,388.5C 388.757,420.24 386.257,451.906 383,483.5C 378.214,497.788 368.714,507.121 354.5,511.5C 345.5,511.5 336.5,511.5 327.5,511.5C 342.737,507.43 352.57,497.764 357,482.5C 359.625,450.838 362.125,419.171 364.5,387.5 Z"/></g>
</svg>
