<svg xmlns="http://www.w3.org/2000/svg" enable-background="new 0 0 512 512" viewBox="0 0 512 512" id="coffee-cup"><g display="none"><polygon fill="#C4C2C2" stroke="#000" stroke-linecap="round" stroke-linejoin="round" stroke-miterlimit="10" stroke-width="16" points="360 488 152 488 112 168 400 168"></polygon><rect width="336" height="64" x="88" y="104" fill="#C4C2C2" stroke="#000" stroke-linecap="round" stroke-linejoin="round" stroke-miterlimit="10" stroke-width="16"></rect><polygon fill="#C4C2C2" stroke="#000" stroke-linecap="round" stroke-linejoin="round" stroke-miterlimit="10" stroke-width="16" points="400 104 112 104 128 48 384 24"></polygon><polygon fill="#C4C2C2" stroke="#000" stroke-linecap="round" stroke-linejoin="round" stroke-miterlimit="10" stroke-width="16" points="392 392 120 392 104 248 408 248"></polygon><ellipse cx="248.7" cy="320" fill="#C4C2C2" stroke="#000" stroke-linecap="round" stroke-linejoin="round" stroke-miterlimit="10" stroke-width="16" rx="56" ry="40" transform="rotate(-45.001 248.663 320.004)"></ellipse><path fill="#C4C2C2" stroke="#000" stroke-linecap="round" stroke-linejoin="round" stroke-miterlimit="10" stroke-width="16" d="
		M289,281.1h-8.1c-13.4,0-23.4,12.2-20.8,25.4l0,0c3,14.8-10.1,27.9-25,25h0c-13.1-2.6-25.4,7.4-25.4,20.8v8.1"></path></g><g display="none"><path d="M424,96h-17.4l-14.7-73.6c-0.8-4-4.5-6.8-8.6-6.4l-256,24c-3.3,0.3-6,2.6-6.9,5.8L106,96H88c-4.4,0-8,3.6-8,8v64
			c0,4.4,3.6,8,8,8h16.9l8,64H104c-2.3,0-4.4,1-6,2.7c-1.5,1.7-2.2,4-2,6.2l16,144c0.5,4.1,3.9,7.1,8,7.1h12.9l11.1,89
			c0.5,4,3.9,7,7.9,7h208c4,0,7.4-3,7.9-7l11.1-89H392c4.1,0,7.5-3.1,8-7.1l16-144c0.3-2.3-0.5-4.5-2-6.2c-1.5-1.7-3.7-2.7-6-2.7
			h-8.9l8-64H424c4.4,0,8-3.6,8-8v-64C432,99.6,428.4,96,424,96z M134.2,55.5l243.4-22.8L390.2,96H122.6L134.2,55.5z M352.9,480
			H159.1l-10-80h213.9L352.9,480z M384.8,384H127.2l-14.2-128H390c0,0,0,0,0,0c0,0,0,0,0,0h9L384.8,384z M382.9,240H129.1l-8-64
			h269.9L382.9,240z M416,160h-16H112H96v-48h16h288h16V160z"></path><path d="M294.3,275.2c-0.1-0.1-0.3-0.3-0.4-0.4c-9.4-9.4-23.1-13.2-38.6-10.6c-14.5,2.4-28.9,10.2-40.6,22
			c-11.7,11.7-19.5,26.2-22,40.6c-2.6,15.4,1.2,29.1,10.6,38.6c0.2,0.2,0.3,0.3,0.5,0.5c0.3,0.3,0.6,0.6,0.9,0.8
			c7.4,6.7,17,10.1,28,10.1c3,0,6.1-0.3,9.2-0.8c14.5-2.4,28.9-10.2,40.6-22c11.7-11.7,19.5-26.2,22-40.6
			c2.4-14.7-0.9-27.8-9.3-37.1C295,275.8,294.7,275.5,294.3,275.2z M226,297.4c9.4-9.4,20.8-15.6,31.9-17.5c1.7-0.3,3.3-0.5,4.9-0.5
			c-1.7,1.3-3.2,2.8-4.5,4.5c-5.6,6.8-7.8,15.6-6.1,24.2c0.9,4.4-0.4,8.8-3.6,11.9c-3.2,3.2-7.5,4.5-11.9,3.6
			c-8.6-1.7-17.5,0.5-24.2,6.1c-1.7,1.4-3.1,2.9-4.4,4.5c0.1-1.6,0.2-3.2,0.5-4.9C210.4,318.1,216.6,306.8,226,297.4z M271.3,342.6
			c-17,17-40.4,22.7-53.5,13.8v-4.2c0-4,1.8-7.7,4.8-10.2c3.1-2.5,7.1-3.5,11-2.7c9.6,1.9,19.5-1.1,26.4-8c6.9-6.9,9.9-16.8,8-26.4
			c-0.8-3.9,0.2-7.9,2.7-11c2.5-3.1,6.2-4.8,10.2-4.8h4.2C294,302.3,288.3,325.6,271.3,342.6z"></path></g><g display="none"><linearGradient id="a" x1="82.343" x2="441.657" y1="429.657" y2="70.343" gradientUnits="userSpaceOnUse"><stop offset="0" stop-color="#12c2e9"></stop><stop offset=".533" stop-color="#c471ed"></stop><stop offset="1" stop-color="#f64f59"></stop></linearGradient><path fill="url(#a)" d="M424,96h-17.4l-14.7-73.6c-0.8-4-4.5-6.8-8.6-6.4l-256,24c-3.3,0.3-6,2.6-6.9,5.8
		L106,96H88c-4.4,0-8,3.6-8,8v64c0,4.4,3.6,8,8,8h16.9l8,64H104c-2.3,0-4.4,1-6,2.7c-1.5,1.7-2.2,4-2,6.2l16,144
		c0.5,4.1,3.9,7.1,8,7.1h12.9l11.1,89c0.5,4,3.9,7,7.9,7h208c4,0,7.4-3,7.9-7l11.1-89H392c4.1,0,7.5-3.1,8-7.1l16-144
		c0.3-2.3-0.5-4.5-2-6.2c-1.5-1.7-3.7-2.7-6-2.7h-8.9l8-64H424c4.4,0,8-3.6,8-8v-64C432,99.6,428.4,96,424,96z M134.2,55.5
		l243.4-22.8L390.2,96H122.6L134.2,55.5z M352.9,480H159.1l-10-80h213.9L352.9,480z M384.8,384H127.2l-14.2-128H390c0,0,0,0,0,0
		c0,0,0,0,0,0h9L384.8,384z M121.1,176h269.9l-8,64H129.1L121.1,176z M416,160h-16H112H96v-48h16h288h16V160z M301,275.2
		c-0.1-0.1-0.3-0.3-0.4-0.4c-9.4-9.4-23.1-13.2-38.6-10.6c-14.5,2.4-28.9,10.2-40.6,22c-11.7,11.7-19.5,26.2-22,40.6
		c-2.6,15.4,1.2,29.1,10.6,38.6c0.2,0.2,0.3,0.3,0.5,0.5c0.3,0.3,0.6,0.6,0.9,0.8c7.4,6.7,17,10.1,28,10.1c3,0,6.1-0.3,9.2-0.8
		c14.5-2.4,28.9-10.2,40.6-22c11.7-11.7,19.5-26.2,22-40.6c2.4-14.7-0.9-27.8-9.3-37.1C301.7,275.8,301.3,275.5,301,275.2z
		 M214.7,334.2c0.1-1.6,0.2-3.2,0.5-4.9c1.9-11.2,8.1-22.5,17.5-31.9c9.4-9.4,20.8-15.6,31.9-17.5c1.7-0.3,3.3-0.5,4.9-0.5
		c-1.7,1.3-3.2,2.8-4.5,4.5c-5.6,6.8-7.8,15.6-6.1,24.2c0.9,4.4-0.4,8.8-3.6,11.9c-3.2,3.2-7.5,4.5-11.9,3.6
		c-8.6-1.7-17.5,0.5-24.2,6.1C217.5,331,216,332.5,214.7,334.2z M277.9,342.6c-17,17-40.4,22.7-53.5,13.8v-4.2c0-4,1.8-7.7,4.8-10.2
		c3.1-2.5,7.1-3.5,11-2.7c9.6,1.9,19.5-1.1,26.4-8c6.9-6.9,9.9-16.8,8-26.4c-0.8-3.9,0.2-7.9,2.7-11c2.5-3.1,6.2-4.8,10.2-4.8h4.2
		C300.6,302.3,294.9,325.6,277.9,342.6z"></path></g><g display="none"><polygon points="159.1 480 352.9 480 362.9 400 149.1 400"></polygon><path d="M280.9,289.1c-4,0-7.7,1.8-10.2,4.8c-2.5,3.1-3.5,7.1-2.7,11c1.9,9.6-1.1,19.5-8,26.4c-6.9,6.9-16.8,9.9-26.4,8
			c-3.9-0.8-7.9,0.2-11,2.7c-3.1,2.5-4.8,6.2-4.8,10.2v4.2c13.1,8.9,36.5,3.2,53.5-13.8c17-17,22.7-40.4,13.8-53.5H280.9z"></path><polygon points="377.6 32.6 134.2 55.5 122.6 96 390.2 96"></polygon><path d="M236.7,323.6c4.4,0.9,8.8-0.4,11.9-3.6c3.2-3.2,4.5-7.5,3.6-11.9c-1.7-8.6,0.5-17.5,6.1-24.2c1.4-1.7,2.9-3.2,4.5-4.5
			c-1.6,0.1-3.2,0.2-4.9,0.5c-11.2,1.9-22.5,8.1-31.9,17.5c-9.4,9.4-15.6,20.8-17.5,31.9c-0.3,1.7-0.4,3.3-0.5,4.9
			c1.3-1.6,2.8-3.2,4.4-4.5C219.3,324.1,228.1,321.9,236.7,323.6z"></path><polygon points="400 112 112 112 96 112 96 160 112 160 400 160 416 160 416 112"></polygon><polygon points="390.9 176 121.1 176 129.1 240 382.9 240"></polygon><path d="M390,256C390,256,390,256,390,256l-277.1,0l14.2,128h257.7l14.2-128L390,256C390,256,390,256,390,256z M304.6,313.3
			c-2.4,14.5-10.2,28.9-22,40.6c-11.7,11.7-26.2,19.5-40.6,22c-3.2,0.5-6.3,0.8-9.2,0.8c-10.9,0-20.6-3.5-28-10.1
			c-0.3-0.3-0.6-0.5-0.9-0.8c-0.2-0.2-0.3-0.3-0.5-0.5c-9.4-9.4-13.2-23.1-10.6-38.6c2.4-14.5,10.2-28.9,22-40.6
			c11.7-11.7,26.2-19.5,40.6-22c15.4-2.6,29.1,1.2,38.6,10.6c0.1,0.1,0.3,0.3,0.4,0.4c0.3,0.3,0.7,0.6,1,1
			C303.7,285.6,307,298.6,304.6,313.3z"></path></g><polygon fill="#AA744A" points="360 488 152 488 112 168 400 168"></polygon><rect width="336" height="64" x="88" y="104" fill="#432716"></rect><polygon fill="#AA744A" points="400 104 112 104 128 48 384 24"></polygon><polygon fill="#A1BDC1" points="392 392 120 392 104 248 408 248"></polygon><path fill="#432716" d="M232.6,334L232.6,334c16.1,1.8,31.8-14,30-30l0,0c-1.3-12,7.3-24.2,18.9-28.6c-16.6-9-42.1-2.7-61.2,16.3
		c-19.1,19.1-25.4,44.6-16.3,61.2C208.4,341.3,220.6,332.7,232.6,334z"></path><path fill="#6A3E23" d="M288.3,280.4c-2-2-4.3-3.7-6.7-5c-11.6,4.3-20.2,16.5-18.9,28.6l0,0c1.8,16.1-14,31.8-30,30l0,0
		c-12-1.3-24.2,7.3-28.6,18.9c1.3,2.4,3,4.7,5,6.7c15.6,15.6,46,10.6,67.9-11.3C298.8,326.4,303.9,296,288.3,280.4z"></path><g display="none"><polygon fill="#AA744A" points="360 488 152 488 112 168 400 168"></polygon><rect width="336" height="64" x="88" y="104" fill="#432716"></rect><polygon fill="#AA744A" points="400 104 112 104 128 48 384 24"></polygon><polygon fill="#A1BDC1" points="392 392 120 392 104 248 408 248"></polygon><path fill="#432716" d="M232.6,334L232.6,334c16.1,1.8,31.8-14,30-30l0,0c-1.3-12,7.3-24.2,18.9-28.6
		c-16.6-9-42.1-2.7-61.2,16.3c-19.1,19.1-25.4,44.6-16.3,61.2C208.4,341.3,220.6,332.7,232.6,334z"></path><path fill="#6A3E23" d="M288.3,280.4c-2-2-4.3-3.7-6.7-5c-11.6,4.3-20.2,16.5-18.9,28.6l0,0
		c1.8,16.1-14,31.8-30,30l0,0c-12-1.3-24.2,7.3-28.6,18.9c1.3,2.4,3,4.7,5,6.7c15.6,15.6,46,10.6,67.9-11.3
		C298.8,326.4,303.9,296,288.3,280.4z"></path><path d="M424,96h-17.4l-14.7-73.6c-0.8-4-4.5-6.8-8.6-6.4l-256,24c-3.3,0.3-6,2.6-6.9,5.8L106,96H88c-4.4,0-8,3.6-8,8v64
			c0,4.4,3.6,8,8,8h16.9l8,64H104c-2.3,0-4.4,1-6,2.7c-1.5,1.7-2.2,4-2,6.2l16,144c0.5,4.1,3.9,7.1,8,7.1h12.9l11.1,89
			c0.5,4,3.9,7,7.9,7h208c4,0,7.4-3,7.9-7l11.1-89H392c4.1,0,7.5-3.1,8-7.1l16-144c0.3-2.3-0.5-4.5-2-6.2c-1.5-1.7-3.7-2.7-6-2.7
			h-8.9l8-64H424c4.4,0,8-3.6,8-8v-64C432,99.6,428.4,96,424,96z M134.2,55.5l243.4-22.8L390.2,96H122.6L134.2,55.5z M352.9,480
			H159.1l-10-80h213.9L352.9,480z M384.8,384H127.2l-14.2-128H390c0,0,0,0,0,0c0,0,0,0,0,0h9L384.8,384z M382.9,240H129.1l-8-64
			h269.9L382.9,240z M416,160h-16H112H96v-48h16h288h16V160z"></path><path d="M294.3,275.2c-0.1-0.1-0.3-0.3-0.4-0.4c-9.4-9.4-23.1-13.2-38.6-10.6c-14.5,2.4-28.9,10.2-40.6,22
			c-11.7,11.7-19.5,26.2-22,40.6c-2.6,15.4,1.2,29.1,10.6,38.6c0.2,0.2,0.3,0.3,0.5,0.5c0.3,0.3,0.6,0.6,0.9,0.8
			c7.4,6.7,17,10.1,28,10.1c3,0,6.1-0.3,9.2-0.8c14.5-2.4,28.9-10.2,40.6-22c11.7-11.7,19.5-26.2,22-40.6
			c2.4-14.7-0.9-27.8-9.3-37.1C295,275.8,294.7,275.5,294.3,275.2z M226,297.4c9.4-9.4,20.8-15.6,31.9-17.5c1.7-0.3,3.3-0.5,4.9-0.5
			c-1.7,1.3-3.2,2.8-4.5,4.5c-5.6,6.8-7.8,15.6-6.1,24.2c0.9,4.4-0.4,8.8-3.6,11.9c-3.2,3.2-7.5,4.5-11.9,3.6
			c-8.6-1.7-17.5,0.5-24.2,6.1c-1.7,1.4-3.1,2.9-4.4,4.5c0.1-1.6,0.2-3.2,0.5-4.9C210.4,318.1,216.6,306.8,226,297.4z M271.3,342.6
			c-17,17-40.4,22.7-53.5,13.8v-4.2c0-4,1.8-7.7,4.8-10.2c3.1-2.5,7.1-3.5,11-2.7c9.6,1.9,19.5-1.1,26.4-8c6.9-6.9,9.9-16.8,8-26.4
			c-0.8-3.9,0.2-7.9,2.7-11c2.5-3.1,6.2-4.8,10.2-4.8h4.2C294,302.3,288.3,325.6,271.3,342.6z"></path></g></svg>