<?xml version="1.0" encoding="UTF-8"?>
<!DOCTYPE svg PUBLIC "-//W3C//DTD SVG 1.1//EN" "http://www.w3.org/Graphics/SVG/1.1/DTD/svg11.dtd">
<svg xmlns="http://www.w3.org/2000/svg" version="1.1" width="512px" height="512px" style="shape-rendering:geometricPrecision; text-rendering:geometricPrecision; image-rendering:optimizeQuality; fill-rule:evenodd; clip-rule:evenodd" xmlns:xlink="http://www.w3.org/1999/xlink">
<g><path style="opacity:0.98" fill="#f63d3d" d="M 280.5,-0.5 C 298.5,-0.5 316.5,-0.5 334.5,-0.5C 344.527,6.14589 345.86,14.3126 338.5,24C 335.754,25.7497 332.754,26.7497 329.5,27C 314.833,27.3333 300.167,27.6667 285.5,28C 278.599,30.5683 274.099,35.4017 272,42.5C 271.5,58.1631 271.333,73.8298 271.5,89.5C 262.167,89.5 252.833,89.5 243.5,89.5C 243.333,72.83 243.5,56.1633 244,39.5C 248.386,18.9517 260.553,5.61836 280.5,-0.5 Z"/></g>
<g><path style="opacity:0.967" fill="#b7d9ee" d="M 180.5,104.5 C 161.833,104.5 143.167,104.5 124.5,104.5C 124.334,98.4908 124.501,92.4908 125,86.5C 125.5,86 126,85.5 126.5,85C 135.237,83.8603 144.07,83.3603 153,83.5C 161.167,83.6667 169.333,83.8333 177.5,84C 178.333,84.8333 179.167,85.6667 180,86.5C 180.499,92.4908 180.666,98.4908 180.5,104.5 Z"/></g>
<g><path style="opacity:0.965" fill="#b7d9ee" d="M 381.5,104.5 C 362.833,104.5 344.167,104.5 325.5,104.5C 325.334,98.4908 325.501,92.4908 326,86.5C 326.5,86 327,85.5 327.5,85C 336.237,83.8603 345.07,83.3603 354,83.5C 362.167,83.6667 370.333,83.8333 378.5,84C 379.333,84.8333 380.167,85.6667 381,86.5C 381.499,92.4908 381.666,98.4908 381.5,104.5 Z"/></g>
<g><path style="opacity:0.974" fill="#deedfd" d="M 243.5,89.5 C 252.833,89.5 262.167,89.5 271.5,89.5C 278.841,89.3337 286.174,89.5003 293.5,90C 294.333,90.8333 295.167,91.6667 296,92.5C 296.499,96.4862 296.666,100.486 296.5,104.5C 269.167,104.5 241.833,104.5 214.5,104.5C 214.334,100.486 214.501,96.4862 215,92.5C 215.833,91.6667 216.667,90.8333 217.5,90C 226.16,89.5002 234.827,89.3336 243.5,89.5 Z"/></g>
<g><path style="opacity:1" fill="#a8c4dd" d="M 124.5,104.5 C 143.167,104.5 161.833,104.5 180.5,104.5C 180.5,108.5 180.5,112.5 180.5,116.5C 161.833,116.5 143.167,116.5 124.5,116.5C 124.5,112.5 124.5,108.5 124.5,104.5 Z"/></g>
<g><path style="opacity:1" fill="#b8daef" d="M 214.5,104.5 C 241.833,104.5 269.167,104.5 296.5,104.5C 296.5,108.5 296.5,112.5 296.5,116.5C 269.167,116.5 241.833,116.5 214.5,116.5C 214.5,112.5 214.5,108.5 214.5,104.5 Z"/></g>
<g><path style="opacity:1" fill="#a8c4dd" d="M 325.5,104.5 C 344.167,104.5 362.833,104.5 381.5,104.5C 381.5,108.5 381.5,112.5 381.5,116.5C 362.833,116.5 344.167,116.5 325.5,116.5C 325.5,112.5 325.5,108.5 325.5,104.5 Z"/></g>
<g><path style="opacity:0.993" fill="#ddeefd" d="M 124.5,116.5 C 143.167,116.5 161.833,116.5 180.5,116.5C 191.833,116.5 203.167,116.5 214.5,116.5C 241.833,116.5 269.167,116.5 296.5,116.5C 306.167,116.5 315.833,116.5 325.5,116.5C 344.167,116.5 362.833,116.5 381.5,116.5C 394.504,116.333 407.504,116.5 420.5,117C 428.556,118.722 433.723,123.556 436,131.5C 436.667,142.5 436.667,153.5 436,164.5C 435.167,165.333 434.333,166.167 433.5,167C 425.507,167.5 417.507,167.666 409.5,167.5C 380.833,167.5 352.167,167.5 323.5,167.5C 249.5,167.5 175.5,167.5 101.5,167.5C 93.4931,167.666 85.4931,167.5 77.5,167C 76.6667,166.167 75.8333,165.333 75,164.5C 74.0629,152.429 74.3962,140.429 76,128.5C 78.8485,122.16 83.6818,118.326 90.5,117C 101.828,116.5 113.162,116.333 124.5,116.5 Z"/></g>
<g><path style="opacity:0.999" fill="#f63d3d" d="M 101.5,167.5 C 175.5,167.5 249.5,167.5 323.5,167.5C 321.912,196.319 318.912,224.986 314.5,253.5C 247.167,253.5 179.833,253.5 112.5,253.5C 108.67,224.858 105.003,196.192 101.5,167.5 Z"/></g>
<g><path style="opacity:1" fill="#eb1410" d="M 323.5,167.5 C 352.167,167.5 380.833,167.5 409.5,167.5C 405.997,196.193 402.33,224.859 398.5,253.5C 370.5,253.5 342.5,253.5 314.5,253.5C 318.912,224.986 321.912,196.319 323.5,167.5 Z"/></g>
<g><path style="opacity:1" fill="#786576" d="M 112.5,253.5 C 179.833,253.5 247.167,253.5 314.5,253.5C 342.5,253.5 370.5,253.5 398.5,253.5C 398.784,255.415 398.451,257.081 397.5,258.5C 397.5,257.167 397.5,255.833 397.5,254.5C 369.833,254.5 342.167,254.5 314.5,254.5C 247.5,254.5 180.5,254.5 113.5,254.5C 113.5,255.833 113.5,257.167 113.5,258.5C 112.549,257.081 112.216,255.415 112.5,253.5 Z"/></g>
<g><path style="opacity:1" fill="#4f758d" d="M 314.5,254.5 C 311.908,271.648 308.574,288.648 304.5,305.5C 304.624,306.107 304.957,306.44 305.5,306.5C 302.381,307.87 299.048,308.87 295.5,309.5C 277.408,289.811 256.074,285.311 231.5,296C 217.315,304.216 208.982,316.383 206.5,332.5C 205.532,334.607 205.198,336.941 205.5,339.5C 197.686,341.494 190.019,343.994 182.5,347C 173.944,353.506 172.444,361.339 178,370.5C 182.618,376.053 188.451,377.886 195.5,376C 202.105,373.853 208.772,372.019 215.5,370.5C 234.712,391.268 257.046,395.268 282.5,382.5C 277.325,397.182 271.325,411.516 264.5,425.5C 221.167,425.5 177.833,425.5 134.5,425.5C 127.091,369.898 120.091,314.231 113.5,258.5C 113.5,257.167 113.5,255.833 113.5,254.5C 180.5,254.5 247.5,254.5 314.5,254.5 Z"/></g>
<g><path style="opacity:1" fill="#3a617b" d="M 314.5,254.5 C 342.167,254.5 369.833,254.5 397.5,254.5C 397.5,255.833 397.5,257.167 397.5,258.5C 390.992,314.566 383.992,370.566 376.5,426.5C 339.167,426.5 301.833,426.5 264.5,426.5C 264.5,426.167 264.5,425.833 264.5,425.5C 271.325,411.516 277.325,397.182 282.5,382.5C 296.93,372.315 304.596,358.315 305.5,340.5C 313.666,338.167 321.666,335.333 329.5,332C 339.77,320.96 338.437,311.627 325.5,304C 318.578,302.965 311.912,303.798 305.5,306.5C 304.957,306.44 304.624,306.107 304.5,305.5C 308.574,288.648 311.908,271.648 314.5,254.5 Z"/></g>
<g><path style="opacity:1" fill="#f63e3e" d="M 295.5,309.5 C 266.388,319.537 237.054,329.204 207.5,338.5C 206.539,336.735 206.205,334.735 206.5,332.5C 208.982,316.383 217.315,304.216 231.5,296C 256.074,285.311 277.408,289.811 295.5,309.5 Z"/></g>
<g><path style="opacity:1" fill="#ddedfd" d="M 305.5,340.5 C 275.314,350.206 245.314,360.206 215.5,370.5C 208.772,372.019 202.105,373.853 195.5,376C 188.451,377.886 182.618,376.053 178,370.5C 172.444,361.339 173.944,353.506 182.5,347C 190.019,343.994 197.686,341.494 205.5,339.5C 206.492,339.672 207.158,339.338 207.5,338.5C 237.054,329.204 266.388,319.537 295.5,309.5C 299.048,308.87 302.381,307.87 305.5,306.5C 311.912,303.798 318.578,302.965 325.5,304C 338.437,311.627 339.77,320.96 329.5,332C 321.666,335.333 313.666,338.167 305.5,340.5 Z"/></g>
<g><path style="opacity:1" fill="#c0646c" d="M 206.5,332.5 C 206.205,334.735 206.539,336.735 207.5,338.5C 207.158,339.338 206.492,339.672 205.5,339.5C 205.198,336.941 205.532,334.607 206.5,332.5 Z"/></g>
<g><path style="opacity:1" fill="#f63f3f" d="M 305.5,340.5 C 304.596,358.315 296.93,372.315 282.5,382.5C 257.046,395.268 234.712,391.268 215.5,370.5C 245.314,360.206 275.314,350.206 305.5,340.5 Z"/></g>
<g><path style="opacity:0.997" fill="#f63d3d" d="M 134.5,425.5 C 177.833,425.5 221.167,425.5 264.5,425.5C 264.5,425.833 264.5,426.167 264.5,426.5C 247.913,458.652 226.247,486.985 199.5,511.5C 185.167,511.5 170.833,511.5 156.5,511.5C 150.52,509.018 146.353,504.685 144,498.5C 140.423,474.22 137.257,449.887 134.5,425.5 Z"/></g>
<g><path style="opacity:1" fill="#eb1410" d="M 264.5,426.5 C 301.833,426.5 339.167,426.5 376.5,426.5C 373.662,450.538 370.495,474.538 367,498.5C 364.647,504.685 360.48,509.018 354.5,511.5C 302.833,511.5 251.167,511.5 199.5,511.5C 226.247,486.985 247.913,458.652 264.5,426.5 Z"/></g>
</svg>
