<?xml version="1.0" encoding="UTF-8"?>
<!DOCTYPE svg PUBLIC "-//W3C//DTD SVG 1.1//EN" "http://www.w3.org/Graphics/SVG/1.1/DTD/svg11.dtd">
<svg xmlns="http://www.w3.org/2000/svg" version="1.1" width="512px" height="512px" style="shape-rendering:geometricPrecision; text-rendering:geometricPrecision; image-rendering:optimizeQuality; fill-rule:evenodd; clip-rule:evenodd" xmlns:xlink="http://www.w3.org/1999/xlink">
<g><path style="opacity:0.966" fill="#f0aa7c" d="M 212.5,-0.5 C 215.167,-0.5 217.833,-0.5 220.5,-0.5C 222.144,0.316435 223.31,1.64977 224,3.5C 225.468,9.85957 224.135,15.5262 220,20.5C 215.634,24.0384 211.467,27.705 207.5,31.5C 208.219,33.7277 209.552,35.561 211.5,37C 224.237,43.9764 227.737,54.1431 222,67.5C 217.892,72.2105 213.225,76.2105 208,79.5C 206.089,89.7903 200.756,92.1237 192,86.5C 190.06,80.8993 190.727,75.5659 194,70.5C 198.84,65.8613 203.673,61.3613 208.5,57C 203.346,51.8456 198.179,46.679 193,41.5C 189.343,33.765 190.01,26.4316 195,19.5C 199.333,15.8333 203.667,12.1667 208,8.5C 208.454,4.92484 209.954,1.92484 212.5,-0.5 Z"/></g>
<g><path style="opacity:0.96" fill="#f0aa7c" d="M 268.5,-0.5 C 271.167,-0.5 273.833,-0.5 276.5,-0.5C 278.144,0.316435 279.31,1.64977 280,3.5C 280.767,7.59355 280.434,11.5935 279,15.5C 274.287,21.7144 268.787,27.0477 262.5,31.5C 265.683,35.8442 269.683,39.3442 274.5,42C 281.4,50.2296 282.233,59.0629 277,68.5C 272.333,72.5 267.667,76.5 263,80.5C 261.061,89.975 256.061,91.975 248,86.5C 245.568,79.9636 246.568,73.9636 251,68.5C 254.552,65.2809 258.385,62.4476 262.5,60C 263.293,58.9148 263.96,57.7481 264.5,56.5C 259.802,52.0591 254.969,47.7258 250,43.5C 245.333,35.8333 245.333,28.1667 250,20.5C 254.48,16.2632 259.147,12.2632 264,8.5C 264.333,6.83333 264.667,5.16667 265,3.5C 266.376,2.29493 267.542,0.961599 268.5,-0.5 Z"/></g>
<g><path style="opacity:0.999" fill="#f8f1d6" d="M 346.5,119.5 C 343.754,146.54 340.754,173.54 337.5,200.5C 267.998,200.167 198.665,200.501 129.5,201.5C 131.395,222.887 133.728,244.221 136.5,265.5C 143.398,324.823 150.231,384.157 157,443.5C 157.5,444 158,444.5 158.5,445C 208.832,445.5 259.166,445.667 309.5,445.5C 307.257,459.575 299.257,468.408 285.5,472C 240.501,472.5 195.501,472.667 150.5,472.5C 138.913,468.073 131.747,459.739 129,447.5C 116.462,338.161 103.962,228.827 91.5,119.5C 176.5,119.5 261.5,119.5 346.5,119.5 Z"/></g>
<g><path style="opacity:0.996" fill="#f2e9cb" d="M 346.5,119.5 C 360.167,119.5 373.833,119.5 387.5,119.5C 385.98,135.516 384.313,151.516 382.5,167.5C 422.214,159.94 450.714,174.273 468,210.5C 478.584,243.678 470.751,271.511 444.5,294C 428.3,305.549 410.3,309.883 390.5,307C 382.586,305.695 375.086,303.195 368,299.5C 361.71,349.444 355.71,399.444 350,449.5C 347.337,460.829 340.503,468.329 329.5,472C 352.831,472.5 376.164,472.667 399.5,472.5C 391.673,493.333 377.006,506.333 355.5,511.5C 264.167,511.5 172.833,511.5 81.5,511.5C 68.9281,508.793 58.4281,502.46 50,492.5C 46.1667,486.167 42.3333,479.833 38.5,473.5C 75.8274,472.5 113.161,472.167 150.5,472.5C 195.501,472.667 240.501,472.5 285.5,472C 299.257,468.408 307.257,459.575 309.5,445.5C 313.514,445.666 317.514,445.499 321.5,445C 322.126,444.25 322.626,443.416 323,442.5C 329.434,384.162 335.934,325.829 342.5,267.5C 345.184,247.01 347.517,226.344 349.5,205.5C 350.451,204.081 350.784,202.415 350.5,200.5C 346.167,200.5 341.833,200.5 337.5,200.5C 340.754,173.54 343.754,146.54 346.5,119.5 Z M 394.5,194.5 C 420.099,193.285 436.266,204.951 443,229.5C 444.801,254.689 433.634,270.855 409.5,278C 395.031,280.398 382.531,276.565 372,266.5C 373.426,244.759 375.759,223.092 379,201.5C 383.851,198.28 389.018,195.947 394.5,194.5 Z"/></g>
<g><path style="opacity:1" fill="#f5d9b8" d="M 129.5,201.5 C 198.665,200.501 267.998,200.167 337.5,200.5C 341.833,200.5 346.167,200.5 350.5,200.5C 350.784,202.415 350.451,204.081 349.5,205.5C 349.5,204.167 349.5,202.833 349.5,201.5C 276.167,201.5 202.833,201.5 129.5,201.5 Z"/></g>
<g><path style="opacity:1" fill="#f0aa7d" d="M 129.5,201.5 C 202.833,201.5 276.167,201.5 349.5,201.5C 349.5,202.833 349.5,204.167 349.5,205.5C 347.517,226.344 345.184,247.01 342.5,267.5C 274.175,265.503 205.508,264.837 136.5,265.5C 133.728,244.221 131.395,222.887 129.5,201.5 Z"/></g>
<g><path style="opacity:1" fill="#9b4f1d" d="M 136.5,265.5 C 205.508,264.837 274.175,265.503 342.5,267.5C 335.934,325.829 329.434,384.162 323,442.5C 322.626,443.416 322.126,444.25 321.5,445C 317.514,445.499 313.514,445.666 309.5,445.5C 259.166,445.667 208.832,445.5 158.5,445C 158,444.5 157.5,444 157,443.5C 150.231,384.157 143.398,324.823 136.5,265.5 Z"/></g>
<g><path style="opacity:1" fill="#ebe0b9" d="M 399.5,472.5 C 413.504,472.333 427.504,472.5 441.5,473C 436.086,484.086 428.753,493.753 419.5,502C 412.905,506.302 405.905,509.469 398.5,511.5C 384.167,511.5 369.833,511.5 355.5,511.5C 377.006,506.333 391.673,493.333 399.5,472.5 Z"/></g>
</svg>
