<?xml version="1.0" encoding="UTF-8"?>
<!DOCTYPE svg PUBLIC "-//W3C//DTD SVG 1.1//EN" "http://www.w3.org/Graphics/SVG/1.1/DTD/svg11.dtd">
<svg xmlns="http://www.w3.org/2000/svg" version="1.1" width="512px" height="512px" style="shape-rendering:geometricPrecision; text-rendering:geometricPrecision; image-rendering:optimizeQuality; fill-rule:evenodd; clip-rule:evenodd" xmlns:xlink="http://www.w3.org/1999/xlink">
<g><path style="opacity:0.971" fill="#dae1ea" d="M 217.5,-0.5 C 220.5,-0.5 223.5,-0.5 226.5,-0.5C 239.216,20.7932 242.716,43.4598 237,67.5C 232.918,78.7451 228.251,89.7451 223,100.5C 219.272,110.964 218.605,121.631 221,132.5C 223.345,141.701 226.179,150.701 229.5,159.5C 229.909,164.923 227.409,167.59 222,167.5C 219.186,167.592 216.853,166.592 215,164.5C 203.708,142.799 201.041,120.132 207,96.5C 211.333,86.8333 215.667,77.1667 220,67.5C 225.235,53.0134 225.235,38.3467 220,23.5C 217.972,17.944 215.805,12.444 213.5,7C 213.994,3.99195 215.327,1.49195 217.5,-0.5 Z"/></g>
<g><path style="opacity:0.974" fill="#dae1ea" d="M 117.5,28.5 C 120.518,28.3354 123.518,28.502 126.5,29C 134.347,40.3676 138.347,53.0343 138.5,67C 138.226,72.916 137.393,78.7493 136,84.5C 131.467,95.7663 127.134,107.1 123,118.5C 122.333,124.833 122.333,131.167 123,137.5C 125.097,145.126 127.597,152.626 130.5,160C 128.289,167.385 123.623,169.385 116.5,166C 106.13,147.776 103.63,128.609 109,108.5C 111.943,100.338 115.276,92.3378 119,84.5C 122.581,75.3605 123.248,66.0272 121,56.5C 118.813,49.4718 116.647,42.4718 114.5,35.5C 114.667,34.1667 114.833,32.8333 115,31.5C 116.045,30.6266 116.878,29.6266 117.5,28.5 Z"/></g>
<g><path style="opacity:0.973" fill="#dae1ea" d="M 316.5,28.5 C 321.223,27.5531 325.056,28.8864 328,32.5C 336.654,49.4202 338.654,67.0869 334,85.5C 328.872,96.8848 324.539,108.552 321,120.5C 320.333,125.5 320.333,130.5 321,135.5C 322.784,143.897 325.284,152.064 328.5,160C 327.25,166.901 323.25,169.234 316.5,167C 315.333,165.833 314.167,164.667 313,163.5C 300.614,136.826 301.948,110.826 317,85.5C 320.747,75.3753 321.414,65.042 319,54.5C 316.954,48.251 314.787,42.0843 312.5,36C 312.43,32.6335 313.763,30.1335 316.5,28.5 Z"/></g>
<g><path style="opacity:0.987" fill="#d77c40" d="M 196.5,202.5 C 191.167,202.5 185.833,202.5 180.5,202.5C 180.737,198.727 180.237,195.06 179,191.5C 174.959,186.687 170.625,186.354 166,190.5C 164.646,194.363 164.146,198.363 164.5,202.5C 163.167,233.167 163.167,263.833 164.5,294.5C 164.5,294.833 164.5,295.167 164.5,295.5C 163.504,310.991 163.17,326.658 163.5,342.5C 159.925,349.449 155.425,350.115 150,344.5C 149.831,327.995 149.331,311.662 148.5,295.5C 148.5,295.167 148.5,294.833 148.5,294.5C 149.833,263.833 149.833,233.167 148.5,202.5C 147.953,177.791 159.619,168.291 183.5,174C 193.628,180.762 197.961,190.262 196.5,202.5 Z M 180.5,202.5 C 175.167,202.5 169.833,202.5 164.5,202.5C 164.146,198.363 164.646,194.363 166,190.5C 170.625,186.354 174.959,186.687 179,191.5C 180.237,195.06 180.737,198.727 180.5,202.5 Z"/></g>
<g><path style="opacity:1" fill="#fcd8b3" d="M 148.5,202.5 C 149.833,233.167 149.833,263.833 148.5,294.5C 148.5,281.167 148.5,267.833 148.5,254.5C 115.833,254.5 83.1667,254.5 50.5,254.5C 51.4503,240.447 52.9503,226.447 55,212.5C 55.1161,209.068 56.2828,206.068 58.5,203.5C 88.4561,202.508 118.456,202.175 148.5,202.5 Z"/></g>
<g><path style="opacity:1" fill="#fcd8b3" d="M 164.5,202.5 C 169.833,202.5 175.167,202.5 180.5,202.5C 185.833,202.5 191.167,202.5 196.5,202.5C 247.5,202.5 298.5,202.5 349.5,202.5C 353.141,204.324 354.974,207.324 355,211.5C 357.034,225.782 358.534,240.116 359.5,254.5C 294.5,254.5 229.5,254.5 164.5,254.5C 164.5,267.833 164.5,281.167 164.5,294.5C 163.167,263.833 163.167,233.167 164.5,202.5 Z"/></g>
<g><path style="opacity:1" fill="#fab685" d="M 349.5,202.5 C 360.838,202.333 372.172,202.5 383.5,203C 384.333,203.833 385.167,204.667 386,205.5C 388.734,219.038 390.567,232.705 391.5,246.5C 391.508,249.545 391.841,252.545 392.5,255.5C 381.915,254.524 371.248,254.191 360.5,254.5C 360.167,254.5 359.833,254.5 359.5,254.5C 358.534,240.116 357.034,225.782 355,211.5C 354.974,207.324 353.141,204.324 349.5,202.5 Z"/></g>
<g><path style="opacity:0.98" fill="#d77c41" d="M 378.5,399.5 C 382.279,389.383 385.279,379.049 387.5,368.5C 421.4,360.594 440.067,339.261 443.5,304.5C 443.161,284.995 433.327,274.995 414,274.5C 407.013,274.581 400.18,275.581 393.5,277.5C 392.813,270.187 392.479,262.854 392.5,255.5C 391.841,252.545 391.508,249.545 391.5,246.5C 407.178,242.363 422.844,242.53 438.5,247C 459.984,256.433 471.818,272.933 474,296.5C 474.685,343.984 453.185,376.818 409.5,395C 399.436,398.38 389.102,399.88 378.5,399.5 Z"/></g>
<g><path style="opacity:0.999" fill="#ffe7c7" d="M 50.5,254.5 C 83.1667,254.5 115.833,254.5 148.5,254.5C 148.5,267.833 148.5,281.167 148.5,294.5C 148.5,294.833 148.5,295.167 148.5,295.5C 137.506,306.661 126.672,317.995 116,329.5C 115.333,353.833 115.333,378.167 116,402.5C 117.167,403.667 118.333,404.833 119.5,406C 144.167,406.667 168.833,406.667 193.5,406C 194.667,404.833 195.833,403.667 197,402.5C 197.667,378.167 197.667,353.833 197,329.5C 186.661,318.328 176.161,307.328 165.5,296.5C 165.5,295.833 165.167,295.5 164.5,295.5C 164.5,295.167 164.5,294.833 164.5,294.5C 164.5,281.167 164.5,267.833 164.5,254.5C 229.5,254.5 294.5,254.5 359.5,254.5C 359.833,254.5 360.167,254.5 360.5,254.5C 363.78,296.21 361.28,337.543 353,378.5C 347.694,402.619 336.528,423.452 319.5,441C 307.933,450.119 294.933,455.952 280.5,458.5C 229.5,458.5 178.5,458.5 127.5,458.5C 105.684,454.334 88.5176,443 76,424.5C 60.1883,395.929 51.5216,365.262 50,332.5C 47.9675,306.478 48.1341,280.478 50.5,254.5 Z"/></g>
<g><path style="opacity:1" fill="#fdd9b4" d="M 360.5,254.5 C 371.248,254.191 381.915,254.524 392.5,255.5C 392.479,262.854 392.813,270.187 393.5,277.5C 394.95,308.102 392.95,338.435 387.5,368.5C 385.279,379.049 382.279,389.383 378.5,399.5C 368.69,431.315 347.69,450.982 315.5,458.5C 303.833,458.5 292.167,458.5 280.5,458.5C 294.933,455.952 307.933,450.119 319.5,441C 336.528,423.452 347.694,402.619 353,378.5C 361.28,337.543 363.78,296.21 360.5,254.5 Z"/></g>
<g><path style="opacity:1" fill="#eb9224" d="M 164.5,295.5 C 165.167,295.5 165.5,295.833 165.5,296.5C 164.833,311.833 164.167,327.167 163.5,342.5C 163.17,326.658 163.504,310.991 164.5,295.5 Z"/></g>
<g><path style="opacity:1" fill="#fea403" d="M 148.5,295.5 C 149.331,311.662 149.831,327.995 150,344.5C 155.425,350.115 159.925,349.449 163.5,342.5C 164.167,327.167 164.833,311.833 165.5,296.5C 176.161,307.328 186.661,318.328 197,329.5C 197.667,353.833 197.667,378.167 197,402.5C 195.833,403.667 194.667,404.833 193.5,406C 168.833,406.667 144.167,406.667 119.5,406C 118.333,404.833 117.167,403.667 116,402.5C 115.333,378.167 115.333,353.833 116,329.5C 126.672,317.995 137.506,306.661 148.5,295.5 Z"/></g>
<g><path style="opacity:0.999" fill="#d67c40" d="M 127.5,458.5 C 178.5,458.5 229.5,458.5 280.5,458.5C 292.167,458.5 303.833,458.5 315.5,458.5C 333.833,458.5 352.167,458.5 370.5,458.5C 372.144,459.316 373.31,460.65 374,462.5C 373.667,491.999 358.834,508.333 329.5,511.5C 245.167,511.5 160.833,511.5 76.5,511.5C 49.1225,505.391 36.2892,488.391 38,460.5C 38.5,460 39,459.5 39.5,459C 68.8314,458.5 98.1648,458.333 127.5,458.5 Z"/></g>
<g><path style="opacity:1" fill="#b5612a" d="M 370.5,458.5 C 381.505,458.333 392.505,458.5 403.5,459C 406.001,460.834 407.335,463.334 407.5,466.5C 404.961,491.323 391.628,506.323 367.5,511.5C 354.833,511.5 342.167,511.5 329.5,511.5C 358.834,508.333 373.667,491.999 374,462.5C 373.31,460.65 372.144,459.316 370.5,458.5 Z"/></g>
</svg>
