<?xml version="1.0" encoding="UTF-8"?>
<!DOCTYPE svg PUBLIC "-//W3C//DTD SVG 1.1//EN" "http://www.w3.org/Graphics/SVG/1.1/DTD/svg11.dtd">
<svg xmlns="http://www.w3.org/2000/svg" version="1.1" width="512px" height="512px" style="shape-rendering:geometricPrecision; text-rendering:geometricPrecision; image-rendering:optimizeQuality; fill-rule:evenodd; clip-rule:evenodd" xmlns:xlink="http://www.w3.org/1999/xlink">
<g><path style="opacity:0.975" fill="#f44545" d="M 216.5,-0.5 C 223.167,-0.5 229.833,-0.5 236.5,-0.5C 236.334,7.50694 236.5,15.5069 237,23.5C 238.873,25.7089 241.04,27.5422 243.5,29C 262.83,29.5 282.164,29.6666 301.5,29.5C 301.666,35.8421 301.5,42.1754 301,48.5C 299.822,53.5127 296.655,56.346 291.5,57C 288.183,57.4983 284.85,57.665 281.5,57.5C 264.167,56.1667 246.833,56.1667 229.5,57.5C 224.752,57.7252 220.085,57.2252 215.5,56C 212.447,53.9486 210.614,51.1152 210,47.5C 209.07,33.1113 209.403,18.778 211,4.5C 212.73,2.59809 214.563,0.93142 216.5,-0.5 Z"/></g>
<g><path style="opacity:1" fill="#fa5757" d="M 236.5,-0.5 C 256.167,-0.5 275.833,-0.5 295.5,-0.5C 298.063,1.61218 299.896,4.27885 301,7.5C 301.5,14.8258 301.666,22.1591 301.5,29.5C 282.164,29.6666 262.83,29.5 243.5,29C 241.04,27.5422 238.873,25.7089 237,23.5C 236.5,15.5069 236.334,7.50694 236.5,-0.5 Z"/></g>
<g><path style="opacity:0.992" fill="#d2cfd4" d="M 281.5,57.5 C 272.833,57.5 264.167,57.5 255.5,57.5C 255.5,66.8333 255.5,76.1667 255.5,85.5C 257.415,85.2155 259.081,85.5489 260.5,86.5C 249.838,85.7311 239.504,87.0645 229.5,90.5C 229.5,79.5 229.5,68.5 229.5,57.5C 246.833,56.1667 264.167,56.1667 281.5,57.5 Z"/></g>
<g><path style="opacity:1" fill="#eaeaef" d="M 281.5,57.5 C 281.5,68.5 281.5,79.5 281.5,90.5C 277.061,88.5578 272.394,87.5578 267.5,87.5C 265.283,86.6314 262.95,86.298 260.5,86.5C 259.081,85.5489 257.415,85.2155 255.5,85.5C 255.5,76.1667 255.5,66.8333 255.5,57.5C 264.167,57.5 272.833,57.5 281.5,57.5 Z"/></g>
<g><path style="opacity:0.989" fill="#954c35" d="M 260.5,86.5 C 262.95,86.298 265.283,86.6314 267.5,87.5C 239.661,96.5074 221.828,115.174 214,143.5C 210.344,164.234 214.011,183.568 225,201.5C 228.455,211.268 228.122,220.935 224,230.5C 218.12,241.592 212.787,252.925 208,264.5C 206.627,279.127 206.127,293.793 206.5,308.5C 206.5,344.5 206.5,380.5 206.5,416.5C 206.5,448.167 206.5,479.833 206.5,511.5C 202.833,511.5 199.167,511.5 195.5,511.5C 186.184,508.349 180.017,502.016 177,492.5C 176.333,416.833 176.333,341.167 177,265.5C 182.451,251.93 188.451,238.596 195,225.5C 197.213,217.387 196.879,209.387 194,201.5C 176.569,171.507 177.569,142.173 197,113.5C 205.818,102.828 216.651,95.1611 229.5,90.5C 239.504,87.0645 249.838,85.7311 260.5,86.5 Z"/></g>
<g><path style="opacity:1" fill="#ad573d" d="M 267.5,87.5 C 272.394,87.5578 277.061,88.5578 281.5,90.5C 308.992,101.17 324.825,121.17 329,150.5C 330.594,163.6 328.928,176.267 324,188.5C 318.697,196.599 315.53,205.432 314.5,215C 314.821,219.272 315.654,223.438 317,227.5C 322.606,238.378 327.939,249.378 333,260.5C 335.205,271.379 336.039,282.379 335.5,293.5C 308.167,293.5 280.833,293.5 253.5,293.5C 242.495,293.333 231.495,293.5 220.5,294C 213.557,296.774 208.89,301.607 206.5,308.5C 206.127,293.793 206.627,279.127 208,264.5C 212.787,252.925 218.12,241.592 224,230.5C 228.122,220.935 228.455,211.268 225,201.5C 214.011,183.568 210.344,164.234 214,143.5C 221.828,115.174 239.661,96.5074 267.5,87.5 Z"/></g>
<g><path style="opacity:1" fill="#7d3f2c" d="M 257.5,132.5 C 269.703,131.525 274.536,136.858 272,148.5C 265.618,156.487 259.285,156.487 253,148.5C 251.682,145.594 251.348,142.594 252,139.5C 253.666,137.004 255.5,134.671 257.5,132.5 Z"/></g>
<g><path style="opacity:1" fill="#7d3f2c" d="M 287.5,161.5 C 297.88,161.374 302.38,166.374 301,176.5C 295.759,184.53 289.425,185.53 282,179.5C 277.778,171.618 279.612,165.618 287.5,161.5 Z"/></g>
<g><path style="opacity:1" fill="#7d3f2c" d="M 262.5,192.5 C 272.364,192.857 276.53,197.857 275,207.5C 269.759,215.53 263.425,216.53 256,210.5C 251.735,202.049 253.902,196.049 262.5,192.5 Z"/></g>
<g><path style="opacity:1" fill="#f34545" d="M 253.5,293.5 C 246.942,295.555 242.442,299.888 240,306.5C 239.333,343.5 239.333,380.5 240,417.5C 241.926,424.255 246.093,428.922 252.5,431.5C 241.828,431.667 231.161,431.5 220.5,431C 213.557,428.226 208.89,423.393 206.5,416.5C 206.5,380.5 206.5,344.5 206.5,308.5C 208.89,301.607 213.557,296.774 220.5,294C 231.495,293.5 242.495,293.333 253.5,293.5 Z"/></g>
<g><path style="opacity:1" fill="#fa5757" d="M 253.5,293.5 C 280.833,293.5 308.167,293.5 335.5,293.5C 335.5,339.5 335.5,385.5 335.5,431.5C 307.833,431.5 280.167,431.5 252.5,431.5C 246.093,428.922 241.926,424.255 240,417.5C 239.333,380.5 239.333,343.5 240,306.5C 242.442,299.888 246.942,295.555 253.5,293.5 Z"/></g>
<g><path style="opacity:1" fill="#ad573d" d="M 206.5,416.5 C 208.89,423.393 213.557,428.226 220.5,431C 231.161,431.5 241.828,431.667 252.5,431.5C 280.167,431.5 307.833,431.5 335.5,431.5C 335.928,452.207 335.428,472.873 334,493.5C 330.584,502.417 324.417,508.417 315.5,511.5C 310.833,511.5 306.167,511.5 301.5,511.5C 298.462,510.35 295.462,508.85 292.5,507C 288.934,503.434 285.434,499.934 282,496.5C 278.566,499.934 275.066,503.434 271.5,507C 268.609,508.274 265.942,509.774 263.5,511.5C 258.5,511.5 253.5,511.5 248.5,511.5C 245.592,510.046 242.592,508.546 239.5,507C 235.929,503.599 232.595,500.099 229.5,496.5C 227.971,496.529 226.804,497.196 226,498.5C 222.458,504.843 217.291,509.176 210.5,511.5C 209.167,511.5 207.833,511.5 206.5,511.5C 206.5,479.833 206.5,448.167 206.5,416.5 Z"/></g>
<g><path style="opacity:1" fill="#7d3f2c" d="M 234.5,443.5 C 245.738,442.568 250.572,447.568 249,458.5C 246.24,464.297 241.74,466.463 235.5,465C 229.092,461.677 226.925,456.511 229,449.5C 230.769,447.383 232.602,445.383 234.5,443.5 Z"/></g>
<g><path style="opacity:1" fill="#7d3f2c" d="M 269.5,465.5 C 279.86,465.355 284.36,470.355 283,480.5C 279.96,486.603 275.126,488.769 268.5,487C 262.823,483.364 260.99,478.197 263,471.5C 264.914,469.144 267.081,467.144 269.5,465.5 Z"/></g>
</svg>
