<?xml version="1.0" encoding="UTF-8"?>
<!DOCTYPE svg PUBLIC "-//W3C//DTD SVG 1.1//EN" "http://www.w3.org/Graphics/SVG/1.1/DTD/svg11.dtd">
<svg xmlns="http://www.w3.org/2000/svg" version="1.1" width="512px" height="512px" style="shape-rendering:geometricPrecision; text-rendering:geometricPrecision; image-rendering:optimizeQuality; fill-rule:evenodd; clip-rule:evenodd" xmlns:xlink="http://www.w3.org/1999/xlink">
<g><path style="opacity:0.924" fill="#eae5dc" d="M 228.5,-0.5 C 231.167,-0.5 233.833,-0.5 236.5,-0.5C 239.14,1.42293 240.807,4.0896 241.5,7.5C 240.367,18.1101 237.201,28.1101 232,37.5C 231.333,42.5 231.333,47.5 232,52.5C 234.333,57.8333 236.667,63.1667 239,68.5C 239.943,73.1615 240.776,77.8282 241.5,82.5C 240.776,87.1718 239.943,91.8385 239,96.5C 234.268,105.293 231.268,114.626 230,124.5C 225.878,129.397 221.378,129.73 216.5,125.5C 215.634,123.568 214.967,121.568 214.5,119.5C 215.17,114.804 216.004,110.137 217,105.5C 221.225,98.3862 223.725,90.7195 224.5,82.5C 224.333,80.1667 224.167,77.8333 224,75.5C 221.667,70.1667 219.333,64.8333 217,59.5C 213.667,49.8333 213.667,40.1667 217,30.5C 219.333,25.1667 221.667,19.8333 224,14.5C 223.666,8.83189 225.166,3.83189 228.5,-0.5 Z"/></g>
<g><path style="opacity:0.922" fill="#eae5dc" d="M 187.5,27.5 C 194.099,26.9613 197.766,29.9613 198.5,36.5C 197.534,45.0953 194.368,52.7619 189,59.5C 188.333,62.5 188.333,65.5 189,68.5C 190.934,72.7594 193.268,76.7594 196,80.5C 200.126,93.7404 197.793,105.74 189,116.5C 188.916,120.435 187.916,124.102 186,127.5C 178.911,131.447 174.078,129.614 171.5,122C 172.296,113.237 175.462,105.404 181,98.5C 181.667,94.8333 181.667,91.1667 181,87.5C 172.399,76.9591 170.065,65.2925 174,52.5C 178.913,46.3388 181.913,39.3388 183,31.5C 184.397,29.9297 185.897,28.5964 187.5,27.5 Z"/></g>
<g><path style="opacity:0.921" fill="#eae5dc" d="M 273.5,27.5 C 277.426,27.0466 280.592,28.3799 283,31.5C 284.583,41.751 281.917,50.751 275,58.5C 274.689,60.556 274.189,62.556 273.5,64.5C 276.661,71.4899 279.828,78.4899 283,85.5C 285.028,97.0771 282.361,107.41 275,116.5C 274.759,121.465 272.925,125.631 269.5,129C 262.12,130.817 258.12,127.984 257.5,120.5C 258.13,112.578 260.963,105.578 266,99.5C 267.405,95.9279 267.738,92.2613 267,88.5C 258.116,77.7449 255.782,65.7449 260,52.5C 264.052,46.7315 266.719,40.3982 268,33.5C 269.021,30.6499 270.854,28.6499 273.5,27.5 Z"/></g>
<g><path style="opacity:0.984" fill="#eae4dc" d="M 406.5,201.5 C 404.029,209.31 399.029,214.977 391.5,218.5C 384.198,213.442 376.198,209.608 367.5,207C 341.178,198.335 314.178,193.001 286.5,191C 271.19,189.687 255.857,188.853 240.5,188.5C 192.046,186.879 144.379,192.046 97.5,204C 85.706,207.235 74.706,212.068 64.5,218.5C 56.5223,214.866 51.5223,208.866 49.5,200.5C 49.8745,191.608 53.8745,184.775 61.5,180C 79.2906,169.846 98.2906,162.846 118.5,159C 188.041,145.829 257.708,145.162 327.5,157C 351.787,160.65 374.454,168.65 395.5,181C 399.723,184.556 403.223,188.723 406,193.5C 406.497,196.146 406.664,198.813 406.5,201.5 Z"/></g>
<g><path style="opacity:1" fill="#574633" d="M 240.5,188.5 C 202.438,190.122 165.104,196.622 128.5,208C 123.971,209.514 119.805,211.681 116,214.5C 115.259,217.562 115.425,220.562 116.5,223.5C 126.999,228.945 137.999,233.111 149.5,236C 175.848,242.069 202.515,246.069 229.5,248C 221.173,248.5 212.84,248.666 204.5,248.5C 163.527,247.933 123.527,241.6 84.5,229.5C 77.544,226.355 70.8773,222.689 64.5,218.5C 74.706,212.068 85.706,207.235 97.5,204C 144.379,192.046 192.046,186.879 240.5,188.5 Z"/></g>
<g><path style="opacity:1" fill="#6a563d" d="M 240.5,188.5 C 255.857,188.853 271.19,189.687 286.5,191C 314.178,193.001 341.178,198.335 367.5,207C 376.198,209.608 384.198,213.442 391.5,218.5C 383.911,223.881 375.578,228.048 366.5,231C 313.385,246.175 259.385,252.008 204.5,248.5C 212.84,248.666 221.173,248.5 229.5,248C 202.515,246.069 175.848,242.069 149.5,236C 137.999,233.111 126.999,228.945 116.5,223.5C 115.425,220.562 115.259,217.562 116,214.5C 119.805,211.681 123.971,209.514 128.5,208C 165.104,196.622 202.438,190.122 240.5,188.5 Z"/></g>
<g><path style="opacity:0.986" fill="#c0ab91" d="M 49.5,200.5 C 51.5223,208.866 56.5223,214.866 64.5,218.5C 70.8773,222.689 77.544,226.355 84.5,229.5C 84.3283,280.809 96.1616,329.143 120,374.5C 137.553,407.053 162.719,431.886 195.5,449C 204.488,452.885 213.822,455.552 223.5,457C 236.162,457.5 248.829,457.667 261.5,457.5C 239.337,458.663 217.004,458.83 194.5,458C 174.503,455.335 156.17,448.335 139.5,437C 129.573,429.533 120.24,421.366 111.5,412.5C 81.9426,376.701 63.1093,335.701 55,289.5C 50.0236,260.042 48.1902,230.375 49.5,200.5 Z"/></g>
<g><path style="opacity:1" fill="#d8cbbb" d="M 406.5,201.5 C 406.5,210.167 406.5,218.833 406.5,227.5C 406.499,236.515 406.166,245.515 405.5,254.5C 402.435,298.687 390.101,340.021 368.5,378.5C 364.598,383.96 360.931,389.627 357.5,395.5C 353.885,401.116 349.885,406.45 345.5,411.5C 326.936,432.289 304.27,446.789 277.5,455C 272.173,455.943 266.84,456.777 261.5,457.5C 248.829,457.667 236.162,457.5 223.5,457C 213.822,455.552 204.488,452.885 195.5,449C 162.719,431.886 137.553,407.053 120,374.5C 96.1616,329.143 84.3283,280.809 84.5,229.5C 123.527,241.6 163.527,247.933 204.5,248.5C 259.385,252.008 313.385,246.175 366.5,231C 375.578,228.048 383.911,223.881 391.5,218.5C 399.029,214.977 404.029,209.31 406.5,201.5 Z"/></g>
<g><path style="opacity:0.931" fill="#b39a7c" d="M 357.5,395.5 C 360.931,389.627 364.598,383.96 368.5,378.5C 405.612,375.523 437.112,360.856 463,334.5C 477.521,317.456 486.354,297.789 489.5,275.5C 487.266,249.767 473.433,234.767 448,230.5C 429.196,230.781 415.029,238.781 405.5,254.5C 406.166,245.515 406.499,236.515 406.5,227.5C 431.84,210.549 457.173,210.383 482.5,227C 503.865,246.283 510.365,269.783 502,297.5C 489.193,343.64 459.693,373.14 413.5,386C 395.204,391.352 376.537,394.518 357.5,395.5 Z"/></g>
<g><path style="opacity:1" fill="#b2997b" d="M 345.5,411.5 C 372.484,415.265 398.818,421.765 424.5,431C 434.277,434.632 442.777,440.132 450,447.5C 454.242,452.767 455.076,458.434 452.5,464.5C 416.408,476.085 379.408,483.251 341.5,486C 271.23,492.343 201.23,490.343 131.5,480C 113.268,476.702 95.2684,472.369 77.5,467C 66.9423,463.054 56.9423,458.054 47.5,452C 39.2909,446.425 36.6243,438.925 39.5,429.5C 62.809,421.037 86.809,415.37 111.5,412.5C 120.24,421.366 129.573,429.533 139.5,437C 156.17,448.335 174.503,455.335 194.5,458C 217.004,458.83 239.337,458.663 261.5,457.5C 266.84,456.777 272.173,455.943 277.5,455C 304.27,446.789 326.936,432.289 345.5,411.5 Z"/></g>
<g><path style="opacity:0.973" fill="#a78966" d="M 39.5,429.5 C 36.6243,438.925 39.2909,446.425 47.5,452C 56.9423,458.054 66.9423,463.054 77.5,467C 95.2684,472.369 113.268,476.702 131.5,480C 201.23,490.343 271.23,492.343 341.5,486C 379.408,483.251 416.408,476.085 452.5,464.5C 448.664,470.502 443.664,475.335 437.5,479C 409.14,491.841 379.473,500.175 348.5,504C 323.09,507.282 297.756,509.782 272.5,511.5C 244.167,511.5 215.833,511.5 187.5,511.5C 142.618,509.679 98.2844,503.179 54.5,492C 39.1626,487.997 25.1626,481.33 12.5,472C 2.31773,460.27 3.65107,449.937 16.5,441C 23.727,436.312 31.3937,432.478 39.5,429.5 Z"/></g>
</svg>
