<svg xmlns="http://www.w3.org/2000/svg" width="512" height="512" id="coffee"><defs><clipPath id="a" clipPathUnits="userSpaceOnUse"><rect width="200.277" height="380.186" x="96.614" y="612.669" fill="#994530" stroke="#994530" stroke-width="44.989" rx="100.139" ry="190.093" transform="matrix(1 -.00097 .00585 .99998 0 0)"></rect></clipPath></defs><g transform="translate(0 -540.362)"><g><g fill="#e9e9e9" transform="matrix(.59784 0 0 .68687 122.826 512.59)"><path d="M399.36456 749.22942l0-27.67857 0 5.89286 0-8.75-29.7416 16.78571zM49.386414 750.47942l0-27.67857 0 5.89286 0-8.75 29.7416 16.78571z"></path><ellipse cx="380" cy="232.362" rx="182.857" ry="51.429" transform="matrix(.95748 0 0 .75 -139.375 572.994)"></ellipse><ellipse cx="380" cy="232.362" rx="182.857" ry="51.429" transform="matrix(.95748 0 0 .75 -139.375 547.28)"></ellipse></g><path fill="#7a3726" d="m 95.952286,660.65069 42.556034,340.12181 240.53412,0 37.00525,-346.92424 z"></path><ellipse cx="256" cy="645.997" fill="#f3f3f3" rx="183.604" ry="43.651"></ellipse><g transform="matrix(1.0463 0 0 1.02377 -527.844 476.882)"><path fill="#dbdbdb" d="M916.11813 156.26988l0-27.67857 0 5.89286 0-8.75-28.39286 16.78571zM582.01098 157.51988l0-27.67857 0 5.89286 0-8.75 28.39286 16.78571z"></path><ellipse cx="380" cy="232.362" fill="#dbdbdb" rx="182.857" ry="51.429" transform="matrix(.91406 0 0 .75 401.81 -19.966)"></ellipse><ellipse cx="380" cy="232.362" fill="#f3f3f3" rx="182.857" ry="51.429" transform="matrix(.91406 0 0 .75 401.81 -45.68)"></ellipse></g><ellipse cx="254.546" cy="606.638" fill="#dbdbdb" rx="167.615" ry="35.325"></ellipse><path fill="#dbdbdb" d="M414.23699 601.0361l0-25.34895 0 5.39688 0-8.01354-27.23834 15.37291zM93.715401 602.1809l0-25.34896 0 5.39688 0-8.01354 27.238339 15.37291z"></path><ellipse cx="254.062" cy="599.237" fill="#dbdbdb" rx="160.346" ry="35.325"></ellipse><ellipse cx="254.062" cy="575.687" fill="#f3f3f3" rx="160.346" ry="35.325"></ellipse><ellipse cx="258.944" cy="1001.202" fill="#7a3726" rx="119.985" ry="27.924"></ellipse><g transform="matrix(.33672 -.06228 .04579 .24756 262.647 664.344)"><g stroke="#7a3726" clip-path="url(#a)" transform="matrix(1.23962 .04039 .02456 1.2201 -372.314 -191.403)"><g><rect width="202.104" height="383.653" x="-213.935" y="595.55" fill="#994530" stroke="#994530" stroke-width="45.399" rx="101.052" ry="191.826" transform="matrix(.80724 -.02752 -.01153 .81997 297.432 147.03)"></rect><path fill="none" stroke-width="8" d="m 1577.385,300.81622 a 19.192898,24.748737 0 0 1 -22.2844,-11.47195 19.192898,24.748737 0 0 1 3.8121,-30.5476" transform="matrix(1.39494 2.69904 -.96348 4.1631 -1709.668 -4707.25)"></path><path fill="none" stroke-width="8" d="m 1585.9466,293.86133 a 19.192898,24.748737 0 0 1 -18.8836,7.26218 19.192898,24.748737 0 0 1 -13.8929,-18.02004 19.192898,24.748737 0 0 1 5.7426,-24.3068" transform="matrix(-1.4241 2.8127 .91984 4.08716 2173.605 -4651.253)"></path></g></g></g><g transform="matrix(.91583 0 0 1.07146 -83.425 359.953)"><g><path fill="none" stroke="#994530" stroke-width="8" d="m 1577.385,300.81622 a 19.192898,24.748737 0 0 1 -22.2844,-11.47195 19.192898,24.748737 0 0 1 3.8121,-30.5476" transform="matrix(.53576 .14683 -.06958 .60667 -470.113 -32.483)"></path><path fill="none" stroke="#994530" stroke-width="8" d="m 1585.9466,293.86133 a 19.192898,24.748737 0 0 1 -18.8836,7.26218 19.192898,24.748737 0 0 1 -13.8929,-18.02004 19.192898,24.748737 0 0 1 5.7426,-24.3068" transform="matrix(-.26938 .50424 .46831 .3679 649.585 -499.846)"></path></g><g transform="translate(16.162 -8.081)"><path fill="none" stroke="#994530" stroke-width="8" d="m 1577.385,300.81622 a 19.192898,24.748737 0 0 1 -22.2844,-11.47195 19.192898,24.748737 0 0 1 3.8121,-30.5476" transform="matrix(.53576 .14683 -.06958 .60667 -470.113 -32.483)"></path><path fill="none" stroke="#994530" stroke-width="8" d="m 1585.9466,293.86133 a 19.192898,24.748737 0 0 1 -18.8836,7.26218 19.192898,24.748737 0 0 1 -13.8929,-18.02004 19.192898,24.748737 0 0 1 5.7426,-24.3068" transform="matrix(-.26938 .50424 .46831 .3679 649.585 -499.846)"></path></g></g></g></g></svg>