<?xml version="1.0" encoding="UTF-8"?>
<!DOCTYPE svg PUBLIC "-//W3C//DTD SVG 1.1//EN" "http://www.w3.org/Graphics/SVG/1.1/DTD/svg11.dtd">
<svg xmlns="http://www.w3.org/2000/svg" version="1.1" width="512px" height="512px" style="shape-rendering:geometricPrecision; text-rendering:geometricPrecision; image-rendering:optimizeQuality; fill-rule:evenodd; clip-rule:evenodd" xmlns:xlink="http://www.w3.org/1999/xlink">
<g><path style="opacity:0.989" fill="#dad8db" d="M 282.5,-0.5 C 291.5,-0.5 300.5,-0.5 309.5,-0.5C 358.177,9.79709 385.01,39.7971 390,89.5C 390.5,148.832 390.667,208.166 390.5,267.5C 384.5,267.5 378.5,267.5 372.5,267.5C 372.667,205.499 372.5,143.499 372,81.5C 364.379,45.5453 342.545,24.0453 306.5,17C 268.46,14.4292 241.293,30.2626 225,64.5C 223.465,68.7728 222.131,73.1062 221,77.5C 219.568,102.799 219.068,128.133 219.5,153.5C 213.833,153.5 208.167,153.5 202.5,153.5C 202.333,129.164 202.5,104.831 203,80.5C 208.534,46.6328 226.701,22.1328 257.5,7C 265.723,3.70005 274.057,1.20005 282.5,-0.5 Z"/></g>
<g><path style="opacity:0.997" fill="#ebe9eb" d="M 202.5,153.5 C 208.167,153.5 213.833,153.5 219.5,153.5C 240.169,153.333 260.836,153.5 281.5,154C 283.246,154.471 284.913,155.138 286.5,156C 306.667,176.167 326.833,196.333 347,216.5C 347.862,218.087 348.529,219.754 349,221.5C 349.5,236.83 349.667,252.163 349.5,267.5C 346.5,267.5 343.5,267.5 340.5,267.5C 332.643,268.013 327.476,272.013 325,279.5C 324.5,307.831 324.333,336.165 324.5,364.5C 318.855,365.387 313.188,365.554 307.5,365C 302.023,363.396 296.689,361.396 291.5,359C 284.567,357.494 277.567,357.161 270.5,358C 262.394,361.925 253.894,364.425 245,365.5C 241.43,365.456 237.93,364.956 234.5,364C 224.555,358.181 213.889,356.181 202.5,358C 195.843,360.327 189.177,362.66 182.5,365C 176.763,365.789 171.097,365.456 165.5,364C 154.921,357.896 143.588,355.896 131.5,358C 125.723,360.888 119.723,363.221 113.5,365C 106.817,365.305 100.15,365.305 93.5,365C 91.6156,366.049 90.2823,367.549 89.5,369.5C 88.501,314.002 88.1677,258.336 88.5,202.5C 103.298,187.201 118.298,172.035 133.5,157C 135.5,156 137.5,155 139.5,154C 160.497,153.5 181.497,153.333 202.5,153.5 Z"/></g>
<g><path style="opacity:1" fill="#b6b1b7" d="M 202.5,178.5 C 202.5,183.833 202.5,189.167 202.5,194.5C 196.158,194.666 189.825,194.5 183.5,194C 178.931,191.459 177.431,187.625 179,182.5C 180.167,181.333 181.333,180.167 182.5,179C 189.158,178.5 195.825,178.334 202.5,178.5 Z"/></g>
<g><path style="opacity:1" fill="#9b959d" d="M 202.5,178.5 C 207.833,178.5 213.167,178.5 218.5,178.5C 218.5,183.833 218.5,189.167 218.5,194.5C 213.167,194.5 207.833,194.5 202.5,194.5C 202.5,189.167 202.5,183.833 202.5,178.5 Z"/></g>
<g><path style="opacity:1" fill="#b6b1b7" d="M 218.5,178.5 C 225.175,178.334 231.842,178.5 238.5,179C 245.297,184.38 244.964,189.38 237.5,194C 231.175,194.5 224.842,194.666 218.5,194.5C 218.5,189.167 218.5,183.833 218.5,178.5 Z"/></g>
<g><path style="opacity:0.994" fill="#d9d7da" d="M 88.5,202.5 C 88.1677,258.336 88.501,314.002 89.5,369.5C 88.3398,409.429 88.1731,449.429 89,489.5C 89.7845,491.286 90.9512,492.786 92.5,494C 131.75,495.161 171.084,495.661 210.5,495.5C 249.57,495.497 288.57,495.164 327.5,494.5C 334.648,495.492 341.981,495.825 349.5,495.5C 350.484,501.556 349.151,506.889 345.5,511.5C 255.833,511.5 166.167,511.5 76.5,511.5C 75.5423,510.038 74.3756,508.705 73,507.5C 72.3333,411.833 72.3333,316.167 73,220.5C 76.8828,213.446 82.0494,207.446 88.5,202.5 Z"/></g>
<g><path style="opacity:0.997" fill="#b3e49f" d="M 340.5,267.5 C 343.5,267.5 346.5,267.5 349.5,267.5C 357.167,267.5 364.833,267.5 372.5,267.5C 378.5,267.5 384.5,267.5 390.5,267.5C 402.838,267.333 415.171,267.5 427.5,268C 432.667,269.833 436.167,273.333 438,278.5C 438.5,318.165 438.667,357.832 438.5,397.5C 411.831,397.667 385.165,397.5 358.5,397C 348.718,393.55 342.884,386.717 341,376.5C 340.5,340.168 340.333,303.835 340.5,267.5 Z"/></g>
<g><path style="opacity:0.999" fill="#95d5a4" d="M 340.5,267.5 C 340.333,303.835 340.5,340.168 341,376.5C 342.884,386.717 348.718,393.55 358.5,397C 385.165,397.5 411.831,397.667 438.5,397.5C 438.569,405.935 434.569,411.435 426.5,414C 400.835,414.5 375.169,414.667 349.5,414.5C 343.968,413.747 338.301,413.08 332.5,412.5C 329.447,409.61 326.947,406.276 325,402.5C 324.5,389.838 324.333,377.171 324.5,364.5C 324.333,336.165 324.5,307.831 325,279.5C 327.476,272.013 332.643,268.013 340.5,267.5 Z"/></g>
<g><path style="opacity:1" fill="#fee09e" d="M 375.5,316.5 C 396.687,315.52 406.521,325.52 405,346.5C 400.518,360.328 391.018,366.495 376.5,365C 358.272,357.932 353.105,345.432 361,327.5C 364.857,322.468 369.69,318.801 375.5,316.5 Z"/></g>
<g><path style="opacity:1" fill="#785353" d="M 324.5,364.5 C 324.333,377.171 324.5,389.838 325,402.5C 326.947,406.276 329.447,409.61 332.5,412.5C 332.667,438.502 332.5,464.502 332,490.5C 331.208,492.644 329.708,493.977 327.5,494.5C 288.57,495.164 249.57,495.497 210.5,495.5C 171.084,495.661 131.75,495.161 92.5,494C 90.9512,492.786 89.7845,491.286 89,489.5C 88.1731,449.429 88.3398,409.429 89.5,369.5C 90.2823,367.549 91.6156,366.049 93.5,365C 100.15,365.305 106.817,365.305 113.5,365C 119.723,363.221 125.723,360.888 131.5,358C 143.588,355.896 154.921,357.896 165.5,364C 171.097,365.456 176.763,365.789 182.5,365C 189.177,362.66 195.843,360.327 202.5,358C 213.889,356.181 224.555,358.181 234.5,364C 237.93,364.956 241.43,365.456 245,365.5C 253.894,364.425 262.394,361.925 270.5,358C 277.567,357.161 284.567,357.494 291.5,359C 296.689,361.396 302.023,363.396 307.5,365C 313.188,365.554 318.855,365.387 324.5,364.5 Z"/></g>
<g><path style="opacity:1" fill="#95695a" d="M 118.5,381.5 C 121.32,381.248 123.986,381.748 126.5,383C 129.667,386.167 132.833,389.333 136,392.5C 139.012,402.154 135.512,406.32 125.5,405C 122,401.5 118.5,398 115,394.5C 112.348,389.039 113.514,384.706 118.5,381.5 Z"/></g>
<g><path style="opacity:1" fill="#6e4848" d="M 184.5,381.5 C 189.599,381.175 194.599,381.675 199.5,383C 203.926,388.441 203.259,393.108 197.5,397C 192.5,397.667 187.5,397.667 182.5,397C 176.614,390.709 177.28,385.543 184.5,381.5 Z"/></g>
<g><path style="opacity:1" fill="#95695a" d="M 232.5,381.5 C 240.32,381.152 243.82,384.819 243,392.5C 238.408,398.679 233.408,399.012 228,393.5C 226.309,388.131 227.809,384.131 232.5,381.5 Z"/></g>
<g><path style="opacity:1" fill="#95695a" d="M 265.5,397.5 C 267.989,397.298 270.323,397.798 272.5,399C 275.667,402.167 278.833,405.333 282,408.5C 285.66,418.68 282.16,422.846 271.5,421C 268,417.5 264.5,414 261,410.5C 259.578,407.97 259.245,405.303 260,402.5C 261.73,400.598 263.563,398.931 265.5,397.5 Z"/></g>
<g><path style="opacity:0.967" fill="#eae8e9" d="M 332.5,412.5 C 338.301,413.08 343.968,413.747 349.5,414.5C 349.5,441.5 349.5,468.5 349.5,495.5C 341.981,495.825 334.648,495.492 327.5,494.5C 329.708,493.977 331.208,492.644 332,490.5C 332.5,464.502 332.667,438.502 332.5,412.5 Z"/></g>
<g><path style="opacity:1" fill="#94695a" d="M 158.5,414.5 C 168.002,413.493 171.502,417.493 169,426.5C 163.837,432.062 159.171,431.729 155,425.5C 153.663,420.872 154.83,417.205 158.5,414.5 Z"/></g>
<g><path style="opacity:1" fill="#95695a" d="M 206.5,414.5 C 215.791,412.702 219.624,416.368 218,425.5C 214.869,429.633 211.369,433.466 207.5,437C 201.739,439.955 197.573,438.455 195,432.5C 194.333,430.833 194.333,429.167 195,427.5C 198.67,422.998 202.503,418.665 206.5,414.5 Z"/></g>
<g><path style="opacity:1" fill="#6e4848" d="M 233.5,446.5 C 237.585,446.459 240.752,448.125 243,451.5C 243.667,456.167 243.667,460.833 243,465.5C 239.987,470.535 235.82,471.702 230.5,469C 229.299,468.097 228.465,466.931 228,465.5C 227.333,460.5 227.333,455.5 228,450.5C 229.5,448.531 231.333,447.198 233.5,446.5 Z"/></g>
<g><path style="opacity:1" fill="#6e4848" d="M 160.5,454.5 C 164.846,454.334 169.179,454.501 173.5,455C 179.922,460.227 179.922,465.227 173.5,470C 167.719,470.903 162.053,470.57 156.5,469C 152.806,462.512 154.14,457.678 160.5,454.5 Z"/></g>
<g><path style="opacity:1" fill="#95695a" d="M 118.5,454.5 C 123.194,453.7 126.694,455.367 129,459.5C 129.667,464.167 129.667,468.833 129,473.5C 126.565,478.224 122.731,479.724 117.5,478C 116.333,476.833 115.167,475.667 114,474.5C 113.333,469.5 113.333,464.5 114,459.5C 115.025,457.313 116.525,455.646 118.5,454.5 Z"/></g>
<g><path style="opacity:1" fill="#95695a" d="M 289.5,462.5 C 294.628,462.112 299.628,462.612 304.5,464C 309.833,468.667 309.833,473.333 304.5,478C 298.388,478.909 292.388,478.576 286.5,477C 283.084,471.081 284.084,466.247 289.5,462.5 Z"/></g>
</svg>
