<?xml version="1.0" encoding="UTF-8"?>
<!DOCTYPE svg PUBLIC "-//W3C//DTD SVG 1.1//EN" "http://www.w3.org/Graphics/SVG/1.1/DTD/svg11.dtd">
<svg xmlns="http://www.w3.org/2000/svg" version="1.1" width="512px" height="512px" style="shape-rendering:geometricPrecision; text-rendering:geometricPrecision; image-rendering:optimizeQuality; fill-rule:evenodd; clip-rule:evenodd" xmlns:xlink="http://www.w3.org/1999/xlink">
<g><path style="opacity:0.998" fill="#f7f1f0" d="M 92.5,-0.5 C 183.5,-0.5 274.5,-0.5 365.5,-0.5C 366.469,0.309426 367.302,1.30943 368,2.5C 368.667,12.5 368.667,22.5 368,32.5C 366.955,33.3734 366.122,34.3734 365.5,35.5C 361.167,35.5 356.833,35.5 352.5,35.5C 272.5,35.5 192.5,35.5 112.5,35.5C 105.825,35.6663 99.1583,35.4996 92.5,35C 92,34.5 91.5,34 91,33.5C 90.3333,22.8333 90.3333,12.1667 91,1.5C 91.7172,0.955796 92.2172,0.28913 92.5,-0.5 Z"/></g>
<g><path style="opacity:1" fill="#d6dcea" d="M 365.5,-0.5 C 383.167,-0.5 400.833,-0.5 418.5,-0.5C 418.783,0.28913 419.283,0.955796 420,1.5C 420.667,12.1667 420.667,22.8333 420,33.5C 419.5,34 419,34.5 418.5,35C 411.842,35.4996 405.175,35.6663 398.5,35.5C 387.5,35.5 376.5,35.5 365.5,35.5C 366.122,34.3734 366.955,33.3734 368,32.5C 368.667,22.5 368.667,12.5 368,2.5C 367.302,1.30943 366.469,0.309426 365.5,-0.5 Z"/></g>
<g><path style="opacity:0.998" fill="#99e5fb" d="M 112.5,35.5 C 192.5,35.5 272.5,35.5 352.5,35.5C 363.232,38.3916 370.732,45.0583 375,55.5C 376.461,86.125 376.961,116.792 376.5,147.5C 345.167,147.5 313.833,147.5 282.5,147.5C 282.959,144.123 283.626,140.789 284.5,137.5C 288.244,127.737 284.91,123.904 274.5,126C 268.636,133.357 262.636,140.524 256.5,147.5C 201.5,147.5 146.5,147.5 91.5,147.5C 91.1667,147.5 90.8333,147.5 90.5,147.5C 90.3334,118.165 90.5,88.8314 91,59.5C 93.4723,47.199 100.639,39.199 112.5,35.5 Z"/></g>
<g><path style="opacity:1" fill="#62dbfb" d="M 352.5,35.5 C 356.833,35.5 361.167,35.5 365.5,35.5C 376.5,35.5 387.5,35.5 398.5,35.5C 410.361,39.199 417.528,47.199 420,59.5C 420.5,88.8314 420.667,118.165 420.5,147.5C 405.833,147.5 391.167,147.5 376.5,147.5C 376.961,116.792 376.461,86.125 375,55.5C 370.732,45.0583 363.232,38.3916 352.5,35.5 Z"/></g>
<g><path style="opacity:1" fill="#f5f1f0" d="M 163.5,80.5 C 225.834,80.3333 288.168,80.5 350.5,81C 355.689,83.9132 356.856,88.0799 354,93.5C 353.097,94.7014 351.931,95.5348 350.5,96C 288.5,96.6667 226.5,96.6667 164.5,96C 159.776,93.5647 158.276,89.7314 160,84.5C 161.376,83.2949 162.542,81.9616 163.5,80.5 Z"/></g>
<g><path style="opacity:1" fill="#fdce85" d="M 284.5,137.5 C 262.72,173.627 240.72,210.294 218.5,247.5C 245.5,248.167 272.5,248.833 299.5,249.5C 271.228,293.721 243.228,338.054 215.5,382.5C 213.172,380.834 212.172,378.501 212.5,375.5C 212.76,372.393 213.426,369.393 214.5,366.5C 214.5,366.167 214.5,365.833 214.5,365.5C 223.734,338.968 232.9,312.302 242,285.5C 243.951,280.992 244.618,276.326 244,271.5C 242.352,270.283 240.519,269.45 238.5,269C 215.167,268.667 191.833,268.333 168.5,268C 167.978,267.439 167.645,266.772 167.5,266C 171.927,258.571 176.76,251.404 182,244.5C 207.335,212.467 232.169,180.134 256.5,147.5C 262.636,140.524 268.636,133.357 274.5,126C 284.91,123.904 288.244,127.737 284.5,137.5 Z"/></g>
<g><path style="opacity:1" fill="#fdb442" d="M 284.5,137.5 C 283.626,140.789 282.959,144.123 282.5,147.5C 275.849,172.427 269.016,197.427 262,222.5C 261.333,225.167 261.333,227.833 262,230.5C 284.761,231.328 307.594,231.828 330.5,232C 336.509,232.001 338.676,234.834 337,240.5C 306.335,282.659 275.502,324.659 244.5,366.5C 240.453,372.72 235.787,378.553 230.5,384C 226.625,385.52 222.625,385.854 218.5,385C 217.058,384.623 216.058,383.79 215.5,382.5C 243.228,338.054 271.228,293.721 299.5,249.5C 272.5,248.833 245.5,248.167 218.5,247.5C 240.72,210.294 262.72,173.627 284.5,137.5 Z"/></g>
<g><path style="opacity:1" fill="#f8f1ef" d="M 91.5,147.5 C 146.5,147.5 201.5,147.5 256.5,147.5C 232.169,180.134 207.335,212.467 182,244.5C 176.76,251.404 171.927,258.571 167.5,266C 167.645,266.772 167.978,267.439 168.5,268C 191.833,268.333 215.167,268.667 238.5,269C 240.519,269.45 242.352,270.283 244,271.5C 244.618,276.326 243.951,280.992 242,285.5C 232.9,312.302 223.734,338.968 214.5,365.5C 173.5,365.5 132.5,365.5 91.5,365.5C 91.5,292.833 91.5,220.167 91.5,147.5 Z"/></g>
<g><path style="opacity:1" fill="#f7f1ef" d="M 282.5,147.5 C 313.833,147.5 345.167,147.5 376.5,147.5C 376.5,220.5 376.5,293.5 376.5,366.5C 332.5,366.5 288.5,366.5 244.5,366.5C 275.502,324.659 306.335,282.659 337,240.5C 338.676,234.834 336.509,232.001 330.5,232C 307.594,231.828 284.761,231.328 262,230.5C 261.333,227.833 261.333,225.167 262,222.5C 269.016,197.427 275.849,172.427 282.5,147.5 Z"/></g>
<g><path style="opacity:1" fill="#d5dcea" d="M 376.5,147.5 C 391.167,147.5 405.833,147.5 420.5,147.5C 420.5,220.5 420.5,293.5 420.5,366.5C 405.833,366.5 391.167,366.5 376.5,366.5C 376.5,293.5 376.5,220.5 376.5,147.5 Z"/></g>
<g><path style="opacity:1" fill="#e3eff2" d="M 90.5,147.5 C 90.8333,147.5 91.1667,147.5 91.5,147.5C 91.5,220.167 91.5,292.833 91.5,365.5C 132.5,365.5 173.5,365.5 214.5,365.5C 214.5,365.833 214.5,366.167 214.5,366.5C 173.167,366.5 131.833,366.5 90.5,366.5C 90.5,293.5 90.5,220.5 90.5,147.5 Z"/></g>
<g><path style="opacity:0.998" fill="#99e6fb" d="M 90.5,366.5 C 131.833,366.5 173.167,366.5 214.5,366.5C 213.426,369.393 212.76,372.393 212.5,375.5C 212.172,378.501 213.172,380.834 215.5,382.5C 216.058,383.79 217.058,384.623 218.5,385C 222.625,385.854 226.625,385.52 230.5,384C 235.787,378.553 240.453,372.72 244.5,366.5C 288.5,366.5 332.5,366.5 376.5,366.5C 376.667,399.502 376.5,432.502 376,465.5C 373.647,471.685 369.48,476.018 363.5,478.5C 357.167,478.5 350.833,478.5 344.5,478.5C 265.5,478.5 186.5,478.5 107.5,478.5C 98.7298,478.36 93.2298,474.027 91,465.5C 90.5,432.502 90.3334,399.502 90.5,366.5 Z"/></g>
<g><path style="opacity:1" fill="#62dbfa" d="M 376.5,366.5 C 391.167,366.5 405.833,366.5 420.5,366.5C 420.667,399.502 420.5,432.502 420,465.5C 417.77,474.027 412.27,478.36 403.5,478.5C 390.167,478.5 376.833,478.5 363.5,478.5C 369.48,476.018 373.647,471.685 376,465.5C 376.5,432.502 376.667,399.502 376.5,366.5 Z"/></g>
<g><path style="opacity:1" fill="#f7f1f0" d="M 161.5,420.5 C 224.168,420.333 286.834,420.5 349.5,421C 352.366,422.393 353.699,424.726 353.5,428C 353.699,431.274 352.366,433.607 349.5,435C 286.833,435.667 224.167,435.667 161.5,435C 158.634,433.607 157.301,431.274 157.5,428C 157.43,424.634 158.763,422.134 161.5,420.5 Z"/></g>
<g><path style="opacity:0.998" fill="#f7f1ef" d="M 107.5,478.5 C 186.5,478.5 265.5,478.5 344.5,478.5C 344.666,485.175 344.5,491.842 344,498.5C 341.524,505.147 337.024,509.48 330.5,511.5C 259.833,511.5 189.167,511.5 118.5,511.5C 113.436,508.932 109.936,504.932 108,499.5C 107.5,492.508 107.334,485.508 107.5,478.5 Z"/></g>
<g><path style="opacity:1" fill="#d6dcea" d="M 344.5,478.5 C 350.833,478.5 357.167,478.5 363.5,478.5C 376.833,478.5 390.167,478.5 403.5,478.5C 403.666,485.508 403.5,492.508 403,499.5C 401.064,504.932 397.564,508.932 392.5,511.5C 371.833,511.5 351.167,511.5 330.5,511.5C 337.024,509.48 341.524,505.147 344,498.5C 344.5,491.842 344.666,485.175 344.5,478.5 Z"/></g>
</svg>
