<?xml version="1.0" encoding="UTF-8"?>
<!DOCTYPE svg PUBLIC "-//W3C//DTD SVG 1.1//EN" "http://www.w3.org/Graphics/SVG/1.1/DTD/svg11.dtd">
<svg xmlns="http://www.w3.org/2000/svg" version="1.1" width="512px" height="512px" style="shape-rendering:geometricPrecision; text-rendering:geometricPrecision; image-rendering:optimizeQuality; fill-rule:evenodd; clip-rule:evenodd" xmlns:xlink="http://www.w3.org/1999/xlink">
<g><path style="opacity:0.996" fill="#dfdfe1" d="M 156.5,-0.5 C 210.833,-0.5 265.167,-0.5 319.5,-0.5C 333.871,5.77038 337.705,16.1037 331,30.5C 327.85,34.3107 324.017,36.9774 319.5,38.5C 265.499,38.6667 211.499,38.5 157.5,38C 154.478,36.489 151.478,34.989 148.5,33.5C 141.553,24.8394 141.053,15.8394 147,6.5C 149.825,3.52399 152.992,1.19065 156.5,-0.5 Z"/></g>
<g><path style="opacity:1" fill="#c7c6cc" d="M 319.5,-0.5 C 331.5,-0.5 343.5,-0.5 355.5,-0.5C 367.192,4.88897 371.358,13.889 368,26.5C 366.988,29.2018 365.488,31.5351 363.5,33.5C 359.431,36.7459 354.764,38.4125 349.5,38.5C 339.5,38.5 329.5,38.5 319.5,38.5C 324.017,36.9774 327.85,34.3107 331,30.5C 337.705,16.1037 333.871,5.77038 319.5,-0.5 Z"/></g>
<g><path style="opacity:0.996" fill="#fdda57" d="M 148.5,33.5 C 151.478,34.989 154.478,36.489 157.5,38C 211.499,38.5 265.499,38.6667 319.5,38.5C 329.5,38.5 339.5,38.5 349.5,38.5C 344.349,39.3267 339.016,39.8267 333.5,40C 344.207,52.907 352.207,67.407 357.5,83.5C 369.148,84.4989 380.814,84.8322 392.5,84.5C 392.5,84.8333 392.5,85.1667 392.5,85.5C 380.833,85.5 369.167,85.5 357.5,85.5C 278.5,85.5 199.5,85.5 120.5,85.5C 125.134,65.5613 134.467,48.228 148.5,33.5 Z"/></g>
<g><path style="opacity:1" fill="#f6c134" d="M 363.5,33.5 C 377.017,48.1891 386.684,65.1891 392.5,84.5C 380.814,84.8322 369.148,84.4989 357.5,83.5C 352.207,67.407 344.207,52.907 333.5,40C 339.016,39.8267 344.349,39.3267 349.5,38.5C 354.764,38.4125 359.431,36.7459 363.5,33.5 Z"/></g>
<g><path style="opacity:1" fill="#3aa4fa" d="M 120.5,85.5 C 199.5,85.5 278.5,85.5 357.5,85.5C 357.5,209.167 357.5,332.833 357.5,456.5C 278.5,456.5 199.5,456.5 120.5,456.5C 120.5,332.833 120.5,209.167 120.5,85.5 Z"/></g>
<g><path style="opacity:1" fill="#1388f7" d="M 357.5,85.5 C 369.167,85.5 380.833,85.5 392.5,85.5C 392.5,209.167 392.5,332.833 392.5,456.5C 380.833,456.5 369.167,456.5 357.5,456.5C 357.5,332.833 357.5,209.167 357.5,85.5 Z"/></g>
<g><path style="opacity:1" fill="#c6c6cc" d="M 237.5,335.5 C 269.85,327.983 289.683,307.983 297,275.5C 301.737,241.82 290.237,215.32 262.5,196C 255.254,191.707 247.588,188.541 239.5,186.5C 279.105,180.22 308.272,194.886 327,230.5C 339.677,266.963 331.511,297.796 302.5,323C 282.599,337.234 260.932,341.401 237.5,335.5 Z"/></g>
<g><path style="opacity:1" fill="#dfdfe2" d="M 239.5,186.5 C 247.588,188.541 255.254,191.707 262.5,196C 290.237,215.32 301.737,241.82 297,275.5C 289.683,307.983 269.85,327.983 237.5,335.5C 210.528,328.031 192.361,311.031 183,284.5C 173.259,245.702 185.092,215.535 218.5,194C 225.118,190.355 232.118,187.855 239.5,186.5 Z"/></g>
<g><path style="opacity:0.996" fill="#feda56" d="M 120.5,456.5 C 199.5,456.5 278.5,456.5 357.5,456.5C 369.167,456.5 380.833,456.5 392.5,456.5C 392.5,456.833 392.5,457.167 392.5,457.5C 380.5,457.5 368.5,457.5 356.5,457.5C 351.14,469.216 344.973,480.549 338,491.5C 328.994,501.914 317.828,508.581 304.5,511.5C 260.167,511.5 215.833,511.5 171.5,511.5C 158.58,508.45 147.746,501.783 139,491.5C 133.415,482.665 128.081,473.665 123,464.5C 121.293,462.091 120.46,459.425 120.5,456.5 Z"/></g>
<g><path style="opacity:1" fill="#f6c134" d="M 392.5,457.5 C 385.781,470.601 378.281,483.268 370,495.5C 361.835,503.329 352.335,508.663 341.5,511.5C 329.167,511.5 316.833,511.5 304.5,511.5C 317.828,508.581 328.994,501.914 338,491.5C 344.973,480.549 351.14,469.216 356.5,457.5C 368.5,457.5 380.5,457.5 392.5,457.5 Z"/></g>
</svg>
