<svg xmlns="http://www.w3.org/2000/svg" viewBox="0 0 24 24" id="coke"><path fill="#F5F4EF" d="M16 18c0-.872.18-1.504.386-2.237.288-1.016.614-2.168.614-4.263 0-2.127-.962-3.72-1.81-5.124-.567-.939-1.066-1.763-1.17-2.572a.658.658 0 0 0 .047-.044c.41-.412.439-1.242.433-2.13V1h-5v.63c-.006.888.023 1.718.433 2.13.015.016.03.03.047.044-.104.81-.603 1.634-1.17 2.572C7.963 7.781 7 9.373 7 11.5c0 2.095.326 3.247.614 4.263C7.82 16.496 8 17.128 8 18c0 1.01-.231 1.378-.476 1.768C7.278 20.158 7 20.6 7 21.5v.5a2 2 0 0 0 2 2h6a2 2 0 0 0 2-2v-.5c0-.9-.278-1.342-.524-1.732C16.231 19.378 16 19.01 16 18z"></path><path d="M15 23.75H9a2 2 0 0 1-2-2V22a2 2 0 0 0 2 2h6a2 2 0 0 0 2-2v-.25a2 2 0 0 1-2 2z" opacity=".05"></path><radialGradient id="a" cx="12.175" cy="6.384" r="4.121" gradientTransform="matrix(1 0 0 3.80841 0 -17.928)" gradientUnits="userSpaceOnUse"><stop offset="0" stop-color="#86090F"></stop><stop offset="1" stop-color="#4E131E"></stop></radialGradient><path fill="url(#a)" d="M15 23c.551 0 1-.449 1-1v-.5c0-.61-.155-.858-.372-1.202C15.285 19.75 15 19.2 15 18c0-1.008.206-1.735.424-2.51.284-1 .576-2.034.576-3.99 0-1.848-.847-3.25-1.67-4.612-.18-.3-.353-.594-.518-.888h-3.624c-.165.295-.34.592-.522.894C8.846 8.25 8 9.652 8 11.5c0 1.956.292 2.99.577 3.995.217.77.423 1.497.423 2.505 0 1.2-.285 1.75-.63 2.3-.215.342-.37.59-.37 1.2v.5c0 .551.449 1 1 1h6z"></path><path d="M15 22.75H9c-.551 0-1-.449-1-1V22c0 .551.449 1 1 1h6c.551 0 1-.449 1-1v-.25c0 .551-.449 1-1 1z" opacity=".1"></path><linearGradient id="b" x1="10.751" x2="17.805" y1=".753" y2="7.807" gradientUnits="userSpaceOnUse"><stop offset="0" stop-opacity=".1"></stop><stop offset="1" stop-opacity="0"></stop></linearGradient><path fill="url(#b)" d="M15.19 6.376c-.567-.939-1.066-1.763-1.17-2.572a.658.658 0 0 0 .047-.044c.352-.354.42-1.02.429-1.76H9.504v.004l7.052 7.052c-.358-.998-.879-1.872-1.367-2.68z"></path><path fill="#EE3124" d="M14.44.264A.5.5 0 0 0 13.998 0h-4a.5.5 0 0 0-.416.777L10.399 2h3.2l.816-1.223a.497.497 0 0 0 .024-.513z"></path><path fill="#EE3124" d="M14.5 2h-5a.5.5 0 1 1 0-1h5a.5.5 0 1 1 0 1z"></path><path fill="#FFF" d="M9.559.514a.5.5 0 0 1 .44-.264h4a.5.5 0 0 1 .484.376.5.5 0 0 0-.484-.626h-4a.5.5 0 0 0-.484.626.523.523 0 0 1 .044-.112z" opacity=".2"></path><linearGradient id="c" x1="5.352" x2="19.988" y1="9.211" y2="16.036" gradientUnits="userSpaceOnUse"><stop offset="0" stop-color="#FFF" stop-opacity=".2"></stop><stop offset="1" stop-color="#FFF" stop-opacity="0"></stop></linearGradient><path fill="url(#c)" d="M16 18c0-.872.18-1.504.386-2.237.288-1.016.614-2.168.614-4.263 0-2.127-.962-3.72-1.81-5.124-.567-.939-1.066-1.763-1.17-2.572a.658.658 0 0 0 .047-.044c.352-.354.42-1.02.429-1.76h.004a.5.5 0 1 0 0-1h-.233l.148-.223A.5.5 0 1 0 13.999 0h-4a.5.5 0 0 0-.416.777L9.732 1H9.5a.5.5 0 1 0 0 1h.004c.01.74.077 1.406.43 1.76.014.016.03.03.046.044-.104.81-.603 1.634-1.17 2.572C7.963 7.781 7 9.373 7 11.5c0 2.095.326 3.247.614 4.263C7.82 16.496 8 17.128 8 18c0 1.01-.231 1.378-.476 1.768C7.278 20.158 7 20.6 7 21.5v.5a2 2 0 0 0 2 2h6a2 2 0 0 0 2-2v-.5c0-.9-.278-1.342-.524-1.732C16.231 19.378 16 19.01 16 18z"></path></svg>