<?xml version="1.0" encoding="UTF-8"?>
<!DOCTYPE svg PUBLIC "-//W3C//DTD SVG 1.1//EN" "http://www.w3.org/Graphics/SVG/1.1/DTD/svg11.dtd">
<svg xmlns="http://www.w3.org/2000/svg" version="1.1" width="128px" height="128px" style="shape-rendering:geometricPrecision; text-rendering:geometricPrecision; image-rendering:optimizeQuality; fill-rule:evenodd; clip-rule:evenodd" xmlns:xlink="http://www.w3.org/1999/xlink">
<g><path style="opacity:0.894" fill="#cfcfcf" d="M 75.5,-0.5 C 78.8333,-0.5 82.1667,-0.5 85.5,-0.5C 85.5,0.833333 85.5,2.16667 85.5,3.5C 82.1501,3.66501 78.8168,3.49834 75.5,3C 74.3157,1.85453 74.3157,0.687867 75.5,-0.5 Z"/></g>
<g><path style="opacity:0.777" fill="#cecece" d="M 43.5,6.5 C 55.5,6.5 67.5,6.5 79.5,6.5C 79.7135,8.14387 79.3802,9.64387 78.5,11C 67.5,11.3333 56.5,11.6667 45.5,12C 52.5,12.3333 59.5,12.6667 66.5,13C 71.4065,15.3141 73.2398,19.1475 72,24.5C 70.6667,25.8333 69.3333,25.8333 68,24.5C 67.9071,21.9925 67.0738,19.8259 65.5,18C 58.1667,17.6667 50.8333,17.3333 43.5,17C 40.8805,13.5019 40.8805,10.0019 43.5,6.5 Z"/></g>
<g><path style="opacity:0.825" fill="#cfcfcf" d="M 49.5,20.5 C 53.6348,19.8898 57.3014,20.7232 60.5,23C 57.3014,25.2768 53.6348,26.1102 49.5,25.5C 49.5,23.8333 49.5,22.1667 49.5,20.5 Z"/></g>
<g><path style="opacity:0.963" fill="#999999" d="M 93.5,49.5 C 73.5,48.1667 53.5,48.1667 33.5,49.5C 32.1779,49.67 31.0113,49.3366 30,48.5C 29.502,45.5184 29.3354,42.5184 29.5,39.5C 31.604,39.7989 33.604,39.4656 35.5,38.5C 36.2728,35.5692 37.2728,32.7359 38.5,30C 55.1667,29.3333 71.8333,29.3333 88.5,30C 89.7272,32.7359 90.7272,35.5692 91.5,38.5C 93.396,39.4656 95.396,39.7989 97.5,39.5C 97.6646,42.5184 97.498,45.5184 97,48.5C 95.9887,49.3366 94.8221,49.67 93.5,49.5 Z"/></g>
<g><path style="opacity:0.994" fill="#e09974" d="M 93.5,49.5 C 91.5,49.5 89.5,49.5 87.5,49.5C 86.9158,58.5065 86.2492,67.5065 85.5,76.5C 69.1667,76.5 52.8333,76.5 36.5,76.5C 35.1719,67.5539 34.1719,58.5539 33.5,49.5C 53.5,48.1667 73.5,48.1667 93.5,49.5 Z"/></g>
<g><path style="opacity:1" fill="#dc895a" d="M 93.5,49.5 C 92.8281,58.5539 91.8281,67.5539 90.5,76.5C 88.8333,76.5 87.1667,76.5 85.5,76.5C 86.2492,67.5065 86.9158,58.5065 87.5,49.5C 89.5,49.5 91.5,49.5 93.5,49.5 Z"/></g>
<g><path style="opacity:0.993" fill="#f6f1ef" d="M 36.5,76.5 C 52.8333,76.5 69.1667,76.5 85.5,76.5C 87.1667,76.5 88.8333,76.5 90.5,76.5C 89.9799,84.1805 89.3132,91.8472 88.5,99.5C 86.5,99.5 84.5,99.5 82.5,99.5C 67.8333,99.5 53.1667,99.5 38.5,99.5C 37.6868,91.8472 37.0201,84.1805 36.5,76.5 Z"/></g>
<g><path style="opacity:0.993" fill="#e19873" d="M 38.5,99.5 C 53.1667,99.5 67.8333,99.5 82.5,99.5C 82.0551,108.937 81.0551,118.27 79.5,127.5C 66.8333,127.5 54.1667,127.5 41.5,127.5C 40.6317,118.15 39.6317,108.817 38.5,99.5 Z"/></g>
<g><path style="opacity:0.999" fill="#dc885a" d="M 82.5,99.5 C 84.5,99.5 86.5,99.5 88.5,99.5C 87.3683,108.817 86.3683,118.15 85.5,127.5C 83.5,127.5 81.5,127.5 79.5,127.5C 81.0551,118.27 82.0551,108.937 82.5,99.5 Z"/></g>
</svg>
