<svg xmlns="http://www.w3.org/2000/svg" viewBox="0 0 24 24" id="coke-can"><path fill="#CCC" d="M6.19 22l.863 1.724A.5.5 0 0 0 7.5 24h9a.5.5 0 0 0 .447-.276L17.81 22H6.191z"></path><path d="M16.947 23.474a.5.5 0 0 1-.447.276h-9a.5.5 0 0 1-.447-.276L6.316 22H6.19l.862 1.724A.5.5 0 0 0 7.5 24h9a.5.5 0 0 0 .447-.276L17.81 22h-.125l-.737 1.474z" opacity=".05"></path><linearGradient id="a" x1="9.528" x2="13.904" y1="20.708" y2="25.084" gradientUnits="userSpaceOnUse"><stop offset="0" stop-color="#231F20" stop-opacity=".2"></stop><stop offset="1" stop-color="#231F20" stop-opacity=".02"></stop></linearGradient><path fill="url(#a)" d="M17 23H7c-.095 0-.187-.004-.278-.017l-.044-.009.375.75A.5.5 0 0 0 7.5 24h9a.5.5 0 0 0 .447-.276l.375-.75A1.95 1.95 0 0 1 17 23z"></path><path fill="#E83628" d="M17 0H7L5.79 2.117A6 6 0 0 0 5 5.093V21a2 2 0 0 0 2 2h10a2 2 0 0 0 2-2V5.093a6 6 0 0 0-.79-2.976L17 0z"></path><path fill="#FFF" d="M14.447 6.961c-.99-2.55-1.432-4.235.6-6.092L16 0h-3.5l-.143.13c-2.13 1.945-1.56 3.697-.674 5.726C12.3 7.271 13 8.876 13 11c0 5.472-2.028 9.098-3.798 11.176L8.5 23H14l.146-.24C15.289 20.88 16 16.834 16 13.74c0-2.773-.861-4.994-1.553-6.779z"></path><path fill="#CCC" d="M17.5 1h-11a.5.5 0 1 1 0-1h11a.5.5 0 1 1 0 1z"></path><path fill="#FFF" d="M6.371.25H17.63c.135 0 .268.054.36.137A.506.506 0 0 0 17.5 0h-11a.504.504 0 0 0-.487.387A.54.54 0 0 1 6.37.25z" opacity=".2"></path><linearGradient id="b" x1="9.217" x2="21.785" y1="-1.79" y2="10.778" gradientUnits="userSpaceOnUse"><stop offset="0" stop-opacity=".1"></stop><stop offset="1" stop-opacity="0"></stop></linearGradient><path fill="url(#b)" d="M18.21 2.117l-.646-1.13C17.542.99 17.523 1 17.5 1H6.463L6.43.995 19 13.564v-8.47a6 6 0 0 0-.79-2.977z"></path><linearGradient id="c" x1="2.714" x2="21.456" y1="7.436" y2="16.176" gradientUnits="userSpaceOnUse"><stop offset="0" stop-color="#FFF" stop-opacity=".2"></stop><stop offset="1" stop-color="#FFF" stop-opacity="0"></stop></linearGradient><path fill="url(#c)" d="M18.21 2.117l-.646-1.13A.494.494 0 0 0 18 .5a.5.5 0 0 0-.5-.5h-11a.5.5 0 0 0-.5.5c0 .254.191.454.436.487l-.645 1.13A6 6 0 0 0 5 5.093V21c0 .99.721 1.807 1.666 1.966l.387.758A.5.5 0 0 0 7.5 24h9a.5.5 0 0 0 .447-.276l.381-.757A1.996 1.996 0 0 0 19 21V5.093a6 6 0 0 0-.79-2.976z"></path></svg>