<?xml version="1.0" encoding="UTF-8"?>
<!DOCTYPE svg PUBLIC "-//W3C//DTD SVG 1.1//EN" "http://www.w3.org/Graphics/SVG/1.1/DTD/svg11.dtd">
<svg xmlns="http://www.w3.org/2000/svg" version="1.1" width="512px" height="512px" style="shape-rendering:geometricPrecision; text-rendering:geometricPrecision; image-rendering:optimizeQuality; fill-rule:evenodd; clip-rule:evenodd" xmlns:xlink="http://www.w3.org/1999/xlink">
<g><path style="opacity:1" fill="#985e33" d="M 126.5,-0.5 C 152.167,-0.5 177.833,-0.5 203.5,-0.5C 196.856,1.25298 191.356,4.91965 187,10.5C 178.641,23.2236 170.808,36.2236 163.5,49.5C 156.167,49.5 148.833,49.5 141.5,49.5C 123.833,49.5 106.167,49.5 88.5,49.5C 96.7264,35.3892 105.226,21.3892 114,7.5C 117.671,3.92272 121.838,1.25605 126.5,-0.5 Z"/></g>
<g><path style="opacity:0.999" fill="#c07c4e" d="M 203.5,-0.5 C 264.167,-0.5 324.833,-0.5 385.5,-0.5C 391.216,1.79902 396.049,5.46568 400,10.5C 407.755,23.4051 415.255,36.4051 422.5,49.5C 336.167,49.5 249.833,49.5 163.5,49.5C 170.808,36.2236 178.641,23.2236 187,10.5C 191.356,4.91965 196.856,1.25298 203.5,-0.5 Z"/></g>
<g><path style="opacity:0.999" fill="#daecfd" d="M 141.5,49.5 C 148.833,49.5 156.167,49.5 163.5,49.5C 249.833,49.5 336.167,49.5 422.5,49.5C 430.174,49.3336 437.841,49.5003 445.5,50C 448.756,51.587 450.923,54.087 452,57.5C 452.937,69.5714 452.604,81.5714 451,93.5C 449.457,95.3783 447.624,96.8783 445.5,98C 440.511,98.4993 435.511,98.6659 430.5,98.5C 338.833,98.5 247.167,98.5 155.5,98.5C 150.349,97.6733 145.016,97.1733 139.5,97C 136.572,95.7402 134.739,93.5735 134,90.5C 133.333,79.1667 133.333,67.8333 134,56.5C 135.742,53.2543 138.242,50.921 141.5,49.5 Z"/></g>
<g><path style="opacity:1" fill="#b5dbfe" d="M 88.5,49.5 C 106.167,49.5 123.833,49.5 141.5,49.5C 138.242,50.921 135.742,53.2543 134,56.5C 133.333,67.8333 133.333,79.1667 134,90.5C 134.739,93.5735 136.572,95.7402 139.5,97C 145.016,97.1733 150.349,97.6733 155.5,98.5C 130.5,98.5 105.5,98.5 80.5,98.5C 75.4889,98.6659 70.4889,98.4993 65.5,98C 63.3762,96.8783 61.5429,95.3783 60,93.5C 58.3962,81.5714 58.0629,69.5714 59,57.5C 60.0774,54.087 62.2441,51.587 65.5,50C 73.1594,49.5003 80.8261,49.3336 88.5,49.5 Z"/></g>
<g><path style="opacity:1" fill="#8bcaff" d="M 80.5,98.5 C 105.5,98.5 130.5,98.5 155.5,98.5C 155.334,105.175 155.5,111.842 156,118.5C 157.105,121.937 159.272,124.437 162.5,126C 138.169,126.5 113.836,126.667 89.5,126.5C 85.2462,125.415 82.4129,122.748 81,118.5C 80.5004,111.842 80.3337,105.175 80.5,98.5 Z"/></g>
<g><path style="opacity:0.999" fill="#b4dbfe" d="M 155.5,98.5 C 247.167,98.5 338.833,98.5 430.5,98.5C 430.666,105.175 430.5,111.842 430,118.5C 425.655,126.749 418.822,129.749 409.5,127.5C 409.167,127.5 408.833,127.5 408.5,127.5C 331.335,126.501 254.002,126.167 176.5,126.5C 176.198,129.059 176.532,131.393 177.5,133.5C 179.94,155.125 181.94,176.791 183.5,198.5C 256.167,198.5 328.833,198.5 401.5,198.5C 328.335,199.499 255.002,199.833 181.5,199.5C 157.092,199.823 132.759,199.49 108.5,198.5C 106.628,174.78 104.295,151.114 101.5,127.5C 97.2984,127.817 93.2984,127.483 89.5,126.5C 113.836,126.667 138.169,126.5 162.5,126C 159.272,124.437 157.105,121.937 156,118.5C 155.5,111.842 155.334,105.175 155.5,98.5 Z"/></g>
<g><path style="opacity:1" fill="#c9e5ff" d="M 408.5,127.5 C 331.5,127.5 254.5,127.5 177.5,127.5C 177.5,129.5 177.5,131.5 177.5,133.5C 176.532,131.393 176.198,129.059 176.5,126.5C 254.002,126.167 331.335,126.501 408.5,127.5 Z"/></g>
<g><path style="opacity:0.999" fill="#daecff" d="M 408.5,127.5 C 408.833,127.5 409.167,127.5 409.5,127.5C 406.705,151.114 404.372,174.78 402.5,198.5C 402.167,198.5 401.833,198.5 401.5,198.5C 328.833,198.5 256.167,198.5 183.5,198.5C 181.94,176.791 179.94,155.125 177.5,133.5C 177.5,131.5 177.5,129.5 177.5,127.5C 254.5,127.5 331.5,127.5 408.5,127.5 Z"/></g>
<g><path style="opacity:1" fill="#477b9e" d="M 108.5,198.5 C 132.759,199.49 157.092,199.823 181.5,199.5C 180.207,201.296 178.707,202.963 177,204.5C 177.488,219.51 178.488,234.51 180,249.5C 185.197,296.467 190.197,343.467 195,390.5C 195.049,394.94 196.882,398.273 200.5,400.5C 176.661,400.169 152.994,400.502 129.5,401.5C 125.689,400.848 122.856,398.848 121,395.5C 113.973,333.902 107.473,272.235 101.5,210.5C 100.779,204.597 103.112,200.597 108.5,198.5 Z"/></g>
<g><path style="opacity:0.999" fill="#528dae" d="M 401.5,198.5 C 401.833,198.5 402.167,198.5 402.5,198.5C 407.888,200.597 410.221,204.597 409.5,210.5C 403.465,270.847 397.299,331.18 391,391.5C 390.39,397.277 387.223,400.61 381.5,401.5C 381.167,401.5 380.833,401.5 380.5,401.5C 322.002,400.501 263.336,400.168 204.5,400.5C 203.167,400.5 201.833,400.5 200.5,400.5C 196.882,398.273 195.049,394.94 195,390.5C 190.197,343.467 185.197,296.467 180,249.5C 178.488,234.51 177.488,219.51 177,204.5C 178.707,202.963 180.207,201.296 181.5,199.5C 255.002,199.833 328.335,199.499 401.5,198.5 Z"/></g>
<g><path style="opacity:1" fill="#985e33" d="M 261.5,247.5 C 254.869,258.263 252.703,269.93 255,282.5C 259.233,291.069 263.9,299.402 269,307.5C 273.598,321.857 273.431,336.191 268.5,350.5C 262.597,353.289 256.597,353.956 250.5,352.5C 251.227,350.046 252.227,347.713 253.5,345.5C 259.257,332.916 258.757,320.582 252,308.5C 245.445,301.014 241.279,292.347 239.5,282.5C 237.31,271.206 238.643,260.373 243.5,250C 243.272,249.601 242.938,249.435 242.5,249.5C 248.527,246.557 254.861,245.891 261.5,247.5 Z"/></g>
<g><path style="opacity:1" fill="#c07c4f" d="M 261.5,247.5 C 276.742,251.566 287.575,260.899 294,275.5C 301.591,297.02 299.258,317.353 287,336.5C 282.091,342.92 275.924,347.587 268.5,350.5C 273.431,336.191 273.598,321.857 269,307.5C 263.9,299.402 259.233,291.069 255,282.5C 252.703,269.93 254.869,258.263 261.5,247.5 Z"/></g>
<g><path style="opacity:1" fill="#b06e3d" d="M 242.5,249.5 C 242.938,249.435 243.272,249.601 243.5,250C 238.643,260.373 237.31,271.206 239.5,282.5C 234.568,301.616 237.068,319.95 247,337.5C 249.031,340.355 251.197,343.022 253.5,345.5C 252.227,347.713 251.227,350.046 250.5,352.5C 241.251,351.292 233.418,347.292 227,340.5C 212.02,321.558 208.353,300.558 216,277.5C 220.615,264.054 229.449,254.721 242.5,249.5 Z"/></g>
<g><path style="opacity:1" fill="#bf7c4e" d="M 239.5,282.5 C 241.279,292.347 245.445,301.014 252,308.5C 258.757,320.582 259.257,332.916 253.5,345.5C 251.197,343.022 249.031,340.355 247,337.5C 237.068,319.95 234.568,301.616 239.5,282.5 Z"/></g>
<g><path style="opacity:1" fill="#bfdaef" d="M 204.5,400.5 C 263.336,400.168 322.002,400.501 380.5,401.5C 322.167,401.5 263.833,401.5 205.5,401.5C 205.5,403.167 205.5,404.833 205.5,406.5C 204.539,404.735 204.205,402.735 204.5,400.5 Z"/></g>
<g><path style="opacity:1" fill="#b4dbfe" d="M 200.5,400.5 C 201.833,400.5 203.167,400.5 204.5,400.5C 204.205,402.735 204.539,404.735 205.5,406.5C 208.618,437.497 211.785,468.497 215,499.5C 217.019,505.35 220.852,509.35 226.5,511.5C 201.167,511.5 175.833,511.5 150.5,511.5C 145.034,508.856 141.534,504.523 140,498.5C 136.759,466.085 133.259,433.752 129.5,401.5C 152.994,400.502 176.661,400.169 200.5,400.5 Z"/></g>
<g><path style="opacity:0.999" fill="#daecff" d="M 380.5,401.5 C 380.833,401.5 381.167,401.5 381.5,401.5C 377.741,433.752 374.241,466.085 371,498.5C 369.466,504.523 365.966,508.856 360.5,511.5C 315.833,511.5 271.167,511.5 226.5,511.5C 220.852,509.35 217.019,505.35 215,499.5C 211.785,468.497 208.618,437.497 205.5,406.5C 205.5,404.833 205.5,403.167 205.5,401.5C 263.833,401.5 322.167,401.5 380.5,401.5 Z"/></g>
</svg>
