<?xml version="1.0" encoding="UTF-8"?>
<!DOCTYPE svg PUBLIC "-//W3C//DTD SVG 1.1//EN" "http://www.w3.org/Graphics/SVG/1.1/DTD/svg11.dtd">
<svg xmlns="http://www.w3.org/2000/svg" version="1.1" width="512px" height="512px" style="shape-rendering:geometricPrecision; text-rendering:geometricPrecision; image-rendering:optimizeQuality; fill-rule:evenodd; clip-rule:evenodd" xmlns:xlink="http://www.w3.org/1999/xlink">
<g><path style="opacity:1" fill="#9dc6fb" d="M 152.5,-0.5 C 167.167,-0.5 181.833,-0.5 196.5,-0.5C 182.079,6.71027 177.079,18.3769 181.5,34.5C 166.833,34.5 152.167,34.5 137.5,34.5C 136.95,26.3318 137.783,18.3318 140,10.5C 143.148,5.50941 147.314,1.84275 152.5,-0.5 Z"/></g>
<g><path style="opacity:0.997" fill="#cae1fe" d="M 196.5,-0.5 C 250.5,-0.5 304.5,-0.5 358.5,-0.5C 366.444,2.94839 371.277,8.94839 373,17.5C 373.499,23.1569 373.666,28.8236 373.5,34.5C 309.5,34.5 245.5,34.5 181.5,34.5C 177.079,18.3769 182.079,6.71027 196.5,-0.5 Z"/></g>
<g><path style="opacity:1" fill="#cbe2fe" d="M 137.5,34.5 C 152.167,34.5 166.833,34.5 181.5,34.5C 173.091,37.138 166.925,42.4713 163,50.5C 161.577,60.4203 161.077,70.4203 161.5,80.5C 147.167,80.5 132.833,80.5 118.5,80.5C 118.074,70.0878 118.574,59.7544 120,49.5C 123.92,42.0663 129.754,37.0663 137.5,34.5 Z"/></g>
<g><path style="opacity:0.999" fill="#f8f5f9" d="M 181.5,34.5 C 245.5,34.5 309.5,34.5 373.5,34.5C 381.246,37.0663 387.08,42.0663 391,49.5C 392.426,59.7544 392.926,70.0878 392.5,80.5C 315.5,80.5 238.5,80.5 161.5,80.5C 161.077,70.4203 161.577,60.4203 163,50.5C 166.925,42.4713 173.091,37.138 181.5,34.5 Z"/></g>
<g><path style="opacity:1" fill="#6e60b8" d="M 118.5,80.5 C 132.833,80.5 147.167,80.5 161.5,80.5C 161.5,132.833 161.5,185.167 161.5,237.5C 160.191,249.504 160.191,261.504 161.5,273.5C 161.5,323.5 161.5,373.5 161.5,423.5C 147.167,423.5 132.833,423.5 118.5,423.5C 118.5,309.167 118.5,194.833 118.5,80.5 Z"/></g>
<g><path style="opacity:0.999" fill="#8479c1" d="M 161.5,80.5 C 238.5,80.5 315.5,80.5 392.5,80.5C 392.5,195.167 392.5,309.833 392.5,424.5C 315.5,424.5 238.5,424.5 161.5,424.5C 147.167,424.5 132.833,424.5 118.5,424.5C 118.5,424.167 118.5,423.833 118.5,423.5C 132.833,423.5 147.167,423.5 161.5,423.5C 161.5,373.5 161.5,323.5 161.5,273.5C 170.604,313.271 194.937,338.271 234.5,348.5C 231.04,359.005 228.54,369.671 227,380.5C 229.667,383.167 232.333,383.167 235,380.5C 241.028,370.423 247.528,360.756 254.5,351.5C 259.507,351.249 264.507,350.916 269.5,350.5C 315.482,340.882 342.315,312.882 350,266.5C 352.85,230.371 340.016,201.205 311.5,179C 302.583,172.875 292.917,168.375 282.5,165.5C 284.841,157.14 287.341,148.807 290,140.5C 290.944,137.653 290.444,135.153 288.5,133C 278.506,132.5 268.506,132.334 258.5,132.5C 249.827,132.334 241.16,132.5 232.5,133C 227.988,144.371 223.988,155.871 220.5,167.5C 189.248,181.084 169.582,204.417 161.5,237.5C 161.5,185.167 161.5,132.833 161.5,80.5 Z"/></g>
<g><path style="opacity:1" fill="#fec150" d="M 258.5,132.5 C 246.839,173.152 235.172,213.819 223.5,254.5C 223.09,258.589 224.923,260.589 229,260.5C 245.812,258.317 262.645,256.317 279.5,254.5C 286.006,254.187 288.172,257.187 286,263.5C 280.173,284.318 274.339,305.151 268.5,326C 268.57,326.765 268.903,327.265 269.5,327.5C 266.237,332.362 263.237,337.362 260.5,342.5C 257.759,344.975 255.759,347.975 254.5,351.5C 247.528,360.756 241.028,370.423 235,380.5C 232.333,383.167 229.667,383.167 227,380.5C 228.54,369.671 231.04,359.005 234.5,348.5C 236.681,340.106 239.015,331.773 241.5,323.5C 245.022,309.432 248.855,295.432 253,281.5C 254.591,275.424 252.258,272.757 246,273.5C 237.119,274.205 228.286,275.205 219.5,276.5C 211.793,277.134 204.126,278.134 196.5,279.5C 192.598,279.097 190.598,276.931 190.5,273C 200.581,237.841 210.581,202.674 220.5,167.5C 223.988,155.871 227.988,144.371 232.5,133C 241.16,132.5 249.827,132.334 258.5,132.5 Z"/></g>
<g><path style="opacity:1" fill="#fecf63" d="M 258.5,132.5 C 268.506,132.334 278.506,132.5 288.5,133C 290.444,135.153 290.944,137.653 290,140.5C 287.341,148.807 284.841,157.14 282.5,165.5C 276.852,183.085 271.352,200.752 266,218.5C 264.659,223.852 266.659,226.518 272,226.5C 290.536,224.829 309.036,222.829 327.5,220.5C 335.669,220.837 337.502,224.504 333,231.5C 311.611,263.382 290.444,295.382 269.5,327.5C 268.903,327.265 268.57,326.765 268.5,326C 274.339,305.151 280.173,284.318 286,263.5C 288.172,257.187 286.006,254.187 279.5,254.5C 262.645,256.317 245.812,258.317 229,260.5C 224.923,260.589 223.09,258.589 223.5,254.5C 235.172,213.819 246.839,173.152 258.5,132.5 Z"/></g>
<g><path style="opacity:1" fill="#fe636e" d="M 282.5,165.5 C 292.917,168.375 302.583,172.875 311.5,179C 340.016,201.205 352.85,230.371 350,266.5C 342.315,312.882 315.482,340.882 269.5,350.5C 269.918,349.778 270.584,349.278 271.5,349C 267.778,346.81 264.111,344.644 260.5,342.5C 263.237,337.362 266.237,332.362 269.5,327.5C 290.444,295.382 311.611,263.382 333,231.5C 337.502,224.504 335.669,220.837 327.5,220.5C 309.036,222.829 290.536,224.829 272,226.5C 266.659,226.518 264.659,223.852 266,218.5C 271.352,200.752 276.852,183.085 282.5,165.5 Z"/></g>
<g><path style="opacity:1" fill="#fe4654" d="M 220.5,167.5 C 210.581,202.674 200.581,237.841 190.5,273C 190.598,276.931 192.598,279.097 196.5,279.5C 204.126,278.134 211.793,277.134 219.5,276.5C 222.843,294.178 230.176,309.845 241.5,323.5C 239.015,331.773 236.681,340.106 234.5,348.5C 194.937,338.271 170.604,313.271 161.5,273.5C 160.191,261.504 160.191,249.504 161.5,237.5C 169.582,204.417 189.248,181.084 220.5,167.5 Z"/></g>
<g><path style="opacity:1" fill="#ff636d" d="M 241.5,323.5 C 230.176,309.845 222.843,294.178 219.5,276.5C 228.286,275.205 237.119,274.205 246,273.5C 252.258,272.757 254.591,275.424 253,281.5C 248.855,295.432 245.022,309.432 241.5,323.5 Z"/></g>
<g><path style="opacity:1" fill="#fe4955" d="M 260.5,342.5 C 264.111,344.644 267.778,346.81 271.5,349C 270.584,349.278 269.918,349.778 269.5,350.5C 264.507,350.916 259.507,351.249 254.5,351.5C 255.759,347.975 257.759,344.975 260.5,342.5 Z"/></g>
<g><path style="opacity:1" fill="#fec250" d="M 118.5,424.5 C 132.833,424.5 147.167,424.5 161.5,424.5C 161.5,438.167 161.5,451.833 161.5,465.5C 147.167,465.5 132.833,465.5 118.5,465.5C 118.5,451.833 118.5,438.167 118.5,424.5 Z"/></g>
<g><path style="opacity:1" fill="#fecf64" d="M 161.5,424.5 C 238.5,424.5 315.5,424.5 392.5,424.5C 392.5,438.167 392.5,451.833 392.5,465.5C 315.5,465.5 238.5,465.5 161.5,465.5C 161.5,451.833 161.5,438.167 161.5,424.5 Z"/></g>
<g><path style="opacity:1" fill="#cbe2fe" d="M 118.5,465.5 C 132.833,465.5 147.167,465.5 161.5,465.5C 161.077,475.58 161.577,485.58 163,495.5C 166.503,503.508 172.336,508.841 180.5,511.5C 165.833,511.5 151.167,511.5 136.5,511.5C 128.69,509.157 123.19,504.157 120,496.5C 118.574,486.246 118.074,475.912 118.5,465.5 Z"/></g>
<g><path style="opacity:0.999" fill="#f8f5f8" d="M 161.5,465.5 C 238.5,465.5 315.5,465.5 392.5,465.5C 392.926,475.912 392.426,486.246 391,496.5C 387.81,504.157 382.31,509.157 374.5,511.5C 309.833,511.5 245.167,511.5 180.5,511.5C 172.336,508.841 166.503,503.508 163,495.5C 161.577,485.58 161.077,475.58 161.5,465.5 Z"/></g>
</svg>
