<svg xmlns="http://www.w3.org/2000/svg" enable-background="new 0 0 110 110" viewBox="0 0 110 110" id="beverage"><path fill="#ededed" d="M72.8731155,37.6988564c-0.145134-3.9911499-0.7048187-6.9522991-2.8681946-11.4643078
		c-3.0062714-6.2702579-11.5096436-11.5955524-11.5096436-11.5955524v-3.3498936h-8.6982918v3.3770103l-5.5173912,4.5976982
		c-7.3125153,6.2765484-8.0941277,14.4582119-7.9812126,18.4350452H72.8731155z"></path><path fill="#293b44" d="M71.6385422,98.3845978c-3.9540558,9.0190277-11.2846832,4.5538788-11.2846832,4.5538788l-1.3239479,1.1775208
		C58.3901711,104.6845779,57.5637627,105,56.7063293,105H56.199791c-1.0218697,0-1.9903717-0.448616-2.6523438-1.2217712
		l-1.2972641-1.5016174c0,0-3.207695,3.8429871-7.9704247,2.0036011c-4.7671242-1.8391647-7.6593933-8.0280762-7.9926033-13.123848
		c-0.33321-5.1005554,1.2217712-9.863121,2.0570221-13.7106628c0.5509033-2.5322647-0.4220467-8.2679977-1.1507263-11.8799515
		c-0.2221413-1.0974655-0.3909149-2.208168-0.5064354-3.3188705c-0.1199608-1.1996422-0.1821671-2.4036255-0.1821671-3.6119499
		V40.0773201c0,0-0.5420647-2.9455299,0.0933342-6.9664001h35.8000641c0.4531708,2.3637123,0.5198822,4.7094193,0.5243301,7.7926979
		c0.0043335,0.6575279,0.0043335,1.3506317,0.0043335,2.0793152v14.2703438c0,1.6703911-0.1198502,3.3409996-0.3597794,4.9936028
		c-0.0710449,0.5108795-0.1555481,1.0174217-0.2488251,1.5239601c-0.7597046,4.0961494-1.8392715,11.2935829-0.7686005,14.5146141
		C73.0957947,82.9237213,75.5882568,89.3657913,71.6385422,98.3845978z"></path><path fill="#de594e" d="M58.812149 12.5419807h-9.6197128c-.6544838 0-1.185051-.5305653-1.185051-1.185051V6.185051C48.0073853 5.5305653 48.5379524 5 49.1924362 5h9.6197128C59.4666367 5 59.9972 5.5305653 59.9972 6.185051v5.1718788C59.9972 12.0114155 59.4666367 12.5419807 58.812149 12.5419807zM72.9269104 42.982933v14.2703438c0 1.6703911-.1198502 3.3409996-.3597794 4.9936028H36.6870155c-.1199608-1.1996422-.1821671-2.4036255-.1821671-3.6119499V40.9036179h36.4177284C72.9269104 41.5611458 72.9269104 42.2542496 72.9269104 42.982933z"></path></svg>