<?xml version="1.0" encoding="UTF-8"?>
<!DOCTYPE svg PUBLIC "-//W3C//DTD SVG 1.1//EN" "http://www.w3.org/Graphics/SVG/1.1/DTD/svg11.dtd">
<svg xmlns="http://www.w3.org/2000/svg" version="1.1" width="512px" height="512px" style="shape-rendering:geometricPrecision; text-rendering:geometricPrecision; image-rendering:optimizeQuality; fill-rule:evenodd; clip-rule:evenodd" xmlns:xlink="http://www.w3.org/1999/xlink">
<g><path style="opacity:0.988" fill="#adadb3" d="M 227.5,-0.5 C 238.833,-0.5 250.167,-0.5 261.5,-0.5C 265.068,1.23049 267.902,3.89715 270,7.5C 270.667,36.8333 270.667,66.1667 270,95.5C 265.743,110.436 255.909,117.603 240.5,117C 233.094,114.086 227.428,109.253 223.5,102.5C 220.914,94.7328 219.914,86.7328 220.5,78.5C 218.833,78.5 217.167,78.5 215.5,78.5C 216.919,77.5489 218.585,77.2155 220.5,77.5C 220.5,72.1667 220.5,66.8333 220.5,61.5C 220.333,43.4969 220.5,25.4969 221,7.5C 222.305,4.03864 224.471,1.37197 227.5,-0.5 Z M 251.5,22.5 C 266.274,23.4229 271.107,30.7563 266,44.5C 260.146,50.0769 253.646,50.9102 246.5,47C 238.701,36.8834 240.368,28.7167 251.5,22.5 Z"/></g>
<g><path style="opacity:1" fill="#919191" d="M 261.5,-0.5 C 268.5,-0.5 275.5,-0.5 282.5,-0.5C 285.139,1.30904 287.306,3.64238 289,6.5C 289.5,24.8303 289.667,43.1636 289.5,61.5C 289.5,66.8333 289.5,72.1667 289.5,77.5C 291.099,77.2322 292.432,77.5655 293.5,78.5C 292.167,78.5 290.833,78.5 289.5,78.5C 289.666,84.1764 289.499,89.8431 289,95.5C 288.358,97.7619 287.525,99.9285 286.5,102C 293.16,103.308 299.826,104.475 306.5,105.5C 313.893,106.515 321.226,107.848 328.5,109.5C 329.706,110.88 329.373,112.047 327.5,113C 308.618,122.626 288.618,128.626 267.5,131C 250.374,132.845 233.374,134.345 216.5,135.5C 199.111,133.427 182.111,129.593 165.5,124C 161.944,122.392 158.611,120.559 155.5,118.5C 167.072,113.365 179.072,109.532 191.5,107C 202.162,105.39 212.829,103.89 223.5,102.5C 227.428,109.253 233.094,114.086 240.5,117C 255.909,117.603 265.743,110.436 270,95.5C 270.667,66.1667 270.667,36.8333 270,7.5C 267.902,3.89715 265.068,1.23049 261.5,-0.5 Z"/></g>
<g><path style="opacity:0.986" fill="#d1d1dc" d="M 220.5,61.5 C 220.5,66.8333 220.5,72.1667 220.5,77.5C 218.585,77.2155 216.919,77.5489 215.5,78.5C 193.233,79.8163 172.233,85.6497 152.5,96C 141.232,104.916 142.232,112.416 155.5,118.5C 158.611,120.559 161.944,122.392 165.5,124C 182.111,129.593 199.111,133.427 216.5,135.5C 257.799,140.003 298.465,136.836 338.5,126C 344.286,124.271 349.62,121.771 354.5,118.5C 361.87,115.997 365.37,110.997 365,103.5C 359.883,97.1764 353.383,92.6764 345.5,90C 333.603,85.1091 321.269,81.9424 308.5,80.5C 303.71,79.2751 298.71,78.6084 293.5,78.5C 292.432,77.5655 291.099,77.2322 289.5,77.5C 289.5,72.1667 289.5,66.8333 289.5,61.5C 310.796,63.1576 331.463,67.6576 351.5,75C 362.017,78.8658 370.851,85.0325 378,93.5C 384.305,104.45 383.138,114.45 374.5,123.5C 368.88,128.65 362.547,132.817 355.5,136C 344.723,140.276 333.723,143.776 322.5,146.5C 288.72,152.361 254.72,154.027 220.5,151.5C 209.515,150.616 198.515,148.949 187.5,146.5C 168.152,143.155 150.819,135.488 135.5,123.5C 132.379,120.862 130.212,117.528 129,113.5C 126.715,100.906 130.882,91.0731 141.5,84C 152.334,77.0837 164.001,72.0837 176.5,69C 191.011,65.5259 205.678,63.0259 220.5,61.5 Z"/></g>
<g><path style="opacity:1" fill="#d0d0db" d="M 251.5,68.5 C 257.676,67.7765 262.676,69.7765 266.5,74.5C 258.833,75.8333 251.167,75.8333 243.5,74.5C 245.874,71.9934 248.541,69.9934 251.5,68.5 Z"/></g>
<g><path style="opacity:1" fill="#737171" d="M 242.5,76.5 C 251.167,76.5 259.833,76.5 268.5,76.5C 270.792,91.3749 264.459,97.8749 249.5,96C 241.297,91.4549 238.964,84.9549 242.5,76.5 Z"/></g>
<g><path style="opacity:1" fill="#727071" d="M 215.5,78.5 C 217.167,78.5 218.833,78.5 220.5,78.5C 219.914,86.7328 220.914,94.7328 223.5,102.5C 212.829,103.89 202.162,105.39 191.5,107C 179.072,109.532 167.072,113.365 155.5,118.5C 142.232,112.416 141.232,104.916 152.5,96C 172.233,85.6497 193.233,79.8163 215.5,78.5 Z"/></g>
<g><path style="opacity:1" fill="#727070" d="M 293.5,78.5 C 298.71,78.6084 303.71,79.2751 308.5,80.5C 306.532,88.4329 305.865,96.7663 306.5,105.5C 299.826,104.475 293.16,103.308 286.5,102C 287.525,99.9285 288.358,97.7619 289,95.5C 289.499,89.8431 289.666,84.1764 289.5,78.5C 290.833,78.5 292.167,78.5 293.5,78.5 Z"/></g>
<g><path style="opacity:1" fill="#555454" d="M 308.5,80.5 C 321.269,81.9424 333.603,85.1091 345.5,90C 353.383,92.6764 359.883,97.1764 365,103.5C 365.37,110.997 361.87,115.997 354.5,118.5C 345.972,115.102 337.306,112.102 328.5,109.5C 321.226,107.848 313.893,106.515 306.5,105.5C 305.865,96.7663 306.532,88.4329 308.5,80.5 Z"/></g>
<g><path style="opacity:1" fill="#737172" d="M 328.5,109.5 C 337.306,112.102 345.972,115.102 354.5,118.5C 349.62,121.771 344.286,124.271 338.5,126C 298.465,136.836 257.799,140.003 216.5,135.5C 233.374,134.345 250.374,132.845 267.5,131C 288.618,128.626 308.618,122.626 327.5,113C 329.373,112.047 329.706,110.88 328.5,109.5 Z"/></g>
<g><path style="opacity:1" fill="#727071" d="M 135.5,123.5 C 150.819,135.488 168.152,143.155 187.5,146.5C 187.833,266.001 187.5,385.334 186.5,504.5C 173.037,502.29 160.37,497.79 148.5,491C 142.469,487.306 138.303,482.139 136,475.5C 135.5,358.167 135.333,240.834 135.5,123.5 Z"/></g>
<g><path style="opacity:1" fill="#545353" d="M 374.5,123.5 C 374.667,241.167 374.5,358.834 374,476.5C 369.8,485.031 363.3,491.198 354.5,495C 344.556,499.482 334.223,502.648 323.5,504.5C 322.5,385.334 322.167,266.001 322.5,146.5C 333.723,143.776 344.723,140.276 355.5,136C 362.547,132.817 368.88,128.65 374.5,123.5 Z"/></g>
<g><path style="opacity:1" fill="#adadb3" d="M 187.5,146.5 C 198.515,148.949 209.515,150.616 220.5,151.5C 219.167,151.5 217.833,151.5 216.5,151.5C 216.5,197.167 216.5,242.833 216.5,288.5C 216.5,289.5 216.5,290.5 216.5,291.5C 208.802,319.453 201.469,347.62 194.5,376C 194.266,379.767 195.932,381.433 199.5,381C 205.197,376.492 210.864,371.992 216.5,367.5C 216.5,414.833 216.5,462.167 216.5,509.5C 206.199,508.894 196.199,507.228 186.5,504.5C 187.5,385.334 187.833,266.001 187.5,146.5 Z"/></g>
<g><path style="opacity:1" fill="#727070" d="M 322.5,146.5 C 322.167,266.001 322.5,385.334 323.5,504.5C 309.667,507.917 295.667,510.25 281.5,511.5C 263.833,511.5 246.167,511.5 228.5,511.5C 224.605,510.775 220.605,510.109 216.5,509.5C 216.5,462.167 216.5,414.833 216.5,367.5C 216.5,367.167 216.5,366.833 216.5,366.5C 225.579,360.262 234.245,353.429 242.5,346C 245.347,345.056 247.847,345.556 250,347.5C 246.5,382.488 242.667,417.488 238.5,452.5C 239.357,457.671 241.857,458.671 246,455.5C 269.105,387.517 292.605,319.683 316.5,252C 315.202,248.795 312.868,247.795 309.5,249C 293.35,262.573 277.017,275.906 260.5,289C 257.989,291.105 255.656,290.938 253.5,288.5C 252.673,253.208 252.173,217.875 252,182.5C 248.512,179.538 245.845,180.205 244,184.5C 235.118,219.37 225.951,254.037 216.5,288.5C 216.5,242.833 216.5,197.167 216.5,151.5C 217.833,151.5 219.167,151.5 220.5,151.5C 254.72,154.027 288.72,152.361 322.5,146.5 Z"/></g>
<g><path style="opacity:1" fill="#fda903" d="M 216.5,366.5 C 216.5,341.5 216.5,316.5 216.5,291.5C 216.5,290.5 216.5,289.5 216.5,288.5C 225.951,254.037 235.118,219.37 244,184.5C 245.845,180.205 248.512,179.538 252,182.5C 252.173,217.875 252.673,253.208 253.5,288.5C 255.656,290.938 257.989,291.105 260.5,289C 277.017,275.906 293.35,262.573 309.5,249C 312.868,247.795 315.202,248.795 316.5,252C 292.605,319.683 269.105,387.517 246,455.5C 241.857,458.671 239.357,457.671 238.5,452.5C 242.667,417.488 246.5,382.488 250,347.5C 247.847,345.556 245.347,345.056 242.5,346C 234.245,353.429 225.579,360.262 216.5,366.5 Z"/></g>
<g><path style="opacity:1" fill="#fdda17" d="M 216.5,291.5 C 216.5,316.5 216.5,341.5 216.5,366.5C 216.5,366.833 216.5,367.167 216.5,367.5C 210.864,371.992 205.197,376.492 199.5,381C 195.932,381.433 194.266,379.767 194.5,376C 201.469,347.62 208.802,319.453 216.5,291.5 Z"/></g>
</svg>
