<?xml version="1.0" encoding="UTF-8"?>
<!DOCTYPE svg PUBLIC "-//W3C//DTD SVG 1.1//EN" "http://www.w3.org/Graphics/SVG/1.1/DTD/svg11.dtd">
<svg xmlns="http://www.w3.org/2000/svg" version="1.1" width="256px" height="256px" style="shape-rendering:geometricPrecision; text-rendering:geometricPrecision; image-rendering:optimizeQuality; fill-rule:evenodd; clip-rule:evenodd" xmlns:xlink="http://www.w3.org/1999/xlink">
<g><path style="opacity:0.994" fill="#838383" d="M 71.5,-0.5 C 108.5,-0.5 145.5,-0.5 182.5,-0.5C 184.144,0.316435 185.31,1.64977 186,3.5C 190.807,16.0883 195.307,28.7549 199.5,41.5C 199.158,42.3382 198.492,42.6716 197.5,42.5C 149.664,42.8321 101.997,42.4988 54.5,41.5C 59.4036,27.107 65.0703,13.107 71.5,-0.5 Z"/></g>
<g><path style="opacity:0.992" fill="#bfbfbf" d="M 54.5,41.5 C 101.997,42.4988 149.664,42.8321 197.5,42.5C 198.633,50.4211 198.8,58.4211 198,66.5C 197.283,67.0442 196.783,67.7109 196.5,68.5C 192.5,68.5 188.5,68.5 184.5,68.5C 139.5,68.5 94.5,68.5 49.5,68.5C 45.5633,68.7935 41.73,68.4601 38,67.5C 36.4021,59.9391 36.0687,52.2724 37,44.5C 37.5,43.3333 38.3333,42.5 39.5,42C 44.4889,41.5007 49.4889,41.3341 54.5,41.5 Z"/></g>
<g><path style="opacity:0.998" fill="#acacac" d="M 199.5,41.5 C 204.844,41.334 210.177,41.5006 215.5,42C 216.667,42.5 217.5,43.3333 218,44.5C 218.931,52.2724 218.598,59.9391 217,67.5C 212.934,68.4637 208.767,68.797 204.5,68.5C 201.833,68.5 199.167,68.5 196.5,68.5C 196.783,67.7109 197.283,67.0442 198,66.5C 198.8,58.4211 198.633,50.4211 197.5,42.5C 198.492,42.6716 199.158,42.3382 199.5,41.5 Z"/></g>
<g><path style="opacity:0.997" fill="#eaeaea" d="M 49.5,68.5 C 94.5,68.5 139.5,68.5 184.5,68.5C 183.642,82.8473 182.642,97.1806 181.5,111.5C 138.5,111.5 95.5,111.5 52.5,111.5C 51.8966,97.1144 50.8966,82.7811 49.5,68.5 Z"/></g>
<g><path style="opacity:0.989" fill="#e2e2e2" d="M 184.5,68.5 C 188.5,68.5 192.5,68.5 196.5,68.5C 199.167,68.5 201.833,68.5 204.5,68.5C 203.191,82.7987 202.191,97.132 201.5,111.5C 196.167,111.5 190.833,111.5 185.5,111.5C 184.167,111.5 182.833,111.5 181.5,111.5C 182.642,97.1806 183.642,82.8473 184.5,68.5 Z"/></g>
<g><path style="opacity:0.996" fill="#0da76d" d="M 52.5,111.5 C 95.5,111.5 138.5,111.5 181.5,111.5C 182.833,111.5 184.167,111.5 185.5,111.5C 185.202,140.132 183.702,168.799 181,197.5C 180.283,198.044 179.783,198.711 179.5,199.5C 178.167,199.5 176.833,199.5 175.5,199.5C 136.5,199.5 97.5,199.5 58.5,199.5C 54.2411,199.898 52.4078,197.898 53,193.5C 51.3654,167.481 49.5321,141.481 47.5,115.5C 47.403,112.089 49.0696,110.755 52.5,111.5 Z"/></g>
<g><path style="opacity:1" fill="#02905d" d="M 185.5,111.5 C 190.833,111.5 196.167,111.5 201.5,111.5C 204.93,110.755 206.597,112.089 206.5,115.5C 204.512,141.818 202.679,168.151 201,194.5C 201.209,198.459 199.375,200.126 195.5,199.5C 190.167,199.5 184.833,199.5 179.5,199.5C 179.783,198.711 180.283,198.044 181,197.5C 183.702,168.799 185.202,140.132 185.5,111.5 Z"/></g>
<g><path style="opacity:1" fill="#97d4b8" d="M 121.5,130.5 C 146.202,131.361 155.368,143.695 149,167.5C 140.056,180.038 128.556,183.205 114.5,177C 102.63,168.382 99.4633,157.215 105,143.5C 108.939,137.048 114.439,132.714 121.5,130.5 Z"/></g>
<g><path style="opacity:0.996" fill="#ebebeb" d="M 58.5,199.5 C 97.5,199.5 136.5,199.5 175.5,199.5C 174.93,216.209 173.764,232.876 172,249.5C 170.564,252.442 168.397,254.442 165.5,255.5C 132.833,255.5 100.167,255.5 67.5,255.5C 64.7716,253.931 62.9383,251.598 62,248.5C 60.7224,232.169 59.5557,215.836 58.5,199.5 Z"/></g>
<g><path style="opacity:0.985" fill="#e2e2e2" d="M 175.5,199.5 C 176.833,199.5 178.167,199.5 179.5,199.5C 184.833,199.5 190.167,199.5 195.5,199.5C 194.64,216.911 193.14,234.245 191,251.5C 189.603,253.07 188.103,254.404 186.5,255.5C 179.5,255.5 172.5,255.5 165.5,255.5C 168.397,254.442 170.564,252.442 172,249.5C 173.764,232.876 174.93,216.209 175.5,199.5 Z"/></g>
</svg>
