<?xml version="1.0" encoding="UTF-8"?>
<!DOCTYPE svg PUBLIC "-//W3C//DTD SVG 1.1//EN" "http://www.w3.org/Graphics/SVG/1.1/DTD/svg11.dtd">
<svg xmlns="http://www.w3.org/2000/svg" version="1.1" width="512px" height="512px" style="shape-rendering:geometricPrecision; text-rendering:geometricPrecision; image-rendering:optimizeQuality; fill-rule:evenodd; clip-rule:evenodd" xmlns:xlink="http://www.w3.org/1999/xlink">
<g><path style="opacity:0.996" fill="#b57e5f" d="M 161.5,-0.5 C 168.167,-0.5 174.833,-0.5 181.5,-0.5C 182.005,12.1733 188.338,20.3399 200.5,24C 258.832,24.5 317.166,24.6667 375.5,24.5C 379.909,29.569 383.909,34.9023 387.5,40.5C 318.833,40.5 250.167,40.5 181.5,40.5C 181.713,48.7606 185.713,54.2606 193.5,57C 268.833,57.5 344.166,57.6667 419.5,57.5C 423.685,70.6691 418.685,76.3358 404.5,74.5C 305.167,73.1667 205.833,73.1667 106.5,74.5C 92.6468,76.4867 87.4801,70.8201 91,57.5C 97.3886,43.8812 108.222,37.8812 123.5,39.5C 131.667,29.1667 139.833,18.8333 148,8.5C 151.882,4.42933 156.382,1.42933 161.5,-0.5 Z"/></g>
<g><path style="opacity:0.997" fill="#c28b65" d="M 181.5,-0.5 C 237.5,-0.5 293.5,-0.5 349.5,-0.5C 352.408,0.95406 355.408,2.45406 358.5,4C 364.533,10.5875 370.199,17.4208 375.5,24.5C 317.166,24.6667 258.832,24.5 200.5,24C 188.338,20.3399 182.005,12.1733 181.5,-0.5 Z"/></g>
<g><path style="opacity:0.996" fill="#c28b65" d="M 387.5,40.5 C 398.127,38.4691 407.293,41.1358 415,48.5C 417.038,51.2432 418.538,54.2432 419.5,57.5C 344.166,57.6667 268.833,57.5 193.5,57C 185.713,54.2606 181.713,48.7606 181.5,40.5C 250.167,40.5 318.833,40.5 387.5,40.5 Z"/></g>
<g><path style="opacity:0.997" fill="#f5d08f" d="M 404.5,74.5 C 404.167,79.8333 403.833,85.1667 403.5,90.5C 326.789,90.0119 250.122,90.5119 173.5,92C 165.643,95.8505 160.81,102.017 159,110.5C 158.684,125.891 159.517,141.224 161.5,156.5C 144.991,156.83 128.658,156.496 112.5,155.5C 110.398,128.508 108.398,101.508 106.5,74.5C 205.833,73.1667 305.167,73.1667 404.5,74.5 Z"/></g>
<g><path style="opacity:0.999" fill="#fedf9e" d="M 403.5,90.5 C 401.783,112.16 400.116,133.827 398.5,155.5C 319.668,156.499 240.668,156.833 161.5,156.5C 159.517,141.224 158.684,125.891 159,110.5C 160.81,102.017 165.643,95.8505 173.5,92C 250.122,90.5119 326.789,90.0119 403.5,90.5 Z"/></g>
<g><path style="opacity:0.994" fill="#c38c66" d="M 112.5,155.5 C 128.658,156.496 144.991,156.83 161.5,156.5C 167.532,233.461 173.198,310.461 178.5,387.5C 162.325,387.17 146.325,387.504 130.5,388.5C 124.976,389.102 119.81,388.102 115,385.5C 112.96,380.053 111.96,374.386 112,368.5C 106.986,300.986 101.819,233.486 96.5,166C 96.4869,162.363 97.8202,159.363 100.5,157C 104.418,155.844 108.418,155.344 112.5,155.5 Z"/></g>
<g><path style="opacity:0.998" fill="#d0996d" d="M 398.5,155.5 C 404.001,154.779 408.834,156.112 413,159.5C 413.869,161.581 414.369,163.747 414.5,166C 408.898,237.49 403.398,308.99 398,380.5C 397.5,385 395,387.5 390.5,388C 387.183,388.498 383.85,388.665 380.5,388.5C 313.335,387.501 246.002,387.168 178.5,387.5C 173.198,310.461 167.532,233.461 161.5,156.5C 240.668,156.833 319.668,156.499 398.5,155.5 Z"/></g>
<g><path style="opacity:1" fill="#966a5b" d="M 262.5,206.5 C 259.531,220.439 253.364,232.772 244,243.5C 225.869,274.565 226.035,305.565 244.5,336.5C 220.32,329.817 205.487,314.15 200,289.5C 193.159,258.344 202.326,233.178 227.5,214C 238.274,207.478 249.941,204.978 262.5,206.5 Z"/></g>
<g><path style="opacity:1" fill="#785353" d="M 262.5,206.5 C 268.21,207.025 273.543,208.692 278.5,211.5C 274.428,227.978 266.928,242.645 256,255.5C 247.43,271.56 245.096,288.56 249,306.5C 252.429,316.693 257.429,326.026 264,334.5C 264.483,335.448 264.649,336.448 264.5,337.5C 257.745,337.793 251.078,337.46 244.5,336.5C 226.035,305.565 225.869,274.565 244,243.5C 253.364,232.772 259.531,220.439 262.5,206.5 Z"/></g>
<g><path style="opacity:1" fill="#966a5b" d="M 278.5,211.5 C 303.684,226.529 315.184,248.863 313,278.5C 310.748,300.188 300.915,317.355 283.5,330C 277.467,333.397 271.134,335.897 264.5,337.5C 264.649,336.448 264.483,335.448 264,334.5C 257.429,326.026 252.429,316.693 249,306.5C 245.096,288.56 247.43,271.56 256,255.5C 266.928,242.645 274.428,227.978 278.5,211.5 Z"/></g>
<g><path style="opacity:0.996" fill="#f5d090" d="M 178.5,387.5 C 246.002,387.168 313.335,387.501 380.5,388.5C 380.608,393.87 380.275,399.203 379.5,404.5C 319.499,404.333 259.499,404.5 199.5,405C 191.307,407.859 185.807,413.359 183,421.5C 182.333,429.833 182.333,438.167 183,446.5C 185.342,468.112 186.842,489.778 187.5,511.5C 174.833,511.5 162.167,511.5 149.5,511.5C 144.52,509.352 141.02,505.685 139,500.5C 135.58,463.211 132.747,425.877 130.5,388.5C 146.325,387.504 162.325,387.17 178.5,387.5 Z"/></g>
<g><path style="opacity:0.998" fill="#fedf9e" d="M 379.5,404.5 C 377.433,436.533 374.933,468.533 372,500.5C 369.643,505.355 366.143,509.021 361.5,511.5C 303.5,511.5 245.5,511.5 187.5,511.5C 186.842,489.778 185.342,468.112 183,446.5C 182.333,438.167 182.333,429.833 183,421.5C 185.807,413.359 191.307,407.859 199.5,405C 259.499,404.5 319.499,404.333 379.5,404.5 Z"/></g>
</svg>
