<svg xmlns="http://www.w3.org/2000/svg" viewBox="0 0 24 24" id="coke"><path fill="#F47920" d="M16 18c0-.872.18-1.504.386-2.237.288-1.016.614-2.168.614-4.263 0-2.127-.962-3.72-1.81-5.124-.567-.939-1.066-1.763-1.17-2.572a.658.658 0 0 0 .047-.044c.352-.354.42-1.02.429-1.76h.004a.5.5 0 1 0 0-1h-.233l.148-.223A.5.5 0 1 0 13.999 0h-4a.5.5 0 0 0-.416.777L9.732 1H9.5a.5.5 0 1 0 0 1h.004c.01.74.077 1.406.43 1.76.014.016.03.03.046.044-.104.81-.603 1.634-1.17 2.572C7.963 7.781 7 9.373 7 11.5c0 2.095.326 3.247.614 4.263C7.82 16.496 8 17.128 8 18c0 1.01-.231 1.378-.476 1.768C7.278 20.158 7 20.6 7 21.5v.5a2 2 0 0 0 2 2h6a2 2 0 0 0 2-2v-.5c0-.9-.278-1.342-.524-1.732C16.231 19.378 16 19.01 16 18z"></path><g fill="#FFF"><path d="M16 18c0-.872.18-1.504.386-2.237.288-1.016.614-2.168.614-4.263 0-2.127-.962-3.72-1.81-5.124-.567-.939-1.066-1.763-1.17-2.572a.658.658 0 0 0 .047-.044c.352-.354.42-1.02.429-1.76H9.504c.01.74.077 1.406.43 1.76.014.016.03.03.046.044-.104.81-.603 1.634-1.17 2.572C7.963 7.781 7 9.373 7 11.5c0 2.095.326 3.247.614 4.263C7.82 16.496 8 17.128 8 18c0 1.01-.231 1.378-.476 1.768C7.278 20.158 7 20.6 7 21.5v.5a2 2 0 0 0 2 2h6a2 2 0 0 0 2-2v-.5c0-.9-.278-1.342-.524-1.732C16.231 19.378 16 19.01 16 18zm0 4c0 .551-.449 1-1 1H9c-.551 0-1-.449-1-1v-.5c0-.61.155-.858.37-1.2.345-.55.63-1.1.63-2.3 0-1.008-.206-1.735-.423-2.505C8.292 14.49 8 13.455 8 11.5c0-1.848.847-3.25 1.666-4.606.183-.302.357-.599.522-.894h3.624c.165.294.337.588.519.888C15.153 8.25 16 9.652 16 11.5c0 1.956-.292 2.99-.576 3.99-.218.775-.424 1.502-.424 2.51 0 1.2.285 1.75.628 2.298.217.344.372.591.372 1.202v.5z" opacity=".8"></path><path d="M15 23c.551 0 1-.449 1-1v-.5c0-.61-.155-.858-.372-1.202C15.285 19.75 15 19.2 15 18c0-1.008.206-1.735.424-2.51.284-1 .576-2.034.576-3.99 0-1.848-.847-3.25-1.67-4.612-.18-.3-.353-.594-.518-.888h-3.624c-.165.295-.34.592-.522.894C8.846 8.25 8 9.652 8 11.5c0 1.956.292 2.99.577 3.995.217.77.423 1.497.423 2.505 0 1.2-.285 1.75-.63 2.3-.215.342-.37.59-.37 1.2v.5c0 .551.449 1 1 1h6z" opacity=".2"></path><path d="M14.5 2h-5a.5.5 0 1 1 0-1h5a.5.5 0 1 1 0 1z" opacity=".1"></path></g></svg>