<?xml version="1.0" encoding="UTF-8"?>
<!DOCTYPE svg PUBLIC "-//W3C//DTD SVG 1.1//EN" "http://www.w3.org/Graphics/SVG/1.1/DTD/svg11.dtd">
<svg xmlns="http://www.w3.org/2000/svg" version="1.1" width="512px" height="512px" style="shape-rendering:geometricPrecision; text-rendering:geometricPrecision; image-rendering:optimizeQuality; fill-rule:evenodd; clip-rule:evenodd" xmlns:xlink="http://www.w3.org/1999/xlink">
<g><path style="opacity:0.99" fill="#e94343" d="M 213.5,-0.5 C 238.833,-0.5 264.167,-0.5 289.5,-0.5C 289.666,9.17241 289.5,18.8391 289,28.5C 287.802,32.7459 285.302,35.9125 281.5,38C 255.49,39.1484 229.49,39.9817 203.5,40.5C 203.125,29.7779 203.625,19.1112 205,8.5C 206.688,4.31481 209.521,1.31481 213.5,-0.5 Z"/></g>
<g><path style="opacity:1" fill="#d93131" d="M 289.5,-0.5 C 292.5,-0.5 295.5,-0.5 298.5,-0.5C 302.905,1.41184 305.739,4.74518 307,9.5C 307.667,22.5 307.667,35.5 307,48.5C 304.329,55.667 299.162,59.0004 291.5,58.5C 283.167,58.5 274.833,58.5 266.5,58.5C 250.833,58.5 235.167,58.5 219.5,58.5C 208.289,57.947 202.956,51.947 203.5,40.5C 229.49,39.9817 255.49,39.1484 281.5,38C 285.302,35.9125 287.802,32.7459 289,28.5C 289.5,18.8391 289.666,9.17241 289.5,-0.5 Z"/></g>
<g><path style="opacity:0.996" fill="#945a43" d="M 219.5,58.5 C 235.167,58.5 250.833,58.5 266.5,58.5C 263.26,82.7183 268.093,105.052 281,125.5C 295,143.662 309.166,161.662 323.5,179.5C 304.5,179.5 285.5,179.5 266.5,179.5C 233.5,179.5 200.5,179.5 167.5,179.5C 167.5,179.167 167.5,178.833 167.5,178.5C 182.818,157.209 197.651,135.543 212,113.5C 218.885,95.8161 221.385,77.4827 219.5,58.5 Z"/></g>
<g><path style="opacity:1" fill="#87523e" d="M 266.5,58.5 C 274.833,58.5 283.167,58.5 291.5,58.5C 289.512,78.2746 292.346,97.2746 300,115.5C 314.664,136.989 329.497,158.323 344.5,179.5C 344.167,179.5 343.833,179.5 343.5,179.5C 339.167,179.5 334.833,179.5 330.5,179.5C 328.167,179.5 325.833,179.5 323.5,179.5C 309.166,161.662 295,143.662 281,125.5C 268.093,105.052 263.26,82.7183 266.5,58.5 Z"/></g>
<g><path style="opacity:0.208" fill="#c3493d" d="M 167.5,178.5 C 167.5,178.833 167.5,179.167 167.5,179.5C 167.5,201.833 167.5,224.167 167.5,246.5C 167.5,253.167 167.5,259.833 167.5,266.5C 172.167,266.5 176.833,266.5 181.5,266.5C 181.5,266.833 181.5,267.167 181.5,267.5C 176.5,267.5 171.5,267.5 166.5,267.5C 166.169,237.662 166.502,207.995 167.5,178.5 Z"/></g>
<g><path style="opacity:1" fill="#e94444" d="M 167.5,179.5 C 200.5,179.5 233.5,179.5 266.5,179.5C 257.753,198.66 246.253,215.994 232,231.5C 225.961,237.043 219.795,242.376 213.5,247.5C 198.342,246.504 183.009,246.17 167.5,246.5C 167.5,224.167 167.5,201.833 167.5,179.5 Z"/></g>
<g><path style="opacity:1" fill="#fdf0d9" d="M 266.5,179.5 C 285.5,179.5 304.5,179.5 323.5,179.5C 325.833,179.5 328.167,179.5 330.5,179.5C 329.38,187.861 327.046,195.861 323.5,203.5C 313.721,220.285 301.055,234.618 285.5,246.5C 276.346,253.579 266.68,259.913 256.5,265.5C 255.609,266.11 254.609,266.443 253.5,266.5C 229.994,266.831 206.661,266.498 183.5,265.5C 194.503,261.006 204.503,255.006 213.5,247.5C 219.795,242.376 225.961,237.043 232,231.5C 246.253,215.994 257.753,198.66 266.5,179.5 Z"/></g>
<g><path style="opacity:1" fill="#d93131" d="M 330.5,179.5 C 334.833,179.5 339.167,179.5 343.5,179.5C 343.5,208.5 343.5,237.5 343.5,266.5C 314.329,266.831 285.329,266.498 256.5,265.5C 266.68,259.913 276.346,253.579 285.5,246.5C 297.171,246.667 308.838,246.5 320.5,246C 321.333,245.167 322.167,244.333 323,243.5C 323.5,230.171 323.667,216.837 323.5,203.5C 327.046,195.861 329.38,187.861 330.5,179.5 Z"/></g>
<g><path style="opacity:1" fill="#ea4645" d="M 323.5,203.5 C 323.667,216.837 323.5,230.171 323,243.5C 322.167,244.333 321.333,245.167 320.5,246C 308.838,246.5 297.171,246.667 285.5,246.5C 301.055,234.618 313.721,220.285 323.5,203.5 Z"/></g>
<g><path style="opacity:1" fill="#d93231" d="M 167.5,246.5 C 183.009,246.17 198.342,246.504 213.5,247.5C 204.503,255.006 194.503,261.006 183.5,265.5C 182.833,265.833 182.167,266.167 181.5,266.5C 176.833,266.5 172.167,266.5 167.5,266.5C 167.5,259.833 167.5,253.167 167.5,246.5 Z"/></g>
<g><path style="opacity:1" fill="#e79d8e" d="M 183.5,265.5 C 206.661,266.498 229.994,266.831 253.5,266.5C 253.5,266.833 253.5,267.167 253.5,267.5C 229.5,267.5 205.5,267.5 181.5,267.5C 181.5,267.167 181.5,266.833 181.5,266.5C 182.167,266.167 182.833,265.833 183.5,265.5 Z"/></g>
<g><path style="opacity:1" fill="#cf3d39" d="M 343.5,179.5 C 343.833,179.5 344.167,179.5 344.5,179.5C 344.5,208.833 344.5,238.167 344.5,267.5C 337.167,267.5 329.833,267.5 322.5,267.5C 299.5,267.5 276.5,267.5 253.5,267.5C 253.5,267.167 253.5,266.833 253.5,266.5C 254.609,266.443 255.609,266.11 256.5,265.5C 285.329,266.498 314.329,266.831 343.5,266.5C 343.5,237.5 343.5,208.5 343.5,179.5 Z"/></g>
<g><path style="opacity:0.998" fill="#935a43" d="M 166.5,267.5 C 171.5,267.5 176.5,267.5 181.5,267.5C 205.5,267.5 229.5,267.5 253.5,267.5C 276.5,267.5 299.5,267.5 322.5,267.5C 317.686,279.802 312.853,292.135 308,304.5C 303.368,321.158 303.368,337.825 308,354.5C 312.782,367.397 318.115,380.064 324,392.5C 332.009,412.549 334.343,433.215 331,454.5C 328.891,466.864 323.391,477.364 314.5,486C 312.112,487.861 309.446,489.194 306.5,490C 258.168,490.5 209.834,490.667 161.5,490.5C 157.427,479.985 154.927,468.985 154,457.5C 151.336,435.156 154.003,413.49 162,392.5C 167.333,379.833 172.667,367.167 178,354.5C 182.181,339.247 182.514,323.914 179,308.5C 174.982,294.752 170.815,281.086 166.5,267.5 Z"/></g>
<g><path style="opacity:1" fill="#87523e" d="M 322.5,267.5 C 329.833,267.5 337.167,267.5 344.5,267.5C 338.546,285.195 333.713,303.195 330,321.5C 329.046,334.825 330.713,347.825 335,360.5C 345.716,380.315 353.05,401.315 357,423.5C 359.211,445.537 357.211,467.203 351,488.5C 348.224,499.089 342.057,506.755 332.5,511.5C 281.5,511.5 230.5,511.5 179.5,511.5C 169.961,507.621 163.961,500.621 161.5,490.5C 209.834,490.667 258.168,490.5 306.5,490C 309.446,489.194 312.112,487.861 314.5,486C 323.391,477.364 328.891,466.864 331,454.5C 334.343,433.215 332.009,412.549 324,392.5C 318.115,380.064 312.782,367.397 308,354.5C 303.368,337.825 303.368,321.158 308,304.5C 312.853,292.135 317.686,279.802 322.5,267.5 Z"/></g>
</svg>
