<?xml version="1.0" encoding="UTF-8"?>
<!DOCTYPE svg PUBLIC "-//W3C//DTD SVG 1.1//EN" "http://www.w3.org/Graphics/SVG/1.1/DTD/svg11.dtd">
<svg xmlns="http://www.w3.org/2000/svg" version="1.1" width="512px" height="512px" style="shape-rendering:geometricPrecision; text-rendering:geometricPrecision; image-rendering:optimizeQuality; fill-rule:evenodd; clip-rule:evenodd" xmlns:xlink="http://www.w3.org/1999/xlink">
<g><path style="opacity:0.99" fill="#f8f6f7" d="M 227.5,-0.5 C 237.5,-0.5 247.5,-0.5 257.5,-0.5C 263.728,1.90128 267.728,6.40128 269.5,13C 268.555,19.7877 268.222,26.621 268.5,33.5C 251.5,33.5 234.5,33.5 217.5,33.5C 217.334,25.8261 217.5,18.1594 218,10.5C 219.599,5.40601 222.766,1.73934 227.5,-0.5 Z"/></g>
<g><path style="opacity:0.989" fill="#eeecee" d="M 257.5,-0.5 C 266.167,-0.5 274.833,-0.5 283.5,-0.5C 288.234,1.73934 291.401,5.40601 293,10.5C 293.5,18.1594 293.666,25.8261 293.5,33.5C 299.842,33.3338 306.175,33.5005 312.5,34C 317.224,36.4353 318.724,40.2686 317,45.5C 315.833,46.6667 314.667,47.8333 313.5,49C 309.514,49.4988 305.514,49.6655 301.5,49.5C 293.167,49.5 284.833,49.5 276.5,49.5C 254.167,49.5 231.833,49.5 209.5,49.5C 205.486,49.6655 201.486,49.4988 197.5,49C 193.723,46.0453 192.557,42.212 194,37.5C 195.214,35.9512 196.714,34.7845 198.5,34C 204.825,33.5005 211.158,33.3338 217.5,33.5C 234.5,33.5 251.5,33.5 268.5,33.5C 268.222,26.621 268.555,19.7877 269.5,13C 267.728,6.40128 263.728,1.90128 257.5,-0.5 Z"/></g>
<g><path style="opacity:0.996" fill="#668c97" d="M 209.5,49.5 C 231.833,49.5 254.167,49.5 276.5,49.5C 295.272,69.2749 310.939,91.2749 323.5,115.5C 313.5,115.5 303.5,115.5 293.5,115.5C 279.5,115.5 265.5,115.5 251.5,115.5C 222.167,115.5 192.833,115.5 163.5,115.5C 175.374,91.0839 190.707,69.0839 209.5,49.5 Z"/></g>
<g><path style="opacity:1" fill="#537983" d="M 276.5,49.5 C 284.833,49.5 293.167,49.5 301.5,49.5C 320.293,69.0839 335.626,91.0839 347.5,115.5C 339.5,115.5 331.5,115.5 323.5,115.5C 310.939,91.2749 295.272,69.2749 276.5,49.5 Z"/></g>
<g><path style="opacity:0.997" fill="#8ac8fd" d="M 163.5,115.5 C 192.833,115.5 222.167,115.5 251.5,115.5C 250.634,126.428 248.467,137.095 245,147.5C 239.943,160.614 234.61,173.614 229,186.5C 218.689,214.959 215.022,244.293 218,274.5C 218.99,294.128 222.99,313.128 230,331.5C 235.61,344.386 240.943,357.386 246,370.5C 248.804,380.325 250.638,390.325 251.5,400.5C 216.167,400.5 180.833,400.5 145.5,400.5C 142.23,349.489 138.73,298.489 135,247.5C 132.959,200.863 142.459,156.863 163.5,115.5 Z"/></g>
<g><path style="opacity:1" fill="#f8f6f7" d="M 251.5,115.5 C 265.5,115.5 279.5,115.5 293.5,115.5C 291.26,144.393 283.427,171.726 270,197.5C 259.589,224.99 256.589,253.323 261,282.5C 262,288.5 263,294.5 264,300.5C 271.66,320.49 279.327,340.49 287,360.5C 290.888,373.551 293.055,386.884 293.5,400.5C 279.5,400.5 265.5,400.5 251.5,400.5C 250.638,390.325 248.804,380.325 246,370.5C 240.943,357.386 235.61,344.386 230,331.5C 222.99,313.128 218.99,294.128 218,274.5C 215.022,244.293 218.689,214.959 229,186.5C 234.61,173.614 239.943,160.614 245,147.5C 248.467,137.095 250.634,126.428 251.5,115.5 Z"/></g>
<g><path style="opacity:1" fill="#8ac8fd" d="M 293.5,115.5 C 303.5,115.5 313.5,115.5 323.5,115.5C 331.5,115.5 339.5,115.5 347.5,115.5C 339.99,116.167 332.323,116.833 324.5,117.5C 348.501,166.531 357.001,218.198 350,272.5C 346.971,315.237 343.805,357.904 340.5,400.5C 324.833,400.5 309.167,400.5 293.5,400.5C 293.055,386.884 290.888,373.551 287,360.5C 279.327,340.49 271.66,320.49 264,300.5C 263,294.5 262,288.5 261,282.5C 256.589,253.323 259.589,224.99 270,197.5C 283.427,171.726 291.26,144.393 293.5,115.5 Z"/></g>
<g><path style="opacity:1" fill="#60b7fe" d="M 347.5,115.5 C 368.411,156.545 377.911,200.211 376,246.5C 372.321,297.826 368.821,349.16 365.5,400.5C 357.167,400.5 348.833,400.5 340.5,400.5C 343.805,357.904 346.971,315.237 350,272.5C 357.001,218.198 348.501,166.531 324.5,117.5C 332.323,116.833 339.99,116.167 347.5,115.5 Z"/></g>
<g><path style="opacity:1" fill="#f4f5f8" d="M 175.5,247.5 C 181.176,247.334 186.843,247.501 192.5,248C 200.393,252.91 200.393,257.91 192.5,263C 186.833,263.667 181.167,263.667 175.5,263C 167.581,257.84 167.581,252.673 175.5,247.5 Z"/></g>
<g><path style="opacity:1" fill="#f4f5f8" d="M 318.5,247.5 C 324.176,247.334 329.843,247.501 335.5,248C 343.5,253 343.5,258 335.5,263C 329.833,263.667 324.167,263.667 318.5,263C 310.542,257.749 310.542,252.582 318.5,247.5 Z"/></g>
<g><path style="opacity:0.996" fill="#668d98" d="M 145.5,400.5 C 180.833,400.5 216.167,400.5 251.5,400.5C 265.5,400.5 279.5,400.5 293.5,400.5C 309.167,400.5 324.833,400.5 340.5,400.5C 339.557,408.481 339.39,416.481 340,424.5C 346.318,436.469 352.652,448.469 359,460.5C 360.231,467.85 359.231,474.85 356,481.5C 351.747,488.337 347.747,495.337 344,502.5C 339.726,507.215 334.559,510.215 328.5,511.5C 314.833,511.5 301.167,511.5 287.5,511.5C 284.1,509.963 280.767,508.13 277.5,506C 268.39,493.187 256.723,490.187 242.5,497C 238.956,500.054 235.623,503.387 232.5,507C 229.408,508.546 226.408,510.046 223.5,511.5C 200.833,511.5 178.167,511.5 155.5,511.5C 149.035,508.882 143.869,504.548 140,498.5C 136.333,491.833 132.667,485.167 129,478.5C 125.774,471.487 125.774,464.487 129,457.5C 134.681,446.802 140.348,436.135 146,425.5C 147.26,417.142 147.094,408.808 145.5,400.5 Z"/></g>
<g><path style="opacity:1" fill="#537983" d="M 340.5,400.5 C 348.833,400.5 357.167,400.5 365.5,400.5C 363.906,408.808 363.74,417.142 365,425.5C 370.985,436.802 376.985,448.135 383,459.5C 384.986,465.933 384.652,472.267 382,478.5C 378.333,485.167 374.667,491.833 371,498.5C 367.131,504.548 361.965,508.882 355.5,511.5C 346.5,511.5 337.5,511.5 328.5,511.5C 334.559,510.215 339.726,507.215 344,502.5C 347.747,495.337 351.747,488.337 356,481.5C 359.231,474.85 360.231,467.85 359,460.5C 352.652,448.469 346.318,436.469 340,424.5C 339.39,416.481 339.557,408.481 340.5,400.5 Z"/></g>
</svg>
