<svg xmlns="http://www.w3.org/2000/svg" width="64" height="64" viewBox="0 0 64 64" id="coffee-bean"><path fill="#833d3d" d="M43.07633,29.22177q.045.465.06.96a28.33168,28.33168,0,0,0-7.48,5.4c-.31.31-.61.63-.9.94a27.317,27.317,0,0,0-6.42-9.84,29.76149,29.76149,0,0,0-3.22-2.79c-.07-.79-.1-1.59-.1-2.4,0-11.3,6.24-20.45,13.95-20.45a18.84314,18.84314,0,0,0-2.93,11.49C36.80633,19.72177,42.34633,22.33177,43.07633,29.22177Z"></path><path fill="#914747" d="M52.91633,21.49177a28.64756,28.64756,0,0,1-.72,6.45,19.966,19.966,0,0,0-9.06,2.24q-.015-.495-.06-.96c-.73-6.89-6.27-9.5-7.04-16.69a18.84314,18.84314,0,0,1,2.93-11.49C46.67633,1.04177,52.91633,10.19177,52.91633,21.49177Z"></path><path fill="#a05454" d="M59.98633,30.99177c5.45,5.45,3.39,16.34-4.59,24.32-7.99,7.99-18.88,10.05-24.33,4.6,6.64-1.13,10.03-3.78,11.9-6.09,4.35-5.38,2.28-11.15,6.82-16.78A18.78623,18.78623,0,0,1,59.98633,30.99177Z"></path><path fill="#914747" d="M34.75633,36.52177a30.10562,30.10562,0,0,0-2.4,2.98,26.66453,26.66453,0,0,0-2.12,3.6,14.40585,14.40585,0,0,0-3.39-3.99c-5.38-4.36-11.16-2.29-16.78-6.83a18.73631,18.73631,0,0,1-6.05-10.19c4.75-4.75,13.62-3.8,21.1,1.8a29.76149,29.76149,0,0,1,3.22,2.79A27.317,27.317,0,0,1,34.75633,36.52177Z"></path><path fill="#ae6d6d" d="M52.19633,27.94177a11.06063,11.06063,0,0,1,7.79,3.05,18.78623,18.78623,0,0,0-10.2,6.05c-4.54,5.63-2.47,11.4-6.82,16.78-1.87,2.31-5.26,4.96-11.9,6.09a10.61094,10.61094,0,0,1-2.94-6.25,18.92455,18.92455,0,0,1,2.11-10.56,26.66453,26.66453,0,0,1,2.12-3.6,30.10562,30.10562,0,0,1,2.4-2.98c.29-.31.59-.63.9-.94a28.33168,28.33168,0,0,1,7.48-5.4A19.966,19.966,0,0,1,52.19633,27.94177Z"></path><path fill="#a05454" d="M30.23633,43.10177a18.92455,18.92455,0,0,0-2.11,10.56c-5.75,1.45-13.47-1.2-19.52-7.25-7.99-7.98-10.04-18.87-4.59-24.32a18.73631,18.73631,0,0,0,6.05,10.19c5.62,4.54,11.4,2.47,16.78,6.83A14.40585,14.40585,0,0,1,30.23633,43.10177Z"></path></svg>