<?xml version="1.0" encoding="UTF-8"?>
<!DOCTYPE svg PUBLIC "-//W3C//DTD SVG 1.1//EN" "http://www.w3.org/Graphics/SVG/1.1/DTD/svg11.dtd">
<svg xmlns="http://www.w3.org/2000/svg" version="1.1" width="512px" height="512px" style="shape-rendering:geometricPrecision; text-rendering:geometricPrecision; image-rendering:optimizeQuality; fill-rule:evenodd; clip-rule:evenodd" xmlns:xlink="http://www.w3.org/1999/xlink">
<g><path style="opacity:1" fill="#373c42" d="M 121.5,-0.5 C 132.167,-0.5 142.833,-0.5 153.5,-0.5C 142.709,5.08972 139.876,13.4231 145,24.5C 147.441,27.4536 150.275,29.7869 153.5,31.5C 144.5,31.5 135.5,31.5 126.5,31.5C 113.98,29.498 109.146,22.1647 112,9.5C 114.022,4.98004 117.189,1.6467 121.5,-0.5 Z"/></g>
<g><path style="opacity:0.999" fill="#4f5458" d="M 153.5,-0.5 C 232.167,-0.5 310.833,-0.5 389.5,-0.5C 398.347,4.20824 401.514,11.5416 399,21.5C 396.186,28.4898 391.019,31.8231 383.5,31.5C 308.5,31.5 233.5,31.5 158.5,31.5C 156.833,31.5 155.167,31.5 153.5,31.5C 150.275,29.7869 147.441,27.4536 145,24.5C 139.876,13.4231 142.709,5.08972 153.5,-0.5 Z"/></g>
<g><path style="opacity:1" fill="#d8ecfe" d="M 126.5,31.5 C 135.5,31.5 144.5,31.5 153.5,31.5C 155.167,31.5 156.833,31.5 158.5,31.5C 159.621,47.4489 156.455,62.4489 149,76.5C 142.493,84.8466 138.159,94.18 136,104.5C 135.5,119.496 135.333,134.496 135.5,149.5C 125.151,147.608 114.818,145.608 104.5,143.5C 104.333,130.163 104.5,116.829 105,103.5C 105.871,99.016 107.204,94.6827 109,90.5C 114.524,81.4531 119.524,72.1197 124,62.5C 126.222,52.2975 127.055,41.9641 126.5,31.5 Z"/></g>
<g><path style="opacity:0.999" fill="#e9f5fe" d="M 158.5,31.5 C 233.5,31.5 308.5,31.5 383.5,31.5C 382.286,47.1507 385.453,61.8174 393,75.5C 399.766,84.0346 404.099,93.7012 406,104.5C 406.5,138.832 406.667,173.165 406.5,207.5C 377.206,201.221 347.873,195.221 318.5,189.5C 304.89,173.261 287.557,163.261 266.5,159.5C 249.666,157.238 233.666,159.905 218.5,167.5C 190.8,161.925 163.134,156.258 135.5,150.5C 135.5,150.167 135.5,149.833 135.5,149.5C 135.333,134.496 135.5,119.496 136,104.5C 138.159,94.18 142.493,84.8466 149,76.5C 156.455,62.4489 159.621,47.4489 158.5,31.5 Z"/></g>
<g><path style="opacity:1" fill="#b3dafd" d="M 104.5,143.5 C 114.818,145.608 125.151,147.608 135.5,149.5C 135.5,149.833 135.5,150.167 135.5,150.5C 136.161,193.18 135.495,235.513 133.5,277.5C 123.859,275.705 114.192,274.039 104.5,272.5C 104.5,229.5 104.5,186.5 104.5,143.5 Z"/></g>
<g><path style="opacity:1" fill="#c4e1fe" d="M 135.5,150.5 C 163.134,156.258 190.8,161.925 218.5,167.5C 178.251,193.079 166.418,228.412 183,273.5C 186.01,279.53 189.51,285.196 193.5,290.5C 174.31,285.911 154.977,281.911 135.5,278.5C 134.508,278.672 133.842,278.338 133.5,277.5C 135.495,235.513 136.161,193.18 135.5,150.5 Z"/></g>
<g><path style="opacity:1" fill="#e32b29" d="M 266.5,159.5 C 266.586,160.496 266.252,161.329 265.5,162C 228.949,173.921 209.282,199.088 206.5,237.5C 207.809,273.963 225.143,299.463 258.5,314C 262.254,315.309 265.921,316.475 269.5,317.5C 239.372,322.107 214.038,313.107 193.5,290.5C 189.51,285.196 186.01,279.53 183,273.5C 166.418,228.412 178.251,193.079 218.5,167.5C 233.666,159.905 249.666,157.238 266.5,159.5 Z"/></g>
<g><path style="opacity:1" fill="#e9433f" d="M 266.5,159.5 C 287.557,163.261 304.89,173.261 318.5,189.5C 341.489,223.433 340.989,257.099 317,290.5C 309.13,298.887 300.297,305.887 290.5,311.5C 283.61,313.908 276.61,315.908 269.5,317.5C 265.921,316.475 262.254,315.309 258.5,314C 225.143,299.463 207.809,273.963 206.5,237.5C 209.282,199.088 228.949,173.921 265.5,162C 266.252,161.329 266.586,160.496 266.5,159.5 Z"/></g>
<g><path style="opacity:1" fill="#c4e1fe" d="M 318.5,189.5 C 347.873,195.221 377.206,201.221 406.5,207.5C 406.5,250.167 406.5,292.833 406.5,335.5C 367.831,327.499 329.164,319.499 290.5,311.5C 300.297,305.887 309.13,298.887 317,290.5C 340.989,257.099 341.489,223.433 318.5,189.5 Z"/></g>
<g><path style="opacity:1" fill="#d8ecfe" d="M 104.5,272.5 C 114.192,274.039 123.859,275.705 133.5,277.5C 133.842,278.338 134.508,278.672 135.5,278.5C 135.168,312.671 135.502,346.671 136.5,380.5C 135.167,382.5 135.167,384.5 136.5,386.5C 135.167,395.167 135.167,403.833 136.5,412.5C 135.167,414.5 135.167,416.5 136.5,418.5C 135.339,432.661 135.173,446.994 136,461.5C 138.891,471.001 145.058,477.001 154.5,479.5C 154.167,479.5 153.833,479.5 153.5,479.5C 142.833,479.5 132.167,479.5 121.5,479.5C 113.464,476.298 107.964,470.631 105,462.5C 104.5,399.168 104.333,335.834 104.5,272.5 Z"/></g>
<g><path style="opacity:1" fill="#e9f5fe" d="M 135.5,278.5 C 154.977,281.911 174.31,285.911 193.5,290.5C 214.038,313.107 239.372,322.107 269.5,317.5C 276.61,315.908 283.61,313.908 290.5,311.5C 329.164,319.499 367.831,327.499 406.5,335.5C 406.667,377.835 406.5,420.168 406,462.5C 403.036,470.631 397.536,476.298 389.5,479.5C 311.167,479.5 232.833,479.5 154.5,479.5C 145.058,477.001 138.891,471.001 136,461.5C 135.173,446.994 135.339,432.661 136.5,418.5C 137.347,420.844 139.014,422.344 141.5,423C 169.5,423.667 197.5,423.667 225.5,423C 230.224,420.565 231.724,416.731 230,411.5C 228.786,409.951 227.286,408.785 225.5,408C 197.5,407.333 169.5,407.333 141.5,408C 139.014,408.656 137.347,410.156 136.5,412.5C 135.167,403.833 135.167,395.167 136.5,386.5C 137.347,388.844 139.014,390.344 141.5,391C 169.5,391.667 197.5,391.667 225.5,391C 230.224,388.565 231.724,384.731 230,379.5C 228.786,377.951 227.286,376.785 225.5,376C 197.5,375.333 169.5,375.333 141.5,376C 139.014,376.656 137.347,378.156 136.5,380.5C 135.502,346.671 135.168,312.671 135.5,278.5 Z"/></g>
<g><path style="opacity:1" fill="#c5e2ff" d="M 136.5,386.5 C 135.167,384.5 135.167,382.5 136.5,380.5C 137.347,378.156 139.014,376.656 141.5,376C 169.5,375.333 197.5,375.333 225.5,376C 227.286,376.785 228.786,377.951 230,379.5C 231.724,384.731 230.224,388.565 225.5,391C 197.5,391.667 169.5,391.667 141.5,391C 139.014,390.344 137.347,388.844 136.5,386.5 Z"/></g>
<g><path style="opacity:1" fill="#c5e2ff" d="M 136.5,418.5 C 135.167,416.5 135.167,414.5 136.5,412.5C 137.347,410.156 139.014,408.656 141.5,408C 169.5,407.333 197.5,407.333 225.5,408C 227.286,408.785 228.786,409.951 230,411.5C 231.724,416.731 230.224,420.565 225.5,423C 197.5,423.667 169.5,423.667 141.5,423C 139.014,422.344 137.347,420.844 136.5,418.5 Z"/></g>
<g><path style="opacity:1" fill="#373c42" d="M 121.5,479.5 C 132.167,479.5 142.833,479.5 153.5,479.5C 142.709,485.09 139.876,493.423 145,504.5C 147.441,507.454 150.275,509.787 153.5,511.5C 142.833,511.5 132.167,511.5 121.5,511.5C 111.177,505.293 108.677,496.626 114,485.5C 116.114,482.879 118.614,480.879 121.5,479.5 Z"/></g>
<g><path style="opacity:0.999" fill="#4f5458" d="M 153.5,479.5 C 153.833,479.5 154.167,479.5 154.5,479.5C 232.833,479.5 311.167,479.5 389.5,479.5C 399.823,485.707 402.323,494.374 397,505.5C 394.886,508.121 392.386,510.121 389.5,511.5C 310.833,511.5 232.167,511.5 153.5,511.5C 150.275,509.787 147.441,507.454 145,504.5C 139.876,493.423 142.709,485.09 153.5,479.5 Z"/></g>
</svg>
