<?xml version="1.0" encoding="UTF-8"?>
<!DOCTYPE svg PUBLIC "-//W3C//DTD SVG 1.1//EN" "http://www.w3.org/Graphics/SVG/1.1/DTD/svg11.dtd">
<svg xmlns="http://www.w3.org/2000/svg" version="1.1" width="512px" height="512px" style="shape-rendering:geometricPrecision; text-rendering:geometricPrecision; image-rendering:optimizeQuality; fill-rule:evenodd; clip-rule:evenodd" xmlns:xlink="http://www.w3.org/1999/xlink">
<g><path style="opacity:0.968" fill="#6253b1" d="M 151.5,-0.5 C 154.167,-0.5 156.833,-0.5 159.5,-0.5C 189.246,10.9707 218.912,22.6374 248.5,34.5C 233.167,34.5 217.833,34.5 202.5,34.5C 185.385,27.4001 168.052,20.5668 150.5,14C 146.285,8.71951 146.618,3.88618 151.5,-0.5 Z"/></g>
<g><path style="opacity:0.992" fill="#fde077" d="M 202.5,34.5 C 217.833,34.5 233.167,34.5 248.5,34.5C 284.833,34.5 321.167,34.5 357.5,34.5C 372.052,39.6091 376.218,49.2758 370,63.5C 367.635,66.8691 364.468,69.0357 360.5,70C 367.346,70.1717 374.013,70.6717 380.5,71.5C 371.833,71.5 363.167,71.5 354.5,71.5C 277.167,71.5 199.833,71.5 122.5,71.5C 108.445,67.5817 103.612,58.5817 108,44.5C 110.167,41 113,38.1667 116.5,36C 145.103,34.5246 173.77,34.0246 202.5,34.5 Z"/></g>
<g><path style="opacity:0.98" fill="#fec344" d="M 357.5,34.5 C 368.838,34.3335 380.172,34.5001 391.5,35C 403.451,40.1599 407.285,48.9932 403,61.5C 399.791,67.188 394.957,70.5213 388.5,71.5C 385.833,71.5 383.167,71.5 380.5,71.5C 374.013,70.6717 367.346,70.1717 360.5,70C 364.468,69.0357 367.635,66.8691 370,63.5C 376.218,49.2758 372.052,39.6091 357.5,34.5 Z"/></g>
<g><path style="opacity:0.999" fill="#85e8d0" d="M 122.5,71.5 C 199.833,71.5 277.167,71.5 354.5,71.5C 362.639,74.1319 368.472,79.4652 372,87.5C 372.5,95.8267 372.666,104.16 372.5,112.5C 283.833,112.5 195.167,112.5 106.5,112.5C 106.086,103.418 106.586,94.4178 108,85.5C 111.433,79.2309 116.266,74.5642 122.5,71.5 Z"/></g>
<g><path style="opacity:0.987" fill="#11d2b3" d="M 354.5,71.5 C 363.167,71.5 371.833,71.5 380.5,71.5C 383.167,71.5 385.833,71.5 388.5,71.5C 394.734,74.5642 399.567,79.2309 403,85.5C 404.414,94.4178 404.914,103.418 404.5,112.5C 394.167,112.5 383.833,112.5 373.5,112.5C 373.167,112.5 372.833,112.5 372.5,112.5C 372.666,104.16 372.5,95.8267 372,87.5C 368.472,79.4652 362.639,74.1319 354.5,71.5 Z"/></g>
<g><path style="opacity:0.999" fill="#6354b0" d="M 106.5,112.5 C 195.167,112.5 283.833,112.5 372.5,112.5C 372.833,112.5 373.167,112.5 373.5,112.5C 373.5,219.5 373.5,326.5 373.5,433.5C 373.167,433.5 372.833,433.5 372.5,433.5C 283.833,433.5 195.167,433.5 106.5,433.5C 106.5,326.5 106.5,219.5 106.5,112.5 Z"/></g>
<g><path style="opacity:0.992" fill="#453b84" d="M 373.5,112.5 C 383.833,112.5 394.167,112.5 404.5,112.5C 404.5,219.5 404.5,326.5 404.5,433.5C 394.167,433.5 383.833,433.5 373.5,433.5C 373.5,326.5 373.5,219.5 373.5,112.5 Z"/></g>
<g><path style="opacity:1" fill="#fee077" d="M 255.5,158.5 C 259.929,160.45 261.429,163.783 260,168.5C 253.363,190.048 247.197,211.715 241.5,233.5C 243.666,245.103 250.666,249.436 262.5,246.5C 268.5,246.5 274.5,246.5 280.5,246.5C 285.107,248.772 286.607,252.438 285,257.5C 270.314,286.877 255.147,315.877 239.5,344.5C 241.172,326.461 243.172,308.461 245.5,290.5C 231.829,290.667 218.163,290.5 204.5,290C 201.183,288.196 199.85,285.363 200.5,281.5C 206.351,241.73 212.851,202.063 220,162.5C 221.167,161.333 222.333,160.167 223.5,159C 234.161,158.5 244.828,158.333 255.5,158.5 Z"/></g>
<g><path style="opacity:1" fill="#fec244" d="M 255.5,158.5 C 263.84,158.334 272.173,158.5 280.5,159C 283.759,160.25 285.425,162.583 285.5,166C 277.909,192.864 270.243,219.698 262.5,246.5C 250.666,249.436 243.666,245.103 241.5,233.5C 247.197,211.715 253.363,190.048 260,168.5C 261.429,163.783 259.929,160.45 255.5,158.5 Z"/></g>
<g><path style="opacity:1" fill="#fdc245" d="M 280.5,246.5 C 288.84,246.334 297.173,246.5 305.5,247C 310.143,249.072 311.643,252.572 310,257.5C 288.333,299.833 266.667,342.167 245,384.5C 242.162,388.035 238.995,388.368 235.5,385.5C 235.781,371.808 237.114,358.142 239.5,344.5C 255.147,315.877 270.314,286.877 285,257.5C 286.607,252.438 285.107,248.772 280.5,246.5 Z"/></g>
<g><path style="opacity:0.999" fill="#87e7cf" d="M 106.5,433.5 C 195.167,433.5 283.833,433.5 372.5,433.5C 372.914,442.582 372.414,451.582 371,460.5C 368.192,467.661 363.026,472.161 355.5,474C 365.494,474.5 375.494,474.666 385.5,474.5C 377.016,475.493 368.349,475.826 359.5,475.5C 280.144,475.822 200.811,475.489 121.5,474.5C 115.187,471.686 110.687,467.019 108,460.5C 106.586,451.582 106.086,442.582 106.5,433.5 Z"/></g>
<g><path style="opacity:0.987" fill="#11d2b3" d="M 372.5,433.5 C 372.833,433.5 373.167,433.5 373.5,433.5C 383.833,433.5 394.167,433.5 404.5,433.5C 404.914,442.582 404.414,451.582 403,460.5C 400.313,467.019 395.813,471.686 389.5,474.5C 388.167,474.5 386.833,474.5 385.5,474.5C 375.494,474.666 365.494,474.5 355.5,474C 363.026,472.161 368.192,467.661 371,460.5C 372.414,451.582 372.914,442.582 372.5,433.5 Z"/></g>
<g><path style="opacity:0.998" fill="#ffe076" d="M 121.5,474.5 C 200.811,475.489 280.144,475.822 359.5,475.5C 372.706,480.946 376.206,490.279 370,503.5C 367.145,507.211 363.645,509.877 359.5,511.5C 279.167,511.5 198.833,511.5 118.5,511.5C 106.077,504.384 103.244,494.384 110,481.5C 113.263,478.037 117.097,475.704 121.5,474.5 Z"/></g>
<g><path style="opacity:0.987" fill="#ffc344" d="M 385.5,474.5 C 386.833,474.5 388.167,474.5 389.5,474.5C 403.437,479.725 407.604,489.391 402,503.5C 399.228,506.783 396.061,509.45 392.5,511.5C 381.5,511.5 370.5,511.5 359.5,511.5C 363.645,509.877 367.145,507.211 370,503.5C 376.206,490.279 372.706,480.946 359.5,475.5C 368.349,475.826 377.016,475.493 385.5,474.5 Z"/></g>
</svg>
