<?xml version="1.0" encoding="UTF-8"?>
<!DOCTYPE svg PUBLIC "-//W3C//DTD SVG 1.1//EN" "http://www.w3.org/Graphics/SVG/1.1/DTD/svg11.dtd">
<svg xmlns="http://www.w3.org/2000/svg" version="1.1" width="512px" height="512px" style="shape-rendering:geometricPrecision; text-rendering:geometricPrecision; image-rendering:optimizeQuality; fill-rule:evenodd; clip-rule:evenodd" xmlns:xlink="http://www.w3.org/1999/xlink">
<g><path style="opacity:0.994" fill="#494155" d="M 124.5,-0.5 C 143.5,-0.5 162.5,-0.5 181.5,-0.5C 183.955,1.13988 185.455,3.47322 186,6.5C 186.667,15.8333 186.667,25.1667 186,34.5C 184.139,39.8624 180.305,42.1958 174.5,41.5C 160.5,40.1667 146.5,40.1667 132.5,41.5C 127.713,41.8544 123.879,40.1877 121,36.5C 120.333,25.8333 120.333,15.1667 121,4.5C 121.997,2.67694 123.164,1.01027 124.5,-0.5 Z"/></g>
<g><path style="opacity:1" fill="#d7e0dc" d="M 174.5,41.5 C 177.788,59.0665 184.122,75.3999 193.5,90.5C 166.5,90.5 139.5,90.5 112.5,90.5C 122.2,75.4287 128.867,59.0954 132.5,41.5C 146.5,40.1667 160.5,40.1667 174.5,41.5 Z"/></g>
<g><path style="opacity:1" fill="#864947" d="M 112.5,91.5 C 112.5,91.1667 112.5,90.8333 112.5,90.5C 139.5,90.5 166.5,90.5 193.5,90.5C 194.338,90.8417 194.672,91.5084 194.5,92.5C 175.243,91.513 155.909,91.1797 136.5,91.5C 128.5,91.5 120.5,91.5 112.5,91.5 Z"/></g>
<g><path style="opacity:1" fill="#782524" d="M 112.5,91.5 C 120.5,91.5 128.5,91.5 136.5,91.5C 149.828,114.15 162.662,137.15 175,160.5C 178.504,169.189 180.671,178.189 181.5,187.5C 200.833,187.5 220.167,187.5 239.5,187.5C 239.5,187.833 239.5,188.167 239.5,188.5C 220.5,188.5 201.5,188.5 182.5,188.5C 143.833,188.5 105.167,188.5 66.5,188.5C 68.0019,173.659 72.6686,159.992 80.5,147.5C 81.9063,147.027 82.573,146.027 82.5,144.5C 89.7741,130.573 97.4408,116.906 105.5,103.5C 106.906,103.027 107.573,102.027 107.5,100.5C 108.41,97.0078 110.076,94.0078 112.5,91.5 Z"/></g>
<g><path style="opacity:1" fill="#681918" d="M 136.5,91.5 C 155.909,91.1797 175.243,91.513 194.5,92.5C 208.065,114.617 220.899,137.284 233,160.5C 236.583,169.164 238.749,178.164 239.5,187.5C 220.167,187.5 200.833,187.5 181.5,187.5C 180.671,178.189 178.504,169.189 175,160.5C 162.662,137.15 149.828,114.15 136.5,91.5 Z"/></g>
<g><path style="opacity:0.749" fill="#a9837f" d="M 107.5,100.5 C 107.573,102.027 106.906,103.027 105.5,103.5C 105.427,101.973 106.094,100.973 107.5,100.5 Z"/></g>
<g><path style="opacity:0.776" fill="#a8817e" d="M 82.5,144.5 C 82.573,146.027 81.9063,147.027 80.5,147.5C 80.427,145.973 81.0937,144.973 82.5,144.5 Z"/></g>
<g><path style="opacity:1" fill="#fb502a" d="M 66.5,188.5 C 105.167,188.5 143.833,188.5 182.5,188.5C 182.5,196.5 182.5,204.5 182.5,212.5C 179.941,212.198 177.607,212.532 175.5,213.5C 171.737,213.857 168.07,214.69 164.5,216C 157.167,220.667 149.833,225.333 142.5,230C 131.265,234.136 119.931,234.47 108.5,231C 100.167,226 91.8333,221 83.5,216C 79.8883,214.85 76.2217,214.017 72.5,213.5C 70.7354,212.539 68.7354,212.205 66.5,212.5C 66.5,204.5 66.5,196.5 66.5,188.5 Z"/></g>
<g><path style="opacity:0.999" fill="#e42e15" d="M 182.5,188.5 C 201.5,188.5 220.5,188.5 239.5,188.5C 240.483,203.422 240.816,218.422 240.5,233.5C 240.167,233.5 239.833,233.5 239.5,233.5C 233.642,233.295 227.975,232.128 222.5,230C 214.667,225.584 207,220.918 199.5,216C 194.008,213.974 188.341,212.807 182.5,212.5C 182.5,204.5 182.5,196.5 182.5,188.5 Z"/></g>
<g><path style="opacity:1" fill="#feba2e" d="M 66.5,212.5 C 68.7354,212.205 70.7354,212.539 72.5,213.5C 70.8333,213.5 69.1667,213.5 67.5,213.5C 67.5,227.5 67.5,241.5 67.5,255.5C 69.4147,255.216 71.0813,255.549 72.5,256.5C 70.5,256.5 68.5,256.5 66.5,256.5C 66.5,241.833 66.5,227.167 66.5,212.5 Z"/></g>
<g><path style="opacity:1" fill="#fdd02f" d="M 72.5,213.5 C 76.2217,214.017 79.8883,214.85 83.5,216C 91.8333,221 100.167,226 108.5,231C 119.931,234.47 131.265,234.136 142.5,230C 149.833,225.333 157.167,220.667 164.5,216C 168.07,214.69 171.737,213.857 175.5,213.5C 177.833,213.5 180.167,213.5 182.5,213.5C 182.5,227.5 182.5,241.5 182.5,255.5C 180.265,255.205 178.265,255.539 176.5,256.5C 172.681,256.605 169.014,257.438 165.5,259C 157.667,263.416 150,268.082 142.5,273C 131.303,277.259 119.969,277.593 108.5,274C 100.57,269.73 92.9033,265.064 85.5,260C 81.2845,258.316 76.9512,257.149 72.5,256.5C 71.0813,255.549 69.4147,255.216 67.5,255.5C 67.5,241.5 67.5,227.5 67.5,213.5C 69.1667,213.5 70.8333,213.5 72.5,213.5 Z"/></g>
<g><path style="opacity:1" fill="#edba1b" d="M 175.5,213.5 C 177.607,212.532 179.941,212.198 182.5,212.5C 188.341,212.807 194.008,213.974 199.5,216C 207,220.918 214.667,225.584 222.5,230C 227.975,232.128 233.642,233.295 239.5,233.5C 240.15,248.206 239.483,262.539 237.5,276.5C 232.629,276.808 227.963,275.975 223.5,274C 215.57,269.73 207.903,265.064 200.5,260C 194.738,257.559 188.738,256.392 182.5,256.5C 180.5,256.5 178.5,256.5 176.5,256.5C 178.265,255.539 180.265,255.205 182.5,255.5C 182.5,241.5 182.5,227.5 182.5,213.5C 180.167,213.5 177.833,213.5 175.5,213.5 Z"/></g>
<g><path style="opacity:0.984" fill="#e88d28" d="M 239.5,233.5 C 239.833,233.5 240.167,233.5 240.5,233.5C 240.5,248.167 240.5,262.833 240.5,277.5C 239.209,277.737 238.209,277.404 237.5,276.5C 239.483,262.539 240.15,248.206 239.5,233.5 Z"/></g>
<g><path style="opacity:1" fill="#fb502a" d="M 66.5,256.5 C 68.5,256.5 70.5,256.5 72.5,256.5C 76.9512,257.149 81.2845,258.316 85.5,260C 92.9033,265.064 100.57,269.73 108.5,274C 119.969,277.593 131.303,277.259 142.5,273C 150,268.082 157.667,263.416 165.5,259C 169.014,257.438 172.681,256.605 176.5,256.5C 178.5,256.5 180.5,256.5 182.5,256.5C 182.5,270.167 182.5,283.833 182.5,297.5C 143.833,297.5 105.167,297.5 66.5,297.5C 66.5,283.833 66.5,270.167 66.5,256.5 Z"/></g>
<g><path style="opacity:1" fill="#e12f17" d="M 182.5,256.5 C 188.738,256.392 194.738,257.559 200.5,260C 207.903,265.064 215.57,269.73 223.5,274C 227.963,275.975 232.629,276.808 237.5,276.5C 238.209,277.404 239.209,277.737 240.5,277.5C 240.5,284.167 240.5,290.833 240.5,297.5C 220.909,298.487 201.243,298.821 181.5,298.5C 143.167,298.5 104.833,298.5 66.5,298.5C 66.5,298.167 66.5,297.833 66.5,297.5C 105.167,297.5 143.833,297.5 182.5,297.5C 182.5,283.833 182.5,270.167 182.5,256.5 Z"/></g>
<g><path style="opacity:0.965" fill="#deece6" d="M 385.5,257.5 C 386.387,266.801 386.721,276.134 386.5,285.5C 357.329,285.169 328.329,285.502 299.5,286.5C 298.837,284.359 298.503,282.025 298.5,279.5C 298.945,273.162 299.445,266.829 300,260.5C 300.5,259.333 301.333,258.5 302.5,258C 330.165,257.5 357.831,257.333 385.5,257.5 Z"/></g>
<g><path style="opacity:1" fill="#d6dfdb" d="M 385.5,257.5 C 403.836,257.333 422.17,257.5 440.5,258C 442.333,258.5 443.5,259.667 444,261.5C 444.5,269.493 444.666,277.493 444.5,285.5C 425.167,285.5 405.833,285.5 386.5,285.5C 386.721,276.134 386.387,266.801 385.5,257.5 Z"/></g>
<g><path style="opacity:1" fill="#772525" d="M 386.5,285.5 C 385.94,298.55 384.774,311.55 383,324.5C 376.487,355.067 370.487,385.734 365,416.5C 363.199,438.155 363.033,459.822 364.5,481.5C 357.167,481.5 349.833,481.5 342.5,481.5C 338.167,481.5 333.833,481.5 329.5,481.5C 327.052,480.527 324.385,480.194 321.5,480.5C 321.5,479.167 321.5,477.833 321.5,476.5C 323.125,455.119 322.625,433.786 320,412.5C 315.144,386.074 309.81,359.741 304,333.5C 301.179,317.955 299.679,302.288 299.5,286.5C 328.329,285.502 357.329,285.169 386.5,285.5 Z"/></g>
<g><path style="opacity:1" fill="#681918" d="M 386.5,285.5 C 405.833,285.5 425.167,285.5 444.5,285.5C 444.266,298.911 443.099,312.244 441,325.5C 436.896,349.686 431.896,373.686 426,397.5C 421.549,424.687 420.382,452.02 422.5,479.5C 403.364,481.265 384.031,481.931 364.5,481.5C 363.033,459.822 363.199,438.155 365,416.5C 370.487,385.734 376.487,355.067 383,324.5C 384.774,311.55 385.94,298.55 386.5,285.5 Z"/></g>
<g><path style="opacity:1" fill="#772524" d="M 66.5,298.5 C 104.833,298.5 143.167,298.5 181.5,298.5C 178.79,318.887 175.623,339.22 172,359.5C 171.176,369.212 171.509,378.879 173,388.5C 176.586,400.344 179.586,412.344 182,424.5C 183.244,440.393 181.911,456.06 178,471.5C 174.294,481.908 169.794,491.908 164.5,501.5C 156.16,501.334 147.827,501.5 139.5,502C 137.308,502.926 135.308,504.093 133.5,505.5C 132.094,505.973 131.427,506.973 131.5,508.5C 130.167,509.5 128.833,510.5 127.5,511.5C 117.833,511.5 108.167,511.5 98.5,511.5C 92.1864,509.081 87.0197,505.081 83,499.5C 68.715,476.076 63.3817,450.743 67,423.5C 68.8456,412.63 71.5123,401.963 75,391.5C 76.0431,384.527 76.8764,377.527 77.5,370.5C 74.0903,346.453 70.4236,322.453 66.5,298.5 Z"/></g>
<g><path style="opacity:1" fill="#681919" d="M 240.5,297.5 C 237.552,315.857 234.385,334.19 231,352.5C 229.06,364.508 229.06,376.508 231,388.5C 234.829,401.317 237.829,414.317 240,427.5C 242.704,452.981 237.371,476.648 224,498.5C 220.131,504.548 214.965,508.882 208.5,511.5C 198.5,511.5 188.5,511.5 178.5,511.5C 175.396,508.899 172.396,506.066 169.5,503C 167.975,501.991 166.308,501.491 164.5,501.5C 169.794,491.908 174.294,481.908 178,471.5C 181.911,456.06 183.244,440.393 182,424.5C 179.586,412.344 176.586,400.344 173,388.5C 171.509,378.879 171.176,369.212 172,359.5C 175.623,339.22 178.79,318.887 181.5,298.5C 201.243,298.821 220.909,298.487 240.5,297.5 Z"/></g>
<g><path style="opacity:1" fill="#b0938f" d="M 321.5,476.5 C 321.5,477.833 321.5,479.167 321.5,480.5C 324.385,480.194 327.052,480.527 329.5,481.5C 326.391,481.264 323.391,481.597 320.5,482.5C 320.205,480.265 320.539,478.265 321.5,476.5 Z"/></g>
<g><path style="opacity:1" fill="#deebe5" d="M 329.5,481.5 C 333.833,481.5 338.167,481.5 342.5,481.5C 349.982,482.492 357.648,482.825 365.5,482.5C 366.172,489.374 367.172,496.207 368.5,503C 368.475,506.895 366.808,509.728 363.5,511.5C 350.833,511.5 338.167,511.5 325.5,511.5C 321.128,508.944 318.461,505.111 317.5,500C 318.548,494.16 319.548,488.327 320.5,482.5C 323.391,481.597 326.391,481.264 329.5,481.5 Z"/></g>
<g><path style="opacity:1" fill="#d5dcd8" d="M 422.5,479.5 C 424.835,487.56 425.669,495.893 425,504.5C 423.306,507.358 421.139,509.691 418.5,511.5C 400.167,511.5 381.833,511.5 363.5,511.5C 366.808,509.728 368.475,506.895 368.5,503C 367.172,496.207 366.172,489.374 365.5,482.5C 357.648,482.825 349.982,482.492 342.5,481.5C 349.833,481.5 357.167,481.5 364.5,481.5C 384.031,481.931 403.364,481.265 422.5,479.5 Z"/></g>
<g><path style="opacity:0.012" fill="#af908d" d="M 133.5,505.5 C 133.573,507.027 132.906,508.027 131.5,508.5C 131.427,506.973 132.094,505.973 133.5,505.5 Z"/></g>
</svg>
