<?xml version="1.0" encoding="UTF-8"?>
<!DOCTYPE svg PUBLIC "-//W3C//DTD SVG 1.1//EN" "http://www.w3.org/Graphics/SVG/1.1/DTD/svg11.dtd">
<svg xmlns="http://www.w3.org/2000/svg" version="1.1" width="512px" height="512px" style="shape-rendering:geometricPrecision; text-rendering:geometricPrecision; image-rendering:optimizeQuality; fill-rule:evenodd; clip-rule:evenodd" xmlns:xlink="http://www.w3.org/1999/xlink">
<g><path style="opacity:0.99" fill="#e84444" d="M 215.5,-0.5 C 234.833,-0.5 254.167,-0.5 273.5,-0.5C 275.144,0.316435 276.31,1.64977 277,3.5C 277.667,15.1667 277.667,26.8333 277,38.5C 276.338,39.9839 275.504,41.3172 274.5,42.5C 270.833,42.5 267.167,42.5 263.5,42.5C 251.167,42.5 238.833,42.5 226.5,42.5C 222.818,42.6653 219.152,42.4986 215.5,42C 214.299,41.0975 213.465,39.9308 213,38.5C 212.333,26.5 212.333,14.5 213,2.5C 214.045,1.62656 214.878,0.626561 215.5,-0.5 Z"/></g>
<g><path style="opacity:1" fill="#d83131" d="M 273.5,-0.5 C 280.833,-0.5 288.167,-0.5 295.5,-0.5C 296.122,0.626561 296.955,1.62656 298,2.5C 298.667,14.5 298.667,26.5 298,38.5C 297.535,39.9308 296.701,41.0975 295.5,42C 291.848,42.4986 288.182,42.6653 284.5,42.5C 281.167,42.5 277.833,42.5 274.5,42.5C 275.504,41.3172 276.338,39.9839 277,38.5C 277.667,26.8333 277.667,15.1667 277,3.5C 276.31,1.64977 275.144,0.316435 273.5,-0.5 Z"/></g>
<g><path style="opacity:0.988" fill="#f2eff2" d="M 226.5,42.5 C 238.833,42.5 251.167,42.5 263.5,42.5C 263.066,57.5583 263.566,72.5583 265,87.5C 266.776,90.9411 268.943,94.1078 271.5,97C 278.565,101.524 285.565,106.024 292.5,110.5C 258.5,110.5 224.5,110.5 190.5,110.5C 199.047,102.214 208.713,95.3806 219.5,90C 222.944,86.8892 225.111,83.0559 226,78.5C 226.5,66.5046 226.667,54.5046 226.5,42.5 Z"/></g>
<g><path style="opacity:1" fill="#e2dee2" d="M 263.5,42.5 C 267.167,42.5 270.833,42.5 274.5,42.5C 277.833,42.5 281.167,42.5 284.5,42.5C 284.333,54.5046 284.5,66.5046 285,78.5C 285.889,83.0559 288.056,86.8892 291.5,90C 302.287,95.3806 311.953,102.214 320.5,110.5C 311.5,110.5 302.5,110.5 293.5,110.5C 293.167,110.5 292.833,110.5 292.5,110.5C 285.565,106.024 278.565,101.524 271.5,97C 268.943,94.1078 266.776,90.9411 265,87.5C 263.566,72.5583 263.066,57.5583 263.5,42.5 Z"/></g>
<g><path style="opacity:1" fill="#b1aab1" d="M 190.5,110.5 C 224.5,110.5 258.5,110.5 292.5,110.5C 292.833,110.5 293.167,110.5 293.5,110.5C 259.336,111.332 225.002,111.832 190.5,112C 189.627,113.045 188.627,113.878 187.5,114.5C 187.738,112.596 188.738,111.262 190.5,110.5 Z"/></g>
<g><path style="opacity:1" fill="#685e68" d="M 293.5,110.5 C 302.5,110.5 311.5,110.5 320.5,110.5C 321.167,110.5 321.5,110.833 321.5,111.5C 312.494,111.334 303.494,111.5 294.5,112C 312.975,125.45 321.975,143.617 321.5,166.5C 328.687,166.175 335.687,166.509 342.5,167.5C 335.833,167.5 329.167,167.5 322.5,167.5C 271.167,167.5 219.833,167.5 168.5,167.5C 168.167,167.5 167.833,167.5 167.5,167.5C 167.243,147.048 173.91,129.381 187.5,114.5C 188.627,113.878 189.627,113.045 190.5,112C 225.002,111.832 259.336,111.332 293.5,110.5 Z"/></g>
<g><path style="opacity:1" fill="#575058" d="M 321.5,111.5 C 336.063,127.166 343.397,145.833 343.5,167.5C 343.167,167.5 342.833,167.5 342.5,167.5C 335.687,166.509 328.687,166.175 321.5,166.5C 321.975,143.617 312.975,125.45 294.5,112C 303.494,111.5 312.494,111.334 321.5,111.5 Z"/></g>
<g><path style="opacity:1" fill="#b15b5f" d="M 167.5,167.5 C 167.833,167.5 168.167,167.5 168.5,167.5C 168.5,201.167 168.5,234.833 168.5,268.5C 219.833,268.5 271.167,268.5 322.5,268.5C 329.167,268.5 335.833,268.5 342.5,268.5C 342.5,234.833 342.5,201.167 342.5,167.5C 342.833,167.5 343.167,167.5 343.5,167.5C 343.5,201.5 343.5,235.5 343.5,269.5C 336.167,269.5 328.833,269.5 321.5,269.5C 270.167,269.5 218.833,269.5 167.5,269.5C 167.5,235.5 167.5,201.5 167.5,167.5 Z"/></g>
<g><path style="opacity:1" fill="#d73130" d="M 322.5,167.5 C 329.167,167.5 335.833,167.5 342.5,167.5C 342.5,201.167 342.5,234.833 342.5,268.5C 335.833,268.5 329.167,268.5 322.5,268.5C 322.5,234.833 322.5,201.167 322.5,167.5 Z"/></g>
<g><path style="opacity:1" fill="#e84343" d="M 168.5,167.5 C 219.833,167.5 271.167,167.5 322.5,167.5C 322.5,201.167 322.5,234.833 322.5,268.5C 271.167,268.5 219.833,268.5 168.5,268.5C 168.5,234.833 168.5,201.167 168.5,167.5 Z"/></g>
<g><path style="opacity:1" fill="#685e68" d="M 167.5,269.5 C 218.833,269.5 270.167,269.5 321.5,269.5C 321.664,272.187 321.497,274.854 321,277.5C 316.342,286.473 313.509,295.973 312.5,306C 312.544,309.57 313.044,313.07 314,316.5C 317.239,323.641 319.906,330.974 322,338.5C 322.667,386.5 322.667,434.5 322,482.5C 319.013,495.981 311.179,505.314 298.5,510.5C 292.696,508.858 287.196,506.524 282,503.5C 276.179,506.329 270.346,508.996 264.5,511.5C 258.5,511.5 252.5,511.5 246.5,511.5C 240.654,508.996 234.821,506.329 229,503.5C 223.438,506.866 217.604,509.533 211.5,511.5C 205.833,511.5 200.167,511.5 194.5,511.5C 180.067,507.565 171.234,498.232 168,483.5C 167.333,435.5 167.333,387.5 168,339.5C 169.521,331.123 172.188,323.123 176,315.5C 176.407,312.318 176.907,309.151 177.5,306C 174.305,293.782 170.972,281.615 167.5,269.5 Z"/></g>
<g><path style="opacity:1" fill="#575058" d="M 321.5,269.5 C 328.833,269.5 336.167,269.5 343.5,269.5C 340.17,281.495 336.837,293.495 333.5,305.5C 334.617,315.351 337.45,324.684 342,333.5C 342.333,335.833 342.667,338.167 343,340.5C 343.667,388.167 343.667,435.833 343,483.5C 339.766,498.232 330.933,507.565 316.5,511.5C 310.833,511.5 305.167,511.5 299.5,511.5C 299.5,510.833 299.167,510.5 298.5,510.5C 311.179,505.314 319.013,495.981 322,482.5C 322.667,434.5 322.667,386.5 322,338.5C 319.906,330.974 317.239,323.641 314,316.5C 313.044,313.07 312.544,309.57 312.5,306C 313.509,295.973 316.342,286.473 321,277.5C 321.497,274.854 321.664,272.187 321.5,269.5 Z"/></g>
</svg>
