<?xml version="1.0" encoding="UTF-8"?>
<!DOCTYPE svg PUBLIC "-//W3C//DTD SVG 1.1//EN" "http://www.w3.org/Graphics/SVG/1.1/DTD/svg11.dtd">
<svg xmlns="http://www.w3.org/2000/svg" version="1.1" width="512px" height="512px" style="shape-rendering:geometricPrecision; text-rendering:geometricPrecision; image-rendering:optimizeQuality; fill-rule:evenodd; clip-rule:evenodd" xmlns:xlink="http://www.w3.org/1999/xlink">
<g><path style="opacity:0.987" fill="#fb4e51" d="M 117.5,-0.5 C 139.5,-0.5 161.5,-0.5 183.5,-0.5C 185.796,1.40057 187.629,3.7339 189,6.5C 189.667,15.8333 189.667,25.1667 189,34.5C 186.907,39.1157 183.407,41.449 178.5,41.5C 159.5,41.5 140.5,41.5 121.5,41.5C 115.274,41.1092 111.774,37.7759 111,31.5C 110.333,24.1667 110.333,16.8333 111,9.5C 111.435,4.9448 113.602,1.61147 117.5,-0.5 Z"/></g>
<g><path style="opacity:1" fill="#d6dfdb" d="M 121.5,41.5 C 140.5,41.5 159.5,41.5 178.5,41.5C 179.072,56.8618 180.072,72.1951 181.5,87.5C 161.5,87.5 141.5,87.5 121.5,87.5C 120.5,87.5 119.5,87.5 118.5,87.5C 120.659,72.2981 121.659,56.9648 121.5,41.5 Z"/></g>
<g><path style="opacity:1" fill="#912e2d" d="M 118.5,87.5 C 119.5,87.5 120.5,87.5 121.5,87.5C 122.187,93.2495 123.353,98.9161 125,104.5C 135.207,135.287 144.707,166.287 153.5,197.5C 131.167,197.5 108.833,197.5 86.5,197.5C 95.4855,166.041 104.985,134.708 115,103.5C 116.486,98.2227 117.653,92.8893 118.5,87.5 Z"/></g>
<g><path style="opacity:1" fill="#7c1e1e" d="M 121.5,87.5 C 141.5,87.5 161.5,87.5 181.5,87.5C 192.185,124.237 203.185,160.904 214.5,197.5C 194.167,197.5 173.833,197.5 153.5,197.5C 144.707,166.287 135.207,135.287 125,104.5C 123.353,98.9161 122.187,93.2495 121.5,87.5 Z"/></g>
<g><path style="opacity:1" fill="#deece6" d="M 267.5,194.5 C 298.174,194.167 328.841,194.5 359.5,195.5C 362.673,203.872 364.34,212.539 364.5,221.5C 330.167,221.5 295.833,221.5 261.5,221.5C 261.5,219.833 261.5,218.167 261.5,216.5C 261.49,210.715 262.323,205.049 264,199.5C 264.223,197.119 265.39,195.453 267.5,194.5 Z"/></g>
<g><path style="opacity:1" fill="#d6deda" d="M 267.5,194.5 C 317.665,193.335 367.998,193.168 418.5,194C 420.259,195.008 421.426,196.508 422,198.5C 423.798,203.689 424.631,209.022 424.5,214.5C 424.5,216.833 424.5,219.167 424.5,221.5C 404.5,221.5 384.5,221.5 364.5,221.5C 364.34,212.539 362.673,203.872 359.5,195.5C 328.841,194.5 298.174,194.167 267.5,194.5 Z"/></g>
<g><path style="opacity:1" fill="#fb4e51" d="M 86.5,197.5 C 108.994,198.497 131.661,198.831 154.5,198.5C 154.779,234.181 154.446,269.847 153.5,305.5C 131.167,305.5 108.833,305.5 86.5,305.5C 85.2029,269.347 85.2029,233.347 86.5,197.5 Z"/></g>
<g><path style="opacity:1" fill="#e93942" d="M 86.5,197.5 C 108.833,197.5 131.167,197.5 153.5,197.5C 173.833,197.5 194.167,197.5 214.5,197.5C 214.832,233.671 214.498,269.671 213.5,305.5C 193.5,305.5 173.5,305.5 153.5,305.5C 154.446,269.847 154.779,234.181 154.5,198.5C 131.661,198.831 108.994,198.497 86.5,197.5 Z"/></g>
<g><path style="opacity:1" fill="#a55e5c" d="M 261.5,216.5 C 261.5,218.167 261.5,219.833 261.5,221.5C 295.833,221.5 330.167,221.5 364.5,221.5C 364.5,221.833 364.5,222.167 364.5,222.5C 329.833,222.5 295.167,222.5 260.5,222.5C 260.205,220.265 260.539,218.265 261.5,216.5 Z"/></g>
<g><path style="opacity:1" fill="#a77876" d="M 424.5,214.5 C 425.473,216.948 425.806,219.615 425.5,222.5C 405.167,222.5 384.833,222.5 364.5,222.5C 364.5,222.167 364.5,221.833 364.5,221.5C 384.5,221.5 404.5,221.5 424.5,221.5C 424.5,219.167 424.5,216.833 424.5,214.5 Z"/></g>
<g><path style="opacity:0.992" fill="#902c2b" d="M 260.5,222.5 C 295.167,222.5 329.833,222.5 364.5,222.5C 364.647,237.99 363.147,253.324 360,268.5C 355.113,289.714 349.447,310.714 343,331.5C 334.361,371.809 332.195,412.475 336.5,453.5C 323.833,453.5 311.167,453.5 298.5,453.5C 294.707,453.269 291.374,451.935 288.5,449.5C 292.55,411.216 290.716,373.216 283,335.5C 275.726,311.07 269.393,286.403 264,261.5C 261.786,248.593 260.619,235.593 260.5,222.5 Z"/></g>
<g><path style="opacity:1" fill="#7c1e1e" d="M 364.5,222.5 C 384.833,222.5 405.167,222.5 425.5,222.5C 425.332,244.179 422.498,265.512 417,286.5C 408.149,312.571 401.816,339.238 398,366.5C 394.884,394.154 394.717,421.821 397.5,449.5C 395.473,451.18 393.139,452.347 390.5,453C 372.503,453.5 354.503,453.667 336.5,453.5C 332.195,412.475 334.361,371.809 343,331.5C 349.447,310.714 355.113,289.714 360,268.5C 363.147,253.324 364.647,237.99 364.5,222.5 Z"/></g>
<g><path style="opacity:1" fill="#912d2d" d="M 86.5,305.5 C 108.833,305.5 131.167,305.5 153.5,305.5C 149.747,340.116 146.414,374.783 143.5,409.5C 145.476,423.713 148.476,437.713 152.5,451.5C 137.5,451.5 122.5,451.5 107.5,451.5C 100.055,450.953 94.3884,447.619 90.5,441.5C 92.9755,431.264 94.9755,420.93 96.5,410.5C 93.2319,375.486 89.8985,340.486 86.5,305.5 Z"/></g>
<g><path style="opacity:1" fill="#7c1f1e" d="M 153.5,305.5 C 173.5,305.5 193.5,305.5 213.5,305.5C 210.5,340.163 207.5,374.829 204.5,409.5C 204.667,412.833 204.833,416.167 205,419.5C 207.153,427.444 208.986,435.444 210.5,443.5C 207,446.753 203,449.253 198.5,451C 183.17,451.5 167.837,451.667 152.5,451.5C 148.476,437.713 145.476,423.713 143.5,409.5C 146.414,374.783 149.747,340.116 153.5,305.5 Z"/></g>
<g><path style="opacity:0.989" fill="#deece6" d="M 90.5,441.5 C 94.3884,447.619 100.055,450.953 107.5,451.5C 122.339,452.167 137.339,452.833 152.5,453.5C 157.032,463.772 156.032,473.438 149.5,482.5C 129.833,482.5 110.167,482.5 90.5,482.5C 86.6364,477.748 84.6364,472.248 84.5,466C 85.5064,457.476 87.5064,449.31 90.5,441.5 Z"/></g>
<g><path style="opacity:1" fill="#d5dcd8" d="M 210.5,443.5 C 213.335,451.003 215.335,458.836 216.5,467C 215.765,472.713 213.765,477.88 210.5,482.5C 190.167,482.5 169.833,482.5 149.5,482.5C 156.032,473.438 157.032,463.772 152.5,453.5C 137.339,452.833 122.339,452.167 107.5,451.5C 122.5,451.5 137.5,451.5 152.5,451.5C 167.837,451.667 183.17,451.5 198.5,451C 203,449.253 207,446.753 210.5,443.5 Z"/></g>
<g><path style="opacity:1" fill="#d6dfdb" d="M 397.5,449.5 C 398.645,458.514 399.978,467.514 401.5,476.5C 401.272,478.207 400.938,479.874 400.5,481.5C 380.909,482.487 361.243,482.821 341.5,482.5C 339.733,473.23 338.4,463.897 337.5,454.5C 324.323,454.829 311.323,454.495 298.5,453.5C 311.167,453.5 323.833,453.5 336.5,453.5C 354.503,453.667 372.503,453.5 390.5,453C 393.139,452.347 395.473,451.18 397.5,449.5 Z"/></g>
<g><path style="opacity:1" fill="#deebe5" d="M 288.5,449.5 C 291.374,451.935 294.707,453.269 298.5,453.5C 311.323,454.495 324.323,454.829 337.5,454.5C 338.4,463.897 339.733,473.23 341.5,482.5C 323.167,482.5 304.833,482.5 286.5,482.5C 286.737,481.209 286.404,480.209 285.5,479.5C 285.077,478.735 284.743,477.902 284.5,477C 286.322,467.903 287.655,458.736 288.5,449.5 Z"/></g>
<g><path style="opacity:0.995" fill="#a0796d" d="M 285.5,479.5 C 286.404,480.209 286.737,481.209 286.5,482.5C 304.833,482.5 323.167,482.5 341.5,482.5C 361.243,482.821 380.909,482.487 400.5,481.5C 423.33,482.332 446.33,482.832 469.5,483C 474.889,486.088 476.889,490.755 475.5,497C 475.333,499.833 475.167,502.667 475,505.5C 473.64,508.023 471.807,510.023 469.5,511.5C 326.5,511.5 183.5,511.5 40.5,511.5C 38.193,510.023 36.3597,508.023 35,505.5C 34.3333,499.833 34.3333,494.167 35,488.5C 36.1667,486 38,484.167 40.5,483C 57.1633,482.5 73.83,482.333 90.5,482.5C 110.167,482.5 129.833,482.5 149.5,482.5C 169.833,482.5 190.167,482.5 210.5,482.5C 235.5,482.5 260.5,482.5 285.5,482.5C 285.5,481.5 285.5,480.5 285.5,479.5 Z"/></g>
</svg>
