<?xml version="1.0" encoding="UTF-8"?>
<!DOCTYPE svg PUBLIC "-//W3C//DTD SVG 1.1//EN" "http://www.w3.org/Graphics/SVG/1.1/DTD/svg11.dtd">
<svg xmlns="http://www.w3.org/2000/svg" version="1.1" width="512px" height="513px" style="shape-rendering:geometricPrecision; text-rendering:geometricPrecision; image-rendering:optimizeQuality; fill-rule:evenodd; clip-rule:evenodd" xmlns:xlink="http://www.w3.org/1999/xlink">
<g><path style="opacity:0.943" fill="#fb4e51" d="M 383.5,-0.5 C 387.167,-0.5 390.833,-0.5 394.5,-0.5C 399.382,3.88618 399.715,8.71951 395.5,14C 373.547,18.2145 351.547,22.2145 329.5,26C 323.96,41.3247 318.96,56.8247 314.5,72.5C 308.676,85.6346 304.01,99.3013 300.5,113.5C 299.833,113.5 299.5,113.833 299.5,114.5C 294.305,114.821 289.305,114.487 284.5,113.5C 288.096,100.38 292.096,87.3797 296.5,74.5C 297.833,73.8333 297.833,73.1667 296.5,72.5C 302.624,54.9608 308.457,37.2941 314,19.5C 316.842,12.6564 322.008,9.1564 329.5,9C 347.693,6.13574 365.693,2.96908 383.5,-0.5 Z"/></g>
<g><path style="opacity:0.299" fill="#bb9490" d="M 127.5,73.5 C 183.664,72.501 239.998,72.1677 296.5,72.5C 297.833,73.1667 297.833,73.8333 296.5,74.5C 240.336,73.501 184.002,73.1677 127.5,73.5 Z"/></g>
<g><path style="opacity:0.999" fill="#deece6" d="M 127.5,73.5 C 184.002,73.1677 240.336,73.501 296.5,74.5C 292.096,87.3797 288.096,100.38 284.5,113.5C 283.833,113.5 283.5,113.833 283.5,114.5C 226.998,114.168 170.664,114.501 114.5,115.5C 113.897,102.255 116.064,89.2551 121,76.5C 122.509,74.0807 124.675,73.0807 127.5,73.5 Z"/></g>
<g><path style="opacity:1" fill="#d6ddd9" d="M 314.5,72.5 C 324.506,72.3335 334.506,72.5002 344.5,73C 346.246,73.4709 347.913,74.1376 349.5,75C 354.06,84.6315 356.394,94.7982 356.5,105.5C 356.5,108.5 356.5,111.5 356.5,114.5C 337.659,114.83 318.993,114.497 300.5,113.5C 304.01,99.3013 308.676,85.6346 314.5,72.5 Z"/></g>
<g><path style="opacity:1" fill="#e26566" d="M 284.5,113.5 C 289.305,114.487 294.305,114.821 299.5,114.5C 299.5,114.833 299.5,115.167 299.5,115.5C 299.167,115.5 298.833,115.5 298.5,115.5C 293.5,115.5 288.5,115.5 283.5,115.5C 283.5,115.167 283.5,114.833 283.5,114.5C 283.5,113.833 283.833,113.5 284.5,113.5 Z"/></g>
<g><path style="opacity:1" fill="#c0aba8" d="M 356.5,105.5 C 357.479,108.625 357.813,111.958 357.5,115.5C 338.167,115.5 318.833,115.5 299.5,115.5C 299.5,115.167 299.5,114.833 299.5,114.5C 299.5,113.833 299.833,113.5 300.5,113.5C 318.993,114.497 337.659,114.83 356.5,114.5C 356.5,111.5 356.5,108.5 356.5,105.5 Z"/></g>
<g><path style="opacity:0.995" fill="#912c2c" d="M 114.5,115.5 C 126.838,115.333 139.171,115.5 151.5,116C 144.96,127.582 138.293,139.082 131.5,150.5C 132.313,151.814 133.313,152.981 134.5,154C 145.431,160.047 156.264,166.214 167,172.5C 168.605,171.899 169.938,170.899 171,169.5C 177.047,158.569 183.214,147.736 189.5,137C 189.241,135.739 188.574,134.739 187.5,134C 177.003,128.252 166.67,122.252 156.5,116C 198.832,115.5 241.165,115.333 283.5,115.5C 288.5,115.5 293.5,115.5 298.5,115.5C 298.5,122.5 298.5,129.5 298.5,136.5C 306.742,135.793 314.909,135.793 323,136.5C 324.492,147.794 324.826,159.128 324,170.5C 313.943,172.031 303.776,172.698 293.5,172.5C 289.527,193.894 284.527,215.061 278.5,236C 278.585,237.107 278.919,238.107 279.5,239C 289.167,246 298.833,253 308.5,260C 311.791,262.332 312.291,265.165 310,268.5C 300.196,281.937 290.03,295.104 279.5,308C 278.167,308.667 276.833,308.667 275.5,308C 271.603,304.469 267.436,301.303 263,298.5C 259.612,312.575 257.279,326.909 256,341.5C 252.021,384.659 253.187,427.659 259.5,470.5C 228.833,470.5 198.167,470.5 167.5,470.5C 161.957,469.728 157.29,467.395 153.5,463.5C 162.049,401.764 159.549,340.431 146,279.5C 139.822,257.122 133.489,234.789 127,212.5C 118.032,180.71 113.866,148.377 114.5,115.5 Z"/></g>
<g><path style="opacity:1" fill="#9f4d4c" d="M 114.5,115.5 C 170.664,114.501 226.998,114.168 283.5,114.5C 283.5,114.833 283.5,115.167 283.5,115.5C 241.165,115.333 198.832,115.5 156.5,116C 166.67,122.252 177.003,128.252 187.5,134C 188.574,134.739 189.241,135.739 189.5,137C 183.214,147.736 177.047,158.569 171,169.5C 169.938,170.899 168.605,171.899 167,172.5C 156.264,166.214 145.431,160.047 134.5,154C 133.313,152.981 132.313,151.814 131.5,150.5C 138.293,139.082 144.96,127.582 151.5,116C 139.171,115.5 126.838,115.333 114.5,115.5 Z"/></g>
<g><path style="opacity:1" fill="#7c1e1e" d="M 298.5,115.5 C 298.833,115.5 299.167,115.5 299.5,115.5C 318.833,115.5 338.167,115.5 357.5,115.5C 357.532,149.106 353.032,182.106 344,214.5C 336.71,238.328 330.043,262.328 324,286.5C 312.131,345.193 309.965,404.193 317.5,463.5C 314.489,466.676 310.822,468.843 306.5,470C 290.837,470.5 275.17,470.667 259.5,470.5C 253.187,427.659 252.021,384.659 256,341.5C 257.279,326.909 259.612,312.575 263,298.5C 267.436,301.303 271.603,304.469 275.5,308C 276.833,308.667 278.167,308.667 279.5,308C 290.03,295.104 300.196,281.937 310,268.5C 312.291,265.165 311.791,262.332 308.5,260C 298.833,253 289.167,246 279.5,239C 278.919,238.107 278.585,237.107 278.5,236C 284.527,215.061 289.527,193.894 293.5,172.5C 303.776,172.698 313.943,172.031 324,170.5C 324.826,159.128 324.492,147.794 323,136.5C 314.909,135.793 306.742,135.793 298.5,136.5C 298.5,129.5 298.5,122.5 298.5,115.5 Z"/></g>
<g><path style="opacity:1" fill="#9d4848" d="M 293.5,172.5 C 292.178,172.67 291.011,172.337 290,171.5C 289.027,160.186 288.527,148.852 288.5,137.5C 291.5,137.5 294.5,137.5 297.5,137.5C 296.766,149.247 295.432,160.914 293.5,172.5 Z"/></g>
<g><path style="opacity:1" fill="#9d4848" d="M 224.5,143.5 C 225.873,143.343 227.207,143.51 228.5,144C 241.191,154.365 253.524,165.031 265.5,176C 257.395,187.109 248.895,197.943 240,208.5C 237.926,210.916 235.592,212.916 233,214.5C 231.373,214.375 229.873,213.875 228.5,213C 216.364,203.364 204.698,193.197 193.5,182.5C 203.601,169.287 213.935,156.287 224.5,143.5 Z"/></g>
<g><path style="opacity:1" fill="#9d4848" d="M 198.5,229.5 C 201.777,229.216 204.943,229.549 208,230.5C 209.512,242.156 210.512,253.822 211,265.5C 206.993,266.941 202.826,267.774 198.5,268C 190.832,268.763 183.165,269.096 175.5,269C 173.426,257.28 172.259,245.446 172,233.5C 180.985,232.561 189.818,231.228 198.5,229.5 Z"/></g>
<g><path style="opacity:1" fill="#9d4848" d="M 265.5,231.5 C 267.199,231.34 268.866,231.506 270.5,232C 273.513,233.679 275.846,236.013 277.5,239C 271.158,258.204 265.991,277.704 262,297.5C 254.167,291.667 246.333,285.833 238.5,280C 236.552,278.561 235.219,276.728 234.5,274.5C 244.437,259.894 254.77,245.561 265.5,231.5 Z"/></g>
<g><path style="opacity:1" fill="#deece6" d="M 153.5,463.5 C 157.29,467.395 161.957,469.728 167.5,470.5C 197.995,471.498 228.662,471.831 259.5,471.5C 260.896,481.374 262.562,491.207 264.5,501C 263.501,506.489 260.501,510.322 255.5,512.5C 224.833,512.5 194.167,512.5 163.5,512.5C 156.349,509.508 151.849,504.174 150,496.5C 150.724,485.482 151.89,474.482 153.5,463.5 Z"/></g>
<g><path style="opacity:1" fill="#d5dcd8" d="M 317.5,463.5 C 319.982,475.05 321.148,486.717 321,498.5C 319.074,505.255 314.907,509.922 308.5,512.5C 290.833,512.5 273.167,512.5 255.5,512.5C 260.501,510.322 263.501,506.489 264.5,501C 262.562,491.207 260.896,481.374 259.5,471.5C 228.662,471.831 197.995,471.498 167.5,470.5C 198.167,470.5 228.833,470.5 259.5,470.5C 275.17,470.667 290.837,470.5 306.5,470C 310.822,468.843 314.489,466.676 317.5,463.5 Z"/></g>
</svg>
