<?xml version="1.0" encoding="UTF-8"?>
<!DOCTYPE svg PUBLIC "-//W3C//DTD SVG 1.1//EN" "http://www.w3.org/Graphics/SVG/1.1/DTD/svg11.dtd">
<svg xmlns="http://www.w3.org/2000/svg" version="1.1" width="512px" height="512px" style="shape-rendering:geometricPrecision; text-rendering:geometricPrecision; image-rendering:optimizeQuality; fill-rule:evenodd; clip-rule:evenodd" xmlns:xlink="http://www.w3.org/1999/xlink">
<g><path style="opacity:0.996" fill="#766d78" d="M 127.5,-0.5 C 140.5,-0.5 153.5,-0.5 166.5,-0.5C 148.181,4.15293 137.514,15.8196 134.5,34.5C 133.507,42.6499 133.174,50.9832 133.5,59.5C 233.833,59.5 334.167,59.5 434.5,59.5C 441.404,60.5691 445.57,64.5691 447,71.5C 447.499,75.4862 447.666,79.4862 447.5,83.5C 334.166,83.3333 220.833,83.5 107.5,84C 98.1601,90.0316 96.9934,97.5316 104,106.5C 106.479,108.314 108.979,109.981 111.5,111.5C 105.167,111.5 98.8333,111.5 92.5,111.5C 86.4908,111.666 80.4908,111.499 74.5,111C 69.2425,108.744 65.7425,104.91 64,99.5C 63.3333,89.8333 63.3333,80.1667 64,70.5C 65.4329,65.4018 68.5995,61.9018 73.5,60C 81.7492,58.5943 90.0826,58.0943 98.5,58.5C 98.3335,48.4944 98.5002,38.4944 99,28.5C 103.35,13.6512 112.85,3.98451 127.5,-0.5 Z"/></g>
<g><path style="opacity:0.999" fill="#8d858d" d="M 166.5,-0.5 C 238.833,-0.5 311.167,-0.5 383.5,-0.5C 398.15,3.98451 407.65,13.6512 412,28.5C 412.5,38.4944 412.666,48.4944 412.5,58.5C 319.833,58.5 227.167,58.5 134.5,58.5C 134.5,50.5 134.5,42.5 134.5,34.5C 137.514,15.8196 148.181,4.15293 166.5,-0.5 Z"/></g>
<g><path style="opacity:1" fill="#827983" d="M 134.5,34.5 C 134.5,42.5 134.5,50.5 134.5,58.5C 227.167,58.5 319.833,58.5 412.5,58.5C 420.019,58.175 427.352,58.5084 434.5,59.5C 334.167,59.5 233.833,59.5 133.5,59.5C 133.174,50.9832 133.507,42.6499 134.5,34.5 Z"/></g>
<g><path style="opacity:0.998" fill="#8d858d" d="M 447.5,83.5 C 450.31,105.689 440.644,115.022 418.5,111.5C 316.167,111.5 213.833,111.5 111.5,111.5C 108.979,109.981 106.479,108.314 104,106.5C 96.9934,97.5316 98.1601,90.0316 107.5,84C 220.833,83.5 334.166,83.3333 447.5,83.5 Z"/></g>
<g><path style="opacity:0.997" fill="#f4dab2" d="M 92.5,111.5 C 98.8333,111.5 105.167,111.5 111.5,111.5C 213.833,111.5 316.167,111.5 418.5,111.5C 418.253,119.546 417.587,127.546 416.5,135.5C 327.833,135.333 239.166,135.5 150.5,136C 141.599,139.235 135.766,145.402 133,154.5C 133.019,165.216 133.853,175.883 135.5,186.5C 227.5,186.5 319.5,186.5 411.5,186.5C 411.5,186.833 411.5,187.167 411.5,187.5C 319.5,187.5 227.5,187.5 135.5,187.5C 123.5,187.5 111.5,187.5 99.5,187.5C 96.6403,162.235 94.307,136.902 92.5,111.5 Z"/></g>
<g><path style="opacity:0.999" fill="#f8e9c6" d="M 416.5,135.5 C 415.25,152.589 413.583,169.589 411.5,186.5C 319.5,186.5 227.5,186.5 135.5,186.5C 133.853,175.883 133.019,165.216 133,154.5C 135.766,145.402 141.599,139.235 150.5,136C 239.166,135.5 327.833,135.333 416.5,135.5 Z"/></g>
<g><path style="opacity:0.992" fill="#ffa95f" d="M 99.5,187.5 C 111.5,187.5 123.5,187.5 135.5,187.5C 143.632,273.491 151.632,359.491 159.5,445.5C 147.5,445.5 135.5,445.5 123.5,445.5C 115.081,359.559 107.081,273.559 99.5,187.5 Z"/></g>
<g><path style="opacity:0.999" fill="#fec269" d="M 135.5,187.5 C 227.5,187.5 319.5,187.5 411.5,187.5C 403.919,273.559 395.919,359.559 387.5,445.5C 311.5,445.5 235.5,445.5 159.5,445.5C 151.632,359.491 143.632,273.491 135.5,187.5 Z"/></g>
<g><path style="opacity:1" fill="#a56464" d="M 236.5,234.5 C 243.915,241.413 250.415,249.08 256,257.5C 260.327,269.46 264.661,281.46 269,293.5C 275.692,301.686 282.525,309.686 289.5,317.5C 285.006,320.667 280.006,322.667 274.5,323.5C 266.367,316.203 259.534,307.87 254,298.5C 250.531,290.092 247.864,281.426 246,272.5C 244.772,268.941 243.106,265.608 241,262.5C 234.27,255.276 227.77,247.942 221.5,240.5C 225.655,236.596 230.655,234.596 236.5,234.5 Z"/></g>
<g><path style="opacity:1" fill="#b06c6b" d="M 236.5,234.5 C 251.175,233.583 264.175,237.749 275.5,247C 290.25,258.668 298.583,273.835 300.5,292.5C 300.876,302.73 297.209,311.063 289.5,317.5C 282.525,309.686 275.692,301.686 269,293.5C 264.661,281.46 260.327,269.46 256,257.5C 250.415,249.08 243.915,241.413 236.5,234.5 Z"/></g>
<g><path style="opacity:1" fill="#b06c6b" d="M 221.5,240.5 C 227.77,247.942 234.27,255.276 241,262.5C 243.106,265.608 244.772,268.941 246,272.5C 247.864,281.426 250.531,290.092 254,298.5C 259.534,307.87 266.367,316.203 274.5,323.5C 242.781,321.87 221.948,305.87 212,275.5C 207.866,261.689 211.033,250.023 221.5,240.5 Z"/></g>
<g><path style="opacity:1" fill="#f4f3f3" d="M 175.5,354.5 C 228.501,354.333 281.501,354.5 334.5,355C 340.759,359.167 341.092,363.833 335.5,369C 282.167,369.667 228.833,369.667 175.5,369C 170.214,364.169 170.214,359.335 175.5,354.5 Z"/></g>
<g><path style="opacity:1" fill="#f4f3f3" d="M 175.5,391.5 C 228.834,391.333 282.168,391.5 335.5,392C 340.986,397.081 340.653,401.748 334.5,406C 281.5,406.667 228.5,406.667 175.5,406C 170.202,401.092 170.202,396.258 175.5,391.5 Z"/></g>
<g><path style="opacity:0.992" fill="#f4dbb2" d="M 123.5,445.5 C 135.5,445.5 147.5,445.5 159.5,445.5C 235.5,445.5 311.5,445.5 387.5,445.5C 387.5,445.833 387.5,446.167 387.5,446.5C 311.497,446.167 235.497,446.5 159.5,447.5C 160.82,459.794 161.987,472.128 163,484.5C 167.351,498.016 176.184,507.016 189.5,511.5C 177.167,511.5 164.833,511.5 152.5,511.5C 139.077,507.241 130.577,498.241 127,484.5C 125.442,471.53 124.275,458.53 123.5,445.5 Z"/></g>
<g><path style="opacity:0.999" fill="#f9e9c6" d="M 387.5,446.5 C 386.894,461.671 385.061,476.671 382,491.5C 377.016,501.661 369.182,508.328 358.5,511.5C 302.167,511.5 245.833,511.5 189.5,511.5C 176.184,507.016 167.351,498.016 163,484.5C 161.987,472.128 160.82,459.794 159.5,447.5C 235.497,446.5 311.497,446.167 387.5,446.5 Z"/></g>
</svg>
