<svg xmlns="http://www.w3.org/2000/svg" viewBox="0 0 24 24" id="energy-drink-can"><path fill="#D0D5D9" d="M16.81 22H7.19l.863 1.724A.5.5 0 0 0 8.5 24h7a.5.5 0 0 0 .447-.276L16.81 22z"></path><path d="M15.947 23.474a.5.5 0 0 1-.447.276h-7a.5.5 0 0 1-.447-.276L7.316 22H7.19l.862 1.724A.5.5 0 0 0 8.5 24h7a.5.5 0 0 0 .447-.276L16.81 22h-.125l-.737 1.474z" opacity=".05"></path><linearGradient id="a" x1="9.736" x2="14.264" y1="20.916" y2="25.443" gradientUnits="userSpaceOnUse"><stop offset="0" stop-opacity=".1"></stop><stop offset="1" stop-opacity="0"></stop></linearGradient><path fill="url(#a)" d="M16 23H8a1.82 1.82 0 0 1-.26-.017l-.062-.009.375.75A.5.5 0 0 0 8.5 24h7a.5.5 0 0 0 .447-.276l.375-.75A1.95 1.95 0 0 1 16 23z"></path><path fill="#039BE5" d="M16 0H8l-.992 1.488A6 6 0 0 0 6 4.817V21a2 2 0 0 0 2 2h8a2 2 0 0 0 2-2V4.817a6 6 0 0 0-1.008-3.329L16 0z"></path><path fill="#FFCE51" d="M13 6l-5 7.5h3V18l5-7.5h-3z"></path><path d="M16 10.5l-5 7.25V18z" opacity=".1"></path><path fill="#FFF" d="M13 10.5v.25l3-.25zM8 13.5l5-7.25V6z" opacity=".2"></path><path d="M11 13.5v-.25l-3 .25z" opacity=".1"></path><path fill="#D0D5D9" d="M16.5 0h-9a.5.5 0 1 0 0 1h9a.5.5 0 1 0 0-1z"></path><path fill="#FFF" d="M7.415.25h9.17c.172 0 .322.089.414.217A.501.501 0 0 0 16.5 0h-9a.501.501 0 0 0-.499.467.513.513 0 0 1 .414-.217z" opacity=".2"></path><linearGradient id="b" x1="9.675" x2="20.326" y1="-1.35" y2="9.301" gradientUnits="userSpaceOnUse"><stop offset="0" stop-opacity=".1"></stop><stop offset="1" stop-opacity="0"></stop></linearGradient><path fill="url(#b)" d="M16.992 1.488l-.34-.512A.518.518 0 0 1 16.5 1h-9a.447.447 0 0 1-.117-.012L7.349.976 18 11.626v-6.81a6 6 0 0 0-1.008-3.328z"></path><linearGradient id="c" x1="3.535" x2="20.635" y1="7.819" y2="15.793" gradientUnits="userSpaceOnUse"><stop offset="0" stop-color="#FFF" stop-opacity=".2"></stop><stop offset="1" stop-color="#FFF" stop-opacity="0"></stop></linearGradient><path fill="url(#c)" d="M16.992 1.488L16.647.97A.494.494 0 0 0 17 .5a.5.5 0 0 0-.5-.5h-9a.5.5 0 0 0-.5.5c0 .224.15.407.353.47l-.345.518A6 6 0 0 0 6 4.817V21a2 2 0 0 0 1.74 1.983l-.062-.009.375.75A.5.5 0 0 0 8.5 24h7a.5.5 0 0 0 .447-.276l.375-.75A2 2 0 0 0 18 21V4.817a6 6 0 0 0-1.008-3.329z"></path></svg>