<?xml version="1.0" encoding="UTF-8"?>
<!DOCTYPE svg PUBLIC "-//W3C//DTD SVG 1.1//EN" "http://www.w3.org/Graphics/SVG/1.1/DTD/svg11.dtd">
<svg xmlns="http://www.w3.org/2000/svg" version="1.1" width="512px" height="512px" style="shape-rendering:geometricPrecision; text-rendering:geometricPrecision; image-rendering:optimizeQuality; fill-rule:evenodd; clip-rule:evenodd" xmlns:xlink="http://www.w3.org/1999/xlink">
<g><path style="opacity:0.995" fill="#ea9b58" d="M 396.5,-0.5 C 400.167,-0.5 403.833,-0.5 407.5,-0.5C 409.807,0.977392 411.64,2.97739 413,5.5C 415.77,15.0054 417.103,24.672 417,34.5C 416.215,36.286 415.049,37.786 413.5,39C 374.546,47.1242 335.546,55.1242 296.5,63C 294.622,64.5429 293.122,66.3762 292,68.5C 290.498,79.1887 288.998,89.8553 287.5,100.5C 284.023,123.064 281.023,145.73 278.5,168.5C 276.974,181.054 275.307,193.721 273.5,206.5C 270.768,227.491 268.101,248.491 265.5,269.5C 262.867,289.707 260.201,310.04 257.5,330.5C 253.863,333.306 250.696,336.639 248,340.5C 247.333,343.167 247.333,345.833 248,348.5C 249.662,351.649 251.495,354.649 253.5,357.5C 252.592,374.448 250.092,391.115 246,407.5C 242.749,409.909 239.082,410.909 235,410.5C 230.08,410.318 225.247,409.652 220.5,408.5C 215.833,404.5 211.5,400.167 207.5,395.5C 211.997,361.181 216.33,326.848 220.5,292.5C 222.959,288.187 223.959,283.52 223.5,278.5C 227.504,241.8 231.838,205.133 236.5,168.5C 239.984,146.034 242.984,123.368 245.5,100.5C 248.086,78.1438 250.92,55.8105 254,33.5C 254.792,31.4127 255.959,29.5793 257.5,28C 303.924,18.4158 350.257,8.91581 396.5,-0.5 Z"/></g>
<g><path style="opacity:0.997" fill="#fef2dd" d="M 245.5,100.5 C 242.984,123.368 239.984,146.034 236.5,168.5C 185.833,168.5 135.167,168.5 84.5,168.5C 80.5742,162.764 75.2409,158.597 68.5,156C 66.3834,154.269 64.8834,152.102 64,149.5C 63.3333,136.167 63.3333,122.833 64,109.5C 65.5,105.333 68.3333,102.5 72.5,101C 130.166,100.5 187.832,100.333 245.5,100.5 Z"/></g>
<g><path style="opacity:0.987" fill="#fee4c1" d="M 373.5,100.5 C 380.841,100.334 388.174,100.5 395.5,101C 399.499,101.668 402.332,103.835 404,107.5C 404.667,122.167 404.667,136.833 404,151.5C 400.407,156.084 395.907,159.584 390.5,162C 388.203,164.099 386.536,166.599 385.5,169.5C 374.167,169.5 362.833,169.5 351.5,169.5C 326.994,169.831 302.661,169.498 278.5,168.5C 302.833,168.5 327.167,168.5 351.5,168.5C 352.747,158.546 353.581,148.546 354,138.5C 356.784,132.656 361.284,128.49 367.5,126C 369,124.5 370.5,123 372,121.5C 373.425,114.615 373.925,107.615 373.5,100.5 Z"/></g>
<g><path style="opacity:1" fill="#fef2dd" d="M 287.5,100.5 C 316.167,100.5 344.833,100.5 373.5,100.5C 373.925,107.615 373.425,114.615 372,121.5C 370.5,123 369,124.5 367.5,126C 361.284,128.49 356.784,132.656 354,138.5C 353.581,148.546 352.747,158.546 351.5,168.5C 327.167,168.5 302.833,168.5 278.5,168.5C 281.023,145.73 284.023,123.064 287.5,100.5 Z"/></g>
<g><path style="opacity:0.997" fill="#febd86" d="M 84.5,168.5 C 135.167,168.5 185.833,168.5 236.5,168.5C 231.838,205.133 227.504,241.8 223.5,278.5C 211.729,266.228 199.729,254.062 187.5,242C 178.909,238.417 172.243,240.584 167.5,248.5C 158.868,256.631 150.368,264.964 142,273.5C 136.519,279.23 136.186,285.23 141,291.5C 147.702,298.369 154.535,305.036 161.5,311.5C 166.04,317.207 171.373,322.04 177.5,326C 181.962,326.846 185.962,325.846 189.5,323C 199.702,312.631 210.035,302.465 220.5,292.5C 216.33,326.848 211.997,361.181 207.5,395.5C 198.742,384.857 190.075,384.857 181.5,395.5C 172.202,405.298 162.702,414.965 153,424.5C 150.968,429.292 151.301,433.959 154,438.5C 161.035,445.703 168.202,452.703 175.5,459.5C 179.296,463.798 183.296,467.964 187.5,472C 191.375,473.52 195.375,473.854 199.5,473C 211.638,461.863 223.471,450.363 235,438.5C 238.232,433.468 238.232,428.468 235,423.5C 229.963,418.631 225.13,413.631 220.5,408.5C 225.247,409.652 230.08,410.318 235,410.5C 239.082,410.909 242.749,409.909 246,407.5C 250.092,391.115 252.592,374.448 253.5,357.5C 258.833,364.167 264.167,370.833 269.5,377.5C 271.869,382.049 274.869,386.215 278.5,390C 282.375,391.52 286.375,391.854 290.5,391C 302.5,382.333 314.5,373.667 326.5,365C 328.734,362.937 330.734,360.771 332.5,358.5C 330.139,380.8 328.139,403.133 326.5,425.5C 310.929,420.183 294.929,417.349 278.5,417C 274.463,419.075 272.796,422.408 273.5,427C 274.686,445.633 279.02,463.467 286.5,480.5C 229.167,480.5 171.833,480.5 114.5,480.5C 104.5,376.5 94.5,272.5 84.5,168.5 Z"/></g>
<g><path style="opacity:1" fill="#febd86" d="M 278.5,168.5 C 302.661,169.498 326.994,169.831 351.5,169.5C 345.058,231.626 338.724,293.626 332.5,355.5C 332.84,351.869 332.006,348.536 330,345.5C 320.955,333.244 311.788,321.077 302.5,309C 298.782,306.702 294.782,306.035 290.5,307C 286.362,309.315 282.695,312.148 279.5,315.5C 272.149,320.526 264.815,325.526 257.5,330.5C 260.201,310.04 262.867,289.707 265.5,269.5C 265.5,270.833 265.5,272.167 265.5,273.5C 277.918,276.461 290.585,278.794 303.5,280.5C 309.085,280.626 313.252,278.292 316,273.5C 319.97,256.324 322.637,238.991 324,221.5C 322.833,217.667 320.333,215.167 316.5,214C 306.832,212.119 297.166,210.286 287.5,208.5C 282.784,208.154 278.117,207.487 273.5,206.5C 275.307,193.721 276.974,181.054 278.5,168.5 Z"/></g>
<g><path style="opacity:1" fill="#f6a96c" d="M 351.5,169.5 C 362.833,169.5 374.167,169.5 385.5,169.5C 376.302,263.149 367.302,356.815 358.5,450.5C 353.397,444.895 348.064,439.395 342.5,434C 337.232,430.868 331.899,428.035 326.5,425.5C 328.139,403.133 330.139,380.8 332.5,358.5C 332.5,357.5 332.5,356.5 332.5,355.5C 338.724,293.626 345.058,231.626 351.5,169.5 Z"/></g>
<g><path style="opacity:1" fill="#fef2dc" d="M 273.5,206.5 C 278.117,207.487 282.784,208.154 287.5,208.5C 291.294,211.081 293.294,214.747 293.5,219.5C 290.755,234.463 288.255,249.463 286,264.5C 284.9,268.222 282.734,271.056 279.5,273C 274.845,273.499 270.179,273.666 265.5,273.5C 265.5,272.167 265.5,270.833 265.5,269.5C 268.101,248.491 270.768,227.491 273.5,206.5 Z"/></g>
<g><path style="opacity:1" fill="#ffe4c1" d="M 287.5,208.5 C 297.166,210.286 306.832,212.119 316.5,214C 320.333,215.167 322.833,217.667 324,221.5C 322.637,238.991 319.97,256.324 316,273.5C 313.252,278.292 309.085,280.626 303.5,280.5C 290.585,278.794 277.918,276.461 265.5,273.5C 270.179,273.666 274.845,273.499 279.5,273C 282.734,271.056 284.9,268.222 286,264.5C 288.255,249.463 290.755,234.463 293.5,219.5C 293.294,214.747 291.294,211.081 287.5,208.5 Z"/></g>
<g><path style="opacity:1" fill="#fee4c1" d="M 223.5,278.5 C 223.959,283.52 222.959,288.187 220.5,292.5C 210.035,302.465 199.702,312.631 189.5,323C 185.962,325.846 181.962,326.846 177.5,326C 171.373,322.04 166.04,317.207 161.5,311.5C 171.746,302.758 181.579,293.425 191,283.5C 193,279.167 193,274.833 191,270.5C 183.578,262.573 175.745,255.24 167.5,248.5C 172.243,240.584 178.909,238.417 187.5,242C 199.729,254.062 211.729,266.228 223.5,278.5 Z"/></g>
<g><path style="opacity:1" fill="#fff2dd" d="M 167.5,248.5 C 175.745,255.24 183.578,262.573 191,270.5C 193,274.833 193,279.167 191,283.5C 181.579,293.425 171.746,302.758 161.5,311.5C 154.535,305.036 147.702,298.369 141,291.5C 136.186,285.23 136.519,279.23 142,273.5C 150.368,264.964 158.868,256.631 167.5,248.5 Z"/></g>
<g><path style="opacity:1" fill="#ffe4c1" d="M 332.5,355.5 C 332.5,356.5 332.5,357.5 332.5,358.5C 330.734,360.771 328.734,362.937 326.5,365C 314.5,373.667 302.5,382.333 290.5,391C 286.375,391.854 282.375,391.52 278.5,390C 274.869,386.215 271.869,382.049 269.5,377.5C 278.471,371.009 287.471,364.509 296.5,358C 301.211,353.86 302.711,348.694 301,342.5C 294.645,332.668 287.479,323.668 279.5,315.5C 282.695,312.148 286.362,309.315 290.5,307C 294.782,306.035 298.782,306.702 302.5,309C 311.788,321.077 320.955,333.244 330,345.5C 332.006,348.536 332.84,351.869 332.5,355.5 Z"/></g>
<g><path style="opacity:1" fill="#fef2dd" d="M 279.5,315.5 C 287.479,323.668 294.645,332.668 301,342.5C 302.711,348.694 301.211,353.86 296.5,358C 287.471,364.509 278.471,371.009 269.5,377.5C 264.167,370.833 258.833,364.167 253.5,357.5C 251.495,354.649 249.662,351.649 248,348.5C 247.333,345.833 247.333,343.167 248,340.5C 250.696,336.639 253.863,333.306 257.5,330.5C 264.815,325.526 272.149,320.526 279.5,315.5 Z"/></g>
<g><path style="opacity:1" fill="#ffe4c1" d="M 207.5,395.5 C 211.5,400.167 215.833,404.5 220.5,408.5C 225.13,413.631 229.963,418.631 235,423.5C 238.232,428.468 238.232,433.468 235,438.5C 223.471,450.363 211.638,461.863 199.5,473C 195.375,473.854 191.375,473.52 187.5,472C 183.296,467.964 179.296,463.798 175.5,459.5C 185.079,451.425 194.246,442.758 203,433.5C 207.076,428.385 207.409,423.052 204,417.5C 196.632,409.964 189.132,402.631 181.5,395.5C 190.075,384.857 198.742,384.857 207.5,395.5 Z"/></g>
<g><path style="opacity:1" fill="#fff2dd" d="M 181.5,395.5 C 189.132,402.631 196.632,409.964 204,417.5C 207.409,423.052 207.076,428.385 203,433.5C 194.246,442.758 185.079,451.425 175.5,459.5C 168.202,452.703 161.035,445.703 154,438.5C 151.301,433.959 150.968,429.292 153,424.5C 162.702,414.965 172.202,405.298 181.5,395.5 Z"/></g>
<g><path style="opacity:0.99" fill="#9be69d" d="M 390.5,511.5 C 384.5,511.5 378.5,511.5 372.5,511.5C 367.908,510.203 363.908,507.87 360.5,504.5C 352.938,494.814 350.438,483.814 353,471.5C 354.909,465.361 357.075,459.361 359.5,453.5C 371.596,434.595 388.929,423.429 411.5,420C 421.707,417.493 432.04,416.493 442.5,417C 445.558,418.941 447.225,421.774 447.5,425.5C 446.104,445.083 441.271,463.75 433,481.5C 422.492,496.824 408.326,506.824 390.5,511.5 Z"/></g>
<g><path style="opacity:0.999" fill="#3fc2a3" d="M 326.5,425.5 C 331.899,428.035 337.232,430.868 342.5,434C 348.064,439.395 353.397,444.895 358.5,450.5C 359.11,451.391 359.443,452.391 359.5,453.5C 357.075,459.361 354.909,465.361 353,471.5C 350.438,483.814 352.938,494.814 360.5,504.5C 356.546,507.642 352.213,509.975 347.5,511.5C 341.833,511.5 336.167,511.5 330.5,511.5C 312.047,506.602 297.381,496.268 286.5,480.5C 279.02,463.467 274.686,445.633 273.5,427C 272.796,422.408 274.463,419.075 278.5,417C 294.929,417.349 310.929,420.183 326.5,425.5 Z"/></g>
<g><path style="opacity:1" fill="#00a887" d="M 314.5,454.5 C 316.857,454.337 319.19,454.503 321.5,455C 329.667,463.167 337.833,471.333 346,479.5C 348.233,487.608 345.066,491.108 336.5,490C 328.333,481.833 320.167,473.667 312,465.5C 309.592,461.034 310.425,457.367 314.5,454.5 Z"/></g>
<g><path style="opacity:1" fill="#baf39b" d="M 398.5,454.5 C 407.347,453.59 410.514,457.256 408,465.5C 400.167,473.333 392.333,481.167 384.5,489C 378.162,492.224 374.162,490.391 372.5,483.5C 372.719,482.062 373.219,480.729 374,479.5C 382.369,471.298 390.536,462.965 398.5,454.5 Z"/></g>
<g><path style="opacity:1" fill="#f5a96c" d="M 114.5,480.5 C 171.833,480.5 229.167,480.5 286.5,480.5C 297.381,496.268 312.047,506.602 330.5,511.5C 264.833,511.5 199.167,511.5 133.5,511.5C 126.709,509.176 121.542,504.843 118,498.5C 116.244,492.572 115.078,486.572 114.5,480.5 Z"/></g>
</svg>
