<?xml version="1.0" encoding="UTF-8"?>
<!DOCTYPE svg PUBLIC "-//W3C//DTD SVG 1.1//EN" "http://www.w3.org/Graphics/SVG/1.1/DTD/svg11.dtd">
<svg xmlns="http://www.w3.org/2000/svg" version="1.1" width="512px" height="512px" style="shape-rendering:geometricPrecision; text-rendering:geometricPrecision; image-rendering:optimizeQuality; fill-rule:evenodd; clip-rule:evenodd" xmlns:xlink="http://www.w3.org/1999/xlink">
<g><path style="opacity:0.982" fill="#e21616" d="M 229.5,-0.5 C 246.833,-0.5 264.167,-0.5 281.5,-0.5C 285.614,2.12126 288.447,5.78792 290,10.5C 290.667,17.5 290.667,24.5 290,31.5C 288.924,34.079 287.091,35.7457 284.5,36.5C 265.167,36.5 245.833,36.5 226.5,36.5C 223.909,35.7457 222.076,34.079 221,31.5C 220.333,24.5 220.333,17.5 221,10.5C 222.553,5.78792 225.386,2.12126 229.5,-0.5 Z"/></g>
<g><path style="opacity:1" fill="#8b381e" d="M 226.5,36.5 C 245.833,36.5 265.167,36.5 284.5,36.5C 304.836,56.3345 325.669,75.6679 347,94.5C 351.338,100.176 354.338,106.51 356,113.5C 356.667,136.167 356.667,158.833 356,181.5C 352.751,189.246 346.918,193.246 338.5,193.5C 339.79,169.957 339.79,146.123 338.5,122C 277.168,121.5 215.834,121.333 154.5,121.5C 154.124,116.106 155.124,111.106 157.5,106.5C 215.171,106.833 272.837,106.5 330.5,105.5C 329.018,103.517 327.351,101.684 325.5,100C 270.665,99.8328 215.998,99.3328 161.5,98.5C 165.5,92.5 170.5,87.5 176.5,83.5C 219.835,83.6667 263.168,83.5 306.5,83C 295.833,73 285.167,63 274.5,53C 253.169,52.5 231.836,52.3334 210.5,52.5C 216.14,47.5271 221.473,42.1937 226.5,36.5 Z"/></g>
<g><path style="opacity:0.99" fill="#a14122" d="M 210.5,52.5 C 231.836,52.3334 253.169,52.5 274.5,53C 285.167,63 295.833,73 306.5,83C 263.168,83.5 219.835,83.6667 176.5,83.5C 187.413,72.7093 198.747,62.376 210.5,52.5 Z"/></g>
<g><path style="opacity:0.995" fill="#a14122" d="M 161.5,98.5 C 215.998,99.3328 270.665,99.8328 325.5,100C 327.351,101.684 329.018,103.517 330.5,105.5C 272.837,106.5 215.171,106.833 157.5,106.5C 158.326,103.515 159.659,100.849 161.5,98.5 Z"/></g>
<g><path style="opacity:0.996" fill="#a14122" d="M 154.5,121.5 C 215.834,121.333 277.168,121.5 338.5,122C 339.79,146.123 339.79,169.957 338.5,193.5C 332.843,194.142 328.843,197.142 326.5,202.5C 319.66,201.67 314.16,204.003 310,209.5C 308.393,218.064 308.06,226.73 309,235.5C 310.01,239.843 312.51,243.01 316.5,245C 326.751,244.505 334.251,248.672 339,257.5C 339.495,259.473 339.662,261.473 339.5,263.5C 277.833,263.5 216.167,263.5 154.5,263.5C 151.873,245.554 159.54,236.054 177.5,235C 184.829,230.372 187.495,223.706 185.5,215C 187.493,206.337 184.826,199.67 177.5,195C 167.006,195.181 159.506,190.681 155,181.5C 154.5,161.503 154.333,141.503 154.5,121.5 Z"/></g>
<g><path style="opacity:1" fill="#8b381e" d="M 185.5,149.5 C 188.649,149.211 191.649,149.711 194.5,151C 195.71,154.163 197.376,156.996 199.5,159.5C 201.264,156.817 202.931,153.984 204.5,151C 214.102,147.931 218.268,151.431 217,161.5C 211.892,172.803 203.392,176.636 191.5,173C 181.431,166.822 179.431,158.989 185.5,149.5 Z"/></g>
<g><path style="opacity:1" fill="#8b381e" d="M 241.5,149.5 C 248.288,148.131 252.122,150.798 253,157.5C 254.667,160.167 256.333,160.167 258,157.5C 258.881,150.636 262.714,148.136 269.5,150C 273.277,152.955 274.443,156.788 273,161.5C 268.12,173.187 259.62,177.021 247.5,173C 237.431,166.822 235.431,158.989 241.5,149.5 Z"/></g>
<g><path style="opacity:1" fill="#8b381e" d="M 297.5,149.5 C 300.649,149.211 303.649,149.711 306.5,151C 308.069,153.984 309.736,156.817 311.5,159.5C 313.624,156.996 315.29,154.163 316.5,151C 326.102,147.931 330.268,151.431 329,161.5C 322.828,174.422 313.328,177.589 300.5,171C 292.707,164.479 291.707,157.312 297.5,149.5 Z"/></g>
<g><path style="opacity:1" fill="#8c371d" d="M 326.5,202.5 C 325.057,211.499 325.224,220.499 327,229.5C 328.873,231.709 331.04,233.542 333.5,235C 340.315,235.442 346.482,237.609 352,241.5C 353,243.167 354,244.833 355,246.5C 356.431,257.422 356.931,268.422 356.5,279.5C 350.833,279.5 345.167,279.5 339.5,279.5C 277.833,279.5 216.167,279.5 154.5,279.5C 154.5,274.167 154.5,268.833 154.5,263.5C 216.167,263.5 277.833,263.5 339.5,263.5C 339.662,261.473 339.495,259.473 339,257.5C 334.251,248.672 326.751,244.505 316.5,245C 312.51,243.01 310.01,239.843 309,235.5C 308.06,226.73 308.393,218.064 310,209.5C 314.16,204.003 319.66,201.67 326.5,202.5 Z"/></g>
<g><path style="opacity:1" fill="#e11817" d="M 154.5,279.5 C 216.167,279.5 277.833,279.5 339.5,279.5C 339.5,298.833 339.5,318.167 339.5,337.5C 316.454,352.572 291.121,361.406 263.5,364C 242.475,364.126 221.475,364.793 200.5,366C 184.713,368.613 169.38,372.779 154.5,378.5C 154.5,345.5 154.5,312.5 154.5,279.5 Z"/></g>
<g><path style="opacity:1" fill="#c5030b" d="M 339.5,279.5 C 345.167,279.5 350.833,279.5 356.5,279.5C 356.5,294.167 356.5,308.833 356.5,323.5C 351.017,328.406 345.351,333.072 339.5,337.5C 339.5,318.167 339.5,298.833 339.5,279.5 Z"/></g>
<g><path style="opacity:1" fill="#f8e1cd" d="M 178.5,298.5 C 189.172,298.333 199.839,298.5 210.5,299C 219.067,302.847 219.733,307.847 212.5,314C 200.5,314.667 188.5,314.667 176.5,314C 172.723,311.045 171.557,307.212 173,302.5C 174.5,300.531 176.333,299.198 178.5,298.5 Z"/></g>
<g><path style="opacity:1" fill="#f8e5d1" d="M 176.5,319.5 C 182.262,319.149 187.928,319.649 193.5,321C 196.886,324.373 197.386,328.206 195,332.5C 194.25,333.126 193.416,333.626 192.5,334C 186.388,334.909 180.388,334.576 174.5,333C 171.397,327.886 172.064,323.386 176.5,319.5 Z"/></g>
<g><path style="opacity:1" fill="#f8e6d2" d="M 356.5,323.5 C 356.5,335.833 356.5,348.167 356.5,360.5C 350.477,364.865 344.477,369.199 338.5,373.5C 331.964,376.265 325.297,378.765 318.5,381C 268.358,384.487 223.025,400.821 182.5,430C 174.341,436.328 166.675,443.161 159.5,450.5C 157.833,450.5 156.167,450.5 154.5,450.5C 154.5,426.5 154.5,402.5 154.5,378.5C 169.38,372.779 184.713,368.613 200.5,366C 221.475,364.793 242.475,364.126 263.5,364C 291.121,361.406 316.454,352.572 339.5,337.5C 345.351,333.072 351.017,328.406 356.5,323.5 Z"/></g>
<g><path style="opacity:1" fill="#c5020b" d="M 356.5,360.5 C 356.5,390.5 356.5,420.5 356.5,450.5C 350.833,450.5 345.167,450.5 339.5,450.5C 339.826,442.316 339.492,434.316 338.5,426.5C 339.833,423.5 339.833,420.5 338.5,417.5C 339.833,402.833 339.833,388.167 338.5,373.5C 344.477,369.199 350.477,364.865 356.5,360.5 Z"/></g>
<g><path style="opacity:1" fill="#e21818" d="M 338.5,373.5 C 339.833,388.167 339.833,402.833 338.5,417.5C 337.571,416.685 336.571,415.852 335.5,415C 325.5,414.333 315.5,414.333 305.5,415C 299.271,419.171 298.938,423.837 304.5,429C 314.833,429.667 325.167,429.667 335.5,429C 336.942,428.623 337.942,427.79 338.5,426.5C 339.492,434.316 339.826,442.316 339.5,450.5C 279.5,450.5 219.5,450.5 159.5,450.5C 166.675,443.161 174.341,436.328 182.5,430C 223.025,400.821 268.358,384.487 318.5,381C 325.297,378.765 331.964,376.265 338.5,373.5 Z"/></g>
<g><path style="opacity:1" fill="#f8e5d1" d="M 338.5,417.5 C 339.833,420.5 339.833,423.5 338.5,426.5C 337.942,427.79 336.942,428.623 335.5,429C 325.167,429.667 314.833,429.667 304.5,429C 298.938,423.837 299.271,419.171 305.5,415C 315.5,414.333 325.5,414.333 335.5,415C 336.571,415.852 337.571,416.685 338.5,417.5 Z"/></g>
<g><path style="opacity:1" fill="#8b381e" d="M 154.5,450.5 C 156.167,450.5 157.833,450.5 159.5,450.5C 219.5,450.5 279.5,450.5 339.5,450.5C 345.167,450.5 350.833,450.5 356.5,450.5C 356.666,460.172 356.5,469.839 356,479.5C 351.959,494.957 342.459,505.29 327.5,510.5C 332.353,504.132 336.187,497.132 339,489.5C 340.164,481.541 340.664,473.541 340.5,465.5C 278.5,465.5 216.5,465.5 154.5,465.5C 154.5,460.5 154.5,455.5 154.5,450.5 Z"/></g>
<g><path style="opacity:0.994" fill="#a14122" d="M 154.5,465.5 C 216.5,465.5 278.5,465.5 340.5,465.5C 340.664,473.541 340.164,481.541 339,489.5C 336.187,497.132 332.353,504.132 327.5,510.5C 326.508,510.328 325.842,510.662 325.5,511.5C 278.833,511.5 232.167,511.5 185.5,511.5C 163.372,504.334 153.038,489.001 154.5,465.5 Z"/></g>
</svg>
