<?xml version="1.0" encoding="UTF-8"?>
<!DOCTYPE svg PUBLIC "-//W3C//DTD SVG 1.1//EN" "http://www.w3.org/Graphics/SVG/1.1/DTD/svg11.dtd">
<svg xmlns="http://www.w3.org/2000/svg" version="1.1" width="128px" height="128px" style="shape-rendering:geometricPrecision; text-rendering:geometricPrecision; image-rendering:optimizeQuality; fill-rule:evenodd; clip-rule:evenodd" xmlns:xlink="http://www.w3.org/1999/xlink">
<g><path style="opacity:0.991" fill="#2e2e2e" d="M 26.5,-0.5 C 51.1667,-0.5 75.8333,-0.5 100.5,-0.5C 101.904,6.07473 105.738,10.0747 112,11.5C 112.667,16.5 112.667,21.5 112,26.5C 110.301,27.4061 108.467,27.7394 106.5,27.5C 104.393,26.5318 102.059,26.1984 99.5,26.5C 99.5,21.5 99.5,16.5 99.5,11.5C 72.9947,11.8312 46.6614,11.4978 20.5,10.5C 23.2583,7.32198 25.2583,3.65531 26.5,-0.5 Z"/></g>
<g><path style="opacity:0.989" fill="#484848" d="M 20.5,10.5 C 46.6614,11.4978 72.9947,11.8312 99.5,11.5C 99.5,16.5 99.5,21.5 99.5,26.5C 102.059,26.1984 104.393,26.5318 106.5,27.5C 77.6768,26.231 49.0101,26.231 20.5,27.5C 18.5328,27.7394 16.6995,27.4061 15,26.5C 14.3333,21.5 14.3333,16.5 15,11.5C 16.6995,10.5939 18.5328,10.2606 20.5,10.5 Z"/></g>
<g><path style="opacity:0.996" fill="#dfdfdf" d="M 20.5,27.5 C 45.5,27.5 70.5,27.5 95.5,27.5C 94.9631,32.8506 94.2965,38.1839 93.5,43.5C 69.8333,43.5 46.1667,43.5 22.5,43.5C 22.1667,43.5 21.8333,43.5 21.5,43.5C 21.0199,38.1779 20.6865,32.8446 20.5,27.5 Z"/></g>
<g><path style="opacity:1" fill="#c6bab0" d="M 20.5,27.5 C 49.0101,26.231 77.6768,26.231 106.5,27.5C 106.313,32.8446 105.98,38.1779 105.5,43.5C 102.721,43.2786 100.054,43.612 97.5,44.5C 72.3278,44.831 47.3278,44.4977 22.5,43.5C 46.1667,43.5 69.8333,43.5 93.5,43.5C 94.2965,38.1839 94.9631,32.8506 95.5,27.5C 70.5,27.5 45.5,27.5 20.5,27.5 Z"/></g>
<g><path style="opacity:0.99" fill="#fe8f17" d="M 21.5,43.5 C 21.8333,43.5 22.1667,43.5 22.5,43.5C 47.3278,44.4977 72.3278,44.831 97.5,44.5C 95.5032,62.1344 93.8366,79.801 92.5,97.5C 70.9935,97.1694 49.6601,97.5027 28.5,98.5C 26.8561,98.7135 25.3561,98.3802 24,97.5C 21.2723,79.6268 19.4389,61.7935 18.5,44C 19.448,43.5172 20.448,43.3505 21.5,43.5 Z"/></g>
<g><path style="opacity:1" fill="#ed7d0d" d="M 105.5,43.5 C 107.948,43.0847 109.281,44.0847 109.5,46.5C 107.37,63.5012 105.204,80.5012 103,97.5C 101.644,98.3802 100.144,98.7135 98.5,98.5C 96.7354,97.5386 94.7354,97.2053 92.5,97.5C 93.8366,79.801 95.5032,62.1344 97.5,44.5C 100.054,43.612 102.721,43.2786 105.5,43.5 Z"/></g>
<g><path style="opacity:1" fill="#492113" d="M 65.5,55.5 C 66.1667,55.5 66.8333,55.5 67.5,55.5C 66.035,58.2636 64.7017,61.097 63.5,64C 64.245,66.9922 65.4117,69.8256 67,72.5C 67.8912,76.3716 67.3912,80.0382 65.5,83.5C 63.9547,84.4519 62.288,84.7852 60.5,84.5C 64.211,79.3259 64.3776,73.9925 61,68.5C 60.3333,65.5 60.3333,62.5 61,59.5C 61.8763,57.3645 63.3763,56.0312 65.5,55.5 Z"/></g>
<g><path style="opacity:1" fill="#7d3e1d" d="M 65.5,55.5 C 63.3763,56.0312 61.8763,57.3645 61,59.5C 60.3333,62.5 60.3333,65.5 61,68.5C 64.3776,73.9925 64.211,79.3259 60.5,84.5C 56.2462,83.4148 53.4129,80.7482 52,76.5C 49.0017,65.6505 52.8351,58.3172 63.5,54.5C 64.4164,54.5427 65.0831,54.8761 65.5,55.5 Z"/></g>
<g><path style="opacity:1" fill="#663118" d="M 67.5,55.5 C 78.1847,63.478 79.1847,72.6447 70.5,83C 67.2662,85.3759 63.9329,85.8759 60.5,84.5C 62.288,84.7852 63.9547,84.4519 65.5,83.5C 67.3912,80.0382 67.8912,76.3716 67,72.5C 65.4117,69.8256 64.245,66.9922 63.5,64C 64.7017,61.097 66.035,58.2636 67.5,55.5 Z"/></g>
<g><path style="opacity:0.995" fill="#dfdfdf" d="M 28.5,98.5 C 48.1695,98.3334 67.8362,98.5 87.5,99C 86.2491,108.427 85.2491,117.927 84.5,127.5C 66.8333,127.5 49.1667,127.5 31.5,127.5C 30.2805,117.858 29.2805,108.191 28.5,98.5 Z"/></g>
<g><path style="opacity:1" fill="#cdc5bd" d="M 28.5,98.5 C 49.6601,97.5027 70.9935,97.1694 92.5,97.5C 94.7354,97.2053 96.7354,97.5386 98.5,98.5C 97.7195,108.191 96.7195,117.858 95.5,127.5C 91.8333,127.5 88.1667,127.5 84.5,127.5C 85.2491,117.927 86.2491,108.427 87.5,99C 67.8362,98.5 48.1695,98.3334 28.5,98.5 Z"/></g>
</svg>
