<svg xmlns="http://www.w3.org/2000/svg" enable-background="new 0 0 512 512" viewBox="0 0 512 512" id="soda"><path fill="#f44336" d="M274.214,197.432c-0.554,0-1.116-0.049-1.68-0.15c-5.162-0.922-8.599-5.853-7.677-11.015l29.359-164.413
			c0.726-4.066,3.997-7.196,8.091-7.742L408.002,0.021c5.196-0.698,9.972,2.958,10.665,8.156c0.693,5.198-2.958,9.972-8.156,10.665
			l-98.822,13.177l-28.141,157.587C282.728,194.203,278.726,197.432,274.214,197.432z"></path><line x1="311.689" x2="283.549" y1="32.018" y2="189.605" fill="#f44336"></line><path fill="#f44336" d="M392.228,135.09l-13.447,128.136l-14.586,138.999l-6.424,61.291c-2.877,27.516-25.895,48.549-52.389,48.549
			h-98.765c-26.494,0-49.512-21.033-52.389-48.549l-12.014-114.49l-15.337-146.186l-7.105-67.75H392.228z"></path><path fill="#eceff1" d="M333.907,79.894H176.919c-32.858,0-59.495,26.637-59.495,59.495v14.49h275.979v-14.49
		C393.402,106.531,366.765,79.894,333.907,79.894z"></path><path fill="#8c3e42" d="M389.077,160.011c-0.215,0.565-0.448,1.111-0.722,1.658c0-0.41-0.02-0.819-0.039-1.229
			C388.569,160.304,388.823,160.167,389.077,160.011z"></path><path fill="#d42e30" d="M332.746,135.09l-11.983,114.228l58.018,13.908l-14.586,138.999l-58.015-13.904l-4.192,39.963
				c-2.877,27.516-25.895,48.549-52.389,48.549h-92.271c7.657,20.704,27.269,35.231,49.289,35.231h98.765
				c26.494,0,49.512-21.033,52.389-48.549l34.456-328.426H332.746z"></path><polygon fill="#f1f1f1" points="126.877 202.839 142.215 349.026 306.181 388.322 320.763 249.318"></polygon><polygon fill="#cdd1d3" points="378.781 263.226 320.763 249.318 306.181 388.322 364.195 402.225"></polygon><g><path fill="#b0bcc1" d="M421,143.31c0,0.798-0.047,1.585-0.141,2.349c-0.528,4.58-2.607,8.667-5.707,11.767
			c-3.617,3.617-8.596,5.848-14.116,5.848H110.964c-10.229,0-18.661-7.692-19.823-17.616c-0.094-0.763-0.141-1.55-0.141-2.349
			c0-5.52,2.231-10.499,5.848-14.116c3.617-3.617,8.596-5.848,14.116-5.848h290.071C412.063,123.346,421,132.283,421,143.31z"></path></g><g><path fill="#cfd8dc" d="M421,143.31c0,0.798-0.047,1.585-0.141,2.349H91.141c-0.094-0.763-0.141-1.55-0.141-2.349
			c0-5.52,2.231-10.499,5.848-14.116c3.617-3.617,8.596-5.848,14.116-5.848h290.071C412.063,123.346,421,132.283,421,143.31z"></path></g></svg>