<?xml version="1.0" encoding="UTF-8"?>
<!DOCTYPE svg PUBLIC "-//W3C//DTD SVG 1.1//EN" "http://www.w3.org/Graphics/SVG/1.1/DTD/svg11.dtd">
<svg xmlns="http://www.w3.org/2000/svg" version="1.1" width="512px" height="512px" style="shape-rendering:geometricPrecision; text-rendering:geometricPrecision; image-rendering:optimizeQuality; fill-rule:evenodd; clip-rule:evenodd" xmlns:xlink="http://www.w3.org/1999/xlink">
<g><path style="opacity:0.984" fill="#fd5555" d="M 215.5,-0.5 C 231.5,-0.5 247.5,-0.5 263.5,-0.5C 263.783,0.28913 264.283,0.955796 265,1.5C 265.667,20.8333 265.667,40.1667 265,59.5C 264.283,60.0442 263.783,60.7109 263.5,61.5C 261.833,61.5 260.167,61.5 258.5,61.5C 246.167,61.5 233.833,61.5 221.5,61.5C 219.473,61.6621 217.473,61.4955 215.5,61C 214.874,60.2496 214.374,59.4162 214,58.5C 213.333,39.8333 213.333,21.1667 214,2.5C 214.513,1.47344 215.013,0.473444 215.5,-0.5 Z"/></g>
<g><path style="opacity:1" fill="#e84141" d="M 263.5,-0.5 C 274.167,-0.5 284.833,-0.5 295.5,-0.5C 295.987,0.473444 296.487,1.47344 297,2.5C 297.667,21.1667 297.667,39.8333 297,58.5C 296.626,59.4162 296.126,60.2496 295.5,61C 293.527,61.4955 291.527,61.6621 289.5,61.5C 280.833,61.5 272.167,61.5 263.5,61.5C 263.783,60.7109 264.283,60.0442 265,59.5C 265.667,40.1667 265.667,20.8333 265,1.5C 264.283,0.955796 263.783,0.28913 263.5,-0.5 Z"/></g>
<g><path style="opacity:0.987" fill="#bcf7fd" d="M 221.5,61.5 C 233.833,61.5 246.167,61.5 258.5,61.5C 259.77,81.1481 266.27,98.8148 278,114.5C 288.752,115.487 299.585,115.82 310.5,115.5C 311.167,115.5 311.5,115.833 311.5,116.5C 301.167,116.5 290.833,116.5 280.5,116.5C 253.5,116.5 226.5,116.5 199.5,116.5C 212.302,100.441 219.636,82.1073 221.5,61.5 Z"/></g>
<g><path style="opacity:1" fill="#8cf2ff" d="M 258.5,61.5 C 260.167,61.5 261.833,61.5 263.5,61.5C 272.167,61.5 280.833,61.5 289.5,61.5C 291.404,81.5557 298.404,99.5557 310.5,115.5C 299.585,115.82 288.752,115.487 278,114.5C 266.27,98.8148 259.77,81.1481 258.5,61.5 Z"/></g>
<g><path style="opacity:1" fill="#804d36" d="M 199.5,116.5 C 226.5,116.5 253.5,116.5 280.5,116.5C 287.833,125.337 295,134.337 302,143.5C 313.41,161.139 318.577,180.472 317.5,201.5C 265.833,201.5 214.167,201.5 162.5,201.5C 161.133,178.772 166.966,158.105 180,139.5C 186.365,131.642 192.865,123.975 199.5,116.5 Z"/></g>
<g><path style="opacity:1" fill="#663c2a" d="M 280.5,116.5 C 290.833,116.5 301.167,116.5 311.5,116.5C 323.746,129.264 333.912,143.597 342,159.5C 347.306,173.006 349.473,187.006 348.5,201.5C 338.167,201.5 327.833,201.5 317.5,201.5C 318.577,180.472 313.41,161.139 302,143.5C 295,134.337 287.833,125.337 280.5,116.5 Z"/></g>
<g><path style="opacity:1" fill="#fe5555" d="M 162.5,202.5 C 214.167,202.5 265.833,202.5 317.5,202.5C 317.5,284.5 317.5,366.5 317.5,448.5C 265.833,448.5 214.167,448.5 162.5,448.5C 162.5,366.5 162.5,284.5 162.5,202.5 Z"/></g>
<g><path style="opacity:1" fill="#e64141" d="M 162.5,202.5 C 162.5,202.167 162.5,201.833 162.5,201.5C 214.167,201.5 265.833,201.5 317.5,201.5C 327.833,201.5 338.167,201.5 348.5,201.5C 348.5,284.167 348.5,366.833 348.5,449.5C 338.167,449.5 327.833,449.5 317.5,449.5C 265.833,449.5 214.167,449.5 162.5,449.5C 162.5,449.167 162.5,448.833 162.5,448.5C 214.167,448.5 265.833,448.5 317.5,448.5C 317.5,366.5 317.5,284.5 317.5,202.5C 265.833,202.5 214.167,202.5 162.5,202.5 Z"/></g>
<g><path style="opacity:1" fill="#ffefcf" d="M 248.5,257.5 C 269.174,256.752 285.007,265.086 296,282.5C 312.561,313.85 310.895,344.183 291,373.5C 267.261,397.458 243.594,397.458 220,373.5C 199.288,342.78 198.288,311.447 217,279.5C 224.964,268.344 235.464,261.011 248.5,257.5 Z"/></g>
<g><path style="opacity:1" fill="#804d36" d="M 162.5,449.5 C 214.167,449.5 265.833,449.5 317.5,449.5C 320.847,482.896 306.514,503.562 274.5,511.5C 250.167,511.5 225.833,511.5 201.5,511.5C 171.899,501.689 158.899,481.023 162.5,449.5 Z"/></g>
<g><path style="opacity:1" fill="#673c2b" d="M 317.5,449.5 C 327.833,449.5 338.167,449.5 348.5,449.5C 352.101,481.023 339.101,501.689 309.5,511.5C 297.833,511.5 286.167,511.5 274.5,511.5C 306.514,503.562 320.847,482.896 317.5,449.5 Z"/></g>
</svg>
