<?xml version="1.0" encoding="UTF-8"?>
<!DOCTYPE svg PUBLIC "-//W3C//DTD SVG 1.1//EN" "http://www.w3.org/Graphics/SVG/1.1/DTD/svg11.dtd">
<svg xmlns="http://www.w3.org/2000/svg" version="1.1" width="512px" height="512px" style="shape-rendering:geometricPrecision; text-rendering:geometricPrecision; image-rendering:optimizeQuality; fill-rule:evenodd; clip-rule:evenodd" xmlns:xlink="http://www.w3.org/1999/xlink">
<g><path style="opacity:1" fill="#ff636e" d="M 281.5,-0.5 C 288.167,-0.5 294.833,-0.5 301.5,-0.5C 288.431,3.39593 279.265,11.7293 274,24.5C 267.688,54.0786 261.855,83.7453 256.5,113.5C 250.167,113.5 243.833,113.5 237.5,113.5C 242.882,83.7587 248.715,54.092 255,24.5C 260.143,12.189 268.976,3.8557 281.5,-0.5 Z"/></g>
<g><path style="opacity:0.986" fill="#ff7e86" d="M 301.5,-0.5 C 317.833,-0.5 334.167,-0.5 350.5,-0.5C 361.001,5.82852 363.501,14.4952 358,25.5C 356.062,28.1059 353.562,29.9392 350.5,31C 330.5,31.3333 310.5,31.6667 290.5,32C 289.069,32.4652 287.903,33.2986 287,34.5C 281.429,60.8543 275.929,87.1876 270.5,113.5C 265.833,113.5 261.167,113.5 256.5,113.5C 261.855,83.7453 267.688,54.0786 274,24.5C 279.265,11.7293 288.431,3.39593 301.5,-0.5 Z"/></g>
<g><path style="opacity:0.997" fill="#b5dcfe" d="M 181.5,113.5 C 200.167,113.5 218.833,113.5 237.5,113.5C 243.833,113.5 250.167,113.5 256.5,113.5C 261.167,113.5 265.833,113.5 270.5,113.5C 307.835,113.333 345.168,113.5 382.5,114C 386.219,115.263 388.719,117.763 390,121.5C 390.5,128.826 390.666,136.159 390.5,143.5C 318.002,144.499 245.335,144.833 172.5,144.5C 172.334,136.826 172.5,129.159 173,121.5C 175.074,117.923 177.907,115.256 181.5,113.5 Z"/></g>
<g><path style="opacity:1" fill="#9dc6fb" d="M 181.5,113.5 C 177.907,115.256 175.074,117.923 173,121.5C 172.5,129.159 172.334,136.826 172.5,144.5C 168.833,144.5 165.167,144.5 161.5,144.5C 147.656,144.829 133.99,144.496 120.5,143.5C 120.334,136.159 120.5,128.826 121,121.5C 122.167,117.667 124.667,115.167 128.5,114C 146.164,113.5 163.83,113.333 181.5,113.5 Z"/></g>
<g><path style="opacity:0.993" fill="#b7dafd" d="M 120.5,143.5 C 133.99,144.496 147.656,144.829 161.5,144.5C 159.866,145.972 158.366,147.638 157,149.5C 156.333,159.833 156.333,170.167 157,180.5C 157.785,182.286 158.951,183.786 160.5,185C 237.334,185.167 314.001,185.667 390.5,186.5C 317.833,186.5 245.167,186.5 172.5,186.5C 155.167,186.5 137.833,186.5 120.5,186.5C 116.818,186.665 113.152,186.499 109.5,186C 107.667,184.833 106.167,183.333 105,181.5C 104.833,176.167 104.667,170.833 104.5,165.5C 104.376,159.395 104.876,153.395 106,147.5C 110.166,143.973 114.999,142.64 120.5,143.5 Z"/></g>
<g><path style="opacity:0.999" fill="#daedff" d="M 390.5,143.5 C 396.001,142.64 400.834,143.973 405,147.5C 406.124,153.395 406.624,159.395 406.5,165.5C 406.333,170.833 406.167,176.167 406,181.5C 404.833,183.333 403.333,184.833 401.5,186C 397.848,186.499 394.182,186.665 390.5,186.5C 314.001,185.667 237.334,185.167 160.5,185C 158.951,183.786 157.785,182.286 157,180.5C 156.333,170.167 156.333,159.833 157,149.5C 158.366,147.638 159.866,145.972 161.5,144.5C 165.167,144.5 168.833,144.5 172.5,144.5C 245.335,144.833 318.002,144.499 390.5,143.5 Z"/></g>
<g><path style="opacity:1" fill="#754c9b" d="M 120.5,186.5 C 137.833,186.5 155.167,186.5 172.5,186.5C 175.002,205.185 177.669,223.852 180.5,242.5C 247.833,242.5 315.167,242.5 382.5,242.5C 382.5,242.833 382.5,243.167 382.5,243.5C 328.167,243.5 273.833,243.5 219.5,243.5C 206.5,243.5 193.5,243.5 180.5,243.5C 163.167,243.5 145.833,243.5 128.5,243.5C 125.647,224.529 122.98,205.529 120.5,186.5 Z"/></g>
<g><path style="opacity:0.998" fill="#8658b8" d="M 172.5,186.5 C 245.167,186.5 317.833,186.5 390.5,186.5C 388.112,205.218 385.445,223.885 382.5,242.5C 315.167,242.5 247.833,242.5 180.5,242.5C 177.669,223.852 175.002,205.185 172.5,186.5 Z"/></g>
<g><path style="opacity:1" fill="#fbc700" d="M 128.5,243.5 C 145.833,243.5 163.167,243.5 180.5,243.5C 190.003,312.856 199.669,382.189 209.5,451.5C 216.354,451.176 223.021,451.509 229.5,452.5C 222.833,452.5 216.167,452.5 209.5,452.5C 192.167,452.5 174.833,452.5 157.5,452.5C 147.74,382.846 138.073,313.179 128.5,243.5 Z"/></g>
<g><path style="opacity:1" fill="#fed502" d="M 180.5,243.5 C 193.5,243.5 206.5,243.5 219.5,243.5C 194.056,281.797 195.89,318.797 225,354.5C 244.478,386.027 246.645,418.694 231.5,452.5C 230.833,452.5 230.167,452.5 229.5,452.5C 223.021,451.509 216.354,451.176 209.5,451.5C 199.669,382.189 190.003,312.856 180.5,243.5 Z"/></g>
<g><path style="opacity:0.997" fill="#feea7d" d="M 219.5,243.5 C 273.833,243.5 328.167,243.5 382.5,243.5C 372.927,313.179 363.26,382.846 353.5,452.5C 312.833,452.5 272.167,452.5 231.5,452.5C 246.645,418.694 244.478,386.027 225,354.5C 195.89,318.797 194.056,281.797 219.5,243.5 Z"/></g>
<g><path style="opacity:1" fill="#734a9b" d="M 157.5,452.5 C 174.833,452.5 192.167,452.5 209.5,452.5C 211.673,467.878 214.173,483.212 217,498.5C 220.076,504.411 224.576,508.745 230.5,511.5C 213.167,511.5 195.833,511.5 178.5,511.5C 172.35,509.486 167.85,505.486 165,499.5C 161.928,483.926 159.428,468.259 157.5,452.5 Z"/></g>
<g><path style="opacity:0.997" fill="#8558b8" d="M 209.5,452.5 C 216.167,452.5 222.833,452.5 229.5,452.5C 230.167,452.5 230.833,452.5 231.5,452.5C 272.167,452.5 312.833,452.5 353.5,452.5C 351.572,468.259 349.072,483.926 346,499.5C 343.15,505.486 338.65,509.486 332.5,511.5C 298.5,511.5 264.5,511.5 230.5,511.5C 224.576,508.745 220.076,504.411 217,498.5C 214.173,483.212 211.673,467.878 209.5,452.5 Z"/></g>
</svg>
