<?xml version="1.0" encoding="UTF-8"?>
<!DOCTYPE svg PUBLIC "-//W3C//DTD SVG 1.1//EN" "http://www.w3.org/Graphics/SVG/1.1/DTD/svg11.dtd">
<svg xmlns="http://www.w3.org/2000/svg" version="1.1" width="128px" height="128px" style="shape-rendering:geometricPrecision; text-rendering:geometricPrecision; image-rendering:optimizeQuality; fill-rule:evenodd; clip-rule:evenodd" xmlns:xlink="http://www.w3.org/1999/xlink">
<g><path style="opacity:0.998" fill="#a83355" d="M 29.5,-0.5 C 49.1667,-0.5 68.8333,-0.5 88.5,-0.5C 91.4255,5.6094 93.7589,11.9427 95.5,18.5C 71.1667,18.5 46.8333,18.5 22.5,18.5C 25.1155,12.2693 27.4488,5.93598 29.5,-0.5 Z"/></g>
<g><path style="opacity:0.948" fill="#883562" d="M 88.5,-0.5 C 91.5,-0.5 94.5,-0.5 97.5,-0.5C 99.6366,5.91028 101.97,12.2436 104.5,18.5C 101.5,18.5 98.5,18.5 95.5,18.5C 93.7589,11.9427 91.4255,5.6094 88.5,-0.5 Z"/></g>
<g><path style="opacity:0.996" fill="#dd4a44" d="M 22.5,18.5 C 48.6635,19.3322 74.9968,19.8322 101.5,20C 104.231,22.8966 105.231,26.3966 104.5,30.5C 101.5,30.5 98.5,30.5 95.5,30.5C 71.1667,30.5 46.8333,30.5 22.5,30.5C 20.1432,30.6633 17.8098,30.4966 15.5,30C 13.8452,25.9185 14.5119,22.2518 17.5,19C 19.1341,18.5065 20.8008,18.3398 22.5,18.5 Z"/></g>
<g><path style="opacity:0.908" fill="#cb3746" d="M 22.5,18.5 C 46.8333,18.5 71.1667,18.5 95.5,18.5C 98.5,18.5 101.5,18.5 104.5,18.5C 109.867,18.0323 112.534,20.5323 112.5,26C 112.441,27.4357 112.108,28.769 111.5,30C 109.19,30.4966 106.857,30.6633 104.5,30.5C 105.231,26.3966 104.231,22.8966 101.5,20C 74.9968,19.8322 48.6635,19.3322 22.5,18.5 Z"/></g>
<g><path style="opacity:0.995" fill="#fff3dd" d="M 22.5,30.5 C 46.8333,30.5 71.1667,30.5 95.5,30.5C 95.5,33.1667 95.5,35.8333 95.5,38.5C 89.3743,38.9284 83.3743,40.0951 77.5,42C 67.3635,47.1453 57.0302,51.8119 46.5,56C 39.2264,57.3822 31.8931,58.2156 24.5,58.5C 24.1898,49.1341 23.5231,39.8008 22.5,30.5 Z"/></g>
<g><path style="opacity:0.993" fill="#ffcf6b" d="M 95.5,30.5 C 98.5,30.5 101.5,30.5 104.5,30.5C 104.167,33.1667 103.833,35.8333 103.5,38.5C 100.833,38.5 98.1667,38.5 95.5,38.5C 95.5,35.8333 95.5,33.1667 95.5,30.5 Z"/></g>
<g><path style="opacity:0.95" fill="#ff974f" d="M 95.5,38.5 C 98.1667,38.5 100.833,38.5 103.5,38.5C 101.805,64.2022 99.805,89.8689 97.5,115.5C 94.8333,115.5 92.1667,115.5 89.5,115.5C 91.6925,89.8284 93.6925,64.1617 95.5,38.5 Z"/></g>
<g><path style="opacity:0.994" fill="#feb25c" d="M 95.5,38.5 C 93.6925,64.1617 91.6925,89.8284 89.5,115.5C 69.5,115.5 49.5,115.5 29.5,115.5C 27.8835,96.4845 26.2169,77.4845 24.5,58.5C 31.8931,58.2156 39.2264,57.3822 46.5,56C 57.0302,51.8119 67.3635,47.1453 77.5,42C 83.3743,40.0951 89.3743,38.9284 95.5,38.5 Z"/></g>
<g><path style="opacity:1" fill="#cc3545" d="M 74.5,64.5 C 67.1667,71.5 59.8333,78.5 52.5,85.5C 49.6967,82.7964 48.8634,79.4631 50,75.5C 53.6158,65.199 60.7824,60.699 71.5,62C 72.9423,62.3768 73.9423,63.2101 74.5,64.5 Z"/></g>
<g><path style="opacity:1" fill="#aa3655" d="M 74.5,64.5 C 77.2364,66.8579 78.0698,69.8579 77,73.5C 73.6488,84.862 66.1488,89.6953 54.5,88C 53.6195,87.2917 52.9528,86.4584 52.5,85.5C 59.8333,78.5 67.1667,71.5 74.5,64.5 Z"/></g>
<g><path style="opacity:1" fill="#893a64" d="M 46.5,94.5 C 57.8333,94.5 69.1667,94.5 80.5,94.5C 80.5,95.8333 80.5,97.1667 80.5,98.5C 69.1667,98.5 57.8333,98.5 46.5,98.5C 46.5,97.1667 46.5,95.8333 46.5,94.5 Z"/></g>
<g><path style="opacity:1" fill="#8b3d64" d="M 46.5,102.5 C 57.8333,102.5 69.1667,102.5 80.5,102.5C 80.67,103.822 80.3366,104.989 79.5,106C 68.8333,106.667 58.1667,106.667 47.5,106C 46.6634,104.989 46.33,103.822 46.5,102.5 Z"/></g>
<g><path style="opacity:0.996" fill="#fff3dd" d="M 29.5,116.5 C 49.5,116.5 69.5,116.5 89.5,116.5C 89.2756,120.179 88.9422,123.846 88.5,127.5C 69.1667,127.5 49.8333,127.5 30.5,127.5C 29.6561,123.901 29.3227,120.234 29.5,116.5 Z"/></g>
<g><path style="opacity:0.958" fill="#ffd0a3" d="M 29.5,116.5 C 29.5,116.167 29.5,115.833 29.5,115.5C 49.5,115.5 69.5,115.5 89.5,115.5C 92.1667,115.5 94.8333,115.5 97.5,115.5C 97.693,119.566 97.3597,123.566 96.5,127.5C 93.8333,127.5 91.1667,127.5 88.5,127.5C 88.9422,123.846 89.2756,120.179 89.5,116.5C 69.5,116.5 49.5,116.5 29.5,116.5 Z"/></g>
</svg>
