<?xml version="1.0" encoding="UTF-8"?>
<!DOCTYPE svg PUBLIC "-//W3C//DTD SVG 1.1//EN" "http://www.w3.org/Graphics/SVG/1.1/DTD/svg11.dtd">
<svg xmlns="http://www.w3.org/2000/svg" version="1.1" width="512px" height="512px" style="shape-rendering:geometricPrecision; text-rendering:geometricPrecision; image-rendering:optimizeQuality; fill-rule:evenodd; clip-rule:evenodd" xmlns:xlink="http://www.w3.org/1999/xlink">
<g><path style="opacity:1" fill="#46adde" d="M 133.5,-0.5 C 154.5,-0.5 175.5,-0.5 196.5,-0.5C 189.272,2.22525 184.106,7.22525 181,14.5C 180.59,34.3064 170.423,44.1397 150.5,44C 143.851,47.3141 139.351,52.4808 137,59.5C 136.5,67.8267 136.334,76.16 136.5,84.5C 115.833,84.5 95.1667,84.5 74.5,84.5C 74.3336,76.16 74.5003,67.8267 75,59.5C 76.5771,52.2552 80.7438,47.0885 87.5,44C 92.7919,42.8378 98.1252,41.8378 103.5,41C 109.272,38.8945 113.438,35.0611 116,29.5C 116.549,21.7491 118.549,14.4157 122,7.5C 125.15,3.68926 128.983,1.0226 133.5,-0.5 Z"/></g>
<g><path style="opacity:0.997" fill="#4ec1f7" d="M 196.5,-0.5 C 256.833,-0.5 317.167,-0.5 377.5,-0.5C 384.393,1.89027 389.226,6.55693 392,13.5C 392.021,22.4574 394.854,30.2907 400.5,37C 402.67,38.5862 405.004,39.9196 407.5,41C 412.875,41.8378 418.208,42.8378 423.5,44C 430.256,47.0885 434.423,52.2552 436,59.5C 436.5,67.8267 436.666,76.16 436.5,84.5C 336.5,84.5 236.5,84.5 136.5,84.5C 136.334,76.16 136.5,67.8267 137,59.5C 139.351,52.4808 143.851,47.3141 150.5,44C 170.423,44.1397 180.59,34.3064 181,14.5C 184.106,7.22525 189.272,2.22525 196.5,-0.5 Z"/></g>
<g><path style="opacity:0.993" fill="#028acf" d="M 74.5,84.5 C 95.1667,84.5 115.833,84.5 136.5,84.5C 136.5,198.5 136.5,312.5 136.5,426.5C 115.833,426.5 95.1667,426.5 74.5,426.5C 74.5,312.5 74.5,198.5 74.5,84.5 Z"/></g>
<g><path style="opacity:0.998" fill="#039ae5" d="M 136.5,84.5 C 236.5,84.5 336.5,84.5 436.5,84.5C 436.5,198.5 436.5,312.5 436.5,426.5C 336.5,426.5 236.5,426.5 136.5,426.5C 136.5,312.5 136.5,198.5 136.5,84.5 Z"/></g>
<g><path style="opacity:1" fill="#b0c27e" d="M 245.5,142.5 C 278.336,141.17 311.336,141.17 344.5,142.5C 344.376,143.107 344.043,143.44 343.5,143.5C 311.004,142.502 278.338,142.168 245.5,142.5 Z"/></g>
<g><path style="opacity:1" fill="#fed44f" d="M 245.5,142.5 C 278.338,142.168 311.004,142.502 343.5,143.5C 321.964,172.726 300.298,201.893 278.5,231C 296.5,231.333 314.5,231.667 332.5,232C 281.697,285.137 230.53,337.971 179,390.5C 196.237,350.683 214.07,311.016 232.5,271.5C 233.043,271.44 233.376,271.107 233.5,270.5C 211.337,269.833 189.337,269.167 167.5,268.5C 193.138,226.213 219.138,184.213 245.5,142.5 Z"/></g>
<g><path style="opacity:1" fill="#c0c674" d="M 167.5,268.5 C 189.337,269.167 211.337,269.833 233.5,270.5C 233.376,271.107 233.043,271.44 232.5,271.5C 210.663,270.833 188.663,270.167 166.5,269.5C 166.624,268.893 166.957,268.56 167.5,268.5 Z"/></g>
<g><path style="opacity:1" fill="#46addf" d="M 74.5,426.5 C 95.1667,426.5 115.833,426.5 136.5,426.5C 136.334,434.507 136.5,442.507 137,450.5C 141.229,463.202 150.063,469.369 163.5,469C 175.92,473.31 181.754,482.143 181,495.5C 183.685,503.35 188.852,508.684 196.5,511.5C 175.5,511.5 154.5,511.5 133.5,511.5C 126.607,509.11 121.774,504.443 119,497.5C 118.979,488.543 116.146,480.709 110.5,474C 108.33,472.414 105.996,471.08 103.5,470C 98.1252,469.162 92.7919,468.162 87.5,467C 80.7438,463.911 76.5771,458.745 75,451.5C 74.5003,443.173 74.3336,434.84 74.5,426.5 Z"/></g>
<g><path style="opacity:0.997" fill="#4ec1f7" d="M 136.5,426.5 C 236.5,426.5 336.5,426.5 436.5,426.5C 436.666,434.84 436.5,443.173 436,451.5C 434.423,458.745 430.256,463.911 423.5,467C 418.208,468.162 412.875,469.162 407.5,470C 401.728,472.106 397.562,475.939 395,481.5C 394.451,489.251 392.451,496.584 389,503.5C 385.85,507.311 382.017,509.977 377.5,511.5C 317.167,511.5 256.833,511.5 196.5,511.5C 188.852,508.684 183.685,503.35 181,495.5C 181.754,482.143 175.92,473.31 163.5,469C 150.063,469.369 141.229,463.202 137,450.5C 136.5,442.507 136.334,434.507 136.5,426.5 Z"/></g>
</svg>
