<?xml version="1.0" encoding="UTF-8"?>
<!DOCTYPE svg PUBLIC "-//W3C//DTD SVG 1.1//EN" "http://www.w3.org/Graphics/SVG/1.1/DTD/svg11.dtd">
<svg xmlns="http://www.w3.org/2000/svg" version="1.1" width="512px" height="512px" style="shape-rendering:geometricPrecision; text-rendering:geometricPrecision; image-rendering:optimizeQuality; fill-rule:evenodd; clip-rule:evenodd" xmlns:xlink="http://www.w3.org/1999/xlink">
<g><path style="opacity:0.959" fill="#f5de87" d="M 295.5,-0.5 C 300.5,-0.5 305.5,-0.5 310.5,-0.5C 313.9,1.03697 317.233,2.8703 320.5,5C 327,11.5 333.5,18 340,24.5C 348.229,38.3545 347.063,51.3545 336.5,63.5C 323.137,64.8169 309.803,64.8169 296.5,63.5C 290.87,57.3686 285.036,51.3686 279,45.5C 277.414,43.3295 276.08,40.9962 275,38.5C 270.299,42.8658 265.966,47.5325 262,52.5C 259.986,56.3589 260.152,60.0256 262.5,63.5C 256.5,64.8333 250.5,64.8333 244.5,63.5C 243.5,55.6226 245,48.2892 249,41.5C 261.5,29 274,16.5 286.5,4C 289.592,2.45406 292.592,0.95406 295.5,-0.5 Z M 299.5,15.5 C 302.649,15.2114 305.649,15.7114 308.5,17C 315,23.5 321.5,30 328,36.5C 330.508,46.4743 326.675,52.4743 316.5,54.5C 314.366,54.4847 312.366,53.9847 310.5,53C 303.333,47.1667 296.833,40.6667 291,33.5C 289,30.1667 289,26.8333 291,23.5C 293.157,20.0241 295.99,17.3575 299.5,15.5 Z M 296.5,63.5 C 285.167,63.5 273.833,63.5 262.5,63.5C 260.152,60.0256 259.986,56.3589 262,52.5C 265.966,47.5325 270.299,42.8658 275,38.5C 276.08,40.9962 277.414,43.3295 279,45.5C 285.036,51.3686 290.87,57.3686 296.5,63.5 Z"/></g>
<g><path style="opacity:0.984" fill="#ebf4fe" d="M 163.5,63.5 C 190.5,63.5 217.5,63.5 244.5,63.5C 250.5,64.8333 256.5,64.8333 262.5,63.5C 273.833,63.5 285.167,63.5 296.5,63.5C 309.803,64.8169 323.137,64.8169 336.5,63.5C 361.087,60.4419 374.087,71.1085 375.5,95.5C 313.833,95.5 252.167,95.5 190.5,95.5C 190.307,86.687 192.14,78.3537 196,70.5C 197.873,68.2911 200.04,66.4578 202.5,65C 189.327,64.831 176.327,64.331 163.5,63.5 Z"/></g>
<g><path style="opacity:1" fill="#ddeafb" d="M 163.5,63.5 C 176.327,64.331 189.327,64.831 202.5,65C 200.04,66.4578 197.873,68.2911 196,70.5C 192.14,78.3537 190.307,86.687 190.5,95.5C 189.167,95.5 187.833,95.5 186.5,95.5C 169.5,95.5 152.5,95.5 135.5,95.5C 135.285,76.3864 144.618,65.7197 163.5,63.5 Z"/></g>
<g><path style="opacity:1" fill="#da4a54" d="M 135.5,95.5 C 152.5,95.5 169.5,95.5 186.5,95.5C 185.394,98.054 184.561,100.721 184,103.5C 179.837,151.402 177.337,199.402 176.5,247.5C 169.102,268.694 162.102,290.028 155.5,311.5C 156.982,323.984 163.982,329.984 176.5,329.5C 177.336,375.227 179.503,420.894 183,466.5C 183.464,471.054 184.631,475.387 186.5,479.5C 169.325,479.17 152.325,479.503 135.5,480.5C 126.196,478.768 120.029,473.435 117,464.5C 99,346.833 99,229.166 117,111.5C 119.903,102.433 126.069,97.0996 135.5,95.5 Z"/></g>
<g><path style="opacity:0.998" fill="#dd636e" d="M 186.5,95.5 C 187.833,95.5 189.167,95.5 190.5,95.5C 252.167,95.5 313.833,95.5 375.5,95.5C 384.931,97.0996 391.097,102.433 394,111.5C 411.615,226.785 411.948,342.118 395,457.5C 394.428,470.236 387.928,477.903 375.5,480.5C 312.669,479.501 249.669,479.168 186.5,479.5C 184.631,475.387 183.464,471.054 183,466.5C 179.503,420.894 177.336,375.227 176.5,329.5C 186.5,329.5 196.5,329.5 206.5,329.5C 216.833,329.5 227.167,329.5 237.5,329.5C 230.566,363.336 223.566,397.169 216.5,431C 217.662,439.831 222.662,443.831 231.5,443C 234.106,442.208 236.106,440.708 237.5,438.5C 271.798,394.595 305.631,350.262 339,305.5C 342.396,293.458 338.229,285.291 326.5,281C 308.167,280.667 289.833,280.333 271.5,280C 295.542,241.416 319.708,202.916 344,164.5C 350.068,154.903 348.235,147.403 338.5,142C 311.502,141.5 284.502,141.333 257.5,141.5C 244.829,141.333 232.162,141.5 219.5,142C 217.667,143.167 215.833,144.333 214,145.5C 201.175,179.483 188.675,213.483 176.5,247.5C 177.337,199.402 179.837,151.402 184,103.5C 184.561,100.721 185.394,98.054 186.5,95.5 Z"/></g>
<g><path style="opacity:1" fill="#f0cd73" d="M 257.5,141.5 C 252.703,144.035 249.537,148.035 248,153.5C 230.33,203.844 212.663,254.178 195,304.5C 191.829,316.153 195.662,324.486 206.5,329.5C 196.5,329.5 186.5,329.5 176.5,329.5C 163.982,329.984 156.982,323.984 155.5,311.5C 162.102,290.028 169.102,268.694 176.5,247.5C 188.675,213.483 201.175,179.483 214,145.5C 215.833,144.333 217.667,143.167 219.5,142C 232.162,141.5 244.829,141.333 257.5,141.5 Z"/></g>
<g><path style="opacity:1" fill="#f4dd86" d="M 257.5,141.5 C 284.502,141.333 311.502,141.5 338.5,142C 348.235,147.403 350.068,154.903 344,164.5C 319.708,202.916 295.542,241.416 271.5,280C 289.833,280.333 308.167,280.667 326.5,281C 338.229,285.291 342.396,293.458 339,305.5C 305.631,350.262 271.798,394.595 237.5,438.5C 235.386,437.64 234.22,435.973 234,433.5C 233.333,431.167 233.333,428.833 234,426.5C 240.798,397.515 246.964,368.348 252.5,339C 252.886,335.911 251.886,333.411 249.5,331.5C 245.712,329.744 241.712,329.078 237.5,329.5C 227.167,329.5 216.833,329.5 206.5,329.5C 195.662,324.486 191.829,316.153 195,304.5C 212.663,254.178 230.33,203.844 248,153.5C 249.537,148.035 252.703,144.035 257.5,141.5 Z"/></g>
<g><path style="opacity:1" fill="#f0cd73" d="M 237.5,329.5 C 241.712,329.078 245.712,329.744 249.5,331.5C 251.886,333.411 252.886,335.911 252.5,339C 246.964,368.348 240.798,397.515 234,426.5C 233.333,428.833 233.333,431.167 234,433.5C 234.22,435.973 235.386,437.64 237.5,438.5C 236.106,440.708 234.106,442.208 231.5,443C 222.662,443.831 217.662,439.831 216.5,431C 223.566,397.169 230.566,363.336 237.5,329.5 Z"/></g>
<g><path style="opacity:0.999" fill="#dee3f3" d="M 186.5,479.5 C 249.669,479.168 312.669,479.501 375.5,480.5C 314.167,480.5 252.833,480.5 191.5,480.5C 190.647,489.284 192.147,497.618 196,505.5C 198.063,507.734 200.229,509.734 202.5,511.5C 186.833,511.5 171.167,511.5 155.5,511.5C 141.598,506.068 134.931,495.735 135.5,480.5C 152.325,479.503 169.325,479.17 186.5,479.5 Z"/></g>
<g><path style="opacity:0.998" fill="#ecf3fe" d="M 375.5,480.5 C 376.069,495.735 369.402,506.068 355.5,511.5C 304.5,511.5 253.5,511.5 202.5,511.5C 200.229,509.734 198.063,507.734 196,505.5C 192.147,497.618 190.647,489.284 191.5,480.5C 252.833,480.5 314.167,480.5 375.5,480.5 Z"/></g>
</svg>
