<?xml version="1.0" encoding="UTF-8"?>
<!DOCTYPE svg PUBLIC "-//W3C//DTD SVG 1.1//EN" "http://www.w3.org/Graphics/SVG/1.1/DTD/svg11.dtd">
<svg xmlns="http://www.w3.org/2000/svg" version="1.1" width="512px" height="512px" style="shape-rendering:geometricPrecision; text-rendering:geometricPrecision; image-rendering:optimizeQuality; fill-rule:evenodd; clip-rule:evenodd" xmlns:xlink="http://www.w3.org/1999/xlink">
<g><path style="opacity:0.998" fill="#6cc07f" d="M 101.5,-0.5 C 178.5,-0.5 255.5,-0.5 332.5,-0.5C 332.5,12.1667 332.5,24.8333 332.5,37.5C 255.5,37.5 178.5,37.5 101.5,37.5C 101.5,24.8333 101.5,12.1667 101.5,-0.5 Z"/></g>
<g><path style="opacity:1" fill="#68b86b" d="M 332.5,-0.5 C 358.167,-0.5 383.833,-0.5 409.5,-0.5C 409.5,12.1667 409.5,24.8333 409.5,37.5C 383.833,37.5 358.167,37.5 332.5,37.5C 332.5,24.8333 332.5,12.1667 332.5,-0.5 Z"/></g>
<g><path style="opacity:0.996" fill="#80cb93" d="M 101.5,37.5 C 178.5,37.5 255.5,37.5 332.5,37.5C 338.987,38.3283 345.654,38.8283 352.5,39C 371.738,44.0763 382.071,56.5763 383.5,76.5C 370.5,76.5 357.5,76.5 344.5,76.5C 259.167,76.5 173.833,76.5 88.5,76.5C 75.8333,76.5 63.1667,76.5 50.5,76.5C 50.9771,57.3763 60.3105,44.8763 78.5,39C 86.1052,37.6885 93.7718,37.1885 101.5,37.5 Z"/></g>
<g><path style="opacity:1" fill="#6dc180" d="M 332.5,37.5 C 358.167,37.5 383.833,37.5 409.5,37.5C 431.613,34.0103 447.779,42.0103 458,61.5C 459.895,66.3249 460.728,71.3249 460.5,76.5C 447.833,76.5 435.167,76.5 422.5,76.5C 409.5,76.5 396.5,76.5 383.5,76.5C 382.071,56.5763 371.738,44.0763 352.5,39C 345.654,38.8283 338.987,38.3283 332.5,37.5 Z"/></g>
<g><path style="opacity:0.998" fill="#f7f7f8" d="M 88.5,76.5 C 173.833,76.5 259.167,76.5 344.5,76.5C 342.227,106.171 339.894,135.838 337.5,165.5C 257.167,165.5 176.833,165.5 96.5,165.5C 93.8333,135.833 91.1667,106.167 88.5,76.5 Z"/></g>
<g><path style="opacity:1" fill="#ededed" d="M 344.5,76.5 C 357.5,76.5 370.5,76.5 383.5,76.5C 396.5,76.5 409.5,76.5 422.5,76.5C 419.833,106.167 417.167,135.833 414.5,165.5C 388.833,165.5 363.167,165.5 337.5,165.5C 339.894,135.838 342.227,106.171 344.5,76.5 Z"/></g>
<g><path style="opacity:1" fill="#b0ddbc" d="M 96.5,165.5 C 176.833,165.5 257.167,165.5 337.5,165.5C 337.5,165.833 337.5,166.167 337.5,166.5C 337.167,166.5 336.833,166.5 336.5,166.5C 256.833,166.5 177.167,166.5 97.5,166.5C 97.5,168.167 97.5,169.833 97.5,171.5C 96.5386,169.735 96.2053,167.735 96.5,165.5 Z"/></g>
<g><path style="opacity:1" fill="#87cb97" d="M 337.5,166.5 C 337.5,166.167 337.5,165.833 337.5,165.5C 363.167,165.5 388.833,165.5 414.5,165.5C 414.795,167.735 414.461,169.735 413.5,171.5C 413.5,169.833 413.5,168.167 413.5,166.5C 388.167,166.5 362.833,166.5 337.5,166.5 Z"/></g>
<g><path style="opacity:1" fill="#80cb93" d="M 336.5,166.5 C 331.5,225.831 326.5,285.164 321.5,344.5C 347.167,344.5 372.833,344.5 398.5,344.5C 398.5,344.833 398.5,345.167 398.5,345.5C 372.833,345.5 347.167,345.5 321.5,345.5C 251.833,345.5 182.167,345.5 112.5,345.5C 107.019,287.545 102.019,229.545 97.5,171.5C 97.5,169.833 97.5,168.167 97.5,166.5C 177.167,166.5 256.833,166.5 336.5,166.5 Z"/></g>
<g><path style="opacity:1" fill="#6dc180" d="M 336.5,166.5 C 336.833,166.5 337.167,166.5 337.5,166.5C 362.833,166.5 388.167,166.5 413.5,166.5C 413.5,168.167 413.5,169.833 413.5,171.5C 409.04,229.222 404.04,286.889 398.5,344.5C 372.833,344.5 347.167,344.5 321.5,344.5C 326.5,285.164 331.5,225.831 336.5,166.5 Z"/></g>
<g><path style="opacity:1" fill="#b19a7e" d="M 259.5,210.5 C 292.992,209.788 305.825,225.788 298,258.5C 286.301,286.872 265.135,300.705 234.5,300C 220.173,296.342 212.34,287.176 211,272.5C 210.882,248.609 221.048,230.442 241.5,218C 247.485,215.166 253.485,212.666 259.5,210.5 Z"/></g>
<g><path style="opacity:1" fill="#a58868" d="M 280.5,217.5 C 291.402,217.224 295.235,222.224 292,232.5C 278.833,245.667 265.667,258.833 252.5,272C 240,275.5 235.5,271 239,258.5C 252.728,244.604 266.562,230.938 280.5,217.5 Z"/></g>
<g><path style="opacity:0.997" fill="#f7f7f8" d="M 112.5,345.5 C 182.167,345.5 251.833,345.5 321.5,345.5C 316.38,400.815 311.38,456.148 306.5,511.5C 246.5,511.5 186.5,511.5 126.5,511.5C 122.014,456.152 117.347,400.819 112.5,345.5 Z"/></g>
<g><path style="opacity:1" fill="#ededed" d="M 321.5,345.5 C 347.167,345.5 372.833,345.5 398.5,345.5C 393.653,400.819 388.986,456.152 384.5,511.5C 358.5,511.5 332.5,511.5 306.5,511.5C 311.38,456.148 316.38,400.815 321.5,345.5 Z"/></g>
</svg>
