<?xml version="1.0" encoding="UTF-8"?>
<!DOCTYPE svg PUBLIC "-//W3C//DTD SVG 1.1//EN" "http://www.w3.org/Graphics/SVG/1.1/DTD/svg11.dtd">
<svg xmlns="http://www.w3.org/2000/svg" version="1.1" width="512px" height="512px" style="shape-rendering:geometricPrecision; text-rendering:geometricPrecision; image-rendering:optimizeQuality; fill-rule:evenodd; clip-rule:evenodd" xmlns:xlink="http://www.w3.org/1999/xlink">
<g><path style="opacity:0.985" fill="#afaab4" d="M 240.5,-0.5 C 250.5,-0.5 260.5,-0.5 270.5,-0.5C 284.035,4.55525 291.368,14.3886 292.5,29C 291.335,37.1562 290.335,45.3229 289.5,53.5C 266.833,53.5 244.167,53.5 221.5,53.5C 220.665,45.3229 219.665,37.1562 218.5,29C 219.632,14.3886 226.965,4.55525 240.5,-0.5 Z M 246.5,18.5 C 252.509,18.3338 258.509,18.5005 264.5,19C 269.69,21.9491 270.69,25.9491 267.5,31C 259.226,34.467 251.06,34.3004 243,30.5C 240.255,25.2483 241.422,21.2483 246.5,18.5 Z"/></g>
<g><path style="opacity:0.997" fill="#c5c0c7" d="M 221.5,53.5 C 244.167,53.5 266.833,53.5 289.5,53.5C 317.502,53.3334 345.502,53.5 373.5,54C 381.305,57.7808 384.138,63.9475 382,72.5C 379.62,78.7154 375.12,82.0488 368.5,82.5C 293.167,81.1667 217.833,81.1667 142.5,82.5C 129.309,79.1166 125.476,71.1166 131,58.5C 132.731,56.3834 134.898,54.8834 137.5,54C 165.498,53.5 193.498,53.3334 221.5,53.5 Z"/></g>
<g><path style="opacity:0.998" fill="#756e78" d="M 368.5,82.5 C 354.833,82.5 341.167,82.5 327.5,82.5C 327.5,179.167 327.5,275.833 327.5,372.5C 326.711,372.217 326.044,371.717 325.5,371C 278.833,370.333 232.167,370.333 185.5,371C 185,371.5 184.5,372 184,372.5C 183.183,381.745 183.35,390.911 184.5,400C 232.237,400.828 279.904,400.661 327.5,399.5C 327.5,405.833 327.5,412.167 327.5,418.5C 278.571,419.329 229.571,419.829 180.5,420C 175.231,424.495 175.231,429.161 180.5,434C 228.832,434.5 277.166,434.667 325.5,434.5C 324.114,447.261 319.447,458.595 311.5,468.5C 311.167,468.5 310.833,468.5 310.5,468.5C 255.833,468.5 201.167,468.5 146.5,468.5C 144.866,463.629 143.699,458.629 143,453.5C 142.5,329.834 142.333,206.167 142.5,82.5C 217.833,81.1667 293.167,81.1667 368.5,82.5 Z"/></g>
<g><path style="opacity:0.998" fill="#665e66" d="M 368.5,82.5 C 368.667,206.167 368.5,329.834 368,453.5C 367.301,458.629 366.134,463.629 364.5,468.5C 346.833,468.5 329.167,468.5 311.5,468.5C 319.447,458.595 324.114,447.261 325.5,434.5C 334.096,433.73 336.596,429.397 333,421.5C 331.259,420.242 329.426,419.242 327.5,418.5C 327.5,412.167 327.5,405.833 327.5,399.5C 327.5,390.5 327.5,381.5 327.5,372.5C 327.5,275.833 327.5,179.167 327.5,82.5C 341.167,82.5 354.833,82.5 368.5,82.5 Z"/></g>
<g><path style="opacity:1" fill="#a096a3" d="M 165.5,99.5 C 169.95,99.1416 173.45,100.808 176,104.5C 176.667,135.5 176.667,166.5 176,197.5C 172.987,202.535 168.82,203.702 163.5,201C 162.299,200.097 161.465,198.931 161,197.5C 160.333,166.5 160.333,135.5 161,104.5C 162.707,102.963 164.207,101.296 165.5,99.5 Z"/></g>
<g><path style="opacity:1" fill="#f5e166" d="M 238.5,129.5 C 256.503,129.333 274.503,129.5 292.5,130C 296.212,132.513 297.378,136.013 296,140.5C 288.667,161.167 281.333,181.833 274,202.5C 272.639,207.274 274.139,210.774 278.5,213C 289.5,213.333 300.5,213.667 311.5,214C 314.366,215.393 315.699,217.726 315.5,221C 315.385,223.732 314.552,226.232 313,228.5C 289.667,265.167 266.333,301.833 243,338.5C 242.25,339.126 241.416,339.626 240.5,340C 233.167,340.667 225.833,340.667 218.5,340C 216.522,337.503 216.022,334.669 217,331.5C 225.735,307.128 234.568,282.795 243.5,258.5C 243.291,257.914 242.957,257.414 242.5,257C 228.167,256.667 213.833,256.333 199.5,256C 196.717,254.273 195.05,251.773 194.5,248.5C 207.9,210.468 221.4,172.468 235,134.5C 235.997,132.677 237.164,131.01 238.5,129.5 Z"/></g>
<g><path style="opacity:1" fill="#fdfdfd" d="M 327.5,372.5 C 327.5,381.5 327.5,390.5 327.5,399.5C 279.904,400.661 232.237,400.828 184.5,400C 183.35,390.911 183.183,381.745 184,372.5C 184.5,372 185,371.5 185.5,371C 232.167,370.333 278.833,370.333 325.5,371C 326.044,371.717 326.711,372.217 327.5,372.5 Z"/></g>
<g><path style="opacity:1" fill="#534e56" d="M 327.5,418.5 C 329.426,419.242 331.259,420.242 333,421.5C 336.596,429.397 334.096,433.73 325.5,434.5C 277.166,434.667 228.832,434.5 180.5,434C 175.231,429.161 175.231,424.495 180.5,420C 229.571,419.829 278.571,419.329 327.5,418.5 Z"/></g>
<g><path style="opacity:0.999" fill="#c5c0c7" d="M 146.5,468.5 C 201.167,468.5 255.833,468.5 310.5,468.5C 301.686,479.449 290.353,486.615 276.5,490C 237.665,490.167 198.998,490.667 160.5,491.5C 154.249,484.89 149.582,477.223 146.5,468.5 Z"/></g>
<g><path style="opacity:1" fill="#afaab4" d="M 310.5,468.5 C 310.833,468.5 311.167,468.5 311.5,468.5C 329.167,468.5 346.833,468.5 364.5,468.5C 358.678,482.626 350.011,494.792 338.5,505C 334.343,507.745 330.01,509.912 325.5,511.5C 278.833,511.5 232.167,511.5 185.5,511.5C 174.863,507.879 166.53,501.212 160.5,491.5C 198.998,490.667 237.665,490.167 276.5,490C 290.353,486.615 301.686,479.449 310.5,468.5 Z"/></g>
</svg>
