<?xml version="1.0" encoding="UTF-8"?>
<!DOCTYPE svg PUBLIC "-//W3C//DTD SVG 1.1//EN" "http://www.w3.org/Graphics/SVG/1.1/DTD/svg11.dtd">
<svg xmlns="http://www.w3.org/2000/svg" version="1.1" width="512px" height="512px" style="shape-rendering:geometricPrecision; text-rendering:geometricPrecision; image-rendering:optimizeQuality; fill-rule:evenodd; clip-rule:evenodd" xmlns:xlink="http://www.w3.org/1999/xlink">
<g><path style="opacity:0.998" fill="#b5c3ce" d="M 124.5,-0.5 C 200.167,-0.5 275.833,-0.5 351.5,-0.5C 353.761,0.589662 355.594,2.25633 357,4.5C 357.667,11.8333 357.667,19.1667 357,26.5C 356.401,29.2542 354.901,31.2542 352.5,32.5C 344.5,32.5 336.5,32.5 328.5,32.5C 265.429,32.1706 202.429,32.5039 139.5,33.5C 135.154,33.6657 130.821,33.499 126.5,33C 124.152,32.6541 122.319,31.4875 121,29.5C 119.432,21.5788 119.099,13.5788 120,5.5C 120.599,2.74583 122.099,0.745833 124.5,-0.5 Z"/></g>
<g><path style="opacity:1" fill="#9facba" d="M 351.5,-0.5 C 363.167,-0.5 374.833,-0.5 386.5,-0.5C 388.696,0.854084 390.196,2.85408 391,5.5C 391.901,13.5788 391.568,21.5788 390,29.5C 388.681,31.4875 386.848,32.6541 384.5,33C 380.179,33.499 375.846,33.6657 371.5,33.5C 365.256,32.5422 358.923,32.2088 352.5,32.5C 354.901,31.2542 356.401,29.2542 357,26.5C 357.667,19.1667 357.667,11.8333 357,4.5C 355.594,2.25633 353.761,0.589662 351.5,-0.5 Z"/></g>
<g><path style="opacity:1" fill="#9cf7d1" d="M 328.5,32.5 C 334.394,42.6115 340.561,52.6115 347,62.5C 347.667,64.5 348.333,66.5 349,68.5C 349.5,143.166 349.667,217.833 349.5,292.5C 347.931,289.772 345.598,287.938 342.5,287C 284.167,286.333 225.833,286.333 167.5,287C 165,288.167 163.167,290 162,292.5C 161.333,299.5 161.333,306.5 162,313.5C 162.833,317 165,319.167 168.5,320C 226.5,320.667 284.5,320.667 342.5,320C 346.015,318.982 348.348,316.815 349.5,313.5C 349.667,356.501 349.5,399.501 349,442.5C 343.286,454.258 336.786,465.592 329.5,476.5C 336.468,477.497 343.468,477.83 350.5,477.5C 280.264,478.831 209.931,478.831 139.5,477.5C 134.845,468.859 129.679,460.526 124,452.5C 122.107,449.382 120.774,446.049 120,442.5C 119.333,317.833 119.333,193.167 120,68.5C 120.774,64.9513 122.107,61.618 124,58.5C 129.679,50.4741 134.845,42.1407 139.5,33.5C 202.429,32.5039 265.429,32.1706 328.5,32.5 Z"/></g>
<g><path style="opacity:1" fill="#6cf5c2" d="M 328.5,32.5 C 336.5,32.5 344.5,32.5 352.5,32.5C 358.923,32.2088 365.256,32.5422 371.5,33.5C 376.155,42.1407 381.321,50.4741 387,58.5C 388.893,61.618 390.226,64.9513 391,68.5C 391.667,193.167 391.667,317.833 391,442.5C 390.226,446.049 388.893,449.382 387,452.5C 381.321,460.526 376.155,468.859 371.5,477.5C 371.167,477.5 370.833,477.5 370.5,477.5C 363.833,477.5 357.167,477.5 350.5,477.5C 343.468,477.83 336.468,477.497 329.5,476.5C 336.786,465.592 343.286,454.258 349,442.5C 349.5,399.501 349.667,356.501 349.5,313.5C 349.5,306.5 349.5,299.5 349.5,292.5C 349.667,217.833 349.5,143.166 349,68.5C 348.333,66.5 347.667,64.5 347,62.5C 340.561,52.6115 334.394,42.6115 328.5,32.5 Z"/></g>
<g><path style="opacity:1" fill="#fee177" d="M 263.5,95.5 C 268.463,94.3184 271.463,96.1517 272.5,101C 270.047,116.458 268.047,131.958 266.5,147.5C 281.837,147.333 297.17,147.5 312.5,148C 315.689,149.544 316.855,152.044 316,155.5C 293.554,187.612 270.721,219.445 247.5,251C 241.13,252.303 238.13,249.636 238.5,243C 240.705,228.523 242.705,214.023 244.5,199.5C 229.163,199.667 213.83,199.5 198.5,199C 193.838,195.693 193.338,191.86 197,187.5C 219.03,156.652 241.197,125.985 263.5,95.5 Z"/></g>
<g><path style="opacity:1" fill="#5391d7" d="M 349.5,292.5 C 349.5,299.5 349.5,306.5 349.5,313.5C 348.348,316.815 346.015,318.982 342.5,320C 284.5,320.667 226.5,320.667 168.5,320C 165,319.167 162.833,317 162,313.5C 161.333,306.5 161.333,299.5 162,292.5C 163.167,290 165,288.167 167.5,287C 225.833,286.333 284.167,286.333 342.5,287C 345.598,287.938 347.931,289.772 349.5,292.5 Z"/></g>
<g><path style="opacity:1" fill="#fc95d2" d="M 159.5,370.5 C 167.174,370.334 174.841,370.5 182.5,371C 187.224,373.435 188.724,377.269 187,382.5C 186.097,383.701 184.931,384.535 183.5,385C 175.167,385.667 166.833,385.667 158.5,385C 153.068,379.761 153.401,374.928 159.5,370.5 Z"/></g>
<g><path style="opacity:1" fill="#fb96d2" d="M 158.5,404.5 C 174.503,404.333 190.503,404.5 206.5,405C 207.931,405.465 209.097,406.299 210,407.5C 211.724,412.731 210.224,416.565 205.5,419C 190.167,419.667 174.833,419.667 159.5,419C 154.465,415.987 153.298,411.82 156,406.5C 156.995,405.934 157.828,405.267 158.5,404.5 Z"/></g>
<g><path style="opacity:1" fill="#fc94d2" d="M 158.5,437.5 C 174.503,437.333 190.503,437.5 206.5,438C 210.212,440.513 211.378,444.013 210,448.5C 208.786,450.049 207.286,451.215 205.5,452C 190.167,452.667 174.833,452.667 159.5,452C 153.292,447.58 152.958,442.747 158.5,437.5 Z"/></g>
<g><path style="opacity:0.998" fill="#b5c4ce" d="M 139.5,477.5 C 209.931,478.831 280.264,478.831 350.5,477.5C 357.167,477.5 363.833,477.5 370.5,477.5C 364.681,478.328 358.681,478.828 352.5,479C 354.667,479.833 356.167,481.333 357,483.5C 357.667,491.167 357.667,498.833 357,506.5C 355.594,508.744 353.761,510.41 351.5,511.5C 275.833,511.5 200.167,511.5 124.5,511.5C 122.304,510.146 120.804,508.146 120,505.5C 119.099,497.421 119.432,489.421 121,481.5C 122.319,479.513 124.152,478.346 126.5,478C 130.821,477.501 135.154,477.334 139.5,477.5 Z"/></g>
<g><path style="opacity:1" fill="#9facba" d="M 370.5,477.5 C 370.833,477.5 371.167,477.5 371.5,477.5C 375.846,477.334 380.179,477.501 384.5,478C 386.848,478.346 388.681,479.513 390,481.5C 391.568,489.421 391.901,497.421 391,505.5C 390.196,508.146 388.696,510.146 386.5,511.5C 374.833,511.5 363.167,511.5 351.5,511.5C 353.761,510.41 355.594,508.744 357,506.5C 357.667,498.833 357.667,491.167 357,483.5C 356.167,481.333 354.667,479.833 352.5,479C 358.681,478.828 364.681,478.328 370.5,477.5 Z"/></g>
</svg>
