<?xml version="1.0" encoding="UTF-8"?>
<!DOCTYPE svg PUBLIC "-//W3C//DTD SVG 1.1//EN" "http://www.w3.org/Graphics/SVG/1.1/DTD/svg11.dtd">
<svg xmlns="http://www.w3.org/2000/svg" version="1.1" width="512px" height="512px" style="shape-rendering:geometricPrecision; text-rendering:geometricPrecision; image-rendering:optimizeQuality; fill-rule:evenodd; clip-rule:evenodd" xmlns:xlink="http://www.w3.org/1999/xlink">
<g><path style="opacity:0.98" fill="#e84f3d" d="M 368.5,-0.5 C 381.5,-0.5 394.5,-0.5 407.5,-0.5C 396.217,31.0667 385.217,62.7333 374.5,94.5C 365.549,116.009 357.549,138.009 350.5,160.5C 347.337,156.499 343.171,154.166 338,153.5C 329.86,155.329 321.693,156.995 313.5,158.5C 320.636,137.092 327.969,115.759 335.5,94.5C 345.906,62.615 356.906,30.9484 368.5,-0.5 Z"/></g>
<g><path style="opacity:0.989" fill="#8bd4ee" d="M 335.5,94.5 C 327.969,115.759 320.636,137.092 313.5,158.5C 308.893,159.77 304.227,160.937 299.5,162C 294.936,164.964 292.269,169.131 291.5,174.5C 292.59,178.77 293.257,183.103 293.5,187.5C 267.833,187.5 242.167,187.5 216.5,187.5C 217.154,179.837 217.321,172.17 217,164.5C 215.131,159.649 211.631,156.816 206.5,156C 192.869,154.336 179.203,153.67 165.5,154C 162.063,155.105 159.563,157.272 158,160.5C 156.231,169.535 155.065,178.535 154.5,187.5C 147.833,187.5 141.167,187.5 134.5,187.5C 145.839,282.88 157.506,378.213 169.5,473.5C 156.833,473.5 144.167,473.5 131.5,473.5C 131.5,474.833 131.5,476.167 131.5,477.5C 115.107,350.021 99.1067,222.354 83.5,94.5C 167.5,94.5 251.5,94.5 335.5,94.5 Z"/></g>
<g><path style="opacity:0.986" fill="#8bd4ee" d="M 374.5,94.5 C 392.167,94.5 409.833,94.5 427.5,94.5C 411.893,222.354 395.893,350.021 379.5,477.5C 379.5,476.167 379.5,474.833 379.5,473.5C 366.833,473.5 354.167,473.5 341.5,473.5C 353.494,378.213 365.161,282.88 376.5,187.5C 369.745,186.877 363.412,187.544 357.5,189.5C 355.284,179.917 352.951,170.251 350.5,160.5C 357.549,138.009 365.549,116.009 374.5,94.5 Z"/></g>
<g><path style="opacity:1" fill="#fdfdfd" d="M 216.5,187.5 C 215.846,193.81 215.346,200.143 215,206.5C 211.945,213.781 206.445,217.114 198.5,216.5C 187.49,215.791 176.49,214.958 165.5,214C 160.427,212.594 156.927,209.428 155,204.5C 154.501,198.843 154.334,193.176 154.5,187.5C 155.065,178.535 156.231,169.535 158,160.5C 159.563,157.272 162.063,155.105 165.5,154C 179.203,153.67 192.869,154.336 206.5,156C 211.631,156.816 215.131,159.649 217,164.5C 217.321,172.17 217.154,179.837 216.5,187.5 Z"/></g>
<g><path style="opacity:1" fill="#fefdfd" d="M 350.5,160.5 C 352.951,170.251 355.284,179.917 357.5,189.5C 358.509,194.796 358.676,200.129 358,205.5C 356.75,208.171 354.917,210.337 352.5,212C 339.256,215.486 325.923,218.653 312.5,221.5C 307.868,221.036 304.035,219.036 301,215.5C 298.172,206.133 295.672,196.8 293.5,187.5C 293.257,183.103 292.59,178.77 291.5,174.5C 292.269,169.131 294.936,164.964 299.5,162C 304.227,160.937 308.893,159.77 313.5,158.5C 321.693,156.995 329.86,155.329 338,153.5C 343.171,154.166 347.337,156.499 350.5,160.5 Z"/></g>
<g><path style="opacity:1" fill="#5a3c3d" d="M 154.5,187.5 C 154.334,193.176 154.501,198.843 155,204.5C 156.927,209.428 160.427,212.594 165.5,214C 176.49,214.958 187.49,215.791 198.5,216.5C 206.445,217.114 211.945,213.781 215,206.5C 215.346,200.143 215.846,193.81 216.5,187.5C 242.167,187.5 267.833,187.5 293.5,187.5C 295.672,196.8 298.172,206.133 301,215.5C 304.035,219.036 307.868,221.036 312.5,221.5C 325.923,218.653 339.256,215.486 352.5,212C 354.917,210.337 356.75,208.171 358,205.5C 358.676,200.129 358.509,194.796 357.5,189.5C 363.412,187.544 369.745,186.877 376.5,187.5C 365.161,282.88 353.494,378.213 341.5,473.5C 284.167,473.5 226.833,473.5 169.5,473.5C 157.506,378.213 145.839,282.88 134.5,187.5C 141.167,187.5 147.833,187.5 154.5,187.5 Z"/></g>
<g><path style="opacity:1" fill="#b1854e" d="M 287.5,241.5 C 300.48,239.99 306.98,245.657 307,258.5C 303.621,267.608 297.121,271.108 287.5,269C 275.54,259.8 275.54,250.633 287.5,241.5 Z"/></g>
<g><path style="opacity:1" fill="#b1854e" d="M 209.5,329.5 C 223.658,327.497 230.158,333.497 229,347.5C 225.394,355.553 219.228,358.72 210.5,357C 197.608,348.267 197.275,339.1 209.5,329.5 Z"/></g>
<g><path style="opacity:1" fill="#b1854e" d="M 251.5,375.5 C 267.332,376.146 272.499,383.813 267,398.5C 257,407.5 248.667,406.167 242,394.5C 241.333,391.167 241.333,387.833 242,384.5C 244.406,380.592 247.572,377.592 251.5,375.5 Z"/></g>
<g><path style="opacity:1" fill="#0091b8" d="M 169.5,473.5 C 226.833,473.5 284.167,473.5 341.5,473.5C 354.167,473.5 366.833,473.5 379.5,473.5C 379.5,474.833 379.5,476.167 379.5,477.5C 378.657,488.907 377.324,500.24 375.5,511.5C 295.5,511.5 215.5,511.5 135.5,511.5C 133.676,500.24 132.343,488.907 131.5,477.5C 131.5,476.167 131.5,474.833 131.5,473.5C 144.167,473.5 156.833,473.5 169.5,473.5 Z"/></g>
</svg>
