<?xml version="1.0" encoding="UTF-8"?>
<!DOCTYPE svg PUBLIC "-//W3C//DTD SVG 1.1//EN" "http://www.w3.org/Graphics/SVG/1.1/DTD/svg11.dtd">
<svg xmlns="http://www.w3.org/2000/svg" version="1.1" width="512px" height="511px" style="shape-rendering:geometricPrecision; text-rendering:geometricPrecision; image-rendering:optimizeQuality; fill-rule:evenodd; clip-rule:evenodd" xmlns:xlink="http://www.w3.org/1999/xlink">
<g><path style="opacity:0.922" fill="#ecebec" d="M 228.5,44.5 C 239.394,45.2795 242.227,50.6128 237,60.5C 224.244,74.1885 220.244,90.1885 225,108.5C 228.309,116.451 232.142,124.117 236.5,131.5C 234.773,139.53 230.106,142.03 222.5,139C 205.425,118.275 201.258,95.1087 210,69.5C 214.198,59.5024 220.365,51.169 228.5,44.5 Z"/></g>
<g><path style="opacity:0.921" fill="#dad9db" d="M 251.5,67.5 C 258.609,66.1119 262.943,68.9452 264.5,76C 262.851,80.9797 260.351,85.4797 257,89.5C 256.333,92.8333 256.333,96.1667 257,99.5C 260.611,105.444 264.611,111.111 269,116.5C 274.085,128.154 273.418,139.487 267,150.5C 264,154.167 261,157.833 258,161.5C 256.984,165.921 255.651,170.255 254,174.5C 247.772,179.232 242.772,178.232 239,171.5C 238.077,165.189 239.077,159.189 242,153.5C 245.285,148.546 248.952,143.88 253,139.5C 254.457,135.259 254.791,130.926 254,126.5C 249.42,120.34 245.086,114.007 241,107.5C 235.765,91.7709 239.265,78.4376 251.5,67.5 Z"/></g>
<g><path style="opacity:0.92" fill="#ecebec" d="M 280.5,85.5 C 284.676,85.1683 288.176,86.5016 291,89.5C 305.86,110.035 309.194,132.368 301,156.5C 294.727,162.365 289.394,161.698 285,154.5C 284.849,150.087 285.516,145.754 287,141.5C 288.045,132.358 287.379,123.358 285,114.5C 281.205,107.907 277.705,101.24 274.5,94.5C 274.944,90.4017 276.944,87.4017 280.5,85.5 Z"/></g>
<g><path style="opacity:0.568" fill="#f7e2bc" d="M 105.5,210.5 C 133.662,209.502 161.995,209.169 190.5,209.5C 190.5,211.5 190.5,213.5 190.5,215.5C 189.549,214.081 189.216,212.415 189.5,210.5C 161.5,210.5 133.5,210.5 105.5,210.5 Z"/></g>
<g><path style="opacity:0.994" fill="#f9eac7" d="M 190.5,209.5 C 262.167,209.333 333.834,209.5 405.5,210C 408.455,210.392 410.622,211.892 412,214.5C 412.695,225.936 412.195,237.269 410.5,248.5C 409.926,254.484 409.593,260.484 409.5,266.5C 406.218,295.189 400.885,323.522 393.5,351.5C 389.57,361.218 386.57,371.218 384.5,381.5C 380.517,390.428 376.517,399.428 372.5,408.5C 335.832,408.667 299.165,408.5 262.5,408C 239.595,403.097 225.095,389.264 219,366.5C 202.393,317.528 192.893,267.195 190.5,215.5C 190.5,213.5 190.5,211.5 190.5,209.5 Z"/></g>
<g><path style="opacity:1" fill="#f5dcb4" d="M 105.5,210.5 C 133.5,210.5 161.5,210.5 189.5,210.5C 189.216,212.415 189.549,214.081 190.5,215.5C 192.893,267.195 202.393,317.528 219,366.5C 225.095,389.264 239.595,403.097 262.5,408C 299.165,408.5 335.832,408.667 372.5,408.5C 370.197,413.446 367.531,418.113 364.5,422.5C 292.047,424.492 219.38,425.159 146.5,424.5C 122.868,378.324 108.368,329.324 103,277.5C 101.201,263.213 100.034,248.879 99.5,234.5C 99.24,227.443 99.5733,220.443 100.5,213.5C 101.3,211.259 102.966,210.259 105.5,210.5 Z"/></g>
<g><path style="opacity:0.359" fill="#f6e1bb" d="M 100.5,213.5 C 99.5733,220.443 99.24,227.443 99.5,234.5C 98.346,228.013 98.1794,221.346 99,214.5C 99.3826,213.944 99.8826,213.611 100.5,213.5 Z"/></g>
<g><path style="opacity:0.934" fill="#f5dcb4" d="M 384.5,381.5 C 386.57,371.218 389.57,361.218 393.5,351.5C 401.699,343.134 410.365,335.301 419.5,328C 437.494,315.332 456.161,303.665 475.5,293C 488.606,280.487 489.773,266.987 479,252.5C 469.018,243.437 457.851,241.604 445.5,247C 438.202,253.65 430.202,259.316 421.5,264C 417.586,265.283 413.586,266.116 409.5,266.5C 409.593,260.484 409.926,254.484 410.5,248.5C 412.564,248.313 414.564,247.813 416.5,247C 424.47,240.013 433.136,234.013 442.5,229C 469.312,221.993 488.812,230.826 501,255.5C 507.116,275.811 502.283,292.978 486.5,307C 463.476,319.84 441.476,334.173 420.5,350C 412.822,356.337 406.655,363.837 402,372.5C 401.667,377.167 401.333,381.833 401,386.5C 397.372,392.597 392.538,393.764 386.5,390C 384.821,387.435 384.154,384.602 384.5,381.5 Z"/></g>
<g><path style="opacity:0.864" fill="#f6e0b9" d="M 1.5,425.5 C 44.9968,424.501 88.6635,424.168 132.5,424.5C 131.71,425.401 130.71,426.068 129.5,426.5C 87.0033,425.501 44.3366,425.168 1.5,425.5 Z"/></g>
<g><path style="opacity:0.991" fill="#f9eac7" d="M 364.5,422.5 C 412.49,424.33 460.823,425.163 509.5,425C 510.066,425.995 510.733,426.828 511.5,427.5C 511.5,429.5 511.5,431.5 511.5,433.5C 504.79,439.546 497.79,445.212 490.5,450.5C 372.335,449.5 254.001,449.167 135.5,449.5C 125.977,447.794 122.143,442.127 124,432.5C 125.36,429.977 127.193,427.977 129.5,426.5C 130.71,426.068 131.71,425.401 132.5,424.5C 137.167,424.5 141.833,424.5 146.5,424.5C 219.38,425.159 292.047,424.492 364.5,422.5 Z"/></g>
<g><path style="opacity:1" fill="#f5dcb4" d="M 1.5,425.5 C 44.3366,425.168 87.0033,425.501 129.5,426.5C 127.193,427.977 125.36,429.977 124,432.5C 122.143,442.127 125.977,447.794 135.5,449.5C 253.337,449.834 371.004,450.834 488.5,452.5C 482.701,458.786 475.701,463.286 467.5,466C 326.167,466.667 184.833,466.667 43.5,466C 39.4558,465.144 35.7892,463.478 32.5,461C 21.3347,451.999 10.3347,442.832 -0.5,433.5C -0.5,431.5 -0.5,429.5 -0.5,427.5C 0.166667,426.833 0.833333,426.167 1.5,425.5 Z"/></g>
<g><path style="opacity:1" fill="#f6deb6" d="M 135.5,449.5 C 254.001,449.167 372.335,449.5 490.5,450.5C 490.167,451.5 489.5,452.167 488.5,452.5C 371.004,450.834 253.337,449.834 135.5,449.5 Z"/></g>
</svg>
