<?xml version="1.0" encoding="UTF-8"?>
<!DOCTYPE svg PUBLIC "-//W3C//DTD SVG 1.1//EN" "http://www.w3.org/Graphics/SVG/1.1/DTD/svg11.dtd">
<svg xmlns="http://www.w3.org/2000/svg" version="1.1" width="512px" height="512px" style="shape-rendering:geometricPrecision; text-rendering:geometricPrecision; image-rendering:optimizeQuality; fill-rule:evenodd; clip-rule:evenodd" xmlns:xlink="http://www.w3.org/1999/xlink">
<g><path style="opacity:0.987" fill="#cac3cb" d="M 200.5,-0.5 C 209.833,-0.5 219.167,-0.5 228.5,-0.5C 233.003,1.14999 235.003,4.48332 234.5,9.5C 231.904,30.6054 228.904,51.6054 225.5,72.5C 218.412,72.7955 211.412,72.4621 204.5,71.5C 201.92,50.2754 198.92,29.1087 195.5,8C 196.15,4.52834 197.816,1.695 200.5,-0.5 Z"/></g>
<g><path style="opacity:1" fill="#b5adb6" d="M 228.5,-0.5 C 239.5,-0.5 250.5,-0.5 261.5,-0.5C 264.956,1.40521 266.623,4.40521 266.5,8.5C 263.591,29.5265 260.591,50.5265 257.5,71.5C 247.013,72.4944 236.346,72.8278 225.5,72.5C 228.904,51.6054 231.904,30.6054 234.5,9.5C 235.003,4.48332 233.003,1.14999 228.5,-0.5 Z"/></g>
<g><path style="opacity:0.999" fill="#908190" d="M 204.5,71.5 C 211.412,72.4621 218.412,72.7955 225.5,72.5C 236.346,72.8278 247.013,72.4944 257.5,71.5C 272.167,71.5 286.833,71.5 301.5,71.5C 304.267,72.7326 306.434,74.7326 308,77.5C 308.5,90.8292 308.667,104.163 308.5,117.5C 246.833,117.5 185.167,117.5 123.5,117.5C 123.167,117.5 122.833,117.5 122.5,117.5C 122.333,104.829 122.5,92.1623 123,79.5C 123.066,76.7244 124.232,74.5577 126.5,73C 152.436,71.5273 178.436,71.0273 204.5,71.5 Z"/></g>
<g><path style="opacity:1" fill="#7a6d79" d="M 301.5,71.5 C 311.839,71.3335 322.172,71.5002 332.5,72C 334.848,72.3459 336.681,73.5125 338,75.5C 339.466,89.7359 339.966,104.069 339.5,118.5C 338.5,118.5 337.5,118.5 336.5,118.5C 327.348,117.506 318.015,117.173 308.5,117.5C 308.667,104.163 308.5,90.8292 308,77.5C 306.434,74.7326 304.267,72.7326 301.5,71.5 Z"/></g>
<g><path style="opacity:0.994" fill="#d8ecfe" d="M 122.5,117.5 C 122.833,117.5 123.167,117.5 123.5,117.5C 153.662,118.498 183.995,118.831 214.5,118.5C 214.5,195.167 214.5,271.833 214.5,348.5C 179.167,348.5 143.833,348.5 108.5,348.5C 108.667,299.166 108.5,249.832 108,200.5C 106.891,196.281 105.225,192.281 103,188.5C 86.6667,168.5 70.3333,148.5 54,128.5C 51.6432,124.483 52.1432,120.983 55.5,118C 77.8308,117.5 100.164,117.333 122.5,117.5 Z"/></g>
<g><path style="opacity:1" fill="#ced5e2" d="M 214.5,118.5 C 215.499,195.332 215.833,272.332 215.5,349.5C 179.833,349.5 144.167,349.5 108.5,349.5C 108.5,349.167 108.5,348.833 108.5,348.5C 143.833,348.5 179.167,348.5 214.5,348.5C 214.5,271.833 214.5,195.167 214.5,118.5 Z"/></g>
<g><path style="opacity:1" fill="#cac3cc" d="M 123.5,117.5 C 185.167,117.5 246.833,117.5 308.5,117.5C 318.015,117.173 327.348,117.506 336.5,118.5C 327.167,118.5 317.833,118.5 308.5,118.5C 288.167,118.5 267.833,118.5 247.5,118.5C 247.5,195.5 247.5,272.5 247.5,349.5C 236.833,349.5 226.167,349.5 215.5,349.5C 215.833,272.332 215.499,195.332 214.5,118.5C 183.995,118.831 153.662,118.498 123.5,117.5 Z"/></g>
<g><path style="opacity:1" fill="#d7ebfd" d="M 308.5,118.5 C 315.237,121.407 319.737,126.407 322,133.5C 322.5,205.166 322.667,276.833 322.5,348.5C 322.5,348.833 322.5,349.167 322.5,349.5C 297.5,349.5 272.5,349.5 247.5,349.5C 247.5,272.5 247.5,195.5 247.5,118.5C 267.833,118.5 288.167,118.5 308.5,118.5 Z"/></g>
<g><path style="opacity:0.998" fill="#c4e2fe" d="M 308.5,118.5 C 317.833,118.5 327.167,118.5 336.5,118.5C 337.5,118.5 338.5,118.5 339.5,118.5C 345.359,120.189 349.526,123.856 352,129.5C 353.426,139.754 353.926,150.088 353.5,160.5C 353.5,172.5 353.5,184.5 353.5,196.5C 353.5,247.167 353.5,297.833 353.5,348.5C 343.167,348.5 332.833,348.5 322.5,348.5C 322.667,276.833 322.5,205.166 322,133.5C 319.737,126.407 315.237,121.407 308.5,118.5 Z"/></g>
<g><path style="opacity:0.987" fill="#8ac9fe" d="M 353.5,160.5 C 379.232,157.67 402.898,163.17 424.5,177C 441.497,189.817 452.33,206.65 457,227.5C 458.116,242.629 458.616,257.796 458.5,273C 463.652,304.019 456.819,331.852 438,356.5C 414.724,379.87 386.557,389.203 353.5,384.5C 353.5,372.5 353.5,360.5 353.5,348.5C 375.999,352.428 395.166,346.428 411,330.5C 416.227,324.211 419.727,317.045 421.5,309C 422.641,285.853 422.808,262.687 422,239.5C 416.949,217.448 403.449,203.615 381.5,198C 372.204,196.818 362.87,196.318 353.5,196.5C 353.5,184.5 353.5,172.5 353.5,160.5 Z"/></g>
<g><path style="opacity:1" fill="#b4acb5" d="M 108.5,349.5 C 144.167,349.5 179.833,349.5 215.5,349.5C 226.167,349.5 236.833,349.5 247.5,349.5C 272.5,349.5 297.5,349.5 322.5,349.5C 322.5,361.167 322.5,372.833 322.5,384.5C 251.167,384.5 179.833,384.5 108.5,384.5C 108.5,372.833 108.5,361.167 108.5,349.5 Z"/></g>
<g><path style="opacity:1" fill="#a69ba6" d="M 322.5,349.5 C 332.5,349.5 342.5,349.5 352.5,349.5C 352.5,361.167 352.5,372.833 352.5,384.5C 342.5,384.5 332.5,384.5 322.5,384.5C 322.5,372.833 322.5,361.167 322.5,349.5 Z"/></g>
<g><path style="opacity:0.949" fill="#a7b0c6" d="M 322.5,349.5 C 322.5,349.167 322.5,348.833 322.5,348.5C 332.833,348.5 343.167,348.5 353.5,348.5C 353.5,360.5 353.5,372.5 353.5,384.5C 353.167,384.5 352.833,384.5 352.5,384.5C 352.5,372.833 352.5,361.167 352.5,349.5C 342.5,349.5 332.5,349.5 322.5,349.5 Z"/></g>
<g><path style="opacity:0.997" fill="#9b5e5e" d="M 108.5,384.5 C 179.833,384.5 251.167,384.5 322.5,384.5C 332.5,384.5 342.5,384.5 352.5,384.5C 352.833,384.5 353.167,384.5 353.5,384.5C 353.5,384.833 353.5,385.167 353.5,385.5C 343.167,385.5 332.833,385.5 322.5,385.5C 322.5,407.833 322.5,430.167 322.5,452.5C 332.833,452.5 343.167,452.5 353.5,452.5C 353.5,452.833 353.5,453.167 353.5,453.5C 343.5,453.5 333.5,453.5 323.5,453.5C 251.833,453.5 180.167,453.5 108.5,453.5C 108.5,430.5 108.5,407.5 108.5,384.5 Z"/></g>
<g><path style="opacity:1" fill="#855151" d="M 353.5,385.5 C 353.5,407.833 353.5,430.167 353.5,452.5C 343.167,452.5 332.833,452.5 322.5,452.5C 322.5,430.167 322.5,407.833 322.5,385.5C 332.833,385.5 343.167,385.5 353.5,385.5 Z"/></g>
<g><path style="opacity:0.998" fill="#fed1a3" d="M 108.5,453.5 C 180.167,453.5 251.833,453.5 323.5,453.5C 327.291,465.986 323.291,474.819 311.5,480C 240.501,480.5 169.501,480.667 98.5,480.5C 101.833,471.5 105.167,462.5 108.5,453.5 Z"/></g>
<g><path style="opacity:1" fill="#ffbd86" d="M 323.5,453.5 C 333.5,453.5 343.5,453.5 353.5,453.5C 359.213,465.972 363.546,478.972 366.5,492.5C 366.353,501.82 362.019,508.154 353.5,511.5C 271.833,511.5 190.167,511.5 108.5,511.5C 95.8035,504.427 92.4701,494.094 98.5,480.5C 169.501,480.667 240.501,480.5 311.5,480C 323.291,474.819 327.291,465.986 323.5,453.5 Z"/></g>
</svg>
