<?xml version="1.0" encoding="UTF-8"?>
<!DOCTYPE svg PUBLIC "-//W3C//DTD SVG 1.1//EN" "http://www.w3.org/Graphics/SVG/1.1/DTD/svg11.dtd">
<svg xmlns="http://www.w3.org/2000/svg" version="1.1" width="512px" height="512px" style="shape-rendering:geometricPrecision; text-rendering:geometricPrecision; image-rendering:optimizeQuality; fill-rule:evenodd; clip-rule:evenodd" xmlns:xlink="http://www.w3.org/1999/xlink">
<g><path style="opacity:0.998" fill="#e6e5e5" d="M 121.5,-0.5 C 200.167,-0.5 278.833,-0.5 357.5,-0.5C 367.971,4.77755 370.804,12.7776 366,23.5C 363.559,26.4536 360.725,28.7869 357.5,30.5C 278.138,30.8247 198.805,30.4914 119.5,29.5C 111.105,23.1593 109.272,15.1593 114,5.5C 116.114,2.87922 118.614,0.879222 121.5,-0.5 Z"/></g>
<g><path style="opacity:1" fill="#cccccc" d="M 357.5,-0.5 C 368.167,-0.5 378.833,-0.5 389.5,-0.5C 399.765,5.34628 402.265,13.6796 397,24.5C 395.27,26.4019 393.437,28.0686 391.5,29.5C 382.207,30.4183 372.873,30.7517 363.5,30.5C 361.5,30.5 359.5,30.5 357.5,30.5C 360.725,28.7869 363.559,26.4536 366,23.5C 370.804,12.7776 367.971,4.77755 357.5,-0.5 Z"/></g>
<g><path style="opacity:1" fill="#fe4b22" d="M 119.5,29.5 C 198.805,30.4914 278.138,30.8247 357.5,30.5C 359.5,30.5 361.5,30.5 363.5,30.5C 368.04,34.2116 371.207,38.8783 373,44.5C 373.5,79.8318 373.667,115.165 373.5,150.5C 373.5,150.833 373.5,151.167 373.5,151.5C 284.402,170.024 195.402,189.024 106.5,208.5C 106.333,153.499 106.5,98.499 107,43.5C 108.92,36.7509 113.086,32.0842 119.5,29.5 Z"/></g>
<g><path style="opacity:1" fill="#ef4722" d="M 391.5,29.5 C 397.914,32.0842 402.08,36.7509 404,43.5C 404.5,77.165 404.667,110.832 404.5,144.5C 394.119,146.243 383.785,148.243 373.5,150.5C 373.667,115.165 373.5,79.8318 373,44.5C 371.207,38.8783 368.04,34.2116 363.5,30.5C 372.873,30.7517 382.207,30.4183 391.5,29.5 Z"/></g>
<g><path style="opacity:1" fill="#c3d036" d="M 404.5,144.5 C 404.5,165.5 404.5,186.5 404.5,207.5C 394.167,209.5 383.833,211.5 373.5,213.5C 373.5,192.833 373.5,172.167 373.5,151.5C 373.5,151.167 373.5,150.833 373.5,150.5C 383.785,148.243 394.119,146.243 404.5,144.5 Z"/></g>
<g><path style="opacity:1" fill="#d4e056" d="M 373.5,151.5 C 373.5,172.167 373.5,192.833 373.5,213.5C 372.508,213.328 371.842,213.662 371.5,214.5C 283.105,233.177 194.771,252.177 106.5,271.5C 106.5,250.5 106.5,229.5 106.5,208.5C 195.402,189.024 284.402,170.024 373.5,151.5 Z"/></g>
<g><path style="opacity:1" fill="#ee4822" d="M 404.5,207.5 C 404.5,221.833 404.5,236.167 404.5,250.5C 394.217,252.957 383.883,255.291 373.5,257.5C 374.15,242.794 373.483,228.461 371.5,214.5C 371.842,213.662 372.508,213.328 373.5,213.5C 383.833,211.5 394.167,209.5 404.5,207.5 Z"/></g>
<g><path style="opacity:1" fill="#fe4c22" d="M 371.5,214.5 C 373.483,228.461 374.15,242.794 373.5,257.5C 284.444,276.681 195.444,296.015 106.5,315.5C 106.5,300.833 106.5,286.167 106.5,271.5C 194.771,252.177 283.105,233.177 371.5,214.5 Z"/></g>
<g><path style="opacity:1" fill="#c3d036" d="M 404.5,250.5 C 404.5,271.833 404.5,293.167 404.5,314.5C 394.119,316.243 383.785,318.243 373.5,320.5C 373.5,299.5 373.5,278.5 373.5,257.5C 383.883,255.291 394.217,252.957 404.5,250.5 Z"/></g>
<g><path style="opacity:1" fill="#d4e056" d="M 373.5,257.5 C 373.5,278.5 373.5,299.5 373.5,320.5C 372.209,320.263 371.209,320.596 370.5,321.5C 282.517,340.385 194.517,359.051 106.5,377.5C 106.5,356.833 106.5,336.167 106.5,315.5C 195.444,296.015 284.444,276.681 373.5,257.5 Z"/></g>
<g><path style="opacity:1" fill="#ef4722" d="M 404.5,314.5 C 404.667,365.168 404.5,415.834 404,466.5C 401.789,473.204 397.622,478.204 391.5,481.5C 381.539,480.576 371.539,480.242 361.5,480.5C 366.999,476.827 370.832,471.827 373,465.5C 373.5,417.501 373.667,369.501 373.5,321.5C 372.5,321.5 371.5,321.5 370.5,321.5C 371.209,320.596 372.209,320.263 373.5,320.5C 383.785,318.243 394.119,316.243 404.5,314.5 Z"/></g>
<g><path style="opacity:1" fill="#fe4b22" d="M 370.5,321.5 C 371.5,321.5 372.5,321.5 373.5,321.5C 373.667,369.501 373.5,417.501 373,465.5C 370.832,471.827 366.999,476.827 361.5,480.5C 360.167,480.5 358.833,480.5 357.5,480.5C 278.138,480.175 198.805,480.509 119.5,481.5C 113.378,478.204 109.211,473.204 107,466.5C 106.5,436.835 106.333,407.169 106.5,377.5C 194.517,359.051 282.517,340.385 370.5,321.5 Z"/></g>
<g><path style="opacity:1" fill="#cccccc" d="M 357.5,480.5 C 358.833,480.5 360.167,480.5 361.5,480.5C 371.539,480.242 381.539,480.576 391.5,481.5C 399.895,487.841 401.728,495.841 397,505.5C 394.886,508.121 392.386,510.121 389.5,511.5C 378.833,511.5 368.167,511.5 357.5,511.5C 367.784,506.15 370.617,498.15 366,487.5C 363.559,484.546 360.725,482.213 357.5,480.5 Z"/></g>
<g><path style="opacity:0.998" fill="#e6e5e5" d="M 357.5,480.5 C 360.725,482.213 363.559,484.546 366,487.5C 370.617,498.15 367.784,506.15 357.5,511.5C 278.833,511.5 200.167,511.5 121.5,511.5C 111.235,505.654 108.735,497.32 114,486.5C 115.73,484.598 117.563,482.931 119.5,481.5C 198.805,480.509 278.138,480.175 357.5,480.5 Z"/></g>
</svg>
