<?xml version="1.0" encoding="UTF-8"?>
<!DOCTYPE svg PUBLIC "-//W3C//DTD SVG 1.1//EN" "http://www.w3.org/Graphics/SVG/1.1/DTD/svg11.dtd">
<svg xmlns="http://www.w3.org/2000/svg" version="1.1" width="512px" height="512px" style="shape-rendering:geometricPrecision; text-rendering:geometricPrecision; image-rendering:optimizeQuality; fill-rule:evenodd; clip-rule:evenodd" xmlns:xlink="http://www.w3.org/1999/xlink">
<g><path style="opacity:0.991" fill="#e55863" d="M 231.5,-0.5 C 238.5,-0.5 245.5,-0.5 252.5,-0.5C 258.296,1.11844 262.463,4.78511 265,10.5C 265.667,16.8333 265.667,23.1667 265,29.5C 263.603,31.0703 262.103,32.4036 260.5,33.5C 249.986,33.1724 239.653,33.5058 229.5,34.5C 222.525,32.5786 219.525,27.912 220.5,20.5C 219.743,11.0075 223.41,4.00752 231.5,-0.5 Z"/></g>
<g><path style="opacity:1" fill="#db404f" d="M 252.5,-0.5 C 261.5,-0.5 270.5,-0.5 279.5,-0.5C 287.44,3.87165 291.107,10.705 290.5,20C 291.607,27.6237 288.607,32.457 281.5,34.5C 274.687,33.5088 267.687,33.1755 260.5,33.5C 262.103,32.4036 263.603,31.0703 265,29.5C 265.667,23.1667 265.667,16.8333 265,10.5C 262.463,4.78511 258.296,1.11844 252.5,-0.5 Z"/></g>
<g><path style="opacity:0.996" fill="#6f6470" d="M 260.5,33.5 C 267.687,33.1755 274.687,33.5088 281.5,34.5C 273.5,34.5 265.5,34.5 257.5,34.5C 257.333,46.1714 257.5,57.8381 258,69.5C 262.118,87.534 266.451,105.534 271,123.5C 272.783,129.067 275.117,134.401 278,139.5C 287.911,151.427 296.244,164.427 303,178.5C 306.574,186.46 308.407,194.793 308.5,203.5C 316.5,203.5 324.5,203.5 332.5,203.5C 332.5,203.833 332.5,204.167 332.5,204.5C 324.5,204.5 316.5,204.5 308.5,204.5C 265.167,204.5 221.833,204.5 178.5,204.5C 179.457,187.25 184.957,171.584 195,157.5C 203.424,148.324 210.09,137.991 215,126.5C 219.328,109.524 223.494,92.5236 227.5,75.5C 233.509,75.6662 239.509,75.4995 245.5,75C 251.653,70.7481 251.986,66.0814 246.5,61C 241.177,60.5006 235.844,60.334 230.5,60.5C 230.806,63.3854 230.473,66.0521 229.5,68.5C 229.5,57.1667 229.5,45.8333 229.5,34.5C 239.653,33.5058 249.986,33.1724 260.5,33.5 Z"/></g>
<g><path style="opacity:1" fill="#5e5161" d="M 281.5,34.5 C 281.333,46.1714 281.5,57.8381 282,69.5C 286.333,87.5 290.667,105.5 295,123.5C 299.955,136.117 306.955,147.45 316,157.5C 325.746,171.322 331.246,186.656 332.5,203.5C 324.5,203.5 316.5,203.5 308.5,203.5C 308.407,194.793 306.574,186.46 303,178.5C 296.244,164.427 287.911,151.427 278,139.5C 275.117,134.401 272.783,129.067 271,123.5C 266.451,105.534 262.118,87.534 258,69.5C 257.5,57.8381 257.333,46.1714 257.5,34.5C 265.5,34.5 273.5,34.5 281.5,34.5 Z"/></g>
<g><path style="opacity:1" fill="#5e5161" d="M 227.5,75.5 C 228.015,73.1055 228.681,70.7722 229.5,68.5C 230.473,66.0521 230.806,63.3854 230.5,60.5C 235.844,60.334 241.177,60.5006 246.5,61C 251.986,66.0814 251.653,70.7481 245.5,75C 239.509,75.4995 233.509,75.6662 227.5,75.5 Z"/></g>
<g><path style="opacity:1" fill="#5e5161" d="M 252.5,162.5 C 257.28,161.641 260.78,163.308 263,167.5C 263.5,179.495 263.667,191.495 263.5,203.5C 258.167,203.5 252.833,203.5 247.5,203.5C 247.333,191.495 247.5,179.495 248,167.5C 249.059,165.341 250.559,163.674 252.5,162.5 Z"/></g>
<g><path style="opacity:0.998" fill="#e55964" d="M 178.5,204.5 C 221.833,204.5 265.167,204.5 308.5,204.5C 308.5,238.5 308.5,272.5 308.5,306.5C 265.167,306.5 221.833,306.5 178.5,306.5C 178.5,272.5 178.5,238.5 178.5,204.5 Z"/></g>
<g><path style="opacity:1" fill="#db404f" d="M 308.5,204.5 C 316.5,204.5 324.5,204.5 332.5,204.5C 332.5,238.5 332.5,272.5 332.5,306.5C 324.5,306.5 316.5,306.5 308.5,306.5C 308.5,272.5 308.5,238.5 308.5,204.5 Z"/></g>
<g><path style="opacity:1" fill="#f9f2f5" d="M 218.5,230.5 C 242.836,230.333 267.169,230.5 291.5,231C 299.408,235.858 299.408,240.858 291.5,246C 267.5,246.667 243.5,246.667 219.5,246C 211.97,241.215 211.637,236.048 218.5,230.5 Z"/></g>
<g><path style="opacity:1" fill="#f9f2f4" d="M 236.5,264.5 C 249.171,264.333 261.838,264.5 274.5,265C 282.378,269.962 282.378,274.962 274.5,280C 261.5,280.667 248.5,280.667 235.5,280C 228.548,274.286 228.881,269.12 236.5,264.5 Z"/></g>
<g><path style="opacity:0.998" fill="#6f6470" d="M 178.5,306.5 C 221.833,306.5 265.167,306.5 308.5,306.5C 316.5,306.5 324.5,306.5 332.5,306.5C 332.5,306.833 332.5,307.167 332.5,307.5C 324.5,307.5 316.5,307.5 308.5,307.5C 305.394,335.117 302.728,362.784 300.5,390.5C 302.67,411.862 305.17,433.196 308,454.5C 308.667,463.833 308.667,473.167 308,482.5C 304.864,499.137 295.031,508.804 278.5,511.5C 253.833,511.5 229.167,511.5 204.5,511.5C 191.517,507.349 183.017,498.682 179,485.5C 178.333,474.833 178.333,464.167 179,453.5C 181.747,432.527 184.247,411.527 186.5,390.5C 183.701,362.506 181.034,334.506 178.5,306.5 Z"/></g>
<g><path style="opacity:1" fill="#5e5161" d="M 247.5,307.5 C 252.833,307.5 258.167,307.5 263.5,307.5C 263.667,319.505 263.5,331.505 263,343.5C 258,350.167 253,350.167 248,343.5C 247.5,331.505 247.333,319.505 247.5,307.5 Z"/></g>
<g><path style="opacity:1" fill="#5e5161" d="M 332.5,307.5 C 329.9,335.167 327.233,362.834 324.5,390.5C 326.753,411.527 329.253,432.527 332,453.5C 332.667,464.167 332.667,474.833 332,485.5C 327.983,498.682 319.483,507.349 306.5,511.5C 297.167,511.5 287.833,511.5 278.5,511.5C 295.031,508.804 304.864,499.137 308,482.5C 308.667,473.167 308.667,463.833 308,454.5C 305.17,433.196 302.67,411.862 300.5,390.5C 302.728,362.784 305.394,335.117 308.5,307.5C 316.5,307.5 324.5,307.5 332.5,307.5 Z"/></g>
<g><path style="opacity:1" fill="#5e5161" d="M 218.5,469.5 C 242.836,469.333 267.169,469.5 291.5,470C 297.292,472.09 298.792,475.924 296,481.5C 294.786,483.049 293.286,484.215 291.5,485C 267.5,485.667 243.5,485.667 219.5,485C 211.845,480.253 211.512,475.087 218.5,469.5 Z"/></g>
</svg>
