<?xml version="1.0" encoding="UTF-8"?>
<!DOCTYPE svg PUBLIC "-//W3C//DTD SVG 1.1//EN" "http://www.w3.org/Graphics/SVG/1.1/DTD/svg11.dtd">
<svg xmlns="http://www.w3.org/2000/svg" version="1.1" width="512px" height="512px" style="shape-rendering:geometricPrecision; text-rendering:geometricPrecision; image-rendering:optimizeQuality; fill-rule:evenodd; clip-rule:evenodd" xmlns:xlink="http://www.w3.org/1999/xlink">
<g><path style="opacity:0.981" fill="#9c9e9b" d="M 315.5,-0.5 C 318.167,-0.5 320.833,-0.5 323.5,-0.5C 326.651,2.13614 327.818,5.46947 327,9.5C 319.644,20.3413 312.144,31.0079 304.5,41.5C 297.5,41.5 290.5,41.5 283.5,41.5C 293.783,27.2157 304.45,13.2157 315.5,-0.5 Z"/></g>
<g><path style="opacity:0.991" fill="#c6cbd0" d="M 283.5,41.5 C 290.5,41.5 297.5,41.5 304.5,41.5C 319.837,41.3334 335.17,41.5001 350.5,42C 356.805,44.9253 360.139,49.9253 360.5,57C 359.839,63.1814 356.839,67.6814 351.5,70.5C 302.196,71.486 252.863,71.8193 203.5,71.5C 189.088,71.8156 174.755,71.4822 160.5,70.5C 154.415,68.2076 151.081,63.7076 150.5,57C 150.861,49.9253 154.195,44.9253 160.5,42C 201.499,41.5 242.499,41.3333 283.5,41.5 Z"/></g>
<g><path style="opacity:0.999" fill="#77bd63" d="M 351.5,70.5 C 362.642,90.7791 373.809,111.112 385,131.5C 387.427,137.632 389.093,143.966 390,150.5C 390.667,253.5 390.667,356.5 390,459.5C 386.266,471.782 378.099,479.115 365.5,481.5C 304.5,481.5 243.5,481.5 182.5,481.5C 171.21,477.709 163.71,470.042 160,458.5C 159.333,358.833 159.333,259.167 160,159.5C 160.784,153.246 162.45,147.246 165,141.5C 177.604,117.952 190.437,94.6186 203.5,71.5C 252.863,71.8193 302.196,71.486 351.5,70.5 Z"/></g>
<g><path style="opacity:1" fill="#5e9f51" d="M 160.5,70.5 C 174.755,71.4822 189.088,71.8156 203.5,71.5C 190.437,94.6186 177.604,117.952 165,141.5C 162.45,147.246 160.784,153.246 160,159.5C 159.333,259.167 159.333,358.833 160,458.5C 163.71,470.042 171.21,477.709 182.5,481.5C 170.167,481.5 157.833,481.5 145.5,481.5C 132.901,479.115 124.734,471.782 121,459.5C 120.333,356.5 120.333,253.5 121,150.5C 121.907,143.966 123.573,137.632 126,131.5C 137.006,110.815 148.506,90.4816 160.5,70.5 Z"/></g>
<g><path style="opacity:1" fill="#b4eb92" d="M 282.5,101.5 C 307.499,100.667 319.666,112.667 319,137.5C 313.412,155.404 301.245,163.237 282.5,161C 265.212,154.932 257.712,142.765 260,124.5C 263.684,112.984 271.184,105.317 282.5,101.5 Z"/></g>
<g><path style="opacity:1" fill="#b3eb92" d="M 184.5,171.5 C 202.01,170.842 210.177,179.175 209,196.5C 204.594,207.622 196.427,212.455 184.5,211C 173.394,206.63 168.56,198.463 170,186.5C 172.351,178.984 177.184,173.984 184.5,171.5 Z"/></g>
<g><path style="opacity:1" fill="#fec261" d="M 316.5,274.5 C 295.42,268.64 274.42,262.474 253.5,256C 250.719,255.478 248.385,254.311 246.5,252.5C 263.479,235.855 280.479,219.188 297.5,202.5C 317.564,222.752 323.898,246.752 316.5,274.5 Z"/></g>
<g><path style="opacity:1" fill="#feda8a" d="M 246.5,252.5 C 248.385,254.311 250.719,255.478 253.5,256C 274.42,262.474 295.42,268.64 316.5,274.5C 308.833,301.5 291.5,318.833 264.5,326.5C 258.141,302.762 250.808,279.428 242.5,256.5C 243.5,254.833 244.833,253.5 246.5,252.5 Z"/></g>
<g><path style="opacity:1" fill="#fec261" d="M 242.5,256.5 C 250.808,279.428 258.141,302.762 264.5,326.5C 236.752,333.898 212.752,327.564 192.5,307.5C 209.188,290.479 225.855,273.479 242.5,256.5 Z"/></g>
<g><path style="opacity:1" fill="#b3eb92" d="M 324.5,351.5 C 342.01,350.842 350.177,359.175 349,376.5C 344.594,387.622 336.427,392.455 324.5,391C 313.394,386.63 308.56,378.463 310,366.5C 312.351,358.984 317.184,353.984 324.5,351.5 Z"/></g>
<g><path style="opacity:1" fill="#b4eb92" d="M 202.5,381.5 C 227.499,380.667 239.666,392.667 239,417.5C 233.412,435.404 221.245,443.237 202.5,441C 185.212,434.932 177.712,422.765 180,404.5C 183.684,392.984 191.184,385.317 202.5,381.5 Z"/></g>
<g><path style="opacity:0.994" fill="#417a46" d="M 145.5,481.5 C 157.833,481.5 170.167,481.5 182.5,481.5C 243.5,481.5 304.5,481.5 365.5,481.5C 363.309,489.573 360.809,497.573 358,505.5C 356.64,508.023 354.807,510.023 352.5,511.5C 287.833,511.5 223.167,511.5 158.5,511.5C 156.193,510.023 154.36,508.023 153,505.5C 150.191,497.573 147.691,489.573 145.5,481.5 Z"/></g>
</svg>
