<?xml version="1.0" encoding="UTF-8"?>
<!DOCTYPE svg PUBLIC "-//W3C//DTD SVG 1.1//EN" "http://www.w3.org/Graphics/SVG/1.1/DTD/svg11.dtd">
<svg xmlns="http://www.w3.org/2000/svg" version="1.1" width="512px" height="512px" style="shape-rendering:geometricPrecision; text-rendering:geometricPrecision; image-rendering:optimizeQuality; fill-rule:evenodd; clip-rule:evenodd" xmlns:xlink="http://www.w3.org/1999/xlink">
<g><path style="opacity:0.996" fill="#e8d6bd" d="M 122.5,-0.5 C 211.167,-0.5 299.833,-0.5 388.5,-0.5C 393.991,21.7983 399.325,44.1316 404.5,66.5C 305.167,67.8333 205.833,67.8333 106.5,66.5C 111.675,44.1316 117.009,21.7983 122.5,-0.5 Z"/></g>
<g><path style="opacity:0.996" fill="#f8eada" d="M 106.5,66.5 C 205.833,67.8333 305.167,67.8333 404.5,66.5C 415.833,66.5 427.167,66.5 438.5,66.5C 438.5,81.8333 438.5,97.1667 438.5,112.5C 432.833,112.5 427.167,112.5 421.5,112.5C 383.5,112.5 345.5,112.5 307.5,112.5C 301.833,112.5 296.167,112.5 290.5,112.5C 223.5,112.5 156.5,112.5 89.5,112.5C 83.8333,112.5 78.1667,112.5 72.5,112.5C 72.5,97.1667 72.5,81.8333 72.5,66.5C 83.8333,66.5 95.1667,66.5 106.5,66.5 Z"/></g>
<g><path style="opacity:0.997" fill="#bd9f79" d="M 89.5,112.5 C 156.5,112.5 223.5,112.5 290.5,112.5C 290.5,136.5 290.5,160.5 290.5,184.5C 225.5,184.5 160.5,184.5 95.5,184.5C 92.9524,160.596 90.9524,136.596 89.5,112.5 Z"/></g>
<g><path style="opacity:1" fill="#d2b99b" d="M 290.5,112.5 C 296.167,112.5 301.833,112.5 307.5,112.5C 307.5,136.5 307.5,160.5 307.5,184.5C 343.5,184.5 379.5,184.5 415.5,184.5C 415.5,184.833 415.5,185.167 415.5,185.5C 379.5,185.5 343.5,185.5 307.5,185.5C 307.5,201.5 307.5,217.5 307.5,233.5C 304.592,232.308 301.592,231.308 298.5,230.5C 295.81,231.507 293.144,232.507 290.5,233.5C 290.5,217.5 290.5,201.5 290.5,185.5C 225.5,185.5 160.5,185.5 95.5,185.5C 95.5,185.167 95.5,184.833 95.5,184.5C 160.5,184.5 225.5,184.5 290.5,184.5C 290.5,160.5 290.5,136.5 290.5,112.5 Z"/></g>
<g><path style="opacity:0.995" fill="#bc9f78" d="M 307.5,112.5 C 345.5,112.5 383.5,112.5 421.5,112.5C 420.048,136.596 418.048,160.596 415.5,184.5C 379.5,184.5 343.5,184.5 307.5,184.5C 307.5,160.5 307.5,136.5 307.5,112.5 Z"/></g>
<g><path style="opacity:0.996" fill="#f8eada" d="M 95.5,185.5 C 160.5,185.5 225.5,185.5 290.5,185.5C 290.5,201.5 290.5,217.5 290.5,233.5C 279.445,237.631 268.445,241.964 257.5,246.5C 256.5,274.825 256.167,303.159 256.5,331.5C 284.833,331.5 313.167,331.5 341.5,331.5C 341.5,303.167 341.5,274.833 341.5,246.5C 329.952,242.726 318.618,238.392 307.5,233.5C 307.5,217.5 307.5,201.5 307.5,185.5C 343.5,185.5 379.5,185.5 415.5,185.5C 408.665,269.848 401.665,354.181 394.5,438.5C 301.833,438.5 209.167,438.5 116.5,438.5C 109.335,354.181 102.335,269.848 95.5,185.5 Z"/></g>
<g><path style="opacity:1" fill="#ef5452" d="M 307.5,233.5 C 318.618,238.392 329.952,242.726 341.5,246.5C 341.5,274.833 341.5,303.167 341.5,331.5C 313.167,331.5 284.833,331.5 256.5,331.5C 256.167,303.159 256.5,274.825 257.5,246.5C 268.445,241.964 279.445,237.631 290.5,233.5C 293.144,232.507 295.81,231.507 298.5,230.5C 301.592,231.308 304.592,232.308 307.5,233.5 Z"/></g>
<g><path style="opacity:0.996" fill="#bc9f78" d="M 116.5,438.5 C 209.167,438.5 301.833,438.5 394.5,438.5C 392.224,462.808 390.224,487.141 388.5,511.5C 299.833,511.5 211.167,511.5 122.5,511.5C 120.776,487.141 118.776,462.808 116.5,438.5 Z"/></g>
</svg>
