<svg xmlns="http://www.w3.org/2000/svg" viewBox="0 0 32 32" id="coffee-glass"><path fill="#d6b5b0" d="M25.89,5.55,24.17,2.11A2,2,0,0,0,22.38,1H9.62A2,2,0,0,0,7.83,2.11L6.11,5.55A1,1,0,0,0,7,7H25a1,1,0,0,0,.89-1.45Z"></path><path fill="#bf9e99" d="M25.89,5.55,24.17,2.11A2,2,0,0,0,22.38,1H9.62A2,2,0,0,0,7.83,2.11l-.1.19a2,2,0,0,1,1-.3H21.55a2,2,0,0,1,1.79,1.11l1.72,3.44a.94.94,0,0,1,.1.43,1,1,0,0,0,.69-.45A1,1,0,0,0,25.89,5.55Z"></path><path fill="#eef5fd" d="M24.73,9.32A1,1,0,0,0,24,9H8a1,1,0,0,0-.73.32,1,1,0,0,0-.27.76L8.53,29.16a2,2,0,0,0,2,1.84h11a2,2,0,0,0,2-1.84L25,10.08A1,1,0,0,0,24.73,9.32Z"></path><path fill="#d7e2f2" d="M24.73,9.32A1,1,0,0,0,24,9h-.54L22,27.66a2,2,0,0,1-2,1.84H9a1.61,1.61,0,0,1-.44-.06A2,2,0,0,0,10.52,31h11a2,2,0,0,0,2-1.84L25,10.08A1,1,0,0,0,24.73,9.32Z"></path><polygon fill="#ffd599" points="8.36 27 23.64 27 24.76 13 7.24 13 8.36 27"></polygon><polygon fill="#e4ab7b" points="23.14 13 22.02 27 23.64 27 24.47 16.67 24.76 13 23.14 13"></polygon><rect width="22" height="6" x="5" y="5" fill="#96d7ff" rx="1" ry="1"></rect><path fill="#86c3ef" d="M26,5H6A1,1,0,0,0,5,6H24.79a1,1,0,0,1,1,1v4H26a1,1,0,0,0,1-1V6A1,1,0,0,0,26,5Z"></path><path fill="#e4ab7b" d="M17.59,16.43A3.77,3.77,0,0,0,12.94,19a3.77,3.77,0,0,0,1.92,5,3.19,3.19,0,0,0,1.06.18,4,4,0,0,0,3.59-2.74A3.77,3.77,0,0,0,17.59,16.43Z"></path><path fill="#d6b5b0" d="M17.37,16.24a3.78,3.78,0,0,0-4.66,2.56,3.79,3.79,0,0,0,1.92,5,3,3,0,0,0,1.06.19,4,4,0,0,0,3.6-2.75A3.79,3.79,0,0,0,17.37,16.24Z"></path><path fill="#bf9e99" d="M17.75,16.43a4,4,0,0,1,.76,4.2,4,4,0,0,1-3.6,2.75,3.23,3.23,0,0,1-1.06-.18c-.13-.05-.25-.13-.38-.19a3.12,3.12,0,0,0,2.22.94,4,4,0,0,0,3.6-2.75A3.85,3.85,0,0,0,17.75,16.43Z"></path></svg>