<svg xmlns="http://www.w3.org/2000/svg" data-name="Layer 3" viewBox="0 0 64 64" id="ice-drip-coffee"><rect width="18" height="26" x="23" y="3" fill="#77787c"></rect><rect width="14" height="26" x="27" y="3" fill="#88898d"></rect><path fill="#d6e3f5" d="M42,35l3,24h0a3,3,0,0,1-3,3H22a3,3,0,0,1-3-3h0l3-24Z"></path><path fill="#e6eefa" d="M45,59,42,35H25L22,59a3,3,0,0,0,3,3H42A3,3,0,0,0,45,59Z"></path><rect width="22" height="6" x="21" y="29" fill="#77787c"></rect><rect width="24" height="2" x="20" y="2" fill="#5a5b5d"></rect><rect width="18" height="6" x="23" y="15" fill="#5a5b5d"></rect><rect width="4" height="4" x="30" y="21" fill="#5a5b5d"></rect><rect width="16" height="9" x="24" y="35" fill="#5a5b5d"></rect><path fill="#696a6c" d="M23,3H44V2H22A1,1,0,0,0,23,3Z"></path><path fill="#88898d" d="M23,31a2,2,0,0,0,2,2H43V29H23Z"></path><path fill="#696a6c" d="M26 40a2 2 0 0 0 2 2H40V35H26zM25 17a2 2 0 0 0 2 2H41V15H25zM31 23a1 1 0 0 0 1 1h2V21H31z"></path><path fill="#71492a" d="M45,59l-.5-4H40.95a11.949,11.949,0,0,1-8.45-3.5A11.949,11.949,0,0,0,24.05,48H20.375L19,59a3,3,0,0,0,3,3H42A3,3,0,0,0,45,59Z"></path><path fill="#7f5433" d="M45,59l-.5-4H40.95a11.949,11.949,0,0,1-8.45-3.5A11.949,11.949,0,0,0,24.05,48h-.675L22,59a3,3,0,0,0,3,3H42A3,3,0,0,0,45,59Z" opacity=".9"></path><rect width="18" height="2" x="23" y="4" fill="#5a5b5d" opacity=".3"></rect><rect width="18" height="2" x="23" y="27" fill="#5a5b5d" opacity=".3"></rect></svg>